<?xml version="1.0" standalone="no"?>
<!DOCTYPE svg PUBLIC "-//W3C//DTD SVG 20010904//EN"
 "http://www.w3.org/TR/2001/REC-SVG-20010904/DTD/svg10.dtd">
<svg version="1.0" xmlns="http://www.w3.org/2000/svg"
 width="1567.000000pt" height="1567.000000pt" viewBox="0 0 1567.000000 1567.000000"
 preserveAspectRatio="xMidYMid meet">
<metadata>
Created by potrace 1.11, written by Peter Selinger 2001-2013
</metadata>
<g transform="translate(0.000000,1567.000000) scale(0.100000,-0.100000)"
fill="#000000" stroke="none">
<path d="M7755 12560 c-22 -5 -79 -9 -127 -9 -48 -1 -97 -5 -110 -10 -13 -5
-61 -19 -108 -32 -190 -50 -286 -80 -357 -114 -41 -19 -77 -35 -80 -35 -2 0
-19 -11 -37 -25 -18 -14 -37 -25 -43 -25 -5 0 -43 -23 -84 -51 -76 -53 -166
-140 -231 -225 -44 -57 -139 -243 -140 -276 -1 -13 -5 -27 -8 -33 -31 -44 -48
-229 -30 -321 6 -33 15 -81 20 -109 16 -86 19 -97 55 -205 20 -58 43 -127 52
-155 17 -54 31 -90 43 -116 4 -8 18 -51 30 -95 25 -87 29 -177 12 -221 -9 -21
-9 -40 1 -78 l12 -50 72 4 c70 3 74 2 120 -32 131 -97 213 -239 249 -432 16
-85 20 -320 6 -339 -5 -6 -17 -38 -27 -71 -30 -94 -57 -136 -104 -161 -34 -18
-49 -20 -74 -13 -51 14 -66 11 -82 -20 -13 -27 -13 -33 6 -77 12 -26 21 -63
21 -83 1 -47 -18 -154 -30 -177 -21 -42 -55 -135 -89 -244 -35 -112 -36 -120
-37 -280 l-1 -165 44 -110 c49 -127 64 -154 108 -212 18 -23 33 -45 33 -49 0
-9 53 -60 151 -146 126 -111 372 -217 549 -237 l55 -6 1 -80 c1 -44 4 -156 8
-250 3 -93 8 -237 11 -320 3 -82 8 -229 12 -325 8 -166 6 -280 -3 -289 -8 -8
-95 130 -123 194 -24 55 -32 71 -41 85 -5 8 -41 78 -79 155 -76 156 -105 210
-119 228 -26 31 -213 410 -208 422 2 7 30 32 60 55 31 22 56 47 56 56 0 8 -21
25 -47 37 -139 66 -297 198 -366 305 -15 23 -31 42 -36 42 -8 0 -81 104 -81
115 0 4 -13 33 -30 66 -16 33 -29 60 -28 62 0 1 -9 34 -20 72 -65 220 -67 353
-8 545 19 62 33 116 31 118 -2 3 9 30 24 61 36 70 51 144 52 246 0 111 -10
138 -84 209 -43 41 -79 90 -113 151 -27 50 -50 95 -52 100 -2 6 -7 19 -12 30
-76 183 -104 351 -77 456 15 56 62 144 101 187 11 13 40 35 63 50 l44 27 -7
55 c-4 39 -13 62 -31 80 -13 14 -39 49 -57 78 -33 52 -48 114 -87 357 -15 93
-67 295 -83 320 -7 11 -23 47 -36 80 -13 33 -27 62 -30 65 -4 3 -21 32 -39 64
-55 101 -98 159 -153 206 -58 49 -307 180 -344 180 -12 0 -25 4 -28 9 -6 8
-50 18 -201 43 -114 18 -302 11 -450 -19 -71 -14 -145 -31 -164 -39 -18 -8
-42 -14 -53 -14 -37 0 -193 -58 -253 -94 -32 -20 -74 -40 -92 -45 -19 -5 -72
-36 -119 -68 -47 -32 -93 -62 -102 -68 -50 -30 -102 -66 -129 -92 -17 -15 -57
-50 -89 -78 -152 -130 -294 -313 -384 -495 -106 -214 -128 -437 -71 -725 14
-73 99 -232 168 -316 57 -70 189 -199 285 -281 245 -208 308 -283 308 -367 0
-31 8 -44 36 -59 22 -11 56 -6 136 22 113 40 300 -26 448 -156 59 -51 91 -94
177 -233 35 -57 62 -128 71 -190 11 -70 11 -70 88 -143 79 -75 177 -134 299
-182 33 -13 66 -28 73 -33 7 -5 40 -18 75 -27 169 -48 344 -143 456 -247 26
-23 49 -43 53 -43 7 0 91 -123 131 -192 15 -26 33 -53 40 -60 17 -17 57 -131
63 -182 3 -22 10 -48 15 -58 7 -14 6 -191 -3 -288 -4 -46 3 -80 17 -80 8 0 44
14 78 30 35 16 68 30 73 30 5 0 19 -22 31 -48 12 -27 35 -65 50 -84 65 -83
100 -138 127 -195 8 -18 30 -53 48 -77 18 -24 51 -74 73 -111 22 -36 58 -94
80 -127 99 -151 185 -293 185 -307 0 -6 3 -11 8 -11 9 0 67 -95 81 -133 10
-26 10 -26 -17 -14 -15 6 -46 25 -68 42 -23 16 -65 44 -95 60 -58 33 -63 36
-182 118 -46 31 -91 57 -99 57 -8 0 -37 20 -64 45 -27 25 -52 45 -56 45 -8 0
-55 31 -110 73 -20 16 -52 32 -71 38 -19 5 -44 18 -57 29 -12 11 -43 32 -69
48 -25 16 -81 51 -124 78 -43 26 -83 54 -88 61 -8 9 -1 44 24 125 71 226 78
263 82 423 5 202 -12 289 -83 426 -50 97 -91 151 -167 220 -96 86 -166 129
-270 162 -27 9 -99 32 -160 52 -60 20 -132 43 -160 51 -96 27 -215 93 -268
147 -48 49 -50 50 -75 36 -14 -8 -29 -27 -33 -43 -29 -108 -202 -139 -369 -67
-41 19 -90 45 -109 60 -18 14 -54 41 -79 59 -72 50 -178 156 -219 220 -21 31
-41 59 -44 62 -11 9 -41 72 -44 94 -19 115 -21 142 -12 203 8 52 16 74 38 98
16 16 29 32 29 35 -2 20 -81 89 -109 95 -92 20 -214 130 -328 295 -55 81 -177
204 -267 268 -44 31 -93 69 -110 83 -38 31 -136 84 -231 124 -69 30 -72 30
-251 29 -187 -1 -227 -8 -330 -54 -23 -11 -68 -28 -100 -40 -88 -30 -227 -114
-334 -199 -180 -144 -365 -346 -415 -453 -9 -21 -24 -38 -32 -38 -8 0 -20 -15
-28 -32 -7 -18 -17 -37 -22 -41 -4 -5 -8 -12 -9 -15 -2 -16 -17 -52 -54 -128
-22 -44 -40 -88 -40 -97 0 -9 -4 -18 -9 -21 -5 -3 -12 -20 -15 -38 -3 -18 -20
-69 -36 -113 -17 -44 -35 -109 -40 -145 -5 -36 -17 -99 -26 -140 -22 -99 -25
-389 -5 -475 39 -167 100 -303 187 -413 105 -133 134 -165 180 -196 93 -63
293 -156 336 -156 14 0 44 -6 69 -14 57 -18 206 -52 289 -66 144 -24 178 -34
254 -73 77 -41 116 -80 116 -118 0 -17 43 -31 66 -22 7 2 17 17 22 33 17 47
85 130 112 137 14 3 31 10 38 16 55 43 382 34 458 -14 17 -10 38 -19 47 -19
38 0 205 -110 279 -183 75 -74 108 -132 108 -189 0 -42 -5 -53 -35 -84 -40
-39 -39 -38 -24 -67 16 -30 28 -37 65 -37 70 0 178 -79 265 -192 71 -94 192
-221 250 -264 111 -81 245 -144 333 -156 226 -30 272 -30 391 2 41 11 81 20
89 20 29 0 241 111 316 164 73 52 138 115 212 205 l36 45 34 -26 c18 -14 80
-49 138 -77 58 -29 110 -56 115 -61 10 -8 122 -67 285 -151 52 -27 100 -52
105 -57 14 -11 124 -62 134 -62 4 0 24 -10 42 -23 19 -13 65 -40 102 -60 88
-47 111 -64 99 -71 -5 -3 -79 -2 -163 4 -85 5 -228 12 -319 14 -254 8 -452 15
-602 22 -153 7 -144 2 -154 89 -9 78 -15 82 -62 48 -22 -16 -80 -44 -128 -62
-49 -18 -118 -45 -154 -59 -83 -32 -139 -42 -275 -49 -117 -6 -249 8 -329 33
-69 22 -225 117 -299 182 -34 29 -89 77 -121 105 -98 85 -176 160 -176 167 0
4 -21 29 -47 57 -49 50 -102 83 -180 109 -42 14 -46 14 -96 -9 -29 -14 -72
-31 -97 -38 -69 -19 -314 -13 -400 10 -93 25 -187 58 -210 72 -14 9 -45 28
-70 42 -60 34 -91 69 -135 151 -32 62 -36 77 -34 134 l2 65 -38 20 c-35 18
-44 18 -94 6 -61 -14 -156 -13 -211 1 -80 22 -191 60 -261 90 -41 18 -103 38
-139 45 -36 8 -94 21 -130 29 -40 10 -134 19 -246 23 -178 6 -181 6 -265 -22
-137 -45 -266 -126 -371 -232 -102 -104 -138 -143 -138 -151 0 -5 -9 -17 -19
-27 -11 -9 -39 -56 -62 -104 -23 -47 -48 -93 -55 -101 -21 -26 -89 -229 -128
-385 -52 -209 -52 -619 1 -850 37 -166 124 -412 159 -455 7 -8 12 -17 12 -20
-2 -11 46 -97 73 -131 16 -20 29 -40 29 -44 0 -6 71 -85 120 -133 72 -70 260
-192 297 -192 7 0 21 -5 31 -10 20 -12 121 -47 177 -61 38 -10 204 -6 290 6
60 9 257 63 370 102 316 109 418 126 506 83 75 -36 133 -7 109 55 -18 49 -12
109 16 151 85 126 239 222 400 251 174 31 399 14 510 -39 77 -36 122 -116 96
-171 -8 -18 -5 -27 21 -54 l30 -32 36 18 c62 32 108 34 206 11 50 -12 100 -23
112 -24 12 -2 37 -12 56 -23 19 -12 50 -24 68 -28 19 -4 47 -14 62 -22 59 -30
325 -49 437 -31 239 38 430 170 608 424 70 100 148 307 160 428 l7 71 92 1
c50 1 113 4 140 8 26 3 158 8 293 11 135 3 299 10 365 15 66 4 194 9 285 10
190 2 246 4 500 19 479 28 606 30 900 18 74 -3 227 -9 340 -13 113 -3 208 -8
211 -10 13 -7 403 -24 677 -30 205 -4 291 -9 299 -17 11 -11 32 -109 34 -157
1 -28 122 -338 147 -380 41 -65 176 -210 250 -267 16 -12 68 -42 116 -68 66
-35 105 -48 164 -57 172 -24 255 -17 457 37 236 63 242 64 375 65 100 1 139
-2 158 -14 6 -4 21 -2 33 4 18 10 20 17 14 60 -6 42 -3 56 20 98 17 32 40 57
66 71 21 12 45 29 54 37 38 39 256 56 433 34 180 -22 303 -74 400 -170 34 -34
62 -68 62 -76 0 -8 4 -14 8 -14 20 0 37 -61 42 -149 5 -87 7 -95 31 -113 l26
-20 43 29 c41 26 50 28 144 27 87 -1 109 -4 159 -27 32 -15 65 -27 73 -27 9 0
46 -13 82 -29 68 -29 158 -59 247 -81 77 -20 339 -36 449 -28 107 8 219 43
269 85 16 12 32 23 36 23 7 0 81 54 165 120 67 53 216 263 284 400 33 69 64
141 67 160 3 19 19 73 34 120 47 140 60 208 66 345 8 155 8 141 0 330 -6 145
-16 199 -69 399 -32 121 -108 311 -154 386 -11 19 -38 63 -59 97 -37 60 -102
135 -175 200 -53 47 -199 143 -228 150 -14 3 -50 18 -80 33 -98 48 -293 71
-433 50 -83 -12 -211 -43 -257 -62 -14 -6 -59 -21 -102 -33 -42 -13 -127 -42
-190 -66 l-113 -42 -158 -2 c-166 -2 -184 -7 -171 -48 11 -34 -17 -128 -51
-173 -73 -95 -159 -150 -330 -211 -60 -21 -93 -26 -230 -30 -145 -5 -165 -3
-211 15 -47 19 -55 19 -118 6 -37 -8 -87 -23 -111 -34 -24 -11 -46 -20 -49
-20 -3 0 -37 -20 -75 -44 -70 -45 -223 -179 -355 -312 -73 -72 -193 -142 -282
-166 -236 -61 -295 -63 -558 -19 -32 5 -62 14 -65 18 -3 5 -47 26 -97 47 -51
21 -133 65 -184 98 -50 33 -94 58 -97 55 -2 -3 -9 -37 -14 -77 -5 -39 -11 -75
-14 -80 -3 -5 -50 -9 -105 -9 -55 0 -103 -2 -108 -5 -4 -2 -82 -7 -172 -11
-91 -3 -235 -10 -320 -16 -85 -5 -261 -12 -390 -15 l-235 -6 35 26 c33 25 216
118 365 186 95 44 165 80 197 102 14 10 30 18 34 18 6 0 214 101 503 243 l64
32 21 -30 c27 -39 166 -178 234 -235 76 -64 238 -163 297 -182 128 -42 190
-52 325 -53 148 0 193 10 326 71 77 35 161 102 313 252 146 143 297 252 349
252 36 0 81 28 82 51 0 3 -11 19 -25 35 -50 57 -52 116 -7 205 28 57 50 84
110 135 41 35 81 64 89 64 14 0 93 39 103 51 11 13 70 39 90 39 12 0 34 7 49
15 57 29 170 47 271 43 81 -3 105 -8 149 -31 29 -15 59 -27 68 -27 8 0 12 -4
9 -8 -2 -4 8 -13 22 -20 26 -11 47 -42 72 -109 10 -25 16 -31 29 -24 9 5 36
11 60 14 30 4 52 14 72 35 36 37 149 91 214 103 28 5 106 18 175 29 170 27
215 37 278 60 29 11 61 20 71 20 27 0 235 108 321 167 87 59 124 97 174 175
42 66 128 263 144 328 10 43 14 66 31 225 7 63 2 144 -23 388 -7 58 -17 100
-62 241 -19 59 -34 113 -34 119 0 5 -13 31 -29 57 -16 27 -39 72 -51 101 -37
94 -73 161 -108 203 -20 23 -51 66 -70 96 -20 30 -58 79 -86 109 -28 30 -71
77 -96 104 -102 112 -259 241 -350 287 -25 13 -58 33 -73 46 -16 13 -33 24
-37 24 -5 0 -35 12 -67 26 -109 49 -122 54 -170 65 -132 28 -426 28 -482 0 -9
-5 -34 -12 -55 -15 -51 -10 -174 -75 -254 -136 -95 -72 -234 -210 -302 -300
-49 -65 -194 -225 -224 -248 -37 -29 -128 -72 -151 -72 -9 0 -29 -10 -45 -21
-27 -21 -28 -24 -15 -48 32 -63 53 -141 49 -183 -20 -177 -116 -327 -305 -475
-112 -88 -301 -163 -411 -163 -71 0 -148 55 -148 105 0 28 -19 45 -48 45 -16
0 -43 -19 -81 -58 -66 -69 -128 -95 -266 -113 -49 -6 -104 -18 -122 -25 -17
-8 -39 -14 -50 -14 -32 0 -214 -58 -231 -73 -9 -8 -42 -26 -72 -41 -132 -62
-279 -234 -347 -406 -55 -139 -73 -238 -74 -395 0 -131 19 -222 79 -385 18
-47 32 -86 32 -87 0 0 -33 -18 -72 -38 -40 -20 -89 -49 -108 -64 -20 -16 -60
-41 -90 -56 -30 -15 -76 -43 -101 -61 -26 -19 -52 -34 -58 -34 -12 0 -59 -30
-96 -62 -11 -9 -45 -30 -76 -46 -31 -16 -66 -39 -78 -51 -11 -11 -36 -27 -56
-35 -19 -8 -55 -31 -81 -50 -25 -19 -61 -40 -79 -46 -18 -6 -40 -21 -48 -33
-16 -25 -143 -94 -153 -84 -8 8 15 67 27 67 4 0 20 21 35 48 57 98 80 135 124
190 25 31 75 102 111 157 36 55 83 126 104 159 22 32 51 77 63 100 13 22 60
97 104 166 45 69 92 142 105 162 13 21 31 38 41 37 15 0 55 -21 136 -70 17
-10 18 -8 12 33 -3 23 -9 107 -12 184 -6 129 -5 148 16 215 50 165 152 326
307 485 92 94 121 117 191 153 46 23 109 48 140 56 32 7 82 21 112 30 76 23
219 54 253 55 25 0 68 16 151 56 16 8 34 14 41 14 24 0 107 136 118 195 15 82
124 266 227 385 51 59 154 141 221 175 52 28 136 43 213 41 74 -3 117 -19 150
-55 25 -28 30 -27 82 16 31 26 44 45 44 63 0 56 100 201 169 244 22 14 42 30
46 36 4 6 40 36 80 65 82 61 212 190 253 250 14 22 38 56 53 75 43 56 146 262
154 305 14 84 20 192 13 245 -4 30 -8 78 -9 105 -1 65 -15 130 -39 180 -10 22
-29 67 -42 100 -12 33 -44 98 -70 144 -27 46 -48 86 -48 89 0 14 -129 161
-236 267 -116 117 -234 214 -305 250 -19 10 -62 38 -96 61 -35 24 -67 44 -73
44 -6 0 -18 4 -28 9 -167 86 -394 162 -607 204 -115 23 -149 26 -300 23 -146
-3 -184 -7 -270 -30 -113 -31 -249 -93 -314 -146 -24 -19 -52 -39 -62 -45
-106 -62 -265 -301 -300 -451 -6 -27 -20 -81 -30 -121 -10 -39 -19 -83 -19
-97 0 -14 -11 -79 -25 -143 -13 -65 -27 -140 -30 -167 -7 -63 -73 -197 -103
-212 -23 -11 -62 -64 -62 -84 0 -5 15 -17 33 -26 55 -29 114 -96 135 -155 57
-162 61 -254 18 -416 -10 -35 -19 -72 -21 -84 -2 -11 -21 -51 -42 -87 -21 -37
-44 -80 -53 -97 -8 -16 -45 -60 -82 -97 -64 -63 -68 -70 -80 -135 -7 -37 -12
-135 -12 -218 0 -146 9 -200 44 -290 34 -88 65 -357 50 -436 -6 -28 -11 -72
-12 -98 -1 -49 -37 -160 -63 -195 -8 -11 -28 -39 -43 -61 -72 -106 -144 -194
-189 -231 -94 -80 -273 -184 -314 -184 -28 0 -89 -27 -89 -40 0 -6 8 -14 18
-17 9 -4 21 -12 25 -20 4 -7 35 -31 67 -53 33 -23 60 -46 60 -51 0 -6 -9 -23
-19 -38 -11 -15 -54 -95 -97 -177 -42 -82 -81 -154 -86 -161 -5 -6 -34 -60
-64 -119 -31 -59 -67 -128 -81 -153 -14 -25 -50 -93 -81 -151 -30 -58 -60
-112 -67 -120 -7 -8 -15 -23 -19 -34 -13 -38 -89 -145 -98 -140 -10 7 -6 153
12 419 5 77 12 203 15 280 3 77 13 218 21 314 8 96 14 189 12 207 -1 18 1 36
6 41 4 4 46 16 94 26 48 9 105 22 127 27 58 12 217 71 235 85 8 7 39 20 68 30
46 15 132 75 210 147 30 27 108 120 113 133 2 6 23 44 46 85 42 77 63 156 78
301 7 68 -7 158 -57 369 -11 47 -26 114 -35 150 -8 36 -19 81 -24 101 -14 56
-11 146 8 212 16 58 16 60 -3 74 -13 9 -31 12 -57 8 -62 -11 -119 24 -171 104
-24 36 -48 82 -54 101 -29 89 -21 386 14 507 28 96 93 222 140 273 60 65 140
102 223 106 61 2 80 12 81 40 0 6 9 22 21 35 15 17 19 31 14 49 -4 14 -9 58
-12 98 -5 78 -5 78 68 282 75 209 98 284 108 350 33 207 32 413 -3 522 -28 86
-48 128 -78 163 -11 13 -26 33 -32 43 -37 64 -103 147 -156 195 -139 126 -393
274 -535 313 -33 9 -82 23 -110 31 -27 8 -81 24 -120 35 -65 19 -143 27 -430
42 -44 2 -98 1 -120 -4z"/>
</g>
</svg>
