<?xml version="1.0" standalone="no"?>
<!DOCTYPE svg PUBLIC "-//W3C//DTD SVG 1.1//EN" "http://www.w3.org/Graphics/SVG/1.1/DTD/svg11.dtd" >
<svg>
<metadata>
Created by FontForge 20120731 at Wed Mar 16 23:22:24 2016
 By www
Copyright 1992, 1993, 2002 Adobe Systems Incorporated. All rights reserved. Electra is a trademark of Linotype Corp. registered in the U.S. Patent and Trademark Office and may be registered in certain other jurisdictions in the name of Linotype Corp. or its licensee Linotype GmbH.
</metadata>
<defs>
<font id="ElectraLTStd-Regular" horiz-adv-x="500" >
  <font-face 
    font-family="Electra LT Std"
    font-weight="400"
    font-stretch="normal"
    units-per-em="1000"
    panose-1="2 7 5 2 6 5 5 2 9 3"
    ascent="746"
    descent="-254"
    x-height="422"
    cap-height="702"
    bbox="-167 -276 1050 956"
    underline-thickness="50"
    underline-position="-50"
    stemh="24"
    stemv="72"
    unicode-range="U+0020-FB02"
  />
<missing-glyph 
d="M0 0v700h500v-700h-500zM250 395l170 255h-340zM280 350l170 -255v510zM80 50h340l-170 255zM50 605v-510l170 255z" />
    <glyph glyph-name="f_i" unicode="fi" horiz-adv-x="556" 
d="M511 0h-184v24l59 1v331c0 24 -3 26 -23 26c-23 0 -165 -2 -177 -7c-9 -4 -8 -8 -8 -42v-308l62 -1v-24h-187v24l53 1v355l-68 2v32h68c3 155 4 219 62 278c37 37 67 50 95 50c39 0 134 -11 204 -17l-11 -56c-81 6 -215 21 -244 21c-17 0 -25 -3 -28 -27
c-8 -77 -7 -218 -6 -249h100c34 0 76 4 111 8s62 8 63 8c4 0 6 -4 6 -14v-391l53 -1v-24z" />
    <glyph glyph-name="f_l" unicode="fl" horiz-adv-x="556" 
d="M53 24l53 1v355l-68 2v32h68c2 149 3 212 54 275c43 53 85 53 100 53c14 0 78 -10 91 -10c21 0 93 8 110 10c-1 -108 -1 -267 -1 -379v-338l51 -1v-24h-184v24l61 1v357c-70 1 -191 -2 -202 -7c-8 -4 -8 -8 -8 -42v-308l62 -1v-24h-187v24zM178 414h84c37 0 108 4 126 4
v125c0 25 0 125 -4 128c-6 5 -155 29 -170 29c-22 0 -30 -15 -34 -53c-4 -41 -2 -192 -2 -233z" />
    <glyph glyph-name=".notdef" 
d="M0 0v700h500v-700h-500zM250 395l170 255h-340zM280 350l170 -255v510zM80 50h340l-170 255zM50 605v-510l170 255z" />
    <glyph glyph-name="space" unicode=" " horiz-adv-x="250" 
 />
    <glyph glyph-name="exclam" unicode="!" horiz-adv-x="278" 
d="M126 144l-30 486l82 16l-29 -502h-23zM187 36c0 -26 -21 -48 -48 -48s-48 22 -48 48c0 27 21 48 48 48s48 -21 48 -48z" />
    <glyph glyph-name="quotedbl" unicode="&#x22;" horiz-adv-x="370" 
d="M118 419h-14l-23 213c-2 14 -2 29 -2 43c0 27 10 43 32 43s33 -17 33 -43c0 -14 -1 -29 -3 -43zM266 419h-14l-23 213c-2 14 -2 29 -2 43c0 27 10 43 32 43s33 -17 33 -43c0 -14 -1 -29 -3 -43z" />
    <glyph glyph-name="numbersign" unicode="#" 
d="M117 0h-44l42 227h-101l5 24h101l36 198h-101l5 24h101l42 227h44l-42 -227h136l42 227h44l-42 -227h101l-5 -24h-101l-36 -198h101l-5 -24h-101l-42 -227h-44l42 227h-136zM164 251h136l36 198h-136z" />
    <glyph glyph-name="dollar" unicode="$" 
d="M258 -138h-23v138c-65 4 -124 16 -189 78l27 32c65 -74 110 -86 162 -88v307c-67 27 -179 72 -179 204c0 69 41 165 179 173v77h23v-77c91 -7 131 -35 167 -68l-31 -28c-32 42 -74 70 -136 74v-291c101 -36 194 -84 194 -202c0 -93 -63 -184 -194 -191v-138zM258 320
v-298c86 20 134 60 134 147c0 102 -90 136 -134 151zM235 401v283c-73 -9 -123 -54 -123 -133c0 -101 88 -136 123 -150z" />
    <glyph glyph-name="percent" unicode="%" horiz-adv-x="778" 
d="M181 -12h-45l412 666l-2 2c-29 -19 -64 -38 -134 -38c-15 0 -27 1 -43 3c9 -138 -116 -244 -198 -244c-54 0 -110 39 -110 115c0 114 120 207 215 207c57 0 77 -37 86 -55c18 -2 31 -4 48 -4c102 0 164 56 188 78h34zM113 461c0 -37 27 -62 60 -62c76 0 174 108 174 200
c0 11 -1 19 -3 28c-12 4 -33 11 -59 46c-92 -13 -172 -155 -172 -212zM515 7c-50 0 -107 38 -107 113c0 119 123 208 212 208c69 0 96 -47 96 -100c0 -102 -102 -221 -201 -221zM522 29c70 0 172 106 172 199c0 58 -36 74 -61 74c-73 0 -173 -136 -173 -214
c0 -36 28 -59 62 -59z" />
    <glyph glyph-name="ampersand" unicode="&#x26;" horiz-adv-x="778" 
d="M668 37l18 -16c-19 -15 -50 -39 -105 -39c-81 0 -113 62 -124 84c-54 -45 -117 -84 -200 -84c-124 0 -204 96 -204 208c0 159 131 215 188 240c-25 46 -45 90 -45 137c0 89 69 141 147 141c81 0 120 -56 120 -109c0 -89 -99 -131 -147 -150c11 -18 64 -94 74 -110
c58 -88 78 -133 108 -197c81 91 136 212 136 239c0 15 -9 20 -72 25v26h194v-26c-72 -6 -75 -9 -86 -32c-70 -144 -124 -215 -160 -254c38 -68 65 -98 110 -98c23 0 38 9 48 15zM129 236c0 -82 57 -208 176 -208c68 0 120 46 138 62c-26 53 -78 143 -90 163
c-14 23 -88 134 -103 160c-72 -38 -121 -102 -121 -177zM262 593c0 -44 18 -81 44 -128c74 39 109 99 109 147c0 50 -36 74 -72 74c-30 0 -81 -20 -81 -93z" />
    <glyph glyph-name="quoteright" unicode="&#x2019;" horiz-adv-x="222" 
d="M51 652l27 66c46 -9 101 -31 101 -66c0 -51 -114 -173 -123 -182l-13 14c18 21 73 88 73 123c0 34 -38 41 -65 45z" />
    <glyph glyph-name="parenleft" unicode="(" horiz-adv-x="333" 
d="M280 -218h-25c-125 146 -184 294 -184 469s59 323 184 469h25c-108 -129 -159 -277 -159 -469s51 -340 159 -469z" />
    <glyph glyph-name="parenright" unicode=")" horiz-adv-x="333" 
d="M53 720h25c125 -146 184 -294 184 -469s-59 -323 -184 -469h-25c108 129 159 277 159 469s-51 340 -159 469z" />
    <glyph glyph-name="asterisk" unicode="*" 
d="M316 551c0 -12 11 -20 18 -24l50 -29c8 -4 15 -9 15 -19s-8 -21 -20 -21c-18 0 -66 41 -83 41s-26 -13 -26 -32v-58c0 -17 -7 -25 -20 -25s-20 8 -20 25v58c0 19 -9 32 -26 32s-65 -41 -83 -41c-12 0 -20 11 -20 21s7 15 15 19l50 29c7 4 18 12 18 24s-11 20 -18 24
l-50 29c-8 4 -15 9 -15 19s8 21 20 21c18 0 66 -41 83 -41s26 13 26 32v58c0 17 7 25 20 25s20 -8 20 -25v-58c0 -19 9 -32 26 -32s65 41 83 41c12 0 20 -11 20 -21s-7 -15 -15 -19l-50 -29c-7 -4 -18 -12 -18 -24zM303 549c0 22 18 27 18 37c0 4 -3 8 -9 8
c-3 0 -17 -3 -20 -3c-34 0 -26 37 -42 37s-8 -37 -42 -37c-3 0 -17 3 -20 3c-5 0 -9 -4 -9 -8c0 -10 18 -15 18 -37s-18 -27 -18 -37c0 -4 4 -8 9 -8c3 0 17 3 20 3c34 0 26 -37 42 -37s8 37 42 37c3 0 17 -3 20 -3c6 0 9 4 9 8c0 10 -18 15 -18 37z" />
    <glyph glyph-name="plus" unicode="+" horiz-adv-x="600" 
d="M278 0v225h-225v43h225v225h43v-225h225v-43h-225v-225h-43z" />
    <glyph glyph-name="comma" unicode="," horiz-adv-x="250" 
d="M59 11l28 68c67 -8 114 -35 114 -69c0 -48 -94 -156 -134 -195l-12 15c46 51 84 111 84 137c0 29 -35 41 -80 44z" />
    <glyph glyph-name="hyphen" unicode="-" horiz-adv-x="259" 
d="M249 181h-239v60h239v-60z" />
    <glyph glyph-name="period" unicode="." horiz-adv-x="250" 
d="M173 36c0 -26 -21 -48 -48 -48s-48 22 -48 48c0 27 21 48 48 48s48 -21 48 -48z" />
    <glyph glyph-name="slash" unicode="/" horiz-adv-x="278" 
d="M28 -18l229 736h51l-229 -736h-51z" />
    <glyph glyph-name="zero" unicode="0" 
d="M48 353c0 254 97 365 202 365c111 0 202 -119 202 -365c0 -254 -96 -365 -202 -365c-107 0 -202 113 -202 365zM120 353c0 -176 13 -343 130 -343c112 0 130 154 130 343c0 160 -11 343 -130 343s-130 -181 -130 -343z" />
    <glyph glyph-name="one" unicode="1" 
d="M377 23v-25c-94 2 -105 2 -123 2c-14 0 -100 -2 -121 -2v25l87 7c0 31 3 170 3 198l1 434l-82 2v36l154 14l-2 -684z" />
    <glyph glyph-name="two" unicode="2" 
d="M438 124l-8 -124h-199c-1 0 -110 -1 -175 -2v15c62 99 296 395 296 531c0 74 -61 104 -126 104c-47 0 -93 -15 -121 -29c-11 -6 -24 -13 -20 -11v-2c-5 0 -7 1 -6 6l13 76c28 11 78 30 141 30c101 0 179 -55 179 -147c0 -139 -196 -361 -291 -501h284l7 54h26z" />
    <glyph glyph-name="three" unicode="3" 
d="M97 615l7 79c27 10 64 24 119 24c107 0 163 -58 163 -127c0 -66 -47 -122 -143 -190c60 -18 177 -54 177 -171c0 -51 -27 -137 -170 -201c-65 -29 -133 -47 -137 -47c-6 0 -8 10 -8 14s2 5 17 9c96 25 232 93 232 208c0 102 -136 127 -193 133c-24 2 -27 3 -27 11
c0 6 3 7 27 20c42 23 169 90 169 185c0 40 -25 84 -97 84c-59 0 -110 -21 -136 -31z" />
    <glyph glyph-name="four" unicode="4" 
d="M478 288h-115l-1 -288h-72l3 288h-282v19l338 423h16l-2 -388l115 2v-56zM67 339l227 2l3 287l-2 2z" />
    <glyph glyph-name="five" unicode="5" 
d="M408 632l-256 -3l-2 -179c110 -15 260 -42 260 -183c0 -195 -288 -285 -303 -285c-6 0 -9 4 -9 10c0 5 8 8 23 15c173 76 222 175 222 240c0 80 -66 115 -216 132l-1 320h198c20 0 39 1 58 3l4 38h26z" />
    <glyph glyph-name="six" unicode="6" 
d="M438 722l2 -14c-170 -39 -275 -146 -312 -319c22 12 77 44 145 44c83 0 192 -53 192 -217c0 -162 -112 -228 -203 -228c-93 0 -218 63 -218 286c0 174 102 440 394 448zM393 215c0 87 -30 188 -147 188c-68 0 -108 -31 -122 -42c-4 -22 -8 -40 -8 -83
c0 -150 48 -270 148 -270c99 0 129 119 129 207z" />
    <glyph glyph-name="seven" unicode="7" 
d="M196 -18h-45l129 322c83 208 92 231 129 328l-322 -4l-6 -65h-25l3 137h403c-18 -52 -109 -274 -147 -382z" />
    <glyph glyph-name="eight" unicode="8" 
d="M452 183c0 -108 -83 -195 -195 -195c-116 0 -191 88 -191 192c0 103 61 144 136 185c-45 28 -124 77 -124 184c0 95 72 169 176 169c120 0 164 -96 164 -159c0 -97 -84 -143 -123 -164c59 -33 157 -89 157 -212zM386 164c0 105 -78 149 -161 188
c-49 -28 -117 -66 -117 -170c0 -102 63 -172 140 -172c68 0 138 62 138 154zM380 558c0 76 -48 138 -120 138c-63 0 -120 -47 -120 -127c0 -99 78 -137 131 -163c52 29 109 68 109 152z" />
    <glyph glyph-name="nine" unicode="9" 
d="M34 488c0 131 93 230 213 230c86 0 215 -55 215 -264c0 -145 -56 -284 -161 -382c-53 -50 -120 -90 -125 -90s-9 3 -9 7s16 18 19 22c135 127 166 235 182 288c-13 -6 -31 -14 -53 -20c-22 -7 -48 -13 -79 -13c-113 0 -202 93 -202 222zM106 498c0 -156 94 -200 167 -200
c10 0 60 0 103 31c7 27 14 58 14 124c0 205 -93 243 -150 243c-93 0 -134 -97 -134 -198z" />
    <glyph glyph-name="colon" unicode=":" horiz-adv-x="250" 
d="M174 36c0 -26 -21 -48 -48 -48s-48 22 -48 48c0 27 21 48 48 48s48 -21 48 -48zM174 343c0 -26 -21 -48 -48 -48s-48 22 -48 48c0 27 21 48 48 48s48 -21 48 -48z" />
    <glyph glyph-name="semicolon" unicode=";" horiz-adv-x="250" 
d="M59 11l28 68c67 -8 115 -35 115 -69c0 -48 -94 -156 -135 -195l-11 15c45 51 83 111 83 137c0 29 -34 41 -80 44zM178 343c0 -26 -21 -48 -48 -48s-48 22 -48 48c0 27 21 48 48 48s48 -21 48 -48z" />
    <glyph glyph-name="less" unicode="&#x3c;" horiz-adv-x="600" 
d="M586 -4l-572 242v17l572 242v-46l-495 -205l495 -204v-46z" />
    <glyph glyph-name="equal" unicode="=" horiz-adv-x="600" 
d="M53 321v43h493v-43h-493zM53 129v43h493v-43h-493z" />
    <glyph glyph-name="greater" unicode="&#x3e;" horiz-adv-x="600" 
d="M14 -4v46l495 204l-495 205v46l572 -242v-17z" />
    <glyph glyph-name="question" unicode="?" horiz-adv-x="389" 
d="M128 148l-7 160c96 70 163 118 163 187c0 55 -50 79 -103 79c-58 0 -103 -20 -128 -32l9 79c30 15 88 25 121 25c95 0 161 -52 161 -129c0 -82 -74 -147 -191 -220l-4 -149h-21zM187 36c0 -26 -21 -48 -48 -48s-48 22 -48 48c0 27 21 48 48 48s48 -21 48 -48z" />
    <glyph glyph-name="at" unicode="@" horiz-adv-x="800" 
d="M687 96l11 -19c-32 -23 -134 -95 -285 -95c-206 0 -384 135 -384 348c0 206 175 388 412 388c204 0 330 -132 330 -293c0 -143 -103 -277 -198 -277c-16 0 -84 5 -85 91h-2c-27 -63 -71 -91 -120 -91c-75 0 -133 60 -133 144c0 132 117 239 209 239c34 0 82 -14 94 -74h2
l18 63h57c-40 -134 -53 -176 -67 -232c-7 -28 -9 -48 -9 -54c0 -39 28 -59 53 -59c67 0 159 120 159 248c0 152 -120 269 -300 269c-218 0 -372 -178 -372 -363c0 -179 141 -325 342 -325c59 0 158 12 268 92zM295 273c0 -75 38 -103 78 -103c75 0 102 89 128 175
c17 57 18 73 18 89c0 49 -33 75 -69 75c-81 0 -155 -139 -155 -236z" />
    <glyph glyph-name="A" unicode="A" horiz-adv-x="611" 
d="M622 28v-30c-25 0 -53 2 -100 2c-29 0 -55 -1 -127 -2v26l48 4c27 2 31 4 31 12c0 4 -5 19 -8 26l-73 199c-7 18 -10 20 -31 20h-180c-11 0 -17 -5 -22 -19l-68 -195c-4 -12 -10 -30 -10 -35c0 -6 5 -8 19 -9l49 -3v-26c-25 0 -59 2 -91 2c-35 0 -54 -2 -73 -2v30
c52 4 56 7 68 35c9 21 20 41 78 197l169 458h15l152 -403c72 -185 96 -247 110 -273c3 -7 8 -12 44 -14zM197 309h166c8 0 11 3 11 6c0 2 -2 9 -5 16l-83 225c-3 8 -5 14 -8 14c-4 0 -6 -5 -10 -16l-83 -219c-2 -8 -6 -16 -6 -21c0 -3 5 -5 18 -5z" />
    <glyph glyph-name="B" unicode="B" horiz-adv-x="630" 
d="M43 -2v26l83 4c2 53 3 58 2 160v311c0 110 0 119 -2 173l-77 2v26c38 0 91 0 120 1c116 7 129 7 158 7c109 0 198 -41 198 -163c0 -105 -74 -146 -108 -164c77 -20 154 -72 154 -182c0 -109 -75 -201 -241 -201c-27 0 -144 2 -168 2c-46 0 -82 -1 -119 -2zM217 634
l-1 -260h55c88 0 173 45 174 152c1 109 -79 158 -186 158c-32 0 -42 -1 -42 -50zM216 352v-261c0 -63 17 -71 81 -71c103 0 188 48 188 161c0 172 -190 170 -269 171z" />
    <glyph glyph-name="C" unicode="C" horiz-adv-x="759" 
d="M671 231h20l-11 -165c-87 -54 -181 -84 -283 -84c-199 0 -355 144 -355 370c0 228 168 366 354 366c132 0 226 -72 244 -72c9 0 12 9 15 17h29v-192h-20c-60 204 -212 225 -259 225c-123 0 -271 -109 -271 -329c0 -234 151 -355 293 -355c141 0 213 94 244 219z" />
    <glyph glyph-name="D" unicode="D" horiz-adv-x="796" 
d="M53 24l74 4c2 54 3 88 3 196c0 344 0 382 -3 448l-74 2v26c51 0 276 8 333 8c208 0 368 -124 368 -353c0 -249 -182 -357 -410 -357c-28 0 -151 2 -176 2c-46 0 -77 -1 -115 -2v26zM218 199c0 -14 0 -151 6 -161c6 -12 86 -18 144 -18c192 0 294 148 294 326
c0 231 -163 338 -372 338c-25 0 -54 -3 -64 -7c-5 -3 -6 -7 -7 -25c-1 -32 -1 -334 -1 -453z" />
    <glyph glyph-name="E" unicode="E" horiz-adv-x="667" 
d="M611 182l-12 -182h-313c-155 0 -180 -1 -233 -2v26l70 4c1 26 1 50 1 78v375c0 124 0 137 -2 191l-76 4v26c32 -1 72 -2 159 -2c122 0 245 0 368 2v-154h-34c-3 124 -19 132 -127 132h-200v-302c31 0 148 0 169 15c20 15 22 100 23 114h33c-2 -30 -6 -74 -6 -160
c0 -55 1 -87 3 -118h-33c-8 114 -9 120 -20 122c-34 6 -134 5 -169 5c0 -106 0 -267 3 -292c4 -34 18 -42 55 -42h263l48 160h30z" />
    <glyph glyph-name="F" unicode="F" horiz-adv-x="611" 
d="M123 672l-70 4v26c32 -1 65 -2 190 -2c61 0 184 0 338 2l5 -166h-35c-9 128 -23 142 -109 142h-229v-308c61 0 143 5 172 20c13 6 19 96 19 112h33c-3 -28 -5 -76 -5 -162c0 -61 1 -88 3 -118h-33c-5 92 -12 121 -17 122c-25 3 -39 4 -69 4h-103c0 -232 0 -258 2 -320
l79 -4v-26c-36 0 -82 2 -130 2c-52 0 -86 -2 -109 -2v26l70 4v560c0 32 -1 55 -2 84z" />
    <glyph glyph-name="G" unicode="G" horiz-adv-x="796" 
d="M762 244v-27h-17c-39 0 -41 -4 -41 -51v-90c-133 -68 -209 -94 -307 -94c-213 0 -355 158 -355 370c0 225 169 366 351 366c132 0 237 -76 254 -76c8 0 9 4 14 21h21l-1 -192h-20c-35 122 -123 223 -258 223c-142 0 -269 -126 -269 -332c0 -210 141 -356 299 -356
c97 0 149 52 177 78c1 15 3 29 3 69c0 35 -2 45 -3 60l-92 4v27c34 -1 70 -3 120 -3c49 0 88 2 124 3z" />
    <glyph glyph-name="H" unicode="H" horiz-adv-x="778" 
d="M53 -2v26l70 4c2 54 2 66 2 196c0 343 0 381 -2 448l-70 4v26c32 -2 64 -2 119 -2c56 0 86 0 120 2v-26l-77 -4c-2 -63 -2 -228 -2 -300h352c0 72 0 237 -2 300l-77 4v26c32 -2 64 -2 119 -2c56 0 86 0 120 2v-26l-70 -4c-2 -55 -2 -67 -2 -197c0 -343 -1 -381 2 -447
l70 -4v-26c-32 1 -64 2 -120 2c-55 0 -85 -1 -119 -2v26l77 4c2 62 2 243 2 320h-352c0 -232 0 -258 2 -320l77 -4v-26c-33 1 -64 2 -120 2c-55 0 -85 -1 -119 -2z" />
    <glyph glyph-name="I" unicode="I" horiz-adv-x="333" 
d="M213 28l73 -4v-26c-32 1 -64 2 -119 2c-56 0 -86 -1 -120 -2v26l74 4c2 54 1 66 1 196c0 344 1 382 -1 448l-74 4v26c33 -1 64 -2 120 -2c55 0 85 1 119 2v-26l-73 -4c-2 -54 -3 -66 -3 -196c0 -344 0 -382 3 -448z" />
    <glyph glyph-name="J" unicode="J" horiz-adv-x="333" 
d="M6 -214v16c80 52 122 118 122 320c0 183 -6 488 -6 550l-72 4v26c18 0 88 -2 116 -2c32 0 103 2 123 2v-26l-75 -4c-1 -82 2 -442 2 -516c0 -174 -28 -250 -90 -310c-51 -50 -91 -56 -120 -60z" />
    <glyph glyph-name="K" unicode="K" horiz-adv-x="667" 
d="M671 0h-134c-100 116 -198 228 -304 345l-21 -19c0 -73 0 -236 2 -298l87 -4v-26c-24 0 -62 2 -124 2c-63 0 -101 -2 -125 -2v26l70 4c2 54 2 66 2 196c0 344 0 382 -2 448l-70 4v26c32 -1 64 -2 119 -2c56 0 86 1 120 2v-26l-77 -4c-2 -62 -2 -242 -2 -318l166 153
c19 17 156 144 156 154c0 8 -11 12 -88 13v26c147 0 154 0 210 2v-30c-59 -8 -105 -48 -189 -122l-168 -146l142 -164c25 -27 135 -147 158 -171c37 -37 52 -41 72 -45v-24z" />
    <glyph glyph-name="L" unicode="L" horiz-adv-x="611" 
d="M597 192l-20 -194c-141 2 -166 2 -393 2c-86 0 -120 -2 -148 -2v26l85 4c2 54 1 66 1 196c0 344 1 382 -1 448l-77 4v26c25 0 62 -2 126 -2c62 0 101 2 124 2v-26l-81 -4c-2 -54 -3 -66 -3 -196c0 -355 0 -394 2 -411c3 -19 8 -33 31 -35c28 -4 158 -6 170 -6
c43 0 70 2 97 3l56 165h31z" />
    <glyph glyph-name="M" unicode="M" horiz-adv-x="944" 
d="M901 24v-26c-38 0 -85 2 -126 2c-40 0 -83 -2 -120 -2v26l77 4c1 98 2 185 2 278c0 55 -5 294 -5 343h-2l-268 -661h-16l-292 646l-2 -2l6 -604l89 -4v-26c-25 0 -59 2 -96 2c-25 0 -47 -1 -106 -2v26l81 4c2 125 3 307 3 414c0 67 -2 161 -4 230l-80 4v26
c33 -1 61 -2 90 -2c34 0 64 2 86 2l260 -600l243 598c62 0 81 0 176 2v-26l-80 -4c0 -46 0 -67 3 -255c1 -61 3 -334 4 -389z" />
    <glyph glyph-name="N" unicode="N" horiz-adv-x="778" 
d="M653 -12h-15c-74 97 -185 243 -256 331c-173 215 -192 239 -227 286l-2 -2l1 -318c0 -21 2 -171 4 -257l84 -4v-26c-25 1 -49 2 -100 2s-75 -1 -100 -2v26l80 4c1 97 3 195 5 292l1 294c0 19 -25 53 -88 62v26c78 -2 87 -2 155 -2c51 -69 373 -485 434 -556v199
c0 83 0 257 -1 329l-86 4v26c81 -2 36 0 98 -2c26 -1 82 2 98 2v-26l-76 -4c-1 -56 -7 -327 -7 -355z" />
    <glyph glyph-name="O" unicode="O" horiz-adv-x="796" 
d="M43 342c0 194 124 376 361 376c229 0 350 -162 350 -356c0 -195 -130 -380 -357 -380c-232 0 -354 182 -354 360zM135 344c0 -207 129 -340 271 -340c160 0 256 169 256 354c0 220 -129 338 -257 338c-101 0 -270 -79 -270 -352z" />
    <glyph glyph-name="P" unicode="P" horiz-adv-x="574" 
d="M213 28l81 -4v-26c-24 0 -62 2 -124 2s-100 -2 -124 -2v26l75 4c2 54 3 66 3 196c0 344 -1 382 -3 448l-75 4v26c24 0 68 -2 102 -2c16 0 58 2 100 4s83 4 97 4c143 0 203 -98 203 -180c0 -130 -106 -194 -256 -194h-82c0 -74 0 -244 3 -306zM212 639l-2 -281
c26 -1 42 -2 63 -2c107 0 191 49 191 166c0 142 -119 162 -233 162c-14 0 -19 -2 -19 -45z" />
    <glyph glyph-name="Q" unicode="Q" horiz-adv-x="796" 
d="M747 -113l9 -12c-81 -73 -116 -94 -164 -94c-118 0 -351 67 -470 88c-12 -7 -38 -23 -46 -23c-10 0 -17 5 -22 79c-1 19 14 26 33 26c30 0 88 -15 96 -15c2 0 181 38 187 39c4 1 8 3 8 8c0 6 -4 7 -18 8c-239 22 -317 218 -317 360c0 171 113 367 361 367
c229 0 350 -160 350 -352c0 -152 -73 -271 -185 -336c-96 -56 -184 -73 -341 -104v-2c302 -58 344 -67 405 -67c41 0 76 9 114 30zM135 347c0 -205 130 -338 271 -338c159 0 256 168 256 352c0 218 -128 335 -257 335c-102 0 -270 -79 -270 -349z" />
    <glyph glyph-name="R" unicode="R" horiz-adv-x="648" 
d="M213 28l73 -4v-26c-32 1 -64 2 -119 2c-56 0 -86 -1 -120 -2v26l74 4c2 54 1 66 1 196c0 344 1 382 -1 448l-74 4v26c34 0 68 -2 102 -2c30 0 59 2 89 4s60 4 89 4c111 0 201 -55 201 -176c0 -99 -78 -150 -118 -170c-5 -3 -6 -4 -6 -6c0 -5 99 -159 142 -221
c64 -92 81 -106 108 -117v-18c-52 -2 -58 -3 -70 -2c-57 0 -70 19 -175 188c-16 27 -90 144 -98 151c-6 5 -13 6 -37 6c-13 1 -22 2 -64 1c0 -229 0 -254 3 -316zM210 366l60 2c29 0 85 1 103 12c34 20 71 78 71 151c0 109 -77 153 -177 153c-16 0 -41 -4 -53 -11
c-4 -13 -4 -268 -4 -307z" />
    <glyph glyph-name="S" unicode="S" horiz-adv-x="556" 
d="M75 0v184h20c27 -92 83 -180 189 -180c76 0 138 55 138 138c0 198 -350 172 -350 396c0 91 72 180 196 180c71 0 138 -32 154 -32c12 0 16 8 18 14h28v-170h-18c-30 92 -82 166 -180 166c-86 0 -126 -68 -126 -121c0 -179 352 -169 352 -393c0 -108 -91 -200 -207 -200
c-78 0 -165 36 -172 36s-7 -2 -14 -18h-28z" />
    <glyph glyph-name="T" unicode="T" horiz-adv-x="667" 
d="M40 528h-31l12 174c88 0 228 -2 308 -2c43 0 262 2 329 2l-9 -169h-29c-1 20 -6 123 -12 134c-5 9 -9 13 -86 13h-146c-2 -55 -2 -68 -2 -196c0 -351 0 -390 2 -456l72 -4v-26c-32 1 -64 2 -118 2c-53 0 -81 -1 -117 -2v26l72 4c1 54 1 66 1 194c0 351 1 390 -1 458h-108
c-78 0 -88 -9 -97 -18c-15 -14 -21 -43 -40 -134z" />
    <glyph glyph-name="U" unicode="U" horiz-adv-x="759" 
d="M714 676l-63 -4l-7 -386c-3 -150 -59 -304 -257 -304c-199 0 -274 135 -271 316l3 374l-68 4v26c61 -1 93 -2 120 -2c35 0 74 1 116 2v-26l-77 -4l-8 -358c-4 -196 60 -306 201 -306c137 0 202 100 201 288l-3 376l-74 4v26c49 -1 76 -2 94 -2c21 0 51 1 93 2v-26z" />
    <glyph glyph-name="V" unicode="V" horiz-adv-x="685" 
d="M692 702v-31c-42 -3 -45 -4 -51 -17c-22 -42 -126 -280 -150 -338l-142 -334h-15c-96 231 -199 459 -297 690l-44 3v27c109 -3 121 -2 226 -2v-27c-65 0 -75 -3 -75 -9s2 -12 26 -70c67 -163 137 -326 205 -488l116 279c12 27 108 264 108 277c0 9 -5 11 -75 11v27
c55 0 95 0 168 2z" />
    <glyph glyph-name="W" unicode="W" horiz-adv-x="963" 
d="M975 702v-30c-41 -1 -44 -5 -48 -12c-18 -37 -100 -254 -119 -302l-143 -376h-16l-166 508h-2l-178 -508h-17c-79 231 -162 474 -244 690l-43 4v26c81 -2 90 -2 103 -2c17 0 92 2 114 2v-26c-64 -1 -74 -3 -74 -11c0 -3 10 -32 12 -38l70 -208l102 -295h2l139 410
l-50 138l-49 4v26c29 -1 67 -2 112 -2c46 0 86 2 116 2v-26c-77 -2 -82 -8 -82 -12c0 -5 3 -13 6 -21l172 -519h2l101 276c9 24 91 257 91 266c0 6 -4 7 -77 8v26c30 0 123 0 166 2z" />
    <glyph glyph-name="X" unicode="X" horiz-adv-x="630" 
d="M637 28v-30c-26 0 -63 2 -124 2c-59 0 -94 -2 -121 -2v26c66 2 75 5 75 11c0 8 -8 20 -19 36l-161 244l-72 -105c-19 -27 -107 -154 -107 -174c0 -7 7 -10 101 -10v-26c-157 0 -181 -1 -213 -2v30c32 2 51 5 80 39c35 41 78 103 115 156l82 115l-142 203
c-25 37 -71 103 -95 120c-10 8 -24 10 -40 11v30c88 -2 124 -2 242 -2v-26c-75 0 -79 -2 -79 -11c0 -10 62 -100 77 -122l89 -129l99 137c9 13 79 110 79 116c0 8 -4 10 -81 9v26c123 0 156 1 206 2v-30c-53 -2 -69 -2 -86 -18c-27 -25 -100 -123 -138 -176l-65 -88
l109 -162c60 -89 118 -165 137 -183c12 -12 25 -13 52 -17z" />
    <glyph glyph-name="Y" unicode="Y" horiz-adv-x="574" 
d="M151 24l89 4c2 62 2 238 2 313l-109 170c-24 38 -89 138 -104 152c-11 10 -22 11 -54 13v26c49 -1 90 -2 109 -2c14 0 117 2 143 2v-26c-76 -2 -81 -4 -81 -10c0 -9 81 -136 96 -162l76 -118l75 110c15 21 79 113 93 132c18 27 20 30 20 35c0 8 -9 9 -16 9
c-13 1 -48 2 -74 2v26c53 0 134 0 184 2v-30c-32 -1 -43 -6 -62 -29c-35 -41 -79 -101 -113 -147l-95 -133v-252c0 -32 1 -54 2 -83l88 -4v-26c-39 0 -87 2 -134 2c-48 0 -89 -1 -135 -2v26z" />
    <glyph glyph-name="Z" unicode="Z" horiz-adv-x="648" 
d="M616 188l-5 -190c-72 1 -260 2 -352 2h-239v15c227 304 259 352 475 665l-271 -2c-128 -1 -146 -19 -154 -149h-35l5 173c78 -2 245 -2 333 -2c37 0 204 3 238 2v-14c-42 -57 -63 -88 -257 -362c-167 -236 -185 -262 -216 -305l153 1c43 0 203 2 243 17
c18 8 39 81 50 149h32z" />
    <glyph glyph-name="bracketleft" unicode="[" horiz-adv-x="333" 
d="M107 -220v938h148c10 0 13 -4 13 -10c0 -9 -9 -25 -34 -25c-26 0 -48 20 -75 20c-5 0 -7 0 -11 -2v-904c4 -2 6 -2 11 -2c27 0 49 20 75 20c25 0 34 -16 34 -25c0 -6 -3 -10 -13 -10h-148z" />
    <glyph glyph-name="backslash" unicode="\" horiz-adv-x="278" 
d="M250 -18h-51l-229 736h51z" />
    <glyph glyph-name="bracketright" unicode="]" horiz-adv-x="333" 
d="M226 718v-938h-148c-10 0 -13 4 -13 10c0 9 9 25 34 25c26 0 48 -20 75 -20c5 0 7 0 11 2v904c-4 2 -6 2 -11 2c-27 0 -49 -20 -75 -20c-25 0 -34 16 -34 25c0 6 3 10 13 10h148z" />
    <glyph glyph-name="asciicircum" unicode="^" horiz-adv-x="600" 
d="M164 370h-22l150 348h16l150 -348h-22l-136 239z" />
    <glyph glyph-name="underscore" unicode="_" 
d="M0 -125v50h500v-50h-500z" />
    <glyph glyph-name="quoteleft" unicode="&#x2018;" horiz-adv-x="222" 
d="M171 560l-27 -65c-48 8 -101 31 -101 66c0 51 118 177 123 181l13 -13c-12 -14 -73 -88 -73 -123s38 -41 65 -46z" />
    <glyph glyph-name="a" unicode="a" horiz-adv-x="444" 
d="M405 36v-26c-23 -7 -76 -22 -94 -22c-19 0 -29 14 -30 33s-1 21 -5 21c-42 -22 -99 -58 -154 -58c-50 0 -90 38 -90 93c0 97 114 133 251 137l1 128c1 56 -12 66 -71 66c-53 0 -84 -11 -86 -20c-4 -31 -8 -54 -11 -71c-2 -9 -26 -27 -38 -27c-16 0 -22 18 -22 40
c0 40 20 54 48 69c34 18 99 39 154 39c71 0 96 -33 96 -94l-1 -308h52zM282 83v95c1 19 -2 20 -11 20s-171 -14 -171 -113c0 -35 16 -59 59 -59c41 0 100 25 106 28c15 6 16 7 17 29z" />
    <glyph glyph-name="b" unicode="b" horiz-adv-x="519" 
d="M26 694v33c63 4 80 7 136 19c-2 -63 -2 -204 -2 -268v-72c41 17 80 28 122 28c122 0 194 -96 194 -218c0 -110 -71 -228 -243 -228c-45 0 -123 9 -132 10s-13 4 -13 16v630c0 16 -1 33 -1 49zM160 323v-270c0 -38 12 -47 50 -47c109 0 194 83 194 207
c0 133 -89 193 -173 193c-25 0 -57 -8 -67 -24c-4 -8 -4 -14 -4 -59z" />
    <glyph glyph-name="c" unicode="c" horiz-adv-x="463" 
d="M396 105l14 -9c-32 -71 -95 -112 -174 -112c-114 0 -194 98 -194 218c0 88 51 236 201 236c110 0 170 -75 170 -131c0 -14 -4 -17 -26 -17c-32 0 -40 7 -48 41c-13 57 -18 85 -72 85c-73 0 -153 -67 -153 -194c0 -129 84 -194 158 -194c70 0 105 50 124 77z" />
    <glyph glyph-name="d" unicode="d" horiz-adv-x="519" 
d="M482 27v-26c-34 -6 -99 -17 -112 -17c-12 0 -12 5 -13 19c-1 9 -2 12 -6 12c-8 0 -68 -27 -120 -27c-107 0 -193 90 -193 224c0 138 96 222 211 222c50 0 96 -16 101 -16s8 5 8 14v261l-78 1v33c52 3 84 7 151 19c0 -52 -1 -103 -1 -154v-566zM358 66v315
c0 16 -15 31 -75 31c-77 0 -169 -46 -169 -194c0 -101 48 -198 173 -198c52 0 71 9 71 46z" />
    <glyph glyph-name="e" unicode="e" horiz-adv-x="463" 
d="M404 106l15 -9c-18 -33 -61 -113 -169 -113c-114 0 -206 89 -206 220c0 116 76 234 210 234c132 0 164 -114 164 -152c0 -15 -2 -21 -20 -21h-268c-13 0 -18 -3 -18 -40c0 -91 58 -193 167 -193c73 0 105 45 125 74zM135 287h193c18 0 22 3 22 12c0 22 -11 117 -92 117
c-87 0 -134 -100 -134 -124c0 -3 4 -5 11 -5z" />
    <glyph glyph-name="f" unicode="f" horiz-adv-x="278" 
d="M26 0v24l68 1v358l-68 -1v32l68 3c0 122 1 194 43 259c23 37 54 66 107 66c22 0 49 -3 122 -12l-7 -54c-53 6 -114 18 -165 18c-20 0 -25 -11 -27 -39c-5 -85 -4 -158 -2 -234l115 5v-36l-103 -4c-9 -1 -11 -4 -11 -21v-340l78 -1v-24h-218z" />
    <glyph glyph-name="g" unicode="g" horiz-adv-x="463" 
d="M450 424v-34c0 -12 -4 -18 -35 -22c-35 -4 -37 -5 -37 -11c0 -2 2 -42 2 -50c0 -116 -58 -154 -159 -170c-94 -15 -136 -22 -136 -65c0 -34 13 -40 171 -52c141 -11 194 -34 194 -114c0 -110 -122 -182 -253 -182c-137 0 -169 89 -169 138c0 26 8 69 53 118
c-12 6 -50 25 -50 72c0 70 87 88 115 94v1c-33 18 -90 49 -90 138c0 94 74 153 158 153c57 0 81 -27 112 -27c7 0 21 1 33 2zM241 406c-78 0 -123 -58 -123 -125c0 -88 59 -117 107 -117c53 0 91 24 91 151c0 17 -2 62 -11 73c-5 7 -33 18 -64 18zM50 -148
c0 -54 52 -96 135 -96c106 0 209 58 209 131c0 63 -60 73 -240 73c-28 0 -31 0 -40 -6c-4 -3 -64 -46 -64 -102z" />
    <glyph glyph-name="h" unicode="h" horiz-adv-x="556" 
d="M41 0v24l55 1v515c0 53 -1 105 -1 158l-62 2v30c32 1 43 3 137 16c0 -32 -2 -171 -2 -199v-125c0 -23 3 -28 8 -28c6 0 72 40 155 40c78 0 127 -40 127 -121v-288l53 -1v-24h-176v24l51 1v283c0 67 -15 96 -95 96c-34 0 -88 -9 -115 -26c-6 -4 -8 -13 -8 -39v-314l50 -1
v-24h-177z" />
    <glyph glyph-name="i" unicode="i" horiz-adv-x="278" 
d="M52 0v24l56 1v330c0 26 -3 28 -51 31v30l123 16v-407l53 -1v-24h-181zM148 682c21 0 40 -14 40 -42c0 -29 -21 -52 -47 -52s-41 20 -41 43c0 29 20 51 48 51z" />
    <glyph glyph-name="j" unicode="j" horiz-adv-x="278" 
d="M94 -218h-31c28 32 41 46 47 111c6 64 6 131 6 171l-1 282c0 37 -5 37 -55 42v32l126 12l1 -280c1 -89 1 -185 -23 -264c-19 -64 -48 -88 -70 -106zM158 682c21 0 40 -14 40 -42c0 -29 -21 -52 -47 -52s-41 20 -41 43c0 29 20 51 48 51z" />
    <glyph glyph-name="k" unicode="k" horiz-adv-x="463" 
d="M448 0h-96l-163 192c-10 10 -13 11 -17 10c-6 0 -10 -7 -10 -17v-160l54 -1v-24h-183v24l57 1v658c0 15 -6 17 -75 17v32c48 1 71 3 149 14c-1 -37 -2 -154 -2 -196v-325c0 -5 2 -7 6 -7s147 161 147 165c0 5 -31 5 -38 5v30l143 8v-32c-74 -9 -83 -17 -123 -61l-64 -69
c-4 -4 -7 -8 -7 -10s1 -3 5 -8l94 -111c84 -98 91 -100 123 -108v-27z" />
    <glyph glyph-name="l" unicode="l" horiz-adv-x="278" 
d="M230 0h-192v24l66 1v582c0 16 0 85 -8 91c-4 3 -55 3 -66 4v32c23 1 124 10 147 12c0 -69 -1 -139 -1 -208v-513l54 -1v-24z" />
    <glyph glyph-name="m" unicode="m" horiz-adv-x="833" 
d="M48 0v24l52 1v348l-55 2v41l121 16c1 -36 1 -39 12 -39c7 0 81 41 152 41c73 0 97 -32 112 -52c46 23 104 52 168 52c96 0 132 -46 132 -148v-261l52 -1v-24h-177v24l53 1v277c0 80 -24 102 -93 102c-33 0 -84 -9 -108 -25c-12 -7 -12 -12 -12 -54v-300l53 -1v-24h-177
v24l52 1v277c0 80 -23 102 -92 102c-33 0 -84 -9 -109 -25c-12 -7 -12 -12 -12 -54v-300l53 -1v-24h-177z" />
    <glyph glyph-name="n" unicode="n" horiz-adv-x="556" 
d="M47 0v24l53 1v349l-56 2v40l121 14c0 -29 2 -37 12 -37c11 0 77 41 160 41c78 0 127 -40 127 -121v-288l53 -1v-24h-176v24l51 1v283c0 67 -15 96 -95 96c-34 0 -88 -9 -115 -26c-6 -4 -10 -13 -10 -39v-314l52 -1v-24h-177z" />
    <glyph glyph-name="o" unicode="o" 
d="M40 206c0 178 121 232 219 232c159 0 201 -127 201 -216c0 -123 -75 -238 -209 -238c-104 0 -211 73 -211 222zM116 210c0 -106 50 -204 134 -204c92 0 134 100 134 206c0 114 -45 204 -126 204c-53 0 -142 -47 -142 -206z" />
    <glyph glyph-name="p" unicode="p" horiz-adv-x="519" 
d="M30 -236l59 1c1 27 1 146 1 170v239c0 68 0 135 -2 203l-58 1v38l121 16c3 -23 10 -32 18 -32c10 0 66 34 127 34c89 0 184 -74 184 -217c0 -148 -99 -229 -219 -229c-41 0 -75 10 -99 17v-240l71 -1v-24h-203v24zM162 358v-341c14 -3 26 -5 53 -5c119 0 189 72 189 200
c0 134 -87 188 -156 188c-21 0 -62 -8 -76 -15c-6 -3 -10 -11 -10 -27z" />
    <glyph glyph-name="q" unicode="q" horiz-adv-x="519" 
d="M486 -260h-188v24l59 1c1 17 3 92 3 107v151c-18 -10 -65 -35 -124 -35c-114 0 -194 93 -194 221c0 120 79 225 228 225c19 0 103 -9 121 -9l41 1v-661l54 -1v-24zM360 106v216c1 36 0 68 -6 76s-27 18 -66 18c-105 0 -170 -74 -170 -200c0 -133 83 -196 172 -196
c27 0 64 11 67 22c2 8 3 49 3 64z" />
    <glyph glyph-name="r" unicode="r" horiz-adv-x="333" 
d="M47 0v24l53 1v211c0 68 0 136 -5 141c-3 3 -33 4 -51 5v34l121 16l4 -37c1 -8 3 -17 7 -17c7 0 50 60 117 60c10 0 28 0 28 -10c0 -6 -3 -47 -6 -52c-1 -2 -6 -4 -80 -4c-60 0 -63 -7 -63 -35v-312l66 -1v-24h-191z" />
    <glyph glyph-name="s" unicode="s" horiz-adv-x="333" 
d="M38 16l-6 102h24c9 -43 34 -112 100 -112c52 0 76 41 76 80c0 117 -188 114 -188 239c0 63 55 113 123 113c53 0 78 -23 113 -35l2 -83h-21c-14 49 -29 96 -85 96c-44 0 -78 -32 -78 -67c0 -98 196 -102 196 -235c0 -81 -69 -130 -134 -130c-30 0 -67 9 -122 32z" />
    <glyph glyph-name="t" unicode="t" horiz-adv-x="278" 
d="M280 28v-15c-41 -15 -68 -25 -104 -25c-63 0 -93 30 -92 123l4 271l-62 -3v31l46 2c12 0 16 5 16 14l2 172h71l-2 -182c64 3 78 4 121 10v-38c-38 1 -110 0 -116 -6s-6 -13 -6 -59l-2 -173c-2 -104 13 -130 64 -130c23 0 43 3 60 8z" />
    <glyph glyph-name="u" unicode="u" horiz-adv-x="556" 
d="M43 386v34l123 12v-312c0 -78 24 -106 111 -106c47 0 89 12 100 19c7 4 11 10 11 39v285c0 25 -5 28 -64 29v34l136 12v-396h50v-30c-23 -5 -67 -16 -87 -16c-33 0 -25 30 -40 30c-9 0 -78 -32 -158 -32c-95 0 -131 40 -131 160v233z" />
    <glyph glyph-name="v" unicode="v" horiz-adv-x="426" 
d="M219 -18h-15l-149 375c-14 33 -16 35 -43 37v28h152v-28c-32 0 -42 -3 -42 -8c0 -6 21 -63 25 -74l89 -240l110 268c3 7 14 34 14 39s-6 9 -39 9v34h102v-30c-34 -7 -37 -13 -66 -82z" />
    <glyph glyph-name="w" unicode="w" horiz-adv-x="667" 
d="M654 422v-34c-27 -2 -29 -8 -48 -55l-146 -351h-15l-109 295l-125 -295h-15l-136 371c-13 36 -18 36 -40 41v28h142v-28c-33 0 -36 -7 -36 -15c0 -6 1 -9 10 -34l94 -271l95 232l-19 52c-13 35 -17 35 -48 36v28h168v-28c-42 -2 -50 -8 -50 -21c0 -10 4 -22 9 -37
l93 -262l112 276c3 6 8 21 8 31c0 4 -12 7 -40 9v32h96z" />
    <glyph glyph-name="x" unicode="x" horiz-adv-x="426" 
d="M416 0h-162v26c36 -1 40 2 40 6c0 2 -5 9 -10 17l-90 135l-93 -134c-6 -8 -10 -14 -10 -17c0 -5 27 -8 52 -7v-26h-129v26c43 1 46 6 67 35l102 139l-100 149c-26 39 -34 40 -69 43v30h162v-28c-32 -1 -34 -3 -34 -8c0 -4 3 -8 11 -20l73 -109l67 91c5 5 27 36 27 39
c0 7 -13 6 -39 5v30h122v-30c-49 -2 -54 -4 -76 -33l-81 -107c-2 -2 -6 -8 -6 -12c0 -3 3 -8 6 -12l112 -168c18 -27 21 -30 58 -34v-26z" />
    <glyph glyph-name="y" unicode="y" horiz-adv-x="426" 
d="M421 422v-32c-29 -2 -34 -7 -48 -41l-174 -413c-29 -65 -67 -153 -77 -169c-11 -18 -26 -28 -37 -27c-15 1 -64 5 -64 25c0 4 6 44 16 44c4 0 44 -7 52 -7c22 0 34 13 54 59l57 128l-135 338c-25 63 -26 63 -53 67v28h168v-28c-17 -2 -57 1 -57 -16c0 -5 2 -12 7 -25
l106 -281l104 253c12 29 19 47 19 54c0 4 -4 8 -38 11v32h100z" />
    <glyph glyph-name="z" unicode="z" horiz-adv-x="444" 
d="M391 0h-368v7l280 394l-166 -2c-32 -1 -36 -3 -41 -29l-9 -49h-30l1 101h339v-8l-280 -394l222 2c13 0 15 3 16 16l7 66c1 8 5 12 22 12c16 0 17 -2 16 -13z" />
    <glyph glyph-name="braceleft" unicode="{" horiz-adv-x="352" 
d="M19 244v14c94 24 113 59 113 152v76c0 148 28 234 170 234v-20c-114 -12 -128 -71 -128 -178v-54c-1 -132 -1 -199 -131 -216v-2c131 -17 131 -88 131 -216v-55c0 -104 13 -165 128 -177v-20c-142 0 -170 86 -170 234v76c0 96 -22 128 -113 152z" />
    <glyph glyph-name="bar" unicode="|" horiz-adv-x="222" 
d="M90 -214v1000h42v-1000h-42z" />
    <glyph glyph-name="braceright" unicode="}" horiz-adv-x="352" 
d="M333 258v-14c-94 -24 -113 -59 -113 -152v-76c0 -148 -28 -234 -170 -234v20c114 12 128 71 128 178v54c1 132 1 199 131 216v2c-131 17 -131 88 -131 216v55c0 104 -13 165 -128 177v20c142 0 170 -86 170 -234v-76c0 -96 22 -128 113 -152z" />
    <glyph glyph-name="asciitilde" unicode="~" horiz-adv-x="600" 
d="M40 161h-24c27 123 94 153 137 153c82 0 228 -90 300 -90c54 0 85 44 107 109h24c-14 -50 -44 -155 -140 -155c-85 0 -220 89 -298 89c-52 0 -89 -44 -106 -106z" />
    <glyph glyph-name="exclamdown" unicode="&#xa1;" horiz-adv-x="278" 
d="M152 282l30 -486l-82 -16l29 502h23zM91 390c0 26 21 48 48 48s48 -22 48 -48c0 -27 -21 -48 -48 -48s-48 21 -48 48z" />
    <glyph glyph-name="cent" unicode="&#xa2;" 
d="M185 86l147 320c-8 18 -23 26 -53 26c-73 0 -153 -67 -153 -194c0 -69 24 -119 59 -152zM345 372l-140 -303c24 -17 52 -25 79 -25c70 0 105 50 124 77l14 -9c-32 -71 -95 -112 -174 -112c-25 0 -49 5 -69 14l-60 -130h-28l66 141c-64 36 -103 109 -103 193
c0 88 51 236 201 236c35 0 65 -8 90 -21l52 112h28l-58 -125c38 -27 58 -65 58 -97c0 -14 -4 -17 -26 -17c-32 0 -40 7 -48 41c-2 10 -4 18 -6 25z" />
    <glyph glyph-name="sterling" unicode="&#xa3;" 
d="M19 342v28h94c-13 54 -22 94 -22 148c0 140 94 200 191 200c61 0 127 -25 169 -78l-33 -48c-28 75 -84 104 -138 104c-68 0 -129 -40 -129 -146c0 -64 22 -118 30 -180h135v-28h-131c3 -16 5 -28 5 -58c0 -102 -26 -151 -57 -202c67 -3 146 -42 199 -42c30 0 89 21 99 90
l50 -29c-15 -69 -71 -113 -139 -113c-83 0 -129 69 -219 71c-9 -21 -29 -71 -73 -71c-19 0 -31 16 -31 31c0 25 24 58 90 63c31 44 31 106 31 121c0 37 -5 68 -20 139h-101z" />
    <glyph glyph-name="fraction" unicode="&#x2044;" horiz-adv-x="167" 
d="M-167 -12l455 730h46l-455 -730h-46z" />
    <glyph glyph-name="yen" unicode="&#xa5;" 
d="M212 348l-45 80h-150v24h136c-21 35 -106 187 -128 211c-9 9 -18 11 -37 13v26c10 0 85 -2 89 -2c10 0 94 2 111 2v-26c-25 -3 -72 2 -72 -10c0 -6 2 -9 16 -35l139 -245l151 243c16 26 18 29 18 34c0 8 -4 10 -81 11v26c109 0 128 1 155 2v-30c-15 -1 -23 -2 -38 -20
c-42 -49 -98 -139 -137 -200h135v-24h-151l-39 -60v-66h170v-24h-170c-1 -156 1 -205 3 -250l88 -4v-26c-46 1 -87 2 -125 2c-40 0 -85 -2 -128 -2v26l88 4c1 45 3 94 2 250h-175v24h175v46z" />
    <glyph glyph-name="florin" unicode="&#x192;" 
d="M139 369v39h103c15 113 24 186 80 254c65 81 121 81 143 81c15 0 25 -1 34 -2l-11 -51c-20 2 -61 6 -80 6s-36 -1 -48 -29c-17 -40 -27 -118 -33 -167l-11 -92h101v-39h-106l-38 -304c-17 -130 -45 -184 -101 -234c-54 -49 -92 -49 -110 -49c-25 0 -44 2 -64 5l8 52
c7 -1 96 -12 114 -12c23 0 34 11 44 43c5 15 18 63 27 132l46 367h-98z" />
    <glyph glyph-name="section" unicode="&#xa7;" 
d="M291 -124l-9 8c16 25 22 59 22 87c0 158 -183 382 -183 565c0 87 55 182 143 182c66 0 103 -56 103 -109c0 -35 -17 -71 -43 -71c-12 0 -21 8 -21 26c0 34 27 101 27 105c0 6 -22 35 -64 35c-71 0 -121 -66 -121 -156c0 -179 184 -385 184 -560c0 -46 -16 -85 -38 -112z
M200 622l12 -3c-4 -14 -5 -36 -5 -44c0 -156 190 -361 190 -559c0 -99 -53 -216 -161 -216c-57 0 -108 37 -108 109c0 35 14 77 47 77c7 0 22 -3 22 -22c0 -38 -35 -89 -35 -111c0 -20 36 -39 74 -39c97 0 136 103 136 182c0 193 -186 393 -186 558c0 23 4 45 14 68z" />
    <glyph glyph-name="currency" unicode="&#xa4;" 
d="M377 354c0 70 -57 127 -127 127s-127 -57 -127 -127s57 -127 127 -127s127 57 127 127zM121 465l-58 58l17 17l58 -58c22 17 54 42 112 42s90 -25 112 -42l58 58l17 -17l-58 -58c16 -21 41 -52 41 -111s-25 -90 -41 -111l58 -58l-17 -17l-58 57c-22 -16 -54 -41 -112 -41
s-90 25 -112 41l-58 -57l-17 17l58 58c-16 21 -41 52 -41 111s25 90 41 111z" />
    <glyph glyph-name="quotesingle" unicode="'" horiz-adv-x="222" 
d="M118 419h-14l-23 213c-2 14 -2 29 -2 43c0 27 10 43 32 43s33 -17 33 -43c0 -14 -1 -29 -3 -43z" />
    <glyph glyph-name="quotedblleft" unicode="&#x201c;" horiz-adv-x="407" 
d="M171 560l-27 -65c-48 8 -101 31 -101 66c0 51 118 177 123 181l13 -13c-12 -14 -73 -88 -73 -123s38 -41 65 -46zM357 560l-28 -65c-48 8 -100 31 -100 66c0 51 118 177 122 181l13 -13c-12 -14 -73 -88 -73 -123s38 -41 66 -46z" />
    <glyph glyph-name="guillemotleft" unicode="&#xab;" horiz-adv-x="481" 
d="M60 208v7c25 22 130 123 152 144c5 5 10 8 15 8c4 0 9 -3 9 -9c0 -11 -69 -102 -105 -147c36 -43 105 -135 105 -146c0 -6 -5 -9 -9 -9c-5 0 -10 3 -15 8c-24 23 -130 124 -152 144zM227 208v7c24 22 130 123 152 144c5 5 9 8 14 8s10 -3 10 -9c0 -11 -69 -102 -105 -147
c35 -43 105 -135 105 -146c0 -6 -5 -9 -10 -9s-9 3 -14 8c-25 23 -130 124 -152 144z" />
    <glyph glyph-name="guilsinglleft" unicode="&#x2039;" horiz-adv-x="315" 
d="M60 208v7c25 22 130 123 152 144c5 5 10 8 15 8c4 0 9 -3 9 -9c0 -11 -69 -102 -105 -147c36 -43 105 -135 105 -146c0 -6 -5 -9 -9 -9c-5 0 -10 3 -15 8c-24 23 -130 124 -152 144z" />
    <glyph glyph-name="guilsinglright" unicode="&#x203a;" horiz-adv-x="315" 
d="M255 215v-7c-25 -22 -130 -124 -152 -144c-6 -5 -10 -8 -15 -8s-9 3 -9 9c0 11 68 102 105 146c-36 44 -105 136 -105 147c0 6 5 9 9 9c5 0 10 -4 15 -8c24 -23 130 -124 152 -144z" />
    <glyph glyph-name="endash" unicode="&#x2013;" 
d="M500 187h-500v48h500v-48z" />
    <glyph glyph-name="dagger" unicode="&#x2020;" 
d="M357 448h-214c4 -9 9 -21 9 -33c0 -17 -9 -25 -19 -25c-12 0 -21 11 -21 28c0 44 52 66 128 68c-15 33 -23 56 -23 82s8 51 21 78c-27 9 -29 27 -29 36c0 17 12 36 40 36c34 0 42 -23 42 -36c0 -9 -2 -27 -29 -36c13 -27 21 -52 21 -78s-8 -49 -23 -82
c76 -2 128 -24 128 -68c0 -17 -9 -28 -21 -28c-10 0 -19 8 -19 25c0 14 6 27 9 33zM258 -54h-16l-29 470h74z" />
    <glyph glyph-name="daggerdbl" unicode="&#x2021;" 
d="M242 347l-23 193h-61c1 -4 3 -14 3 -21c0 -22 -16 -26 -21 -26c-8 0 -18 5 -18 22c0 32 43 59 114 59c-8 22 -11 29 -11 43c0 16 5 27 13 46c-4 2 -16 9 -16 27c0 15 10 28 28 28c19 0 28 -13 28 -28c0 -18 -12 -25 -16 -27c8 -19 13 -30 13 -46c0 -14 -3 -21 -11 -43
c74 0 115 -29 115 -59c0 -19 -13 -22 -19 -22s-21 4 -21 26c0 7 2 17 3 21h-61l-23 -193h-16zM219 120l23 194h16l23 -194h61c-1 4 -3 14 -3 21c0 22 15 26 21 26s19 -3 19 -22c0 -30 -41 -59 -115 -59c8 -21 11 -29 11 -43c0 -16 -5 -26 -13 -46c4 -2 16 -8 16 -26
c0 -16 -9 -28 -28 -28c-18 0 -28 12 -28 28c0 18 12 24 16 26c-8 20 -13 30 -13 46c0 14 3 22 11 43c-71 0 -114 27 -114 60c0 16 10 21 18 21c5 0 21 -4 21 -26c0 -7 -2 -17 -3 -21h61z" />
    <glyph glyph-name="periodcentered" unicode="&#xb7;" horiz-adv-x="250" 
d="M173 211c0 -26 -21 -48 -48 -48s-48 22 -48 48c0 27 21 48 48 48s48 -21 48 -48z" />
    <glyph glyph-name="paragraph" unicode="&#xb6;" horiz-adv-x="519" 
d="M396 -220h-106v30h82v890h92v-28h-68v-892zM296 696v-527c-150 23 -266 117 -266 264c0 146 116 240 266 263z" />
    <glyph glyph-name="bullet" unicode="&#x2022;" 
d="M431 350c0 -100 -81 -181 -181 -181s-181 81 -181 181s81 181 181 181s181 -81 181 -181z" />
    <glyph glyph-name="quotesinglbase" unicode="&#x201a;" horiz-adv-x="222" 
d="M51 14l27 65c46 -8 101 -31 101 -66c0 -50 -114 -173 -123 -182l-13 14c18 22 73 89 73 123s-38 41 -65 46z" />
    <glyph glyph-name="quotedblbase" unicode="&#x201e;" horiz-adv-x="407" 
d="M51 14l27 65c46 -8 101 -31 101 -66c0 -50 -114 -173 -123 -182l-13 14c18 22 73 89 73 123s-38 41 -65 46zM236 14l27 65c46 -8 101 -31 101 -66c0 -50 -114 -173 -123 -182l-12 14c17 22 72 89 72 123s-38 41 -65 46z" />
    <glyph glyph-name="quotedblright" unicode="&#x201d;" horiz-adv-x="407" 
d="M51 652l27 66c46 -9 101 -31 101 -66c0 -51 -114 -173 -123 -182l-13 14c18 21 73 88 73 123c0 34 -38 41 -65 45zM236 652l27 66c46 -9 101 -31 101 -66c0 -51 -114 -173 -123 -182l-12 14c17 21 72 88 72 123c0 34 -38 41 -65 45z" />
    <glyph glyph-name="guillemotright" unicode="&#xbb;" horiz-adv-x="481" 
d="M255 215v-7c-25 -22 -130 -124 -152 -144c-6 -5 -10 -8 -15 -8s-9 3 -9 9c0 11 68 102 105 146c-36 44 -105 136 -105 147c0 6 5 9 9 9c5 0 10 -4 15 -8c24 -23 130 -124 152 -144zM421 215v-7c-24 -22 -130 -124 -151 -144c-6 -5 -10 -8 -15 -8s-10 3 -10 9
c0 11 69 102 105 146c-35 44 -105 136 -105 147c0 6 5 9 10 9s9 -4 15 -8c24 -23 129 -124 151 -144z" />
    <glyph glyph-name="ellipsis" unicode="&#x2026;" horiz-adv-x="1000" 
d="M215 36c0 -26 -21 -48 -48 -48s-48 22 -48 48c0 27 21 48 48 48s48 -21 48 -48zM548 36c0 -26 -21 -48 -48 -48s-48 22 -48 48c0 27 21 48 48 48s48 -21 48 -48zM881 36c0 -26 -21 -48 -48 -48s-48 22 -48 48c0 27 21 48 48 48s48 -21 48 -48z" />
    <glyph glyph-name="perthousand" unicode="&#x2030;" horiz-adv-x="1111" 
d="M849 7c-50 0 -107 38 -107 113c0 119 123 208 212 208c69 0 96 -47 96 -100c0 -102 -102 -221 -201 -221zM855 29c70 0 172 106 172 199c0 58 -36 74 -61 74c-73 0 -173 -136 -173 -214c0 -36 28 -59 62 -59zM181 -12h-45l412 666l-2 2c-29 -19 -64 -38 -134 -38
c-15 0 -27 1 -43 3c9 -138 -116 -244 -198 -244c-54 0 -110 39 -110 115c0 114 120 207 215 207c57 0 77 -37 86 -55c18 -2 31 -4 48 -4c102 0 164 56 188 78h34zM113 461c0 -37 27 -62 60 -62c76 0 174 108 174 200c0 11 -1 19 -3 28c-12 4 -33 11 -59 46
c-92 -13 -172 -155 -172 -212zM498 7c-50 0 -107 38 -107 113c0 119 123 208 212 208c69 0 96 -47 96 -100c0 -102 -102 -221 -201 -221zM505 29c70 0 172 106 172 199c0 58 -36 74 -61 74c-73 0 -173 -136 -173 -214c0 -36 28 -59 62 -59z" />
    <glyph glyph-name="questiondown" unicode="&#xbf;" horiz-adv-x="389" 
d="M262 278l7 -160c-96 -70 -163 -118 -163 -187c0 -55 50 -79 103 -79c58 0 103 20 128 32l-9 -79c-30 -15 -88 -25 -121 -25c-95 0 -161 52 -161 129c0 82 74 147 191 220l4 149h21zM203 390c0 26 21 48 48 48s48 -22 48 -48c0 -27 -21 -48 -48 -48s-48 21 -48 48z" />
    <glyph glyph-name="grave" unicode="`" horiz-adv-x="278" 
d="M187 489l-171 105c-14 8 -24 17 -24 34c0 20 17 31 32 31c17 0 27 -9 41 -24l146 -146h-24z" />
    <glyph glyph-name="acute" unicode="&#xb4;" horiz-adv-x="278" 
d="M91 489h-24l146 146c10 11 23 24 41 24s31 -14 31 -31s-9 -26 -23 -34z" />
    <glyph glyph-name="circumflex" unicode="&#x2c6;" horiz-adv-x="278" 
d="M139 595l-128 -106h-22l124 168h51l125 -168h-22z" />
    <glyph glyph-name="tilde" unicode="&#x2dc;" horiz-adv-x="278" 
d="M279 618h21c-6 -22 -27 -102 -105 -102c-27 0 -50 11 -72 23c-22 11 -43 23 -66 23c-39 0 -51 -29 -58 -46h-21c16 68 60 98 99 98c29 0 55 -12 78 -24s44 -24 63 -24c38 0 53 34 61 52z" />
    <glyph glyph-name="macron" unicode="&#xaf;" horiz-adv-x="278" 
d="M-12 532v48h302v-48h-302z" />
    <glyph glyph-name="breve" unicode="&#x2d8;" horiz-adv-x="278" 
d="M2 645h23c11 -62 49 -99 114 -99s103 37 114 99h23c-1 -78 -31 -156 -137 -156c-124 0 -136 107 -137 156z" />
    <glyph glyph-name="dotaccent" unicode="&#x2d9;" horiz-adv-x="278" 
d="M95 551c0 33 23 51 47 51c21 0 41 -15 41 -42c0 -29 -22 -52 -48 -52c-25 0 -40 20 -40 43z" />
    <glyph glyph-name="dieresis" unicode="&#xa8;" horiz-adv-x="278" 
d="M85 559c0 -27 -21 -50 -46 -50c-23 0 -39 25 -39 42c0 33 22 49 46 49c20 0 39 -14 39 -41zM278 559c0 -27 -21 -50 -46 -50c-23 0 -39 25 -39 42c0 33 22 49 46 49c20 0 39 -14 39 -41z" />
    <glyph glyph-name="ring" unicode="&#x2da;" horiz-adv-x="278" 
d="M236 579c0 -53 -43 -97 -97 -97s-97 44 -97 97c0 54 43 97 97 97s97 -43 97 -97zM206 579c0 37 -30 67 -67 67s-67 -30 -67 -67s30 -67 67 -67s67 30 67 67z" />
    <glyph glyph-name="cedilla" unicode="&#xb8;" horiz-adv-x="278" 
d="M120 0h23l-30 -70c9 4 22 8 42 8c48 0 81 -28 81 -71c0 -51 -45 -83 -117 -83c-29 0 -55 5 -83 17l7 21c15 -5 36 -12 63 -12c56 0 64 35 64 49c0 28 -23 45 -50 45c-14 0 -23 -5 -32 -9l-11 6z" />
    <glyph glyph-name="hungarumlaut" unicode="&#x2dd;" horiz-adv-x="278" 
d="M-4 481l137 153c20 22 29 25 41 25c19 0 31 -15 31 -31s-7 -23 -23 -34l-161 -113h-25zM171 489h-25l147 146c11 12 23 24 41 24c17 0 31 -13 31 -31c0 -16 -9 -26 -23 -34z" />
    <glyph glyph-name="ogonek" unicode="&#x2db;" horiz-adv-x="278" 
d="M236 12v-10c-31 -11 -154 -53 -154 -128c0 -37 35 -48 58 -48c40 0 81 21 104 33l11 -19c-46 -28 -92 -56 -148 -56c-54 0 -89 32 -89 77c0 35 20 115 218 151z" />
    <glyph glyph-name="caron" unicode="&#x2c7;" horiz-adv-x="278" 
d="M139 551l128 106h22l-125 -168h-51l-124 168h22z" />
    <glyph glyph-name="emdash" unicode="&#x2014;" horiz-adv-x="1000" 
d="M870 187h-740v48h740v-48z" />
    <glyph glyph-name="AE" unicode="&#xc6;" horiz-adv-x="926" 
d="M402 328h-186l-129 -231c-12 -20 -32 -57 -32 -62c0 -8 9 -9 76 -9v-26c-44 0 -132 0 -172 -2v30c43 2 57 13 113 105c54 88 309 531 309 537c0 5 -13 4 -78 6v26c21 0 117 -2 136 -2h88c99 0 205 1 305 2v-154h-32c-8 120 -15 130 -136 131l-174 1v-302
c31 0 138 1 157 15c19 15 21 98 23 114h34c-4 -30 -6 -74 -6 -160c0 -55 0 -87 3 -118h-35c0 97 -10 121 -25 123c-32 5 -115 4 -151 4c0 -106 0 -267 3 -292c4 -36 21 -42 55 -42h244l48 160h30l-12 -182h-295c-155 0 -179 0 -232 -2v26l70 4c1 42 1 240 1 300zM229 352
h173c0 96 -1 192 -1 288h-9z" />
    <glyph glyph-name="ordfeminine" unicode="&#xaa;" horiz-adv-x="333" 
d="M285 477v-16c-15 -4 -49 -13 -61 -13s-21 8 -21 20c0 9 -2 12 -6 12c-3 0 -51 -35 -96 -35c-32 0 -58 23 -58 56c0 58 74 80 157 85l1 74c0 28 -8 34 -41 34c-34 0 -50 -1 -51 -6c-3 -19 -6 -33 -8 -43c-1 -5 -16 -16 -28 -16c-11 0 -15 11 -15 24c0 24 13 32 32 41
c22 11 64 24 100 24c46 0 62 -20 62 -57l-1 -184h34zM199 505v57c1 9 -1 10 -7 10s-99 -9 -99 -66c0 -21 10 -35 32 -35c27 0 59 15 63 16c10 4 11 5 11 18z" />
    <glyph glyph-name="Lslash" unicode="&#x141;" horiz-adv-x="611" 
d="M597 192l-20 -194c-141 2 -166 2 -393 2c-86 0 -120 -2 -148 -2v26l85 4c2 54 1 66 1 196v63l-93 -60v36l93 60c0 263 1 298 -1 349l-77 4v26c25 0 62 -2 126 -2c62 0 101 2 124 2v-26l-81 -4c-2 -54 -3 -66 -3 -196v-96l175 112v-36l-175 -112c0 -246 1 -267 2 -279
c3 -19 8 -33 31 -35c28 -4 158 -6 170 -6c43 0 70 2 97 3l56 165h31z" />
    <glyph glyph-name="Oslash" unicode="&#xd8;" horiz-adv-x="796" 
d="M208 108l352 523c-44 43 -100 65 -155 65c-101 0 -270 -79 -270 -352c0 -97 28 -178 73 -236zM586 603l-352 -524c48 -48 109 -75 172 -75c160 0 256 169 256 354c0 107 -30 189 -76 245zM205 35l-83 -123h-46l98 145c-87 70 -131 178 -131 285c0 194 124 376 361 376
c72 0 133 -16 184 -45l61 91h45l-74 -111c88 -64 134 -171 134 -291c0 -195 -130 -380 -357 -380c-77 0 -142 20 -192 53z" />
    <glyph glyph-name="OE" unicode="&#x152;" horiz-adv-x="1037" 
d="M951 703v-155h-32c-9 121 -15 130 -111 130h-198v-301c30 0 137 2 156 16c18 13 19 74 23 114h33c-3 -30 -5 -74 -5 -160c0 -55 0 -87 1 -118h-33c-5 111 -8 115 -14 119c-11 7 -126 7 -161 7c0 -105 0 -266 2 -291c3 -32 18 -42 54 -42h245l48 160h30l-12 -182h-295
c-43 0 -100 0 -144 -4c-53 -5 -127 -14 -158 -14c-196 0 -338 153 -338 369c0 187 120 365 341 365c33 0 115 -7 172 -12c31 -3 69 -4 119 -4c23 0 194 1 277 3zM134 349c0 -201 102 -345 268 -345c30 0 112 2 118 39c2 13 2 403 2 435c0 25 0 170 -6 182
c-11 27 -79 34 -123 34c-151 0 -259 -131 -259 -345z" />
    <glyph glyph-name="ordmasculine" unicode="&#xba;" horiz-adv-x="333" 
d="M30 579c0 106 79 139 142 139c104 0 131 -76 131 -130c0 -74 -49 -143 -136 -143c-67 0 -137 44 -137 134zM90 581c0 -64 22 -116 77 -116c59 0 76 54 76 117c0 69 -19 116 -71 116c-35 0 -82 -22 -82 -117z" />
    <glyph glyph-name="ae" unicode="&#xe6;" horiz-adv-x="667" 
d="M280 82l2 118c0 15 -2 16 -7 16c-48 0 -171 -37 -171 -130c0 -44 34 -64 68 -64c46 0 96 33 101 36s7 7 7 24zM389 240l147 6c27 0 28 2 28 42c0 73 -25 128 -85 128c-70 0 -127 -66 -127 -160c0 -14 2 -16 5 -17c2 -1 28 0 32 1zM282 232l3 107c1 50 -20 67 -77 67
c-24 0 -79 -11 -82 -24c-2 -10 -6 -57 -10 -65c-13 -25 -31 -27 -37 -27c-11 0 -19 7 -19 33c0 32 13 47 25 57c23 19 89 58 164 58c40 0 70 -12 88 -42c1 -1 6 -9 8 -9c1 0 6 6 12 11c32 29 78 40 115 40c98 0 160 -72 160 -159c0 -16 -3 -47 -9 -49s-25 -4 -40 -4l-219 -9
c-10 0 -14 -2 -14 -15c0 -110 59 -170 141 -170c74 0 105 44 125 74l15 -9c-17 -33 -60 -113 -169 -113c-56 0 -109 27 -145 71c-3 4 -8 10 -10 10s-90 -81 -169 -81c-58 0 -102 39 -102 99c0 127 153 143 246 149z" />
    <glyph glyph-name="dotlessi" unicode="&#x131;" horiz-adv-x="278" 
d="M52 0v24l56 1v330c0 26 -3 28 -51 31v30l123 16v-407l53 -1v-24h-181z" />
    <glyph glyph-name="lslash" unicode="&#x142;" horiz-adv-x="278" 
d="M176 393v-368l54 -1v-24h-192v24l66 1v323l-91 -58v30l91 58v229c0 16 0 85 -8 91c-4 3 -55 3 -66 4v32c23 1 124 10 147 12c0 -69 -1 -139 -1 -208v-115l88 56v-30z" />
    <glyph glyph-name="oslash" unicode="&#xf8;" 
d="M146 79l192 296c-21 26 -48 41 -80 41c-53 0 -142 -47 -142 -206c0 -48 10 -94 30 -131zM356 347l-191 -297c22 -27 51 -44 85 -44c92 0 134 100 134 206c0 53 -10 101 -28 135zM430 518h37l-79 -122c55 -44 72 -117 72 -174c0 -123 -75 -238 -209 -238
c-38 0 -77 10 -110 30l-78 -121h-37l90 139c-45 35 -76 94 -76 174c0 178 121 232 219 232c42 0 76 -9 104 -24z" />
    <glyph glyph-name="oe" unicode="&#x153;" horiz-adv-x="796" 
d="M116 210c0 -106 50 -204 134 -204c92 0 134 100 134 206c0 114 -45 204 -126 204c-53 0 -142 -47 -142 -206zM732 265h-268c-13 0 -18 -3 -18 -40c0 -91 58 -193 167 -193c73 0 105 45 125 74l15 -9c-18 -33 -61 -113 -169 -113c-69 0 -131 33 -167 89
c-34 -53 -91 -89 -166 -89c-104 0 -211 73 -211 222c0 178 121 232 219 232c86 0 137 -36 166 -84c36 50 91 84 163 84c132 0 164 -114 164 -152c0 -15 -2 -21 -20 -21zM469 287h193c18 0 22 3 22 12c0 22 -11 117 -92 117c-87 0 -134 -100 -134 -124c0 -3 4 -5 11 -5z" />
    <glyph glyph-name="germandbls" unicode="&#xdf;" horiz-adv-x="519" 
d="M40 0v24l56 1v483c0 164 42 234 170 234c103 0 167 -71 167 -162c0 -111 -95 -142 -125 -152c-7 -3 -12 -4 -12 -8c0 -3 2 -5 13 -8c65 -20 169 -52 169 -213c0 -137 -79 -209 -151 -209c-54 0 -96 36 -96 91c0 16 9 20 31 20c21 0 31 -5 31 -24c0 -5 -2 -26 -2 -30
c0 -22 11 -39 34 -39c57 0 80 90 80 183c0 134 -38 199 -131 211c-49 6 -52 9 -52 16c0 8 3 11 37 15c79 8 102 77 102 147c0 90 -37 140 -99 140c-74 0 -94 -36 -94 -220v-475l38 -1v-24h-166z" />
    <glyph glyph-name="logicalnot" unicode="&#xac;" horiz-adv-x="600" 
d="M53 321v43h493v-235h-43v192h-450z" />
    <glyph glyph-name="mu" unicode="&#xb5;" horiz-adv-x="556" 
d="M43 386v34l123 12v-312c0 -78 24 -106 111 -106c47 0 89 12 100 19c7 4 11 10 11 39v285c0 25 -5 28 -64 29v34l136 12v-396h50v-30c-23 -5 -67 -16 -87 -16c-33 0 -25 30 -40 30c-9 0 -78 -32 -158 -32c-11 0 -23 3 -33 6c-10 2 -18 5 -22 5c-3 0 -5 -2 -5 -15v-228
c0 -13 -2 -16 -15 -16h-46c-8 0 -10 7 -10 21v620z" />
    <glyph glyph-name="trademark" unicode="&#x2122;" horiz-adv-x="907" 
d="M21 603h-21l7 97l156 -1l201 1l-5 -95h-19c-1 11 -5 68 -7 73c-4 6 -35 6 -48 6h-76c-2 -58 -2 -301 0 -359l41 -2v-18c-17 1 -33 2 -69 2c-37 0 -53 -1 -70 -2v18l41 2c2 53 2 306 0 359h-55c-44 0 -49 -5 -54 -10c-8 -8 -18 -52 -22 -71zM863 323v-18
c-23 1 -51 2 -74 2c-22 0 -49 -1 -70 -2v18l43 2c1 117 2 145 1 189c0 25 -2 134 -2 156h-2l-150 -370h-9l-163 362l-2 -2l4 -335l49 -2v-18c-12 1 -30 2 -52 2c-13 0 -26 -1 -61 -2v18l43 2c1 105 1 227 -1 355l-37 2v18c14 0 31 -1 52 -1s36 1 48 1l141 -325l132 324
c43 0 50 0 108 1v-18l-45 -2c0 -105 2 -248 4 -355z" />
    <glyph glyph-name="Eth" unicode="&#xd0;" horiz-adv-x="796" 
d="M32 344v30h98c0 213 -1 247 -3 298l-74 2v26c51 0 276 8 333 8c208 0 368 -124 368 -353c0 -249 -182 -357 -410 -357c-28 0 -151 2 -176 2c-46 0 -77 -1 -115 -2v26l74 4c2 54 3 88 3 196v120h-98zM460 374v-30h-242v-145c0 -14 0 -151 6 -161c6 -12 86 -18 144 -18
c192 0 294 148 294 326c0 231 -163 338 -372 338c-25 0 -54 -3 -64 -7c-5 -3 -6 -7 -7 -25c-1 -20 -1 -142 -1 -278h242z" />
    <glyph glyph-name="onehalf" unicode="&#xbd;" horiz-adv-x="833" 
d="M146 -12l455 730h46l-455 -730h-46zM774 0h-109c-114 0 -127 0 -164 -1v13c42 45 207 199 207 273c0 41 -34 69 -81 69c-37 0 -75 -15 -89 -20c-2 -1 -21 -8 -22 -8c-3 0 -2 4 -1 9l12 63c30 9 65 20 107 20c83 0 132 -49 132 -107c0 -88 -135 -192 -189 -247h176l9 43
h20zM72 300v22l75 5c1 104 2 116 2 140v207l-73 1v29l140 11l-2 -388l74 -5v-22c-32 1 -71 2 -110 2c-38 0 -76 -1 -106 -2z" />
    <glyph glyph-name="plusminus" unicode="&#xb1;" horiz-adv-x="600" 
d="M278 80v185h-225v43h225v185h43v-185h225v-43h-225v-185h-43zM53 0v43h493v-43h-493z" />
    <glyph glyph-name="Thorn" unicode="&#xde;" horiz-adv-x="593" 
d="M294 24v-26c-40 1 -72 2 -127 2c-56 0 -86 -1 -120 -2v26l74 4c2 54 1 66 1 196c0 344 1 382 -1 448l-74 4v26c33 -1 64 -2 120 -2c55 0 85 1 127 2v-26l-81 -4c-1 -37 -2 -54 -2 -136c5 0 21 1 37 2c42 2 83 4 97 4c143 0 203 -98 203 -180c0 -130 -106 -194 -256 -194
h-82c1 -101 2 -120 3 -140zM210 516v-324c29 -1 44 -2 63 -2c107 0 191 49 191 166c0 142 -119 162 -233 162c-9 0 -17 -1 -21 -2z" />
    <glyph glyph-name="onequarter" unicode="&#xbc;" horiz-adv-x="833" 
d="M617 0l3 137h-199v18l254 272h13l-1 -239l72 1v-52h-73v-137h-69zM621 187l4 158l-148 -159zM146 -12l455 730h46l-455 -730h-46zM72 300v22l75 5c1 104 2 116 2 140v207l-73 1v29l140 11l-2 -388l74 -5v-22c-32 1 -71 2 -110 2c-38 0 -76 -1 -106 -2z" />
    <glyph glyph-name="divide" unicode="&#xf7;" horiz-adv-x="600" 
d="M53 225v43h493v-43h-493zM342 422c0 -23 -19 -42 -42 -42s-42 19 -42 42s19 42 42 42s42 -19 42 -42zM342 71c0 -23 -19 -42 -42 -42s-42 19 -42 42s19 42 42 42s42 -19 42 -42z" />
    <glyph glyph-name="brokenbar" unicode="&#xa6;" horiz-adv-x="222" 
d="M90 -89v250h42v-250h-42zM90 411v250h42v-250h-42z" />
    <glyph glyph-name="degree" unicode="&#xb0;" horiz-adv-x="400" 
d="M200 718c77 0 140 -63 140 -140c0 -76 -63 -139 -140 -139s-140 63 -140 139c0 77 63 140 140 140zM200 686c-59 0 -108 -48 -108 -108c0 -59 49 -107 108 -107s108 48 108 107c0 60 -49 108 -108 108z" />
    <glyph glyph-name="thorn" unicode="&#xfe;" horiz-adv-x="519" 
d="M27 -236l59 1c0 27 2 146 2 170v605c0 53 -1 105 -1 158l-72 1v31c44 2 58 4 147 15c0 -31 -2 -170 -2 -198v-137c0 -6 3 -10 9 -10c7 0 57 34 124 34c89 0 184 -74 184 -217c0 -148 -99 -229 -219 -229c-41 0 -75 10 -98 17v-240l69 -1v-24h-202v24zM160 358v-341
c14 -3 26 -5 53 -5c119 0 189 72 189 200c0 134 -87 188 -156 188c-21 0 -62 -8 -76 -15c-6 -3 -10 -11 -10 -27z" />
    <glyph glyph-name="threequarters" unicode="&#xbe;" horiz-adv-x="833" 
d="M617 0l3 137h-199v18l254 272h13l-1 -239l72 1v-52h-73v-137h-69zM621 187l4 158l-148 -159zM144 -12l455 730h46l-455 -730h-46zM62 637l9 63c21 6 60 18 105 18c87 0 116 -45 116 -80c0 -59 -71 -88 -94 -97v-2c72 -13 111 -47 110 -97c-1 -90 -156 -152 -229 -152
c-6 0 -10 4 -10 10s4 8 19 12c112 23 156 68 156 110c0 54 -50 76 -138 76c-11 0 -21 1 -21 9c0 7 4 8 20 13c24 8 133 44 133 97c0 20 -15 49 -67 49c-40 0 -80 -17 -109 -29z" />
    <glyph glyph-name="registered" unicode="&#xae;" horiz-adv-x="800" 
d="M768 349c0 -203 -165 -367 -368 -367s-368 164 -368 367c0 204 165 369 368 369s368 -165 368 -369zM740 349c0 188 -153 341 -340 341s-340 -153 -340 -341c0 -187 153 -339 340 -339s340 152 340 339zM232 534v14h181c63 0 123 -29 123 -95c0 -55 -37 -94 -85 -110
l61 -84c28 -38 62 -76 83 -89v-9h-62c-36 0 -60 67 -132 172h-55v-118c0 -33 6 -34 52 -38v-16h-166v16c46 4 51 5 51 38v281c0 33 -5 34 -51 38zM346 529v-178h49c52 0 78 38 78 98s-38 80 -81 80h-46z" />
    <glyph glyph-name="minus" unicode="&#x2212;" horiz-adv-x="600" 
d="M546 268v-43h-493v43h493z" />
    <glyph glyph-name="eth" unicode="&#xf0;" 
d="M238 576l-145 -58l-9 24l140 56l-78 124l61 24l78 -123l139 56l10 -24l-135 -54c72 -116 161 -234 161 -377c0 -131 -80 -240 -209 -240c-94 0 -211 63 -211 226c0 151 99 228 202 228c27 0 47 -5 57 -8c17 -4 19 -4 21 -4c3 0 5 0 5 3s-1 5 -8 16zM116 210
c0 -106 50 -204 134 -204c92 0 134 100 134 206c0 114 -45 204 -126 204c-53 0 -142 -47 -142 -206z" />
    <glyph glyph-name="multiply" unicode="&#xd7;" horiz-adv-x="600" 
d="M69 46l201 201l-201 200l30 31l201 -201l201 201l30 -31l-201 -200l201 -201l-30 -31l-201 201l-201 -201z" />
    <glyph glyph-name="copyright" unicode="&#xa9;" horiz-adv-x="800" 
d="M550 270l16 -8c-18 -37 -61 -115 -169 -115c-96 0 -199 71 -199 200c0 131 101 213 201 213c66 0 102 -35 118 -35c14 0 17 15 19 24h16l4 -144h-17c-8 34 -32 137 -134 137c-88 0 -145 -88 -145 -194c0 -148 103 -177 153 -177c84 0 122 71 137 99zM768 349
c0 -203 -165 -367 -368 -367s-368 164 -368 367c0 204 165 369 368 369s368 -165 368 -369zM740 349c0 188 -153 341 -340 341s-340 -153 -340 -341c0 -187 153 -339 340 -339s340 152 340 339z" />
    <glyph glyph-name="Aacute" unicode="&#xc1;" horiz-adv-x="611" 
d="M622 28v-30c-25 0 -53 2 -100 2c-29 0 -55 -1 -127 -2v26l48 4c27 2 31 4 31 12c0 4 -5 19 -8 26l-73 199c-7 18 -10 20 -31 20h-180c-11 0 -17 -5 -22 -19l-68 -195c-4 -12 -10 -30 -10 -35c0 -6 5 -8 19 -9l49 -3v-26c-25 0 -59 2 -91 2c-35 0 -54 -2 -73 -2v30
c52 4 56 7 68 35c9 21 20 41 78 197l169 458h15l152 -403c72 -185 96 -247 110 -273c3 -7 8 -12 44 -14zM197 309h166c8 0 11 3 11 6c0 2 -2 9 -5 16l-83 225c-3 8 -5 14 -8 14c-4 0 -6 -5 -10 -16l-83 -219c-2 -8 -6 -16 -6 -21c0 -3 5 -5 18 -5zM262 769h-24l146 146
c10 11 23 24 41 24s31 -14 31 -31s-9 -26 -23 -34z" />
    <glyph glyph-name="Acircumflex" unicode="&#xc2;" horiz-adv-x="611" 
d="M622 28v-30c-25 0 -53 2 -100 2c-29 0 -55 -1 -127 -2v26l48 4c27 2 31 4 31 12c0 4 -5 19 -8 26l-73 199c-7 18 -10 20 -31 20h-180c-11 0 -17 -5 -22 -19l-68 -195c-4 -12 -10 -30 -10 -35c0 -6 5 -8 19 -9l49 -3v-26c-25 0 -59 2 -91 2c-35 0 -54 -2 -73 -2v30
c52 4 56 7 68 35c9 21 20 41 78 197l169 458h15l152 -403c72 -185 96 -247 110 -273c3 -7 8 -12 44 -14zM197 309h166c8 0 11 3 11 6c0 2 -2 9 -5 16l-83 225c-3 8 -5 14 -8 14c-4 0 -6 -5 -10 -16l-83 -219c-2 -8 -6 -16 -6 -21c0 -3 5 -5 18 -5zM316 875l-128 -106h-22
l124 168h51l125 -168h-22z" />
    <glyph glyph-name="Adieresis" unicode="&#xc4;" horiz-adv-x="611" 
d="M622 28v-30c-25 0 -53 2 -100 2c-29 0 -55 -1 -127 -2v26l48 4c27 2 31 4 31 12c0 4 -5 19 -8 26l-73 199c-7 18 -10 20 -31 20h-180c-11 0 -17 -5 -22 -19l-68 -195c-4 -12 -10 -30 -10 -35c0 -6 5 -8 19 -9l49 -3v-26c-25 0 -59 2 -91 2c-35 0 -54 -2 -73 -2v30
c52 4 56 7 68 35c9 21 20 41 78 197l169 458h15l152 -403c72 -185 96 -247 110 -273c3 -7 8 -12 44 -14zM197 309h166c8 0 11 3 11 6c0 2 -2 9 -5 16l-83 225c-3 8 -5 14 -8 14c-4 0 -6 -5 -10 -16l-83 -219c-2 -8 -6 -16 -6 -21c0 -3 5 -5 18 -5zM256 839
c0 -27 -21 -50 -46 -50c-23 0 -39 25 -39 42c0 33 22 49 46 49c20 0 39 -14 39 -41zM449 839c0 -27 -21 -50 -46 -50c-23 0 -39 25 -39 42c0 33 22 49 46 49c20 0 39 -14 39 -41z" />
    <glyph glyph-name="Agrave" unicode="&#xc0;" horiz-adv-x="611" 
d="M622 28v-30c-25 0 -53 2 -100 2c-29 0 -55 -1 -127 -2v26l48 4c27 2 31 4 31 12c0 4 -5 19 -8 26l-73 199c-7 18 -10 20 -31 20h-180c-11 0 -17 -5 -22 -19l-68 -195c-4 -12 -10 -30 -10 -35c0 -6 5 -8 19 -9l49 -3v-26c-25 0 -59 2 -91 2c-35 0 -54 -2 -73 -2v30
c52 4 56 7 68 35c9 21 20 41 78 197l169 458h15l152 -403c72 -185 96 -247 110 -273c3 -7 8 -12 44 -14zM197 309h166c8 0 11 3 11 6c0 2 -2 9 -5 16l-83 225c-3 8 -5 14 -8 14c-4 0 -6 -5 -10 -16l-83 -219c-2 -8 -6 -16 -6 -21c0 -3 5 -5 18 -5zM358 769l-171 105
c-14 8 -24 17 -24 34c0 20 17 31 32 31c17 0 27 -9 41 -24l146 -146h-24z" />
    <glyph glyph-name="Aring" unicode="&#xc5;" horiz-adv-x="611" 
d="M622 28v-30c-25 0 -53 2 -100 2c-29 0 -55 -1 -127 -2v26l48 4c27 2 31 4 31 12c0 4 -5 19 -8 26l-73 199c-7 18 -10 20 -31 20h-180c-11 0 -17 -5 -22 -19l-68 -195c-4 -12 -10 -30 -10 -35c0 -6 5 -8 19 -9l49 -3v-26c-25 0 -59 2 -91 2c-35 0 -54 -2 -73 -2v30
c52 4 56 7 68 35c9 21 20 41 78 197l169 458h15l152 -403c72 -185 96 -247 110 -273c3 -7 8 -12 44 -14zM197 309h166c8 0 11 3 11 6c0 2 -2 9 -5 16l-83 225c-3 8 -5 14 -8 14c-4 0 -6 -5 -10 -16l-83 -219c-2 -8 -6 -16 -6 -21c0 -3 5 -5 18 -5zM413 859
c0 -53 -43 -97 -97 -97s-97 44 -97 97c0 54 43 97 97 97s97 -43 97 -97zM383 859c0 37 -30 67 -67 67s-67 -30 -67 -67s30 -67 67 -67s67 30 67 67z" />
    <glyph glyph-name="Atilde" unicode="&#xc3;" horiz-adv-x="611" 
d="M622 28v-30c-25 0 -53 2 -100 2c-29 0 -55 -1 -127 -2v26l48 4c27 2 31 4 31 12c0 4 -5 19 -8 26l-73 199c-7 18 -10 20 -31 20h-180c-11 0 -17 -5 -22 -19l-68 -195c-4 -12 -10 -30 -10 -35c0 -6 5 -8 19 -9l49 -3v-26c-25 0 -59 2 -91 2c-35 0 -54 -2 -73 -2v30
c52 4 56 7 68 35c9 21 20 41 78 197l169 458h15l152 -403c72 -185 96 -247 110 -273c3 -7 8 -12 44 -14zM197 309h166c8 0 11 3 11 6c0 2 -2 9 -5 16l-83 225c-3 8 -5 14 -8 14c-4 0 -6 -5 -10 -16l-83 -219c-2 -8 -6 -16 -6 -21c0 -3 5 -5 18 -5zM450 898h21
c-6 -22 -27 -102 -105 -102c-27 0 -50 11 -72 23c-22 11 -43 23 -66 23c-39 0 -51 -29 -58 -46h-21c16 68 60 98 99 98c29 0 55 -12 78 -24s44 -24 63 -24c38 0 53 34 61 52z" />
    <glyph glyph-name="Ccedilla" unicode="&#xc7;" horiz-adv-x="759" 
d="M691 231l-11 -165c-87 -54 -181 -84 -283 -84h-3l-22 -52c9 4 22 8 42 8c48 0 81 -28 81 -71c0 -51 -45 -83 -117 -83c-29 0 -55 5 -83 17l7 21c15 -5 36 -12 63 -12c56 0 64 35 64 49c0 28 -23 45 -50 45c-14 0 -23 -5 -32 -9l-11 6l36 82c-187 11 -330 152 -330 369
c0 228 168 366 354 366c132 0 226 -72 244 -72c9 0 12 9 15 17h29v-192h-20c-60 204 -212 225 -259 225c-123 0 -271 -109 -271 -329c0 -234 151 -355 293 -355c141 0 213 94 244 219h20z" />
    <glyph glyph-name="Eacute" unicode="&#xc9;" horiz-adv-x="667" 
d="M611 182l-12 -182h-313c-155 0 -180 -1 -233 -2v26l70 4c1 26 1 50 1 78v375c0 124 0 137 -2 191l-76 4v26c32 -1 72 -2 159 -2c122 0 245 0 368 2v-154h-34c-3 124 -19 132 -127 132h-200v-302c31 0 148 0 169 15c20 15 22 100 23 114h33c-2 -30 -6 -74 -6 -160
c0 -55 1 -87 3 -118h-33c-8 114 -9 120 -20 122c-34 6 -134 5 -169 5c0 -106 0 -267 3 -292c4 -34 18 -42 55 -42h263l48 160h30zM286 769h-24l146 146c10 11 23 24 41 24s31 -14 31 -31s-9 -26 -23 -34z" />
    <glyph glyph-name="Ecircumflex" unicode="&#xca;" horiz-adv-x="667" 
d="M611 182l-12 -182h-313c-155 0 -180 -1 -233 -2v26l70 4c1 26 1 50 1 78v375c0 124 0 137 -2 191l-76 4v26c32 -1 72 -2 159 -2c122 0 245 0 368 2v-154h-34c-3 124 -19 132 -127 132h-200v-302c31 0 148 0 169 15c20 15 22 100 23 114h33c-2 -30 -6 -74 -6 -160
c0 -55 1 -87 3 -118h-33c-8 114 -9 120 -20 122c-34 6 -134 5 -169 5c0 -106 0 -267 3 -292c4 -34 18 -42 55 -42h263l48 160h30zM334 875l-128 -106h-22l124 168h51l125 -168h-22z" />
    <glyph glyph-name="Edieresis" unicode="&#xcb;" horiz-adv-x="667" 
d="M611 182l-12 -182h-313c-155 0 -180 -1 -233 -2v26l70 4c1 26 1 50 1 78v375c0 124 0 137 -2 191l-76 4v26c32 -1 72 -2 159 -2c122 0 245 0 368 2v-154h-34c-3 124 -19 132 -127 132h-200v-302c31 0 148 0 169 15c20 15 22 100 23 114h33c-2 -30 -6 -74 -6 -160
c0 -55 1 -87 3 -118h-33c-8 114 -9 120 -20 122c-34 6 -134 5 -169 5c0 -106 0 -267 3 -292c4 -34 18 -42 55 -42h263l48 160h30zM280 839c0 -27 -21 -50 -46 -50c-23 0 -39 25 -39 42c0 33 22 49 46 49c20 0 39 -14 39 -41zM473 839c0 -27 -21 -50 -46 -50
c-23 0 -39 25 -39 42c0 33 22 49 46 49c20 0 39 -14 39 -41z" />
    <glyph glyph-name="Egrave" unicode="&#xc8;" horiz-adv-x="667" 
d="M611 182l-12 -182h-313c-155 0 -180 -1 -233 -2v26l70 4c1 26 1 50 1 78v375c0 124 0 137 -2 191l-76 4v26c32 -1 72 -2 159 -2c122 0 245 0 368 2v-154h-34c-3 124 -19 132 -127 132h-200v-302c31 0 148 0 169 15c20 15 22 100 23 114h33c-2 -30 -6 -74 -6 -160
c0 -55 1 -87 3 -118h-33c-8 114 -9 120 -20 122c-34 6 -134 5 -169 5c0 -106 0 -267 3 -292c4 -34 18 -42 55 -42h263l48 160h30zM382 769l-171 105c-14 8 -24 17 -24 34c0 20 17 31 32 31c17 0 27 -9 41 -24l146 -146h-24z" />
    <glyph glyph-name="Iacute" unicode="&#xcd;" horiz-adv-x="333" 
d="M213 28l73 -4v-26c-32 1 -64 2 -119 2c-56 0 -86 -1 -120 -2v26l74 4c2 54 1 66 1 196c0 344 1 382 -1 448l-74 4v26c33 -1 64 -2 120 -2c55 0 85 1 119 2v-26l-73 -4c-2 -54 -3 -66 -3 -196c0 -344 0 -382 3 -448zM119 769h-24l146 146c10 11 23 24 41 24s31 -14 31 -31
s-9 -26 -23 -34z" />
    <glyph glyph-name="Icircumflex" unicode="&#xce;" horiz-adv-x="333" 
d="M213 28l73 -4v-26c-32 1 -64 2 -119 2c-56 0 -86 -1 -120 -2v26l74 4c2 54 1 66 1 196c0 344 1 382 -1 448l-74 4v26c33 -1 64 -2 120 -2c55 0 85 1 119 2v-26l-73 -4c-2 -54 -3 -66 -3 -196c0 -344 0 -382 3 -448zM167 875l-128 -106h-22l124 168h51l125 -168h-22z" />
    <glyph glyph-name="Idieresis" unicode="&#xcf;" horiz-adv-x="333" 
d="M213 28l73 -4v-26c-32 1 -64 2 -119 2c-56 0 -86 -1 -120 -2v26l74 4c2 54 1 66 1 196c0 344 1 382 -1 448l-74 4v26c33 -1 64 -2 120 -2c55 0 85 1 119 2v-26l-73 -4c-2 -54 -3 -66 -3 -196c0 -344 0 -382 3 -448zM113 839c0 -27 -21 -50 -46 -50c-23 0 -39 25 -39 42
c0 33 22 49 46 49c20 0 39 -14 39 -41zM306 839c0 -27 -21 -50 -46 -50c-23 0 -39 25 -39 42c0 33 22 49 46 49c20 0 39 -14 39 -41z" />
    <glyph glyph-name="Igrave" unicode="&#xcc;" horiz-adv-x="333" 
d="M213 28l73 -4v-26c-32 1 -64 2 -119 2c-56 0 -86 -1 -120 -2v26l74 4c2 54 1 66 1 196c0 344 1 382 -1 448l-74 4v26c33 -1 64 -2 120 -2c55 0 85 1 119 2v-26l-73 -4c-2 -54 -3 -66 -3 -196c0 -344 0 -382 3 -448zM215 769l-171 105c-14 8 -24 17 -24 34
c0 20 17 31 32 31c17 0 27 -9 41 -24l146 -146h-24z" />
    <glyph glyph-name="Ntilde" unicode="&#xd1;" horiz-adv-x="778" 
d="M653 -12h-15c-74 97 -185 243 -256 331c-173 215 -192 239 -227 286l-2 -2l1 -318c0 -21 2 -171 4 -257l84 -4v-26c-25 1 -49 2 -100 2s-75 -1 -100 -2v26l80 4c1 97 3 195 5 292l1 294c0 19 -25 53 -88 62v26c78 -2 87 -2 155 -2c51 -69 373 -485 434 -556v199
c0 83 0 257 -1 329l-86 4v26c81 -2 36 0 98 -2c26 -1 82 2 98 2v-26l-76 -4c-1 -56 -7 -327 -7 -355zM529 898h21c-6 -22 -27 -102 -105 -102c-27 0 -50 11 -72 23c-22 11 -43 23 -66 23c-39 0 -51 -29 -58 -46h-21c16 68 60 98 99 98c29 0 55 -12 78 -24s44 -24 63 -24
c38 0 53 34 61 52z" />
    <glyph glyph-name="Oacute" unicode="&#xd3;" horiz-adv-x="796" 
d="M43 342c0 194 124 376 361 376c229 0 350 -162 350 -356c0 -195 -130 -380 -357 -380c-232 0 -354 182 -354 360zM135 344c0 -207 129 -340 271 -340c160 0 256 169 256 354c0 220 -129 338 -257 338c-101 0 -270 -79 -270 -352zM350 769h-24l146 146c10 11 23 24 41 24
s31 -14 31 -31s-9 -26 -23 -34z" />
    <glyph glyph-name="Ocircumflex" unicode="&#xd4;" horiz-adv-x="796" 
d="M43 342c0 194 124 376 361 376c229 0 350 -162 350 -356c0 -195 -130 -380 -357 -380c-232 0 -354 182 -354 360zM135 344c0 -207 129 -340 271 -340c160 0 256 169 256 354c0 220 -129 338 -257 338c-101 0 -270 -79 -270 -352zM398 875l-128 -106h-22l124 168h51
l125 -168h-22z" />
    <glyph glyph-name="Odieresis" unicode="&#xd6;" horiz-adv-x="796" 
d="M43 342c0 194 124 376 361 376c229 0 350 -162 350 -356c0 -195 -130 -380 -357 -380c-232 0 -354 182 -354 360zM135 344c0 -207 129 -340 271 -340c160 0 256 169 256 354c0 220 -129 338 -257 338c-101 0 -270 -79 -270 -352zM344 839c0 -27 -21 -50 -46 -50
c-23 0 -39 25 -39 42c0 33 22 49 46 49c20 0 39 -14 39 -41zM537 839c0 -27 -21 -50 -46 -50c-23 0 -39 25 -39 42c0 33 22 49 46 49c20 0 39 -14 39 -41z" />
    <glyph glyph-name="Ograve" unicode="&#xd2;" horiz-adv-x="796" 
d="M43 342c0 194 124 376 361 376c229 0 350 -162 350 -356c0 -195 -130 -380 -357 -380c-232 0 -354 182 -354 360zM135 344c0 -207 129 -340 271 -340c160 0 256 169 256 354c0 220 -129 338 -257 338c-101 0 -270 -79 -270 -352zM446 769l-171 105c-14 8 -24 17 -24 34
c0 20 17 31 32 31c17 0 27 -9 41 -24l146 -146h-24z" />
    <glyph glyph-name="Otilde" unicode="&#xd5;" horiz-adv-x="796" 
d="M43 342c0 194 124 376 361 376c229 0 350 -162 350 -356c0 -195 -130 -380 -357 -380c-232 0 -354 182 -354 360zM135 344c0 -207 129 -340 271 -340c160 0 256 169 256 354c0 220 -129 338 -257 338c-101 0 -270 -79 -270 -352zM538 898h21c-6 -22 -27 -102 -105 -102
c-27 0 -50 11 -72 23c-22 11 -43 23 -66 23c-39 0 -51 -29 -58 -46h-21c16 68 60 98 99 98c29 0 55 -12 78 -24s44 -24 63 -24c38 0 53 34 61 52z" />
    <glyph glyph-name="Scaron" unicode="&#x160;" horiz-adv-x="556" 
d="M75 0v184h20c27 -92 83 -180 189 -180c76 0 138 55 138 138c0 198 -350 172 -350 396c0 91 72 180 196 180c71 0 138 -32 154 -32c12 0 16 8 18 14h28v-170h-18c-30 92 -82 166 -180 166c-86 0 -126 -68 -126 -121c0 -179 352 -169 352 -393c0 -108 -91 -200 -207 -200
c-78 0 -165 36 -172 36s-7 -2 -14 -18h-28zM278 831l128 106h22l-125 -168h-51l-124 168h22z" />
    <glyph glyph-name="Uacute" unicode="&#xda;" horiz-adv-x="759" 
d="M714 676l-63 -4l-7 -386c-3 -150 -59 -304 -257 -304c-199 0 -274 135 -271 316l3 374l-68 4v26c61 -1 93 -2 120 -2c35 0 74 1 116 2v-26l-77 -4l-8 -358c-4 -196 60 -306 201 -306c137 0 202 100 201 288l-3 376l-74 4v26c49 -1 76 -2 94 -2c21 0 51 1 93 2v-26z
M332 769h-24l146 146c10 11 23 24 41 24s31 -14 31 -31s-9 -26 -23 -34z" />
    <glyph glyph-name="Ucircumflex" unicode="&#xdb;" horiz-adv-x="759" 
d="M714 676l-63 -4l-7 -386c-3 -150 -59 -304 -257 -304c-199 0 -274 135 -271 316l3 374l-68 4v26c61 -1 93 -2 120 -2c35 0 74 1 116 2v-26l-77 -4l-8 -358c-4 -196 60 -306 201 -306c137 0 202 100 201 288l-3 376l-74 4v26c49 -1 76 -2 94 -2c21 0 51 1 93 2v-26z
M380 875l-128 -106h-22l124 168h51l125 -168h-22z" />
    <glyph glyph-name="Udieresis" unicode="&#xdc;" horiz-adv-x="759" 
d="M714 676l-63 -4l-7 -386c-3 -150 -59 -304 -257 -304c-199 0 -274 135 -271 316l3 374l-68 4v26c61 -1 93 -2 120 -2c35 0 74 1 116 2v-26l-77 -4l-8 -358c-4 -196 60 -306 201 -306c137 0 202 100 201 288l-3 376l-74 4v26c49 -1 76 -2 94 -2c21 0 51 1 93 2v-26z
M326 839c0 -27 -21 -50 -46 -50c-23 0 -39 25 -39 42c0 33 22 49 46 49c20 0 39 -14 39 -41zM519 839c0 -27 -21 -50 -46 -50c-23 0 -39 25 -39 42c0 33 22 49 46 49c20 0 39 -14 39 -41z" />
    <glyph glyph-name="Ugrave" unicode="&#xd9;" horiz-adv-x="759" 
d="M714 676l-63 -4l-7 -386c-3 -150 -59 -304 -257 -304c-199 0 -274 135 -271 316l3 374l-68 4v26c61 -1 93 -2 120 -2c35 0 74 1 116 2v-26l-77 -4l-8 -358c-4 -196 60 -306 201 -306c137 0 202 100 201 288l-3 376l-74 4v26c49 -1 76 -2 94 -2c21 0 51 1 93 2v-26z
M428 769l-171 105c-14 8 -24 17 -24 34c0 20 17 31 32 31c17 0 27 -9 41 -24l146 -146h-24z" />
    <glyph glyph-name="Yacute" unicode="&#xdd;" horiz-adv-x="574" 
d="M151 24l89 4c2 62 2 238 2 313l-109 170c-24 38 -89 138 -104 152c-11 10 -22 11 -54 13v26c49 -1 90 -2 109 -2c14 0 117 2 143 2v-26c-76 -2 -81 -4 -81 -10c0 -9 81 -136 96 -162l76 -118l75 110c15 21 79 113 93 132c18 27 20 30 20 35c0 8 -9 9 -16 9
c-13 1 -48 2 -74 2v26c53 0 134 0 184 2v-30c-32 -1 -43 -6 -62 -29c-35 -41 -79 -101 -113 -147l-95 -133v-252c0 -32 1 -54 2 -83l88 -4v-26c-39 0 -87 2 -134 2c-48 0 -89 -1 -135 -2v26zM239 769h-24l146 146c10 11 23 24 41 24s31 -14 31 -31s-9 -26 -23 -34z" />
    <glyph glyph-name="Ydieresis" unicode="&#x178;" horiz-adv-x="574" 
d="M151 24l89 4c2 62 2 238 2 313l-109 170c-24 38 -89 138 -104 152c-11 10 -22 11 -54 13v26c49 -1 90 -2 109 -2c14 0 117 2 143 2v-26c-76 -2 -81 -4 -81 -10c0 -9 81 -136 96 -162l76 -118l75 110c15 21 79 113 93 132c18 27 20 30 20 35c0 8 -9 9 -16 9
c-13 1 -48 2 -74 2v26c53 0 134 0 184 2v-30c-32 -1 -43 -6 -62 -29c-35 -41 -79 -101 -113 -147l-95 -133v-252c0 -32 1 -54 2 -83l88 -4v-26c-39 0 -87 2 -134 2c-48 0 -89 -1 -135 -2v26zM239 839c0 -27 -21 -50 -46 -50c-23 0 -39 25 -39 42c0 33 22 49 46 49
c20 0 39 -14 39 -41zM432 839c0 -27 -21 -50 -46 -50c-23 0 -39 25 -39 42c0 33 22 49 46 49c20 0 39 -14 39 -41z" />
    <glyph glyph-name="Zcaron" unicode="&#x17d;" horiz-adv-x="648" 
d="M616 188l-5 -190c-72 1 -260 2 -352 2h-239v15c227 304 259 352 475 665l-271 -2c-128 -1 -146 -19 -154 -149h-35l5 173c78 -2 245 -2 333 -2c37 0 204 3 238 2v-14c-42 -57 -63 -88 -257 -362c-167 -236 -185 -262 -216 -305l153 1c43 0 203 2 243 17
c18 8 39 81 50 149h32zM324 831l128 106h22l-125 -168h-51l-124 168h22z" />
    <glyph glyph-name="aacute" unicode="&#xe1;" horiz-adv-x="444" 
d="M405 36v-26c-23 -7 -76 -22 -94 -22c-19 0 -29 14 -30 33s-1 21 -5 21c-42 -22 -99 -58 -154 -58c-50 0 -90 38 -90 93c0 97 114 133 251 137l1 128c1 56 -12 66 -71 66c-53 0 -84 -11 -86 -20c-4 -31 -8 -54 -11 -71c-2 -9 -26 -27 -38 -27c-16 0 -22 18 -22 40
c0 40 20 54 48 69c34 18 99 39 154 39c71 0 96 -33 96 -94l-1 -308h52zM282 83v95c1 19 -2 20 -11 20s-171 -14 -171 -113c0 -35 16 -59 59 -59c41 0 100 25 106 28c15 6 16 7 17 29zM174 489h-24l146 146c10 11 23 24 41 24s31 -14 31 -31s-9 -26 -23 -34z" />
    <glyph glyph-name="acircumflex" unicode="&#xe2;" horiz-adv-x="444" 
d="M405 36v-26c-23 -7 -76 -22 -94 -22c-19 0 -29 14 -30 33s-1 21 -5 21c-42 -22 -99 -58 -154 -58c-50 0 -90 38 -90 93c0 97 114 133 251 137l1 128c1 56 -12 66 -71 66c-53 0 -84 -11 -86 -20c-4 -31 -8 -54 -11 -71c-2 -9 -26 -27 -38 -27c-16 0 -22 18 -22 40
c0 40 20 54 48 69c34 18 99 39 154 39c71 0 96 -33 96 -94l-1 -308h52zM282 83v95c1 19 -2 20 -11 20s-171 -14 -171 -113c0 -35 16 -59 59 -59c41 0 100 25 106 28c15 6 16 7 17 29zM222 595l-128 -106h-22l124 168h51l125 -168h-22z" />
    <glyph glyph-name="adieresis" unicode="&#xe4;" horiz-adv-x="444" 
d="M405 36v-26c-23 -7 -76 -22 -94 -22c-19 0 -29 14 -30 33s-1 21 -5 21c-42 -22 -99 -58 -154 -58c-50 0 -90 38 -90 93c0 97 114 133 251 137l1 128c1 56 -12 66 -71 66c-53 0 -84 -11 -86 -20c-4 -31 -8 -54 -11 -71c-2 -9 -26 -27 -38 -27c-16 0 -22 18 -22 40
c0 40 20 54 48 69c34 18 99 39 154 39c71 0 96 -33 96 -94l-1 -308h52zM282 83v95c1 19 -2 20 -11 20s-171 -14 -171 -113c0 -35 16 -59 59 -59c41 0 100 25 106 28c15 6 16 7 17 29zM168 559c0 -27 -21 -50 -46 -50c-23 0 -39 25 -39 42c0 33 22 49 46 49
c20 0 39 -14 39 -41zM361 559c0 -27 -21 -50 -46 -50c-23 0 -39 25 -39 42c0 33 22 49 46 49c20 0 39 -14 39 -41z" />
    <glyph glyph-name="agrave" unicode="&#xe0;" horiz-adv-x="444" 
d="M405 36v-26c-23 -7 -76 -22 -94 -22c-19 0 -29 14 -30 33s-1 21 -5 21c-42 -22 -99 -58 -154 -58c-50 0 -90 38 -90 93c0 97 114 133 251 137l1 128c1 56 -12 66 -71 66c-53 0 -84 -11 -86 -20c-4 -31 -8 -54 -11 -71c-2 -9 -26 -27 -38 -27c-16 0 -22 18 -22 40
c0 40 20 54 48 69c34 18 99 39 154 39c71 0 96 -33 96 -94l-1 -308h52zM282 83v95c1 19 -2 20 -11 20s-171 -14 -171 -113c0 -35 16 -59 59 -59c41 0 100 25 106 28c15 6 16 7 17 29zM270 489l-171 105c-14 8 -24 17 -24 34c0 20 17 31 32 31c17 0 27 -9 41 -24l146 -146
h-24z" />
    <glyph glyph-name="aring" unicode="&#xe5;" horiz-adv-x="444" 
d="M405 36v-26c-23 -7 -76 -22 -94 -22c-19 0 -29 14 -30 33s-1 21 -5 21c-42 -22 -99 -58 -154 -58c-50 0 -90 38 -90 93c0 97 114 133 251 137l1 128c1 56 -12 66 -71 66c-53 0 -84 -11 -86 -20c-4 -31 -8 -54 -11 -71c-2 -9 -26 -27 -38 -27c-16 0 -22 18 -22 40
c0 40 20 54 48 69c34 18 99 39 154 39c71 0 96 -33 96 -94l-1 -308h52zM282 83v95c1 19 -2 20 -11 20s-171 -14 -171 -113c0 -35 16 -59 59 -59c41 0 100 25 106 28c15 6 16 7 17 29zM319 579c0 -53 -43 -97 -97 -97s-97 44 -97 97c0 54 43 97 97 97s97 -43 97 -97zM289 579
c0 37 -30 67 -67 67s-67 -30 -67 -67s30 -67 67 -67s67 30 67 67z" />
    <glyph glyph-name="atilde" unicode="&#xe3;" horiz-adv-x="444" 
d="M405 36v-26c-23 -7 -76 -22 -94 -22c-19 0 -29 14 -30 33s-1 21 -5 21c-42 -22 -99 -58 -154 -58c-50 0 -90 38 -90 93c0 97 114 133 251 137l1 128c1 56 -12 66 -71 66c-53 0 -84 -11 -86 -20c-4 -31 -8 -54 -11 -71c-2 -9 -26 -27 -38 -27c-16 0 -22 18 -22 40
c0 40 20 54 48 69c34 18 99 39 154 39c71 0 96 -33 96 -94l-1 -308h52zM282 83v95c1 19 -2 20 -11 20s-171 -14 -171 -113c0 -35 16 -59 59 -59c41 0 100 25 106 28c15 6 16 7 17 29zM362 618h21c-6 -22 -27 -102 -105 -102c-27 0 -50 11 -72 23c-22 11 -43 23 -66 23
c-39 0 -51 -29 -58 -46h-21c16 68 60 98 99 98c29 0 55 -12 78 -24s44 -24 63 -24c38 0 53 34 61 52z" />
    <glyph glyph-name="ccedilla" unicode="&#xe7;" horiz-adv-x="463" 
d="M396 105l14 -9c-30 -67 -88 -108 -162 -111l-24 -55c9 4 22 8 42 8c48 0 81 -28 81 -71c0 -51 -45 -83 -117 -83c-29 0 -55 5 -83 17l7 21c15 -5 36 -12 63 -12c56 0 64 35 64 49c0 28 -23 45 -50 45c-14 0 -23 -5 -32 -9l-11 6l37 84c-109 6 -183 101 -183 217
c0 88 51 236 201 236c110 0 170 -75 170 -131c0 -14 -4 -17 -26 -17c-32 0 -40 7 -48 41c-13 57 -18 85 -72 85c-73 0 -153 -67 -153 -194c0 -129 84 -194 158 -194c70 0 105 50 124 77z" />
    <glyph glyph-name="eacute" unicode="&#xe9;" horiz-adv-x="463" 
d="M404 106l15 -9c-18 -33 -61 -113 -169 -113c-114 0 -206 89 -206 220c0 116 76 234 210 234c132 0 164 -114 164 -152c0 -15 -2 -21 -20 -21h-268c-13 0 -18 -3 -18 -40c0 -91 58 -193 167 -193c73 0 105 45 125 74zM135 287h193c18 0 22 3 22 12c0 22 -11 117 -92 117
c-87 0 -134 -100 -134 -124c0 -3 4 -5 11 -5zM184 489h-24l146 146c10 11 23 24 41 24s31 -14 31 -31s-9 -26 -23 -34z" />
    <glyph glyph-name="ecircumflex" unicode="&#xea;" horiz-adv-x="463" 
d="M404 106l15 -9c-18 -33 -61 -113 -169 -113c-114 0 -206 89 -206 220c0 116 76 234 210 234c132 0 164 -114 164 -152c0 -15 -2 -21 -20 -21h-268c-13 0 -18 -3 -18 -40c0 -91 58 -193 167 -193c73 0 105 45 125 74zM135 287h193c18 0 22 3 22 12c0 22 -11 117 -92 117
c-87 0 -134 -100 -134 -124c0 -3 4 -5 11 -5zM232 595l-128 -106h-22l124 168h51l125 -168h-22z" />
    <glyph glyph-name="edieresis" unicode="&#xeb;" horiz-adv-x="463" 
d="M404 106l15 -9c-18 -33 -61 -113 -169 -113c-114 0 -206 89 -206 220c0 116 76 234 210 234c132 0 164 -114 164 -152c0 -15 -2 -21 -20 -21h-268c-13 0 -18 -3 -18 -40c0 -91 58 -193 167 -193c73 0 105 45 125 74zM135 287h193c18 0 22 3 22 12c0 22 -11 117 -92 117
c-87 0 -134 -100 -134 -124c0 -3 4 -5 11 -5zM178 559c0 -27 -21 -50 -46 -50c-23 0 -39 25 -39 42c0 33 22 49 46 49c20 0 39 -14 39 -41zM371 559c0 -27 -21 -50 -46 -50c-23 0 -39 25 -39 42c0 33 22 49 46 49c20 0 39 -14 39 -41z" />
    <glyph glyph-name="egrave" unicode="&#xe8;" horiz-adv-x="463" 
d="M404 106l15 -9c-18 -33 -61 -113 -169 -113c-114 0 -206 89 -206 220c0 116 76 234 210 234c132 0 164 -114 164 -152c0 -15 -2 -21 -20 -21h-268c-13 0 -18 -3 -18 -40c0 -91 58 -193 167 -193c73 0 105 45 125 74zM135 287h193c18 0 22 3 22 12c0 22 -11 117 -92 117
c-87 0 -134 -100 -134 -124c0 -3 4 -5 11 -5zM280 489l-171 105c-14 8 -24 17 -24 34c0 20 17 31 32 31c17 0 27 -9 41 -24l146 -146h-24z" />
    <glyph glyph-name="iacute" unicode="&#xed;" horiz-adv-x="278" 
d="M52 0v24l56 1v330c0 26 -3 28 -51 31v30l123 16v-407l53 -1v-24h-181zM91 489h-24l146 146c10 11 23 24 41 24s31 -14 31 -31s-9 -26 -23 -34z" />
    <glyph glyph-name="icircumflex" unicode="&#xee;" horiz-adv-x="278" 
d="M52 0v24l56 1v330c0 26 -3 28 -51 31v30l123 16v-407l53 -1v-24h-181zM139 595l-128 -106h-22l124 168h51l125 -168h-22z" />
    <glyph glyph-name="idieresis" unicode="&#xef;" horiz-adv-x="278" 
d="M52 0v24l56 1v330c0 26 -3 28 -51 31v30l123 16v-407l53 -1v-24h-181zM85 559c0 -27 -21 -50 -46 -50c-23 0 -39 25 -39 42c0 33 22 49 46 49c20 0 39 -14 39 -41zM278 559c0 -27 -21 -50 -46 -50c-23 0 -39 25 -39 42c0 33 22 49 46 49c20 0 39 -14 39 -41z" />
    <glyph glyph-name="igrave" unicode="&#xec;" horiz-adv-x="278" 
d="M52 0v24l56 1v330c0 26 -3 28 -51 31v30l123 16v-407l53 -1v-24h-181zM187 489l-171 105c-14 8 -24 17 -24 34c0 20 17 31 32 31c17 0 27 -9 41 -24l146 -146h-24z" />
    <glyph glyph-name="ntilde" unicode="&#xf1;" horiz-adv-x="556" 
d="M47 0v24l53 1v349l-56 2v40l121 14c0 -29 2 -37 12 -37c11 0 77 41 160 41c78 0 127 -40 127 -121v-288l53 -1v-24h-176v24l51 1v283c0 67 -15 96 -95 96c-34 0 -88 -9 -115 -26c-6 -4 -10 -13 -10 -39v-314l52 -1v-24h-177zM418 618h21c-6 -22 -27 -102 -105 -102
c-27 0 -50 11 -72 23c-22 11 -43 23 -66 23c-39 0 -51 -29 -58 -46h-21c16 68 60 98 99 98c29 0 55 -12 78 -24s44 -24 63 -24c38 0 53 34 61 52z" />
    <glyph glyph-name="oacute" unicode="&#xf3;" 
d="M40 206c0 178 121 232 219 232c159 0 201 -127 201 -216c0 -123 -75 -238 -209 -238c-104 0 -211 73 -211 222zM116 210c0 -106 50 -204 134 -204c92 0 134 100 134 206c0 114 -45 204 -126 204c-53 0 -142 -47 -142 -206zM202 489h-24l146 146c10 11 23 24 41 24
s31 -14 31 -31s-9 -26 -23 -34z" />
    <glyph glyph-name="ocircumflex" unicode="&#xf4;" 
d="M40 206c0 178 121 232 219 232c159 0 201 -127 201 -216c0 -123 -75 -238 -209 -238c-104 0 -211 73 -211 222zM116 210c0 -106 50 -204 134 -204c92 0 134 100 134 206c0 114 -45 204 -126 204c-53 0 -142 -47 -142 -206zM250 595l-128 -106h-22l124 168h51l125 -168
h-22z" />
    <glyph glyph-name="odieresis" unicode="&#xf6;" 
d="M40 206c0 178 121 232 219 232c159 0 201 -127 201 -216c0 -123 -75 -238 -209 -238c-104 0 -211 73 -211 222zM116 210c0 -106 50 -204 134 -204c92 0 134 100 134 206c0 114 -45 204 -126 204c-53 0 -142 -47 -142 -206zM196 559c0 -27 -21 -50 -46 -50
c-23 0 -39 25 -39 42c0 33 22 49 46 49c20 0 39 -14 39 -41zM389 559c0 -27 -21 -50 -46 -50c-23 0 -39 25 -39 42c0 33 22 49 46 49c20 0 39 -14 39 -41z" />
    <glyph glyph-name="ograve" unicode="&#xf2;" 
d="M40 206c0 178 121 232 219 232c159 0 201 -127 201 -216c0 -123 -75 -238 -209 -238c-104 0 -211 73 -211 222zM116 210c0 -106 50 -204 134 -204c92 0 134 100 134 206c0 114 -45 204 -126 204c-53 0 -142 -47 -142 -206zM298 489l-171 105c-14 8 -24 17 -24 34
c0 20 17 31 32 31c17 0 27 -9 41 -24l146 -146h-24z" />
    <glyph glyph-name="otilde" unicode="&#xf5;" 
d="M40 206c0 178 121 232 219 232c159 0 201 -127 201 -216c0 -123 -75 -238 -209 -238c-104 0 -211 73 -211 222zM116 210c0 -106 50 -204 134 -204c92 0 134 100 134 206c0 114 -45 204 -126 204c-53 0 -142 -47 -142 -206zM390 618h21c-6 -22 -27 -102 -105 -102
c-27 0 -50 11 -72 23c-22 11 -43 23 -66 23c-39 0 -51 -29 -58 -46h-21c16 68 60 98 99 98c29 0 55 -12 78 -24s44 -24 63 -24c38 0 53 34 61 52z" />
    <glyph glyph-name="scaron" unicode="&#x161;" horiz-adv-x="333" 
d="M38 16l-6 102h24c9 -43 34 -112 100 -112c52 0 76 41 76 80c0 117 -188 114 -188 239c0 63 55 113 123 113c53 0 78 -23 113 -35l2 -83h-21c-14 49 -29 96 -85 96c-44 0 -78 -32 -78 -67c0 -98 196 -102 196 -235c0 -81 -69 -130 -134 -130c-30 0 -67 9 -122 32zM167 551
l128 106h22l-125 -168h-51l-124 168h22z" />
    <glyph glyph-name="uacute" unicode="&#xfa;" horiz-adv-x="556" 
d="M43 386v34l123 12v-312c0 -78 24 -106 111 -106c47 0 89 12 100 19c7 4 11 10 11 39v285c0 25 -5 28 -64 29v34l136 12v-396h50v-30c-23 -5 -67 -16 -87 -16c-33 0 -25 30 -40 30c-9 0 -78 -32 -158 -32c-95 0 -131 40 -131 160v233zM230 489h-24l146 146
c10 11 23 24 41 24s31 -14 31 -31s-9 -26 -23 -34z" />
    <glyph glyph-name="ucircumflex" unicode="&#xfb;" horiz-adv-x="556" 
d="M43 386v34l123 12v-312c0 -78 24 -106 111 -106c47 0 89 12 100 19c7 4 11 10 11 39v285c0 25 -5 28 -64 29v34l136 12v-396h50v-30c-23 -5 -67 -16 -87 -16c-33 0 -25 30 -40 30c-9 0 -78 -32 -158 -32c-95 0 -131 40 -131 160v233zM278 595l-128 -106h-22l124 168h51
l125 -168h-22z" />
    <glyph glyph-name="udieresis" unicode="&#xfc;" horiz-adv-x="556" 
d="M43 386v34l123 12v-312c0 -78 24 -106 111 -106c47 0 89 12 100 19c7 4 11 10 11 39v285c0 25 -5 28 -64 29v34l136 12v-396h50v-30c-23 -5 -67 -16 -87 -16c-33 0 -25 30 -40 30c-9 0 -78 -32 -158 -32c-95 0 -131 40 -131 160v233zM224 559c0 -27 -21 -50 -46 -50
c-23 0 -39 25 -39 42c0 33 22 49 46 49c20 0 39 -14 39 -41zM417 559c0 -27 -21 -50 -46 -50c-23 0 -39 25 -39 42c0 33 22 49 46 49c20 0 39 -14 39 -41z" />
    <glyph glyph-name="ugrave" unicode="&#xf9;" horiz-adv-x="556" 
d="M43 386v34l123 12v-312c0 -78 24 -106 111 -106c47 0 89 12 100 19c7 4 11 10 11 39v285c0 25 -5 28 -64 29v34l136 12v-396h50v-30c-23 -5 -67 -16 -87 -16c-33 0 -25 30 -40 30c-9 0 -78 -32 -158 -32c-95 0 -131 40 -131 160v233zM326 489l-171 105
c-14 8 -24 17 -24 34c0 20 17 31 32 31c17 0 27 -9 41 -24l146 -146h-24z" />
    <glyph glyph-name="yacute" unicode="&#xfd;" horiz-adv-x="426" 
d="M421 422v-32c-29 -2 -34 -7 -48 -41l-174 -413c-29 -65 -67 -153 -77 -169c-11 -18 -26 -28 -37 -27c-15 1 -64 5 -64 25c0 4 6 44 16 44c4 0 44 -7 52 -7c22 0 34 13 54 59l57 128l-135 338c-25 63 -26 63 -53 67v28h168v-28c-17 -2 -57 1 -57 -16c0 -5 2 -12 7 -25
l106 -281l104 253c12 29 19 47 19 54c0 4 -4 8 -38 11v32h100zM165 489h-24l146 146c10 11 23 24 41 24s31 -14 31 -31s-9 -26 -23 -34z" />
    <glyph glyph-name="ydieresis" unicode="&#xff;" horiz-adv-x="426" 
d="M421 422v-32c-29 -2 -34 -7 -48 -41l-174 -413c-29 -65 -67 -153 -77 -169c-11 -18 -26 -28 -37 -27c-15 1 -64 5 -64 25c0 4 6 44 16 44c4 0 44 -7 52 -7c22 0 34 13 54 59l57 128l-135 338c-25 63 -26 63 -53 67v28h168v-28c-17 -2 -57 1 -57 -16c0 -5 2 -12 7 -25
l106 -281l104 253c12 29 19 47 19 54c0 4 -4 8 -38 11v32h100zM159 559c0 -27 -21 -50 -46 -50c-23 0 -39 25 -39 42c0 33 22 49 46 49c20 0 39 -14 39 -41zM352 559c0 -27 -21 -50 -46 -50c-23 0 -39 25 -39 42c0 33 22 49 46 49c20 0 39 -14 39 -41z" />
    <glyph glyph-name="zcaron" unicode="&#x17e;" horiz-adv-x="444" 
d="M391 0h-368v7l280 394l-166 -2c-32 -1 -36 -3 -41 -29l-9 -49h-30l1 101h339v-8l-280 -394l222 2c13 0 15 3 16 16l7 66c1 8 5 12 22 12c16 0 17 -2 16 -13zM222 551l128 106h22l-125 -168h-51l-124 168h22z" />
    <glyph glyph-name="exclam.sc" unicode="&#xf721;" horiz-adv-x="278" 
d="M126 144l-30 486l82 16l-29 -502h-23zM187 36c0 -26 -21 -48 -48 -48s-48 22 -48 48c0 27 21 48 48 48s48 -21 48 -48z" />
    <glyph glyph-name="hungarumlaut.sc" unicode="&#xf6f8;" horiz-adv-x="296" 
d="M6 541l137 153c20 22 29 25 41 25c19 0 31 -15 31 -31s-7 -23 -23 -34l-161 -113h-25zM181 549h-25l147 146c11 12 23 24 41 24c17 0 31 -13 31 -31c0 -16 -9 -26 -23 -34z" />
    <glyph glyph-name="dollar.oldstyle" unicode="&#xf724;" 
d="M258 -138h-23v138c-65 4 -124 16 -189 78l27 32c65 -74 110 -86 162 -88v307c-67 27 -179 72 -179 204c0 69 41 165 179 173v77h23v-77c91 -7 131 -35 167 -68l-31 -28c-32 42 -74 70 -136 74v-291c101 -36 194 -84 194 -202c0 -93 -63 -184 -194 -191v-138zM258 320
v-298c86 20 134 60 134 147c0 102 -90 136 -134 151zM235 401v283c-73 -9 -123 -54 -123 -133c0 -101 88 -136 123 -150z" />
    <glyph glyph-name="ampersand.sc" unicode="&#xf726;" horiz-adv-x="778" 
d="M668 37l18 -16c-19 -15 -50 -39 -105 -39c-81 0 -113 62 -124 84c-54 -45 -117 -84 -200 -84c-124 0 -204 96 -204 208c0 159 131 215 188 240c-25 46 -45 90 -45 137c0 89 69 141 147 141c81 0 120 -56 120 -109c0 -89 -99 -131 -147 -150c11 -18 64 -94 74 -110
c58 -88 78 -133 108 -197c81 91 136 212 136 239c0 15 -9 20 -72 25v26h194v-26c-72 -6 -75 -9 -86 -32c-70 -144 -124 -215 -160 -254c38 -68 65 -98 110 -98c23 0 38 9 48 15zM129 236c0 -82 57 -208 176 -208c68 0 120 46 138 62c-26 53 -78 143 -90 163
c-14 23 -88 134 -103 160c-72 -38 -121 -102 -121 -177zM262 593c0 -44 18 -81 44 -128c74 39 109 99 109 147c0 50 -36 74 -72 74c-30 0 -81 -20 -81 -93z" />
    <glyph glyph-name="acute.sc" unicode="&#xf7b4;" horiz-adv-x="296" 
d="M101 550h-24l146 146c10 11 23 24 41 24s31 -14 31 -31s-9 -26 -23 -34z" />
    <glyph glyph-name="zero.oldstyle" unicode="&#xf730;" 
d="M28 213c0 121 96 225 222 225c124 0 222 -102 222 -225s-98 -225 -222 -225c-126 0 -222 104 -222 225zM74 213c0 -83 62 -187 176 -187c110 0 176 99 176 187s-66 187 -176 187c-114 0 -176 -103 -176 -187z" />
    <glyph glyph-name="one.oldstyle" unicode="&#xf731;" horiz-adv-x="333" 
d="M296 23v-26c-95 3 -106 3 -124 3c-13 0 -100 -2 -121 -3v26l85 7c0 118 5 237 2 355l-82 1v36l156 16v-408z" />
    <glyph glyph-name="two.oldstyle" unicode="&#xf732;" horiz-adv-x="407" 
d="M14 -2v14c55 46 262 195 262 291c0 35 -38 67 -91 67c-41 0 -81 -12 -103 -19c-5 -1 -26 -11 -31 -11c-3 0 -4 3 -3 7l16 72c32 9 84 19 124 19c103 0 144 -54 144 -105c0 -82 -87 -156 -214 -265h226l7 56h26l-8 -124h-230c-53 0 -91 -1 -125 -2z" />
    <glyph glyph-name="three.oldstyle" unicode="&#xf733;" horiz-adv-x="444" 
d="M69 336l8 80c26 10 63 22 118 22c108 0 163 -55 163 -122c0 -62 -44 -117 -142 -184c59 -18 176 -54 176 -167c0 -49 -27 -133 -170 -195c-65 -28 -133 -46 -137 -46c-6 0 -7 10 -7 14s1 5 17 9c88 28 229 87 229 201c0 102 -148 125 -191 129c-24 3 -27 3 -27 12
c0 6 3 7 27 19c47 24 169 90 169 178c0 55 -44 82 -97 82c-59 0 -110 -21 -136 -32z" />
    <glyph glyph-name="four.oldstyle" unicode="&#xf734;" horiz-adv-x="463" 
d="M461 0h-115l-2 -260h-71l3 260h-282v18l337 423h16l-1 -387l115 1v-55zM49 50l227 3l3 286l-2 2z" />
    <glyph glyph-name="five.oldstyle" unicode="&#xf735;" horiz-adv-x="444" 
d="M380 359l-255 -3l-2 -161c109 -15 259 -43 259 -182c0 -195 -288 -285 -303 -285c-6 0 -8 4 -8 10c0 4 8 8 22 14c173 76 223 176 223 240c0 80 -67 115 -217 132l-1 302h199c19 0 38 1 58 3l3 38h26z" />
    <glyph glyph-name="six.oldstyle" unicode="&#xf736;" 
d="M436 722l2 -14c-170 -39 -275 -146 -312 -319c22 12 77 44 145 44c83 0 192 -53 192 -217c0 -162 -112 -228 -203 -228c-93 0 -218 63 -218 286c0 174 102 440 394 448zM391 215c0 87 -30 188 -147 188c-68 0 -108 -31 -122 -42c-4 -22 -8 -40 -8 -83
c0 -150 48 -270 148 -270c99 0 129 119 129 207z" />
    <glyph glyph-name="seven.oldstyle" unicode="&#xf737;" horiz-adv-x="481" 
d="M400 360l-322 -4l-7 -66h-24l3 136h402c0 -5 -2 -11 -24 -65c-87 -206 -162 -416 -241 -625h-45c5 11 257 621 258 624z" />
    <glyph glyph-name="eight.oldstyle" unicode="&#xf738;" horiz-adv-x="481" 
d="M435 183c0 -108 -83 -195 -195 -195c-116 0 -191 88 -191 192c0 103 61 144 136 185c-45 28 -124 77 -124 184c0 95 72 169 176 169c120 0 164 -96 164 -159c0 -97 -84 -143 -123 -164c59 -33 157 -89 157 -212zM369 164c0 105 -78 149 -161 188
c-49 -28 -117 -66 -117 -170c0 -102 63 -172 140 -172c68 0 138 62 138 154zM363 558c0 76 -48 138 -120 138c-63 0 -120 -47 -120 -127c0 -99 78 -137 131 -163c52 29 109 68 109 152z" />
    <glyph glyph-name="nine.oldstyle" unicode="&#xf739;" 
d="M34 219c0 125 98 219 213 219c118 0 215 -92 215 -255c0 -52 -12 -231 -161 -370c-54 -50 -120 -89 -126 -89c-4 0 -8 3 -8 7c0 3 15 18 19 21c135 127 166 235 182 288c-23 -10 -71 -31 -129 -31c-115 0 -205 90 -205 210zM106 230c0 -157 107 -191 167 -191
c31 0 75 13 103 31c7 29 14 59 14 115c0 158 -71 231 -150 231c-75 0 -134 -67 -134 -186z" />
    <glyph glyph-name="question.sc" unicode="&#xf73f;" horiz-adv-x="389" 
d="M128 148l-7 160c96 70 163 118 163 187c0 55 -50 79 -103 79c-58 0 -103 -20 -128 -32l9 79c30 15 88 25 121 25c95 0 161 -52 161 -129c0 -82 -74 -147 -191 -220l-4 -149h-21zM187 36c0 -26 -21 -48 -48 -48s-48 22 -48 48c0 27 21 48 48 48s48 -21 48 -48z" />
    <glyph glyph-name="circumflex.sc" unicode="&#xf6f6;" horiz-adv-x="296" 
d="M149 656l-128 -106h-22l124 168h51l125 -168h-22z" />
    <glyph glyph-name="grave.sc" unicode="&#xf760;" horiz-adv-x="296" 
d="M197 550l-171 105c-14 8 -24 17 -24 34c0 20 17 31 32 31c17 0 27 -9 41 -24l146 -146h-24z" />
    <glyph glyph-name="a.sc" unicode="&#xf761;" horiz-adv-x="463" 
d="M462 23v-25c-21 1 -44 2 -84 2c-48 0 -74 -1 -104 -2v25l43 3c22 2 28 2 28 12c0 7 -12 37 -16 47l-29 74c-5 12 -6 13 -21 13h-147c-6 0 -10 -4 -13 -12l-34 -95c-9 -25 -10 -28 -10 -31c0 -7 3 -7 27 -9l30 -2v-25c-56 2 -62 2 -76 2c-24 0 -42 -1 -58 -2v25
c39 4 43 10 56 40c29 69 55 140 81 210l84 227h17l120 -293c10 -25 65 -160 72 -169s16 -11 34 -15zM147 196h126c8 0 10 2 10 4c0 1 -2 4 -4 10l-67 169c-2 5 -4 9 -6 9s-3 -3 -5 -7l-64 -173c-1 -4 -2 -6 -2 -8s4 -4 12 -4z" />
    <glyph glyph-name="b.sc" unicode="&#xf762;" 
d="M42 -2v25l62 3c1 36 2 47 2 138c0 221 0 245 -2 292l-58 2v24c72 0 145 6 217 6c79 0 147 -32 147 -119c0 -69 -47 -95 -68 -106c73 -17 102 -65 102 -131c0 -76 -76 -134 -199 -134c-18 0 -97 2 -114 2c-24 0 -58 -1 -89 -2zM178 238v-132c0 -83 14 -88 50 -88
c102 0 144 53 144 113c0 73 -50 107 -194 107zM178 260h58c76 0 108 45 108 100c0 76 -58 106 -133 106c-25 0 -32 -8 -32 -28z" />
    <glyph glyph-name="c.sc" unicode="&#xf763;" horiz-adv-x="537" 
d="M467 159h19l-8 -121c-57 -34 -122 -56 -189 -56c-125 0 -249 94 -249 258c0 167 124 260 247 260c85 0 135 -43 148 -43c9 0 15 8 19 13l25 -1v-137h-22c-18 99 -98 144 -163 144c-95 0 -176 -84 -176 -232c0 -163 101 -232 184 -232c90 0 140 62 165 147z" />
    <glyph glyph-name="d.sc" unicode="&#xf764;" horiz-adv-x="574" 
d="M42 23l62 3c1 36 2 47 2 138c0 221 0 245 -2 292l-62 2v24c76 0 151 6 227 6c176 0 265 -103 265 -241c0 -146 -96 -249 -267 -249c-20 0 -109 2 -127 2c-43 0 -69 -1 -98 -2v25zM462 237c0 143 -91 229 -228 229c-10 0 -36 -1 -44 -3s-10 -6 -10 -13
c-2 -19 -2 -184 -2 -309c0 -17 0 -104 4 -110c7 -10 61 -11 75 -11c151 0 205 112 205 217z" />
    <glyph glyph-name="e.sc" unicode="&#xf765;" horiz-adv-x="519" 
d="M462 133l-8 -133h-227c-124 -1 -147 -1 -185 -2v25l62 3c1 36 2 47 2 138c0 221 0 245 -2 292l-65 3v25c36 -1 69 -2 133 -2c24 0 152 0 265 2v-113h-30c-6 85 -16 91 -72 91h-157v-198c21 0 104 0 117 7c11 7 16 30 17 80h30c-2 -26 -4 -58 -4 -108c0 -33 1 -53 2 -85
h-30c-2 72 -5 79 -19 82c-15 2 -93 2 -113 2v-173c0 -39 6 -47 46 -47h178l33 111h27z" />
    <glyph glyph-name="f.sc" unicode="&#xf766;" horiz-adv-x="481" 
d="M106 456l-62 3v25c25 -1 51 -2 166 -2c26 0 169 1 232 2l3 -122h-31c-10 92 -11 100 -80 100h-154v-202c114 0 124 1 127 36l5 50h29c-1 -19 -3 -52 -3 -112c0 -42 1 -61 2 -82h-30c0 4 1 75 -14 81c-10 5 -97 5 -116 5c0 -152 0 -169 1 -212l69 -3v-25
c-29 1 -58 2 -107 2c-50 0 -68 -1 -98 -2v25l63 3v183c0 82 2 165 -2 247z" />
    <glyph glyph-name="g.sc" unicode="&#xf767;" horiz-adv-x="574" 
d="M547 174v-26c-38 -3 -42 -3 -45 -4c-4 -2 -7 -4 -7 -31v-72c-59 -36 -127 -59 -196 -59c-150 0 -259 110 -259 257c0 150 108 261 243 261c82 0 137 -44 149 -44c11 0 16 9 19 13h25l1 -138h-22c-24 118 -119 145 -163 145c-88 0 -174 -78 -174 -228
c0 -118 59 -238 203 -238c35 0 69 8 99 25c1 21 1 39 1 57s0 35 -1 53l-71 2v27c41 -2 72 -2 101 -2c30 0 59 0 97 2z" />
    <glyph glyph-name="h.sc" unicode="&#xf768;" horiz-adv-x="593" 
d="M413 456l-65 3v25c23 -1 49 -2 100 -2s72 1 101 2v-25l-61 -3c-1 -36 -1 -47 -1 -138c0 -221 0 -245 1 -292l61 -3v-25c-23 1 -50 2 -101 2s-71 -1 -100 -2v25l65 3c2 45 2 158 2 210h-237c0 -149 0 -165 1 -210l65 -3v-25c-23 1 -49 2 -100 2s-71 -1 -100 -2v25l60 3
c1 36 2 47 2 138c0 221 0 245 -2 292l-60 3v25c23 -1 49 -2 100 -2s71 1 100 2v-25l-65 -3c-1 -45 -1 -147 -1 -196h237c0 136 0 151 -2 196z" />
    <glyph glyph-name="i.sc" unicode="&#xf769;" horiz-adv-x="296" 
d="M186 26l63 -3v-25c-22 1 -49 2 -101 2s-72 -1 -100 -2v25l62 3c2 36 2 47 2 138c0 221 0 245 -2 292l-62 3v25c21 -1 48 -2 100 -2s72 1 101 2v-25l-63 -3c-1 -36 -2 -47 -2 -138c0 -221 0 -245 2 -292z" />
    <glyph glyph-name="j.sc" unicode="&#xf76a;" horiz-adv-x="278" 
d="M25 -218v19c83 45 80 103 80 298c0 56 -3 306 -3 357l-64 3v25c28 0 67 -1 86 -2h15c22 0 76 2 101 2v-25l-63 -3c-1 -78 3 -453 -2 -493c-10 -89 -53 -162 -150 -181z" />
    <glyph glyph-name="k.sc" unicode="&#xf76b;" 
d="M194 234l-16 -14c0 -65 0 -151 2 -194l69 -3v-25c-23 1 -49 2 -105 2c-55 0 -85 -1 -102 -2v25l62 3c1 36 2 47 2 138c0 221 0 245 -2 292l-62 3v25c24 -1 49 -2 102 -2c50 0 71 1 99 2v-25l-63 -3c-2 -43 -2 -159 -2 -210l200 185c10 10 14 14 14 18c0 6 -3 6 -31 7
l-29 2v24c92 0 104 0 160 2v-27c-37 -3 -52 -4 -201 -137l-44 -39l101 -116c9 -9 71 -79 102 -109c26 -24 40 -28 54 -32v-24h-108l-114 131z" />
    <glyph glyph-name="l.sc" unicode="&#xf76c;" horiz-adv-x="481" 
d="M451 137l-14 -139c-60 2 -85 2 -289 2c-66 0 -95 -1 -113 -2v25l69 3c1 36 2 44 2 128c0 232 0 258 -2 302l-65 3v25c22 -1 49 -2 105 -2c57 0 87 2 105 2v-25l-69 -3c-2 -36 -2 -45 -2 -136v-248c0 -42 6 -48 80 -48c66 0 99 0 126 1l39 112h28z" />
    <glyph glyph-name="m.sc" unicode="&#xf76d;" horiz-adv-x="685" 
d="M39 -2v25l60 3c3 78 3 246 3 330c0 49 -1 61 -2 100l-61 3v25c13 0 80 -2 85 -2c7 0 23 0 61 2l164 -389l153 387c59 0 112 1 140 2v-25l-59 -3v-430l62 -3v-25c-30 1 -61 2 -91 2c-15 0 -89 -2 -106 -2v25l61 3c1 62 1 135 2 208c0 73 0 145 -2 204h-2l-177 -450h-12
l-190 442l-2 -2l1 -402l63 -3v-25c-11 0 -63 2 -75 2c-11 0 -64 -2 -76 -2z" />
    <glyph glyph-name="n.sc" unicode="&#xf76e;" horiz-adv-x="574" 
d="M481 -8h-14c-42 53 -116 145 -180 221c-124 147 -137 163 -163 193v-156c0 -35 4 -192 4 -224l62 -3v-25c-21 1 -47 2 -78 2c-33 0 -58 -1 -76 -2v25l60 3c2 33 3 178 4 208v170c-1 23 -1 25 -6 31c-18 19 -43 21 -58 23v26c40 -2 61 -2 125 -2c75 -90 193 -235 268 -325
c10 -11 24 -29 26 -34h2v131c-1 51 -3 136 -4 202l-64 3v25c18 -1 43 -2 76 -2c31 0 52 1 79 2v-25l-61 -3c-1 -34 -2 -185 -2 -216v-248z" />
    <glyph glyph-name="o.sc" unicode="&#xf76f;" horiz-adv-x="574" 
d="M40 237c0 134 86 263 252 263c161 0 244 -115 244 -249s-89 -267 -249 -267c-164 0 -247 131 -247 253zM118 238c0 -140 83 -232 175 -232c104 0 165 118 165 241c0 147 -81 231 -166 231c-68 0 -174 -56 -174 -240z" />
    <glyph glyph-name="p.sc" unicode="&#xf770;" horiz-adv-x="463" 
d="M179 26l69 -3v-25c-21 1 -49 2 -104 2c-58 0 -80 -1 -105 -2v25l65 3c1 36 2 47 2 138c0 221 0 245 -2 292l-65 3v25c19 0 51 -2 81 -2c13 0 47 2 81 3c35 2 69 3 80 3c99 0 146 -56 146 -130c0 -96 -71 -139 -181 -139h-68c0 -64 0 -148 1 -193zM179 434l-1 -193
c36 -2 64 0 83 3c59 9 98 54 98 110c0 87 -74 109 -147 109c-31 0 -33 -3 -33 -29z" />
    <glyph glyph-name="q.sc" unicode="&#xf771;" horiz-adv-x="574" 
d="M542 -122l6 -12c-21 -17 -86 -68 -144 -68c-87 0 -205 56 -290 76c-13 -6 -32 -16 -41 -16s-19 65 -19 77c0 10 7 15 17 15c7 0 29 -3 88 -21c16 7 116 43 116 53c0 4 -3 5 -16 6c-122 8 -219 112 -219 259c0 151 109 253 255 253c148 0 241 -106 241 -249
c0 -184 -133 -241 -183 -263c-26 -11 -141 -57 -163 -68c129 -37 213 -62 272 -62c29 0 56 9 80 20zM118 238c0 -140 83 -232 175 -232c104 0 165 118 165 241c0 147 -81 231 -166 231c-68 0 -174 -56 -174 -240z" />
    <glyph glyph-name="r.sc" unicode="&#xf772;" 
d="M179 26l62 -3v-25c-21 1 -50 2 -99 2c-52 0 -71 -1 -101 -2v25l63 3c1 36 2 45 2 133c0 227 0 252 -2 297l-63 3v25c18 0 52 -2 79 -2c12 0 44 2 75 3c32 2 63 3 73 3c80 0 142 -39 142 -122c0 -90 -89 -121 -89 -125c0 -2 57 -92 119 -177c29 -38 39 -40 53 -42v-22
c-11 0 -56 -2 -66 -2c-29 0 -40 0 -158 194c-11 18 -19 35 -23 36c-2 1 -17 2 -29 2h-39c0 -147 0 -163 1 -204zM178 253l47 1c79 0 113 36 113 104c0 74 -44 106 -128 106c-24 0 -28 -4 -30 -15c-2 -15 -2 -167 -2 -196z" />
    <glyph glyph-name="s.sc" unicode="&#xf773;" horiz-adv-x="407" 
d="M52 -2l-4 142h22c19 -75 53 -136 141 -136c62 0 99 44 99 93c0 127 -262 106 -262 271c0 87 71 132 149 132c50 0 108 -27 117 -27c11 0 14 10 16 17h20l2 -135h-20c-27 96 -83 123 -132 123c-65 0 -96 -43 -96 -82c0 -116 266 -99 266 -274c0 -94 -86 -140 -157 -140
c-50 0 -119 31 -126 31c-10 0 -13 -6 -16 -15h-19z" />
    <glyph glyph-name="t.sc" unicode="&#xf774;" horiz-adv-x="481" 
d="M40 356h-29l9 128c64 -1 145 -2 219 -2s157 1 231 2l-7 -125h-27c0 13 -4 85 -8 92s-19 11 -63 11h-89c-1 -38 -1 -47 -1 -139c0 -227 0 -252 1 -297l69 -3v-25c-19 1 -48 2 -106 2c-59 0 -88 -1 -106 -2v25l68 3c1 36 2 45 2 133c0 230 0 255 -2 303h-67
c-46 0 -63 -2 -73 -22c-5 -11 -13 -46 -21 -84z" />
    <glyph glyph-name="u.sc" unicode="&#xf775;" horiz-adv-x="556" 
d="M528 459l-64 -3l-2 -211c-1 -130 -20 -263 -182 -263c-140 0 -185 97 -187 222l-2 252l-65 3v25c34 -1 73 -2 102 -2c35 0 63 1 107 2v-25l-68 -3l-1 -250c-1 -116 34 -198 128 -198c108 0 131 96 130 174l-2 274l-68 3v25c24 -1 57 -2 86 -2c26 0 50 1 88 2v-25z" />
    <glyph glyph-name="v.sc" unicode="&#xf776;" horiz-adv-x="481" 
d="M478 484v-27c-35 -2 -39 -2 -44 -12c-8 -16 -87 -218 -98 -248l-79 -215h-16c-67 162 -128 318 -198 475l-29 2v25c67 -2 93 -2 190 -2v-24c-69 -1 -73 -4 -73 -11c0 -5 57 -146 63 -160l79 -196l77 215c4 11 50 140 50 143c0 8 -7 8 -58 9v24c44 0 90 0 136 2z" />
    <glyph glyph-name="w.sc" unicode="&#xf777;" horiz-adv-x="704" 
d="M696 484v-27c-30 -1 -36 -6 -39 -11c-1 -2 -65 -170 -74 -195l-103 -269h-16l-108 343h-2l-122 -343h-16c-8 28 -125 371 -168 474l-38 3v25c26 -1 58 -2 84 -2c16 0 76 2 96 2v-25c-52 0 -57 -3 -57 -9c0 -3 2 -8 5 -18l113 -328h2l88 258l-33 96l-40 2v24
c52 -1 77 -2 94 -2c18 0 70 2 92 2v-26c-59 0 -62 -2 -62 -8c0 -4 3 -12 7 -25l102 -321h2l59 165c7 20 61 175 61 184c0 2 -2 5 -49 5v24c57 0 64 0 122 2z" />
    <glyph glyph-name="x.sc" unicode="&#xf778;" horiz-adv-x="481" 
d="M8 -2v28c32 6 43 8 111 96l83 107l-118 162c-16 23 -39 59 -76 66v27c71 -2 83 -2 188 -2v-24c-23 1 -56 1 -56 -5c0 -12 30 -50 37 -60l72 -103l75 99c38 51 43 57 43 63c0 4 -4 6 -58 6v24c76 0 84 0 158 2v-27c-60 -5 -67 -11 -107 -61l-99 -124l111 -155
c47 -66 66 -90 100 -93v-26c-46 1 -74 2 -98 2c-27 0 -67 -1 -100 -2v26c13 0 59 1 59 12c0 5 -11 21 -15 27l-102 148l-75 -101c-9 -12 -52 -70 -52 -76c0 -8 11 -9 61 -10v-24c-85 0 -91 0 -142 -2z" />
    <glyph glyph-name="y.sc" unicode="&#xf779;" horiz-adv-x="426" 
d="M101 23l73 3c2 41 2 160 2 210l-75 116c-14 21 -57 89 -68 98c-8 8 -12 8 -49 9v25c34 -1 68 -2 92 -2c18 0 90 2 113 2v-25c-48 -1 -63 -2 -63 -7c0 -8 60 -101 63 -105l48 -76l116 167c1 2 5 9 5 12c0 5 -6 8 -61 8v24c31 0 111 0 146 2v-28c-30 -1 -38 -1 -50 -13
c-17 -17 -79 -101 -90 -116l-55 -77v-167c0 -22 1 -38 2 -57l73 -3v-25c-31 1 -66 2 -111 2s-77 -1 -111 -2v25z" />
    <glyph glyph-name="z.sc" unicode="&#xf77a;" horiz-adv-x="463" 
d="M432 138l-3 -140c-73 2 -161 2 -235 2h-172c0 10 2 13 16 31c10 14 268 388 297 431l-139 -1c-118 -1 -125 -6 -132 -105h-32l4 128c62 -2 134 -2 196 -2c41 0 56 0 198 2v-10c-50 -70 -299 -436 -311 -454l90 1c106 3 131 3 150 8c26 7 33 47 44 109h29z" />
    <glyph glyph-name="tilde.sc" unicode="&#xf6fe;" horiz-adv-x="296" 
d="M289 678h21c-6 -22 -27 -102 -105 -102c-27 0 -50 11 -72 23c-22 11 -43 23 -66 23c-39 0 -51 -29 -58 -46h-21c16 68 60 98 99 98c29 0 55 -12 78 -24s44 -24 63 -24c38 0 53 34 61 52z" />
    <glyph glyph-name="exclamdown.sc" unicode="&#xf7a1;" horiz-adv-x="278" 
d="M152 344l30 -486l-82 -16l29 502h23zM91 452c0 26 21 48 48 48s48 -22 48 -48c0 -27 -21 -48 -48 -48s-48 21 -48 48z" />
    <glyph glyph-name="cent.oldstyle" unicode="&#xf7a2;" 
d="M185 86l147 320c-8 18 -23 26 -53 26c-73 0 -153 -67 -153 -194c0 -69 24 -119 59 -152zM345 372l-140 -303c24 -17 52 -25 79 -25c70 0 105 50 124 77l14 -9c-32 -71 -95 -112 -174 -112c-25 0 -49 5 -69 14l-60 -130h-28l66 141c-64 36 -103 109 -103 193
c0 88 51 236 201 236c35 0 65 -8 90 -21l52 112h28l-58 -125c38 -27 58 -65 58 -97c0 -14 -4 -17 -26 -17c-32 0 -40 7 -48 41c-2 10 -4 18 -6 25z" />
    <glyph glyph-name="lslash.sc" unicode="&#xf6f9;" horiz-adv-x="481" 
d="M311 349v-31l-133 -79v-167c0 -42 6 -48 80 -48c66 0 99 0 126 1l39 112h28l-14 -139c-60 2 -85 2 -289 2c-66 0 -95 -1 -113 -2v25l69 3c1 36 2 44 2 128v42l-78 -47v31l78 47c0 173 0 196 -2 229l-65 3v25c22 -1 49 -2 105 -2c57 0 87 2 105 2v-25l-69 -3
c-2 -36 -2 -45 -2 -136v-50z" />
    <glyph glyph-name="scaron.sc" unicode="&#xf6fd;" horiz-adv-x="407" 
d="M52 -2l-4 142h22c19 -75 53 -136 141 -136c62 0 99 44 99 93c0 127 -262 106 -262 271c0 87 71 132 149 132c50 0 108 -27 117 -27c11 0 14 10 16 17h20l2 -135h-20c-27 96 -83 123 -132 123c-65 0 -96 -43 -96 -82c0 -116 266 -99 266 -274c0 -94 -86 -140 -157 -140
c-50 0 -119 31 -126 31c-10 0 -13 -6 -16 -15h-19zM205 612l128 106h22l-125 -168h-51l-124 168h22z" />
    <glyph glyph-name="zcaron.sc" unicode="&#xf6ff;" horiz-adv-x="463" 
d="M432 138l-3 -140c-73 2 -161 2 -235 2h-172c0 10 2 13 16 31c10 14 268 388 297 431l-139 -1c-118 -1 -125 -6 -132 -105h-32l4 128c62 -2 134 -2 196 -2c41 0 56 0 198 2v-10c-50 -70 -299 -436 -311 -454l90 1c106 3 131 3 150 8c26 7 33 47 44 109h29zM233 612
l128 106h22l-125 -168h-51l-124 168h22z" />
    <glyph glyph-name="dieresis.sc" unicode="&#xf7a8;" horiz-adv-x="296" 
d="M95 620c0 -27 -21 -50 -46 -50c-23 0 -39 25 -39 42c0 33 22 49 46 49c20 0 39 -14 39 -41zM288 620c0 -27 -21 -50 -46 -50c-23 0 -39 25 -39 42c0 33 22 49 46 49c20 0 39 -14 39 -41z" />
    <glyph glyph-name="breve.sc" unicode="&#xf6f4;" horiz-adv-x="296" 
d="M10 706h23c11 -62 49 -99 114 -99s103 37 114 99h23c-1 -78 -31 -156 -137 -156c-124 0 -136 107 -137 156z" />
    <glyph glyph-name="caron.sc" unicode="&#xf6f5;" horiz-adv-x="296" 
d="M149 612l128 106h22l-125 -168h-51l-124 168h22z" />
    <glyph glyph-name="dotaccent.sc" unicode="&#xf6f7;" horiz-adv-x="296" 
d="M105 612c0 33 23 51 47 51c21 0 41 -15 41 -42c0 -29 -22 -52 -48 -52c-25 0 -40 20 -40 43z" />
    <glyph glyph-name="macron.sc" unicode="&#xf7af;" horiz-adv-x="296" 
d="M-2 592v48h302v-48h-302z" />
    <glyph glyph-name="ogonek.sc" unicode="&#xf6fb;" horiz-adv-x="296" 
d="M246 12v-10c-31 -11 -154 -53 -154 -128c0 -37 35 -48 58 -48c40 0 81 21 104 33l11 -19c-46 -28 -92 -56 -148 -56c-54 0 -89 32 -89 77c0 35 20 115 218 151z" />
    <glyph glyph-name="ring.sc" unicode="&#xf6fc;" horiz-adv-x="296" 
d="M246 633c0 -53 -43 -97 -97 -97s-97 44 -97 97c0 54 43 97 97 97s97 -43 97 -97zM216 633c0 37 -30 67 -67 67s-67 -30 -67 -67s30 -67 67 -67s67 30 67 67z" />
    <glyph glyph-name="cedilla.sc" unicode="&#xf7b8;" horiz-adv-x="296" 
d="M130 0h23l-30 -70c9 4 22 8 42 8c48 0 81 -28 81 -71c0 -51 -45 -83 -117 -83c-29 0 -55 5 -83 17l7 21c15 -5 36 -12 63 -12c56 0 64 35 64 49c0 28 -23 45 -50 45c-14 0 -23 -5 -32 -9l-11 6z" />
    <glyph glyph-name="questiondown.sc" unicode="&#xf7bf;" horiz-adv-x="389" 
d="M262 340l7 -160c-96 -70 -163 -118 -163 -187c0 -55 50 -79 103 -79c58 0 103 20 128 32l-9 -79c-30 -15 -88 -25 -121 -25c-95 0 -161 52 -161 129c0 82 74 147 191 220l4 149h21zM203 452c0 26 21 48 48 48s48 -22 48 -48c0 -27 -21 -48 -48 -48s-48 21 -48 48z" />
    <glyph glyph-name="one.superior" horiz-adv-x="352" 
d="M72 300v22l75 5c1 104 2 116 2 140v207l-73 1v29l140 11l-2 -388l74 -5v-22c-32 1 -71 2 -110 2c-38 0 -76 -1 -106 -2z" />
    <glyph glyph-name="two.superior" horiz-adv-x="352" 
d="M300 300h-109c-114 0 -127 0 -164 -1v13c42 45 207 199 207 273c0 41 -34 69 -81 69c-37 0 -75 -15 -89 -20c-2 -1 -21 -8 -22 -8c-3 0 -2 4 -1 9l12 63c30 9 65 20 107 20c83 0 132 -49 132 -107c0 -88 -135 -192 -189 -247h176l9 43h20z" />
    <glyph glyph-name="three.superior" horiz-adv-x="352" 
d="M62 637l9 63c21 6 60 18 105 18c87 0 116 -45 116 -80c0 -59 -71 -88 -94 -97v-2c72 -13 111 -47 110 -97c-1 -90 -156 -152 -229 -152c-6 0 -10 4 -10 10s4 8 19 12c112 23 156 68 156 110c0 54 -50 76 -138 76c-11 0 -21 1 -21 9c0 7 4 8 20 13c24 8 133 44 133 97
c0 20 -15 49 -67 49c-40 0 -80 -17 -109 -29z" />
    <glyph glyph-name="agrave.sc" unicode="&#xf7e0;" horiz-adv-x="463" 
d="M462 23v-25c-21 1 -44 2 -84 2c-48 0 -74 -1 -104 -2v25l43 3c22 2 28 2 28 12c0 7 -12 37 -16 47l-29 74c-5 12 -6 13 -21 13h-147c-6 0 -10 -4 -13 -12l-34 -95c-9 -25 -10 -28 -10 -31c0 -7 3 -7 27 -9l30 -2v-25c-56 2 -62 2 -76 2c-24 0 -42 -1 -58 -2v25
c39 4 43 10 56 40c29 69 55 140 81 210l84 227h17l120 -293c10 -25 65 -160 72 -169s16 -11 34 -15zM147 196h126c8 0 10 2 10 4c0 1 -2 4 -4 10l-67 169c-2 5 -4 9 -6 9s-3 -3 -5 -7l-64 -173c-1 -4 -2 -6 -2 -8s4 -4 12 -4zM281 550l-171 105c-14 8 -24 17 -24 34
c0 20 17 31 32 31c17 0 27 -9 41 -24l146 -146h-24z" />
    <glyph glyph-name="aacute.sc" unicode="&#xf7e1;" horiz-adv-x="463" 
d="M462 23v-25c-21 1 -44 2 -84 2c-48 0 -74 -1 -104 -2v25l43 3c22 2 28 2 28 12c0 7 -12 37 -16 47l-29 74c-5 12 -6 13 -21 13h-147c-6 0 -10 -4 -13 -12l-34 -95c-9 -25 -10 -28 -10 -31c0 -7 3 -7 27 -9l30 -2v-25c-56 2 -62 2 -76 2c-24 0 -42 -1 -58 -2v25
c39 4 43 10 56 40c29 69 55 140 81 210l84 227h17l120 -293c10 -25 65 -160 72 -169s16 -11 34 -15zM147 196h126c8 0 10 2 10 4c0 1 -2 4 -4 10l-67 169c-2 5 -4 9 -6 9s-3 -3 -5 -7l-64 -173c-1 -4 -2 -6 -2 -8s4 -4 12 -4zM185 550h-24l146 146c10 11 23 24 41 24
s31 -14 31 -31s-9 -26 -23 -34z" />
    <glyph glyph-name="acircumflex.sc" unicode="&#xf7e2;" horiz-adv-x="463" 
d="M462 23v-25c-21 1 -44 2 -84 2c-48 0 -74 -1 -104 -2v25l43 3c22 2 28 2 28 12c0 7 -12 37 -16 47l-29 74c-5 12 -6 13 -21 13h-147c-6 0 -10 -4 -13 -12l-34 -95c-9 -25 -10 -28 -10 -31c0 -7 3 -7 27 -9l30 -2v-25c-56 2 -62 2 -76 2c-24 0 -42 -1 -58 -2v25
c39 4 43 10 56 40c29 69 55 140 81 210l84 227h17l120 -293c10 -25 65 -160 72 -169s16 -11 34 -15zM147 196h126c8 0 10 2 10 4c0 1 -2 4 -4 10l-67 169c-2 5 -4 9 -6 9s-3 -3 -5 -7l-64 -173c-1 -4 -2 -6 -2 -8s4 -4 12 -4zM233 656l-128 -106h-22l124 168h51l125 -168
h-22z" />
    <glyph glyph-name="atilde.sc" unicode="&#xf7e3;" horiz-adv-x="463" 
d="M462 23v-25c-21 1 -44 2 -84 2c-48 0 -74 -1 -104 -2v25l43 3c22 2 28 2 28 12c0 7 -12 37 -16 47l-29 74c-5 12 -6 13 -21 13h-147c-6 0 -10 -4 -13 -12l-34 -95c-9 -25 -10 -28 -10 -31c0 -7 3 -7 27 -9l30 -2v-25c-56 2 -62 2 -76 2c-24 0 -42 -1 -58 -2v25
c39 4 43 10 56 40c29 69 55 140 81 210l84 227h17l120 -293c10 -25 65 -160 72 -169s16 -11 34 -15zM147 196h126c8 0 10 2 10 4c0 1 -2 4 -4 10l-67 169c-2 5 -4 9 -6 9s-3 -3 -5 -7l-64 -173c-1 -4 -2 -6 -2 -8s4 -4 12 -4zM373 678h21c-6 -22 -27 -102 -105 -102
c-27 0 -50 11 -72 23c-22 11 -43 23 -66 23c-39 0 -51 -29 -58 -46h-21c16 68 60 98 99 98c29 0 55 -12 78 -24s44 -24 63 -24c38 0 53 34 61 52z" />
    <glyph glyph-name="adieresis.sc" unicode="&#xf7e4;" horiz-adv-x="463" 
d="M462 23v-25c-21 1 -44 2 -84 2c-48 0 -74 -1 -104 -2v25l43 3c22 2 28 2 28 12c0 7 -12 37 -16 47l-29 74c-5 12 -6 13 -21 13h-147c-6 0 -10 -4 -13 -12l-34 -95c-9 -25 -10 -28 -10 -31c0 -7 3 -7 27 -9l30 -2v-25c-56 2 -62 2 -76 2c-24 0 -42 -1 -58 -2v25
c39 4 43 10 56 40c29 69 55 140 81 210l84 227h17l120 -293c10 -25 65 -160 72 -169s16 -11 34 -15zM147 196h126c8 0 10 2 10 4c0 1 -2 4 -4 10l-67 169c-2 5 -4 9 -6 9s-3 -3 -5 -7l-64 -173c-1 -4 -2 -6 -2 -8s4 -4 12 -4zM179 620c0 -27 -21 -50 -46 -50
c-23 0 -39 25 -39 42c0 33 22 49 46 49c20 0 39 -14 39 -41zM372 620c0 -27 -21 -50 -46 -50c-23 0 -39 25 -39 42c0 33 22 49 46 49c20 0 39 -14 39 -41z" />
    <glyph glyph-name="aring.sc" unicode="&#xf7e5;" horiz-adv-x="463" 
d="M462 23v-25c-21 1 -44 2 -84 2c-48 0 -74 -1 -104 -2v25l43 3c22 2 28 2 28 12c0 7 -12 37 -16 47l-29 74c-5 12 -6 13 -21 13h-147c-6 0 -10 -4 -13 -12l-34 -95c-9 -25 -10 -28 -10 -31c0 -7 3 -7 27 -9l30 -2v-25c-56 2 -62 2 -76 2c-24 0 -42 -1 -58 -2v25
c39 4 43 10 56 40c29 69 55 140 81 210l84 227h17l120 -293c10 -25 65 -160 72 -169s16 -11 34 -15zM147 196h126c8 0 10 2 10 4c0 1 -2 4 -4 10l-67 169c-2 5 -4 9 -6 9s-3 -3 -5 -7l-64 -173c-1 -4 -2 -6 -2 -8s4 -4 12 -4zM330 633c0 -53 -43 -97 -97 -97s-97 44 -97 97
c0 54 43 97 97 97s97 -43 97 -97zM300 633c0 37 -30 67 -67 67s-67 -30 -67 -67s30 -67 67 -67s67 30 67 67z" />
    <glyph glyph-name="ae.sc" unicode="&#xf7e6;" horiz-adv-x="685" 
d="M630 133l-9 -133h-208c-124 -1 -147 -1 -184 -2v25l61 3c2 45 2 126 2 174h-150l-81 -138c-13 -22 -14 -24 -14 -28c0 -7 9 -8 59 -10v-24c-71 0 -72 0 -136 -2v28c36 1 41 7 80 69c45 72 216 350 216 358c0 4 -21 7 -66 7v24c41 -1 83 -2 124 -2h70c70 0 140 1 210 2
v-113h-30c-1 22 -3 65 -15 78c-11 12 -31 13 -105 13h-90v-198c21 0 94 1 106 7c11 6 13 28 16 80h29c-1 -26 -3 -58 -3 -108c0 -33 0 -53 2 -85h-30c-4 68 -8 80 -13 81c-22 3 -88 3 -107 3c0 -142 0 -158 1 -173c2 -47 5 -47 60 -47h145l32 111h28zM155 222h137
c0 43 0 184 -1 216h-8z" />
    <glyph glyph-name="ccedilla.sc" unicode="&#xf7e7;" horiz-adv-x="537" 
d="M486 159l-8 -121c-57 -34 -122 -56 -189 -56c-7 0 -15 0 -23 2l-23 -54c9 4 22 8 42 8c48 0 81 -28 81 -71c0 -51 -45 -83 -117 -83c-29 0 -55 5 -83 17l7 21c15 -5 36 -12 63 -12c56 0 64 35 64 49c0 28 -23 45 -50 45c-14 0 -23 -5 -32 -9l-11 6l37 85
c-108 19 -204 110 -204 254c0 167 124 260 247 260c85 0 135 -43 148 -43c9 0 15 8 19 13l25 -1v-137h-22c-18 99 -98 144 -163 144c-95 0 -176 -84 -176 -232c0 -163 101 -232 184 -232c90 0 140 62 165 147h19z" />
    <glyph glyph-name="egrave.sc" unicode="&#xf7e8;" horiz-adv-x="519" 
d="M462 133l-8 -133h-227c-124 -1 -147 -1 -185 -2v25l62 3c1 36 2 47 2 138c0 221 0 245 -2 292l-65 3v25c36 -1 69 -2 133 -2c24 0 152 0 265 2v-113h-30c-6 85 -16 91 -72 91h-157v-198c21 0 104 0 117 7c11 7 16 30 17 80h30c-2 -26 -4 -58 -4 -108c0 -33 1 -53 2 -85
h-30c-2 72 -5 79 -19 82c-15 2 -93 2 -113 2v-173c0 -39 6 -47 46 -47h178l33 111h27zM309 550l-171 105c-14 8 -24 17 -24 34c0 20 17 31 32 31c17 0 27 -9 41 -24l146 -146h-24z" />
    <glyph glyph-name="eacute.sc" unicode="&#xf7e9;" horiz-adv-x="519" 
d="M462 133l-8 -133h-227c-124 -1 -147 -1 -185 -2v25l62 3c1 36 2 47 2 138c0 221 0 245 -2 292l-65 3v25c36 -1 69 -2 133 -2c24 0 152 0 265 2v-113h-30c-6 85 -16 91 -72 91h-157v-198c21 0 104 0 117 7c11 7 16 30 17 80h30c-2 -26 -4 -58 -4 -108c0 -33 1 -53 2 -85
h-30c-2 72 -5 79 -19 82c-15 2 -93 2 -113 2v-173c0 -39 6 -47 46 -47h178l33 111h27zM213 550h-24l146 146c10 11 23 24 41 24s31 -14 31 -31s-9 -26 -23 -34z" />
    <glyph glyph-name="ecircumflex.sc" unicode="&#xf7ea;" horiz-adv-x="519" 
d="M462 133l-8 -133h-227c-124 -1 -147 -1 -185 -2v25l62 3c1 36 2 47 2 138c0 221 0 245 -2 292l-65 3v25c36 -1 69 -2 133 -2c24 0 152 0 265 2v-113h-30c-6 85 -16 91 -72 91h-157v-198c21 0 104 0 117 7c11 7 16 30 17 80h30c-2 -26 -4 -58 -4 -108c0 -33 1 -53 2 -85
h-30c-2 72 -5 79 -19 82c-15 2 -93 2 -113 2v-173c0 -39 6 -47 46 -47h178l33 111h27zM261 656l-128 -106h-22l124 168h51l125 -168h-22z" />
    <glyph glyph-name="edieresis.sc" unicode="&#xf7eb;" horiz-adv-x="519" 
d="M462 133l-8 -133h-227c-124 -1 -147 -1 -185 -2v25l62 3c1 36 2 47 2 138c0 221 0 245 -2 292l-65 3v25c36 -1 69 -2 133 -2c24 0 152 0 265 2v-113h-30c-6 85 -16 91 -72 91h-157v-198c21 0 104 0 117 7c11 7 16 30 17 80h30c-2 -26 -4 -58 -4 -108c0 -33 1 -53 2 -85
h-30c-2 72 -5 79 -19 82c-15 2 -93 2 -113 2v-173c0 -39 6 -47 46 -47h178l33 111h27zM207 620c0 -27 -21 -50 -46 -50c-23 0 -39 25 -39 42c0 33 22 49 46 49c20 0 39 -14 39 -41zM400 620c0 -27 -21 -50 -46 -50c-23 0 -39 25 -39 42c0 33 22 49 46 49c20 0 39 -14 39 -41
z" />
    <glyph glyph-name="igrave.sc" unicode="&#xf7ec;" horiz-adv-x="296" 
d="M186 26l63 -3v-25c-22 1 -49 2 -101 2s-72 -1 -100 -2v25l62 3c2 36 2 47 2 138c0 221 0 245 -2 292l-62 3v25c21 -1 48 -2 100 -2s72 1 101 2v-25l-63 -3c-1 -36 -2 -47 -2 -138c0 -221 0 -245 2 -292zM197 550l-171 105c-14 8 -24 17 -24 34c0 20 17 31 32 31
c17 0 27 -9 41 -24l146 -146h-24z" />
    <glyph glyph-name="iacute.sc" unicode="&#xf7ed;" horiz-adv-x="296" 
d="M186 26l63 -3v-25c-22 1 -49 2 -101 2s-72 -1 -100 -2v25l62 3c2 36 2 47 2 138c0 221 0 245 -2 292l-62 3v25c21 -1 48 -2 100 -2s72 1 101 2v-25l-63 -3c-1 -36 -2 -47 -2 -138c0 -221 0 -245 2 -292zM101 550h-24l146 146c10 11 23 24 41 24s31 -14 31 -31
s-9 -26 -23 -34z" />
    <glyph glyph-name="icircumflex.sc" unicode="&#xf7ee;" horiz-adv-x="296" 
d="M186 26l63 -3v-25c-22 1 -49 2 -101 2s-72 -1 -100 -2v25l62 3c2 36 2 47 2 138c0 221 0 245 -2 292l-62 3v25c21 -1 48 -2 100 -2s72 1 101 2v-25l-63 -3c-1 -36 -2 -47 -2 -138c0 -221 0 -245 2 -292zM149 656l-128 -106h-22l124 168h51l125 -168h-22z" />
    <glyph glyph-name="idieresis.sc" unicode="&#xf7ef;" horiz-adv-x="296" 
d="M186 26l63 -3v-25c-22 1 -49 2 -101 2s-72 -1 -100 -2v25l62 3c2 36 2 47 2 138c0 221 0 245 -2 292l-62 3v25c21 -1 48 -2 100 -2s72 1 101 2v-25l-63 -3c-1 -36 -2 -47 -2 -138c0 -221 0 -245 2 -292zM95 620c0 -27 -21 -50 -46 -50c-23 0 -39 25 -39 42
c0 33 22 49 46 49c20 0 39 -14 39 -41zM288 620c0 -27 -21 -50 -46 -50c-23 0 -39 25 -39 42c0 33 22 49 46 49c20 0 39 -14 39 -41z" />
    <glyph glyph-name="eth.sc" unicode="&#xf7f0;" horiz-adv-x="574" 
d="M106 234h-80v26h79c1 144 0 165 -1 196l-62 2v24c76 0 151 6 227 6c176 0 265 -103 265 -241c0 -146 -96 -249 -267 -249c-20 0 -109 2 -127 2c-43 0 -69 -1 -98 -2v25l62 3c1 36 2 47 2 138v70zM328 234h-149c-1 -15 -1 -56 -1 -93c0 -17 0 -104 4 -110
c7 -10 61 -11 75 -11c151 0 205 112 205 217c0 143 -91 229 -228 229c-10 0 -36 -1 -44 -3s-10 -6 -10 -13c-1 -11 -2 -77 -1 -190h149v-26z" />
    <glyph glyph-name="ntilde.sc" unicode="&#xf7f1;" horiz-adv-x="574" 
d="M481 -8h-14c-42 53 -116 145 -180 221c-124 147 -137 163 -163 193v-156c0 -35 4 -192 4 -224l62 -3v-25c-21 1 -47 2 -78 2c-33 0 -58 -1 -76 -2v25l60 3c2 33 3 178 4 208v170c-1 23 -1 25 -6 31c-18 19 -43 21 -58 23v26c40 -2 61 -2 125 -2c75 -90 193 -235 268 -325
c10 -11 24 -29 26 -34h2v131c-1 51 -3 136 -4 202l-64 3v25c18 -1 43 -2 76 -2c31 0 52 1 79 2v-25l-61 -3c-1 -34 -2 -185 -2 -216v-248zM428 678h21c-6 -22 -27 -102 -105 -102c-27 0 -50 11 -72 23c-22 11 -43 23 -66 23c-39 0 -51 -29 -58 -46h-21c16 68 60 98 99 98
c29 0 55 -12 78 -24s44 -24 63 -24c38 0 53 34 61 52z" />
    <glyph glyph-name="ograve.sc" unicode="&#xf7f2;" horiz-adv-x="574" 
d="M40 237c0 134 86 263 252 263c161 0 244 -115 244 -249s-89 -267 -249 -267c-164 0 -247 131 -247 253zM118 238c0 -140 83 -232 175 -232c104 0 165 118 165 241c0 147 -81 231 -166 231c-68 0 -174 -56 -174 -240zM336 550l-171 105c-14 8 -24 17 -24 34
c0 20 17 31 32 31c17 0 27 -9 41 -24l146 -146h-24z" />
    <glyph glyph-name="oacute.sc" unicode="&#xf7f3;" horiz-adv-x="574" 
d="M40 237c0 134 86 263 252 263c161 0 244 -115 244 -249s-89 -267 -249 -267c-164 0 -247 131 -247 253zM118 238c0 -140 83 -232 175 -232c104 0 165 118 165 241c0 147 -81 231 -166 231c-68 0 -174 -56 -174 -240zM240 550h-24l146 146c10 11 23 24 41 24
s31 -14 31 -31s-9 -26 -23 -34z" />
    <glyph glyph-name="ocircumflex.sc" unicode="&#xf7f4;" horiz-adv-x="574" 
d="M40 237c0 134 86 263 252 263c161 0 244 -115 244 -249s-89 -267 -249 -267c-164 0 -247 131 -247 253zM118 238c0 -140 83 -232 175 -232c104 0 165 118 165 241c0 147 -81 231 -166 231c-68 0 -174 -56 -174 -240zM288 656l-128 -106h-22l124 168h51l125 -168h-22z" />
    <glyph glyph-name="otilde.sc" unicode="&#xf7f5;" horiz-adv-x="574" 
d="M40 237c0 134 86 263 252 263c161 0 244 -115 244 -249s-89 -267 -249 -267c-164 0 -247 131 -247 253zM118 238c0 -140 83 -232 175 -232c104 0 165 118 165 241c0 147 -81 231 -166 231c-68 0 -174 -56 -174 -240zM428 678h21c-6 -22 -27 -102 -105 -102
c-27 0 -50 11 -72 23c-22 11 -43 23 -66 23c-39 0 -51 -29 -58 -46h-21c16 68 60 98 99 98c29 0 55 -12 78 -24s44 -24 63 -24c38 0 53 34 61 52z" />
    <glyph glyph-name="odieresis.sc" unicode="&#xf7f6;" horiz-adv-x="574" 
d="M40 237c0 134 86 263 252 263c161 0 244 -115 244 -249s-89 -267 -249 -267c-164 0 -247 131 -247 253zM118 238c0 -140 83 -232 175 -232c104 0 165 118 165 241c0 147 -81 231 -166 231c-68 0 -174 -56 -174 -240zM234 620c0 -27 -21 -50 -46 -50c-23 0 -39 25 -39 42
c0 33 22 49 46 49c20 0 39 -14 39 -41zM427 620c0 -27 -21 -50 -46 -50c-23 0 -39 25 -39 42c0 33 22 49 46 49c20 0 39 -14 39 -41z" />
    <glyph glyph-name="oe.sc" unicode="&#xf6fa;" horiz-adv-x="759" 
d="M378 62v147c0 28 0 225 -2 235c-4 22 -52 28 -83 28c-141 0 -176 -135 -176 -222c0 -86 36 -240 180 -240c67 0 81 14 81 52zM707 0h-208c-60 0 -88 -1 -109 -3c-58 -6 -91 -9 -111 -9c-157 0 -240 119 -240 254c0 91 48 252 247 252c22 0 80 -6 120 -9
c28 -3 64 -3 88 -3c27 0 150 2 196 2v-113h-30c-1 22 -3 65 -15 78c-11 12 -31 13 -105 13h-90v-198c21 0 94 1 106 7c11 5 14 34 16 80h29c-1 -26 -3 -58 -3 -108c0 -33 0 -53 2 -85h-30c-4 53 -5 77 -11 79c-7 4 -31 5 -109 5c0 -142 0 -158 1 -173c2 -48 5 -47 60 -47
h145l32 111h28z" />
    <glyph glyph-name="oslash.sc" unicode="&#xf7f8;" horiz-adv-x="574" 
d="M170 71l205 377c-25 20 -54 30 -83 30c-68 0 -174 -56 -174 -240c0 -69 20 -126 52 -167zM401 424l-205 -380c28 -24 62 -38 97 -38c104 0 165 118 165 241c0 78 -23 138 -57 177zM458 601h39l-73 -134c74 -44 112 -126 112 -216c0 -134 -89 -267 -249 -267
c-42 0 -79 8 -111 24l-71 -130h-39l80 148c-70 47 -106 131 -106 211c0 134 86 263 252 263c37 0 71 -6 101 -18z" />
    <glyph glyph-name="ugrave.sc" unicode="&#xf7f9;" horiz-adv-x="556" 
d="M528 459l-64 -3l-2 -211c-1 -130 -20 -263 -182 -263c-140 0 -185 97 -187 222l-2 252l-65 3v25c34 -1 73 -2 102 -2c35 0 63 1 107 2v-25l-68 -3l-1 -250c-1 -116 34 -198 128 -198c108 0 131 96 130 174l-2 274l-68 3v25c24 -1 57 -2 86 -2c26 0 50 1 88 2v-25z
M327 550l-171 105c-14 8 -24 17 -24 34c0 20 17 31 32 31c17 0 27 -9 41 -24l146 -146h-24z" />
    <glyph glyph-name="uacute.sc" unicode="&#xf7fa;" horiz-adv-x="556" 
d="M528 459l-64 -3l-2 -211c-1 -130 -20 -263 -182 -263c-140 0 -185 97 -187 222l-2 252l-65 3v25c34 -1 73 -2 102 -2c35 0 63 1 107 2v-25l-68 -3l-1 -250c-1 -116 34 -198 128 -198c108 0 131 96 130 174l-2 274l-68 3v25c24 -1 57 -2 86 -2c26 0 50 1 88 2v-25z
M231 550h-24l146 146c10 11 23 24 41 24s31 -14 31 -31s-9 -26 -23 -34z" />
    <glyph glyph-name="ucircumflex.sc" unicode="&#xf7fb;" horiz-adv-x="556" 
d="M528 459l-64 -3l-2 -211c-1 -130 -20 -263 -182 -263c-140 0 -185 97 -187 222l-2 252l-65 3v25c34 -1 73 -2 102 -2c35 0 63 1 107 2v-25l-68 -3l-1 -250c-1 -116 34 -198 128 -198c108 0 131 96 130 174l-2 274l-68 3v25c24 -1 57 -2 86 -2c26 0 50 1 88 2v-25z
M279 656l-128 -106h-22l124 168h51l125 -168h-22z" />
    <glyph glyph-name="udieresis.sc" unicode="&#xf7fc;" horiz-adv-x="556" 
d="M528 459l-64 -3l-2 -211c-1 -130 -20 -263 -182 -263c-140 0 -185 97 -187 222l-2 252l-65 3v25c34 -1 73 -2 102 -2c35 0 63 1 107 2v-25l-68 -3l-1 -250c-1 -116 34 -198 128 -198c108 0 131 96 130 174l-2 274l-68 3v25c24 -1 57 -2 86 -2c26 0 50 1 88 2v-25z
M225 620c0 -27 -21 -50 -46 -50c-23 0 -39 25 -39 42c0 33 22 49 46 49c20 0 39 -14 39 -41zM418 620c0 -27 -21 -50 -46 -50c-23 0 -39 25 -39 42c0 33 22 49 46 49c20 0 39 -14 39 -41z" />
    <glyph glyph-name="yacute.sc" unicode="&#xf7fd;" horiz-adv-x="426" 
d="M101 23l73 3c2 41 2 160 2 210l-75 116c-14 21 -57 89 -68 98c-8 8 -12 8 -49 9v25c34 -1 68 -2 92 -2c18 0 90 2 113 2v-25c-48 -1 -63 -2 -63 -7c0 -8 60 -101 63 -105l48 -76l116 167c1 2 5 9 5 12c0 5 -6 8 -61 8v24c31 0 111 0 146 2v-28c-30 -1 -38 -1 -50 -13
c-17 -17 -79 -101 -90 -116l-55 -77v-167c0 -22 1 -38 2 -57l73 -3v-25c-31 1 -66 2 -111 2s-77 -1 -111 -2v25zM166 550h-24l146 146c10 11 23 24 41 24s31 -14 31 -31s-9 -26 -23 -34z" />
    <glyph glyph-name="thorn.sc" unicode="&#xf7fe;" horiz-adv-x="463" 
d="M179 26l69 -3v-25c-18 1 -47 2 -104 2c-58 0 -80 -1 -105 -2v25l65 3c1 36 2 44 2 128c0 232 0 258 -2 302l-65 3v25c25 -1 47 -2 105 -2c57 0 86 2 104 2v-25l-69 -3c-1 -36 -1 -48 -1 -80c58 2 88 4 104 4c100 0 145 -58 145 -130c0 -83 -58 -138 -166 -138h-83
c0 -44 0 -58 1 -86zM178 354v-220c36 -2 64 0 83 3c63 10 98 57 98 109c0 87 -75 110 -148 110c-13 0 -21 -1 -33 -2z" />
    <glyph glyph-name="ydieresis.sc" unicode="&#xf7ff;" horiz-adv-x="426" 
d="M101 23l73 3c2 41 2 160 2 210l-75 116c-14 21 -57 89 -68 98c-8 8 -12 8 -49 9v25c34 -1 68 -2 92 -2c18 0 90 2 113 2v-25c-48 -1 -63 -2 -63 -7c0 -8 60 -101 63 -105l48 -76l116 167c1 2 5 9 5 12c0 5 -6 8 -61 8v24c31 0 111 0 146 2v-28c-30 -1 -38 -1 -50 -13
c-17 -17 -79 -101 -90 -116l-55 -77v-167c0 -22 1 -38 2 -57l73 -3v-25c-31 1 -66 2 -111 2s-77 -1 -111 -2v25zM160 620c0 -27 -21 -50 -46 -50c-23 0 -39 25 -39 42c0 33 22 49 46 49c20 0 39 -14 39 -41zM353 620c0 -27 -21 -50 -46 -50c-23 0 -39 25 -39 42
c0 33 22 49 46 49c20 0 39 -14 39 -41z" />
    <glyph glyph-name="Delta" unicode="&#x2206;" horiz-adv-x="571" 
d="M539 0h-507v19l236 685l28 10l243 -695v-19zM459 39l-193 562l-189 -562h382z" />
    <glyph glyph-name="Omega" unicode="&#x2126;" horiz-adv-x="653" 
d="M622 129l-21 -129h-207l-5 16c41 84 126 221 125 374c-1 214 -95 297 -188 297c-101 0 -186 -84 -186 -302c0 -148 73 -275 123 -369l-7 -16h-205l-20 129l20 1c19 -67 36 -77 70 -77h98c-53 56 -153 171 -153 338c0 199 116 323 262 323c148 0 258 -117 258 -315
c0 -151 -93 -274 -154 -346h99c39 0 49 7 69 77z" />
    <glyph glyph-name="uni03BC" unicode="&#x3bc;" horiz-adv-x="556" 
d="M43 386v34l123 12v-312c0 -78 24 -106 111 -106c47 0 89 12 100 19c7 4 11 10 11 39v285c0 25 -5 28 -64 29v34l136 12v-396h50v-30c-23 -5 -67 -16 -87 -16c-33 0 -25 30 -40 30c-9 0 -78 -32 -158 -32c-11 0 -23 3 -33 6c-10 2 -18 5 -22 5c-3 0 -5 -2 -5 -15v-228
c0 -13 -2 -16 -15 -16h-46c-8 0 -10 7 -10 21v620z" />
    <glyph glyph-name="pi" unicode="&#x3c0;" horiz-adv-x="516" 
d="M467 474l21 -9c-8 -36 -20 -57 -32 -75c-15 -3 -39 -3 -66 -3c-6 -61 -5 -184 -5 -255c1 -59 11 -95 44 -95c20 0 32 10 49 33l13 -17c-24 -47 -59 -65 -90 -65c-46 0 -78 26 -78 127c0 94 5 190 10 274c-56 2 -113 2 -153 2v-22c0 -233 -50 -347 -63 -364
c-13 -6 -38 -16 -52 -17l-6 15c72 91 89 281 89 390c-67 0 -90 -21 -122 -47l-13 18c25 29 61 82 155 81c67 0 149 -4 243 -4c29 0 40 5 56 33z" />
    <glyph glyph-name="Euro" unicode="&#x20ac;" 
d="M441 201h19l-10 -155c-37 -29 -99 -64 -163 -64c-66 0 -117 31 -155 97c-39 66 -55 154 -58 214h-52l7 24h45c-1 8 -2 27 -2 46c0 13 1 30 2 40h-51l6 24h47c5 58 22 139 60 199c41 65 93 92 152 92c25 0 47 -6 73 -20c21 -11 46 -32 54 -32c7 0 11 9 14 17h25v-162h-20
c-10 46 -30 93 -54 124c-12 16 -26 30 -43 39c-13 7 -29 12 -44 12c-29 0 -76 -14 -110 -91c-26 -60 -36 -128 -39 -178h237l-6 -24h-231c0 -13 1 -26 1 -39c0 -16 1 -31 1 -47h203l-6 -24h-196c3 -43 12 -114 45 -185c17 -38 50 -96 114 -96c25 0 51 11 70 28
c17 15 29 36 38 57c18 43 25 90 27 104z" />
    <glyph glyph-name="afii61289" unicode="&#x2113;" horiz-adv-x="370" 
d="M335 104l17 -14c-33 -66 -82 -100 -144 -100c-41 0 -72 14 -90 39c-21 29 -30 65 -30 146v94l-55 -46l-12 20l67 59v125c0 175 7 229 48 278c21 29 44 43 71 43c52 0 78 -58 78 -130c0 -125 -66 -226 -136 -305v-108c0 -134 33 -169 85 -169c44 0 76 27 101 68zM149 488
v-134c56 74 96 178 96 265c0 60 -16 101 -46 101c-36 0 -50 -64 -50 -232z" />
    <glyph glyph-name="estimated" unicode="&#x212e;" horiz-adv-x="879" 
d="M844 342h-656c-3 0 -5 -1 -5 -4v-198c0 -9 3 -17 8 -23c64 -66 151 -108 248 -108c105 0 198 48 261 121h59c-73 -85 -190 -141 -321 -141c-223 0 -404 162 -404 363c0 202 181 364 404 364c225 0 406 -162 406 -364v-10zM695 368v200c0 8 -3 17 -10 23
c-63 63 -150 104 -246 104s-183 -42 -246 -107c-7 -6 -10 -15 -10 -25v-195c0 -2 2 -6 5 -6h503c3 0 4 4 4 6z" />
    <glyph glyph-name="partialdiff" unicode="&#x2202;" horiz-adv-x="477" 
d="M239 432h1c43 0 95 -21 127 -72c3 33 6 69 7 108c1 52 -7 108 -26 162c-18 51 -67 109 -129 109c-46 0 -88 -22 -120 -49c-14 -2 -31 29 -23 49c30 23 74 41 124 41c85 0 141 -54 183 -143c36 -77 44 -174 44 -233c0 -73 -11 -180 -43 -258c-37 -92 -96 -156 -179 -156
c-98 0 -164 74 -164 202c0 69 25 126 53 164c32 42 87 76 145 76zM255 397h-2c-42 0 -77 -20 -105 -61c-29 -47 -42 -113 -42 -179c-1 -71 36 -140 97 -140c53 0 90 54 112 107c26 62 36 116 45 196c-12 30 -53 77 -105 77z" />
    <glyph glyph-name="product" unicode="&#x220f;" horiz-adv-x="614" 
d="M587 702v-22c-79 -6 -83 -12 -83 -61v-616c0 -57 6 -65 81 -71v-22h-221v22c72 6 78 9 78 70v642c0 26 -5 30 -32 30h-208c-26 0 -31 -3 -31 -27v-645c0 -56 -1 -62 72 -70v-22h-214v22c72 6 80 11 80 70v617c0 50 -5 55 -83 61v22h561z" />
    <glyph glyph-name="summation" unicode="&#x2211;" 
d="M478 77l-38 -167h-412v19l211 365l-206 389v19h408c1 -18 7 -88 11 -148l-23 -5c-7 46 -17 74 -28 95c-12 23 -26 30 -97 30h-190l182 -337l-209 -369h242c78 0 89 6 126 115z" />
    <glyph glyph-name="uni2219" unicode="&#x2219;" horiz-adv-x="250" 
d="M173 211c0 -26 -21 -48 -48 -48s-48 22 -48 48c0 27 21 48 48 48s48 -21 48 -48z" />
    <glyph glyph-name="radical" unicode="&#x221a;" horiz-adv-x="507" 
d="M486 908l-150 -1051l-16 -9l-202 557l-81 -39l-9 29l133 62l163 -458h1l128 917z" />
    <glyph glyph-name="infinity" unicode="&#x221e;" horiz-adv-x="710" 
d="M663 294v-1c0 -90 -66 -146 -139 -146c-58 0 -104 35 -168 108c-49 -55 -99 -108 -174 -108s-137 61 -137 142c0 84 60 145 143 145c70 0 122 -51 171 -109c47 53 94 110 171 109c79 0 133 -57 133 -140zM188 189h1c59 0 104 57 142 99c-41 50 -83 105 -148 105
c-59 0 -92 -49 -92 -105c0 -55 40 -99 97 -99zM525 393h-1c-61 0 -111 -68 -142 -102c60 -67 95 -102 145 -102c58 0 91 52 91 100c0 66 -39 104 -93 104z" />
    <glyph glyph-name="integral" unicode="&#x222b;" horiz-adv-x="342" 
d="M152 23l-18 426c-15 341 58 406 137 406c21 0 50 -13 50 -40c0 -23 -16 -35 -35 -35c-29 0 -26 36 -49 36c-22 0 -52 -33 -46 -172l17 -394c16 -373 -57 -438 -135 -438c-32 0 -52 20 -52 41c-1 22 18 38 42 38c25 0 24 -38 46 -38c30 0 48 66 43 170z" />
    <glyph glyph-name="approxequal" unicode="&#x2248;" horiz-adv-x="499" 
d="M429 421l29 -24c-22 -49 -60 -89 -116 -89c-35 0 -61 14 -102 37c-29 18 -54 32 -83 32c-41 0 -66 -31 -88 -69l-30 23c26 55 71 89 123 89c44 0 77 -24 101 -37c31 -18 52 -32 82 -32c36 0 59 25 84 70zM429 267l29 -24c-23 -49 -59 -89 -115 -89c-36 0 -62 13 -103 37
c-29 17 -54 32 -83 32c-42 0 -67 -33 -88 -70l-30 23c26 56 71 90 123 90c45 0 77 -24 101 -37c29 -17 51 -32 83 -32c36 0 58 25 83 70z" />
    <glyph glyph-name="notequal" unicode="&#x2260;" horiz-adv-x="499" 
d="M354 485l-40 -88h138v-45h-155l-60 -133h215v-44h-232l-47 -105l-35 15l40 90h-132v44h150l59 133h-209v45h226l47 104z" />
    <glyph glyph-name="lessequal" unicode="&#x2264;" horiz-adv-x="499" 
d="M450 108l-399 211v47l399 210v-54l-351 -178v-2l351 -179v-55zM453 23h-407v47h407v-47z" />
    <glyph glyph-name="greaterequal" unicode="&#x2265;" horiz-adv-x="499" 
d="M52 576l399 -210v-47l-399 -211v55l350 178v2l-350 179v54zM452 23h-405v47h405v-47z" />
    <glyph glyph-name="lozenge" unicode="&#x25ca;" horiz-adv-x="513" 
d="M466 342l-183 -406h-53l-183 406l184 408h52zM415 342l-156 357h-3l-159 -356l159 -358h3z" />
    <glyph glyph-name="uni00A0" unicode="&#xa0;" horiz-adv-x="250" 
 />
    <glyph glyph-name="uni00AD" unicode="&#xad;" horiz-adv-x="259" 
d="M249 181h-239v60h239v-60z" />
    <glyph glyph-name="uni02C9" unicode="&#x2c9;" horiz-adv-x="278" 
d="M-12 532v48h302v-48h-302z" />
    <glyph glyph-name="zero.taboldstyle" unicode="&#xf643;" 
d="M28 213c0 121 96 225 222 225c124 0 222 -102 222 -225s-98 -225 -222 -225c-126 0 -222 104 -222 225zM74 213c0 -83 62 -187 176 -187c110 0 176 99 176 187s-66 187 -176 187c-114 0 -176 -103 -176 -187z" />
    <glyph glyph-name="one.taboldstyle" unicode="&#xf644;" 
d="M379 23v-26c-95 3 -106 3 -124 3c-13 0 -100 -2 -121 -3v26l85 7c0 118 5 237 2 355l-82 1v36l156 16v-408z" />
    <glyph glyph-name="two.taboldstyle" unicode="&#xf645;" 
d="M60 -2v14c55 46 262 195 262 291c0 35 -38 67 -91 67c-41 0 -81 -12 -103 -19c-5 -1 -26 -11 -31 -11c-3 0 -4 3 -3 7l16 72c32 9 84 19 124 19c103 0 144 -54 144 -105c0 -82 -87 -156 -214 -265h226l7 56h26l-8 -124h-230c-53 0 -91 -1 -125 -2z" />
    <glyph glyph-name="three.taboldstyle" unicode="&#xf646;" 
d="M97 336l8 80c26 10 63 22 118 22c108 0 163 -55 163 -122c0 -62 -44 -117 -142 -184c59 -18 176 -54 176 -167c0 -49 -27 -133 -170 -195c-65 -28 -133 -46 -137 -46c-6 0 -7 10 -7 14s1 5 17 9c88 28 229 87 229 201c0 102 -148 125 -191 129c-24 3 -27 3 -27 12
c0 6 3 7 27 19c47 24 169 90 169 178c0 55 -44 82 -97 82c-59 0 -110 -21 -136 -32z" />
    <glyph glyph-name="four.taboldstyle" unicode="&#xf647;" 
d="M479 0h-115l-2 -260h-71l3 260h-282v18l337 423h16l-1 -387l115 1v-55zM67 50l227 3l3 286l-2 2z" />
    <glyph glyph-name="five.taboldstyle" unicode="&#xf648;" 
d="M408 359l-255 -3l-2 -161c109 -15 259 -43 259 -182c0 -195 -288 -285 -303 -285c-6 0 -8 4 -8 10c0 4 8 8 22 14c173 76 223 176 223 240c0 80 -67 115 -217 132l-1 302h199c19 0 38 1 58 3l3 38h26z" />
    <glyph glyph-name="six.taboldstyle" unicode="&#xf649;" 
d="M436 722l2 -14c-170 -39 -275 -146 -312 -319c22 12 77 44 145 44c83 0 192 -53 192 -217c0 -162 -112 -228 -203 -228c-93 0 -218 63 -218 286c0 174 102 440 394 448zM391 215c0 87 -30 188 -147 188c-68 0 -108 -31 -122 -42c-4 -22 -8 -40 -8 -83
c0 -150 48 -270 148 -270c99 0 129 119 129 207z" />
    <glyph glyph-name="seven.taboldstyle" unicode="&#xf64a;" 
d="M409 360l-322 -4l-7 -66h-24l3 136h402c0 -5 -2 -11 -24 -65c-87 -206 -162 -416 -241 -625h-45c5 11 257 621 258 624z" />
    <glyph glyph-name="eight.taboldstyle" unicode="&#xf64b;" 
d="M444 183c0 -108 -83 -195 -195 -195c-116 0 -191 88 -191 192c0 103 61 144 136 185c-45 28 -124 77 -124 184c0 95 72 169 176 169c120 0 164 -96 164 -159c0 -97 -84 -143 -123 -164c59 -33 157 -89 157 -212zM378 164c0 105 -78 149 -161 188
c-49 -28 -117 -66 -117 -170c0 -102 63 -172 140 -172c68 0 138 62 138 154zM372 558c0 76 -48 138 -120 138c-63 0 -120 -47 -120 -127c0 -99 78 -137 131 -163c52 29 109 68 109 152z" />
    <glyph glyph-name="nine.taboldstyle" unicode="&#xf64c;" 
d="M34 219c0 125 98 219 213 219c118 0 215 -92 215 -255c0 -52 -12 -231 -161 -370c-54 -50 -120 -89 -126 -89c-4 0 -8 3 -8 7c0 3 15 18 19 21c135 127 166 235 182 288c-23 -10 -71 -31 -129 -31c-115 0 -205 90 -205 210zM106 230c0 -157 107 -191 167 -191
c31 0 75 13 103 31c7 29 14 59 14 115c0 158 -71 231 -150 231c-75 0 -134 -67 -134 -186z" />
    <glyph glyph-name="dollar.taboldstyle" unicode="&#xf653;" 
d="M258 -138h-23v138c-65 4 -124 16 -189 78l27 32c65 -74 110 -86 162 -88v307c-67 27 -179 72 -179 204c0 69 41 165 179 173v77h23v-77c91 -7 131 -35 167 -68l-31 -28c-32 42 -74 70 -136 74v-291c101 -36 194 -84 194 -202c0 -93 -63 -184 -194 -191v-138zM258 320
v-298c86 20 134 60 134 147c0 102 -90 136 -134 151zM235 401v283c-73 -9 -123 -54 -123 -133c0 -101 88 -136 123 -150z" />
    <glyph glyph-name="cent.taboldstyle" unicode="&#xf654;" 
d="M185 86l147 320c-8 18 -23 26 -53 26c-73 0 -153 -67 -153 -194c0 -69 24 -119 59 -152zM345 372l-140 -303c24 -17 52 -25 79 -25c70 0 105 50 124 77l14 -9c-32 -71 -95 -112 -174 -112c-25 0 -49 5 -69 14l-60 -130h-28l66 141c-64 36 -103 109 -103 193
c0 88 51 236 201 236c35 0 65 -8 90 -21l52 112h28l-58 -125c38 -27 58 -65 58 -97c0 -14 -4 -17 -26 -17c-32 0 -40 7 -48 41c-2 10 -4 18 -6 25z" />
    <glyph glyph-name="dotlessi.sc" horiz-adv-x="296" 
d="M186 26l63 -3v-25c-22 1 -49 2 -101 2s-72 -1 -100 -2v25l62 3c2 36 2 47 2 138c0 221 0 245 -2 292l-62 3v25c21 -1 48 -2 100 -2s72 1 101 2v-25l-63 -3c-1 -36 -2 -47 -2 -138c0 -221 0 -245 2 -292z" />
    <glyph glyph-name="a.superior" horiz-adv-x="333" 
d="M285 477v-16c-15 -4 -49 -13 -61 -13s-21 8 -21 20c0 9 -2 12 -6 12c-3 0 -51 -35 -96 -35c-32 0 -58 23 -58 56c0 58 74 80 157 85l1 74c0 28 -8 34 -41 34c-34 0 -50 -1 -51 -6c-3 -19 -6 -33 -8 -43c-1 -5 -16 -16 -28 -16c-11 0 -15 11 -15 24c0 24 13 32 32 41
c22 11 64 24 100 24c46 0 62 -20 62 -57l-1 -184h34zM199 505v57c1 9 -1 10 -7 10s-99 -9 -99 -66c0 -21 10 -35 32 -35c27 0 59 15 63 16c10 4 11 5 11 18z" />
    <glyph glyph-name="germandbls.sc" unicode="&#xe03f;" horiz-adv-x="815" 
d="M460 -2l-4 142h22c19 -75 53 -136 141 -136c62 0 99 44 99 93c0 127 -262 106 -262 271c0 87 71 132 149 132c50 0 108 -27 117 -27c11 0 14 10 16 17h20l2 -135h-20c-27 96 -83 123 -132 123c-65 0 -96 -43 -96 -82c0 -116 266 -99 266 -274c0 -94 -86 -140 -157 -140
c-50 0 -119 31 -126 31c-10 0 -13 -6 -16 -15h-19zM52 -2l-4 142h22c19 -75 53 -136 141 -136c62 0 99 44 99 93c0 127 -262 106 -262 271c0 87 71 132 149 132c50 0 108 -27 117 -27c11 0 14 10 16 17h20l2 -135h-20c-27 96 -83 123 -132 123c-65 0 -96 -43 -96 -82
c0 -116 266 -99 266 -274c0 -94 -86 -140 -157 -140c-50 0 -119 31 -126 31c-10 0 -13 -6 -16 -15h-19z" />
    <glyph glyph-name="uni2215" unicode="&#x2215;" horiz-adv-x="167" 
d="M-167 -12l455 730h46l-455 -730h-46z" />
    <glyph glyph-name="A.sc" unicode="&#xe000;" horiz-adv-x="463" 
d="M462 23v-25c-21 1 -44 2 -84 2c-48 0 -74 -1 -104 -2v25l43 3c22 2 28 2 28 12c0 7 -12 37 -16 47l-29 74c-5 12 -6 13 -21 13h-147c-6 0 -10 -4 -13 -12l-34 -95c-9 -25 -10 -28 -10 -31c0 -7 3 -7 27 -9l30 -2v-25c-56 2 -62 2 -76 2c-24 0 -42 -1 -58 -2v25
c39 4 43 10 56 40c29 69 55 140 81 210l84 227h17l120 -293c10 -25 65 -160 72 -169s16 -11 34 -15zM147 196h126c8 0 10 2 10 4c0 1 -2 4 -4 10l-67 169c-2 5 -4 9 -6 9s-3 -3 -5 -7l-64 -173c-1 -4 -2 -6 -2 -8s4 -4 12 -4z" />
    <glyph glyph-name="B.sc" unicode="&#xe008;" 
d="M42 -2v25l62 3c1 36 2 47 2 138c0 221 0 245 -2 292l-58 2v24c72 0 145 6 217 6c79 0 147 -32 147 -119c0 -69 -47 -95 -68 -106c73 -17 102 -65 102 -131c0 -76 -76 -134 -199 -134c-18 0 -97 2 -114 2c-24 0 -58 -1 -89 -2zM178 238v-132c0 -83 14 -88 50 -88
c102 0 144 53 144 113c0 73 -50 107 -194 107zM178 260h58c76 0 108 45 108 100c0 76 -58 106 -133 106c-25 0 -32 -8 -32 -28z" />
    <glyph glyph-name="C.sc" unicode="&#xe009;" horiz-adv-x="537" 
d="M467 159h19l-8 -121c-57 -34 -122 -56 -189 -56c-125 0 -249 94 -249 258c0 167 124 260 247 260c85 0 135 -43 148 -43c9 0 15 8 19 13l25 -1v-137h-22c-18 99 -98 144 -163 144c-95 0 -176 -84 -176 -232c0 -163 101 -232 184 -232c90 0 140 62 165 147z" />
    <glyph glyph-name="D.sc" unicode="&#xe00b;" horiz-adv-x="574" 
d="M42 23l62 3c1 36 2 47 2 138c0 221 0 245 -2 292l-62 2v24c76 0 151 6 227 6c176 0 265 -103 265 -241c0 -146 -96 -249 -267 -249c-20 0 -109 2 -127 2c-43 0 -69 -1 -98 -2v25zM462 237c0 143 -91 229 -228 229c-10 0 -36 -1 -44 -3s-10 -6 -10 -13
c-2 -19 -2 -184 -2 -309c0 -17 0 -104 4 -110c7 -10 61 -11 75 -11c151 0 205 112 205 217z" />
    <glyph glyph-name="E.sc" unicode="&#xe00c;" horiz-adv-x="519" 
d="M462 133l-8 -133h-227c-124 -1 -147 -1 -185 -2v25l62 3c1 36 2 47 2 138c0 221 0 245 -2 292l-65 3v25c36 -1 69 -2 133 -2c24 0 152 0 265 2v-113h-30c-6 85 -16 91 -72 91h-157v-198c21 0 104 0 117 7c11 7 16 30 17 80h30c-2 -26 -4 -58 -4 -108c0 -33 1 -53 2 -85
h-30c-2 72 -5 79 -19 82c-15 2 -93 2 -113 2v-173c0 -39 6 -47 46 -47h178l33 111h27z" />
    <glyph glyph-name="F.sc" unicode="&#xe012;" horiz-adv-x="481" 
d="M106 456l-62 3v25c25 -1 51 -2 166 -2c26 0 169 1 232 2l3 -122h-31c-10 92 -11 100 -80 100h-154v-202c114 0 124 1 127 36l5 50h29c-1 -19 -3 -52 -3 -112c0 -42 1 -61 2 -82h-30c0 4 1 75 -14 81c-10 5 -97 5 -116 5c0 -152 0 -169 1 -212l69 -3v-25
c-29 1 -58 2 -107 2c-50 0 -68 -1 -98 -2v25l63 3v183c0 82 2 165 -2 247z" />
    <glyph glyph-name="G.sc" unicode="&#xe013;" horiz-adv-x="574" 
d="M547 174v-26c-38 -3 -42 -3 -45 -4c-4 -2 -7 -4 -7 -31v-72c-59 -36 -127 -59 -196 -59c-150 0 -259 110 -259 257c0 150 108 261 243 261c82 0 137 -44 149 -44c11 0 16 9 19 13h25l1 -138h-22c-24 118 -119 145 -163 145c-88 0 -174 -78 -174 -228
c0 -118 59 -238 203 -238c35 0 69 8 99 25c1 21 1 39 1 57s0 35 -1 53l-71 2v27c41 -2 72 -2 101 -2c30 0 59 0 97 2z" />
    <glyph glyph-name="H.sc" unicode="&#xe014;" horiz-adv-x="593" 
d="M413 456l-65 3v25c23 -1 49 -2 100 -2s72 1 101 2v-25l-61 -3c-1 -36 -1 -47 -1 -138c0 -221 0 -245 1 -292l61 -3v-25c-23 1 -50 2 -101 2s-71 -1 -100 -2v25l65 3c2 45 2 158 2 210h-237c0 -149 0 -165 1 -210l65 -3v-25c-23 1 -49 2 -100 2s-71 -1 -100 -2v25l60 3
c1 36 2 47 2 138c0 221 0 245 -2 292l-60 3v25c23 -1 49 -2 100 -2s71 1 100 2v-25l-65 -3c-1 -45 -1 -147 -1 -196h237c0 136 0 151 -2 196z" />
    <glyph glyph-name="I.sc" unicode="&#xe015;" horiz-adv-x="296" 
d="M186 26l63 -3v-25c-22 1 -49 2 -101 2s-72 -1 -100 -2v25l62 3c2 36 2 47 2 138c0 221 0 245 -2 292l-62 3v25c21 -1 48 -2 100 -2s72 1 101 2v-25l-63 -3c-1 -36 -2 -47 -2 -138c0 -221 0 -245 2 -292z" />
    <glyph glyph-name="J.sc" unicode="&#xe01a;" horiz-adv-x="278" 
d="M25 -218v19c83 45 80 103 80 298c0 56 -3 306 -3 357l-64 3v25c28 0 67 -1 86 -2h15c22 0 76 2 101 2v-25l-63 -3c-1 -78 3 -453 -2 -493c-10 -89 -53 -162 -150 -181z" />
    <glyph glyph-name="K.sc" unicode="&#xe01b;" 
d="M194 234l-16 -14c0 -65 0 -151 2 -194l69 -3v-25c-23 1 -49 2 -105 2c-55 0 -85 -1 -102 -2v25l62 3c1 36 2 47 2 138c0 221 0 245 -2 292l-62 3v25c24 -1 49 -2 102 -2c50 0 71 1 99 2v-25l-63 -3c-2 -43 -2 -159 -2 -210l200 185c10 10 14 14 14 18c0 6 -3 6 -31 7
l-29 2v24c92 0 104 0 160 2v-27c-37 -3 -52 -4 -201 -137l-44 -39l101 -116c9 -9 71 -79 102 -109c26 -24 40 -28 54 -32v-24h-108l-114 131z" />
    <glyph glyph-name="L.sc" unicode="&#xe01c;" horiz-adv-x="481" 
d="M451 137l-14 -139c-60 2 -85 2 -289 2c-66 0 -95 -1 -113 -2v25l69 3c1 36 2 44 2 128c0 232 0 258 -2 302l-65 3v25c22 -1 49 -2 105 -2c57 0 87 2 105 2v-25l-69 -3c-2 -36 -2 -45 -2 -136v-248c0 -42 6 -48 80 -48c66 0 99 0 126 1l39 112h28z" />
    <glyph glyph-name="M.sc" unicode="&#xe01e;" horiz-adv-x="685" 
d="M39 -2v25l60 3c3 78 3 246 3 330c0 49 -1 61 -2 100l-61 3v25c13 0 80 -2 85 -2c7 0 23 0 61 2l164 -389l153 387c59 0 112 1 140 2v-25l-59 -3v-430l62 -3v-25c-30 1 -61 2 -91 2c-15 0 -89 -2 -106 -2v25l61 3c1 62 1 135 2 208c0 73 0 145 -2 204h-2l-177 -450h-12
l-190 442l-2 -2l1 -402l63 -3v-25c-11 0 -63 2 -75 2c-11 0 -64 -2 -76 -2z" />
    <glyph glyph-name="N.sc" unicode="&#xe01f;" horiz-adv-x="574" 
d="M481 -8h-14c-42 53 -116 145 -180 221c-124 147 -137 163 -163 193v-156c0 -35 4 -192 4 -224l62 -3v-25c-21 1 -47 2 -78 2c-33 0 -58 -1 -76 -2v25l60 3c2 33 3 178 4 208v170c-1 23 -1 25 -6 31c-18 19 -43 21 -58 23v26c40 -2 61 -2 125 -2c75 -90 193 -235 268 -325
c10 -11 24 -29 26 -34h2v131c-1 51 -3 136 -4 202l-64 3v25c18 -1 43 -2 76 -2c31 0 52 1 79 2v-25l-61 -3c-1 -34 -2 -185 -2 -216v-248z" />
    <glyph glyph-name="O.sc" unicode="&#xe021;" horiz-adv-x="574" 
d="M40 237c0 134 86 263 252 263c161 0 244 -115 244 -249s-89 -267 -249 -267c-164 0 -247 131 -247 253zM118 238c0 -140 83 -232 175 -232c104 0 165 118 165 241c0 147 -81 231 -166 231c-68 0 -174 -56 -174 -240z" />
    <glyph glyph-name="P.sc" unicode="&#xe029;" horiz-adv-x="463" 
d="M179 26l69 -3v-25c-21 1 -49 2 -104 2c-58 0 -80 -1 -105 -2v25l65 3c1 36 2 47 2 138c0 221 0 245 -2 292l-65 3v25c19 0 51 -2 81 -2c13 0 47 2 81 3c35 2 69 3 80 3c99 0 146 -56 146 -130c0 -96 -71 -139 -181 -139h-68c0 -64 0 -148 1 -193zM179 434l-1 -193
c36 -2 64 0 83 3c59 9 98 54 98 110c0 87 -74 109 -147 109c-31 0 -33 -3 -33 -29z" />
    <glyph glyph-name="Q.sc" unicode="&#xe02a;" horiz-adv-x="574" 
d="M542 -122l6 -12c-21 -17 -86 -68 -144 -68c-87 0 -205 56 -290 76c-13 -6 -32 -16 -41 -16s-19 65 -19 77c0 10 7 15 17 15c7 0 29 -3 88 -21c16 7 116 43 116 53c0 4 -3 5 -16 6c-122 8 -219 112 -219 259c0 151 109 253 255 253c148 0 241 -106 241 -249
c0 -184 -133 -241 -183 -263c-26 -11 -141 -57 -163 -68c129 -37 213 -62 272 -62c29 0 56 9 80 20zM118 238c0 -140 83 -232 175 -232c104 0 165 118 165 241c0 147 -81 231 -166 231c-68 0 -174 -56 -174 -240z" />
    <glyph glyph-name="R.sc" unicode="&#xe02b;" 
d="M179 26l62 -3v-25c-21 1 -50 2 -99 2c-52 0 -71 -1 -101 -2v25l63 3c1 36 2 45 2 133c0 227 0 252 -2 297l-63 3v25c18 0 52 -2 79 -2c12 0 44 2 75 3c32 2 63 3 73 3c80 0 142 -39 142 -122c0 -90 -89 -121 -89 -125c0 -2 57 -92 119 -177c29 -38 39 -40 53 -42v-22
c-11 0 -56 -2 -66 -2c-29 0 -40 0 -158 194c-11 18 -19 35 -23 36c-2 1 -17 2 -29 2h-39c0 -147 0 -163 1 -204zM178 253l47 1c79 0 113 36 113 104c0 74 -44 106 -128 106c-24 0 -28 -4 -30 -15c-2 -15 -2 -167 -2 -196z" />
    <glyph glyph-name="S.sc" unicode="&#xe02c;" horiz-adv-x="407" 
d="M52 -2l-4 142h22c19 -75 53 -136 141 -136c62 0 99 44 99 93c0 127 -262 106 -262 271c0 87 71 132 149 132c50 0 108 -27 117 -27c11 0 14 10 16 17h20l2 -135h-20c-27 96 -83 123 -132 123c-65 0 -96 -43 -96 -82c0 -116 266 -99 266 -274c0 -94 -86 -140 -157 -140
c-50 0 -119 31 -126 31c-10 0 -13 -6 -16 -15h-19z" />
    <glyph glyph-name="T.sc" unicode="&#xe02e;" horiz-adv-x="481" 
d="M40 356h-29l9 128c64 -1 145 -2 219 -2s157 1 231 2l-7 -125h-27c0 13 -4 85 -8 92s-19 11 -63 11h-89c-1 -38 -1 -47 -1 -139c0 -227 0 -252 1 -297l69 -3v-25c-19 1 -48 2 -106 2c-59 0 -88 -1 -106 -2v25l68 3c1 36 2 45 2 133c0 230 0 255 -2 303h-67
c-46 0 -63 -2 -73 -22c-5 -11 -13 -46 -21 -84z" />
    <glyph glyph-name="U.sc" unicode="&#xe030;" horiz-adv-x="556" 
d="M528 459l-64 -3l-2 -211c-1 -130 -20 -263 -182 -263c-140 0 -185 97 -187 222l-2 252l-65 3v25c34 -1 73 -2 102 -2c35 0 63 1 107 2v-25l-68 -3l-1 -250c-1 -116 34 -198 128 -198c108 0 131 96 130 174l-2 274l-68 3v25c24 -1 57 -2 86 -2c26 0 50 1 88 2v-25z" />
    <glyph glyph-name="V.sc" unicode="&#xe035;" horiz-adv-x="481" 
d="M478 484v-27c-35 -2 -39 -2 -44 -12c-8 -16 -87 -218 -98 -248l-79 -215h-16c-67 162 -128 318 -198 475l-29 2v25c67 -2 93 -2 190 -2v-24c-69 -1 -73 -4 -73 -11c0 -5 57 -146 63 -160l79 -196l77 215c4 11 50 140 50 143c0 8 -7 8 -58 9v24c44 0 90 0 136 2z" />
    <glyph glyph-name="W.sc" unicode="&#xe036;" horiz-adv-x="704" 
d="M696 484v-27c-30 -1 -36 -6 -39 -11c-1 -2 -65 -170 -74 -195l-103 -269h-16l-108 343h-2l-122 -343h-16c-8 28 -125 371 -168 474l-38 3v25c26 -1 58 -2 84 -2c16 0 76 2 96 2v-25c-52 0 -57 -3 -57 -9c0 -3 2 -8 5 -18l113 -328h2l88 258l-33 96l-40 2v24
c52 -1 77 -2 94 -2c18 0 70 2 92 2v-26c-59 0 -62 -2 -62 -8c0 -4 3 -12 7 -25l102 -321h2l59 165c7 20 61 175 61 184c0 2 -2 5 -49 5v24c57 0 64 0 122 2z" />
    <glyph glyph-name="X.sc" unicode="&#xe037;" horiz-adv-x="481" 
d="M8 -2v28c32 6 43 8 111 96l83 107l-118 162c-16 23 -39 59 -76 66v27c71 -2 83 -2 188 -2v-24c-23 1 -56 1 -56 -5c0 -12 30 -50 37 -60l72 -103l75 99c38 51 43 57 43 63c0 4 -4 6 -58 6v24c76 0 84 0 158 2v-27c-60 -5 -67 -11 -107 -61l-99 -124l111 -155
c47 -66 66 -90 100 -93v-26c-46 1 -74 2 -98 2c-27 0 -67 -1 -100 -2v26c13 0 59 1 59 12c0 5 -11 21 -15 27l-102 148l-75 -101c-9 -12 -52 -70 -52 -76c0 -8 11 -9 61 -10v-24c-85 0 -91 0 -142 -2z" />
    <glyph glyph-name="Y.sc" unicode="&#xe038;" horiz-adv-x="426" 
d="M101 23l73 3c2 41 2 160 2 210l-75 116c-14 21 -57 89 -68 98c-8 8 -12 8 -49 9v25c34 -1 68 -2 92 -2c18 0 90 2 113 2v-25c-48 -1 -63 -2 -63 -7c0 -8 60 -101 63 -105l48 -76l116 167c1 2 5 9 5 12c0 5 -6 8 -61 8v24c31 0 111 0 146 2v-28c-30 -1 -38 -1 -50 -13
c-17 -17 -79 -101 -90 -116l-55 -77v-167c0 -22 1 -38 2 -57l73 -3v-25c-31 1 -66 2 -111 2s-77 -1 -111 -2v25z" />
    <glyph glyph-name="Z.sc" unicode="&#xe03b;" horiz-adv-x="463" 
d="M432 138l-3 -140c-73 2 -161 2 -235 2h-172c0 10 2 13 16 31c10 14 268 388 297 431l-139 -1c-118 -1 -125 -6 -132 -105h-32l4 128c62 -2 134 -2 196 -2c41 0 56 0 198 2v-10c-50 -70 -299 -436 -311 -454l90 1c106 3 131 3 150 8c26 7 33 47 44 109h29z" />
    <glyph glyph-name="Lslash.sc" unicode="&#xe01d;" horiz-adv-x="481" 
d="M311 349v-31l-133 -79v-167c0 -42 6 -48 80 -48c66 0 99 0 126 1l39 112h28l-14 -139c-60 2 -85 2 -289 2c-66 0 -95 -1 -113 -2v25l69 3c1 36 2 44 2 128v42l-78 -47v31l78 47c0 173 0 196 -2 229l-65 3v25c22 -1 49 -2 105 -2c57 0 87 2 105 2v-25l-69 -3
c-2 -36 -2 -45 -2 -136v-50z" />
    <glyph glyph-name="Scaron.sc" unicode="&#xe02d;" horiz-adv-x="407" 
d="M52 -2l-4 142h22c19 -75 53 -136 141 -136c62 0 99 44 99 93c0 127 -262 106 -262 271c0 87 71 132 149 132c50 0 108 -27 117 -27c11 0 14 10 16 17h20l2 -135h-20c-27 96 -83 123 -132 123c-65 0 -96 -43 -96 -82c0 -116 266 -99 266 -274c0 -94 -86 -140 -157 -140
c-50 0 -119 31 -126 31c-10 0 -13 -6 -16 -15h-19zM205 612l128 106h22l-125 -168h-51l-124 168h22z" />
    <glyph glyph-name="Zcaron.sc" unicode="&#xe03c;" horiz-adv-x="463" 
d="M432 138l-3 -140c-73 2 -161 2 -235 2h-172c0 10 2 13 16 31c10 14 268 388 297 431l-139 -1c-118 -1 -125 -6 -132 -105h-32l4 128c62 -2 134 -2 196 -2c41 0 56 0 198 2v-10c-50 -70 -299 -436 -311 -454l90 1c106 3 131 3 150 8c26 7 33 47 44 109h29zM233 612
l128 106h22l-125 -168h-51l-124 168h22z" />
    <glyph glyph-name="Agrave.sc" unicode="&#xe005;" horiz-adv-x="463" 
d="M462 23v-25c-21 1 -44 2 -84 2c-48 0 -74 -1 -104 -2v25l43 3c22 2 28 2 28 12c0 7 -12 37 -16 47l-29 74c-5 12 -6 13 -21 13h-147c-6 0 -10 -4 -13 -12l-34 -95c-9 -25 -10 -28 -10 -31c0 -7 3 -7 27 -9l30 -2v-25c-56 2 -62 2 -76 2c-24 0 -42 -1 -58 -2v25
c39 4 43 10 56 40c29 69 55 140 81 210l84 227h17l120 -293c10 -25 65 -160 72 -169s16 -11 34 -15zM147 196h126c8 0 10 2 10 4c0 1 -2 4 -4 10l-67 169c-2 5 -4 9 -6 9s-3 -3 -5 -7l-64 -173c-1 -4 -2 -6 -2 -8s4 -4 12 -4zM281 550l-171 105c-14 8 -24 17 -24 34
c0 20 17 31 32 31c17 0 27 -9 41 -24l146 -146h-24z" />
    <glyph glyph-name="Aacute.sc" unicode="&#xe002;" horiz-adv-x="463" 
d="M462 23v-25c-21 1 -44 2 -84 2c-48 0 -74 -1 -104 -2v25l43 3c22 2 28 2 28 12c0 7 -12 37 -16 47l-29 74c-5 12 -6 13 -21 13h-147c-6 0 -10 -4 -13 -12l-34 -95c-9 -25 -10 -28 -10 -31c0 -7 3 -7 27 -9l30 -2v-25c-56 2 -62 2 -76 2c-24 0 -42 -1 -58 -2v25
c39 4 43 10 56 40c29 69 55 140 81 210l84 227h17l120 -293c10 -25 65 -160 72 -169s16 -11 34 -15zM147 196h126c8 0 10 2 10 4c0 1 -2 4 -4 10l-67 169c-2 5 -4 9 -6 9s-3 -3 -5 -7l-64 -173c-1 -4 -2 -6 -2 -8s4 -4 12 -4zM185 550h-24l146 146c10 11 23 24 41 24
s31 -14 31 -31s-9 -26 -23 -34z" />
    <glyph glyph-name="Acircumflex.sc" unicode="&#xe003;" horiz-adv-x="463" 
d="M462 23v-25c-21 1 -44 2 -84 2c-48 0 -74 -1 -104 -2v25l43 3c22 2 28 2 28 12c0 7 -12 37 -16 47l-29 74c-5 12 -6 13 -21 13h-147c-6 0 -10 -4 -13 -12l-34 -95c-9 -25 -10 -28 -10 -31c0 -7 3 -7 27 -9l30 -2v-25c-56 2 -62 2 -76 2c-24 0 -42 -1 -58 -2v25
c39 4 43 10 56 40c29 69 55 140 81 210l84 227h17l120 -293c10 -25 65 -160 72 -169s16 -11 34 -15zM147 196h126c8 0 10 2 10 4c0 1 -2 4 -4 10l-67 169c-2 5 -4 9 -6 9s-3 -3 -5 -7l-64 -173c-1 -4 -2 -6 -2 -8s4 -4 12 -4zM233 656l-128 -106h-22l124 168h51l125 -168
h-22z" />
    <glyph glyph-name="Atilde.sc" unicode="&#xe007;" horiz-adv-x="463" 
d="M462 23v-25c-21 1 -44 2 -84 2c-48 0 -74 -1 -104 -2v25l43 3c22 2 28 2 28 12c0 7 -12 37 -16 47l-29 74c-5 12 -6 13 -21 13h-147c-6 0 -10 -4 -13 -12l-34 -95c-9 -25 -10 -28 -10 -31c0 -7 3 -7 27 -9l30 -2v-25c-56 2 -62 2 -76 2c-24 0 -42 -1 -58 -2v25
c39 4 43 10 56 40c29 69 55 140 81 210l84 227h17l120 -293c10 -25 65 -160 72 -169s16 -11 34 -15zM147 196h126c8 0 10 2 10 4c0 1 -2 4 -4 10l-67 169c-2 5 -4 9 -6 9s-3 -3 -5 -7l-64 -173c-1 -4 -2 -6 -2 -8s4 -4 12 -4zM373 678h21c-6 -22 -27 -102 -105 -102
c-27 0 -50 11 -72 23c-22 11 -43 23 -66 23c-39 0 -51 -29 -58 -46h-21c16 68 60 98 99 98c29 0 55 -12 78 -24s44 -24 63 -24c38 0 53 34 61 52z" />
    <glyph glyph-name="Adieresis.sc" unicode="&#xe004;" horiz-adv-x="463" 
d="M462 23v-25c-21 1 -44 2 -84 2c-48 0 -74 -1 -104 -2v25l43 3c22 2 28 2 28 12c0 7 -12 37 -16 47l-29 74c-5 12 -6 13 -21 13h-147c-6 0 -10 -4 -13 -12l-34 -95c-9 -25 -10 -28 -10 -31c0 -7 3 -7 27 -9l30 -2v-25c-56 2 -62 2 -76 2c-24 0 -42 -1 -58 -2v25
c39 4 43 10 56 40c29 69 55 140 81 210l84 227h17l120 -293c10 -25 65 -160 72 -169s16 -11 34 -15zM147 196h126c8 0 10 2 10 4c0 1 -2 4 -4 10l-67 169c-2 5 -4 9 -6 9s-3 -3 -5 -7l-64 -173c-1 -4 -2 -6 -2 -8s4 -4 12 -4zM179 620c0 -27 -21 -50 -46 -50
c-23 0 -39 25 -39 42c0 33 22 49 46 49c20 0 39 -14 39 -41zM372 620c0 -27 -21 -50 -46 -50c-23 0 -39 25 -39 42c0 33 22 49 46 49c20 0 39 -14 39 -41z" />
    <glyph glyph-name="Aring.sc" unicode="&#xe006;" horiz-adv-x="463" 
d="M462 23v-25c-21 1 -44 2 -84 2c-48 0 -74 -1 -104 -2v25l43 3c22 2 28 2 28 12c0 7 -12 37 -16 47l-29 74c-5 12 -6 13 -21 13h-147c-6 0 -10 -4 -13 -12l-34 -95c-9 -25 -10 -28 -10 -31c0 -7 3 -7 27 -9l30 -2v-25c-56 2 -62 2 -76 2c-24 0 -42 -1 -58 -2v25
c39 4 43 10 56 40c29 69 55 140 81 210l84 227h17l120 -293c10 -25 65 -160 72 -169s16 -11 34 -15zM147 196h126c8 0 10 2 10 4c0 1 -2 4 -4 10l-67 169c-2 5 -4 9 -6 9s-3 -3 -5 -7l-64 -173c-1 -4 -2 -6 -2 -8s4 -4 12 -4zM330 633c0 -53 -43 -97 -97 -97s-97 44 -97 97
c0 54 43 97 97 97s97 -43 97 -97zM300 633c0 37 -30 67 -67 67s-67 -30 -67 -67s30 -67 67 -67s67 30 67 67z" />
    <glyph glyph-name="AE.sc" unicode="&#xe001;" horiz-adv-x="685" 
d="M630 133l-9 -133h-208c-124 -1 -147 -1 -184 -2v25l61 3c2 45 2 126 2 174h-150l-81 -138c-13 -22 -14 -24 -14 -28c0 -7 9 -8 59 -10v-24c-71 0 -72 0 -136 -2v28c36 1 41 7 80 69c45 72 216 350 216 358c0 4 -21 7 -66 7v24c41 -1 83 -2 124 -2h70c70 0 140 1 210 2
v-113h-30c-1 22 -3 65 -15 78c-11 12 -31 13 -105 13h-90v-198c21 0 94 1 106 7c11 6 13 28 16 80h29c-1 -26 -3 -58 -3 -108c0 -33 0 -53 2 -85h-30c-4 68 -8 80 -13 81c-22 3 -88 3 -107 3c0 -142 0 -158 1 -173c2 -47 5 -47 60 -47h145l32 111h28zM155 222h137
c0 43 0 184 -1 216h-8z" />
    <glyph glyph-name="Ccedilla.sc" unicode="&#xe00a;" horiz-adv-x="537" 
d="M486 159l-8 -121c-57 -34 -122 -56 -189 -56c-7 0 -15 0 -23 2l-23 -54c9 4 22 8 42 8c48 0 81 -28 81 -71c0 -51 -45 -83 -117 -83c-29 0 -55 5 -83 17l7 21c15 -5 36 -12 63 -12c56 0 64 35 64 49c0 28 -23 45 -50 45c-14 0 -23 -5 -32 -9l-11 6l37 85
c-108 19 -204 110 -204 254c0 167 124 260 247 260c85 0 135 -43 148 -43c9 0 15 8 19 13l25 -1v-137h-22c-18 99 -98 144 -163 144c-95 0 -176 -84 -176 -232c0 -163 101 -232 184 -232c90 0 140 62 165 147h19z" />
    <glyph glyph-name="Egrave.sc" unicode="&#xe010;" horiz-adv-x="519" 
d="M462 133l-8 -133h-227c-124 -1 -147 -1 -185 -2v25l62 3c1 36 2 47 2 138c0 221 0 245 -2 292l-65 3v25c36 -1 69 -2 133 -2c24 0 152 0 265 2v-113h-30c-6 85 -16 91 -72 91h-157v-198c21 0 104 0 117 7c11 7 16 30 17 80h30c-2 -26 -4 -58 -4 -108c0 -33 1 -53 2 -85
h-30c-2 72 -5 79 -19 82c-15 2 -93 2 -113 2v-173c0 -39 6 -47 46 -47h178l33 111h27zM309 550l-171 105c-14 8 -24 17 -24 34c0 20 17 31 32 31c17 0 27 -9 41 -24l146 -146h-24z" />
    <glyph glyph-name="Eacute.sc" unicode="&#xe00d;" horiz-adv-x="519" 
d="M462 133l-8 -133h-227c-124 -1 -147 -1 -185 -2v25l62 3c1 36 2 47 2 138c0 221 0 245 -2 292l-65 3v25c36 -1 69 -2 133 -2c24 0 152 0 265 2v-113h-30c-6 85 -16 91 -72 91h-157v-198c21 0 104 0 117 7c11 7 16 30 17 80h30c-2 -26 -4 -58 -4 -108c0 -33 1 -53 2 -85
h-30c-2 72 -5 79 -19 82c-15 2 -93 2 -113 2v-173c0 -39 6 -47 46 -47h178l33 111h27zM213 550h-24l146 146c10 11 23 24 41 24s31 -14 31 -31s-9 -26 -23 -34z" />
    <glyph glyph-name="Ecircumflex.sc" unicode="&#xe00e;" horiz-adv-x="519" 
d="M462 133l-8 -133h-227c-124 -1 -147 -1 -185 -2v25l62 3c1 36 2 47 2 138c0 221 0 245 -2 292l-65 3v25c36 -1 69 -2 133 -2c24 0 152 0 265 2v-113h-30c-6 85 -16 91 -72 91h-157v-198c21 0 104 0 117 7c11 7 16 30 17 80h30c-2 -26 -4 -58 -4 -108c0 -33 1 -53 2 -85
h-30c-2 72 -5 79 -19 82c-15 2 -93 2 -113 2v-173c0 -39 6 -47 46 -47h178l33 111h27zM261 656l-128 -106h-22l124 168h51l125 -168h-22z" />
    <glyph glyph-name="Edieresis.sc" unicode="&#xe00f;" horiz-adv-x="519" 
d="M462 133l-8 -133h-227c-124 -1 -147 -1 -185 -2v25l62 3c1 36 2 47 2 138c0 221 0 245 -2 292l-65 3v25c36 -1 69 -2 133 -2c24 0 152 0 265 2v-113h-30c-6 85 -16 91 -72 91h-157v-198c21 0 104 0 117 7c11 7 16 30 17 80h30c-2 -26 -4 -58 -4 -108c0 -33 1 -53 2 -85
h-30c-2 72 -5 79 -19 82c-15 2 -93 2 -113 2v-173c0 -39 6 -47 46 -47h178l33 111h27zM207 620c0 -27 -21 -50 -46 -50c-23 0 -39 25 -39 42c0 33 22 49 46 49c20 0 39 -14 39 -41zM400 620c0 -27 -21 -50 -46 -50c-23 0 -39 25 -39 42c0 33 22 49 46 49c20 0 39 -14 39 -41
z" />
    <glyph glyph-name="Igrave.sc" unicode="&#xe019;" horiz-adv-x="296" 
d="M186 26l63 -3v-25c-22 1 -49 2 -101 2s-72 -1 -100 -2v25l62 3c2 36 2 47 2 138c0 221 0 245 -2 292l-62 3v25c21 -1 48 -2 100 -2s72 1 101 2v-25l-63 -3c-1 -36 -2 -47 -2 -138c0 -221 0 -245 2 -292zM197 550l-171 105c-14 8 -24 17 -24 34c0 20 17 31 32 31
c17 0 27 -9 41 -24l146 -146h-24z" />
    <glyph glyph-name="Iacute.sc" unicode="&#xe016;" horiz-adv-x="296" 
d="M186 26l63 -3v-25c-22 1 -49 2 -101 2s-72 -1 -100 -2v25l62 3c2 36 2 47 2 138c0 221 0 245 -2 292l-62 3v25c21 -1 48 -2 100 -2s72 1 101 2v-25l-63 -3c-1 -36 -2 -47 -2 -138c0 -221 0 -245 2 -292zM101 550h-24l146 146c10 11 23 24 41 24s31 -14 31 -31
s-9 -26 -23 -34z" />
    <glyph glyph-name="Icircumflex.sc" unicode="&#xe017;" horiz-adv-x="296" 
d="M186 26l63 -3v-25c-22 1 -49 2 -101 2s-72 -1 -100 -2v25l62 3c2 36 2 47 2 138c0 221 0 245 -2 292l-62 3v25c21 -1 48 -2 100 -2s72 1 101 2v-25l-63 -3c-1 -36 -2 -47 -2 -138c0 -221 0 -245 2 -292zM149 656l-128 -106h-22l124 168h51l125 -168h-22z" />
    <glyph glyph-name="Idieresis.sc" unicode="&#xe018;" horiz-adv-x="296" 
d="M186 26l63 -3v-25c-22 1 -49 2 -101 2s-72 -1 -100 -2v25l62 3c2 36 2 47 2 138c0 221 0 245 -2 292l-62 3v25c21 -1 48 -2 100 -2s72 1 101 2v-25l-63 -3c-1 -36 -2 -47 -2 -138c0 -221 0 -245 2 -292zM95 620c0 -27 -21 -50 -46 -50c-23 0 -39 25 -39 42
c0 33 22 49 46 49c20 0 39 -14 39 -41zM288 620c0 -27 -21 -50 -46 -50c-23 0 -39 25 -39 42c0 33 22 49 46 49c20 0 39 -14 39 -41z" />
    <glyph glyph-name="Eth.sc" unicode="&#xe011;" horiz-adv-x="574" 
d="M106 234h-80v26h79c1 144 0 165 -1 196l-62 2v24c76 0 151 6 227 6c176 0 265 -103 265 -241c0 -146 -96 -249 -267 -249c-20 0 -109 2 -127 2c-43 0 -69 -1 -98 -2v25l62 3c1 36 2 47 2 138v70zM328 234h-149c-1 -15 -1 -56 -1 -93c0 -17 0 -104 4 -110
c7 -10 61 -11 75 -11c151 0 205 112 205 217c0 143 -91 229 -228 229c-10 0 -36 -1 -44 -3s-10 -6 -10 -13c-1 -11 -2 -77 -1 -190h149v-26z" />
    <glyph glyph-name="Ntilde.sc" unicode="&#xe020;" horiz-adv-x="574" 
d="M481 -8h-14c-42 53 -116 145 -180 221c-124 147 -137 163 -163 193v-156c0 -35 4 -192 4 -224l62 -3v-25c-21 1 -47 2 -78 2c-33 0 -58 -1 -76 -2v25l60 3c2 33 3 178 4 208v170c-1 23 -1 25 -6 31c-18 19 -43 21 -58 23v26c40 -2 61 -2 125 -2c75 -90 193 -235 268 -325
c10 -11 24 -29 26 -34h2v131c-1 51 -3 136 -4 202l-64 3v25c18 -1 43 -2 76 -2c31 0 52 1 79 2v-25l-61 -3c-1 -34 -2 -185 -2 -216v-248zM428 678h21c-6 -22 -27 -102 -105 -102c-27 0 -50 11 -72 23c-22 11 -43 23 -66 23c-39 0 -51 -29 -58 -46h-21c16 68 60 98 99 98
c29 0 55 -12 78 -24s44 -24 63 -24c38 0 53 34 61 52z" />
    <glyph glyph-name="Ograve.sc" unicode="&#xe026;" horiz-adv-x="574" 
d="M40 237c0 134 86 263 252 263c161 0 244 -115 244 -249s-89 -267 -249 -267c-164 0 -247 131 -247 253zM118 238c0 -140 83 -232 175 -232c104 0 165 118 165 241c0 147 -81 231 -166 231c-68 0 -174 -56 -174 -240zM336 550l-171 105c-14 8 -24 17 -24 34
c0 20 17 31 32 31c17 0 27 -9 41 -24l146 -146h-24z" />
    <glyph glyph-name="Oacute.sc" unicode="&#xe023;" horiz-adv-x="574" 
d="M40 237c0 134 86 263 252 263c161 0 244 -115 244 -249s-89 -267 -249 -267c-164 0 -247 131 -247 253zM118 238c0 -140 83 -232 175 -232c104 0 165 118 165 241c0 147 -81 231 -166 231c-68 0 -174 -56 -174 -240zM240 550h-24l146 146c10 11 23 24 41 24
s31 -14 31 -31s-9 -26 -23 -34z" />
    <glyph glyph-name="Ocircumflex.sc" unicode="&#xe024;" horiz-adv-x="574" 
d="M40 237c0 134 86 263 252 263c161 0 244 -115 244 -249s-89 -267 -249 -267c-164 0 -247 131 -247 253zM118 238c0 -140 83 -232 175 -232c104 0 165 118 165 241c0 147 -81 231 -166 231c-68 0 -174 -56 -174 -240zM288 656l-128 -106h-22l124 168h51l125 -168h-22z" />
    <glyph glyph-name="Otilde.sc" unicode="&#xe028;" horiz-adv-x="574" 
d="M40 237c0 134 86 263 252 263c161 0 244 -115 244 -249s-89 -267 -249 -267c-164 0 -247 131 -247 253zM118 238c0 -140 83 -232 175 -232c104 0 165 118 165 241c0 147 -81 231 -166 231c-68 0 -174 -56 -174 -240zM428 678h21c-6 -22 -27 -102 -105 -102
c-27 0 -50 11 -72 23c-22 11 -43 23 -66 23c-39 0 -51 -29 -58 -46h-21c16 68 60 98 99 98c29 0 55 -12 78 -24s44 -24 63 -24c38 0 53 34 61 52z" />
    <glyph glyph-name="Odieresis.sc" unicode="&#xe025;" horiz-adv-x="574" 
d="M40 237c0 134 86 263 252 263c161 0 244 -115 244 -249s-89 -267 -249 -267c-164 0 -247 131 -247 253zM118 238c0 -140 83 -232 175 -232c104 0 165 118 165 241c0 147 -81 231 -166 231c-68 0 -174 -56 -174 -240zM234 620c0 -27 -21 -50 -46 -50c-23 0 -39 25 -39 42
c0 33 22 49 46 49c20 0 39 -14 39 -41zM427 620c0 -27 -21 -50 -46 -50c-23 0 -39 25 -39 42c0 33 22 49 46 49c20 0 39 -14 39 -41z" />
    <glyph glyph-name="OE.sc" unicode="&#xe022;" horiz-adv-x="759" 
d="M378 62v147c0 28 0 225 -2 235c-4 22 -52 28 -83 28c-141 0 -176 -135 -176 -222c0 -86 36 -240 180 -240c67 0 81 14 81 52zM707 0h-208c-60 0 -88 -1 -109 -3c-58 -6 -91 -9 -111 -9c-157 0 -240 119 -240 254c0 91 48 252 247 252c22 0 80 -6 120 -9
c28 -3 64 -3 88 -3c27 0 150 2 196 2v-113h-30c-1 22 -3 65 -15 78c-11 12 -31 13 -105 13h-90v-198c21 0 94 1 106 7c11 5 14 34 16 80h29c-1 -26 -3 -58 -3 -108c0 -33 0 -53 2 -85h-30c-4 53 -5 77 -11 79c-7 4 -31 5 -109 5c0 -142 0 -158 1 -173c2 -48 5 -47 60 -47
h145l32 111h28z" />
    <glyph glyph-name="Oslash.sc" unicode="&#xe027;" horiz-adv-x="574" 
d="M170 71l205 377c-25 20 -54 30 -83 30c-68 0 -174 -56 -174 -240c0 -69 20 -126 52 -167zM401 424l-205 -380c28 -24 62 -38 97 -38c104 0 165 118 165 241c0 78 -23 138 -57 177zM458 601h39l-73 -134c74 -44 112 -126 112 -216c0 -134 -89 -267 -249 -267
c-42 0 -79 8 -111 24l-71 -130h-39l80 148c-70 47 -106 131 -106 211c0 134 86 263 252 263c37 0 71 -6 101 -18z" />
    <glyph glyph-name="Ugrave.sc" unicode="&#xe034;" horiz-adv-x="556" 
d="M528 459l-64 -3l-2 -211c-1 -130 -20 -263 -182 -263c-140 0 -185 97 -187 222l-2 252l-65 3v25c34 -1 73 -2 102 -2c35 0 63 1 107 2v-25l-68 -3l-1 -250c-1 -116 34 -198 128 -198c108 0 131 96 130 174l-2 274l-68 3v25c24 -1 57 -2 86 -2c26 0 50 1 88 2v-25z
M327 550l-171 105c-14 8 -24 17 -24 34c0 20 17 31 32 31c17 0 27 -9 41 -24l146 -146h-24z" />
    <glyph glyph-name="Uacute.sc" unicode="&#xe031;" horiz-adv-x="556" 
d="M528 459l-64 -3l-2 -211c-1 -130 -20 -263 -182 -263c-140 0 -185 97 -187 222l-2 252l-65 3v25c34 -1 73 -2 102 -2c35 0 63 1 107 2v-25l-68 -3l-1 -250c-1 -116 34 -198 128 -198c108 0 131 96 130 174l-2 274l-68 3v25c24 -1 57 -2 86 -2c26 0 50 1 88 2v-25z
M231 550h-24l146 146c10 11 23 24 41 24s31 -14 31 -31s-9 -26 -23 -34z" />
    <glyph glyph-name="Ucircumflex.sc" unicode="&#xe032;" horiz-adv-x="556" 
d="M528 459l-64 -3l-2 -211c-1 -130 -20 -263 -182 -263c-140 0 -185 97 -187 222l-2 252l-65 3v25c34 -1 73 -2 102 -2c35 0 63 1 107 2v-25l-68 -3l-1 -250c-1 -116 34 -198 128 -198c108 0 131 96 130 174l-2 274l-68 3v25c24 -1 57 -2 86 -2c26 0 50 1 88 2v-25z
M279 656l-128 -106h-22l124 168h51l125 -168h-22z" />
    <glyph glyph-name="Udieresis.sc" unicode="&#xe033;" horiz-adv-x="556" 
d="M528 459l-64 -3l-2 -211c-1 -130 -20 -263 -182 -263c-140 0 -185 97 -187 222l-2 252l-65 3v25c34 -1 73 -2 102 -2c35 0 63 1 107 2v-25l-68 -3l-1 -250c-1 -116 34 -198 128 -198c108 0 131 96 130 174l-2 274l-68 3v25c24 -1 57 -2 86 -2c26 0 50 1 88 2v-25z
M225 620c0 -27 -21 -50 -46 -50c-23 0 -39 25 -39 42c0 33 22 49 46 49c20 0 39 -14 39 -41zM418 620c0 -27 -21 -50 -46 -50c-23 0 -39 25 -39 42c0 33 22 49 46 49c20 0 39 -14 39 -41z" />
    <glyph glyph-name="Yacute.sc" unicode="&#xe039;" horiz-adv-x="426" 
d="M101 23l73 3c2 41 2 160 2 210l-75 116c-14 21 -57 89 -68 98c-8 8 -12 8 -49 9v25c34 -1 68 -2 92 -2c18 0 90 2 113 2v-25c-48 -1 -63 -2 -63 -7c0 -8 60 -101 63 -105l48 -76l116 167c1 2 5 9 5 12c0 5 -6 8 -61 8v24c31 0 111 0 146 2v-28c-30 -1 -38 -1 -50 -13
c-17 -17 -79 -101 -90 -116l-55 -77v-167c0 -22 1 -38 2 -57l73 -3v-25c-31 1 -66 2 -111 2s-77 -1 -111 -2v25zM166 550h-24l146 146c10 11 23 24 41 24s31 -14 31 -31s-9 -26 -23 -34z" />
    <glyph glyph-name="Thorn.sc" unicode="&#xe02f;" horiz-adv-x="463" 
d="M179 26l69 -3v-25c-18 1 -47 2 -104 2c-58 0 -80 -1 -105 -2v25l65 3c1 36 2 44 2 128c0 232 0 258 -2 302l-65 3v25c25 -1 47 -2 105 -2c57 0 86 2 104 2v-25l-69 -3c-1 -36 -1 -48 -1 -80c58 2 88 4 104 4c100 0 145 -58 145 -130c0 -83 -58 -138 -166 -138h-83
c0 -44 0 -58 1 -86zM178 354v-220c36 -2 64 0 83 3c63 10 98 57 98 109c0 87 -75 110 -148 110c-13 0 -21 -1 -33 -2z" />
    <glyph glyph-name="Ydieresis.sc" unicode="&#xe03a;" horiz-adv-x="426" 
d="M101 23l73 3c2 41 2 160 2 210l-75 116c-14 21 -57 89 -68 98c-8 8 -12 8 -49 9v25c34 -1 68 -2 92 -2c18 0 90 2 113 2v-25c-48 -1 -63 -2 -63 -7c0 -8 60 -101 63 -105l48 -76l116 167c1 2 5 9 5 12c0 5 -6 8 -61 8v24c31 0 111 0 146 2v-28c-30 -1 -38 -1 -50 -13
c-17 -17 -79 -101 -90 -116l-55 -77v-167c0 -22 1 -38 2 -57l73 -3v-25c-31 1 -66 2 -111 2s-77 -1 -111 -2v25zM160 620c0 -27 -21 -50 -46 -50c-23 0 -39 25 -39 42c0 33 22 49 46 49c20 0 39 -14 39 -41zM353 620c0 -27 -21 -50 -46 -50c-23 0 -39 25 -39 42
c0 33 22 49 46 49c20 0 39 -14 39 -41z" />
    <glyph glyph-name="uni03A9" unicode="&#x3a9;" horiz-adv-x="653" 
d="M622 129l-21 -129h-207l-5 16c41 84 126 221 125 374c-1 214 -95 297 -188 297c-101 0 -186 -84 -186 -302c0 -148 73 -275 123 -369l-7 -16h-205l-20 129l20 1c19 -67 36 -77 70 -77h98c-53 56 -153 171 -153 338c0 199 116 323 262 323c148 0 258 -117 258 -315
c0 -151 -93 -274 -154 -346h99c39 0 49 7 69 77z" />
    <glyph glyph-name="o.superior" horiz-adv-x="333" 
d="M30 579c0 106 79 139 142 139c104 0 131 -76 131 -130c0 -74 -49 -143 -136 -143c-67 0 -137 44 -137 134zM90 581c0 -64 22 -116 77 -116c59 0 76 54 76 117c0 69 -19 116 -71 116c-35 0 -82 -22 -82 -117z" />
    <glyph glyph-name="fi" unicode="&#xfb01;" horiz-adv-x="556" 
d="M511 0h-184v24l59 1v331c0 24 -3 26 -23 26c-23 0 -165 -2 -177 -7c-9 -4 -8 -8 -8 -42v-308l62 -1v-24h-187v24l53 1v355l-68 2v32h68c3 155 4 219 62 278c37 37 67 50 95 50c39 0 134 -11 204 -17l-11 -56c-81 6 -215 21 -244 21c-17 0 -25 -3 -28 -27
c-8 -77 -7 -218 -6 -249h100c34 0 76 4 111 8s62 8 63 8c4 0 6 -4 6 -14v-391l53 -1v-24z" />
    <glyph glyph-name="fl" unicode="&#xfb02;" horiz-adv-x="556" 
d="M53 24l53 1v355l-68 2v32h68c2 149 3 212 54 275c43 53 85 53 100 53c14 0 78 -10 91 -10c21 0 93 8 110 10c-1 -108 -1 -267 -1 -379v-338l51 -1v-24h-184v24l61 1v357c-70 1 -191 -2 -202 -7c-8 -4 -8 -8 -8 -42v-308l62 -1v-24h-187v24zM178 414h84c37 0 108 4 126 4
v125c0 25 0 125 -4 128c-6 5 -155 29 -170 29c-22 0 -30 -15 -34 -53c-4 -41 -2 -192 -2 -233z" />
    <glyph glyph-name="onesuperior" unicode="&#xb9;" horiz-adv-x="352" 
d="M72 300v22l75 5c1 104 2 116 2 140v207l-73 1v29l140 11l-2 -388l74 -5v-22c-32 1 -71 2 -110 2c-38 0 -76 -1 -106 -2z" />
    <glyph glyph-name="threesuperior" unicode="&#xb3;" horiz-adv-x="352" 
d="M62 637l9 63c21 6 60 18 105 18c87 0 116 -45 116 -80c0 -59 -71 -88 -94 -97v-2c72 -13 111 -47 110 -97c-1 -90 -156 -152 -229 -152c-6 0 -10 4 -10 10s4 8 19 12c112 23 156 68 156 110c0 54 -50 76 -138 76c-11 0 -21 1 -21 9c0 7 4 8 20 13c24 8 133 44 133 97
c0 20 -15 49 -67 49c-40 0 -80 -17 -109 -29z" />
    <glyph glyph-name="twosuperior" unicode="&#xb2;" horiz-adv-x="352" 
d="M300 300h-109c-114 0 -127 0 -164 -1v13c42 45 207 199 207 273c0 41 -34 69 -81 69c-37 0 -75 -15 -89 -20c-2 -1 -21 -8 -22 -8c-3 0 -2 4 -1 9l12 63c30 9 65 20 107 20c83 0 132 -49 132 -107c0 -88 -135 -192 -189 -247h176l9 43h20z" />
    <glyph glyph-name="uni2010" unicode="&#x2010;" horiz-adv-x="259" 
d="M249 181h-239v60h239v-60z" />
    <glyph glyph-name="fi.sc" horiz-adv-x="778" 
d="M666 26l63 -3v-25c-22 1 -49 2 -101 2s-72 -1 -100 -2v25l62 3c2 36 2 47 2 138c0 221 0 245 -2 292l-62 3v25c21 -1 48 -2 100 -2s72 1 101 2v-25l-63 -3c-1 -36 -2 -47 -2 -138c0 -221 0 -245 2 -292zM106 456l-62 3v25c25 -1 51 -2 166 -2c26 0 169 1 232 2l3 -122
h-31c-10 92 -11 100 -80 100h-154v-202c114 0 124 1 127 36l5 50h29c-1 -19 -3 -52 -3 -112c0 -42 1 -61 2 -82h-30c0 4 1 75 -14 81c-10 5 -97 5 -116 5c0 -152 0 -169 1 -212l69 -3v-25c-29 1 -58 2 -107 2c-50 0 -68 -1 -98 -2v25l63 3v183c0 82 2 165 -2 247z" />
    <glyph glyph-name="fl.sc" horiz-adv-x="963" 
d="M932 137l-14 -139c-60 2 -85 2 -289 2c-66 0 -95 -1 -113 -2v25l69 3c1 36 2 44 2 128c0 232 0 258 -2 302l-65 3v25c22 -1 49 -2 105 -2c57 0 87 2 105 2v-25l-69 -3c-2 -36 -2 -45 -2 -136v-248c0 -42 6 -48 80 -48c66 0 99 0 126 1l39 112h28zM106 456l-62 3v25
c25 -1 51 -2 166 -2c26 0 169 1 232 2l3 -122h-31c-10 92 -11 100 -80 100h-154v-202c114 0 124 1 127 36l5 50h29c-1 -19 -3 -52 -3 -112c0 -42 1 -61 2 -82h-30c0 4 1 75 -14 81c-10 5 -97 5 -116 5c0 -152 0 -169 1 -212l69 -3v-25c-29 1 -58 2 -107 2
c-50 0 -68 -1 -98 -2v25l63 3v183c0 82 2 165 -2 247z" />
    </font>
</defs>
</svg>
