<?xml version="1.0" standalone="no"?>
<!DOCTYPE svg PUBLIC "-//W3C//DTD SVG 1.1//EN" "http://www.w3.org/Graphics/SVG/1.1/DTD/svg11.dtd" >
<svg>
<metadata>
Created by FontForge 20120731 at Thu Mar 17 00:02:23 2016
 By www
Copyright 1992, 1993, 2002 Adobe Systems Incorporated. All rights reserved. Electra is a trademark of Linotype Corp. registered in the U.S. Patent and Trademark Office and may be registered in certain other jurisdictions in the name of Linotype Corp. or its licensee Linotype GmbH.
</metadata>
<defs>
<font id="ElectraLTStd-Bold" horiz-adv-x="519" >
  <font-face 
    font-family="Electra LT Std"
    font-weight="700"
    font-stretch="normal"
    units-per-em="1000"
    panose-1="2 7 7 2 7 5 5 2 9 3"
    ascent="746"
    descent="-254"
    x-height="422"
    cap-height="702"
    bbox="-167 -276 1049 966"
    underline-thickness="50"
    underline-position="-50"
    stemh="26"
    stemv="108"
    unicode-range="U+0020-FB02"
  />
<missing-glyph horiz-adv-x="500" 
d="M0 0v700h500v-700h-500zM250 395l170 255h-340zM280 350l170 -255v510zM80 50h340l-170 255zM50 605v-510l170 255z" />
    <glyph glyph-name="f_i" unicode="fi" horiz-adv-x="574" 
d="M540 0h-215v30l55 1v321c0 18 -10 24 -25 24c-14 0 -138 -4 -144 -7c-8 -4 -7 -11 -7 -31v-307l54 -1v-30h-215v30l53 1v341h-60v42h60c0 158 0 192 75 262c23 21 77 66 136 66c2 1 53 -2 67 -2l105 -7l-12 -76c-19 2 -172 15 -231 15c-28 0 -29 -5 -32 -51v-207h94
c47 0 89 4 122 8c32 3 54 7 58 7c8 0 9 -5 10 -13v-385l52 -1v-30z" />
    <glyph glyph-name="f_l" unicode="fl" horiz-adv-x="574" 
d="M36 414h60c0 145 0 184 55 244c33 37 83 85 144 85c32 0 79 -14 98 -12v-2c4 1 71 10 97 13c-1 -29 -1 -45 -2 -188v-523l52 -1v-30h-215v30l55 1v345c-24 0 -159 -1 -169 -7c-7 -4 -7 -11 -7 -31v-307l54 -1v-30h-215v30l53 1v341h-60v42zM380 414v158c0 29 0 76 -6 83
c-10 11 -120 22 -138 22c-19 0 -25 -3 -28 -15c-4 -25 -6 -103 -6 -143c0 -47 1 -76 2 -105h176z" />
    <glyph glyph-name=".notdef" horiz-adv-x="500" 
d="M0 0v700h500v-700h-500zM250 395l170 255h-340zM280 350l170 -255v510zM80 50h340l-170 255zM50 605v-510l170 255z" />
    <glyph glyph-name="space" unicode=" " horiz-adv-x="259" 
 />
    <glyph glyph-name="exclam" unicode="!" horiz-adv-x="278" 
d="M124 155l-45 475l117 15l-44 -490h-28zM76 52c0 35 29 64 64 64s64 -29 64 -64s-29 -64 -64 -64s-64 29 -64 64z" />
    <glyph glyph-name="quotedbl" unicode="&#x22;" horiz-adv-x="407" 
d="M120 372h-18l-35 246c-2 11 -4 32 -4 44c0 43 28 56 48 56s48 -13 48 -56c0 -12 -2 -33 -4 -44zM306 372h-18l-35 246c-2 11 -4 32 -4 44c0 43 28 56 48 56s48 -13 48 -56c0 -12 -2 -33 -4 -44z" />
    <glyph glyph-name="numbersign" unicode="#" 
d="M134 0h-71l42 224h-103l5 28h103l36 195h-103l5 28h103l42 225h71l-42 -225h121l41 225h71l-41 -225h103l-5 -28h-103l-36 -195h103l-6 -28h-103l-41 -224h-71l41 224h-120zM181 252h121l36 195h-121z" />
    <glyph glyph-name="dollar" unicode="$" 
d="M271 -141h-28v141c-53 3 -128 13 -204 90l45 57c60 -108 120 -118 159 -121v286c-75 31 -187 77 -187 210c0 93 60 176 187 184v80h28v-80c76 -5 124 -27 178 -73l-51 -47c-41 70 -82 91 -127 94v-271c110 -40 205 -92 205 -213c0 -92 -48 -180 -205 -196v-141zM271 299
v-273c91 11 121 89 121 138c0 84 -70 114 -121 135zM243 421v258c-73 -13 -111 -59 -111 -126c0 -47 21 -95 111 -132z" />
    <glyph glyph-name="percent" unicode="%" horiz-adv-x="778" 
d="M189 -12h-55l408 652l-2 2c-65 -29 -100 -34 -167 -30c8 -93 -81 -234 -199 -234c-64 0 -112 46 -112 112c0 101 105 209 209 209c44 0 75 -19 93 -58c14 -2 24 -3 37 -3c76 0 141 27 194 80h49zM150 461c0 -29 18 -49 48 -49c67 0 147 114 147 182c0 13 -3 20 -6 28
c-15 7 -38 19 -57 39c-68 -44 -132 -149 -132 -200zM514 7c-51 0 -108 37 -108 114c0 108 110 207 209 207c64 0 100 -45 100 -100c0 -87 -80 -221 -201 -221zM543 41c64 0 144 110 144 183c0 38 -16 56 -48 56c-70 0 -145 -140 -145 -190c0 -20 11 -49 49 -49z" />
    <glyph glyph-name="ampersand" unicode="&#x26;" horiz-adv-x="778" 
d="M693 55l16 -17c-16 -15 -61 -56 -131 -56c-77 0 -111 48 -129 75c-83 -63 -140 -75 -195 -75c-146 0 -212 105 -212 205c0 143 121 205 188 235c-19 35 -44 84 -44 136c0 74 55 150 159 150c93 0 129 -62 129 -106c0 -52 -40 -112 -134 -152c69 -91 125 -186 170 -291
c69 83 118 203 118 220c0 10 0 16 -75 23v30h203v-30c-72 -11 -76 -12 -96 -54c-44 -96 -88 -161 -135 -218c40 -67 61 -100 104 -100c23 0 42 10 64 25zM148 252c0 -72 59 -214 171 -214c43 0 85 16 114 46c-54 103 -111 197 -191 315c-42 -24 -94 -78 -94 -147zM276 600
c0 -36 22 -88 51 -131c46 34 85 81 85 140c0 50 -31 73 -65 73c-48 0 -71 -45 -71 -82z" />
    <glyph glyph-name="quoteright" unicode="&#x2019;" horiz-adv-x="278" 
d="M62 639l32 79c30 -5 122 -17 122 -80c0 -58 -107 -167 -131 -192l-19 19c31 36 76 87 76 127c0 41 -57 46 -80 47z" />
    <glyph glyph-name="parenleft" unicode="(" horiz-adv-x="333" 
d="M297 -218h-32c-66 74 -196 230 -196 467s130 393 196 469h32c-57 -77 -146 -198 -146 -469s89 -392 146 -467z" />
    <glyph glyph-name="parenright" unicode=")" horiz-adv-x="333" 
d="M36 718h32c66 -74 196 -230 196 -467s-130 -393 -196 -469h-32c57 77 146 198 146 469s-89 392 -146 467z" />
    <glyph glyph-name="asterisk" unicode="*" horiz-adv-x="500" 
d="M226 633v57c0 23 11 28 24 28s24 -5 24 -28v-57c0 -18 6 -28 18 -28c18 0 67 41 84 41c12 0 23 -11 23 -25c0 -10 -6 -16 -16 -22l-49 -28c-9 -6 -17 -11 -17 -21s8 -16 17 -22l49 -28c10 -6 16 -12 16 -22c0 -9 -7 -24 -23 -24c-4 0 -8 0 -16 5l-49 28c-6 4 -14 7 -19 7
c-16 0 -18 -19 -18 -28v-57c0 -8 0 -28 -24 -28c-20 0 -24 17 -24 28v57c0 6 0 28 -19 28c-7 0 -16 -6 -18 -7l-49 -28c-7 -4 -12 -6 -16 -6c-14 0 -23 15 -23 24c0 14 11 20 16 23l49 28c3 2 17 10 17 22c0 10 -8 15 -17 21l-49 28c-10 6 -16 12 -16 22c0 14 11 25 23 25
c17 0 66 -41 84 -41c12 0 18 10 18 28zM250 625c-16 0 -8 -36 -39 -36c-3 0 -15 3 -18 3c-5 0 -10 -4 -10 -9c0 -9 17 -16 17 -33c0 -18 -16 -23 -16 -34c0 -5 3 -9 9 -9c2 0 15 3 18 3c31 0 23 -36 39 -36s7 36 39 36c4 0 6 -1 17 -3c6 0 11 4 11 9c0 9 -17 15 -17 34
c0 18 16 22 16 33c0 5 -3 9 -9 9c-2 0 -15 -3 -18 -3c-31 0 -23 36 -39 36z" />
    <glyph glyph-name="plus" unicode="+" horiz-adv-x="600" 
d="M268 0v219h-219v64h219v219h64v-219h219v-64h-219v-219h-64z" />
    <glyph glyph-name="comma" unicode="," horiz-adv-x="259" 
d="M55 22l33 86c42 -3 134 -18 134 -81c0 -70 -133 -209 -139 -215l-18 18c13 16 81 98 81 140c0 43 -55 49 -91 52z" />
    <glyph glyph-name="hyphen" unicode="-" horiz-adv-x="259" 
d="M239 169h-219v84h219v-84z" />
    <glyph glyph-name="period" unicode="." horiz-adv-x="259" 
d="M66 52c0 35 29 64 64 64s64 -29 64 -64s-29 -64 -64 -64s-64 29 -64 64z" />
    <glyph glyph-name="slash" unicode="/" horiz-adv-x="296" 
d="M37 -18l211 736h69l-211 -736h-69z" />
    <glyph glyph-name="zero" unicode="0" 
d="M40 353c0 226 88 365 219 365c135 0 219 -145 219 -365c0 -227 -88 -365 -219 -365c-130 0 -219 138 -219 365zM148 353c0 -263 31 -339 112 -339c80 0 110 76 110 339s-30 339 -110 339c-81 0 -112 -76 -112 -339z" />
    <glyph glyph-name="one" unicode="1" 
d="M415 28v-30c-44 0 -91 2 -150 2c-52 0 -101 -2 -149 -2v30l97 6c1 31 3 172 3 201l1 422l-95 1v41l203 15l-2 -680z" />
    <glyph glyph-name="two" unicode="2" 
d="M459 160l-12 -160h-167c-77 0 -156 -1 -233 -2c0 10 2 14 25 45c96 141 274 361 274 464c0 65 -45 109 -122 109c-42 0 -84 -12 -131 -39c-1 0 -25 -14 -26 -14c-2 0 -5 2 -4 8l19 112c49 23 103 35 157 35c131 0 189 -74 189 -158c0 -58 -5 -138 -285 -458h278l6 58h32z
" />
    <glyph glyph-name="three" unicode="3" 
d="M84 574l13 119c34 11 74 25 133 25c109 0 172 -56 172 -130c0 -82 -69 -131 -140 -182c98 -32 174 -82 174 -185c0 -196 -326 -245 -335 -245c-8 0 -10 15 -10 18c0 4 2 5 17 9c93 24 226 79 226 196c0 91 -114 134 -190 138c-16 1 -18 5 -18 12c0 9 3 12 15 17
c77 35 171 99 171 172c0 44 -32 76 -88 76s-108 -25 -140 -40z" />
    <glyph glyph-name="four" unicode="4" 
d="M486 261h-88l-1 -261h-103l3 261h-278v19l366 449h16l-2 -394l87 2v-76zM94 331l203 3l7 253l-2 2z" />
    <glyph glyph-name="five" unicode="5" 
d="M422 602l-279 -3v-138c84 -9 283 -30 283 -197c0 -173 -196 -245 -239 -261c-26 -9 -83 -27 -91 -27s-11 9 -11 15c0 7 2 7 22 15c65 25 227 87 227 221c0 58 -31 118 -221 136l-1 336h202c19 0 55 2 75 3l4 38h35z" />
    <glyph glyph-name="six" unicode="6" 
d="M459 729l2 -23c-245 -52 -290 -235 -308 -308c42 28 90 47 140 47c103 0 191 -80 191 -219c0 -170 -120 -238 -223 -238c-155 0 -226 139 -226 300c0 207 135 413 424 441zM141 244c0 -65 9 -230 123 -230c100 0 118 131 118 205c0 85 -22 186 -125 186
c-10 0 -67 0 -108 -43c-3 -26 -8 -71 -8 -118z" />
    <glyph glyph-name="seven" unicode="7" 
d="M218 -18h-59c83 206 167 402 250 619l-319 -5l-6 -76h-32l5 180h421c0 -7 -2 -12 -21 -62c-82 -218 -163 -440 -239 -656z" />
    <glyph glyph-name="eight" unicode="8" 
d="M72 544c0 101 76 174 188 174s174 -77 174 -158c0 -97 -70 -136 -119 -164c78 -46 157 -92 157 -208c0 -101 -80 -200 -219 -200c-146 0 -198 108 -198 183c0 96 71 153 137 187c-55 37 -120 82 -120 186zM111 176c0 -103 65 -162 137 -162c88 0 128 78 128 143
c0 101 -82 146 -157 186c-59 -35 -108 -75 -108 -167zM156 568c0 -87 73 -127 133 -156c55 27 97 74 97 147c0 76 -47 133 -116 133c-92 0 -114 -81 -114 -124z" />
    <glyph glyph-name="nine" unicode="9" 
d="M34 491c0 124 90 227 221 227c107 0 231 -73 231 -270c0 -199 -113 -330 -213 -408c-26 -21 -86 -64 -100 -64c-7 0 -10 5 -10 9c0 6 10 15 22 26c18 17 136 132 177 285c-20 -9 -41 -16 -61 -21c-21 -5 -42 -8 -65 -8c-114 0 -202 92 -202 224zM136 515
c0 -140 60 -210 140 -210c7 0 49 0 91 25c6 25 13 58 13 125c0 129 -40 237 -127 237c-61 0 -117 -54 -117 -177z" />
    <glyph glyph-name="colon" unicode=":" horiz-adv-x="259" 
d="M68 49c0 34 27 61 61 61s61 -27 61 -61s-27 -61 -61 -61s-61 27 -61 61zM68 355c0 34 27 61 61 61s61 -27 61 -61s-27 -61 -61 -61s-61 27 -61 61z" />
    <glyph glyph-name="semicolon" unicode=";" horiz-adv-x="259" 
d="M55 22l33 86c42 -3 134 -18 134 -81c0 -70 -133 -209 -139 -215l-18 18c13 16 81 98 81 140c0 43 -55 49 -91 52zM76 355c0 34 27 61 61 61s61 -27 61 -61s-27 -61 -61 -61s-61 27 -61 61z" />
    <glyph glyph-name="less" unicode="&#x3c;" horiz-adv-x="600" 
d="M587 -8l-574 247v24l574 247v-68l-458 -191l458 -191v-68z" />
    <glyph glyph-name="equal" unicode="=" horiz-adv-x="600" 
d="M49 320v64h502v-64h-502zM49 118v64h502v-64h-502z" />
    <glyph glyph-name="greater" unicode="&#x3e;" horiz-adv-x="600" 
d="M13 -8v68l457 191l-457 191v68l574 -247v-24z" />
    <glyph glyph-name="question" unicode="?" horiz-adv-x="444" 
d="M156 154l-6 147c12 8 148 93 148 174c0 34 -26 75 -97 75c-63 0 -118 -26 -141 -37l12 104c43 17 88 27 134 27c113 0 182 -58 182 -137c0 -93 -82 -157 -202 -222l-5 -131h-25zM108 52c0 35 29 64 64 64s64 -29 64 -64s-29 -64 -64 -64s-64 29 -64 64z" />
    <glyph glyph-name="at" unicode="@" horiz-adv-x="800" 
d="M674 98l15 -25c-45 -30 -143 -91 -280 -91c-193 0 -380 127 -380 346c0 220 188 390 412 390c189 0 331 -121 331 -293c0 -140 -101 -279 -209 -279c-17 0 -84 2 -91 84h-2c-14 -32 -50 -84 -117 -84c-76 0 -133 67 -133 146c0 121 113 236 210 236c38 0 78 -22 91 -64h2
l15 52h87c-16 -52 -77 -252 -77 -286c0 -39 29 -46 42 -46c60 0 152 108 152 236c0 163 -139 254 -289 254c-194 0 -354 -162 -354 -349c0 -176 134 -313 318 -313c106 0 192 45 257 86zM310 251c0 -45 18 -73 57 -73c88 0 134 209 134 257c0 35 -20 58 -52 58
c-73 0 -139 -162 -139 -242z" />
    <glyph glyph-name="A" unicode="A" horiz-adv-x="630" 
d="M638 31v-34c-44 2 -82 3 -136 3c-37 0 -71 -1 -149 -3v32c83 2 90 7 90 12c0 6 -3 15 -7 25l-65 173c-6 15 -8 15 -26 15h-172c-13 0 -16 -3 -22 -18l-61 -161c-5 -14 -9 -26 -9 -30c0 -11 7 -15 82 -16v-32c-28 1 -59 3 -90 3c-35 0 -62 -2 -82 -3v34c33 3 41 8 51 27
c12 23 104 247 123 297l139 363h15l233 -576c14 -35 30 -68 41 -89c9 -17 24 -21 45 -22zM190 282h149c7 1 12 4 12 7s-1 5 -4 13l-79 212c-1 4 -4 9 -6 9s-3 -5 -6 -11l-80 -210c-2 -7 -4 -11 -4 -14s4 -6 18 -6z" />
    <glyph glyph-name="B" unicode="B" horiz-adv-x="685" 
d="M38 -2v32l83 2c2 53 3 66 3 194c0 338 0 375 -3 441l-83 3v30c107 0 215 8 322 8c147 0 226 -52 226 -162c0 -63 -33 -124 -109 -162c94 -30 147 -96 147 -183c0 -155 -126 -203 -245 -203c-48 0 -178 2 -204 2c-37 0 -80 -1 -137 -2zM254 614l-1 -236c10 -1 20 -2 32 -2
c97 0 185 42 185 151c0 93 -77 154 -178 154c-27 0 -37 -1 -38 -67zM253 348l1 -230c0 -82 5 -94 60 -94c111 0 186 50 186 159c0 121 -85 166 -247 165z" />
    <glyph glyph-name="C" unicode="C" horiz-adv-x="778" 
d="M683 236h29c-9 -67 -11 -150 -12 -165c-40 -24 -147 -89 -303 -89c-223 0 -354 183 -354 366c0 184 126 370 353 370c131 0 234 -67 253 -67c12 0 17 13 18 19h37l2 -202h-32c-37 118 -111 218 -245 218c-163 0 -252 -158 -252 -325c0 -189 108 -345 266 -345
c173 0 225 171 240 220z" />
    <glyph glyph-name="D" unicode="D" horiz-adv-x="815" 
d="M40 30l77 2c2 53 3 66 3 194c0 338 0 375 -3 441l-77 3v30c55 0 298 8 347 8c218 0 385 -125 385 -354c0 -242 -176 -356 -384 -356c-50 0 -180 2 -207 2c-58 0 -96 -1 -141 -2v32zM642 344c0 212 -134 336 -340 336c-22 0 -45 -4 -49 -15c-2 -7 -3 -236 -3 -267
c0 -96 0 -119 1 -320c0 -48 17 -54 110 -54c156 0 281 128 281 320z" />
    <glyph glyph-name="E" unicode="E" horiz-adv-x="685" 
d="M648 182l-14 -182h-292c-62 0 -260 -2 -307 -2v32l82 2c2 53 3 66 3 194c0 338 0 375 -3 441l-82 3v32c57 -1 112 -3 222 -3c48 0 313 3 357 3v-150h-48c-5 74 -7 97 -31 110c-26 12 -95 12 -123 12h-162v-292c71 0 140 2 151 8c15 8 23 38 26 117h44
c-1 -37 -3 -76 -3 -116c0 -50 3 -95 4 -158h-46c-7 84 -6 103 -20 114c-12 9 -125 9 -156 9c0 -51 0 -251 2 -283c3 -39 9 -45 99 -45h205l48 154h44z" />
    <glyph glyph-name="F" unicode="F" horiz-adv-x="630" 
d="M117 667l-83 3v32c42 -1 70 -2 256 -2c6 0 227 1 318 2l4 -166h-50c-10 100 -19 115 -45 126c-27 12 -141 13 -176 13h-91v-303c104 2 116 0 139 8c19 8 23 22 31 119h43c-2 -32 -5 -60 -5 -158c0 -62 1 -87 2 -117h-44c0 15 -1 94 -14 107c-10 11 -15 13 -152 15
c0 -226 0 -251 2 -314l91 -2v-32c-39 0 -91 2 -160 2c-78 0 -113 -1 -147 -2v32l84 2v270c0 122 1 243 -3 365z" />
    <glyph glyph-name="G" unicode="G" horiz-adv-x="815" 
d="M783 261v-32c-51 -3 -55 -8 -55 -27v-111c-98 -65 -211 -109 -330 -109c-174 0 -356 127 -356 367c0 210 145 369 364 369c136 0 229 -68 244 -68c11 0 16 12 19 20h33c-1 -14 -1 -31 -1 -56c0 -20 4 -120 5 -144h-33c-26 92 -94 216 -238 216
c-152 0 -259 -140 -259 -327c0 -148 72 -341 261 -341c60 0 120 19 158 65c3 44 1 118 1 140l-95 4l-1 31c25 0 53 -1 86 -1c84 0 143 2 197 4z" />
    <glyph glyph-name="H" unicode="H" horiz-adv-x="815" 
d="M47 -2v32l70 2c2 53 3 66 3 194c0 338 0 375 -3 442l-70 2v32c26 0 67 -2 141 -2s115 2 140 2v-32l-76 -2c-2 -63 -2 -221 -2 -294h316c0 73 0 231 -3 294l-77 2v33c26 -2 67 -3 141 -3c75 0 115 2 141 2v-32l-71 -2c-1 -54 -1 -67 -1 -194c0 -338 0 -376 2 -442l70 -2
v-32c-26 0 -67 2 -141 2s-115 -2 -141 -2v32l77 2c3 63 3 237 3 312h-316c0 -224 0 -249 2 -312l76 -2v-33c-25 2 -66 3 -140 3s-115 -2 -141 -2z" />
    <glyph glyph-name="I" unicode="I" horiz-adv-x="370" 
d="M252 32l77 -2v-32c-26 0 -66 2 -144 2c-77 0 -118 -2 -144 -2v32l76 2c2 53 3 66 3 194c0 338 0 375 -3 441l-76 3v32c26 0 67 -2 144 -2c78 0 118 2 144 2v-32l-77 -3c-2 -53 -2 -66 -2 -193c0 -338 0 -376 2 -442z" />
    <glyph glyph-name="J" unicode="J" horiz-adv-x="370" 
d="M28 -224v25c70 41 98 95 98 280c0 97 -3 500 -5 586l-85 3v32c52 -1 105 -2 148 -2c42 0 94 1 145 2v-32l-72 -3c-1 -76 -2 -162 -2 -229c0 -42 1 -229 1 -296c0 -174 -41 -323 -228 -366z" />
    <glyph glyph-name="K" unicode="K" horiz-adv-x="667" 
d="M690 0h-173c-21 30 -97 138 -130 180l-120 158l-17 -18c0 -71 0 -226 2 -288l87 -2v-32c-27 0 -66 2 -151 2c-86 0 -125 -2 -153 -2v32l82 2c2 53 3 66 3 194c0 338 0 375 -3 441l-82 4v31c28 0 67 -2 153 -2c83 0 123 2 149 2v-31l-85 -4c-2 -62 -2 -237 -2 -312
l134 140c20 21 148 150 148 161c0 7 -12 11 -96 14v30c125 0 139 0 240 2v-34c-51 -7 -91 -12 -276 -197l-42 -42l132 -176c51 -67 118 -157 154 -200c15 -19 26 -22 46 -23v-30z" />
    <glyph glyph-name="L" unicode="L" horiz-adv-x="630" 
d="M619 194l-19 -196c-55 1 -171 2 -286 2s-228 0 -279 -2v32l82 2c2 53 3 66 3 194c0 338 0 375 -3 441l-82 3v32c28 0 66 -2 153 -2c86 0 125 2 152 2v-32l-88 -3c-1 -33 -2 -151 -2 -272c0 -143 0 -292 2 -309c6 -48 18 -56 159 -56c31 0 76 3 108 4l54 160h46z" />
    <glyph glyph-name="M" unicode="M" horiz-adv-x="981" 
d="M943 30v-32c-68 1 -109 2 -146 2c-20 0 -116 -2 -145 -2v32l80 2c1 59 1 73 1 148c0 83 0 295 -4 429h-2l-265 -621h-15l-296 618l-2 -2l8 -572l93 -2v-32c-34 0 -77 2 -106 2c-36 0 -72 -2 -108 -2v32l83 2c2 74 5 491 -3 635l-76 3v32c81 -2 90 -2 101 -2
c15 0 85 2 105 2l258 -542l230 540c52 0 135 0 206 2v-32l-81 -3c-1 -34 -2 -58 -1 -90c2 -180 4 -365 7 -545z" />
    <glyph glyph-name="N" unicode="N" horiz-adv-x="796" 
d="M678 -12h-18c-28 35 -54 68 -95 113c-64 74 -355 397 -414 462l1 -278c0 -40 5 -217 5 -253l90 -2v-32c-31 0 -69 2 -108 2c-38 0 -71 -1 -108 -2v32l83 2c2 46 5 250 6 291v202c0 62 0 68 -9 80c-8 12 -35 50 -80 63v34c59 -2 81 -2 179 -2c48 -59 75 -92 222 -257
c103 -116 152 -173 218 -248l1 185c1 94 0 194 -3 287l-86 3v32c53 -1 80 -2 103 -2c24 0 57 1 104 2v-32l-81 -3c-2 -53 -6 -246 -7 -315z" />
    <glyph glyph-name="O" unicode="O" horiz-adv-x="815" 
d="M43 345c0 218 156 373 370 373c219 0 359 -149 359 -360c0 -178 -117 -376 -363 -376c-206 0 -366 141 -366 363zM177 349c0 -200 110 -341 236 -341c156 0 225 193 225 349s-73 335 -225 335c-76 0 -236 -57 -236 -343z" />
    <glyph glyph-name="P" unicode="P" horiz-adv-x="630" 
d="M251 32l86 -2v-32c-26 0 -66 2 -149 2c-90 0 -127 -2 -156 -2v32l85 2c2 53 3 66 3 194c0 338 0 375 -3 441l-85 3v32c31 -1 71 -2 116 -2c18 0 67 2 116 4s97 4 113 4c141 0 216 -76 216 -183c0 -141 -101 -197 -282 -197c-27 0 -47 2 -62 3c0 -213 0 -237 2 -299z
M250 635l-1 -277c12 -1 32 0 51 0c102 0 175 60 175 164c0 122 -83 154 -185 154c-36 0 -40 -5 -40 -41z" />
    <glyph glyph-name="Q" unicode="Q" horiz-adv-x="815" 
d="M762 -108l10 -11c-44 -57 -110 -105 -175 -105c-90 0 -371 64 -456 78c-16 -12 -40 -30 -47 -30c-18 0 -38 70 -38 94c0 18 8 30 47 30c41 0 86 -11 93 -11s173 45 181 47c3 1 5 2 5 4c0 3 -2 3 -22 5c-202 24 -317 171 -317 354c0 218 155 371 371 371
c215 0 358 -145 358 -357c0 -179 -107 -302 -219 -347c-45 -19 -48 -20 -228 -65c-48 -11 -64 -16 -78 -19v-2c59 -10 353 -66 410 -66c59 0 92 22 105 30zM177 352c0 -197 110 -339 236 -339c156 0 225 193 225 347c0 155 -73 332 -225 332c-78 0 -236 -58 -236 -340z" />
    <glyph glyph-name="R" unicode="R" horiz-adv-x="667" 
d="M250 370h94c86 0 115 88 115 157c0 70 -42 149 -162 149c-42 0 -47 -3 -47 -66v-240zM252 32l82 -2v-32c-26 0 -66 2 -146 2s-120 -2 -147 -2v32l76 2c2 53 3 66 3 194c0 338 0 375 -3 441l-76 4v31c30 -1 72 -2 113 -2c17 0 63 2 109 4c45 1 91 3 106 3
c141 0 208 -81 208 -174c0 -117 -117 -172 -132 -181c-6 -3 -11 -2 -11 -6c0 -3 70 -112 141 -218c58 -86 65 -95 111 -98v-30c-81 0 -137 -1 -171 -2c-62 71 -133 188 -203 304c-19 32 -26 37 -62 36c0 -219 0 -243 2 -306z" />
    <glyph glyph-name="S" unicode="S" horiz-adv-x="556" 
d="M64 0v192h30c26 -114 90 -180 179 -180c87 0 129 64 129 129c0 169 -346 169 -346 390c0 95 71 187 206 187c75 0 139 -34 158 -34c11 0 18 7 22 16h32v-176h-30c-11 39 -49 166 -169 166c-68 0 -121 -45 -121 -107c0 -165 350 -165 350 -392c0 -110 -82 -209 -212 -209
c-71 0 -164 34 -176 34c-10 0 -14 -7 -18 -16h-34z" />
    <glyph glyph-name="T" unicode="T" horiz-adv-x="667" 
d="M58 528h-49l12 174c108 -1 202 -2 319 -2c119 0 206 1 318 2l-9 -169h-47c-1 20 -6 112 -12 124c-5 9 -24 17 -107 17h-85c-1 -54 -2 -70 -2 -201c0 -338 0 -375 2 -441l76 -2v-32c-26 0 -66 2 -144 2c-77 0 -117 -2 -143 -2v32l76 2c2 53 3 66 3 194c0 340 0 377 -3 448
h-75c-59 0 -82 -2 -98 -21c-11 -13 -12 -16 -32 -125z" />
    <glyph glyph-name="U" unicode="U" horiz-adv-x="778" 
d="M755 670l-78 -3l-7 -361c-4 -184 -72 -324 -279 -324c-215 0 -285 128 -283 323l4 362l-81 3v33c34 -2 49 -3 136 -3c82 0 116 0 163 2v-32l-84 -3l-8 -397c-4 -220 100 -256 184 -256c144 0 202 110 201 278l-1 375l-81 3v32c34 -1 70 -2 111 -2c46 0 79 2 103 2v-32z
" />
    <glyph glyph-name="V" unicode="V" horiz-adv-x="685" 
d="M696 702v-34c-36 -2 -40 -3 -46 -10c-8 -11 -115 -244 -146 -317l-152 -359h-16c-92 231 -191 459 -294 685l-50 4v31c104 -2 134 -2 286 -2v-30c-74 -1 -81 -4 -81 -10c0 -10 87 -223 95 -243l106 -256l162 393c7 16 40 98 40 105c0 4 -5 9 -76 11v30c76 0 103 0 172 2z
" />
    <glyph glyph-name="W" unicode="W" horiz-adv-x="963" 
d="M986 702v-34c-20 0 -42 0 -49 -7c-9 -12 -101 -253 -113 -284l-148 -395h-15l-181 517h-2l-174 -517h-15c-89 227 -168 456 -252 685l-47 3v32c97 -2 108 -2 132 -2c26 0 108 2 141 2v-32c-70 0 -80 -1 -80 -11c0 -13 64 -198 72 -224l86 -260h2l123 364l-48 128l-54 3
v32c53 -1 100 -2 138 -2c33 0 81 1 143 2v-32c-78 -3 -83 -5 -83 -11s8 -32 11 -39l147 -445h2l92 255c8 22 82 226 82 232s-7 7 -76 8v30c27 0 96 0 166 2z" />
    <glyph glyph-name="X" unicode="X" horiz-adv-x="667" 
d="M680 29v-32c-34 1 -79 3 -139 3c-53 0 -99 -1 -155 -3v32c73 3 81 7 81 16c0 7 -33 54 -42 67l-130 185l-97 -130c-17 -24 -82 -108 -82 -122c0 -11 7 -14 103 -16v-29c-77 0 -181 0 -233 -3v34c29 3 49 4 68 20c21 16 34 32 114 134l110 137l-115 160
c-21 28 -118 164 -131 176c-14 13 -33 13 -46 12v32c120 -2 164 -2 307 -2v-30c-83 -3 -89 -4 -89 -13c0 -8 41 -65 50 -78l107 -151l102 133c9 12 71 93 71 101c0 5 -10 8 -86 8v30c49 0 146 0 226 2v-34c-77 -6 -82 -6 -101 -28c-38 -46 -76 -91 -114 -137l-81 -99
c82 -120 162 -226 245 -339c22 -30 27 -35 57 -36z" />
    <glyph glyph-name="Y" unicode="Y" horiz-adv-x="593" 
d="M136 30l96 2c2 63 2 233 2 308l-99 157c-84 132 -93 147 -100 156c-12 15 -19 15 -53 17v32c41 -1 76 -2 140 -2c57 0 108 1 159 2v-32c-67 0 -85 -4 -85 -10c0 -11 76 -136 90 -162l63 -112l46 70c19 28 127 192 127 202c0 7 -6 10 -92 12v30c88 0 109 0 190 2v-34
c-28 -3 -38 -5 -52 -20c-14 -14 -92 -125 -111 -153l-93 -132c0 -174 0 -194 1 -248c0 -32 1 -54 2 -83l97 -2v-32c-47 1 -92 2 -164 2s-115 -1 -164 -2v32z" />
    <glyph glyph-name="Z" unicode="Z" horiz-adv-x="648" 
d="M622 189l-5 -191c-111 2 -124 2 -307 2h-296v15c158 219 222 320 440 659l-178 -1c-174 -1 -184 -9 -196 -146h-51l5 175c59 -1 112 -2 275 -2c202 0 262 1 313 2v-14c-150 -218 -293 -440 -436 -662c246 2 315 10 332 18c26 12 31 36 54 145h50z" />
    <glyph glyph-name="bracketleft" unicode="[" horiz-adv-x="333" 
d="M91 -218v936h195c8 0 11 -3 11 -8c0 -21 -16 -41 -42 -41c-33 0 -63 27 -92 27c-5 0 -11 -1 -12 -2v-888c4 -1 7 -2 12 -2c29 0 59 27 92 27c26 0 42 -20 42 -41c0 -5 -3 -8 -11 -8h-195z" />
    <glyph glyph-name="backslash" unicode="\" horiz-adv-x="296" 
d="M49 718l211 -736h-69l-211 736h69z" />
    <glyph glyph-name="bracketright" unicode="]" horiz-adv-x="333" 
d="M242 718v-936h-195c-8 0 -11 3 -11 8c0 21 16 41 42 41c33 0 63 -27 92 -27c5 0 11 1 12 2v888c-4 1 -7 2 -12 2c-29 0 -59 -27 -92 -27c-26 0 -42 20 -42 41c0 5 3 8 11 8h195z" />
    <glyph glyph-name="asciicircum" unicode="^" horiz-adv-x="600" 
d="M160 359h-27l148 359h38l148 -359h-27l-140 234z" />
    <glyph glyph-name="underscore" unicode="_" horiz-adv-x="500" 
d="M0 -125v50h500v-50h-500z" />
    <glyph glyph-name="quoteleft" unicode="&#x2018;" horiz-adv-x="278" 
d="M215 549l-31 -79c-31 4 -123 17 -123 79c0 58 104 165 132 193l19 -19c-32 -36 -77 -87 -77 -128s58 -45 80 -46z" />
    <glyph glyph-name="a" unicode="a" horiz-adv-x="463" 
d="M437 42v-29c-67 -17 -98 -25 -124 -25c-25 0 -40 10 -40 44c0 7 0 8 -2 8c-1 0 -83 -56 -152 -56c-52 0 -91 36 -91 92c0 120 176 135 246 142c1 36 2 73 2 131c0 43 -16 55 -66 55c-54 0 -61 -7 -62 -27c-3 -66 -8 -73 -21 -86c-14 -13 -35 -19 -49 -19
c-16 0 -30 16 -30 44c0 97 171 122 224 122c80 0 108 -36 108 -107l-1 -289h58zM273 84l1 91c0 13 -4 17 -9 17c-36 0 -133 -35 -133 -102c0 -36 24 -52 54 -52c20 0 47 8 67 17c18 8 19 12 20 29z" />
    <glyph glyph-name="b" unicode="b" horiz-adv-x="556" 
d="M13 690v37c26 2 105 7 173 19c-1 -24 -2 -201 -2 -219v-115c42 18 98 26 132 26c117 0 206 -84 206 -214c0 -140 -94 -238 -254 -238c-24 0 -128 9 -150 9c-34 0 -41 5 -42 47v461c0 75 0 173 -4 186zM184 338v-274c0 -38 14 -52 51 -52c104 0 179 90 179 208
s-70 184 -157 184c-23 0 -59 -8 -70 -22c-2 -2 -3 -23 -3 -44z" />
    <glyph glyph-name="c" unicode="c" horiz-adv-x="463" 
d="M409 127l22 -15c-41 -69 -89 -128 -188 -128c-100 0 -211 65 -211 221c0 145 99 233 220 233c123 0 173 -83 173 -139c0 -16 -3 -20 -32 -20c-56 0 -62 13 -70 54c-14 68 -17 79 -61 79c-79 0 -126 -86 -126 -184c0 -119 64 -180 144 -180c44 0 89 18 129 79z" />
    <glyph glyph-name="d" unicode="d" horiz-adv-x="556" 
d="M537 30v-27l-112 -17c-23 -3 -31 -4 -38 -4c-26 0 -11 32 -25 32c-8 0 -62 -28 -120 -28c-131 0 -208 103 -208 228c0 110 66 224 222 224c28 0 52 -4 69 -8c18 -4 31 -8 36 -8s7 3 7 15v252l-78 1v36c77 4 117 8 187 20c0 -62 -1 -123 -1 -185v-531h61zM368 92v258
c0 50 -22 58 -68 58c-90 0 -158 -70 -158 -192c0 -130 75 -192 156 -192c55 0 70 15 70 68z" />
    <glyph glyph-name="e" unicode="e" horiz-adv-x="463" 
d="M411 116l22 -13c-21 -37 -68 -119 -194 -119c-113 0 -206 78 -206 221c0 135 90 233 221 233c126 0 178 -92 178 -161c0 -14 -6 -21 -23 -21h-252c-18 0 -22 -6 -22 -31c0 -54 22 -181 146 -181c71 0 107 39 130 72zM168 284h134c24 0 30 6 30 31c0 46 -22 97 -77 97
c-72 0 -107 -92 -107 -119c0 -5 4 -9 20 -9z" />
    <glyph glyph-name="f" unicode="f" horiz-adv-x="296" 
d="M27 0v30l59 1v341h-59v42l59 3c2 154 2 168 29 209c11 17 82 116 166 116c23 0 73 -6 98 -8l-9 -73c-66 9 -137 15 -152 15c-22 0 -25 -28 -25 -134c0 -33 1 -68 1 -121l107 5v-45l-91 -3c-13 -1 -16 -3 -16 -19v-328l75 -1v-30h-242z" />
    <glyph glyph-name="g" unicode="g" horiz-adv-x="481" 
d="M464 426v-46c0 -15 -5 -19 -32 -22c-26 -2 -27 -5 -27 -11c0 -79 0 -140 -70 -182c-70 -41 -227 -23 -227 -90c0 -19 18 -31 92 -36c238 -16 268 -37 268 -125c0 -106 -113 -190 -267 -190c-119 0 -171 62 -171 132c0 52 34 96 48 115c-23 18 -46 37 -46 71
c0 49 43 87 115 102v7c-49 31 -95 60 -95 138c0 94 75 149 162 149c64 0 97 -25 131 -25c6 0 23 1 41 3zM142 287c0 -79 38 -121 93 -121c43 0 78 24 78 117c0 27 -1 68 -4 95c-2 16 -25 24 -49 24c-61 0 -118 -45 -118 -115zM388 -121c0 35 -32 61 -232 61
c-40 0 -88 -52 -88 -96c0 -50 54 -80 116 -80c123 0 204 63 204 115z" />
    <glyph glyph-name="h" unicode="h" horiz-adv-x="574" 
d="M38 0v30l53 1v472c0 62 -3 124 -5 186l-60 1v37c26 2 105 7 175 19c-3 -14 -2 -165 -3 -201v-129c0 -17 1 -22 4 -22c11 -1 86 40 159 40c87 0 127 -42 127 -130v-273l53 -1v-30h-213v30l52 1v295c0 48 -20 64 -76 64c-47 0 -87 -12 -97 -21c-9 -8 -9 -17 -9 -46v-292
l53 -1v-30h-213z" />
    <glyph glyph-name="i" unicode="i" horiz-adv-x="296" 
d="M41 0v30l57 1v317c0 26 -5 30 -50 33v33l158 18v-401l56 -1v-30h-221zM100 631c0 38 24 69 65 69c28 0 57 -19 57 -56c0 -39 -31 -70 -67 -70c-35 0 -55 23 -55 57z" />
    <glyph glyph-name="j" unicode="j" horiz-adv-x="296" 
d="M99 -218h-40c36 34 50 76 48 246l-4 313c0 33 -2 35 -60 43v36l168 12l3 -370c2 -160 -43 -222 -115 -280zM100 631c0 38 24 69 65 69c28 0 57 -19 57 -56c0 -39 -31 -70 -67 -70c-35 0 -55 23 -55 57z" />
    <glyph glyph-name="k" unicode="k" horiz-adv-x="500" 
d="M495 0h-139l-154 181c-7 9 -8 10 -9 10c-2 0 -2 -1 -2 -11v-149l63 -1v-30h-228v30l57 1v638c0 19 1 21 -3 23s-40 3 -61 4v36c67 2 129 8 175 14c-1 -68 -3 -176 -3 -244v-276c0 -2 0 -4 1 -4c3 0 156 151 156 160c0 3 -43 4 -51 4v32l172 8v-36
c-67 -2 -83 -16 -110 -43l-84 -81c-3 -3 -5 -5 -5 -7s1 -3 6 -9l123 -141c68 -75 70 -77 96 -79v-30z" />
    <glyph glyph-name="l" unicode="l" horiz-adv-x="296" 
d="M258 0h-220v30l56 1v524c0 24 -2 125 -3 129s-5 8 -66 7v38c98 5 134 9 177 17v-715l56 -1v-30z" />
    <glyph glyph-name="m" unicode="m" horiz-adv-x="852" 
d="M40 0v30l52 1v337l-61 2v45l161 16c1 -13 -2 -39 10 -39c2 0 35 13 53 20c34 13 67 22 101 22c40 0 84 -9 112 -52c42 21 105 52 174 52c84 0 126 -40 126 -138v-265l53 -1v-30h-213v30l52 1v289c0 64 -26 72 -74 72c-44 0 -83 -14 -93 -23c-9 -8 -9 -17 -9 -46v-292
l53 -1v-30h-213v30l52 1v297c0 48 -21 63 -74 64c-45 0 -83 -14 -93 -23c-9 -8 -9 -17 -9 -46v-292l53 -1v-30h-213z" />
    <glyph glyph-name="n" unicode="n" horiz-adv-x="574" 
d="M40 0v30l52 1v337l-61 2v46l161 16c0 -36 4 -39 10 -39c13 0 88 41 161 41c87 0 127 -42 127 -130v-273l53 -1v-30h-213v30l52 1v295c0 48 -20 64 -76 64c-47 0 -87 -12 -97 -21c-9 -8 -9 -17 -9 -46v-292l53 -1v-30h-213z" />
    <glyph glyph-name="o" unicode="o" 
d="M34 209c0 130 88 229 228 229c152 0 223 -114 223 -224c0 -121 -83 -231 -225 -231c-108 0 -226 70 -226 226zM146 207c0 -141 50 -198 114 -198c74 0 113 87 113 212c0 115 -39 191 -106 191c-75 0 -121 -85 -121 -205z" />
    <glyph glyph-name="p" unicode="p" horiz-adv-x="556" 
d="M23 -230h59c0 30 1 162 2 189v212c-1 46 -1 58 -2 168l-1 35l-58 2v43l156 17c2 -22 8 -29 18 -29c13 0 64 31 125 31c92 0 200 -70 200 -220c0 -158 -114 -232 -218 -232c-47 0 -88 11 -112 18v-234h74v-30h-243v30zM192 347v-321c13 -4 37 -10 65 -10
c58 0 157 39 157 198c0 127 -72 186 -137 186c-26 0 -59 -8 -75 -18c-9 -5 -10 -10 -10 -35z" />
    <glyph glyph-name="q" unicode="q" horiz-adv-x="556" 
d="M538 -260h-240v30h71c1 28 3 101 3 120v131c-35 -15 -87 -35 -140 -35c-105 0 -200 78 -200 218c0 128 79 234 242 234c11 0 39 -2 67 -4c29 -2 57 -4 66 -4c35 0 53 3 73 6v-666h58v-30zM372 89v265c0 48 -21 58 -69 58c-107 0 -163 -69 -163 -192
c0 -99 41 -192 157 -192c30 0 61 8 67 14c5 5 8 12 8 47z" />
    <glyph glyph-name="r" unicode="r" horiz-adv-x="352" 
d="M40 0v30l52 1v197c0 15 0 136 -5 141c-2 3 -33 4 -51 5v42l157 16c2 -19 6 -58 14 -58c2 0 15 16 34 32c20 16 48 32 79 32c17 0 20 -5 20 -12c0 -24 -1 -86 -15 -86c-20 0 -80 8 -92 8c-25 0 -33 -9 -33 -34v-283l70 -1v-30h-230z" />
    <glyph glyph-name="s" unicode="s" horiz-adv-x="352" 
d="M38 5l-7 110h34c8 -37 21 -107 95 -107c49 0 67 39 67 67c0 104 -193 105 -193 239c0 65 51 124 130 124c28 0 40 -3 93 -18c20 -6 33 -8 42 -9l2 -98h-33c-10 54 -35 101 -92 101c-36 0 -60 -29 -60 -61c0 -96 203 -100 203 -238c0 -55 -38 -131 -141 -131
c-29 0 -49 4 -101 15c-29 5 -32 5 -39 6z" />
    <glyph glyph-name="t" unicode="t" horiz-adv-x="315" 
d="M313 39v-21c-21 -7 -92 -30 -142 -30c-80 0 -94 44 -93 119l3 268h-64v41h48c16 0 17 3 17 21l2 161h106l-2 -172l125 6v-48c-112 -2 -118 -5 -122 -14c-4 -11 -4 -49 -5 -62l-3 -184c-1 -86 21 -94 60 -94c24 0 39 2 70 9z" />
    <glyph glyph-name="u" unicode="u" horiz-adv-x="574" 
d="M39 386v34l155 12v-300c0 -90 24 -112 87 -112c22 0 66 6 85 14c11 4 10 7 10 37v293c0 16 -3 20 -65 22v34l173 12v-392h55v-32c-37 -9 -79 -20 -111 -20c-43 0 -34 29 -45 29c-5 0 -95 -29 -169 -29c-104 0 -128 50 -128 142v251z" />
    <glyph glyph-name="v" unicode="v" horiz-adv-x="426" 
d="M214 -18h-16l-155 376c-11 28 -16 31 -41 33v31h192v-30c-39 -1 -44 -1 -44 -8c0 -4 24 -66 28 -76l71 -187l71 171c26 65 32 79 32 83c0 6 -4 7 -37 9v38h108v-33c-30 -6 -33 -7 -62 -72z" />
    <glyph glyph-name="w" unicode="w" horiz-adv-x="667" 
d="M658 422v-39c-28 -5 -30 -9 -47 -50l-154 -351h-16l-108 289l-124 -289h-16l-137 360c-15 39 -16 44 -44 48v32h182v-32c-35 -1 -39 -1 -39 -13c0 -3 1 -5 5 -19l81 -240l79 186l-28 72c-4 9 -7 13 -44 14v32h210v-32c-49 -2 -53 -7 -53 -21c0 -9 4 -25 9 -38l78 -213
l94 228c4 9 11 25 11 29c0 7 -17 10 -45 11v36h106z" />
    <glyph glyph-name="x" unicode="x" horiz-adv-x="426" 
d="M413 0h-188v30c33 -1 42 0 42 5s-3 11 -5 14l-77 117l-80 -117c-3 -5 -9 -13 -9 -15c0 -3 6 -3 54 -4v-30h-136v30c45 0 48 4 69 34l88 124l-82 125c-45 72 -47 74 -75 77v32h186v-32c-31 -1 -34 -4 -34 -9c0 -4 5 -11 11 -21l56 -86l66 94c6 10 8 12 8 15s-16 6 -38 7
v32h132v-32c-54 -3 -58 -8 -90 -50l-56 -76c-4 -5 -6 -8 -6 -12s3 -8 7 -14l111 -171c20 -30 24 -37 46 -37v-30z" />
    <glyph glyph-name="y" unicode="y" horiz-adv-x="426" 
d="M431 422v-38c-31 -2 -35 -2 -63 -66l-200 -459c-43 -99 -59 -119 -85 -119c-9 0 -71 6 -71 28c0 10 9 42 12 49c1 4 3 7 10 7c0 0 47 -8 56 -8c28 0 38 16 57 59l53 121l-142 350c-15 36 -17 41 -48 44v32h208v-32c-53 0 -57 -2 -57 -12c0 -4 6 -19 10 -30l85 -227
l77 184c14 34 25 60 25 69c0 11 -4 12 -41 12v36h114z" />
    <glyph glyph-name="z" unicode="z" horiz-adv-x="444" 
d="M18 0v12l271 385l-140 -3c-36 -1 -40 -2 -45 -11s-17 -74 -18 -76h-37l3 115h364v-12l-267 -384h179c26 0 29 1 32 25l6 57c2 21 6 21 35 21c14 0 16 -2 15 -16l-9 -113h-389z" />
    <glyph glyph-name="braceleft" unicode="{" horiz-adv-x="352" 
d="M19 242v18c72 21 102 41 102 150v76c0 156 32 226 180 234v-24c-99 -10 -118 -60 -118 -173v-95c0 -122 -30 -156 -130 -176v-2c100 -20 130 -54 130 -176v-95c0 -113 19 -161 118 -171v-24c-148 8 -180 76 -180 232v76c0 109 -30 129 -102 150z" />
    <glyph glyph-name="bar" unicode="|" horiz-adv-x="222" 
d="M79 -214v1000h64v-1000h-64z" />
    <glyph glyph-name="braceright" unicode="}" horiz-adv-x="352" 
d="M332 260v-18c-72 -21 -102 -41 -102 -150v-76c0 -156 -32 -226 -180 -234v24c99 10 118 60 118 173v95c0 122 30 156 130 176v2c-100 20 -130 54 -130 176v95c0 113 -19 161 -118 171v24c148 -8 180 -76 180 -232v-76c0 -109 30 -129 102 -150z" />
    <glyph glyph-name="asciitilde" unicode="~" horiz-adv-x="600" 
d="M40 157h-27c21 120 81 172 143 172c42 0 96 -22 151 -45c54 -22 108 -45 148 -45c53 0 83 39 104 106h28c-13 -55 -44 -174 -146 -174c-44 0 -98 23 -151 45c-54 23 -106 45 -146 45c-51 0 -86 -41 -104 -104z" />
    <glyph glyph-name="exclamdown" unicode="&#xa1;" horiz-adv-x="278" 
d="M156 271l45 -475l-117 -15l44 490h28zM204 374c0 -35 -29 -64 -64 -64s-64 29 -64 64s29 64 64 64s64 -29 64 -64z" />
    <glyph glyph-name="cent" unicode="&#xa2;" 
d="M199 108l133 286c-8 28 -19 34 -50 34c-79 0 -126 -86 -126 -184c0 -59 16 -104 43 -136zM343 346l-119 -259c21 -15 48 -23 76 -23c44 0 89 18 129 79l22 -15c-41 -69 -89 -128 -188 -128c-25 0 -50 4 -74 13l-60 -130h-34l66 142c-62 31 -109 94 -109 196
c0 145 99 233 220 233c32 0 59 -6 81 -15l53 115h34l-59 -129c44 -29 64 -75 64 -110c0 -16 -3 -20 -32 -20c-54 0 -61 12 -68 51h-2z" />
    <glyph glyph-name="sterling" unicode="&#xa3;" 
d="M26 341v34h84c-8 34 -24 94 -24 147c0 115 82 196 200 196c71 0 132 -29 177 -83l-45 -67c-18 50 -44 122 -129 122c-72 0 -111 -59 -111 -126c0 -63 21 -129 33 -189h145v-34h-140c1 -14 3 -33 3 -57c0 -31 -15 -134 -60 -185c58 -8 112 -43 169 -43c73 0 85 58 92 91
l72 -41c-8 -29 -38 -118 -140 -118c-93 0 -129 82 -208 82c-12 -32 -32 -82 -78 -82c-23 0 -39 17 -39 39c0 61 80 70 103 72c7 17 19 44 19 86c0 48 -13 95 -30 156h-93z" />
    <glyph glyph-name="fraction" unicode="&#x2044;" horiz-adv-x="167" 
d="M-167 -12l447 730h54l-446 -730h-55z" />
    <glyph glyph-name="yen" unicode="&#xa5;" 
d="M206 347l-46 79h-139v28h122l-102 176c-21 36 -29 40 -51 40v32c33 -1 70 -2 110 -2c35 0 77 1 129 2v-32c-10 1 -79 0 -79 -10s71 -140 83 -162l60 -108l40 66c17 28 117 192 117 202c0 9 -7 10 -84 12v30c72 0 95 0 164 2v-34c-18 -2 -26 -5 -38 -20
c-7 -9 -27 -39 -49 -72l-79 -122h130v-28h-148l-36 -57v-65h164v-28h-164c0 -44 2 -229 2 -244l96 -2v-32c-44 0 -92 2 -150 2c-59 0 -103 -1 -151 -2v32l97 2c1 49 3 92 2 244h-165v28h165v43z" />
    <glyph glyph-name="florin" unicode="&#x192;" 
d="M120 406h107c13 100 25 192 82 258c43 50 85 78 150 78c22 0 35 -2 46 -4l-15 -73c-24 4 -95 15 -105 15c-11 0 -14 -2 -19 -22c-2 -10 -20 -115 -25 -159l-11 -93h100v-44h-105l-37 -294c-19 -159 -65 -205 -107 -242c-41 -36 -70 -44 -113 -44c-32 0 -54 4 -73 7l8 73
c11 -1 133 -17 137 -18c15 0 18 4 24 46l58 472h-102v44z" />
    <glyph glyph-name="section" unicode="&#xa7;" horiz-adv-x="500" 
d="M264 -145l-12 7c8 16 20 44 20 77c0 176 -178 417 -178 603c0 93 49 200 161 200c71 0 118 -46 118 -112c0 -32 -14 -77 -47 -77c-20 0 -31 17 -31 41c0 45 24 81 24 103c0 19 -28 29 -60 29c-90 0 -123 -83 -123 -164c0 -180 170 -389 170 -582c0 -40 -8 -77 -42 -125z
M205 653l9 -4c-3 -12 -4 -27 -4 -40c0 -130 188 -390 188 -594c0 -109 -51 -239 -182 -239c-82 0 -122 57 -122 114c0 47 29 89 63 89c15 0 29 -13 29 -35c0 -50 -37 -99 -37 -119c0 -16 28 -33 66 -33c114 0 137 117 137 186c0 202 -172 468 -172 587c0 34 11 67 25 88z
" />
    <glyph glyph-name="currency" unicode="&#xa4;" 
d="M382 354c0 68 -55 122 -123 122c-67 0 -122 -54 -122 -122s55 -122 122 -122c68 0 123 54 123 122zM119 473l-62 62l20 21l62 -62c23 18 57 44 120 44c64 0 98 -26 120 -44l62 62l20 -21l-61 -62c17 -22 44 -56 44 -119s-27 -98 -44 -119l61 -62l-20 -21l-62 62
c-22 -18 -56 -44 -120 -44c-63 0 -97 26 -120 44l-62 -62l-20 21l62 62c-17 21 -44 56 -44 119s27 97 44 119z" />
    <glyph glyph-name="quotesingle" unicode="'" horiz-adv-x="222" 
d="M120 372h-18l-35 246c-2 11 -4 32 -4 44c0 43 28 56 48 56s48 -13 48 -56c0 -12 -2 -33 -4 -44z" />
    <glyph glyph-name="quotedblleft" unicode="&#x201c;" horiz-adv-x="500" 
d="M215 551l-31 -79c-31 4 -123 17 -123 79c0 58 104 165 132 191l19 -17c-32 -36 -77 -87 -77 -128s58 -45 80 -46zM438 551l-32 -79c-31 4 -122 17 -122 79c0 58 104 165 131 191l19 -17c-32 -36 -76 -87 -76 -128s57 -45 80 -46z" />
    <glyph glyph-name="guillemotleft" unicode="&#xab;" horiz-adv-x="481" 
d="M55 208v7c62 56 161 145 166 149c1 2 5 5 10 5s10 -4 10 -9c0 -7 -36 -70 -98 -149c61 -78 98 -142 98 -148c0 -5 -5 -9 -10 -9s-9 3 -13 6c-54 48 -109 99 -163 148zM222 208v7c62 56 160 145 165 149c2 2 6 5 11 5s9 -4 9 -9c0 -7 -36 -70 -97 -149
c61 -78 97 -142 97 -148c0 -5 -4 -9 -9 -9s-9 3 -13 6c-54 48 -109 99 -163 148z" />
    <glyph glyph-name="guilsinglleft" unicode="&#x2039;" horiz-adv-x="315" 
d="M55 208v7c62 56 161 145 166 149c1 2 5 5 10 5s10 -4 10 -9c0 -7 -36 -70 -98 -149c61 -78 98 -142 98 -148c0 -5 -5 -9 -10 -9s-9 3 -13 6c-54 48 -109 99 -163 148z" />
    <glyph glyph-name="guilsinglright" unicode="&#x203a;" horiz-adv-x="315" 
d="M259 215v-7c-54 -49 -108 -100 -162 -148c-5 -3 -9 -6 -13 -6c-5 0 -10 4 -10 9c0 6 36 69 97 148c-60 79 -97 142 -97 149c0 5 5 9 10 9c4 0 8 -3 10 -5c5 -4 105 -94 165 -149z" />
    <glyph glyph-name="endash" unicode="&#x2013;" horiz-adv-x="500" 
d="M500 175h-500v72h500v-72z" />
    <glyph glyph-name="dagger" unicode="&#x2020;" horiz-adv-x="500" 
d="M358 444h-216c3 -8 7 -17 7 -28c0 -20 -11 -29 -22 -29c-13 0 -22 12 -22 30c0 58 71 69 129 71c-11 24 -20 51 -20 80c0 27 8 50 20 79c-8 4 -25 12 -25 35c0 16 11 36 41 36s41 -20 41 -36c0 -23 -17 -31 -25 -35c12 -29 20 -52 20 -79c0 -29 -9 -56 -20 -80
c58 -2 129 -13 129 -71c0 -19 -10 -30 -22 -30s-22 10 -22 29c0 11 4 20 7 28zM259 -54h-18c-10 104 -25 276 -33 468h84c-8 -178 -21 -341 -33 -468z" />
    <glyph glyph-name="daggerdbl" unicode="&#x2021;" horiz-adv-x="500" 
d="M258 342h-16l-27 190h-67c1 -5 2 -12 2 -21c0 -15 -6 -30 -23 -30c-8 0 -21 4 -21 25c0 26 25 60 125 66c-11 19 -11 35 -11 39c0 7 1 24 14 46c-7 5 -17 11 -17 29s12 32 33 32s33 -15 33 -32c0 -18 -10 -24 -17 -29c13 -22 14 -39 14 -46c0 -4 0 -20 -11 -39
c104 -6 125 -42 125 -66c0 -21 -13 -25 -21 -25c-18 0 -23 16 -23 30c0 9 1 16 2 21h-67zM242 318h16l27 -190h67c-1 6 -2 12 -2 21c0 15 6 30 23 30c8 0 21 -4 21 -25c0 -26 -25 -60 -125 -66c11 -19 11 -34 11 -39c0 -7 -1 -24 -14 -46c7 -5 17 -11 17 -29
s-12 -31 -33 -31s-33 14 -33 31c0 18 10 24 17 29c-13 22 -14 39 -14 46c0 5 0 20 11 39c-104 6 -125 42 -125 66c0 21 13 25 21 25c18 0 23 -15 23 -30c0 -9 -1 -15 -2 -21h67z" />
    <glyph glyph-name="periodcentered" unicode="&#xb7;" horiz-adv-x="259" 
d="M66 211c0 35 28 63 63 63s63 -28 63 -63s-28 -63 -63 -63s-63 28 -63 63z" />
    <glyph glyph-name="paragraph" unicode="&#xb6;" 
d="M400 -220h-116v36h88v884h99v-34h-71v-886zM294 696v-526c-149 22 -264 116 -264 262c0 161 123 231 264 264z" />
    <glyph glyph-name="bullet" unicode="&#x2022;" horiz-adv-x="500" 
d="M431 351c0 -100 -81 -181 -181 -181s-181 81 -181 181s81 181 181 181s181 -81 181 -181z" />
    <glyph glyph-name="quotesinglbase" unicode="&#x201a;" horiz-adv-x="278" 
d="M62 30l32 78c30 -4 122 -16 122 -79c0 -59 -107 -167 -131 -191l-19 18c31 36 76 87 76 127c0 41 -57 45 -80 47z" />
    <glyph glyph-name="quotedblbase" unicode="&#x201e;" horiz-adv-x="500" 
d="M62 30l32 78c30 -4 122 -16 122 -79c0 -59 -107 -167 -131 -191l-19 18c31 36 76 87 76 127c0 41 -57 45 -80 47zM285 30l31 78c30 -4 123 -16 123 -79c0 -59 -108 -167 -132 -191l-19 18c32 36 77 87 77 127c0 41 -58 45 -80 47z" />
    <glyph glyph-name="quotedblright" unicode="&#x201d;" horiz-adv-x="500" 
d="M62 639l32 79c30 -5 122 -17 122 -80c0 -58 -107 -167 -131 -192l-19 19c31 36 76 87 76 127c0 41 -57 46 -80 47zM285 639l31 79c30 -5 123 -17 123 -80c0 -58 -108 -167 -132 -192l-19 19c32 36 77 87 77 127c0 41 -58 46 -80 47z" />
    <glyph glyph-name="guillemotright" unicode="&#xbb;" horiz-adv-x="481" 
d="M259 215v-7c-54 -49 -108 -100 -162 -148c-5 -3 -9 -6 -13 -6c-5 0 -10 4 -10 9c0 6 36 69 97 148c-60 79 -97 142 -97 149c0 5 5 9 10 9c4 0 8 -3 10 -5c5 -4 105 -94 165 -149zM426 215v-7c-54 -49 -109 -100 -163 -148c-4 -3 -8 -6 -13 -6s-9 4 -9 9c0 6 36 69 97 148
c-61 79 -97 142 -97 149c0 5 5 9 9 9c5 0 8 -3 11 -5c5 -4 105 -94 165 -149z" />
    <glyph glyph-name="ellipsis" unicode="&#x2026;" horiz-adv-x="1000" 
d="M103 52c0 35 29 64 64 64s64 -29 64 -64s-29 -64 -64 -64s-64 29 -64 64zM436 52c0 35 29 64 64 64s64 -29 64 -64s-29 -64 -64 -64s-64 29 -64 64zM769 52c0 35 29 64 64 64s64 -29 64 -64s-29 -64 -64 -64s-64 29 -64 64z" />
    <glyph glyph-name="perthousand" unicode="&#x2030;" horiz-adv-x="1111" 
d="M189 -12h-55l408 652l-2 2c-65 -29 -100 -34 -167 -30c8 -93 -81 -234 -199 -234c-64 0 -112 46 -112 112c0 101 105 209 209 209c44 0 75 -19 93 -58c14 -2 24 -3 37 -3c76 0 141 27 194 80h49zM150 461c0 -29 18 -49 48 -49c67 0 147 114 147 182c0 13 -3 20 -6 28
c-15 7 -38 19 -57 39c-68 -44 -132 -149 -132 -200zM503 7c-51 0 -108 37 -108 114c0 108 110 207 209 207c64 0 100 -45 100 -100c0 -87 -80 -221 -201 -221zM532 41c64 0 144 110 144 183c0 38 -16 56 -48 56c-70 0 -145 -140 -145 -190c0 -20 11 -49 49 -49zM848 7
c-51 0 -108 37 -108 114c0 108 110 207 209 207c64 0 100 -45 100 -100c0 -87 -80 -221 -201 -221zM877 41c64 0 144 110 144 183c0 38 -16 56 -48 56c-70 0 -145 -140 -145 -190c0 -20 11 -49 49 -49z" />
    <glyph glyph-name="questiondown" unicode="&#xbf;" horiz-adv-x="444" 
d="M288 272l6 -147c-12 -8 -148 -93 -148 -174c0 -34 26 -75 97 -75c63 0 118 26 141 37l-12 -104c-43 -17 -88 -27 -134 -27c-113 0 -182 58 -182 137c0 93 82 157 202 222l5 131h25zM336 374c0 -35 -29 -64 -64 -64s-64 29 -64 64s29 64 64 64s64 -29 64 -64z" />
    <glyph glyph-name="grave" unicode="`" horiz-adv-x="296" 
d="M196 488l-172 100c-16 10 -27 21 -27 39c0 23 17 39 37 39c19 0 28 -9 48 -30l141 -148h-27z" />
    <glyph glyph-name="acute" unicode="&#xb4;" horiz-adv-x="296" 
d="M101 488h-28l142 149c15 16 27 29 47 29c21 0 37 -18 37 -38c0 -19 -11 -30 -27 -40z" />
    <glyph glyph-name="circumflex" unicode="&#x2c6;" horiz-adv-x="296" 
d="M148 590l-131 -102h-26l125 172h64l125 -172h-26z" />
    <glyph glyph-name="tilde" unicode="&#x2dc;" horiz-adv-x="296" 
d="M292 626h24c-8 -31 -29 -113 -110 -113c-29 0 -53 12 -76 25c-23 12 -45 24 -69 24c-38 0 -50 -30 -56 -47h-25c15 56 49 110 104 110c29 0 56 -12 81 -25c25 -12 48 -25 68 -25c39 0 53 36 59 51z" />
    <glyph glyph-name="macron" unicode="&#xaf;" horiz-adv-x="296" 
d="M-8 530v58h312v-58h-312z" />
    <glyph glyph-name="breve" unicode="&#x2d8;" horiz-adv-x="296" 
d="M6 648h26c4 -22 16 -93 116 -93s112 71 116 93h26c-1 -32 -3 -159 -142 -159s-141 129 -142 159z" />
    <glyph glyph-name="dotaccent" unicode="&#x2d9;" horiz-adv-x="296" 
d="M209 565c0 -38 -31 -69 -66 -69c-33 0 -56 22 -56 57c0 37 31 69 66 69c28 0 56 -19 56 -57z" />
    <glyph glyph-name="dieresis" unicode="&#xa8;" horiz-adv-x="296" 
d="M107 565c0 -37 -29 -67 -62 -67c-31 0 -52 22 -52 55c0 35 27 65 61 65c26 0 53 -18 53 -53zM304 565c0 -37 -29 -67 -62 -67c-31 0 -52 22 -52 55c0 35 27 65 61 65c26 0 53 -18 53 -53z" />
    <glyph glyph-name="ring" unicode="&#x2da;" horiz-adv-x="296" 
d="M250 584c0 -56 -46 -102 -102 -102s-102 46 -102 102s46 102 102 102s102 -46 102 -102zM210 584c0 34 -28 62 -62 62s-62 -28 -62 -62s28 -62 62 -62s62 28 62 62z" />
    <glyph glyph-name="cedilla" unicode="&#xb8;" horiz-adv-x="296" 
d="M125 0h25l-31 -70c10 4 22 10 44 10c47 0 83 -29 83 -75c0 -54 -51 -84 -121 -84c-30 0 -59 5 -87 18l8 23c15 -5 37 -13 63 -13c47 0 61 27 61 49c0 28 -23 42 -46 42c-14 0 -23 -4 -31 -7l-13 7z" />
    <glyph glyph-name="hungarumlaut" unicode="&#x2dd;" horiz-adv-x="296" 
d="M-2 482l130 153c20 22 30 31 48 31c24 0 36 -20 36 -38s-9 -28 -27 -40l-159 -106h-28zM186 489h-28l142 148c14 15 26 29 47 29s37 -18 37 -38c0 -19 -11 -30 -27 -40z" />
    <glyph glyph-name="ogonek" unicode="&#x2db;" horiz-adv-x="296" 
d="M244 13v-11c-61 -20 -150 -61 -150 -126c0 -33 26 -52 57 -52c40 0 80 23 101 35l12 -21c-46 -29 -93 -58 -150 -58c-56 0 -94 34 -94 82c0 96 132 135 224 151z" />
    <glyph glyph-name="caron" unicode="&#x2c7;" horiz-adv-x="296" 
d="M149 558l131 102h26l-125 -172h-64l-125 172h26z" />
    <glyph glyph-name="emdash" unicode="&#x2014;" horiz-adv-x="1000" 
d="M870 175h-740v72h740v-72z" />
    <glyph glyph-name="AE" unicode="&#xc6;" horiz-adv-x="963" 
d="M416 327h-198l-163 -263c-4 -6 -10 -18 -10 -22c0 -8 8 -11 81 -13v-29c-99 0 -123 0 -172 -2v33c39 4 40 6 77 62c117 179 231 360 344 542c7 11 16 24 16 28s-32 5 -68 8v31c64 -1 105 -2 158 -2h227c94 0 152 2 184 2v-150h-49c-4 74 -6 97 -30 110
c-26 12 -49 12 -93 12h-174v-292c128 1 136 3 147 13c16 14 14 66 19 112h43c-1 -37 -2 -76 -2 -116c0 -50 2 -95 4 -158h-46c-7 67 -7 98 -16 110c-7 11 -42 13 -149 13c0 -51 0 -251 2 -283c2 -31 16 -45 86 -45h200l48 154h44l-15 -182h-273c-61 0 -259 -2 -306 -2v31
l82 3c2 62 2 222 2 295zM235 355h181v279h-5z" />
    <glyph glyph-name="ordfeminine" unicode="&#xaa;" horiz-adv-x="352" 
d="M310 479v-16c-44 -11 -63 -16 -81 -16c-24 0 -26 14 -27 32c-16 -11 -59 -33 -99 -33c-30 0 -59 17 -59 54c0 71 111 81 160 85c0 21 1 43 1 74c0 30 -12 35 -43 35c-35 0 -40 -5 -43 -21c0 -22 -1 -55 -43 -55c-18 0 -19 21 -19 27c0 58 112 73 145 73
c51 0 71 -23 71 -65l-2 -174h39zM203 506v53c0 6 -1 10 -7 10c-3 0 -86 -12 -86 -59c0 -18 13 -30 36 -30c20 0 57 6 57 26z" />
    <glyph glyph-name="Lslash" unicode="&#x141;" horiz-adv-x="630" 
d="M619 194l-19 -196c-55 1 -171 2 -286 2s-228 0 -279 -2v32l82 2c2 53 3 66 3 194v49l-95 -61v40l95 61c0 260 0 295 -3 352l-82 3v32c28 0 66 -2 153 -2c86 0 125 2 152 2v-32l-88 -3c-1 -33 -2 -149 -2 -269l174 111v-40l-174 -111c0 -141 0 -257 2 -272
c6 -48 18 -56 159 -56c31 0 76 3 108 4l54 160h46z" />
    <glyph glyph-name="Oslash" unicode="&#xd8;" horiz-adv-x="815" 
d="M230 131l328 488c-37 45 -85 73 -145 73c-76 0 -236 -57 -236 -343c0 -86 20 -161 53 -218zM585 579l-327 -487c42 -54 97 -84 155 -84c156 0 225 193 225 349c0 77 -18 159 -53 222zM217 31l-80 -119h-54l96 143c-84 63 -136 163 -136 290c0 218 156 373 370 373
c70 0 131 -15 183 -43l59 89h54l-75 -112c88 -64 138 -168 138 -294c0 -178 -117 -376 -363 -376c-71 0 -137 17 -192 49z" />
    <glyph glyph-name="OE" unicode="&#x152;" horiz-adv-x="1074" 
d="M998 703v-151h-48c-5 74 -7 97 -31 110c-26 12 -96 12 -157 12h-110v-292c128 0 136 3 147 13c14 13 14 50 19 112h43c0 -37 -1 -76 -1 -116c0 -50 1 -95 3 -158h-46c-4 43 -6 104 -19 114c-6 5 -39 9 -146 9c0 -51 0 -251 1 -283c1 -31 11 -45 100 -45h187l48 154h44
l-14 -182h-308c-81 0 -136 -4 -181 -8c-45 -5 -80 -10 -121 -10c-237 0 -365 137 -365 372c0 172 88 364 360 364c45 0 87 -5 134 -9c47 -5 98 -9 159 -9c86 0 217 1 302 3zM177 349c0 -204 77 -341 235 -341c58 0 102 18 107 42c3 14 3 310 3 348c0 30 0 237 -3 251
c-6 26 -51 43 -107 43c-164 0 -235 -147 -235 -343z" />
    <glyph glyph-name="ordmasculine" unicode="&#xba;" horiz-adv-x="352" 
d="M28 580c0 78 58 138 149 138c99 0 145 -69 145 -135c0 -72 -54 -137 -146 -137c-70 0 -148 41 -148 134zM102 579c0 -84 32 -111 74 -111c48 0 72 45 72 120c0 69 -24 108 -67 108c-49 0 -79 -45 -79 -117z" />
    <glyph glyph-name="ae" unicode="&#xe6;" horiz-adv-x="704" 
d="M271 89l1 99c1 17 -2 20 -7 20c-19 0 -130 -25 -130 -124c0 -37 20 -58 59 -58c26 0 60 11 71 17c5 4 6 34 6 46zM398 242l155 6c8 0 11 7 11 52c0 62 -19 112 -71 112c-75 0 -114 -91 -114 -161c0 -7 1 -10 19 -9zM643 116l22 -13c-19 -35 -68 -119 -192 -119
c-102 0 -149 68 -150 68c-4 0 -95 -68 -184 -68c-79 0 -108 42 -108 92c0 125 146 151 243 156c1 31 3 62 3 111c0 47 -9 59 -64 59c-51 0 -60 -4 -62 -25c-7 -66 -7 -73 -21 -86s-35 -19 -48 -19c-20 0 -31 21 -31 44c0 97 173 122 216 122c80 0 89 -43 93 -43
c6 0 41 43 125 43c140 0 179 -99 179 -163c0 -34 -8 -51 -16 -52c-5 -1 -12 -2 -71 -4l-176 -5c-22 0 -24 -2 -24 -17c0 -78 45 -153 138 -153c79 0 114 51 128 72z" />
    <glyph glyph-name="dotlessi" unicode="&#x131;" horiz-adv-x="296" 
d="M41 0v30l57 1v317c0 26 -5 30 -50 33v33l158 18v-401l56 -1v-30h-221z" />
    <glyph glyph-name="lslash" unicode="&#x142;" horiz-adv-x="296" 
d="M202 408v-377l56 -1v-30h-220v30l56 1v308l-83 -53v34l83 53v182c0 24 -2 125 -3 129s-5 8 -66 7v38c98 5 134 9 177 17v-304l83 53v-34z" />
    <glyph glyph-name="oslash" unicode="&#xf8;" 
d="M160 100l180 268c-18 28 -42 44 -73 44c-75 0 -121 -85 -121 -205c0 -44 5 -80 14 -107zM359 327l-181 -269c20 -34 49 -49 82 -49c74 0 113 87 113 212c0 41 -5 78 -14 106zM440 518h46l-83 -125c55 -42 82 -111 82 -179c0 -121 -83 -231 -225 -231c-39 0 -79 9 -113 28
l-79 -118h-47l93 139c-47 36 -80 95 -80 177c0 130 88 229 228 229c42 0 78 -9 108 -25z" />
    <glyph glyph-name="oe" unicode="&#x153;" horiz-adv-x="796" 
d="M500 284h134c24 0 30 6 30 31c0 46 -22 97 -77 97c-72 0 -107 -92 -107 -119c0 -5 4 -9 20 -9zM743 116l22 -13c-21 -37 -68 -119 -194 -119c-60 0 -114 22 -151 63c-38 -39 -92 -64 -160 -64c-108 0 -226 70 -226 226c0 130 88 229 228 229c74 0 128 -27 164 -67
c39 42 94 67 160 67c126 0 178 -92 178 -161c0 -14 -6 -21 -23 -21h-252c-18 0 -22 -6 -22 -31c0 -54 22 -181 146 -181c71 0 107 39 130 72zM146 207c0 -141 50 -198 114 -198c74 0 113 87 113 212c0 115 -39 191 -106 191c-75 0 -121 -85 -121 -205z" />
    <glyph glyph-name="germandbls" unicode="&#xdf;" horiz-adv-x="574" 
d="M35 0v30l53 1v452c0 205 80 260 210 260c117 0 192 -60 192 -162c0 -67 -32 -125 -124 -151c-12 -4 -14 -4 -14 -8s3 -5 27 -11c35 -10 160 -44 160 -209c0 -116 -72 -214 -179 -214c-85 0 -107 58 -107 98c0 23 3 29 50 29c32 0 40 -8 40 -29c0 -25 -12 -72 27 -72
c59 0 61 131 61 188c0 139 -31 196 -135 199c-38 1 -42 2 -42 15c0 11 6 12 39 16c41 5 97 12 97 145c0 89 -32 140 -100 140c-62 0 -94 -29 -94 -205v-481l27 -1v-30h-188z" />
    <glyph glyph-name="logicalnot" unicode="&#xac;" horiz-adv-x="600" 
d="M49 320v64h502v-264h-64v200h-438z" />
    <glyph glyph-name="mu" unicode="&#xb5;" horiz-adv-x="574" 
d="M539 40v-32c-37 -9 -79 -20 -111 -20c-43 0 -34 29 -45 29c-5 0 -90 -29 -125 -29c-28 0 -53 9 -64 12v-244c0 -13 -3 -16 -23 -16h-70c-12 0 -15 0 -15 21v620l-47 5v34l155 12v-300c0 -90 24 -112 87 -112c22 0 66 6 85 14c11 4 10 7 10 37v293c0 16 -3 20 -65 22v34
l173 12v-392h55z" />
    <glyph glyph-name="trademark" unicode="&#x2122;" horiz-adv-x="944" 
d="M31 603h-31l7 97c59 0 112 -1 178 -1c70 0 117 1 179 1l-5 -95h-30c-1 13 -3 64 -10 70c-10 8 -87 6 -96 6c-2 -55 -2 -299 0 -353l43 -2v-21c-16 1 -35 2 -86 2c-50 0 -69 -1 -85 -2v21l43 2c2 54 2 298 0 353h-34c-53 0 -61 0 -73 -78zM892 326v-21c-36 1 -64 2 -87 2
c-13 0 -68 -2 -86 -2v21l45 2c1 54 2 225 -1 320h-2l-148 -348h-9l-165 346l-2 -2l5 -316l52 -2v-21c-24 1 -46 2 -60 2c-17 0 -39 -1 -60 -2v21l43 2c1 42 3 272 -2 349l-34 2v21h120l137 -290l124 289c43 0 84 0 128 1v-21l-45 -2c-2 -68 2 -267 4 -349z" />
    <glyph glyph-name="Eth" unicode="&#xd0;" horiz-adv-x="815" 
d="M20 342v34h100c0 207 -1 240 -3 291l-77 3v30c55 0 298 8 347 8c218 0 385 -125 385 -354c0 -242 -176 -356 -384 -356c-50 0 -180 2 -207 2c-58 0 -96 -1 -141 -2v32l77 2c2 53 3 66 3 194v116h-100zM447 376v-34h-197c0 -54 0 -98 1 -264c0 -48 17 -54 110 -54
c156 0 281 128 281 320c0 212 -134 336 -340 336c-22 0 -45 -4 -49 -15c-2 -7 -3 -236 -3 -267v-22h197z" />
    <glyph glyph-name="onehalf" unicode="&#xbd;" horiz-adv-x="833" 
d="M147 -12l447 730h54l-446 -730h-55zM486 -1v14c46 41 210 183 210 255c0 25 -17 59 -73 59c-61 0 -107 -35 -115 -35c-5 0 -4 7 -4 9l12 89c55 27 105 27 120 27c70 0 134 -38 134 -111c0 -61 -39 -97 -169 -218h158l9 41h27l-12 -129h-133c-114 0 -127 0 -164 -1z
M58 300v28l75 5c2 87 2 88 2 136l1 197l-73 1v36l166 12l-1 -382l75 -5v-28c-48 1 -86 2 -124 2s-75 -1 -121 -2z" />
    <glyph glyph-name="plusminus" unicode="&#xb1;" horiz-adv-x="600" 
d="M268 94v173h-219v64h219v171h64v-171h219v-64h-219v-173h-64zM49 0v64h502v-64h-502z" />
    <glyph glyph-name="Thorn" unicode="&#xde;" horiz-adv-x="648" 
d="M258 32l85 -3v-32c-26 1 -66 3 -149 3c-90 0 -126 -2 -156 -3v32l86 3c1 53 2 66 2 194c0 338 0 375 -2 441l-86 4v32c30 -2 66 -3 156 -3c83 0 123 2 149 3v-32l-85 -4c-1 -42 -1 -55 -2 -127c27 2 80 6 121 6c119 0 223 -51 223 -184c0 -164 -149 -196 -283 -196
c-26 0 -47 1 -61 2c1 -74 1 -89 2 -136zM256 512v-318c168 0 226 62 226 165c0 112 -72 155 -173 155c-16 0 -26 0 -53 -2z" />
    <glyph glyph-name="onequarter" unicode="&#xbc;" horiz-adv-x="833" 
d="M622 -12l2 124h-202v18l276 288h16l-1 -240l64 1v-67h-64v-124h-91zM625 177l2 134l-129 -136zM147 -12l447 730h54l-446 -730h-55zM58 300v28l75 5c2 87 2 88 2 136l1 197l-73 1v36l166 12l-1 -382l75 -5v-28c-48 1 -86 2 -124 2s-75 -1 -121 -2z" />
    <glyph glyph-name="divide" unicode="&#xf7;" horiz-adv-x="600" 
d="M355 430c0 -30 -25 -55 -55 -55c-31 0 -56 25 -56 55c0 31 25 56 56 56c30 0 55 -25 55 -56zM355 71c0 -30 -25 -55 -55 -55c-31 0 -56 25 -56 55c0 31 25 56 56 56c30 0 55 -25 55 -56zM551 283v-64h-502v64h502z" />
    <glyph glyph-name="brokenbar" unicode="&#xa6;" horiz-adv-x="222" 
d="M79 -89v250h64v-250h-64zM79 411v250h64v-250h-64z" />
    <glyph glyph-name="degree" unicode="&#xb0;" horiz-adv-x="400" 
d="M344 574c0 -80 -65 -144 -144 -144s-144 64 -144 144c0 79 65 144 144 144s144 -65 144 -144zM296 574c0 53 -42 96 -96 96s-96 -43 -96 -96c0 -54 42 -96 96 -96s96 42 96 96z" />
    <glyph glyph-name="thorn" unicode="&#xfe;" horiz-adv-x="556" 
d="M19 -230h59c1 30 2 162 2 189v544c0 53 -4 166 -4 186l-68 1v36c89 7 129 11 182 20c-1 -68 -2 -134 -2 -201v-128c0 -7 2 -12 6 -12c7 0 62 33 125 33c93 0 199 -71 199 -220c0 -158 -113 -232 -217 -232c-47 0 -88 11 -113 18v-234h75v-30h-244v30zM188 347v-321
c13 -4 37 -10 66 -10c78 0 156 58 156 198c0 136 -80 186 -132 186c-30 0 -64 -8 -80 -18c-8 -5 -10 -10 -10 -35z" />
    <glyph glyph-name="threequarters" unicode="&#xbe;" horiz-adv-x="833" 
d="M622 -12l2 124h-202v18l276 288h16l-1 -240l64 1v-67h-64v-124h-91zM625 177l2 134l-129 -136zM147 -12l447 730h54l-446 -730h-55zM53 614l11 89c22 6 58 15 98 15c96 0 128 -52 128 -93c0 -50 -46 -72 -73 -83v-2c18 -3 94 -20 94 -96c0 -125 -215 -157 -253 -157
c-9 0 -11 1 -11 13c0 10 3 11 29 17c69 15 145 38 145 97c0 64 -77 69 -108 71c-36 3 -40 6 -40 12c0 12 4 14 13 15c8 1 128 21 128 78c0 21 -16 48 -67 48c-8 0 -44 0 -94 -24z" />
    <glyph glyph-name="registered" unicode="&#xae;" horiz-adv-x="800" 
d="M728 349c0 182 -147 329 -328 329s-328 -147 -328 -329c0 -181 147 -327 328 -327s328 146 328 327zM768 349c0 -203 -165 -367 -368 -367s-368 164 -368 367c0 204 165 369 368 369s368 -165 368 -369zM232 534v14h181c63 0 123 -29 123 -95c0 -55 -37 -94 -79 -110
l55 -84c28 -38 62 -76 83 -89v-9h-62c-36 0 -69 67 -142 172h-38v-116c0 -34 5 -36 45 -40v-16h-166v16c46 4 51 6 51 40v277c0 34 -5 36 -51 40zM353 528v-175h42c52 0 71 38 71 98s-31 77 -74 77h-39z" />
    <glyph glyph-name="minus" unicode="&#x2212;" horiz-adv-x="600" 
d="M49 219v64h502v-64h-502z" />
    <glyph glyph-name="eth" unicode="&#xf0;" 
d="M233 570l-150 -56l-10 27l145 54l-75 117l92 34l76 -116l141 53l10 -28l-134 -50c92 -138 157 -237 157 -376c0 -147 -94 -246 -225 -246c-107 0 -226 68 -226 227c0 143 95 228 218 228c16 0 29 -2 39 -3c10 -2 17 -4 20 -4s5 1 5 4c0 6 -75 122 -83 135zM146 207
c0 -141 50 -198 114 -198c74 0 113 87 113 212c0 115 -39 191 -106 191c-75 0 -121 -85 -121 -205z" />
    <glyph glyph-name="multiply" unicode="&#xd7;" horiz-adv-x="600" 
d="M62 58l193 193l-193 194l44 45l194 -194l193 194l45 -45l-193 -194l193 -193l-45 -45l-193 193l-194 -193z" />
    <glyph glyph-name="copyright" unicode="&#xa9;" horiz-adv-x="800" 
d="M550 267l21 -13c-34 -66 -92 -114 -178 -114c-106 0 -203 80 -203 206c0 119 90 218 212 218c73 0 108 -34 122 -34c13 0 14 12 16 22h21l5 -152h-24c-12 48 -34 138 -125 138c-89 0 -131 -98 -131 -189c0 -106 50 -173 130 -173c74 0 115 60 134 91zM768 349
c0 -203 -165 -367 -368 -367s-368 164 -368 367c0 204 165 369 368 369s368 -165 368 -369zM728 349c0 182 -147 329 -328 329s-328 -147 -328 -329c0 -181 147 -327 328 -327s328 146 328 327z" />
    <glyph glyph-name="Aacute" unicode="&#xc1;" horiz-adv-x="630" 
d="M638 31v-34c-44 2 -82 3 -136 3c-37 0 -71 -1 -149 -3v32c83 2 90 7 90 12c0 6 -3 15 -7 25l-65 173c-6 15 -8 15 -26 15h-172c-13 0 -16 -3 -22 -18l-61 -161c-5 -14 -9 -26 -9 -30c0 -11 7 -15 82 -16v-32c-28 1 -59 3 -90 3c-35 0 -62 -2 -82 -3v34c33 3 41 8 51 27
c12 23 104 247 123 297l139 363h15l233 -576c14 -35 30 -68 41 -89c9 -17 24 -21 45 -22zM190 282h149c7 1 12 4 12 7s-1 5 -4 13l-79 212c-1 4 -4 9 -6 9s-3 -5 -6 -11l-80 -210c-2 -7 -4 -11 -4 -14s4 -6 18 -6zM268 768h-28l142 149c15 16 27 29 47 29
c21 0 37 -18 37 -38c0 -19 -11 -30 -27 -40z" />
    <glyph glyph-name="Acircumflex" unicode="&#xc2;" horiz-adv-x="630" 
d="M638 31v-34c-44 2 -82 3 -136 3c-37 0 -71 -1 -149 -3v32c83 2 90 7 90 12c0 6 -3 15 -7 25l-65 173c-6 15 -8 15 -26 15h-172c-13 0 -16 -3 -22 -18l-61 -161c-5 -14 -9 -26 -9 -30c0 -11 7 -15 82 -16v-32c-28 1 -59 3 -90 3c-35 0 -62 -2 -82 -3v34c33 3 41 8 51 27
c12 23 104 247 123 297l139 363h15l233 -576c14 -35 30 -68 41 -89c9 -17 24 -21 45 -22zM190 282h149c7 1 12 4 12 7s-1 5 -4 13l-79 212c-1 4 -4 9 -6 9s-3 -5 -6 -11l-80 -210c-2 -7 -4 -11 -4 -14s4 -6 18 -6zM315 870l-131 -102h-26l125 172h64l125 -172h-26z" />
    <glyph glyph-name="Adieresis" unicode="&#xc4;" horiz-adv-x="630" 
d="M638 31v-34c-44 2 -82 3 -136 3c-37 0 -71 -1 -149 -3v32c83 2 90 7 90 12c0 6 -3 15 -7 25l-65 173c-6 15 -8 15 -26 15h-172c-13 0 -16 -3 -22 -18l-61 -161c-5 -14 -9 -26 -9 -30c0 -11 7 -15 82 -16v-32c-28 1 -59 3 -90 3c-35 0 -62 -2 -82 -3v34c33 3 41 8 51 27
c12 23 104 247 123 297l139 363h15l233 -576c14 -35 30 -68 41 -89c9 -17 24 -21 45 -22zM190 282h149c7 1 12 4 12 7s-1 5 -4 13l-79 212c-1 4 -4 9 -6 9s-3 -5 -6 -11l-80 -210c-2 -7 -4 -11 -4 -14s4 -6 18 -6zM274 845c0 -37 -29 -67 -62 -67c-31 0 -52 22 -52 55
c0 35 27 65 61 65c26 0 53 -18 53 -53zM471 845c0 -37 -29 -67 -62 -67c-31 0 -52 22 -52 55c0 35 27 65 61 65c26 0 53 -18 53 -53z" />
    <glyph glyph-name="Agrave" unicode="&#xc0;" horiz-adv-x="630" 
d="M638 31v-34c-44 2 -82 3 -136 3c-37 0 -71 -1 -149 -3v32c83 2 90 7 90 12c0 6 -3 15 -7 25l-65 173c-6 15 -8 15 -26 15h-172c-13 0 -16 -3 -22 -18l-61 -161c-5 -14 -9 -26 -9 -30c0 -11 7 -15 82 -16v-32c-28 1 -59 3 -90 3c-35 0 -62 -2 -82 -3v34c33 3 41 8 51 27
c12 23 104 247 123 297l139 363h15l233 -576c14 -35 30 -68 41 -89c9 -17 24 -21 45 -22zM190 282h149c7 1 12 4 12 7s-1 5 -4 13l-79 212c-1 4 -4 9 -6 9s-3 -5 -6 -11l-80 -210c-2 -7 -4 -11 -4 -14s4 -6 18 -6zM363 768l-172 100c-16 10 -27 21 -27 39c0 23 17 39 37 39
c19 0 28 -9 48 -30l141 -148h-27z" />
    <glyph glyph-name="Aring" unicode="&#xc5;" horiz-adv-x="630" 
d="M638 31v-34c-44 2 -82 3 -136 3c-37 0 -71 -1 -149 -3v32c83 2 90 7 90 12c0 6 -3 15 -7 25l-65 173c-6 15 -8 15 -26 15h-172c-13 0 -16 -3 -22 -18l-61 -161c-5 -14 -9 -26 -9 -30c0 -11 7 -15 82 -16v-32c-28 1 -59 3 -90 3c-35 0 -62 -2 -82 -3v34c33 3 41 8 51 27
c12 23 104 247 123 297l139 363h15l233 -576c14 -35 30 -68 41 -89c9 -17 24 -21 45 -22zM190 282h149c7 1 12 4 12 7s-1 5 -4 13l-79 212c-1 4 -4 9 -6 9s-3 -5 -6 -11l-80 -210c-2 -7 -4 -11 -4 -14s4 -6 18 -6zM417 864c0 -56 -46 -102 -102 -102s-102 46 -102 102
s46 102 102 102s102 -46 102 -102zM377 864c0 34 -28 62 -62 62s-62 -28 -62 -62s28 -62 62 -62s62 28 62 62z" />
    <glyph glyph-name="Atilde" unicode="&#xc3;" horiz-adv-x="630" 
d="M638 31v-34c-44 2 -82 3 -136 3c-37 0 -71 -1 -149 -3v32c83 2 90 7 90 12c0 6 -3 15 -7 25l-65 173c-6 15 -8 15 -26 15h-172c-13 0 -16 -3 -22 -18l-61 -161c-5 -14 -9 -26 -9 -30c0 -11 7 -15 82 -16v-32c-28 1 -59 3 -90 3c-35 0 -62 -2 -82 -3v34c33 3 41 8 51 27
c12 23 104 247 123 297l139 363h15l233 -576c14 -35 30 -68 41 -89c9 -17 24 -21 45 -22zM190 282h149c7 1 12 4 12 7s-1 5 -4 13l-79 212c-1 4 -4 9 -6 9s-3 -5 -6 -11l-80 -210c-2 -7 -4 -11 -4 -14s4 -6 18 -6zM459 906h24c-8 -31 -29 -113 -110 -113
c-29 0 -53 12 -76 25c-23 12 -45 24 -69 24c-38 0 -50 -30 -56 -47h-25c15 56 49 110 104 110c29 0 56 -12 81 -25c25 -12 48 -25 68 -25c39 0 53 36 59 51z" />
    <glyph glyph-name="Ccedilla" unicode="&#xc7;" horiz-adv-x="778" 
d="M683 236h29c-9 -67 -11 -150 -12 -165c-40 -24 -147 -89 -303 -89c-5 0 -10 0 -14 1l-23 -53c10 4 22 10 44 10c47 0 83 -29 83 -75c0 -54 -51 -84 -121 -84c-30 0 -59 5 -87 18l8 23c15 -5 37 -13 63 -13c47 0 61 27 61 49c0 28 -23 42 -46 42c-14 0 -23 -4 -31 -7
l-13 7l38 84c-200 20 -316 192 -316 364c0 184 126 370 353 370c131 0 234 -67 253 -67c12 0 17 13 18 19h37l2 -202h-32c-37 118 -111 218 -245 218c-163 0 -252 -158 -252 -325c0 -189 108 -345 266 -345c173 0 225 171 240 220z" />
    <glyph glyph-name="Eacute" unicode="&#xc9;" horiz-adv-x="685" 
d="M648 182l-14 -182h-292c-62 0 -260 -2 -307 -2v32l82 2c2 53 3 66 3 194c0 338 0 375 -3 441l-82 3v32c57 -1 112 -3 222 -3c48 0 313 3 357 3v-150h-48c-5 74 -7 97 -31 110c-26 12 -95 12 -123 12h-162v-292c71 0 140 2 151 8c15 8 23 38 26 117h44
c-1 -37 -3 -76 -3 -116c0 -50 3 -95 4 -158h-46c-7 84 -6 103 -20 114c-12 9 -125 9 -156 9c0 -51 0 -251 2 -283c3 -39 9 -45 99 -45h205l48 154h44zM296 768h-28l142 149c15 16 27 29 47 29c21 0 37 -18 37 -38c0 -19 -11 -30 -27 -40z" />
    <glyph glyph-name="Ecircumflex" unicode="&#xca;" horiz-adv-x="685" 
d="M648 182l-14 -182h-292c-62 0 -260 -2 -307 -2v32l82 2c2 53 3 66 3 194c0 338 0 375 -3 441l-82 3v32c57 -1 112 -3 222 -3c48 0 313 3 357 3v-150h-48c-5 74 -7 97 -31 110c-26 12 -95 12 -123 12h-162v-292c71 0 140 2 151 8c15 8 23 38 26 117h44
c-1 -37 -3 -76 -3 -116c0 -50 3 -95 4 -158h-46c-7 84 -6 103 -20 114c-12 9 -125 9 -156 9c0 -51 0 -251 2 -283c3 -39 9 -45 99 -45h205l48 154h44zM343 870l-131 -102h-26l125 172h64l125 -172h-26z" />
    <glyph glyph-name="Edieresis" unicode="&#xcb;" horiz-adv-x="685" 
d="M648 182l-14 -182h-292c-62 0 -260 -2 -307 -2v32l82 2c2 53 3 66 3 194c0 338 0 375 -3 441l-82 3v32c57 -1 112 -3 222 -3c48 0 313 3 357 3v-150h-48c-5 74 -7 97 -31 110c-26 12 -95 12 -123 12h-162v-292c71 0 140 2 151 8c15 8 23 38 26 117h44
c-1 -37 -3 -76 -3 -116c0 -50 3 -95 4 -158h-46c-7 84 -6 103 -20 114c-12 9 -125 9 -156 9c0 -51 0 -251 2 -283c3 -39 9 -45 99 -45h205l48 154h44zM302 845c0 -37 -29 -67 -62 -67c-31 0 -52 22 -52 55c0 35 27 65 61 65c26 0 53 -18 53 -53zM499 845
c0 -37 -29 -67 -62 -67c-31 0 -52 22 -52 55c0 35 27 65 61 65c26 0 53 -18 53 -53z" />
    <glyph glyph-name="Egrave" unicode="&#xc8;" horiz-adv-x="685" 
d="M648 182l-14 -182h-292c-62 0 -260 -2 -307 -2v32l82 2c2 53 3 66 3 194c0 338 0 375 -3 441l-82 3v32c57 -1 112 -3 222 -3c48 0 313 3 357 3v-150h-48c-5 74 -7 97 -31 110c-26 12 -95 12 -123 12h-162v-292c71 0 140 2 151 8c15 8 23 38 26 117h44
c-1 -37 -3 -76 -3 -116c0 -50 3 -95 4 -158h-46c-7 84 -6 103 -20 114c-12 9 -125 9 -156 9c0 -51 0 -251 2 -283c3 -39 9 -45 99 -45h205l48 154h44zM391 768l-172 100c-16 10 -27 21 -27 39c0 23 17 39 37 39c19 0 28 -9 48 -30l141 -148h-27z" />
    <glyph glyph-name="Iacute" unicode="&#xcd;" horiz-adv-x="370" 
d="M252 32l77 -2v-32c-26 0 -66 2 -144 2c-77 0 -118 -2 -144 -2v32l76 2c2 53 3 66 3 194c0 338 0 375 -3 441l-76 3v32c26 0 67 -2 144 -2c78 0 118 2 144 2v-32l-77 -3c-2 -53 -2 -66 -2 -193c0 -338 0 -376 2 -442zM138 768h-28l142 149c15 16 27 29 47 29
c21 0 37 -18 37 -38c0 -19 -11 -30 -27 -40z" />
    <glyph glyph-name="Icircumflex" unicode="&#xce;" horiz-adv-x="370" 
d="M252 32l77 -2v-32c-26 0 -66 2 -144 2c-77 0 -118 -2 -144 -2v32l76 2c2 53 3 66 3 194c0 338 0 375 -3 441l-76 3v32c26 0 67 -2 144 -2c78 0 118 2 144 2v-32l-77 -3c-2 -53 -2 -66 -2 -193c0 -338 0 -376 2 -442zM185 870l-131 -102h-26l125 172h64l125 -172h-26z" />
    <glyph glyph-name="Idieresis" unicode="&#xcf;" horiz-adv-x="370" 
d="M252 32l77 -2v-32c-26 0 -66 2 -144 2c-77 0 -118 -2 -144 -2v32l76 2c2 53 3 66 3 194c0 338 0 375 -3 441l-76 3v32c26 0 67 -2 144 -2c78 0 118 2 144 2v-32l-77 -3c-2 -53 -2 -66 -2 -193c0 -338 0 -376 2 -442zM144 845c0 -37 -29 -67 -62 -67c-31 0 -52 22 -52 55
c0 35 27 65 61 65c26 0 53 -18 53 -53zM341 845c0 -37 -29 -67 -62 -67c-31 0 -52 22 -52 55c0 35 27 65 61 65c26 0 53 -18 53 -53z" />
    <glyph glyph-name="Igrave" unicode="&#xcc;" horiz-adv-x="370" 
d="M252 32l77 -2v-32c-26 0 -66 2 -144 2c-77 0 -118 -2 -144 -2v32l76 2c2 53 3 66 3 194c0 338 0 375 -3 441l-76 3v32c26 0 67 -2 144 -2c78 0 118 2 144 2v-32l-77 -3c-2 -53 -2 -66 -2 -193c0 -338 0 -376 2 -442zM233 768l-172 100c-16 10 -27 21 -27 39
c0 23 17 39 37 39c19 0 28 -9 48 -30l141 -148h-27z" />
    <glyph glyph-name="Ntilde" unicode="&#xd1;" horiz-adv-x="796" 
d="M678 -12h-18c-28 35 -54 68 -95 113c-64 74 -355 397 -414 462l1 -278c0 -40 5 -217 5 -253l90 -2v-32c-31 0 -69 2 -108 2c-38 0 -71 -1 -108 -2v32l83 2c2 46 5 250 6 291v202c0 62 0 68 -9 80c-8 12 -35 50 -80 63v34c59 -2 81 -2 179 -2c48 -59 75 -92 222 -257
c103 -116 152 -173 218 -248l1 185c1 94 0 194 -3 287l-86 3v32c53 -1 80 -2 103 -2c24 0 57 1 104 2v-32l-81 -3c-2 -53 -6 -246 -7 -315zM542 906h24c-8 -31 -29 -113 -110 -113c-29 0 -53 12 -76 25c-23 12 -45 24 -69 24c-38 0 -50 -30 -56 -47h-25
c15 56 49 110 104 110c29 0 56 -12 81 -25c25 -12 48 -25 68 -25c39 0 53 36 59 51z" />
    <glyph glyph-name="Oacute" unicode="&#xd3;" horiz-adv-x="815" 
d="M43 345c0 218 156 373 370 373c219 0 359 -149 359 -360c0 -178 -117 -376 -363 -376c-206 0 -366 141 -366 363zM177 349c0 -200 110 -341 236 -341c156 0 225 193 225 349s-73 335 -225 335c-76 0 -236 -57 -236 -343zM361 768h-28l142 149c15 16 27 29 47 29
c21 0 37 -18 37 -38c0 -19 -11 -30 -27 -40z" />
    <glyph glyph-name="Ocircumflex" unicode="&#xd4;" horiz-adv-x="815" 
d="M43 345c0 218 156 373 370 373c219 0 359 -149 359 -360c0 -178 -117 -376 -363 -376c-206 0 -366 141 -366 363zM177 349c0 -200 110 -341 236 -341c156 0 225 193 225 349s-73 335 -225 335c-76 0 -236 -57 -236 -343zM408 870l-131 -102h-26l125 172h64l125 -172h-26z
" />
    <glyph glyph-name="Odieresis" unicode="&#xd6;" horiz-adv-x="815" 
d="M43 345c0 218 156 373 370 373c219 0 359 -149 359 -360c0 -178 -117 -376 -363 -376c-206 0 -366 141 -366 363zM177 349c0 -200 110 -341 236 -341c156 0 225 193 225 349s-73 335 -225 335c-76 0 -236 -57 -236 -343zM367 845c0 -37 -29 -67 -62 -67
c-31 0 -52 22 -52 55c0 35 27 65 61 65c26 0 53 -18 53 -53zM564 845c0 -37 -29 -67 -62 -67c-31 0 -52 22 -52 55c0 35 27 65 61 65c26 0 53 -18 53 -53z" />
    <glyph glyph-name="Ograve" unicode="&#xd2;" horiz-adv-x="815" 
d="M43 345c0 218 156 373 370 373c219 0 359 -149 359 -360c0 -178 -117 -376 -363 -376c-206 0 -366 141 -366 363zM177 349c0 -200 110 -341 236 -341c156 0 225 193 225 349s-73 335 -225 335c-76 0 -236 -57 -236 -343zM456 768l-172 100c-16 10 -27 21 -27 39
c0 23 17 39 37 39c19 0 28 -9 48 -30l141 -148h-27z" />
    <glyph glyph-name="Otilde" unicode="&#xd5;" horiz-adv-x="815" 
d="M43 345c0 218 156 373 370 373c219 0 359 -149 359 -360c0 -178 -117 -376 -363 -376c-206 0 -366 141 -366 363zM177 349c0 -200 110 -341 236 -341c156 0 225 193 225 349s-73 335 -225 335c-76 0 -236 -57 -236 -343zM552 906h24c-8 -31 -29 -113 -110 -113
c-29 0 -53 12 -76 25c-23 12 -45 24 -69 24c-38 0 -50 -30 -56 -47h-25c15 56 49 110 104 110c29 0 56 -12 81 -25c25 -12 48 -25 68 -25c39 0 53 36 59 51z" />
    <glyph glyph-name="Scaron" unicode="&#x160;" horiz-adv-x="556" 
d="M64 0v192h30c26 -114 90 -180 179 -180c87 0 129 64 129 129c0 169 -346 169 -346 390c0 95 71 187 206 187c75 0 139 -34 158 -34c11 0 18 7 22 16h32v-176h-30c-11 39 -49 166 -169 166c-68 0 -121 -45 -121 -107c0 -165 350 -165 350 -392c0 -110 -82 -209 -212 -209
c-71 0 -164 34 -176 34c-10 0 -14 -7 -18 -16h-34zM279 838l131 102h26l-125 -172h-64l-125 172h26z" />
    <glyph glyph-name="Uacute" unicode="&#xda;" horiz-adv-x="778" 
d="M755 670l-78 -3l-7 -361c-4 -184 -72 -324 -279 -324c-215 0 -285 128 -283 323l4 362l-81 3v33c34 -2 49 -3 136 -3c82 0 116 0 163 2v-32l-84 -3l-8 -397c-4 -220 100 -256 184 -256c144 0 202 110 201 278l-1 375l-81 3v32c34 -1 70 -2 111 -2c46 0 79 2 103 2v-32z
M352 768h-28l142 149c15 16 27 29 47 29c21 0 37 -18 37 -38c0 -19 -11 -30 -27 -40z" />
    <glyph glyph-name="Ucircumflex" unicode="&#xdb;" horiz-adv-x="778" 
d="M755 670l-78 -3l-7 -361c-4 -184 -72 -324 -279 -324c-215 0 -285 128 -283 323l4 362l-81 3v33c34 -2 49 -3 136 -3c82 0 116 0 163 2v-32l-84 -3l-8 -397c-4 -220 100 -256 184 -256c144 0 202 110 201 278l-1 375l-81 3v32c34 -1 70 -2 111 -2c46 0 79 2 103 2v-32z
M404 870l-131 -102h-26l125 172h64l125 -172h-26z" />
    <glyph glyph-name="Udieresis" unicode="&#xdc;" horiz-adv-x="778" 
d="M755 670l-78 -3l-7 -361c-4 -184 -72 -324 -279 -324c-215 0 -285 128 -283 323l4 362l-81 3v33c34 -2 49 -3 136 -3c82 0 116 0 163 2v-32l-84 -3l-8 -397c-4 -220 100 -256 184 -256c144 0 202 110 201 278l-1 375l-81 3v32c34 -1 70 -2 111 -2c46 0 79 2 103 2v-32z
M363 845c0 -37 -29 -67 -62 -67c-31 0 -52 22 -52 55c0 35 27 65 61 65c26 0 53 -18 53 -53zM560 845c0 -37 -29 -67 -62 -67c-31 0 -52 22 -52 55c0 35 27 65 61 65c26 0 53 -18 53 -53z" />
    <glyph glyph-name="Ugrave" unicode="&#xd9;" horiz-adv-x="778" 
d="M755 670l-78 -3l-7 -361c-4 -184 -72 -324 -279 -324c-215 0 -285 128 -283 323l4 362l-81 3v33c34 -2 49 -3 136 -3c82 0 116 0 163 2v-32l-84 -3l-8 -397c-4 -220 100 -256 184 -256c144 0 202 110 201 278l-1 375l-81 3v32c34 -1 70 -2 111 -2c46 0 79 2 103 2v-32z
M447 768l-172 100c-16 10 -27 21 -27 39c0 23 17 39 37 39c19 0 28 -9 48 -30l141 -148h-27z" />
    <glyph glyph-name="Yacute" unicode="&#xdd;" horiz-adv-x="593" 
d="M136 30l96 2c2 63 2 233 2 308l-99 157c-84 132 -93 147 -100 156c-12 15 -19 15 -53 17v32c41 -1 76 -2 140 -2c57 0 108 1 159 2v-32c-67 0 -85 -4 -85 -10c0 -11 76 -136 90 -162l63 -112l46 70c19 28 127 192 127 202c0 7 -6 10 -92 12v30c88 0 109 0 190 2v-34
c-28 -3 -38 -5 -52 -20c-14 -14 -92 -125 -111 -153l-93 -132c0 -174 0 -194 1 -248c0 -32 1 -54 2 -83l97 -2v-32c-47 1 -92 2 -164 2s-115 -1 -164 -2v32zM260 768h-28l142 149c15 16 27 29 47 29c21 0 37 -18 37 -38c0 -19 -11 -30 -27 -40z" />
    <glyph glyph-name="Ydieresis" unicode="&#x178;" horiz-adv-x="593" 
d="M136 30l96 2c2 63 2 233 2 308l-99 157c-84 132 -93 147 -100 156c-12 15 -19 15 -53 17v32c41 -1 76 -2 140 -2c57 0 108 1 159 2v-32c-67 0 -85 -4 -85 -10c0 -11 76 -136 90 -162l63 -112l46 70c19 28 127 192 127 202c0 7 -6 10 -92 12v30c88 0 109 0 190 2v-34
c-28 -3 -38 -5 -52 -20c-14 -14 -92 -125 -111 -153l-93 -132c0 -174 0 -194 1 -248c0 -32 1 -54 2 -83l97 -2v-32c-47 1 -92 2 -164 2s-115 -1 -164 -2v32zM276 845c0 -37 -29 -67 -62 -67c-31 0 -52 22 -52 55c0 35 27 65 61 65c26 0 53 -18 53 -53zM473 845
c0 -37 -29 -67 -62 -67c-31 0 -52 22 -52 55c0 35 27 65 61 65c26 0 53 -18 53 -53z" />
    <glyph glyph-name="Zcaron" unicode="&#x17d;" horiz-adv-x="648" 
d="M622 189l-5 -191c-111 2 -124 2 -307 2h-296v15c158 219 222 320 440 659l-178 -1c-174 -1 -184 -9 -196 -146h-51l5 175c59 -1 112 -2 275 -2c202 0 262 1 313 2v-14c-150 -218 -293 -440 -436 -662c246 2 315 10 332 18c26 12 31 36 54 145h50zM325 838l131 102h26
l-125 -172h-64l-125 172h26z" />
    <glyph glyph-name="aacute" unicode="&#xe1;" horiz-adv-x="463" 
d="M437 42v-29c-67 -17 -98 -25 -124 -25c-25 0 -40 10 -40 44c0 7 0 8 -2 8c-1 0 -83 -56 -152 -56c-52 0 -91 36 -91 92c0 120 176 135 246 142c1 36 2 73 2 131c0 43 -16 55 -66 55c-54 0 -61 -7 -62 -27c-3 -66 -8 -73 -21 -86c-14 -13 -35 -19 -49 -19
c-16 0 -30 16 -30 44c0 97 171 122 224 122c80 0 108 -36 108 -107l-1 -289h58zM273 84l1 91c0 13 -4 17 -9 17c-36 0 -133 -35 -133 -102c0 -36 24 -52 54 -52c20 0 47 8 67 17c18 8 19 12 20 29zM185 488h-28l142 149c15 16 27 29 47 29c21 0 37 -18 37 -38
c0 -19 -11 -30 -27 -40z" />
    <glyph glyph-name="acircumflex" unicode="&#xe2;" horiz-adv-x="463" 
d="M437 42v-29c-67 -17 -98 -25 -124 -25c-25 0 -40 10 -40 44c0 7 0 8 -2 8c-1 0 -83 -56 -152 -56c-52 0 -91 36 -91 92c0 120 176 135 246 142c1 36 2 73 2 131c0 43 -16 55 -66 55c-54 0 -61 -7 -62 -27c-3 -66 -8 -73 -21 -86c-14 -13 -35 -19 -49 -19
c-16 0 -30 16 -30 44c0 97 171 122 224 122c80 0 108 -36 108 -107l-1 -289h58zM273 84l1 91c0 13 -4 17 -9 17c-36 0 -133 -35 -133 -102c0 -36 24 -52 54 -52c20 0 47 8 67 17c18 8 19 12 20 29zM232 590l-131 -102h-26l125 172h64l125 -172h-26z" />
    <glyph glyph-name="adieresis" unicode="&#xe4;" horiz-adv-x="463" 
d="M437 42v-29c-67 -17 -98 -25 -124 -25c-25 0 -40 10 -40 44c0 7 0 8 -2 8c-1 0 -83 -56 -152 -56c-52 0 -91 36 -91 92c0 120 176 135 246 142c1 36 2 73 2 131c0 43 -16 55 -66 55c-54 0 -61 -7 -62 -27c-3 -66 -8 -73 -21 -86c-14 -13 -35 -19 -49 -19
c-16 0 -30 16 -30 44c0 97 171 122 224 122c80 0 108 -36 108 -107l-1 -289h58zM273 84l1 91c0 13 -4 17 -9 17c-36 0 -133 -35 -133 -102c0 -36 24 -52 54 -52c20 0 47 8 67 17c18 8 19 12 20 29zM388 565c0 -37 -29 -67 -62 -67c-31 0 -52 22 -52 55c0 35 27 65 61 65
c26 0 53 -18 53 -53zM191 565c0 -37 -29 -67 -62 -67c-31 0 -52 22 -52 55c0 35 27 65 61 65c26 0 53 -18 53 -53z" />
    <glyph glyph-name="agrave" unicode="&#xe0;" horiz-adv-x="463" 
d="M437 42v-29c-67 -17 -98 -25 -124 -25c-25 0 -40 10 -40 44c0 7 0 8 -2 8c-1 0 -83 -56 -152 -56c-52 0 -91 36 -91 92c0 120 176 135 246 142c1 36 2 73 2 131c0 43 -16 55 -66 55c-54 0 -61 -7 -62 -27c-3 -66 -8 -73 -21 -86c-14 -13 -35 -19 -49 -19
c-16 0 -30 16 -30 44c0 97 171 122 224 122c80 0 108 -36 108 -107l-1 -289h58zM273 84l1 91c0 13 -4 17 -9 17c-36 0 -133 -35 -133 -102c0 -36 24 -52 54 -52c20 0 47 8 67 17c18 8 19 12 20 29zM280 488l-172 100c-16 10 -27 21 -27 39c0 23 17 39 37 39
c19 0 28 -9 48 -30l141 -148h-27z" />
    <glyph glyph-name="aring" unicode="&#xe5;" horiz-adv-x="463" 
d="M437 42v-29c-67 -17 -98 -25 -124 -25c-25 0 -40 10 -40 44c0 7 0 8 -2 8c-1 0 -83 -56 -152 -56c-52 0 -91 36 -91 92c0 120 176 135 246 142c1 36 2 73 2 131c0 43 -16 55 -66 55c-54 0 -61 -7 -62 -27c-3 -66 -8 -73 -21 -86c-14 -13 -35 -19 -49 -19
c-16 0 -30 16 -30 44c0 97 171 122 224 122c80 0 108 -36 108 -107l-1 -289h58zM273 84l1 91c0 13 -4 17 -9 17c-36 0 -133 -35 -133 -102c0 -36 24 -52 54 -52c20 0 47 8 67 17c18 8 19 12 20 29zM334 584c0 -56 -46 -102 -102 -102s-102 46 -102 102s46 102 102 102
s102 -46 102 -102zM294 584c0 34 -28 62 -62 62s-62 -28 -62 -62s28 -62 62 -62s62 28 62 62z" />
    <glyph glyph-name="atilde" unicode="&#xe3;" horiz-adv-x="463" 
d="M437 42v-29c-67 -17 -98 -25 -124 -25c-25 0 -40 10 -40 44c0 7 0 8 -2 8c-1 0 -83 -56 -152 -56c-52 0 -91 36 -91 92c0 120 176 135 246 142c1 36 2 73 2 131c0 43 -16 55 -66 55c-54 0 -61 -7 -62 -27c-3 -66 -8 -73 -21 -86c-14 -13 -35 -19 -49 -19
c-16 0 -30 16 -30 44c0 97 171 122 224 122c80 0 108 -36 108 -107l-1 -289h58zM273 84l1 91c0 13 -4 17 -9 17c-36 0 -133 -35 -133 -102c0 -36 24 -52 54 -52c20 0 47 8 67 17c18 8 19 12 20 29zM376 626h24c-8 -31 -29 -113 -110 -113c-29 0 -53 12 -76 25
c-23 12 -45 24 -69 24c-38 0 -50 -30 -56 -47h-25c15 56 49 110 104 110c29 0 56 -12 81 -25c25 -12 48 -25 68 -25c39 0 53 36 59 51z" />
    <glyph glyph-name="ccedilla" unicode="&#xe7;" horiz-adv-x="463" 
d="M409 127l22 -15c-41 -69 -89 -128 -188 -128c-4 0 -9 0 -15 2l-25 -56c10 4 22 10 44 10c47 0 83 -29 83 -75c0 -54 -51 -84 -121 -84c-30 0 -59 5 -87 18l8 23c15 -5 37 -13 63 -13c47 0 61 27 61 49c0 28 -23 42 -46 42c-14 0 -23 -4 -31 -7l-13 7l40 88
c-87 14 -172 81 -172 217c0 145 99 233 220 233c123 0 173 -83 173 -139c0 -16 -3 -20 -32 -20c-56 0 -62 13 -70 54c-14 68 -17 79 -61 79c-79 0 -126 -86 -126 -184c0 -119 64 -180 144 -180c44 0 89 18 129 79z" />
    <glyph glyph-name="eacute" unicode="&#xe9;" horiz-adv-x="463" 
d="M411 116l22 -13c-21 -37 -68 -119 -194 -119c-113 0 -206 78 -206 221c0 135 90 233 221 233c126 0 178 -92 178 -161c0 -14 -6 -21 -23 -21h-252c-18 0 -22 -6 -22 -31c0 -54 22 -181 146 -181c71 0 107 39 130 72zM168 284h134c24 0 30 6 30 31c0 46 -22 97 -77 97
c-72 0 -107 -92 -107 -119c0 -5 4 -9 20 -9zM185 488h-28l142 149c15 16 27 29 47 29c21 0 37 -18 37 -38c0 -19 -11 -30 -27 -40z" />
    <glyph glyph-name="ecircumflex" unicode="&#xea;" horiz-adv-x="463" 
d="M411 116l22 -13c-21 -37 -68 -119 -194 -119c-113 0 -206 78 -206 221c0 135 90 233 221 233c126 0 178 -92 178 -161c0 -14 -6 -21 -23 -21h-252c-18 0 -22 -6 -22 -31c0 -54 22 -181 146 -181c71 0 107 39 130 72zM168 284h134c24 0 30 6 30 31c0 46 -22 97 -77 97
c-72 0 -107 -92 -107 -119c0 -5 4 -9 20 -9zM232 590l-131 -102h-26l125 172h64l125 -172h-26z" />
    <glyph glyph-name="edieresis" unicode="&#xeb;" horiz-adv-x="463" 
d="M411 116l22 -13c-21 -37 -68 -119 -194 -119c-113 0 -206 78 -206 221c0 135 90 233 221 233c126 0 178 -92 178 -161c0 -14 -6 -21 -23 -21h-252c-18 0 -22 -6 -22 -31c0 -54 22 -181 146 -181c71 0 107 39 130 72zM168 284h134c24 0 30 6 30 31c0 46 -22 97 -77 97
c-72 0 -107 -92 -107 -119c0 -5 4 -9 20 -9zM191 565c0 -37 -29 -67 -62 -67c-31 0 -52 22 -52 55c0 35 27 65 61 65c26 0 53 -18 53 -53zM388 565c0 -37 -29 -67 -62 -67c-31 0 -52 22 -52 55c0 35 27 65 61 65c26 0 53 -18 53 -53z" />
    <glyph glyph-name="egrave" unicode="&#xe8;" horiz-adv-x="463" 
d="M411 116l22 -13c-21 -37 -68 -119 -194 -119c-113 0 -206 78 -206 221c0 135 90 233 221 233c126 0 178 -92 178 -161c0 -14 -6 -21 -23 -21h-252c-18 0 -22 -6 -22 -31c0 -54 22 -181 146 -181c71 0 107 39 130 72zM168 284h134c24 0 30 6 30 31c0 46 -22 97 -77 97
c-72 0 -107 -92 -107 -119c0 -5 4 -9 20 -9zM280 488l-172 100c-16 10 -27 21 -27 39c0 23 17 39 37 39c19 0 28 -9 48 -30l141 -148h-27z" />
    <glyph glyph-name="iacute" unicode="&#xed;" horiz-adv-x="296" 
d="M41 0v30l57 1v317c0 26 -5 30 -50 33v33l158 18v-401l56 -1v-30h-221zM101 488h-28l142 149c15 16 27 29 47 29c21 0 37 -18 37 -38c0 -19 -11 -30 -27 -40z" />
    <glyph glyph-name="icircumflex" unicode="&#xee;" horiz-adv-x="296" 
d="M41 0v30l57 1v317c0 26 -5 30 -50 33v33l158 18v-401l56 -1v-30h-221zM148 590l-131 -102h-26l125 172h64l125 -172h-26z" />
    <glyph glyph-name="idieresis" unicode="&#xef;" horiz-adv-x="296" 
d="M41 0v30l57 1v317c0 26 -5 30 -50 33v33l158 18v-401l56 -1v-30h-221zM107 565c0 -37 -29 -67 -62 -67c-31 0 -52 22 -52 55c0 35 27 65 61 65c26 0 53 -18 53 -53zM304 565c0 -37 -29 -67 -62 -67c-31 0 -52 22 -52 55c0 35 27 65 61 65c26 0 53 -18 53 -53z" />
    <glyph glyph-name="igrave" unicode="&#xec;" horiz-adv-x="296" 
d="M41 0v30l57 1v317c0 26 -5 30 -50 33v33l158 18v-401l56 -1v-30h-221zM196 488l-172 100c-16 10 -27 21 -27 39c0 23 17 39 37 39c19 0 28 -9 48 -30l141 -148h-27z" />
    <glyph glyph-name="ntilde" unicode="&#xf1;" horiz-adv-x="574" 
d="M40 0v30l52 1v337l-61 2v46l161 16c0 -36 4 -39 10 -39c13 0 88 41 161 41c87 0 127 -42 127 -130v-273l53 -1v-30h-213v30l52 1v295c0 48 -20 64 -76 64c-47 0 -87 -12 -97 -21c-9 -8 -9 -17 -9 -46v-292l53 -1v-30h-213zM431 626h24c-8 -31 -29 -113 -110 -113
c-29 0 -53 12 -76 25c-23 12 -45 24 -69 24c-38 0 -50 -30 -56 -47h-25c15 56 49 110 104 110c29 0 56 -12 81 -25c25 -12 48 -25 68 -25c39 0 53 36 59 51z" />
    <glyph glyph-name="oacute" unicode="&#xf3;" 
d="M34 209c0 130 88 229 228 229c152 0 223 -114 223 -224c0 -121 -83 -231 -225 -231c-108 0 -226 70 -226 226zM146 207c0 -141 50 -198 114 -198c74 0 113 87 113 212c0 115 -39 191 -106 191c-75 0 -121 -85 -121 -205zM213 488h-28l142 149c15 16 27 29 47 29
c21 0 37 -18 37 -38c0 -19 -11 -30 -27 -40z" />
    <glyph glyph-name="ocircumflex" unicode="&#xf4;" 
d="M34 209c0 130 88 229 228 229c152 0 223 -114 223 -224c0 -121 -83 -231 -225 -231c-108 0 -226 70 -226 226zM146 207c0 -141 50 -198 114 -198c74 0 113 87 113 212c0 115 -39 191 -106 191c-75 0 -121 -85 -121 -205zM260 590l-131 -102h-26l125 172h64l125 -172h-26z
" />
    <glyph glyph-name="odieresis" unicode="&#xf6;" 
d="M34 209c0 130 88 229 228 229c152 0 223 -114 223 -224c0 -121 -83 -231 -225 -231c-108 0 -226 70 -226 226zM146 207c0 -141 50 -198 114 -198c74 0 113 87 113 212c0 115 -39 191 -106 191c-75 0 -121 -85 -121 -205zM229 565c0 -37 -29 -67 -62 -67
c-31 0 -52 22 -52 55c0 35 27 65 61 65c26 0 53 -18 53 -53zM426 565c0 -37 -29 -67 -62 -67c-31 0 -52 22 -52 55c0 35 27 65 61 65c26 0 53 -18 53 -53z" />
    <glyph glyph-name="ograve" unicode="&#xf2;" 
d="M34 209c0 130 88 229 228 229c152 0 223 -114 223 -224c0 -121 -83 -231 -225 -231c-108 0 -226 70 -226 226zM146 207c0 -141 50 -198 114 -198c74 0 113 87 113 212c0 115 -39 191 -106 191c-75 0 -121 -85 -121 -205zM308 488l-172 100c-16 10 -27 21 -27 39
c0 23 17 39 37 39c19 0 28 -9 48 -30l141 -148h-27z" />
    <glyph glyph-name="otilde" unicode="&#xf5;" 
d="M34 209c0 130 88 229 228 229c152 0 223 -114 223 -224c0 -121 -83 -231 -225 -231c-108 0 -226 70 -226 226zM146 207c0 -141 50 -198 114 -198c74 0 113 87 113 212c0 115 -39 191 -106 191c-75 0 -121 -85 -121 -205zM404 626h24c-8 -31 -29 -113 -110 -113
c-29 0 -53 12 -76 25c-23 12 -45 24 -69 24c-38 0 -50 -30 -56 -47h-25c15 56 49 110 104 110c29 0 56 -12 81 -25c25 -12 48 -25 68 -25c39 0 53 36 59 51z" />
    <glyph glyph-name="scaron" unicode="&#x161;" horiz-adv-x="352" 
d="M38 5l-7 110h34c8 -37 21 -107 95 -107c49 0 67 39 67 67c0 104 -193 105 -193 239c0 65 51 124 130 124c28 0 40 -3 93 -18c20 -6 33 -8 42 -9l2 -98h-33c-10 54 -35 101 -92 101c-36 0 -60 -29 -60 -61c0 -96 203 -100 203 -238c0 -55 -38 -131 -141 -131
c-29 0 -49 4 -101 15c-29 5 -32 5 -39 6zM177 558l131 102h26l-125 -172h-64l-125 172h26z" />
    <glyph glyph-name="uacute" unicode="&#xfa;" horiz-adv-x="574" 
d="M39 386v34l155 12v-300c0 -90 24 -112 87 -112c22 0 66 6 85 14c11 4 10 7 10 37v293c0 16 -3 20 -65 22v34l173 12v-392h55v-32c-37 -9 -79 -20 -111 -20c-43 0 -34 29 -45 29c-5 0 -95 -29 -169 -29c-104 0 -128 50 -128 142v251zM240 488h-28l142 149
c15 16 27 29 47 29c21 0 37 -18 37 -38c0 -19 -11 -30 -27 -40z" />
    <glyph glyph-name="ucircumflex" unicode="&#xfb;" horiz-adv-x="574" 
d="M39 386v34l155 12v-300c0 -90 24 -112 87 -112c22 0 66 6 85 14c11 4 10 7 10 37v293c0 16 -3 20 -65 22v34l173 12v-392h55v-32c-37 -9 -79 -20 -111 -20c-43 0 -34 29 -45 29c-5 0 -95 -29 -169 -29c-104 0 -128 50 -128 142v251zM287 590l-131 -102h-26l125 172h64
l125 -172h-26z" />
    <glyph glyph-name="udieresis" unicode="&#xfc;" horiz-adv-x="574" 
d="M39 386v34l155 12v-300c0 -90 24 -112 87 -112c22 0 66 6 85 14c11 4 10 7 10 37v293c0 16 -3 20 -65 22v34l173 12v-392h55v-32c-37 -9 -79 -20 -111 -20c-43 0 -34 29 -45 29c-5 0 -95 -29 -169 -29c-104 0 -128 50 -128 142v251zM246 565c0 -37 -29 -67 -62 -67
c-31 0 -52 22 -52 55c0 35 27 65 61 65c26 0 53 -18 53 -53zM443 565c0 -37 -29 -67 -62 -67c-31 0 -52 22 -52 55c0 35 27 65 61 65c26 0 53 -18 53 -53z" />
    <glyph glyph-name="ugrave" unicode="&#xf9;" horiz-adv-x="574" 
d="M39 386v34l155 12v-300c0 -90 24 -112 87 -112c22 0 66 6 85 14c11 4 10 7 10 37v293c0 16 -3 20 -65 22v34l173 12v-392h55v-32c-37 -9 -79 -20 -111 -20c-43 0 -34 29 -45 29c-5 0 -95 -29 -169 -29c-104 0 -128 50 -128 142v251zM335 488l-172 100
c-16 10 -27 21 -27 39c0 23 17 39 37 39c19 0 28 -9 48 -30l141 -148h-27z" />
    <glyph glyph-name="yacute" unicode="&#xfd;" horiz-adv-x="426" 
d="M431 422v-38c-31 -2 -35 -2 -63 -66l-200 -459c-43 -99 -59 -119 -85 -119c-9 0 -71 6 -71 28c0 10 9 42 12 49c1 4 3 7 10 7c0 0 47 -8 56 -8c28 0 38 16 57 59l53 121l-142 350c-15 36 -17 41 -48 44v32h208v-32c-53 0 -57 -2 -57 -12c0 -4 6 -19 10 -30l85 -227
l77 184c14 34 25 60 25 69c0 11 -4 12 -41 12v36h114zM176 488h-28l142 149c15 16 27 29 47 29c21 0 37 -18 37 -38c0 -19 -11 -30 -27 -40z" />
    <glyph glyph-name="ydieresis" unicode="&#xff;" horiz-adv-x="426" 
d="M431 422v-38c-31 -2 -35 -2 -63 -66l-200 -459c-43 -99 -59 -119 -85 -119c-9 0 -71 6 -71 28c0 10 9 42 12 49c1 4 3 7 10 7c0 0 47 -8 56 -8c28 0 38 16 57 59l53 121l-142 350c-15 36 -17 41 -48 44v32h208v-32c-53 0 -57 -2 -57 -12c0 -4 6 -19 10 -30l85 -227
l77 184c14 34 25 60 25 69c0 11 -4 12 -41 12v36h114zM182 565c0 -37 -29 -67 -62 -67c-31 0 -52 22 -52 55c0 35 27 65 61 65c26 0 53 -18 53 -53zM379 565c0 -37 -29 -67 -62 -67c-31 0 -52 22 -52 55c0 35 27 65 61 65c26 0 53 -18 53 -53z" />
    <glyph glyph-name="zcaron" unicode="&#x17e;" horiz-adv-x="444" 
d="M18 0v12l271 385l-140 -3c-36 -1 -40 -2 -45 -11s-17 -74 -18 -76h-37l3 115h364v-12l-267 -384h179c26 0 29 1 32 25l6 57c2 21 6 21 35 21c14 0 16 -2 15 -16l-9 -113h-389zM223 558l131 102h26l-125 -172h-64l-125 172h26z" />
    <glyph glyph-name="exclam.sc" unicode="&#xf721;" horiz-adv-x="278" 
d="M124 155l-45 475l117 15l-44 -490h-28zM76 52c0 35 29 64 64 64s64 -29 64 -64s-29 -64 -64 -64s-64 29 -64 64z" />
    <glyph glyph-name="hungarumlaut.sc" unicode="&#xf6f8;" horiz-adv-x="315" 
d="M8 544l130 153c20 22 30 31 48 31c24 0 36 -20 36 -38s-9 -28 -27 -40l-159 -106h-28zM196 551h-28l142 148c14 15 26 29 47 29s37 -18 37 -38c0 -19 -11 -30 -27 -40z" />
    <glyph glyph-name="dollar.oldstyle" unicode="&#xf724;" 
d="M271 -141h-28v141c-53 3 -128 13 -204 90l45 57c60 -108 120 -118 159 -121v286c-75 31 -187 77 -187 210c0 93 60 176 187 184v80h28v-80c76 -5 124 -27 178 -73l-51 -47c-41 70 -82 91 -127 94v-271c110 -40 205 -92 205 -213c0 -92 -48 -180 -205 -196v-141zM271 299
v-273c91 11 121 89 121 138c0 84 -70 114 -121 135zM243 421v258c-73 -13 -111 -59 -111 -126c0 -47 21 -95 111 -132z" />
    <glyph glyph-name="ampersand.sc" unicode="&#xf726;" horiz-adv-x="778" 
d="M693 55l16 -17c-16 -15 -61 -56 -131 -56c-77 0 -111 48 -129 75c-83 -63 -140 -75 -195 -75c-146 0 -212 105 -212 205c0 143 121 205 188 235c-19 35 -44 84 -44 136c0 74 55 150 159 150c93 0 129 -62 129 -106c0 -52 -40 -112 -134 -152c69 -91 125 -186 170 -291
c69 83 118 203 118 220c0 10 0 16 -75 23v30h203v-30c-72 -11 -76 -12 -96 -54c-44 -96 -88 -161 -135 -218c40 -67 61 -100 104 -100c23 0 42 10 64 25zM148 252c0 -72 59 -214 171 -214c43 0 85 16 114 46c-54 103 -111 197 -191 315c-42 -24 -94 -78 -94 -147zM276 600
c0 -36 22 -88 51 -131c46 34 85 81 85 140c0 50 -31 73 -65 73c-48 0 -71 -45 -71 -82z" />
    <glyph glyph-name="acute.sc" unicode="&#xf7b4;" horiz-adv-x="315" 
d="M113 550h-28l142 149c15 16 27 29 47 29c21 0 37 -18 37 -38c0 -19 -11 -30 -27 -40z" />
    <glyph glyph-name="zero.oldstyle" unicode="&#xf730;" horiz-adv-x="500" 
d="M28 213c0 121 96 225 222 225c124 0 222 -102 222 -225s-98 -225 -222 -225c-126 0 -222 104 -222 225zM96 213c0 -75 55 -165 154 -165c96 0 154 87 154 165c0 77 -57 165 -154 165c-100 0 -154 -91 -154 -165z" />
    <glyph glyph-name="one.oldstyle" unicode="&#xf731;" horiz-adv-x="352" 
d="M328 27v-30c-43 1 -90 3 -149 3c-52 0 -101 -2 -149 -3v30l97 7c3 104 5 306 5 346l-96 1v41l200 16c-4 -122 -2 -358 -2 -404z" />
    <glyph glyph-name="two.oldstyle" unicode="&#xf732;" horiz-adv-x="426" 
d="M5 -2v14c47 42 259 189 259 270c0 44 -40 62 -83 62c-42 0 -84 -16 -104 -24c-17 -7 -19 -7 -20 -7c-2 0 -1 1 -1 5l14 88c20 9 69 32 133 32c57 0 153 -21 153 -109c0 -103 -146 -182 -212 -229v-2h212l7 57h31l-12 -155h-180c-12 0 -128 -1 -197 -2z" />
    <glyph glyph-name="three.oldstyle" unicode="&#xf733;" horiz-adv-x="463" 
d="M56 300l13 114c35 11 74 24 133 24c106 0 172 -51 172 -125c0 -79 -68 -125 -140 -176c86 -23 176 -77 176 -177c0 -79 -63 -145 -159 -187c-80 -35 -176 -49 -178 -49c-8 0 -10 15 -10 17c0 5 2 5 18 9c88 25 225 74 225 188c0 90 -116 130 -190 134c-16 0 -18 5 -18 11
c0 8 3 12 15 17c74 31 171 93 171 165c0 41 -30 72 -88 72c-56 0 -107 -23 -140 -37z" />
    <glyph glyph-name="four.oldstyle" unicode="&#xf734;" horiz-adv-x="481" 
d="M463 0h-87l-2 -260h-103l3 260h-278v18l366 428h16l-2 -372l87 1v-75zM75 70l200 3l7 237l-2 2z" />
    <glyph glyph-name="five.oldstyle" unicode="&#xf735;" horiz-adv-x="463" 
d="M397 325l-279 -3l-1 -114c84 -9 285 -30 285 -197c0 -172 -198 -244 -241 -260c-26 -10 -83 -27 -90 -27c-8 0 -12 9 -12 15s2 7 22 14c65 25 227 87 227 221c0 59 -31 118 -221 136v312h201c20 0 56 1 76 3l3 38h36z" />
    <glyph glyph-name="six.oldstyle" unicode="&#xf736;" 
d="M459 729l2 -23c-245 -52 -290 -235 -308 -308c42 28 90 47 140 47c103 0 191 -80 191 -219c0 -170 -120 -238 -223 -238c-155 0 -226 139 -226 300c0 207 135 413 424 441zM141 244c0 -65 9 -230 123 -230c100 0 118 131 118 205c0 85 -22 186 -125 186
c-10 0 -67 0 -108 -43c-3 -26 -8 -71 -8 -118z" />
    <glyph glyph-name="seven.oldstyle" unicode="&#xf737;" horiz-adv-x="500" 
d="M81 318l-6 -75h-33l5 179h422c0 -5 -2 -11 -21 -58c-82 -210 -159 -421 -239 -632h-59c83 197 167 394 249 591z" />
    <glyph glyph-name="eight.oldstyle" unicode="&#xf738;" horiz-adv-x="500" 
d="M59 544c0 101 76 174 188 174s174 -77 174 -158c0 -97 -70 -136 -119 -164c78 -46 157 -92 157 -208c0 -101 -80 -200 -219 -200c-146 0 -198 108 -198 183c0 96 71 153 137 187c-55 37 -120 82 -120 186zM98 176c0 -103 65 -162 137 -162c88 0 128 78 128 143
c0 101 -82 146 -157 186c-59 -35 -108 -75 -108 -167zM143 568c0 -87 73 -127 133 -156c55 27 97 74 97 147c0 76 -47 133 -116 133c-92 0 -114 -81 -114 -124z" />
    <glyph glyph-name="nine.oldstyle" unicode="&#xf739;" 
d="M33 226c0 123 98 212 223 212c114 0 228 -85 228 -258c0 -159 -86 -294 -212 -393c-26 -21 -85 -63 -99 -63c-7 0 -10 4 -10 9s9 15 21 26c18 17 136 131 178 285c-42 -18 -81 -30 -126 -30c-121 0 -203 103 -203 212zM135 250c0 -78 33 -198 140 -198c33 0 77 14 91 25
c6 24 14 59 14 113c0 90 -24 224 -128 224c-58 0 -117 -55 -117 -164z" />
    <glyph glyph-name="question.sc" unicode="&#xf73f;" horiz-adv-x="444" 
d="M156 154l-6 147c12 8 148 93 148 174c0 34 -26 75 -97 75c-63 0 -118 -26 -141 -37l12 104c43 17 88 27 134 27c113 0 182 -58 182 -137c0 -93 -82 -157 -202 -222l-5 -131h-25zM108 52c0 35 29 64 64 64s64 -29 64 -64s-29 -64 -64 -64s-64 29 -64 64z" />
    <glyph glyph-name="circumflex.sc" unicode="&#xf6f6;" horiz-adv-x="315" 
d="M158 652l-131 -102h-26l125 172h64l125 -172h-26z" />
    <glyph glyph-name="grave.sc" unicode="&#xf760;" horiz-adv-x="315" 
d="M206 550l-172 100c-16 10 -27 21 -27 39c0 23 17 39 37 39c19 0 28 -9 48 -30l141 -148h-27z" />
    <glyph glyph-name="a.sc" unicode="&#xf761;" horiz-adv-x="481" 
d="M257 170h-122c-11 0 -13 -3 -16 -11l-38 -100c-4 -10 -6 -17 -6 -20c0 -7 4 -11 65 -11v-30c-18 1 -43 2 -77 2s-53 -1 -69 -2v30c28 2 39 3 52 29c8 14 44 103 78 188l101 255h27l138 -337c10 -22 45 -102 51 -112c11 -19 25 -21 45 -23v-30c-26 1 -59 2 -125 2
c-60 0 -88 -1 -113 -2v30c62 2 71 3 71 9c0 3 -3 10 -5 16l-40 106c-4 11 -5 11 -17 11zM147 194h100c4 0 11 1 11 5c0 2 -1 6 -2 9l-52 140c-3 8 -5 13 -7 13c-1 0 -2 -3 -4 -8l-55 -145c-1 -1 -3 -7 -3 -9c0 -3 5 -5 12 -5z" />
    <glyph glyph-name="b.sc" unicode="&#xf762;" horiz-adv-x="537" 
d="M26 -2v29l69 3c2 36 2 45 2 131c0 221 0 246 -2 291l-69 2v28c48 0 90 0 116 1c113 5 117 5 152 5c78 0 164 -13 164 -112c0 -73 -58 -103 -74 -112c67 -21 100 -68 100 -130c0 -110 -92 -136 -187 -136c-25 0 -136 2 -158 2c-44 0 -77 -1 -113 -2zM207 418v-154
c35 -1 149 -4 149 97c0 55 -36 101 -123 101c-19 0 -25 -6 -26 -44zM207 236v-168c0 -33 11 -44 42 -44c53 0 127 18 127 104s-70 108 -169 108z" />
    <glyph glyph-name="c.sc" unicode="&#xf763;" horiz-adv-x="556" 
d="M476 163h27l-8 -117c-34 -20 -109 -64 -203 -64c-164 0 -256 131 -256 259c0 123 87 259 250 259c89 0 155 -44 166 -44c7 0 11 7 13 14h33l1 -146h-29c-26 73 -75 146 -164 146c-112 0 -154 -128 -154 -220c0 -115 57 -236 163 -236c91 0 139 78 161 149z" />
    <glyph glyph-name="d.sc" unicode="&#xf764;" horiz-adv-x="611" 
d="M30 27l65 3c2 36 2 44 2 126c0 227 0 252 -2 296l-65 2v28c44 0 238 6 277 6c163 0 269 -94 269 -245c0 -172 -125 -245 -283 -245c-22 0 -123 2 -144 2c-56 0 -82 -1 -119 -2v29zM207 274v-214c1 -28 13 -36 77 -36c93 0 178 83 178 212c0 137 -88 226 -213 226
c-23 0 -37 -4 -39 -11c-3 -9 -3 -156 -3 -177z" />
    <glyph glyph-name="e.sc" unicode="&#xf765;" horiz-adv-x="537" 
d="M498 138l-10 -138h-237c-45 0 -190 -1 -223 -2v29l68 3c2 36 2 45 2 131c0 221 0 246 -2 291l-68 3v29c35 -1 83 -2 188 -2c27 0 204 1 259 2v-116h-44c-4 56 -5 74 -22 82c-18 9 -66 10 -108 10h-93v-194c19 0 92 0 105 5c17 8 17 72 18 81h40c-1 -86 0 -116 2 -194h-43
c-3 40 -6 72 -11 77c-9 8 -76 7 -111 7c0 -28 0 -185 3 -199c5 -19 21 -19 67 -19h146l33 114h41z" />
    <glyph glyph-name="f.sc" unicode="&#xf766;" horiz-adv-x="500" 
d="M95 452l-69 3v29c50 -2 111 -2 127 -2c90 0 222 0 318 2l3 -127h-46c-8 76 -14 81 -22 88c-15 13 -78 13 -131 13h-68v-198c71 1 79 0 92 4c17 5 22 15 27 83h42c-5 -74 -2 -190 -2 -195h-40c-4 28 -5 70 -14 76s-23 8 -105 8c0 -149 0 -161 1 -206l75 -3v-29
c-28 1 -69 2 -140 2c-64 0 -88 -1 -116 -2v29l70 3v365c0 22 -1 38 -2 57z" />
    <glyph glyph-name="g.sc" unicode="&#xf767;" horiz-adv-x="574" 
d="M549 192v-30c-29 -1 -33 -1 -33 -33l1 -70c-93 -51 -160 -77 -230 -77c-141 0 -251 106 -251 258c0 141 96 260 253 260c90 0 149 -44 161 -44c7 0 11 9 13 14h30c-1 -20 -1 -42 3 -146h-30c-32 104 -98 146 -159 146c-90 0 -155 -89 -155 -221c0 -113 50 -235 153 -235
c53 0 88 32 100 43c2 34 1 97 1 101l-58 3v29c77 -2 116 -1 201 2z" />
    <glyph glyph-name="h.sc" unicode="&#xf768;" horiz-adv-x="630" 
d="M36 -2v29l60 3c1 36 2 47 2 136c0 215 0 239 -2 286l-60 3v29c23 -1 52 -2 119 -2s93 1 119 2v-29l-65 -3c-1 -43 -1 -144 -1 -192h216c0 133 0 147 -2 192l-64 3v29c22 -1 51 -2 118 -2c68 0 93 1 119 2v-29l-60 -3c-1 -36 -1 -45 -1 -131c0 -221 0 -246 1 -291l60 -3
v-29c-22 1 -51 2 -119 2c-67 0 -92 -1 -118 -2v29l64 3c2 45 2 153 2 206h-216c0 -147 0 -163 1 -206l65 -3v-29c-23 1 -52 2 -119 2s-92 -1 -119 -2z" />
    <glyph glyph-name="i.sc" unicode="&#xf769;" horiz-adv-x="315" 
d="M214 30l65 -3v-29c-24 1 -52 2 -122 2c-69 0 -94 -1 -121 -2v29l65 3c1 36 1 47 1 136c0 215 0 239 -1 286l-65 3v29c23 -1 52 -2 121 -2c70 0 95 1 122 2v-29l-65 -3c-1 -36 -2 -45 -2 -131c0 -221 0 -246 2 -291z" />
    <glyph glyph-name="j.sc" unicode="&#xf76a;" horiz-adv-x="296" 
d="M27 -218v24c50 27 70 62 70 194c0 84 -3 383 -3 452l-71 3v29c40 -1 83 -2 122 -2c43 0 89 1 124 2v-29l-62 -3c-1 -64 0 -347 -1 -404c-1 -98 -3 -228 -179 -266z" />
    <glyph glyph-name="k.sc" unicode="&#xf76b;" 
d="M527 0h-136c-56 76 -109 156 -168 229l-16 -16c0 -48 0 -138 1 -183l61 -3v-29c-34 1 -69 2 -115 2c-75 0 -96 -1 -127 -2v29l68 3c1 36 2 47 2 136c0 215 0 239 -2 286l-68 3v29c24 -1 52 -2 120 -2c70 0 101 1 121 2v-29l-60 -3c-1 -45 -1 -156 -1 -208l93 97
c14 15 95 99 95 104c0 6 -25 10 -63 9v28c91 0 98 0 178 2v-31c-42 -3 -67 -4 -199 -136l-14 -15l92 -120c35 -46 80 -106 106 -138c11 -13 18 -15 32 -16v-28z" />
    <glyph glyph-name="l.sc" unicode="&#xf76c;" horiz-adv-x="500" 
d="M478 140l-12 -142c-61 2 -117 2 -268 2c-107 0 -134 -1 -171 -2v29l68 3c2 36 2 45 2 131c0 221 0 246 -2 291l-68 3v29c22 -1 50 -2 127 -2s105 1 127 2v-29l-73 -3c-1 -35 -1 -43 -1 -131c0 -235 0 -242 1 -256c4 -33 4 -39 113 -39c25 0 53 2 77 3l38 111h42z" />
    <glyph glyph-name="m.sc" unicode="&#xf76d;" horiz-adv-x="741" 
d="M712 27v-29c-35 1 -77 2 -123 2c-34 0 -84 -1 -122 -2v29l67 3c2 62 2 274 -2 390h-2l-182 -432h-18l-204 429l-2 -2l6 -385l76 -3v-29c-22 1 -56 2 -91 2c-36 0 -62 -1 -88 -2v29l69 3c2 49 4 321 -2 422l-64 3v29c50 -1 66 -2 89 -2c29 0 71 2 95 2l165 -353l149 351
c58 0 128 0 182 2v-29l-68 -3c-1 -68 3 -334 6 -422z" />
    <glyph glyph-name="n.sc" unicode="&#xf76e;" horiz-adv-x="574" 
d="M488 -8h-20c-118 124 -237 248 -351 375l1 -162c0 -28 2 -150 3 -175l73 -3v-29c-26 1 -52 2 -90 2c-37 0 -62 -1 -89 -2v29l68 3c2 32 5 172 5 201v118c0 42 -1 47 -6 56c-23 33 -49 42 -67 48v31c44 -2 74 -2 143 -2c98 -111 202 -220 302 -327v106c0 63 2 129 -1 191
l-71 3v29c25 -1 61 -2 88 -2c25 0 52 1 86 2v-29l-67 -3c-2 -66 -4 -143 -5 -210z" />
    <glyph glyph-name="o.sc" unicode="&#xf76f;" horiz-adv-x="593" 
d="M36 238c0 154 112 262 265 262c152 0 255 -102 255 -253c0 -125 -84 -265 -259 -265c-146 0 -261 101 -261 256zM152 240c0 -134 65 -232 149 -232c92 0 139 126 139 238c0 104 -44 228 -141 228c-52 0 -147 -44 -147 -234z" />
    <glyph glyph-name="p.sc" unicode="&#xf770;" horiz-adv-x="500" 
d="M208 30l71 -3v-29c-28 1 -58 2 -125 2c-78 0 -100 -1 -130 -2v29l71 3c2 36 2 44 2 126c0 227 0 252 -2 296l-71 3v29c29 -1 54 -2 94 -2c15 0 55 2 94 3c40 2 79 3 92 3c108 0 162 -56 162 -134c0 -94 -74 -142 -188 -142c-27 0 -52 0 -71 1c0 -47 0 -140 1 -183z
M208 440l-1 -200c113 -1 157 34 157 112c0 80 -54 106 -125 106c-23 0 -31 -6 -31 -18z" />
    <glyph glyph-name="q.sc" unicode="&#xf771;" horiz-adv-x="593" 
d="M572 -90l10 -12c-44 -53 -95 -100 -159 -100c-50 0 -265 63 -309 74c-18 -14 -36 -28 -43 -28c-20 0 -35 78 -35 89c0 24 20 27 42 27c17 0 60 -6 67 -7l124 36v2c-4 0 -12 1 -17 2c-149 23 -216 137 -216 247c0 143 104 260 265 260c163 0 255 -114 255 -250
c0 -104 -58 -201 -159 -245c-66 -28 -141 -41 -210 -59v-2c62 -13 231 -64 290 -64c34 0 67 11 95 30zM299 474c-52 0 -147 -44 -147 -234c0 -134 65 -232 149 -232c92 0 139 126 139 238c0 104 -44 228 -141 228z" />
    <glyph glyph-name="r.sc" unicode="&#xf772;" 
d="M208 30l57 -3v-29c-20 1 -51 2 -111 2c-71 0 -92 -1 -123 -2v29l64 3c2 36 2 44 2 126c0 227 0 252 -2 296l-64 3v29c25 -1 53 -2 88 -2c15 0 54 2 92 3c39 2 77 3 90 3c78 0 152 -31 152 -121c0 -92 -99 -124 -99 -128c0 -2 53 -83 95 -145c39 -58 44 -65 80 -66v-28
l-112 -1c-4 0 -22 -2 -25 -2c-10 0 -83 116 -97 138c-9 14 -44 74 -53 84c-7 7 -15 7 -35 7c0 -138 0 -153 1 -196zM207 254h51c62 0 93 39 93 101c0 52 -31 104 -111 104c-27 0 -30 -5 -32 -22c-1 -12 -1 -54 -1 -183z" />
    <glyph glyph-name="s.sc" unicode="&#xf773;" horiz-adv-x="426" 
d="M48 0v136h29c21 -98 78 -126 121 -126c54 0 86 46 86 85c0 113 -242 118 -242 268c0 67 53 137 159 137c55 0 109 -27 120 -27c10 0 13 10 15 17h30v-134h-28c-8 26 -34 116 -115 116c-48 0 -79 -37 -79 -72c0 -102 242 -111 242 -266c0 -78 -64 -152 -170 -152
c-61 0 -116 29 -124 29s-11 -7 -13 -11h-31z" />
    <glyph glyph-name="t.sc" unicode="&#xf774;" horiz-adv-x="500" 
d="M55 352h-45l9 132c75 -1 152 -2 235 -2c90 0 154 1 236 2l-6 -130h-44c-2 48 -1 80 -13 98c-6 9 -55 6 -69 6h-53c-2 -36 -2 -48 -2 -136c0 -222 0 -247 2 -292l64 -3v-29c-23 1 -52 2 -121 2c-70 0 -94 -1 -121 -2v29l64 3c2 36 2 44 2 126c0 230 0 256 -2 302h-46
c-54 0 -67 -3 -77 -36c-3 -11 -11 -60 -13 -70z" />
    <glyph glyph-name="u.sc" unicode="&#xf775;" horiz-adv-x="593" 
d="M578 455l-66 -3l-5 -244c-3 -138 -59 -226 -206 -226s-212 70 -210 227l3 243l-68 3v29c25 -1 37 -2 112 -2c50 0 96 0 139 2v-29l-70 -3l-4 -170c-1 -63 -2 -132 7 -177c11 -62 67 -91 118 -91c88 0 140 64 139 200l-1 238l-68 3v29c26 -1 56 -2 94 -2c40 0 66 1 86 2
v-29z" />
    <glyph glyph-name="v.sc" unicode="&#xf776;" horiz-adv-x="481" 
d="M502 484v-31c-36 -1 -41 -2 -46 -11c-4 -7 -66 -140 -94 -207l-107 -253h-27c-72 181 -139 334 -200 470l-46 3v29c79 -2 175 -2 237 -2v-28c-59 1 -64 -1 -64 -7s56 -144 62 -160l68 -165l107 259c3 6 25 63 25 66c0 5 -6 7 -61 7v28c50 0 90 0 146 2z" />
    <glyph glyph-name="w.sc" unicode="&#xf777;" horiz-adv-x="722" 
d="M735 484v-31c-36 0 -40 0 -47 -16c-1 -3 -58 -145 -69 -177l-106 -278h-28l-119 350h-2l-129 -350h-27c-66 162 -118 328 -172 470l-44 3v29c39 -1 81 -2 110 -2c24 0 54 1 110 2v-29c-18 -1 -55 -1 -55 -8c0 -5 43 -130 49 -147l57 -167h2l87 238l-30 81l-45 3v29
c31 -1 76 -2 112 -2c39 0 78 1 121 2v-29c-54 -2 -69 -3 -69 -9c0 -3 6 -21 8 -27l95 -286h2l58 163c27 75 54 149 54 153c0 6 -50 5 -61 5v28c51 0 113 1 138 2z" />
    <glyph glyph-name="x.sc" unicode="&#xf778;" horiz-adv-x="481" 
d="M496 27v-29c-28 1 -57 2 -108 2c-49 0 -88 -1 -127 -2v29c35 2 56 3 56 11c0 6 -17 31 -23 40l-86 122l-82 -109c-14 -19 -32 -43 -32 -52c0 -11 9 -11 72 -11v-28c-72 0 -121 0 -180 -2v31c52 1 61 10 100 59l107 134l-80 110c-13 18 -77 107 -85 114c-9 8 -17 8 -42 9
v29c82 -2 190 -2 242 -2v-28c-51 -1 -61 -2 -61 -10c0 -4 24 -37 29 -45l70 -99l67 86c7 9 43 57 43 62s-16 6 -58 6v28c44 0 125 1 174 2v-31c-64 -3 -68 -4 -82 -20c-8 -9 -48 -58 -73 -87l-55 -68l101 -141l62 -84c18 -25 20 -25 51 -26z" />
    <glyph glyph-name="y.sc" unicode="&#xf779;" horiz-adv-x="426" 
d="M80 27l79 3c1 43 1 154 1 204l-69 108c-9 15 -53 86 -58 93c-13 18 -17 18 -54 20v29c31 -1 59 -2 113 -2c48 0 89 1 125 2v-29c-52 0 -59 -1 -59 -8c0 -6 52 -94 58 -104l40 -71l28 42c12 18 83 125 83 132c0 6 -7 6 -65 8v28c58 0 81 0 152 2v-30
c-30 -3 -38 -3 -49 -15c-9 -9 -55 -76 -71 -98l-64 -92v-164c0 -21 1 -36 2 -55l78 -3v-29c-33 1 -69 2 -135 2s-100 -1 -135 -2v29z" />
    <glyph glyph-name="z.sc" unicode="&#xf77a;" horiz-adv-x="481" 
d="M458 143l-3 -145c-69 2 -94 2 -212 2h-228v11c111 154 163 236 300 447l-108 -1c-126 -1 -126 -2 -135 -106h-48l5 133c135 -3 354 -2 429 0v-10c-55 -80 -116 -169 -297 -450l85 1c44 1 110 2 130 11c15 8 16 11 36 107h46z" />
    <glyph glyph-name="tilde.sc" unicode="&#xf6fe;" horiz-adv-x="315" 
d="M302 688h24c-8 -31 -29 -113 -110 -113c-29 0 -53 12 -76 25c-23 12 -45 24 -69 24c-38 0 -50 -30 -56 -47h-25c15 56 49 110 104 110c29 0 56 -12 81 -25c25 -12 48 -25 68 -25c39 0 53 36 59 51z" />
    <glyph glyph-name="exclamdown.sc" unicode="&#xf7a1;" horiz-adv-x="278" 
d="M154 333l45 -475l-117 -15l44 490h28zM202 436c0 -35 -29 -64 -64 -64s-64 29 -64 64s29 64 64 64s64 -29 64 -64z" />
    <glyph glyph-name="cent.oldstyle" unicode="&#xf7a2;" 
d="M199 108l133 286c-8 28 -19 34 -50 34c-79 0 -126 -86 -126 -184c0 -59 16 -104 43 -136zM343 346l-119 -259c21 -15 48 -23 76 -23c44 0 89 18 129 79l22 -15c-41 -69 -89 -128 -188 -128c-25 0 -50 4 -74 13l-60 -130h-34l66 142c-62 31 -109 94 -109 196
c0 145 99 233 220 233c32 0 59 -6 81 -15l53 115h34l-59 -129c44 -29 64 -75 64 -110c0 -16 -3 -20 -32 -20c-54 0 -61 12 -68 51h-2z" />
    <glyph glyph-name="lslash.sc" unicode="&#xf6f9;" horiz-adv-x="500" 
d="M398 29l38 111h42l-12 -142c-61 2 -117 2 -268 2c-107 0 -134 -1 -171 -2v29l68 3c2 36 2 45 2 131v26l-80 -43v35l80 43c0 171 0 194 -2 230l-68 3v29c22 -1 50 -2 127 -2s105 1 127 2v-29l-73 -3c-1 -35 -1 -43 -1 -131v-39l135 73v-35l-135 -73c0 -165 0 -172 1 -182
c4 -33 4 -39 113 -39c25 0 53 2 77 3z" />
    <glyph glyph-name="scaron.sc" unicode="&#xf6fd;" horiz-adv-x="426" 
d="M48 0v136h29c21 -98 78 -126 121 -126c54 0 86 46 86 85c0 113 -242 118 -242 268c0 67 53 137 159 137c55 0 109 -27 120 -27c10 0 13 10 15 17h30v-134h-28c-8 26 -34 116 -115 116c-48 0 -79 -37 -79 -72c0 -102 242 -111 242 -266c0 -78 -64 -152 -170 -152
c-61 0 -116 29 -124 29s-11 -7 -13 -11h-31zM215 620l131 102h26l-125 -172h-64l-125 172h26z" />
    <glyph glyph-name="zcaron.sc" unicode="&#xf6ff;" horiz-adv-x="481" 
d="M458 143l-3 -145c-69 2 -94 2 -212 2h-228v11c111 154 163 236 300 447l-108 -1c-126 -1 -126 -2 -135 -106h-48l5 133c135 -3 354 -2 429 0v-10c-55 -80 -116 -169 -297 -450l85 1c44 1 110 2 130 11c15 8 16 11 36 107h46zM238 620l131 102h26l-125 -172h-64l-125 172
h26z" />
    <glyph glyph-name="dieresis.sc" unicode="&#xf7a8;" horiz-adv-x="315" 
d="M117 627c0 -37 -29 -67 -62 -67c-31 0 -52 22 -52 55c0 35 27 65 61 65c26 0 53 -18 53 -53zM314 627c0 -37 -29 -67 -62 -67c-31 0 -52 22 -52 55c0 35 27 65 61 65c26 0 53 -18 53 -53z" />
    <glyph glyph-name="breve.sc" unicode="&#xf6f4;" horiz-adv-x="315" 
d="M16 710h26c4 -22 16 -93 116 -93s112 71 116 93h26c-1 -32 -3 -159 -142 -159s-141 129 -142 159z" />
    <glyph glyph-name="caron.sc" unicode="&#xf6f5;" horiz-adv-x="315" 
d="M159 620l131 102h26l-125 -172h-64l-125 172h26z" />
    <glyph glyph-name="dotaccent.sc" unicode="&#xf6f7;" horiz-adv-x="315" 
d="M219 627c0 -38 -31 -69 -66 -69c-33 0 -56 22 -56 57c0 37 31 69 66 69c28 0 56 -19 56 -57z" />
    <glyph glyph-name="macron.sc" unicode="&#xf7af;" horiz-adv-x="315" 
d="M313 649v-57h-311v57h311z" />
    <glyph glyph-name="ogonek.sc" unicode="&#xf6fb;" horiz-adv-x="315" 
d="M254 13v-11c-61 -20 -150 -61 -150 -126c0 -33 26 -52 57 -52c40 0 80 23 101 35l12 -21c-46 -29 -93 -58 -150 -58c-56 0 -94 34 -94 82c0 96 132 135 224 151z" />
    <glyph glyph-name="ring.sc" unicode="&#xf6fc;" horiz-adv-x="315" 
d="M260 620c0 -56 -46 -102 -102 -102s-102 46 -102 102s46 102 102 102s102 -46 102 -102zM220 620c0 34 -28 62 -62 62s-62 -28 -62 -62s28 -62 62 -62s62 28 62 62z" />
    <glyph glyph-name="cedilla.sc" unicode="&#xf7b8;" horiz-adv-x="315" 
d="M135 0h25l-31 -70c10 4 22 10 44 10c47 0 83 -29 83 -75c0 -54 -51 -84 -121 -84c-30 0 -59 5 -87 18l8 23c15 -5 37 -13 63 -13c47 0 61 27 61 49c0 28 -23 42 -46 42c-14 0 -23 -4 -31 -7l-13 7z" />
    <glyph glyph-name="questiondown.sc" unicode="&#xf7bf;" horiz-adv-x="444" 
d="M288 334l6 -147c-12 -8 -148 -93 -148 -174c0 -34 26 -75 97 -75c63 0 118 26 141 37l-12 -104c-43 -17 -88 -27 -134 -27c-113 0 -182 58 -182 137c0 93 82 157 202 222l5 131h25zM336 436c0 -35 -29 -64 -64 -64s-64 29 -64 64s29 64 64 64s64 -29 64 -64z" />
    <glyph glyph-name="one.superior" horiz-adv-x="352" 
d="M58 300v28l75 5c2 87 2 88 2 136l1 197l-73 1v36l166 12l-1 -382l75 -5v-28c-48 1 -86 2 -124 2s-75 -1 -121 -2z" />
    <glyph glyph-name="two.superior" horiz-adv-x="352" 
d="M16 300v14c46 41 210 183 210 255c0 25 -17 59 -73 59c-61 0 -107 -35 -115 -35c-5 0 -4 7 -4 9l12 89c55 27 105 27 120 27c70 0 134 -38 134 -111c0 -61 -39 -97 -169 -218h158l9 41h27l-12 -129h-133c-114 0 -127 0 -164 -1z" />
    <glyph glyph-name="three.superior" horiz-adv-x="352" 
d="M53 614l11 89c22 6 58 15 98 15c96 0 128 -52 128 -93c0 -50 -46 -72 -73 -83v-2c18 -3 94 -20 94 -96c0 -125 -215 -157 -253 -157c-9 0 -11 1 -11 13c0 10 3 11 29 17c69 15 145 38 145 97c0 64 -77 69 -108 71c-36 3 -40 6 -40 12c0 12 4 14 13 15c8 1 128 21 128 78
c0 21 -16 48 -67 48c-8 0 -44 0 -94 -24z" />
    <glyph glyph-name="agrave.sc" unicode="&#xf7e0;" horiz-adv-x="481" 
d="M257 170h-122c-11 0 -13 -3 -16 -11l-38 -100c-4 -10 -6 -17 -6 -20c0 -7 4 -11 65 -11v-30c-18 1 -43 2 -77 2s-53 -1 -69 -2v30c28 2 39 3 52 29c8 14 44 103 78 188l101 255h27l138 -337c10 -22 45 -102 51 -112c11 -19 25 -21 45 -23v-30c-26 1 -59 2 -125 2
c-60 0 -88 -1 -113 -2v30c62 2 71 3 71 9c0 3 -3 10 -5 16l-40 106c-4 11 -5 11 -17 11zM147 194h100c4 0 11 1 11 5c0 2 -1 6 -2 9l-52 140c-3 8 -5 13 -7 13c-1 0 -2 -3 -4 -8l-55 -145c-1 -1 -3 -7 -3 -9c0 -3 5 -5 12 -5zM289 550l-172 100c-16 10 -27 21 -27 39
c0 23 17 39 37 39c19 0 28 -9 48 -30l141 -148h-27z" />
    <glyph glyph-name="aacute.sc" unicode="&#xf7e1;" horiz-adv-x="481" 
d="M257 170h-122c-11 0 -13 -3 -16 -11l-38 -100c-4 -10 -6 -17 -6 -20c0 -7 4 -11 65 -11v-30c-18 1 -43 2 -77 2s-53 -1 -69 -2v30c28 2 39 3 52 29c8 14 44 103 78 188l101 255h27l138 -337c10 -22 45 -102 51 -112c11 -19 25 -21 45 -23v-30c-26 1 -59 2 -125 2
c-60 0 -88 -1 -113 -2v30c62 2 71 3 71 9c0 3 -3 10 -5 16l-40 106c-4 11 -5 11 -17 11zM147 194h100c4 0 11 1 11 5c0 2 -1 6 -2 9l-52 140c-3 8 -5 13 -7 13c-1 0 -2 -3 -4 -8l-55 -145c-1 -1 -3 -7 -3 -9c0 -3 5 -5 12 -5zM196 550h-28l142 149c15 16 27 29 47 29
c21 0 37 -18 37 -38c0 -19 -11 -30 -27 -40z" />
    <glyph glyph-name="acircumflex.sc" unicode="&#xf7e2;" horiz-adv-x="481" 
d="M257 170h-122c-11 0 -13 -3 -16 -11l-38 -100c-4 -10 -6 -17 -6 -20c0 -7 4 -11 65 -11v-30c-18 1 -43 2 -77 2s-53 -1 -69 -2v30c28 2 39 3 52 29c8 14 44 103 78 188l101 255h27l138 -337c10 -22 45 -102 51 -112c11 -19 25 -21 45 -23v-30c-26 1 -59 2 -125 2
c-60 0 -88 -1 -113 -2v30c62 2 71 3 71 9c0 3 -3 10 -5 16l-40 106c-4 11 -5 11 -17 11zM147 194h100c4 0 11 1 11 5c0 2 -1 6 -2 9l-52 140c-3 8 -5 13 -7 13c-1 0 -2 -3 -4 -8l-55 -145c-1 -1 -3 -7 -3 -9c0 -3 5 -5 12 -5zM241 652l-131 -102h-26l125 172h64l125 -172
h-26z" />
    <glyph glyph-name="atilde.sc" unicode="&#xf7e3;" horiz-adv-x="481" 
d="M257 170h-122c-11 0 -13 -3 -16 -11l-38 -100c-4 -10 -6 -17 -6 -20c0 -7 4 -11 65 -11v-30c-18 1 -43 2 -77 2s-53 -1 -69 -2v30c28 2 39 3 52 29c8 14 44 103 78 188l101 255h27l138 -337c10 -22 45 -102 51 -112c11 -19 25 -21 45 -23v-30c-26 1 -59 2 -125 2
c-60 0 -88 -1 -113 -2v30c62 2 71 3 71 9c0 3 -3 10 -5 16l-40 106c-4 11 -5 11 -17 11zM147 194h100c4 0 11 1 11 5c0 2 -1 6 -2 9l-52 140c-3 8 -5 13 -7 13c-1 0 -2 -3 -4 -8l-55 -145c-1 -1 -3 -7 -3 -9c0 -3 5 -5 12 -5zM385 688h24c-8 -31 -29 -113 -110 -113
c-29 0 -53 12 -76 25c-23 12 -45 24 -69 24c-38 0 -50 -30 -56 -47h-25c15 56 49 110 104 110c29 0 56 -12 81 -25c25 -12 48 -25 68 -25c39 0 53 36 59 51z" />
    <glyph glyph-name="adieresis.sc" unicode="&#xf7e4;" horiz-adv-x="481" 
d="M257 170h-122c-11 0 -13 -3 -16 -11l-38 -100c-4 -10 -6 -17 -6 -20c0 -7 4 -11 65 -11v-30c-18 1 -43 2 -77 2s-53 -1 -69 -2v30c28 2 39 3 52 29c8 14 44 103 78 188l101 255h27l138 -337c10 -22 45 -102 51 -112c11 -19 25 -21 45 -23v-30c-26 1 -59 2 -125 2
c-60 0 -88 -1 -113 -2v30c62 2 71 3 71 9c0 3 -3 10 -5 16l-40 106c-4 11 -5 11 -17 11zM147 194h100c4 0 11 1 11 5c0 2 -1 6 -2 9l-52 140c-3 8 -5 13 -7 13c-1 0 -2 -3 -4 -8l-55 -145c-1 -1 -3 -7 -3 -9c0 -3 5 -5 12 -5zM200 627c0 -37 -29 -67 -62 -67
c-31 0 -52 22 -52 55c0 35 27 65 61 65c26 0 53 -18 53 -53zM397 627c0 -37 -29 -67 -62 -67c-31 0 -52 22 -52 55c0 35 27 65 61 65c26 0 53 -18 53 -53z" />
    <glyph glyph-name="aring.sc" unicode="&#xf7e5;" horiz-adv-x="481" 
d="M257 170h-122c-11 0 -13 -3 -16 -11l-38 -100c-4 -10 -6 -17 -6 -20c0 -7 4 -11 65 -11v-30c-18 1 -43 2 -77 2s-53 -1 -69 -2v30c28 2 39 3 52 29c8 14 44 103 78 188l101 255h27l138 -337c10 -22 45 -102 51 -112c11 -19 25 -21 45 -23v-30c-26 1 -59 2 -125 2
c-60 0 -88 -1 -113 -2v30c62 2 71 3 71 9c0 3 -3 10 -5 16l-40 106c-4 11 -5 11 -17 11zM147 194h100c4 0 11 1 11 5c0 2 -1 6 -2 9l-52 140c-3 8 -5 13 -7 13c-1 0 -2 -3 -4 -8l-55 -145c-1 -1 -3 -7 -3 -9c0 -3 5 -5 12 -5zM343 620c0 -56 -46 -102 -102 -102
s-102 46 -102 102s46 102 102 102s102 -46 102 -102zM303 620c0 34 -28 62 -62 62s-62 -28 -62 -62s28 -62 62 -62s62 28 62 62z" />
    <glyph glyph-name="ae.sc" unicode="&#xf7e6;" horiz-adv-x="704" 
d="M282 220h-140l-104 -168c-2 -4 -7 -13 -7 -15c0 -5 3 -7 59 -9v-28c-85 0 -105 0 -140 -2v31c37 2 39 5 59 35c75 116 146 227 235 370c4 6 9 12 9 15s-24 5 -59 7v28c63 -1 82 -2 109 -2h127c62 0 149 1 211 2v-116h-46c-3 56 -4 74 -20 82c-18 9 -66 8 -109 8h-74v-192
c74 1 82 0 93 5c13 6 16 26 17 81h42c-1 -86 -1 -116 1 -194h-43c-4 41 -5 71 -10 77c-8 8 -54 7 -100 7c0 -28 0 -185 3 -199c5 -19 23 -19 59 -19h135l33 114h42l-10 -138h-219c-44 0 -189 -1 -223 -2v29l68 3c2 43 2 142 2 190zM157 244h125v194h-4z" />
    <glyph glyph-name="ccedilla.sc" unicode="&#xf7e7;" horiz-adv-x="556" 
d="M476 163h27c-6 -49 -8 -109 -8 -117c-47 -27 -116 -63 -207 -63l-24 -53c10 4 23 9 44 9c48 0 84 -28 84 -74c0 -54 -51 -84 -121 -84c-30 0 -60 5 -87 18l7 23c15 -5 37 -13 64 -13c46 0 62 27 62 49c0 28 -24 42 -48 42c-14 0 -23 -4 -30 -7l-13 7l37 85
c-158 17 -226 147 -226 256c0 123 86 258 249 258c60 0 109 -18 150 -37c4 -3 12 -6 16 -6c7 0 11 7 13 13h33c-1 -31 1 -126 1 -146h-29c-26 74 -75 147 -164 147c-112 0 -154 -128 -154 -220c0 -115 57 -235 163 -235c91 0 139 77 161 148z" />
    <glyph glyph-name="egrave.sc" unicode="&#xf7e8;" horiz-adv-x="537" 
d="M498 138l-10 -138h-237c-45 0 -190 -1 -223 -2v29l68 3c2 36 2 45 2 131c0 221 0 246 -2 291l-68 3v29c35 -1 83 -2 188 -2c27 0 204 1 259 2v-116h-44c-4 56 -5 74 -22 82c-18 9 -66 10 -108 10h-93v-194c19 0 92 0 105 5c17 8 17 72 18 81h40c-1 -86 0 -116 2 -194h-43
c-3 40 -6 72 -11 77c-9 8 -76 7 -111 7c0 -28 0 -185 3 -199c5 -19 21 -19 67 -19h146l33 114h41zM317 550l-172 100c-16 10 -27 21 -27 39c0 23 17 39 37 39c19 0 28 -9 48 -30l141 -148h-27z" />
    <glyph glyph-name="eacute.sc" unicode="&#xf7e9;" horiz-adv-x="537" 
d="M498 138l-10 -138h-237c-45 0 -190 -1 -223 -2v29l68 3c2 36 2 45 2 131c0 221 0 246 -2 291l-68 3v29c35 -1 83 -2 188 -2c27 0 204 1 259 2v-116h-44c-4 56 -5 74 -22 82c-18 9 -66 10 -108 10h-93v-194c19 0 92 0 105 5c17 8 17 72 18 81h40c-1 -86 0 -116 2 -194h-43
c-3 40 -6 72 -11 77c-9 8 -76 7 -111 7c0 -28 0 -185 3 -199c5 -19 21 -19 67 -19h146l33 114h41zM224 550h-28l142 149c15 16 27 29 47 29c21 0 37 -18 37 -38c0 -19 -11 -30 -27 -40z" />
    <glyph glyph-name="ecircumflex.sc" unicode="&#xf7ea;" horiz-adv-x="537" 
d="M498 138l-10 -138h-237c-45 0 -190 -1 -223 -2v29l68 3c2 36 2 45 2 131c0 221 0 246 -2 291l-68 3v29c35 -1 83 -2 188 -2c27 0 204 1 259 2v-116h-44c-4 56 -5 74 -22 82c-18 9 -66 10 -108 10h-93v-194c19 0 92 0 105 5c17 8 17 72 18 81h40c-1 -86 0 -116 2 -194h-43
c-3 40 -6 72 -11 77c-9 8 -76 7 -111 7c0 -28 0 -185 3 -199c5 -19 21 -19 67 -19h146l33 114h41zM269 652l-131 -102h-26l125 172h64l125 -172h-26z" />
    <glyph glyph-name="edieresis.sc" unicode="&#xf7eb;" horiz-adv-x="537" 
d="M498 138l-10 -138h-237c-45 0 -190 -1 -223 -2v29l68 3c2 36 2 45 2 131c0 221 0 246 -2 291l-68 3v29c35 -1 83 -2 188 -2c27 0 204 1 259 2v-116h-44c-4 56 -5 74 -22 82c-18 9 -66 10 -108 10h-93v-194c19 0 92 0 105 5c17 8 17 72 18 81h40c-1 -86 0 -116 2 -194h-43
c-3 40 -6 72 -11 77c-9 8 -76 7 -111 7c0 -28 0 -185 3 -199c5 -19 21 -19 67 -19h146l33 114h41zM228 627c0 -37 -29 -67 -62 -67c-31 0 -52 22 -52 55c0 35 27 65 61 65c26 0 53 -18 53 -53zM425 627c0 -37 -29 -67 -62 -67c-31 0 -52 22 -52 55c0 35 27 65 61 65
c26 0 53 -18 53 -53z" />
    <glyph glyph-name="igrave.sc" unicode="&#xf7ec;" horiz-adv-x="315" 
d="M214 30l65 -3v-29c-24 1 -52 2 -122 2c-69 0 -94 -1 -121 -2v29l65 3c1 36 1 47 1 136c0 215 0 239 -1 286l-65 3v29c23 -1 52 -2 121 -2c70 0 95 1 122 2v-29l-65 -3c-1 -36 -2 -45 -2 -131c0 -221 0 -246 2 -291zM206 550l-172 100c-16 10 -27 21 -27 39
c0 23 17 39 37 39c19 0 28 -9 48 -30l141 -148h-27z" />
    <glyph glyph-name="iacute.sc" unicode="&#xf7ed;" horiz-adv-x="315" 
d="M214 30l65 -3v-29c-24 1 -52 2 -122 2c-69 0 -94 -1 -121 -2v29l65 3c1 36 1 47 1 136c0 215 0 239 -1 286l-65 3v29c23 -1 52 -2 121 -2c70 0 95 1 122 2v-29l-65 -3c-1 -36 -2 -45 -2 -131c0 -221 0 -246 2 -291zM113 550h-28l142 149c15 16 27 29 47 29
c21 0 37 -18 37 -38c0 -19 -11 -30 -27 -40z" />
    <glyph glyph-name="icircumflex.sc" unicode="&#xf7ee;" horiz-adv-x="315" 
d="M214 30l65 -3v-29c-24 1 -52 2 -122 2c-69 0 -94 -1 -121 -2v29l65 3c1 36 1 47 1 136c0 215 0 239 -1 286l-65 3v29c23 -1 52 -2 121 -2c70 0 95 1 122 2v-29l-65 -3c-1 -36 -2 -45 -2 -131c0 -221 0 -246 2 -291zM158 652l-131 -102h-26l125 172h64l125 -172h-26z" />
    <glyph glyph-name="idieresis.sc" unicode="&#xf7ef;" horiz-adv-x="315" 
d="M214 30l65 -3v-29c-24 1 -52 2 -122 2c-69 0 -94 -1 -121 -2v29l65 3c1 36 1 47 1 136c0 215 0 239 -1 286l-65 3v29c23 -1 52 -2 121 -2c70 0 95 1 122 2v-29l-65 -3c-1 -36 -2 -45 -2 -131c0 -221 0 -246 2 -291zM122 627c0 -37 -29 -67 -62 -67c-31 0 -52 22 -52 55
c0 35 27 65 61 65c26 0 53 -18 53 -53zM319 627c0 -37 -29 -67 -62 -67c-31 0 -52 22 -52 55c0 35 27 65 61 65c26 0 53 -18 53 -53z" />
    <glyph glyph-name="eth.sc" unicode="&#xf7f0;" horiz-adv-x="611" 
d="M97 232h-81v30h80c1 142 0 162 -1 190l-65 2v28c44 0 238 6 277 6c163 0 269 -94 269 -245c0 -172 -125 -245 -283 -245c-22 0 -123 2 -144 2c-56 0 -82 -1 -119 -2v29l65 3c2 36 2 44 2 126v76zM343 232h-136v-172c1 -28 13 -36 77 -36c93 0 178 83 178 212
c0 137 -88 226 -213 226c-23 0 -37 -4 -39 -11c-3 -9 -3 -156 -3 -177v-12h136v-30z" />
    <glyph glyph-name="ntilde.sc" unicode="&#xf7f1;" horiz-adv-x="574" 
d="M488 -8h-20c-118 124 -237 248 -351 375l1 -162c0 -28 2 -150 3 -175l73 -3v-29c-26 1 -52 2 -90 2c-37 0 -62 -1 -89 -2v29l68 3c2 32 5 172 5 201v118c0 42 -1 47 -6 56c-23 33 -49 42 -67 48v31c44 -2 74 -2 143 -2c98 -111 202 -220 302 -327v106c0 63 2 129 -1 191
l-71 3v29c25 -1 61 -2 88 -2c25 0 52 1 86 2v-29l-67 -3c-2 -66 -4 -143 -5 -210zM432 688h24c-8 -31 -29 -113 -110 -113c-29 0 -53 12 -76 25c-23 12 -45 24 -69 24c-38 0 -50 -30 -56 -47h-25c15 56 49 110 104 110c29 0 56 -12 81 -25c25 -12 48 -25 68 -25
c39 0 53 36 59 51z" />
    <glyph glyph-name="ograve.sc" unicode="&#xf7f2;" horiz-adv-x="593" 
d="M36 238c0 154 112 262 265 262c152 0 255 -102 255 -253c0 -125 -84 -265 -259 -265c-146 0 -261 101 -261 256zM152 240c0 -134 65 -232 149 -232c92 0 139 126 139 238c0 104 -44 228 -141 228c-52 0 -147 -44 -147 -234zM345 550l-172 100c-16 10 -27 21 -27 39
c0 23 17 39 37 39c19 0 28 -9 48 -30l141 -148h-27z" />
    <glyph glyph-name="oacute.sc" unicode="&#xf7f3;" horiz-adv-x="593" 
d="M36 238c0 154 112 262 265 262c152 0 255 -102 255 -253c0 -125 -84 -265 -259 -265c-146 0 -261 101 -261 256zM152 240c0 -134 65 -232 149 -232c92 0 139 126 139 238c0 104 -44 228 -141 228c-52 0 -147 -44 -147 -234zM252 550h-28l142 149c15 16 27 29 47 29
c21 0 37 -18 37 -38c0 -19 -11 -30 -27 -40z" />
    <glyph glyph-name="ocircumflex.sc" unicode="&#xf7f4;" horiz-adv-x="593" 
d="M36 238c0 154 112 262 265 262c152 0 255 -102 255 -253c0 -125 -84 -265 -259 -265c-146 0 -261 101 -261 256zM152 240c0 -134 65 -232 149 -232c92 0 139 126 139 238c0 104 -44 228 -141 228c-52 0 -147 -44 -147 -234zM297 652l-131 -102h-26l125 172h64l125 -172
h-26z" />
    <glyph glyph-name="otilde.sc" unicode="&#xf7f5;" horiz-adv-x="593" 
d="M36 238c0 154 112 262 265 262c152 0 255 -102 255 -253c0 -125 -84 -265 -259 -265c-146 0 -261 101 -261 256zM152 240c0 -134 65 -232 149 -232c92 0 139 126 139 238c0 104 -44 228 -141 228c-52 0 -147 -44 -147 -234zM447 688h24c-8 -31 -29 -113 -110 -113
c-29 0 -53 12 -76 25c-23 12 -45 24 -69 24c-38 0 -50 -30 -56 -47h-25c15 56 49 110 104 110c29 0 56 -12 81 -25c25 -12 48 -25 68 -25c39 0 53 36 59 51z" />
    <glyph glyph-name="odieresis.sc" unicode="&#xf7f6;" horiz-adv-x="593" 
d="M36 238c0 154 112 262 265 262c152 0 255 -102 255 -253c0 -125 -84 -265 -259 -265c-146 0 -261 101 -261 256zM152 240c0 -134 65 -232 149 -232c92 0 139 126 139 238c0 104 -44 228 -141 228c-52 0 -147 -44 -147 -234zM256 627c0 -37 -29 -67 -62 -67
c-31 0 -52 22 -52 55c0 35 27 65 61 65c26 0 53 -18 53 -53zM453 627c0 -37 -29 -67 -62 -67c-31 0 -52 22 -52 55c0 35 27 65 61 65c26 0 53 -18 53 -53z" />
    <glyph glyph-name="oe.sc" unicode="&#xf6fa;" horiz-adv-x="815" 
d="M752 484v-116h-46c-3 56 -4 74 -20 82c-18 9 -66 8 -109 8h-74v-192c74 1 87 2 93 5c11 6 14 17 18 81h41c-1 -86 -1 -116 1 -194h-43c-5 37 -4 71 -11 77c-8 7 -50 7 -99 7c0 -28 0 -185 3 -199c5 -19 23 -19 59 -19h135l33 114h42l-10 -138h-219c-52 0 -95 -3 -134 -6
c-38 -3 -71 -6 -102 -6c-163 0 -274 84 -274 255c0 131 79 251 271 251c36 0 72 -3 108 -6c35 -3 71 -6 107 -6c69 0 161 1 230 2zM315 14c18 0 70 2 76 29c3 12 2 334 2 373c0 30 -15 52 -77 52c-108 0 -164 -98 -164 -227c0 -102 37 -227 163 -227z" />
    <glyph glyph-name="oslash.sc" unicode="&#xf7f8;" horiz-adv-x="593" 
d="M181 101l205 328c-22 28 -51 45 -87 45c-52 0 -147 -44 -147 -234c0 -53 10 -101 29 -139zM409 391l-206 -328c25 -34 59 -55 98 -55c92 0 139 126 139 238c0 50 -10 104 -31 145zM416 477l78 124h46l-89 -143c66 -43 105 -118 105 -211c0 -125 -84 -265 -259 -265
c-47 0 -90 11 -127 29l-83 -133h-46l96 153c-62 45 -101 117 -101 207c0 154 112 262 265 262c43 0 82 -8 115 -23z" />
    <glyph glyph-name="ugrave.sc" unicode="&#xf7f9;" horiz-adv-x="593" 
d="M578 455l-66 -3l-5 -244c-3 -138 -59 -226 -206 -226s-212 70 -210 227l3 243l-68 3v29c25 -1 37 -2 112 -2c50 0 96 0 139 2v-29l-70 -3l-4 -170c-1 -63 -2 -132 7 -177c11 -62 67 -91 118 -91c88 0 140 64 139 200l-1 238l-68 3v29c26 -1 56 -2 94 -2c40 0 66 1 86 2
v-29zM351 550l-172 100c-16 10 -27 21 -27 39c0 23 17 39 37 39c19 0 28 -9 48 -30l141 -148h-27z" />
    <glyph glyph-name="uacute.sc" unicode="&#xf7fa;" horiz-adv-x="593" 
d="M578 455l-66 -3l-5 -244c-3 -138 -59 -226 -206 -226s-212 70 -210 227l3 243l-68 3v29c25 -1 37 -2 112 -2c50 0 96 0 139 2v-29l-70 -3l-4 -170c-1 -63 -2 -132 7 -177c11 -62 67 -91 118 -91c88 0 140 64 139 200l-1 238l-68 3v29c26 -1 56 -2 94 -2c40 0 66 1 86 2
v-29zM258 550h-28l142 149c15 16 27 29 47 29c21 0 37 -18 37 -38c0 -19 -11 -30 -27 -40z" />
    <glyph glyph-name="ucircumflex.sc" unicode="&#xf7fb;" horiz-adv-x="593" 
d="M578 455l-66 -3l-5 -244c-3 -138 -59 -226 -206 -226s-212 70 -210 227l3 243l-68 3v29c25 -1 37 -2 112 -2c50 0 96 0 139 2v-29l-70 -3l-4 -170c-1 -63 -2 -132 7 -177c11 -62 67 -91 118 -91c88 0 140 64 139 200l-1 238l-68 3v29c26 -1 56 -2 94 -2c40 0 66 1 86 2
v-29zM303 652l-131 -102h-26l125 172h64l125 -172h-26z" />
    <glyph glyph-name="udieresis.sc" unicode="&#xf7fc;" horiz-adv-x="593" 
d="M578 455l-66 -3l-5 -244c-3 -138 -59 -226 -206 -226s-212 70 -210 227l3 243l-68 3v29c25 -1 37 -2 112 -2c50 0 96 0 139 2v-29l-70 -3l-4 -170c-1 -63 -2 -132 7 -177c11 -62 67 -91 118 -91c88 0 140 64 139 200l-1 238l-68 3v29c26 -1 56 -2 94 -2c40 0 66 1 86 2
v-29zM266 627c0 -37 -29 -67 -62 -67c-31 0 -52 22 -52 55c0 35 27 65 61 65c26 0 53 -18 53 -53zM463 627c0 -37 -29 -67 -62 -67c-31 0 -52 22 -52 55c0 35 27 65 61 65c26 0 53 -18 53 -53z" />
    <glyph glyph-name="yacute.sc" unicode="&#xf7fd;" horiz-adv-x="426" 
d="M80 27l79 3c1 43 1 154 1 204l-69 108c-9 15 -53 86 -58 93c-13 18 -17 18 -54 20v29c31 -1 59 -2 113 -2c48 0 89 1 125 2v-29c-52 0 -59 -1 -59 -8c0 -6 52 -94 58 -104l40 -71l28 42c12 18 83 125 83 132c0 6 -7 6 -65 8v28c58 0 81 0 152 2v-30
c-30 -3 -38 -3 -49 -15c-9 -9 -55 -76 -71 -98l-64 -92v-164c0 -21 1 -36 2 -55l78 -3v-29c-33 1 -69 2 -135 2s-100 -1 -135 -2v29zM175 550h-28l142 149c15 16 27 29 47 29c21 0 37 -18 37 -38c0 -19 -11 -30 -27 -40z" />
    <glyph glyph-name="thorn.sc" unicode="&#xf7fe;" horiz-adv-x="500" 
d="M208 30l71 -3v-29c-28 1 -58 2 -125 2c-78 0 -100 -1 -130 -2v29l71 3c2 36 2 44 2 126c0 227 0 252 -2 296l-71 3v29c26 -1 52 -2 130 -2c67 0 97 1 125 2v-29l-71 -3c-1 -25 -1 -34 -1 -73c51 4 78 5 88 5c111 0 171 -50 171 -135c0 -124 -120 -141 -197 -141h-62
c0 -34 0 -53 1 -78zM207 354v-220c115 0 157 38 157 113c0 85 -50 107 -157 107z" />
    <glyph glyph-name="ydieresis.sc" unicode="&#xf7ff;" horiz-adv-x="426" 
d="M80 27l79 3c1 43 1 154 1 204l-69 108c-9 15 -53 86 -58 93c-13 18 -17 18 -54 20v29c31 -1 59 -2 113 -2c48 0 89 1 125 2v-29c-52 0 -59 -1 -59 -8c0 -6 52 -94 58 -104l40 -71l28 42c12 18 83 125 83 132c0 6 -7 6 -65 8v28c58 0 81 0 152 2v-30
c-30 -3 -38 -3 -49 -15c-9 -9 -55 -76 -71 -98l-64 -92v-164c0 -21 1 -36 2 -55l78 -3v-29c-33 1 -69 2 -135 2s-100 -1 -135 -2v29zM183 627c0 -37 -29 -67 -62 -67c-31 0 -52 22 -52 55c0 35 27 65 61 65c26 0 53 -18 53 -53zM380 627c0 -37 -29 -67 -62 -67
c-31 0 -52 22 -52 55c0 35 27 65 61 65c26 0 53 -18 53 -53z" />
    <glyph glyph-name="Delta" unicode="&#x2206;" horiz-adv-x="606" 
d="M572 0h-539v28l245 674l40 11l254 -685v-28zM455 51l-186 513l-181 -513h367z" />
    <glyph glyph-name="Omega" unicode="&#x2126;" horiz-adv-x="679" 
d="M647 149l-23 -149h-225l-7 18c40 95 115 235 114 374c-1 213 -81 289 -168 289c-92 0 -166 -72 -166 -294c0 -135 64 -265 113 -368l-9 -19h-223l-22 149l27 1c19 -64 35 -74 73 -74h94c-61 57 -161 157 -161 319c0 195 122 319 277 319c157 0 273 -118 273 -313
c0 -147 -95 -252 -166 -325h101c39 0 51 8 70 74z" />
    <glyph glyph-name="uni03BC" unicode="&#x3bc;" horiz-adv-x="574" 
d="M539 40v-32c-37 -9 -79 -20 -111 -20c-43 0 -34 29 -45 29c-5 0 -90 -29 -125 -29c-28 0 -53 9 -64 12v-244c0 -13 -3 -16 -23 -16h-70c-12 0 -15 0 -15 21v620l-47 5v34l155 12v-300c0 -90 24 -112 87 -112c22 0 66 6 85 14c11 4 10 7 10 37v293c0 16 -3 20 -65 22v34
l173 12v-392h55z" />
    <glyph glyph-name="pi" unicode="&#x3c0;" horiz-adv-x="542" 
d="M491 478l25 -8c-7 -40 -22 -77 -34 -95c-16 -5 -38 -5 -64 -5c-5 -65 -4 -157 -4 -227c0 -62 11 -92 40 -92c19 0 30 9 47 28l13 -22c-25 -45 -66 -70 -103 -70c-50 0 -89 28 -89 133c0 95 4 171 10 252c-51 1 -100 2 -139 2v-17c0 -234 -48 -332 -63 -352
c-19 -8 -45 -16 -62 -18l-7 19c72 96 91 265 91 370c-62 0 -85 -16 -122 -43l-15 25c27 33 65 92 167 91c72 -1 160 -4 252 -4c31 0 42 6 57 33z" />
    <glyph glyph-name="Euro" unicode="&#x20ac;" 
d="M456 209h29c-6 -56 -9 -101 -13 -165c-15 -9 -42 -24 -72 -35c-37 -14 -80 -22 -110 -22c-67 0 -109 29 -147 82c-45 63 -69 145 -75 220h-55l8 28h45v5c0 14 -1 28 -1 42c0 13 2 33 2 39h-54l7 28h51c4 41 19 123 63 193c41 64 91 94 153 94c37 0 70 -14 92 -25
c38 -19 41 -22 44 -22c12 0 12 9 17 19h37l2 -180h-32c-3 18 -11 55 -29 92c-33 70 -79 84 -104 84c-19 0 -39 -10 -54 -22c-24 -19 -39 -47 -50 -75c-19 -47 -31 -105 -34 -158h235l-7 -28h-230v-10c0 -11 -1 -22 -1 -33c0 -12 1 -25 1 -37v-6h204l-8 -28h-193
c3 -46 14 -112 45 -178c18 -38 50 -90 106 -90c17 0 34 5 48 15c18 12 30 31 40 50c24 45 35 92 40 123z" />
    <glyph glyph-name="afii61289" unicode="&#x2113;" horiz-adv-x="402" 
d="M365 122l21 -17c-37 -73 -91 -115 -163 -115c-49 0 -82 15 -102 40c-22 29 -32 60 -32 147v83l-55 -41l-13 26l67 54v135c0 160 11 212 51 263c26 35 57 53 90 53c60 0 91 -59 91 -135c0 -121 -59 -210 -139 -296v-95c0 -133 26 -173 81 -173c45 0 77 32 103 71zM181 491
v-122c49 62 85 156 85 245c0 64 -14 104 -42 104c-33 0 -43 -52 -43 -227z" />
    <glyph glyph-name="estimated" unicode="&#x212e;" horiz-adv-x="879" 
d="M844 342h-656c-3 0 -5 -1 -5 -4v-198c0 -9 3 -17 8 -23c64 -66 151 -108 248 -108c105 0 198 48 261 121h59c-73 -85 -190 -141 -321 -141c-223 0 -404 162 -404 363c0 202 181 364 404 364c225 0 406 -162 406 -364v-10zM695 368v200c0 8 -3 17 -10 23
c-63 63 -150 104 -246 104s-183 -42 -246 -107c-7 -6 -10 -15 -10 -25v-195c0 -2 2 -6 5 -6h503c3 0 4 4 4 6z" />
    <glyph glyph-name="partialdiff" unicode="&#x2202;" horiz-adv-x="509" 
d="M253 436h1c41 0 90 -19 121 -65c4 33 8 72 9 111c3 50 -3 107 -23 158c-19 44 -62 89 -123 89c-50 0 -97 -28 -130 -57c-16 -1 -39 45 -31 68c33 22 78 41 134 41c92 0 157 -55 201 -145c38 -79 48 -176 48 -239c0 -78 -13 -179 -46 -252c-39 -91 -105 -155 -199 -155
c-104 0 -174 74 -174 200c0 71 26 131 57 170c34 43 93 76 155 76zM274 394h-1c-35 0 -68 -14 -96 -58c-29 -51 -44 -128 -44 -199c0 -65 30 -116 83 -116c48 0 82 58 103 109c26 60 37 115 47 197c-10 26 -45 67 -92 67z" />
    <glyph glyph-name="product" unicode="&#x220f;" horiz-adv-x="660" 
d="M633 705v-28c-82 -7 -88 -15 -88 -79v-571c0 -72 7 -81 86 -87v-28h-256v28c71 5 76 11 76 86v610c0 30 -6 34 -36 34h-174c-28 0 -33 -4 -33 -31v-613c0 -69 -1 -79 70 -86v-28h-251v28c78 6 86 14 86 86v572c0 65 -6 72 -89 79v28h609z" />
    <glyph glyph-name="summation" unicode="&#x2211;" horiz-adv-x="528" 
d="M506 100l-43 -193h-436v26l213 343l-209 403v26h433c1 -19 7 -97 12 -163l-29 -5c-8 44 -18 75 -31 98c-14 27 -31 35 -102 35h-166l175 -326l-215 -352h234c83 0 96 6 135 115z" />
    <glyph glyph-name="uni2219" unicode="&#x2219;" horiz-adv-x="259" 
d="M66 211c0 35 28 63 63 63s63 -28 63 -63s-28 -63 -63 -63s-63 28 -63 63z" />
    <glyph glyph-name="radical" unicode="&#x221a;" horiz-adv-x="534" 
d="M517 895l-163 -1054l-22 -10l-205 554l-84 -38l-12 34l159 71l152 -427h2l132 879z" />
    <glyph glyph-name="infinity" unicode="&#x221e;" horiz-adv-x="734" 
d="M688 292v-1c0 -100 -73 -160 -150 -160c-56 0 -106 28 -170 109c-49 -59 -100 -109 -176 -109c-78 0 -147 65 -147 156c0 93 66 158 154 158c71 0 123 -46 172 -108c43 49 90 108 173 108c82 0 144 -61 144 -153zM199 189h2c55 0 97 52 135 95c-40 53 -77 104 -141 104
c-56 0 -89 -45 -89 -102c0 -54 39 -97 93 -97zM538 388h-1c-59 0 -105 -64 -136 -98c59 -71 90 -101 140 -101c55 0 86 53 86 98c0 61 -36 101 -89 101z" />
    <glyph glyph-name="integral" unicode="&#x222b;" horiz-adv-x="373" 
d="M157 5l-20 416c-17 358 76 429 157 429c27 0 63 -16 63 -49c0 -32 -24 -48 -48 -48c-34 0 -30 50 -52 50c-21 0 -43 -29 -37 -162l19 -381c17 -360 -67 -461 -160 -461c-37 0 -63 24 -63 51c-1 30 26 52 55 52s29 -55 50 -55c28 0 41 62 36 158z" />
    <glyph glyph-name="approxequal" unicode="&#x2248;" horiz-adv-x="510" 
d="M432 438l40 -33c-26 -54 -69 -97 -125 -97c-36 0 -62 12 -103 38c-28 18 -52 32 -81 32c-42 0 -65 -33 -87 -70l-40 33c27 57 76 97 133 97c45 0 76 -23 99 -36c33 -20 53 -34 81 -34c35 0 58 28 83 70zM432 268l40 -33c-27 -54 -68 -97 -125 -97c-36 0 -63 13 -103 37
c-29 19 -52 33 -81 33c-42 0 -65 -35 -87 -70l-40 33c27 57 76 97 133 97c46 0 76 -23 99 -36c29 -17 51 -34 81 -34c36 0 57 27 83 70z" />
    <glyph glyph-name="notequal" unicode="&#x2260;" horiz-adv-x="510" 
d="M371 499l-38 -86h130v-62h-153l-57 -131h210v-62h-233l-46 -107l-49 20l38 87h-128v62h152l56 131h-208v62h231l46 105z" />
    <glyph glyph-name="lessequal" unicode="&#x2264;" horiz-adv-x="510" 
d="M461 104l-410 215v66l410 214v-73l-349 -172v-3l349 -174v-73zM465 3h-418v64h418v-64z" />
    <glyph glyph-name="greaterequal" unicode="&#x2265;" horiz-adv-x="510" 
d="M52 599l411 -215v-65l-411 -215v73l349 174v2l-349 173v73zM464 3h-417v64h417v-64z" />
    <glyph glyph-name="lozenge" unicode="&#x25ca;" horiz-adv-x="537" 
d="M490 341l-185 -409h-74l-184 409l185 410h74zM421 341l-150 343h-3l-152 -342l152 -345h3z" />
    <glyph glyph-name="uni00A0" unicode="&#xa0;" horiz-adv-x="259" 
 />
    <glyph glyph-name="uni00AD" unicode="&#xad;" horiz-adv-x="259" 
d="M239 169h-219v84h219v-84z" />
    <glyph glyph-name="uni02C9" unicode="&#x2c9;" horiz-adv-x="296" 
d="M-8 530v58h312v-58h-312z" />
    <glyph glyph-name="zero.taboldstyle" unicode="&#xf643;" 
d="M37 213c0 121 96 225 222 225c124 0 222 -102 222 -225s-98 -225 -222 -225c-126 0 -222 104 -222 225zM105 213c0 -75 55 -165 154 -165c96 0 154 87 154 165c0 77 -57 165 -154 165c-100 0 -154 -91 -154 -165z" />
    <glyph glyph-name="one.taboldstyle" unicode="&#xf644;" 
d="M411 27v-30c-43 1 -90 3 -149 3c-52 0 -101 -2 -149 -3v30l97 7c3 104 5 306 5 346l-96 1v41l200 16c-4 -122 -2 -358 -2 -404z" />
    <glyph glyph-name="two.taboldstyle" unicode="&#xf645;" 
d="M51 -2v14c47 42 259 189 259 270c0 44 -40 62 -83 62c-42 0 -84 -16 -104 -24c-17 -7 -19 -7 -20 -7c-2 0 -1 1 -1 5l14 88c20 9 69 32 133 32c57 0 153 -21 153 -109c0 -103 -146 -182 -212 -229v-2h212l7 57h31l-12 -155h-180c-12 0 -128 -1 -197 -2z" />
    <glyph glyph-name="three.taboldstyle" unicode="&#xf646;" 
d="M84 300l13 114c35 11 74 24 133 24c106 0 172 -51 172 -125c0 -79 -68 -125 -140 -176c86 -23 176 -77 176 -177c0 -79 -63 -145 -159 -187c-80 -35 -176 -49 -178 -49c-8 0 -10 15 -10 17c0 5 2 5 18 9c88 25 225 74 225 188c0 90 -116 130 -190 134c-16 0 -18 5 -18 11
c0 8 3 12 15 17c74 31 171 93 171 165c0 41 -30 72 -88 72c-56 0 -107 -23 -140 -37z" />
    <glyph glyph-name="four.taboldstyle" unicode="&#xf647;" 
d="M482 0h-87l-2 -260h-103l3 260h-278v18l366 428h16l-2 -372l87 1v-75zM94 70l200 3l7 237l-2 2z" />
    <glyph glyph-name="five.taboldstyle" unicode="&#xf648;" 
d="M425 325l-279 -3l-1 -114c84 -9 285 -30 285 -197c0 -172 -198 -244 -241 -260c-26 -10 -83 -27 -90 -27c-8 0 -12 9 -12 15s2 7 22 14c65 25 227 87 227 221c0 59 -31 118 -221 136v312h201c20 0 56 1 76 3l3 38h36z" />
    <glyph glyph-name="six.taboldstyle" unicode="&#xf649;" 
d="M459 729l2 -23c-245 -52 -290 -235 -308 -308c42 28 90 47 140 47c103 0 191 -80 191 -219c0 -170 -120 -238 -223 -238c-155 0 -226 139 -226 300c0 207 135 413 424 441zM141 244c0 -65 9 -230 123 -230c100 0 118 131 118 205c0 85 -22 186 -125 186
c-10 0 -67 0 -108 -43c-3 -26 -8 -71 -8 -118z" />
    <glyph glyph-name="seven.taboldstyle" unicode="&#xf64a;" 
d="M90 318l-6 -75h-33l5 179h422c0 -5 -2 -11 -21 -58c-82 -210 -159 -421 -239 -632h-59c83 197 167 394 249 591z" />
    <glyph glyph-name="eight.taboldstyle" unicode="&#xf64b;" 
d="M68 544c0 101 76 174 188 174s174 -77 174 -158c0 -97 -70 -136 -119 -164c78 -46 157 -92 157 -208c0 -101 -80 -200 -219 -200c-146 0 -198 108 -198 183c0 96 71 153 137 187c-55 37 -120 82 -120 186zM107 176c0 -103 65 -162 137 -162c88 0 128 78 128 143
c0 101 -82 146 -157 186c-59 -35 -108 -75 -108 -167zM152 568c0 -87 73 -127 133 -156c55 27 97 74 97 147c0 76 -47 133 -116 133c-92 0 -114 -81 -114 -124z" />
    <glyph glyph-name="nine.taboldstyle" unicode="&#xf64c;" 
d="M33 226c0 123 98 212 223 212c114 0 228 -85 228 -258c0 -159 -86 -294 -212 -393c-26 -21 -85 -63 -99 -63c-7 0 -10 4 -10 9s9 15 21 26c18 17 136 131 178 285c-42 -18 -81 -30 -126 -30c-121 0 -203 103 -203 212zM135 250c0 -78 33 -198 140 -198c33 0 77 14 91 25
c6 24 14 59 14 113c0 90 -24 224 -128 224c-58 0 -117 -55 -117 -164z" />
    <glyph glyph-name="dollar.taboldstyle" unicode="&#xf653;" 
d="M271 -141h-28v141c-53 3 -128 13 -204 90l45 57c60 -108 120 -118 159 -121v286c-75 31 -187 77 -187 210c0 93 60 176 187 184v80h28v-80c76 -5 124 -27 178 -73l-51 -47c-41 70 -82 91 -127 94v-271c110 -40 205 -92 205 -213c0 -92 -48 -180 -205 -196v-141zM271 299
v-273c91 11 121 89 121 138c0 84 -70 114 -121 135zM243 421v258c-73 -13 -111 -59 -111 -126c0 -47 21 -95 111 -132z" />
    <glyph glyph-name="cent.taboldstyle" unicode="&#xf654;" 
d="M199 108l133 286c-8 28 -19 34 -50 34c-79 0 -126 -86 -126 -184c0 -59 16 -104 43 -136zM343 346l-119 -259c21 -15 48 -23 76 -23c44 0 89 18 129 79l22 -15c-41 -69 -89 -128 -188 -128c-25 0 -50 4 -74 13l-60 -130h-34l66 142c-62 31 -109 94 -109 196
c0 145 99 233 220 233c32 0 59 -6 81 -15l53 115h34l-59 -129c44 -29 64 -75 64 -110c0 -16 -3 -20 -32 -20c-54 0 -61 12 -68 51h-2z" />
    <glyph glyph-name="dotlessi.sc" horiz-adv-x="315" 
d="M214 30l65 -3v-29c-24 1 -52 2 -122 2c-69 0 -94 -1 -121 -2v29l65 3c1 36 1 47 1 136c0 215 0 239 -1 286l-65 3v29c23 -1 52 -2 121 -2c70 0 95 1 122 2v-29l-65 -3c-1 -36 -2 -45 -2 -131c0 -221 0 -246 2 -291z" />
    <glyph glyph-name="a.superior" horiz-adv-x="352" 
d="M310 479v-16c-44 -11 -63 -16 -81 -16c-24 0 -26 14 -27 32c-16 -11 -59 -33 -99 -33c-30 0 -59 17 -59 54c0 71 111 81 160 85c0 21 1 43 1 74c0 30 -12 35 -43 35c-35 0 -40 -5 -43 -21c0 -22 -1 -55 -43 -55c-18 0 -19 21 -19 27c0 58 112 73 145 73
c51 0 71 -23 71 -65l-2 -174h39zM203 506v53c0 6 -1 10 -7 10c-3 0 -86 -12 -86 -59c0 -18 13 -30 36 -30c20 0 57 6 57 26z" />
    <glyph glyph-name="germandbls.sc" unicode="&#xe03f;" horiz-adv-x="852" 
d="M474 0v136h29c21 -98 78 -126 121 -126c54 0 86 46 86 85c0 113 -242 118 -242 268c0 67 53 137 159 137c55 0 109 -27 120 -27c10 0 13 10 15 17h30v-134h-28c-8 26 -34 116 -115 116c-48 0 -79 -37 -79 -72c0 -102 242 -111 242 -266c0 -78 -64 -152 -170 -152
c-61 0 -116 29 -124 29s-11 -7 -13 -11h-31zM48 0v136h29c21 -98 78 -126 121 -126c54 0 86 46 86 85c0 113 -242 118 -242 268c0 67 53 137 159 137c55 0 109 -27 120 -27c10 0 13 10 15 17h30v-134h-28c-8 26 -34 116 -115 116c-48 0 -79 -37 -79 -72
c0 -102 242 -111 242 -266c0 -78 -64 -152 -170 -152c-61 0 -116 29 -124 29s-11 -7 -13 -11h-31z" />
    <glyph glyph-name="uni2215" unicode="&#x2215;" horiz-adv-x="167" 
d="M-167 -12l447 730h54l-446 -730h-55z" />
    <glyph glyph-name="A.sc" unicode="&#xe000;" horiz-adv-x="481" 
d="M257 170h-122c-11 0 -13 -3 -16 -11l-38 -100c-4 -10 -6 -17 -6 -20c0 -7 4 -11 65 -11v-30c-18 1 -43 2 -77 2s-53 -1 -69 -2v30c28 2 39 3 52 29c8 14 44 103 78 188l101 255h27l138 -337c10 -22 45 -102 51 -112c11 -19 25 -21 45 -23v-30c-26 1 -59 2 -125 2
c-60 0 -88 -1 -113 -2v30c62 2 71 3 71 9c0 3 -3 10 -5 16l-40 106c-4 11 -5 11 -17 11zM147 194h100c4 0 11 1 11 5c0 2 -1 6 -2 9l-52 140c-3 8 -5 13 -7 13c-1 0 -2 -3 -4 -8l-55 -145c-1 -1 -3 -7 -3 -9c0 -3 5 -5 12 -5z" />
    <glyph glyph-name="B.sc" unicode="&#xe008;" horiz-adv-x="537" 
d="M26 -2v29l69 3c2 36 2 45 2 131c0 221 0 246 -2 291l-69 2v28c48 0 90 0 116 1c113 5 117 5 152 5c78 0 164 -13 164 -112c0 -73 -58 -103 -74 -112c67 -21 100 -68 100 -130c0 -110 -92 -136 -187 -136c-25 0 -136 2 -158 2c-44 0 -77 -1 -113 -2zM207 418v-154
c35 -1 149 -4 149 97c0 55 -36 101 -123 101c-19 0 -25 -6 -26 -44zM207 236v-168c0 -33 11 -44 42 -44c53 0 127 18 127 104s-70 108 -169 108z" />
    <glyph glyph-name="C.sc" unicode="&#xe009;" horiz-adv-x="556" 
d="M476 163h27l-8 -117c-34 -20 -109 -64 -203 -64c-164 0 -256 131 -256 259c0 123 87 259 250 259c89 0 155 -44 166 -44c7 0 11 7 13 14h33l1 -146h-29c-26 73 -75 146 -164 146c-112 0 -154 -128 -154 -220c0 -115 57 -236 163 -236c91 0 139 78 161 149z" />
    <glyph glyph-name="D.sc" unicode="&#xe00b;" horiz-adv-x="611" 
d="M30 27l65 3c2 36 2 44 2 126c0 227 0 252 -2 296l-65 2v28c44 0 238 6 277 6c163 0 269 -94 269 -245c0 -172 -125 -245 -283 -245c-22 0 -123 2 -144 2c-56 0 -82 -1 -119 -2v29zM207 274v-214c1 -28 13 -36 77 -36c93 0 178 83 178 212c0 137 -88 226 -213 226
c-23 0 -37 -4 -39 -11c-3 -9 -3 -156 -3 -177z" />
    <glyph glyph-name="E.sc" unicode="&#xe00c;" horiz-adv-x="537" 
d="M498 138l-10 -138h-237c-45 0 -190 -1 -223 -2v29l68 3c2 36 2 45 2 131c0 221 0 246 -2 291l-68 3v29c35 -1 83 -2 188 -2c27 0 204 1 259 2v-116h-44c-4 56 -5 74 -22 82c-18 9 -66 10 -108 10h-93v-194c19 0 92 0 105 5c17 8 17 72 18 81h40c-1 -86 0 -116 2 -194h-43
c-3 40 -6 72 -11 77c-9 8 -76 7 -111 7c0 -28 0 -185 3 -199c5 -19 21 -19 67 -19h146l33 114h41z" />
    <glyph glyph-name="F.sc" unicode="&#xe012;" horiz-adv-x="500" 
d="M95 452l-69 3v29c50 -2 111 -2 127 -2c90 0 222 0 318 2l3 -127h-46c-8 76 -14 81 -22 88c-15 13 -78 13 -131 13h-68v-198c71 1 79 0 92 4c17 5 22 15 27 83h42c-5 -74 -2 -190 -2 -195h-40c-4 28 -5 70 -14 76s-23 8 -105 8c0 -149 0 -161 1 -206l75 -3v-29
c-28 1 -69 2 -140 2c-64 0 -88 -1 -116 -2v29l70 3v365c0 22 -1 38 -2 57z" />
    <glyph glyph-name="G.sc" unicode="&#xe013;" horiz-adv-x="574" 
d="M549 192v-30c-29 -1 -33 -1 -33 -33l1 -70c-93 -51 -160 -77 -230 -77c-141 0 -251 106 -251 258c0 141 96 260 253 260c90 0 149 -44 161 -44c7 0 11 9 13 14h30c-1 -20 -1 -42 3 -146h-30c-32 104 -98 146 -159 146c-90 0 -155 -89 -155 -221c0 -113 50 -235 153 -235
c53 0 88 32 100 43c2 34 1 97 1 101l-58 3v29c77 -2 116 -1 201 2z" />
    <glyph glyph-name="H.sc" unicode="&#xe014;" horiz-adv-x="630" 
d="M36 -2v29l60 3c1 36 2 47 2 136c0 215 0 239 -2 286l-60 3v29c23 -1 52 -2 119 -2s93 1 119 2v-29l-65 -3c-1 -43 -1 -144 -1 -192h216c0 133 0 147 -2 192l-64 3v29c22 -1 51 -2 118 -2c68 0 93 1 119 2v-29l-60 -3c-1 -36 -1 -45 -1 -131c0 -221 0 -246 1 -291l60 -3
v-29c-22 1 -51 2 -119 2c-67 0 -92 -1 -118 -2v29l64 3c2 45 2 153 2 206h-216c0 -147 0 -163 1 -206l65 -3v-29c-23 1 -52 2 -119 2s-92 -1 -119 -2z" />
    <glyph glyph-name="I.sc" unicode="&#xe015;" horiz-adv-x="315" 
d="M214 30l65 -3v-29c-24 1 -52 2 -122 2c-69 0 -94 -1 -121 -2v29l65 3c1 36 1 47 1 136c0 215 0 239 -1 286l-65 3v29c23 -1 52 -2 121 -2c70 0 95 1 122 2v-29l-65 -3c-1 -36 -2 -45 -2 -131c0 -221 0 -246 2 -291z" />
    <glyph glyph-name="J.sc" unicode="&#xe01a;" horiz-adv-x="296" 
d="M27 -218v24c50 27 70 62 70 194c0 84 -3 383 -3 452l-71 3v29c40 -1 83 -2 122 -2c43 0 89 1 124 2v-29l-62 -3c-1 -64 0 -347 -1 -404c-1 -98 -3 -228 -179 -266z" />
    <glyph glyph-name="K.sc" unicode="&#xe01b;" 
d="M527 0h-136c-56 76 -109 156 -168 229l-16 -16c0 -48 0 -138 1 -183l61 -3v-29c-34 1 -69 2 -115 2c-75 0 -96 -1 -127 -2v29l68 3c1 36 2 47 2 136c0 215 0 239 -2 286l-68 3v29c24 -1 52 -2 120 -2c70 0 101 1 121 2v-29l-60 -3c-1 -45 -1 -156 -1 -208l93 97
c14 15 95 99 95 104c0 6 -25 10 -63 9v28c91 0 98 0 178 2v-31c-42 -3 -67 -4 -199 -136l-14 -15l92 -120c35 -46 80 -106 106 -138c11 -13 18 -15 32 -16v-28z" />
    <glyph glyph-name="L.sc" unicode="&#xe01c;" horiz-adv-x="500" 
d="M478 140l-12 -142c-61 2 -117 2 -268 2c-107 0 -134 -1 -171 -2v29l68 3c2 36 2 45 2 131c0 221 0 246 -2 291l-68 3v29c22 -1 50 -2 127 -2s105 1 127 2v-29l-73 -3c-1 -35 -1 -43 -1 -131c0 -235 0 -242 1 -256c4 -33 4 -39 113 -39c25 0 53 2 77 3l38 111h42z" />
    <glyph glyph-name="M.sc" unicode="&#xe01e;" horiz-adv-x="741" 
d="M712 27v-29c-35 1 -77 2 -123 2c-34 0 -84 -1 -122 -2v29l67 3c2 62 2 274 -2 390h-2l-182 -432h-18l-204 429l-2 -2l6 -385l76 -3v-29c-22 1 -56 2 -91 2c-36 0 -62 -1 -88 -2v29l69 3c2 49 4 321 -2 422l-64 3v29c50 -1 66 -2 89 -2c29 0 71 2 95 2l165 -353l149 351
c58 0 128 0 182 2v-29l-68 -3c-1 -68 3 -334 6 -422z" />
    <glyph glyph-name="N.sc" unicode="&#xe01f;" horiz-adv-x="574" 
d="M488 -8h-20c-118 124 -237 248 -351 375l1 -162c0 -28 2 -150 3 -175l73 -3v-29c-26 1 -52 2 -90 2c-37 0 -62 -1 -89 -2v29l68 3c2 32 5 172 5 201v118c0 42 -1 47 -6 56c-23 33 -49 42 -67 48v31c44 -2 74 -2 143 -2c98 -111 202 -220 302 -327v106c0 63 2 129 -1 191
l-71 3v29c25 -1 61 -2 88 -2c25 0 52 1 86 2v-29l-67 -3c-2 -66 -4 -143 -5 -210z" />
    <glyph glyph-name="O.sc" unicode="&#xe021;" horiz-adv-x="593" 
d="M36 238c0 154 112 262 265 262c152 0 255 -102 255 -253c0 -125 -84 -265 -259 -265c-146 0 -261 101 -261 256zM152 240c0 -134 65 -232 149 -232c92 0 139 126 139 238c0 104 -44 228 -141 228c-52 0 -147 -44 -147 -234z" />
    <glyph glyph-name="P.sc" unicode="&#xe029;" horiz-adv-x="500" 
d="M208 30l71 -3v-29c-28 1 -58 2 -125 2c-78 0 -100 -1 -130 -2v29l71 3c2 36 2 44 2 126c0 227 0 252 -2 296l-71 3v29c29 -1 54 -2 94 -2c15 0 55 2 94 3c40 2 79 3 92 3c108 0 162 -56 162 -134c0 -94 -74 -142 -188 -142c-27 0 -52 0 -71 1c0 -47 0 -140 1 -183z
M208 440l-1 -200c113 -1 157 34 157 112c0 80 -54 106 -125 106c-23 0 -31 -6 -31 -18z" />
    <glyph glyph-name="Q.sc" unicode="&#xe02a;" horiz-adv-x="593" 
d="M572 -90l10 -12c-44 -53 -95 -100 -159 -100c-50 0 -265 63 -309 74c-18 -14 -36 -28 -43 -28c-20 0 -35 78 -35 89c0 24 20 27 42 27c17 0 60 -6 67 -7l124 36v2c-4 0 -12 1 -17 2c-149 23 -216 137 -216 247c0 143 104 260 265 260c163 0 255 -114 255 -250
c0 -104 -58 -201 -159 -245c-66 -28 -141 -41 -210 -59v-2c62 -13 231 -64 290 -64c34 0 67 11 95 30zM299 474c-52 0 -147 -44 -147 -234c0 -134 65 -232 149 -232c92 0 139 126 139 238c0 104 -44 228 -141 228z" />
    <glyph glyph-name="R.sc" unicode="&#xe02b;" 
d="M208 30l57 -3v-29c-20 1 -51 2 -111 2c-71 0 -92 -1 -123 -2v29l64 3c2 36 2 44 2 126c0 227 0 252 -2 296l-64 3v29c25 -1 53 -2 88 -2c15 0 54 2 92 3c39 2 77 3 90 3c78 0 152 -31 152 -121c0 -92 -99 -124 -99 -128c0 -2 53 -83 95 -145c39 -58 44 -65 80 -66v-28
l-112 -1c-4 0 -22 -2 -25 -2c-10 0 -83 116 -97 138c-9 14 -44 74 -53 84c-7 7 -15 7 -35 7c0 -138 0 -153 1 -196zM207 254h51c62 0 93 39 93 101c0 52 -31 104 -111 104c-27 0 -30 -5 -32 -22c-1 -12 -1 -54 -1 -183z" />
    <glyph glyph-name="S.sc" unicode="&#xe02c;" horiz-adv-x="426" 
d="M48 0v136h29c21 -98 78 -126 121 -126c54 0 86 46 86 85c0 113 -242 118 -242 268c0 67 53 137 159 137c55 0 109 -27 120 -27c10 0 13 10 15 17h30v-134h-28c-8 26 -34 116 -115 116c-48 0 -79 -37 -79 -72c0 -102 242 -111 242 -266c0 -78 -64 -152 -170 -152
c-61 0 -116 29 -124 29s-11 -7 -13 -11h-31z" />
    <glyph glyph-name="T.sc" unicode="&#xe02e;" horiz-adv-x="500" 
d="M55 352h-45l9 132c75 -1 152 -2 235 -2c90 0 154 1 236 2l-6 -130h-44c-2 48 -1 80 -13 98c-6 9 -55 6 -69 6h-53c-2 -36 -2 -48 -2 -136c0 -222 0 -247 2 -292l64 -3v-29c-23 1 -52 2 -121 2c-70 0 -94 -1 -121 -2v29l64 3c2 36 2 44 2 126c0 230 0 256 -2 302h-46
c-54 0 -67 -3 -77 -36c-3 -11 -11 -60 -13 -70z" />
    <glyph glyph-name="U.sc" unicode="&#xe030;" horiz-adv-x="593" 
d="M578 455l-66 -3l-5 -244c-3 -138 -59 -226 -206 -226s-212 70 -210 227l3 243l-68 3v29c25 -1 37 -2 112 -2c50 0 96 0 139 2v-29l-70 -3l-4 -170c-1 -63 -2 -132 7 -177c11 -62 67 -91 118 -91c88 0 140 64 139 200l-1 238l-68 3v29c26 -1 56 -2 94 -2c40 0 66 1 86 2
v-29z" />
    <glyph glyph-name="V.sc" unicode="&#xe035;" horiz-adv-x="481" 
d="M502 484v-31c-36 -1 -41 -2 -46 -11c-4 -7 -66 -140 -94 -207l-107 -253h-27c-72 181 -139 334 -200 470l-46 3v29c79 -2 175 -2 237 -2v-28c-59 1 -64 -1 -64 -7s56 -144 62 -160l68 -165l107 259c3 6 25 63 25 66c0 5 -6 7 -61 7v28c50 0 90 0 146 2z" />
    <glyph glyph-name="W.sc" unicode="&#xe036;" horiz-adv-x="722" 
d="M735 484v-31c-36 0 -40 0 -47 -16c-1 -3 -58 -145 -69 -177l-106 -278h-28l-119 350h-2l-129 -350h-27c-66 162 -118 328 -172 470l-44 3v29c39 -1 81 -2 110 -2c24 0 54 1 110 2v-29c-18 -1 -55 -1 -55 -8c0 -5 43 -130 49 -147l57 -167h2l87 238l-30 81l-45 3v29
c31 -1 76 -2 112 -2c39 0 78 1 121 2v-29c-54 -2 -69 -3 -69 -9c0 -3 6 -21 8 -27l95 -286h2l58 163c27 75 54 149 54 153c0 6 -50 5 -61 5v28c51 0 113 1 138 2z" />
    <glyph glyph-name="X.sc" unicode="&#xe037;" horiz-adv-x="481" 
d="M496 27v-29c-28 1 -57 2 -108 2c-49 0 -88 -1 -127 -2v29c35 2 56 3 56 11c0 6 -17 31 -23 40l-86 122l-82 -109c-14 -19 -32 -43 -32 -52c0 -11 9 -11 72 -11v-28c-72 0 -121 0 -180 -2v31c52 1 61 10 100 59l107 134l-80 110c-13 18 -77 107 -85 114c-9 8 -17 8 -42 9
v29c82 -2 190 -2 242 -2v-28c-51 -1 -61 -2 -61 -10c0 -4 24 -37 29 -45l70 -99l67 86c7 9 43 57 43 62s-16 6 -58 6v28c44 0 125 1 174 2v-31c-64 -3 -68 -4 -82 -20c-8 -9 -48 -58 -73 -87l-55 -68l101 -141l62 -84c18 -25 20 -25 51 -26z" />
    <glyph glyph-name="Y.sc" unicode="&#xe038;" horiz-adv-x="426" 
d="M80 27l79 3c1 43 1 154 1 204l-69 108c-9 15 -53 86 -58 93c-13 18 -17 18 -54 20v29c31 -1 59 -2 113 -2c48 0 89 1 125 2v-29c-52 0 -59 -1 -59 -8c0 -6 52 -94 58 -104l40 -71l28 42c12 18 83 125 83 132c0 6 -7 6 -65 8v28c58 0 81 0 152 2v-30
c-30 -3 -38 -3 -49 -15c-9 -9 -55 -76 -71 -98l-64 -92v-164c0 -21 1 -36 2 -55l78 -3v-29c-33 1 -69 2 -135 2s-100 -1 -135 -2v29z" />
    <glyph glyph-name="Z.sc" unicode="&#xe03b;" horiz-adv-x="481" 
d="M458 143l-3 -145c-69 2 -94 2 -212 2h-228v11c111 154 163 236 300 447l-108 -1c-126 -1 -126 -2 -135 -106h-48l5 133c135 -3 354 -2 429 0v-10c-55 -80 -116 -169 -297 -450l85 1c44 1 110 2 130 11c15 8 16 11 36 107h46z" />
    <glyph glyph-name="Lslash.sc" unicode="&#xe01d;" horiz-adv-x="500" 
d="M398 29l38 111h42l-12 -142c-61 2 -117 2 -268 2c-107 0 -134 -1 -171 -2v29l68 3c2 36 2 45 2 131v26l-80 -43v35l80 43c0 171 0 194 -2 230l-68 3v29c22 -1 50 -2 127 -2s105 1 127 2v-29l-73 -3c-1 -35 -1 -43 -1 -131v-39l135 73v-35l-135 -73c0 -165 0 -172 1 -182
c4 -33 4 -39 113 -39c25 0 53 2 77 3z" />
    <glyph glyph-name="Scaron.sc" unicode="&#xe02d;" horiz-adv-x="426" 
d="M48 0v136h29c21 -98 78 -126 121 -126c54 0 86 46 86 85c0 113 -242 118 -242 268c0 67 53 137 159 137c55 0 109 -27 120 -27c10 0 13 10 15 17h30v-134h-28c-8 26 -34 116 -115 116c-48 0 -79 -37 -79 -72c0 -102 242 -111 242 -266c0 -78 -64 -152 -170 -152
c-61 0 -116 29 -124 29s-11 -7 -13 -11h-31zM215 620l131 102h26l-125 -172h-64l-125 172h26z" />
    <glyph glyph-name="Zcaron.sc" unicode="&#xe03c;" horiz-adv-x="481" 
d="M458 143l-3 -145c-69 2 -94 2 -212 2h-228v11c111 154 163 236 300 447l-108 -1c-126 -1 -126 -2 -135 -106h-48l5 133c135 -3 354 -2 429 0v-10c-55 -80 -116 -169 -297 -450l85 1c44 1 110 2 130 11c15 8 16 11 36 107h46zM238 620l131 102h26l-125 -172h-64l-125 172
h26z" />
    <glyph glyph-name="Agrave.sc" unicode="&#xe005;" horiz-adv-x="481" 
d="M257 170h-122c-11 0 -13 -3 -16 -11l-38 -100c-4 -10 -6 -17 -6 -20c0 -7 4 -11 65 -11v-30c-18 1 -43 2 -77 2s-53 -1 -69 -2v30c28 2 39 3 52 29c8 14 44 103 78 188l101 255h27l138 -337c10 -22 45 -102 51 -112c11 -19 25 -21 45 -23v-30c-26 1 -59 2 -125 2
c-60 0 -88 -1 -113 -2v30c62 2 71 3 71 9c0 3 -3 10 -5 16l-40 106c-4 11 -5 11 -17 11zM147 194h100c4 0 11 1 11 5c0 2 -1 6 -2 9l-52 140c-3 8 -5 13 -7 13c-1 0 -2 -3 -4 -8l-55 -145c-1 -1 -3 -7 -3 -9c0 -3 5 -5 12 -5zM289 550l-172 100c-16 10 -27 21 -27 39
c0 23 17 39 37 39c19 0 28 -9 48 -30l141 -148h-27z" />
    <glyph glyph-name="Aacute.sc" unicode="&#xe002;" horiz-adv-x="481" 
d="M257 170h-122c-11 0 -13 -3 -16 -11l-38 -100c-4 -10 -6 -17 -6 -20c0 -7 4 -11 65 -11v-30c-18 1 -43 2 -77 2s-53 -1 -69 -2v30c28 2 39 3 52 29c8 14 44 103 78 188l101 255h27l138 -337c10 -22 45 -102 51 -112c11 -19 25 -21 45 -23v-30c-26 1 -59 2 -125 2
c-60 0 -88 -1 -113 -2v30c62 2 71 3 71 9c0 3 -3 10 -5 16l-40 106c-4 11 -5 11 -17 11zM147 194h100c4 0 11 1 11 5c0 2 -1 6 -2 9l-52 140c-3 8 -5 13 -7 13c-1 0 -2 -3 -4 -8l-55 -145c-1 -1 -3 -7 -3 -9c0 -3 5 -5 12 -5zM196 550h-28l142 149c15 16 27 29 47 29
c21 0 37 -18 37 -38c0 -19 -11 -30 -27 -40z" />
    <glyph glyph-name="Acircumflex.sc" unicode="&#xe003;" horiz-adv-x="481" 
d="M257 170h-122c-11 0 -13 -3 -16 -11l-38 -100c-4 -10 -6 -17 -6 -20c0 -7 4 -11 65 -11v-30c-18 1 -43 2 -77 2s-53 -1 -69 -2v30c28 2 39 3 52 29c8 14 44 103 78 188l101 255h27l138 -337c10 -22 45 -102 51 -112c11 -19 25 -21 45 -23v-30c-26 1 -59 2 -125 2
c-60 0 -88 -1 -113 -2v30c62 2 71 3 71 9c0 3 -3 10 -5 16l-40 106c-4 11 -5 11 -17 11zM147 194h100c4 0 11 1 11 5c0 2 -1 6 -2 9l-52 140c-3 8 -5 13 -7 13c-1 0 -2 -3 -4 -8l-55 -145c-1 -1 -3 -7 -3 -9c0 -3 5 -5 12 -5zM241 652l-131 -102h-26l125 172h64l125 -172
h-26z" />
    <glyph glyph-name="Atilde.sc" unicode="&#xe007;" horiz-adv-x="481" 
d="M257 170h-122c-11 0 -13 -3 -16 -11l-38 -100c-4 -10 -6 -17 -6 -20c0 -7 4 -11 65 -11v-30c-18 1 -43 2 -77 2s-53 -1 -69 -2v30c28 2 39 3 52 29c8 14 44 103 78 188l101 255h27l138 -337c10 -22 45 -102 51 -112c11 -19 25 -21 45 -23v-30c-26 1 -59 2 -125 2
c-60 0 -88 -1 -113 -2v30c62 2 71 3 71 9c0 3 -3 10 -5 16l-40 106c-4 11 -5 11 -17 11zM147 194h100c4 0 11 1 11 5c0 2 -1 6 -2 9l-52 140c-3 8 -5 13 -7 13c-1 0 -2 -3 -4 -8l-55 -145c-1 -1 -3 -7 -3 -9c0 -3 5 -5 12 -5zM385 688h24c-8 -31 -29 -113 -110 -113
c-29 0 -53 12 -76 25c-23 12 -45 24 -69 24c-38 0 -50 -30 -56 -47h-25c15 56 49 110 104 110c29 0 56 -12 81 -25c25 -12 48 -25 68 -25c39 0 53 36 59 51z" />
    <glyph glyph-name="Adieresis.sc" unicode="&#xe004;" horiz-adv-x="481" 
d="M257 170h-122c-11 0 -13 -3 -16 -11l-38 -100c-4 -10 -6 -17 -6 -20c0 -7 4 -11 65 -11v-30c-18 1 -43 2 -77 2s-53 -1 -69 -2v30c28 2 39 3 52 29c8 14 44 103 78 188l101 255h27l138 -337c10 -22 45 -102 51 -112c11 -19 25 -21 45 -23v-30c-26 1 -59 2 -125 2
c-60 0 -88 -1 -113 -2v30c62 2 71 3 71 9c0 3 -3 10 -5 16l-40 106c-4 11 -5 11 -17 11zM147 194h100c4 0 11 1 11 5c0 2 -1 6 -2 9l-52 140c-3 8 -5 13 -7 13c-1 0 -2 -3 -4 -8l-55 -145c-1 -1 -3 -7 -3 -9c0 -3 5 -5 12 -5zM200 627c0 -37 -29 -67 -62 -67
c-31 0 -52 22 -52 55c0 35 27 65 61 65c26 0 53 -18 53 -53zM397 627c0 -37 -29 -67 -62 -67c-31 0 -52 22 -52 55c0 35 27 65 61 65c26 0 53 -18 53 -53z" />
    <glyph glyph-name="Aring.sc" unicode="&#xe006;" horiz-adv-x="481" 
d="M257 170h-122c-11 0 -13 -3 -16 -11l-38 -100c-4 -10 -6 -17 -6 -20c0 -7 4 -11 65 -11v-30c-18 1 -43 2 -77 2s-53 -1 -69 -2v30c28 2 39 3 52 29c8 14 44 103 78 188l101 255h27l138 -337c10 -22 45 -102 51 -112c11 -19 25 -21 45 -23v-30c-26 1 -59 2 -125 2
c-60 0 -88 -1 -113 -2v30c62 2 71 3 71 9c0 3 -3 10 -5 16l-40 106c-4 11 -5 11 -17 11zM147 194h100c4 0 11 1 11 5c0 2 -1 6 -2 9l-52 140c-3 8 -5 13 -7 13c-1 0 -2 -3 -4 -8l-55 -145c-1 -1 -3 -7 -3 -9c0 -3 5 -5 12 -5zM343 620c0 -56 -46 -102 -102 -102
s-102 46 -102 102s46 102 102 102s102 -46 102 -102zM303 620c0 34 -28 62 -62 62s-62 -28 -62 -62s28 -62 62 -62s62 28 62 62z" />
    <glyph glyph-name="AE.sc" unicode="&#xe001;" horiz-adv-x="704" 
d="M282 220h-140l-104 -168c-2 -4 -7 -13 -7 -15c0 -5 3 -7 59 -9v-28c-85 0 -105 0 -140 -2v31c37 2 39 5 59 35c75 116 146 227 235 370c4 6 9 12 9 15s-24 5 -59 7v28c63 -1 82 -2 109 -2h127c62 0 149 1 211 2v-116h-46c-3 56 -4 74 -20 82c-18 9 -66 8 -109 8h-74v-192
c74 1 82 0 93 5c13 6 16 26 17 81h42c-1 -86 -1 -116 1 -194h-43c-4 41 -5 71 -10 77c-8 8 -54 7 -100 7c0 -28 0 -185 3 -199c5 -19 23 -19 59 -19h135l33 114h42l-10 -138h-219c-44 0 -189 -1 -223 -2v29l68 3c2 43 2 142 2 190zM157 244h125v194h-4z" />
    <glyph glyph-name="Ccedilla.sc" unicode="&#xe00a;" horiz-adv-x="556" 
d="M476 163h27c-6 -49 -8 -109 -8 -117c-47 -27 -116 -63 -207 -63l-24 -53c10 4 23 9 44 9c48 0 84 -28 84 -74c0 -54 -51 -84 -121 -84c-30 0 -60 5 -87 18l7 23c15 -5 37 -13 64 -13c46 0 62 27 62 49c0 28 -24 42 -48 42c-14 0 -23 -4 -30 -7l-13 7l37 85
c-158 17 -226 147 -226 256c0 123 86 258 249 258c60 0 109 -18 150 -37c4 -3 12 -6 16 -6c7 0 11 7 13 13h33c-1 -31 1 -126 1 -146h-29c-26 74 -75 147 -164 147c-112 0 -154 -128 -154 -220c0 -115 57 -235 163 -235c91 0 139 77 161 148z" />
    <glyph glyph-name="Egrave.sc" unicode="&#xe010;" horiz-adv-x="537" 
d="M498 138l-10 -138h-237c-45 0 -190 -1 -223 -2v29l68 3c2 36 2 45 2 131c0 221 0 246 -2 291l-68 3v29c35 -1 83 -2 188 -2c27 0 204 1 259 2v-116h-44c-4 56 -5 74 -22 82c-18 9 -66 10 -108 10h-93v-194c19 0 92 0 105 5c17 8 17 72 18 81h40c-1 -86 0 -116 2 -194h-43
c-3 40 -6 72 -11 77c-9 8 -76 7 -111 7c0 -28 0 -185 3 -199c5 -19 21 -19 67 -19h146l33 114h41zM317 550l-172 100c-16 10 -27 21 -27 39c0 23 17 39 37 39c19 0 28 -9 48 -30l141 -148h-27z" />
    <glyph glyph-name="Eacute.sc" unicode="&#xe00d;" horiz-adv-x="537" 
d="M498 138l-10 -138h-237c-45 0 -190 -1 -223 -2v29l68 3c2 36 2 45 2 131c0 221 0 246 -2 291l-68 3v29c35 -1 83 -2 188 -2c27 0 204 1 259 2v-116h-44c-4 56 -5 74 -22 82c-18 9 -66 10 -108 10h-93v-194c19 0 92 0 105 5c17 8 17 72 18 81h40c-1 -86 0 -116 2 -194h-43
c-3 40 -6 72 -11 77c-9 8 -76 7 -111 7c0 -28 0 -185 3 -199c5 -19 21 -19 67 -19h146l33 114h41zM224 550h-28l142 149c15 16 27 29 47 29c21 0 37 -18 37 -38c0 -19 -11 -30 -27 -40z" />
    <glyph glyph-name="Ecircumflex.sc" unicode="&#xe00e;" horiz-adv-x="537" 
d="M498 138l-10 -138h-237c-45 0 -190 -1 -223 -2v29l68 3c2 36 2 45 2 131c0 221 0 246 -2 291l-68 3v29c35 -1 83 -2 188 -2c27 0 204 1 259 2v-116h-44c-4 56 -5 74 -22 82c-18 9 -66 10 -108 10h-93v-194c19 0 92 0 105 5c17 8 17 72 18 81h40c-1 -86 0 -116 2 -194h-43
c-3 40 -6 72 -11 77c-9 8 -76 7 -111 7c0 -28 0 -185 3 -199c5 -19 21 -19 67 -19h146l33 114h41zM269 652l-131 -102h-26l125 172h64l125 -172h-26z" />
    <glyph glyph-name="Edieresis.sc" unicode="&#xe00f;" horiz-adv-x="537" 
d="M498 138l-10 -138h-237c-45 0 -190 -1 -223 -2v29l68 3c2 36 2 45 2 131c0 221 0 246 -2 291l-68 3v29c35 -1 83 -2 188 -2c27 0 204 1 259 2v-116h-44c-4 56 -5 74 -22 82c-18 9 -66 10 -108 10h-93v-194c19 0 92 0 105 5c17 8 17 72 18 81h40c-1 -86 0 -116 2 -194h-43
c-3 40 -6 72 -11 77c-9 8 -76 7 -111 7c0 -28 0 -185 3 -199c5 -19 21 -19 67 -19h146l33 114h41zM228 627c0 -37 -29 -67 -62 -67c-31 0 -52 22 -52 55c0 35 27 65 61 65c26 0 53 -18 53 -53zM425 627c0 -37 -29 -67 -62 -67c-31 0 -52 22 -52 55c0 35 27 65 61 65
c26 0 53 -18 53 -53z" />
    <glyph glyph-name="Igrave.sc" unicode="&#xe019;" horiz-adv-x="315" 
d="M214 30l65 -3v-29c-24 1 -52 2 -122 2c-69 0 -94 -1 -121 -2v29l65 3c1 36 1 47 1 136c0 215 0 239 -1 286l-65 3v29c23 -1 52 -2 121 -2c70 0 95 1 122 2v-29l-65 -3c-1 -36 -2 -45 -2 -131c0 -221 0 -246 2 -291zM206 550l-172 100c-16 10 -27 21 -27 39
c0 23 17 39 37 39c19 0 28 -9 48 -30l141 -148h-27z" />
    <glyph glyph-name="Iacute.sc" unicode="&#xe016;" horiz-adv-x="315" 
d="M214 30l65 -3v-29c-24 1 -52 2 -122 2c-69 0 -94 -1 -121 -2v29l65 3c1 36 1 47 1 136c0 215 0 239 -1 286l-65 3v29c23 -1 52 -2 121 -2c70 0 95 1 122 2v-29l-65 -3c-1 -36 -2 -45 -2 -131c0 -221 0 -246 2 -291zM113 550h-28l142 149c15 16 27 29 47 29
c21 0 37 -18 37 -38c0 -19 -11 -30 -27 -40z" />
    <glyph glyph-name="Icircumflex.sc" unicode="&#xe017;" horiz-adv-x="315" 
d="M214 30l65 -3v-29c-24 1 -52 2 -122 2c-69 0 -94 -1 -121 -2v29l65 3c1 36 1 47 1 136c0 215 0 239 -1 286l-65 3v29c23 -1 52 -2 121 -2c70 0 95 1 122 2v-29l-65 -3c-1 -36 -2 -45 -2 -131c0 -221 0 -246 2 -291zM158 652l-131 -102h-26l125 172h64l125 -172h-26z" />
    <glyph glyph-name="Idieresis.sc" unicode="&#xe018;" horiz-adv-x="315" 
d="M214 30l65 -3v-29c-24 1 -52 2 -122 2c-69 0 -94 -1 -121 -2v29l65 3c1 36 1 47 1 136c0 215 0 239 -1 286l-65 3v29c23 -1 52 -2 121 -2c70 0 95 1 122 2v-29l-65 -3c-1 -36 -2 -45 -2 -131c0 -221 0 -246 2 -291zM122 627c0 -37 -29 -67 -62 -67c-31 0 -52 22 -52 55
c0 35 27 65 61 65c26 0 53 -18 53 -53zM319 627c0 -37 -29 -67 -62 -67c-31 0 -52 22 -52 55c0 35 27 65 61 65c26 0 53 -18 53 -53z" />
    <glyph glyph-name="Eth.sc" unicode="&#xe011;" horiz-adv-x="611" 
d="M97 232h-81v30h80c1 142 0 162 -1 190l-65 2v28c44 0 238 6 277 6c163 0 269 -94 269 -245c0 -172 -125 -245 -283 -245c-22 0 -123 2 -144 2c-56 0 -82 -1 -119 -2v29l65 3c2 36 2 44 2 126v76zM343 232h-136v-172c1 -28 13 -36 77 -36c93 0 178 83 178 212
c0 137 -88 226 -213 226c-23 0 -37 -4 -39 -11c-3 -9 -3 -156 -3 -177v-12h136v-30z" />
    <glyph glyph-name="Ntilde.sc" unicode="&#xe020;" horiz-adv-x="574" 
d="M488 -8h-20c-118 124 -237 248 -351 375l1 -162c0 -28 2 -150 3 -175l73 -3v-29c-26 1 -52 2 -90 2c-37 0 -62 -1 -89 -2v29l68 3c2 32 5 172 5 201v118c0 42 -1 47 -6 56c-23 33 -49 42 -67 48v31c44 -2 74 -2 143 -2c98 -111 202 -220 302 -327v106c0 63 2 129 -1 191
l-71 3v29c25 -1 61 -2 88 -2c25 0 52 1 86 2v-29l-67 -3c-2 -66 -4 -143 -5 -210zM432 688h24c-8 -31 -29 -113 -110 -113c-29 0 -53 12 -76 25c-23 12 -45 24 -69 24c-38 0 -50 -30 -56 -47h-25c15 56 49 110 104 110c29 0 56 -12 81 -25c25 -12 48 -25 68 -25
c39 0 53 36 59 51z" />
    <glyph glyph-name="Ograve.sc" unicode="&#xe026;" horiz-adv-x="593" 
d="M36 238c0 154 112 262 265 262c152 0 255 -102 255 -253c0 -125 -84 -265 -259 -265c-146 0 -261 101 -261 256zM152 240c0 -134 65 -232 149 -232c92 0 139 126 139 238c0 104 -44 228 -141 228c-52 0 -147 -44 -147 -234zM345 550l-172 100c-16 10 -27 21 -27 39
c0 23 17 39 37 39c19 0 28 -9 48 -30l141 -148h-27z" />
    <glyph glyph-name="Oacute.sc" unicode="&#xe023;" horiz-adv-x="593" 
d="M36 238c0 154 112 262 265 262c152 0 255 -102 255 -253c0 -125 -84 -265 -259 -265c-146 0 -261 101 -261 256zM152 240c0 -134 65 -232 149 -232c92 0 139 126 139 238c0 104 -44 228 -141 228c-52 0 -147 -44 -147 -234zM252 550h-28l142 149c15 16 27 29 47 29
c21 0 37 -18 37 -38c0 -19 -11 -30 -27 -40z" />
    <glyph glyph-name="Ocircumflex.sc" unicode="&#xe024;" horiz-adv-x="593" 
d="M36 238c0 154 112 262 265 262c152 0 255 -102 255 -253c0 -125 -84 -265 -259 -265c-146 0 -261 101 -261 256zM152 240c0 -134 65 -232 149 -232c92 0 139 126 139 238c0 104 -44 228 -141 228c-52 0 -147 -44 -147 -234zM297 652l-131 -102h-26l125 172h64l125 -172
h-26z" />
    <glyph glyph-name="Otilde.sc" unicode="&#xe028;" horiz-adv-x="593" 
d="M36 238c0 154 112 262 265 262c152 0 255 -102 255 -253c0 -125 -84 -265 -259 -265c-146 0 -261 101 -261 256zM152 240c0 -134 65 -232 149 -232c92 0 139 126 139 238c0 104 -44 228 -141 228c-52 0 -147 -44 -147 -234zM447 688h24c-8 -31 -29 -113 -110 -113
c-29 0 -53 12 -76 25c-23 12 -45 24 -69 24c-38 0 -50 -30 -56 -47h-25c15 56 49 110 104 110c29 0 56 -12 81 -25c25 -12 48 -25 68 -25c39 0 53 36 59 51z" />
    <glyph glyph-name="Odieresis.sc" unicode="&#xe025;" horiz-adv-x="593" 
d="M36 238c0 154 112 262 265 262c152 0 255 -102 255 -253c0 -125 -84 -265 -259 -265c-146 0 -261 101 -261 256zM152 240c0 -134 65 -232 149 -232c92 0 139 126 139 238c0 104 -44 228 -141 228c-52 0 -147 -44 -147 -234zM256 627c0 -37 -29 -67 -62 -67
c-31 0 -52 22 -52 55c0 35 27 65 61 65c26 0 53 -18 53 -53zM453 627c0 -37 -29 -67 -62 -67c-31 0 -52 22 -52 55c0 35 27 65 61 65c26 0 53 -18 53 -53z" />
    <glyph glyph-name="OE.sc" unicode="&#xe022;" horiz-adv-x="815" 
d="M752 484v-116h-46c-3 56 -4 74 -20 82c-18 9 -66 8 -109 8h-74v-192c74 1 87 2 93 5c11 6 14 17 18 81h41c-1 -86 -1 -116 1 -194h-43c-5 37 -4 71 -11 77c-8 7 -50 7 -99 7c0 -28 0 -185 3 -199c5 -19 23 -19 59 -19h135l33 114h42l-10 -138h-219c-52 0 -95 -3 -134 -6
c-38 -3 -71 -6 -102 -6c-163 0 -274 84 -274 255c0 131 79 251 271 251c36 0 72 -3 108 -6c35 -3 71 -6 107 -6c69 0 161 1 230 2zM315 14c18 0 70 2 76 29c3 12 2 334 2 373c0 30 -15 52 -77 52c-108 0 -164 -98 -164 -227c0 -102 37 -227 163 -227z" />
    <glyph glyph-name="Oslash.sc" unicode="&#xe027;" horiz-adv-x="593" 
d="M181 101l205 328c-22 28 -51 45 -87 45c-52 0 -147 -44 -147 -234c0 -53 10 -101 29 -139zM409 391l-206 -328c25 -34 59 -55 98 -55c92 0 139 126 139 238c0 50 -10 104 -31 145zM416 477l78 124h46l-89 -143c66 -43 105 -118 105 -211c0 -125 -84 -265 -259 -265
c-47 0 -90 11 -127 29l-83 -133h-46l96 153c-62 45 -101 117 -101 207c0 154 112 262 265 262c43 0 82 -8 115 -23z" />
    <glyph glyph-name="Ugrave.sc" unicode="&#xe034;" horiz-adv-x="593" 
d="M578 455l-66 -3l-5 -244c-3 -138 -59 -226 -206 -226s-212 70 -210 227l3 243l-68 3v29c25 -1 37 -2 112 -2c50 0 96 0 139 2v-29l-70 -3l-4 -170c-1 -63 -2 -132 7 -177c11 -62 67 -91 118 -91c88 0 140 64 139 200l-1 238l-68 3v29c26 -1 56 -2 94 -2c40 0 66 1 86 2
v-29zM351 550l-172 100c-16 10 -27 21 -27 39c0 23 17 39 37 39c19 0 28 -9 48 -30l141 -148h-27z" />
    <glyph glyph-name="Uacute.sc" unicode="&#xe031;" horiz-adv-x="593" 
d="M578 455l-66 -3l-5 -244c-3 -138 -59 -226 -206 -226s-212 70 -210 227l3 243l-68 3v29c25 -1 37 -2 112 -2c50 0 96 0 139 2v-29l-70 -3l-4 -170c-1 -63 -2 -132 7 -177c11 -62 67 -91 118 -91c88 0 140 64 139 200l-1 238l-68 3v29c26 -1 56 -2 94 -2c40 0 66 1 86 2
v-29zM258 550h-28l142 149c15 16 27 29 47 29c21 0 37 -18 37 -38c0 -19 -11 -30 -27 -40z" />
    <glyph glyph-name="Ucircumflex.sc" unicode="&#xe032;" horiz-adv-x="593" 
d="M578 455l-66 -3l-5 -244c-3 -138 -59 -226 -206 -226s-212 70 -210 227l3 243l-68 3v29c25 -1 37 -2 112 -2c50 0 96 0 139 2v-29l-70 -3l-4 -170c-1 -63 -2 -132 7 -177c11 -62 67 -91 118 -91c88 0 140 64 139 200l-1 238l-68 3v29c26 -1 56 -2 94 -2c40 0 66 1 86 2
v-29zM303 652l-131 -102h-26l125 172h64l125 -172h-26z" />
    <glyph glyph-name="Udieresis.sc" unicode="&#xe033;" horiz-adv-x="593" 
d="M578 455l-66 -3l-5 -244c-3 -138 -59 -226 -206 -226s-212 70 -210 227l3 243l-68 3v29c25 -1 37 -2 112 -2c50 0 96 0 139 2v-29l-70 -3l-4 -170c-1 -63 -2 -132 7 -177c11 -62 67 -91 118 -91c88 0 140 64 139 200l-1 238l-68 3v29c26 -1 56 -2 94 -2c40 0 66 1 86 2
v-29zM266 627c0 -37 -29 -67 -62 -67c-31 0 -52 22 -52 55c0 35 27 65 61 65c26 0 53 -18 53 -53zM463 627c0 -37 -29 -67 -62 -67c-31 0 -52 22 -52 55c0 35 27 65 61 65c26 0 53 -18 53 -53z" />
    <glyph glyph-name="Yacute.sc" unicode="&#xe039;" horiz-adv-x="426" 
d="M80 27l79 3c1 43 1 154 1 204l-69 108c-9 15 -53 86 -58 93c-13 18 -17 18 -54 20v29c31 -1 59 -2 113 -2c48 0 89 1 125 2v-29c-52 0 -59 -1 -59 -8c0 -6 52 -94 58 -104l40 -71l28 42c12 18 83 125 83 132c0 6 -7 6 -65 8v28c58 0 81 0 152 2v-30
c-30 -3 -38 -3 -49 -15c-9 -9 -55 -76 -71 -98l-64 -92v-164c0 -21 1 -36 2 -55l78 -3v-29c-33 1 -69 2 -135 2s-100 -1 -135 -2v29zM175 550h-28l142 149c15 16 27 29 47 29c21 0 37 -18 37 -38c0 -19 -11 -30 -27 -40z" />
    <glyph glyph-name="Thorn.sc" unicode="&#xe02f;" horiz-adv-x="500" 
d="M208 30l71 -3v-29c-28 1 -58 2 -125 2c-78 0 -100 -1 -130 -2v29l71 3c2 36 2 44 2 126c0 227 0 252 -2 296l-71 3v29c26 -1 52 -2 130 -2c67 0 97 1 125 2v-29l-71 -3c-1 -25 -1 -34 -1 -73c51 4 78 5 88 5c111 0 171 -50 171 -135c0 -124 -120 -141 -197 -141h-62
c0 -34 0 -53 1 -78zM207 354v-220c115 0 157 38 157 113c0 85 -50 107 -157 107z" />
    <glyph glyph-name="Ydieresis.sc" unicode="&#xe03a;" horiz-adv-x="426" 
d="M80 27l79 3c1 43 1 154 1 204l-69 108c-9 15 -53 86 -58 93c-13 18 -17 18 -54 20v29c31 -1 59 -2 113 -2c48 0 89 1 125 2v-29c-52 0 -59 -1 -59 -8c0 -6 52 -94 58 -104l40 -71l28 42c12 18 83 125 83 132c0 6 -7 6 -65 8v28c58 0 81 0 152 2v-30
c-30 -3 -38 -3 -49 -15c-9 -9 -55 -76 -71 -98l-64 -92v-164c0 -21 1 -36 2 -55l78 -3v-29c-33 1 -69 2 -135 2s-100 -1 -135 -2v29zM183 627c0 -37 -29 -67 -62 -67c-31 0 -52 22 -52 55c0 35 27 65 61 65c26 0 53 -18 53 -53zM380 627c0 -37 -29 -67 -62 -67
c-31 0 -52 22 -52 55c0 35 27 65 61 65c26 0 53 -18 53 -53z" />
    <glyph glyph-name="uni03A9" unicode="&#x3a9;" horiz-adv-x="679" 
d="M647 149l-23 -149h-225l-7 18c40 95 115 235 114 374c-1 213 -81 289 -168 289c-92 0 -166 -72 -166 -294c0 -135 64 -265 113 -368l-9 -19h-223l-22 149l27 1c19 -64 35 -74 73 -74h94c-61 57 -161 157 -161 319c0 195 122 319 277 319c157 0 273 -118 273 -313
c0 -147 -95 -252 -166 -325h101c39 0 51 8 70 74z" />
    <glyph glyph-name="o.superior" horiz-adv-x="352" 
d="M28 580c0 78 58 138 149 138c99 0 145 -69 145 -135c0 -72 -54 -137 -146 -137c-70 0 -148 41 -148 134zM102 579c0 -84 32 -111 74 -111c48 0 72 45 72 120c0 69 -24 108 -67 108c-49 0 -79 -45 -79 -117z" />
    <glyph glyph-name="fi" unicode="&#xfb01;" horiz-adv-x="574" 
d="M540 0h-215v30l55 1v321c0 18 -10 24 -25 24c-14 0 -138 -4 -144 -7c-8 -4 -7 -11 -7 -31v-307l54 -1v-30h-215v30l53 1v341h-60v42h60c0 158 0 192 75 262c23 21 77 66 136 66c2 1 53 -2 67 -2l105 -7l-12 -76c-19 2 -172 15 -231 15c-28 0 -29 -5 -32 -51v-207h94
c47 0 89 4 122 8c32 3 54 7 58 7c8 0 9 -5 10 -13v-385l52 -1v-30z" />
    <glyph glyph-name="fl" unicode="&#xfb02;" horiz-adv-x="574" 
d="M36 414h60c0 145 0 184 55 244c33 37 83 85 144 85c32 0 79 -14 98 -12v-2c4 1 71 10 97 13c-1 -29 -1 -45 -2 -188v-523l52 -1v-30h-215v30l55 1v345c-24 0 -159 -1 -169 -7c-7 -4 -7 -11 -7 -31v-307l54 -1v-30h-215v30l53 1v341h-60v42zM380 414v158c0 29 0 76 -6 83
c-10 11 -120 22 -138 22c-19 0 -25 -3 -28 -15c-4 -25 -6 -103 -6 -143c0 -47 1 -76 2 -105h176z" />
    <glyph glyph-name="onesuperior" unicode="&#xb9;" horiz-adv-x="352" 
d="M58 300v28l75 5c2 87 2 88 2 136l1 197l-73 1v36l166 12l-1 -382l75 -5v-28c-48 1 -86 2 -124 2s-75 -1 -121 -2z" />
    <glyph glyph-name="threesuperior" unicode="&#xb3;" horiz-adv-x="352" 
d="M53 614l11 89c22 6 58 15 98 15c96 0 128 -52 128 -93c0 -50 -46 -72 -73 -83v-2c18 -3 94 -20 94 -96c0 -125 -215 -157 -253 -157c-9 0 -11 1 -11 13c0 10 3 11 29 17c69 15 145 38 145 97c0 64 -77 69 -108 71c-36 3 -40 6 -40 12c0 12 4 14 13 15c8 1 128 21 128 78
c0 21 -16 48 -67 48c-8 0 -44 0 -94 -24z" />
    <glyph glyph-name="twosuperior" unicode="&#xb2;" horiz-adv-x="352" 
d="M16 300v14c46 41 210 183 210 255c0 25 -17 59 -73 59c-61 0 -107 -35 -115 -35c-5 0 -4 7 -4 9l12 89c55 27 105 27 120 27c70 0 134 -38 134 -111c0 -61 -39 -97 -169 -218h158l9 41h27l-12 -129h-133c-114 0 -127 0 -164 -1z" />
    <glyph glyph-name="uni2010" unicode="&#x2010;" horiz-adv-x="259" 
d="M239 169h-219v84h219v-84z" />
    <glyph glyph-name="fi.sc" horiz-adv-x="815" 
d="M714 30l65 -3v-29c-24 1 -52 2 -122 2c-69 0 -94 -1 -121 -2v29l65 3c1 36 1 47 1 136c0 215 0 239 -1 286l-65 3v29c23 -1 52 -2 121 -2c70 0 95 1 122 2v-29l-65 -3c-1 -36 -2 -45 -2 -131c0 -221 0 -246 2 -291zM95 452l-69 3v29c50 -2 111 -2 127 -2
c90 0 222 0 318 2l3 -127h-46c-8 76 -14 81 -22 88c-15 13 -78 13 -131 13h-68v-198c71 1 79 0 92 4c17 5 22 15 27 83h42c-5 -74 -2 -190 -2 -195h-40c-4 28 -5 70 -14 76s-23 8 -105 8c0 -149 0 -161 1 -206l75 -3v-29c-28 1 -69 2 -140 2c-64 0 -88 -1 -116 -2v29l70 3
v365c0 22 -1 38 -2 57z" />
    <glyph glyph-name="fl.sc" horiz-adv-x="1000" 
d="M978 140l-12 -142c-61 2 -117 2 -268 2c-107 0 -134 -1 -171 -2v29l68 3c2 36 2 45 2 131c0 221 0 246 -2 291l-68 3v29c22 -1 50 -2 127 -2s105 1 127 2v-29l-73 -3c-1 -35 -1 -43 -1 -131c0 -235 0 -242 1 -256c4 -33 4 -39 113 -39c25 0 53 2 77 3l38 111h42zM95 452
l-69 3v29c50 -2 111 -2 127 -2c90 0 222 0 318 2l3 -127h-46c-8 76 -14 81 -22 88c-15 13 -78 13 -131 13h-68v-198c71 1 79 0 92 4c17 5 22 15 27 83h42c-5 -74 -2 -190 -2 -195h-40c-4 28 -5 70 -14 76s-23 8 -105 8c0 -149 0 -161 1 -206l75 -3v-29c-28 1 -69 2 -140 2
c-64 0 -88 -1 -116 -2v29l70 3v365c0 22 -1 38 -2 57z" />
    </font>
</defs>
</svg>
