<?xml version="1.0" standalone="no"?>
<!DOCTYPE svg PUBLIC "-//W3C//DTD SVG 1.1//EN" "http://www.w3.org/Graphics/SVG/1.1/DTD/svg11.dtd" >
<svg>
<metadata>
Created by FontForge 20120731 at Wed Mar 16 08:08:25 2016
 By www
Copyright (c) The digitally encoded machine readable outline data for producing the typefaces licensed to you is copyrighted (C), 2003 by the Foundry, London. All rights reserved.
</metadata>
<defs>
<font id="FoundrySansW08-Demi" horiz-adv-x="576" >
  <font-face 
    font-family="FoundrySansW08-Demi"
    font-weight="600"
    font-stretch="normal"
    units-per-em="1000"
    panose-1="4 0 7 0 0 0 0 0 0 0"
    ascent="800"
    descent="-200"
    x-height="475"
    cap-height="667"
    bbox="-47 -242 1105 1074"
    underline-thickness="50"
    underline-position="-125"
    unicode-range="U+0020-FB04"
  />
<missing-glyph horiz-adv-x="257" 
 />
    <glyph glyph-name="uniE033" unicode="fj" horiz-adv-x="599" 
d="M532 -11q0 -75 -24 -121t-78 -75q-23 -12 -45.5 -19t-61.5 -14l-26 89q28 8 47 18t34 24q18 16 24.5 42t6.5 80v379h-189v-392h-124v392h-87v83h87v36q0 82 21 126t73 67q23 10 52.5 15.5t61.5 5.5q21 0 39 -2.5t44 -9.5l-20 -87q-12 2 -20.5 3t-19.5 1q-33 0 -56.5 -8.5
t-34.5 -25.5q-9 -14 -12.5 -32.5t-3.5 -54.5v-34h312v-486zM471 680q29 0 49.5 -20t20.5 -49q0 -30 -20.5 -51t-49.5 -21t-50 21t-21 50t20.5 49.5t50.5 20.5z" />
    <glyph glyph-name="uniFB00" unicode="ff" horiz-adv-x="669" 
d="M408 475v41q0 40 5.5 70.5t17 53.5t30 39t44.5 27q22 10 51.5 15t61.5 5q25 0 43.5 -3t45.5 -11l-20 -87q-20 4 -30.5 5t-22.5 1q-57 0 -79.5 -27t-22.5 -96v-33h125v-83h-125v-392h-124v392h-189v-392h-124v392h-86v83h86v41q0 40 5.5 70.5t17 53.5t30 39t44.5 27
q22 10 51.5 15t62.5 5q24 0 43 -3t46 -11l-20 -87q-20 4 -30.5 5t-23.5 1q-57 0 -79.5 -27t-22.5 -96v-33h189z" />
    <glyph glyph-name="uniFB01" unicode="fi" horiz-adv-x="599" 
d="M471 680q29 0 49.5 -20t20.5 -49q0 -30 -20.5 -51t-49.5 -21t-50 21t-21 50t20.5 49.5t50.5 20.5zM409 0v392h-189v-392h-124v392h-87v83h87v36q0 82 21 126t73 67q23 10 52.5 15.5t61.5 5.5q21 0 39 -2.5t44 -9.5l-20 -87q-12 2 -20.5 3t-19.5 1q-33 0 -56.5 -8.5
t-34.5 -25.5q-9 -14 -12.5 -32.5t-3.5 -54.5v-34h312v-475h-123z" />
    <glyph glyph-name="uniFB02" unicode="fl" horiz-adv-x="611" 
d="M420 0v392h-200v-392h-124v392h-87v83h87v36q0 61 10.5 98t34.5 62q26 26 67 40t92 14q20 0 37 -2t45 -8l-20 -87q-11 1 -22.5 1.5t-16.5 0.5q-61 0 -85 -33q-11 -15 -14.5 -33t-3.5 -55v-34h200v240h124v-715h-124z" />
    <glyph glyph-name="uniFB03" unicode="ffi" horiz-adv-x="911" 
d="M408 475v36q0 82 21 126t73 67q23 10 53 15.5t62 5.5q20 0 38.5 -2.5t44.5 -9.5l-20 -87q-12 2 -20.5 3t-19.5 1q-69 0 -92 -34q-9 -14 -12.5 -32.5t-3.5 -54.5v-34h313v-475h-123v392h-190v-392h-124v392h-189v-392h-124v392h-86v83h86v41q0 40 5.5 70.5t17 53.5t30 39
t44.5 27q22 10 51.5 15t61.5 5q25 0 43.5 -3t45.5 -11l-20 -87q-20 4 -30.5 5t-22.5 1q-57 0 -79.5 -27t-22.5 -96v-33h189zM783 680q29 0 49.5 -20t20.5 -49q0 -30 -20.5 -51t-49.5 -21t-50 21t-21 50t20.5 49.5t50.5 20.5z" />
    <glyph glyph-name="uniFB04" unicode="ffl" horiz-adv-x="923" 
d="M408 475v36q0 61 10.5 98t34.5 62q26 26 67 40t92 14q20 0 37 -2t45 -8l-20 -87q-11 1 -22.5 1.5t-16.5 0.5q-61 0 -85 -33q-11 -15 -14.5 -33t-3.5 -55v-34h200v240h124v-715h-124v392h-200v-392h-124v392h-189v-392h-124v392h-86v83h86v41q0 40 5.5 70.5t17 53.5t30 39
t44.5 27q22 10 51.5 15t61.5 5q24 0 43 -3t46 -11l-20 -87q-19 4 -30 5t-23 1q-57 0 -79.5 -27t-22.5 -96v-33h189z" />
    <glyph glyph-name="f_t.liga" unicode="ft" horiz-adv-x="684" 
d="M659 5q-35 -8 -57 -11.5t-43 -3.5q-44 0 -78.5 11.5t-48.5 31.5q-14 16 -18.5 39t-4.5 68v252h-189v-392h-124v392h-87v83h87v36q0 82 21 126t73 67q23 10 52.5 15.5t61.5 5.5q21 0 39 -2.5t44 -9.5l-20 -87q-12 2 -20.5 3t-19.5 1q-33 0 -56.5 -8.5t-34.5 -25.5
q-9 -14 -12.5 -32.5t-3.5 -54.5v-34h189v146h123v-146h127v-83h-127v-220q0 -32 2.5 -45.5t9.5 -22.5q7 -8 24 -13t38 -5q8 0 18 1t35 5v-87z" />
    <glyph glyph-name=".notdef" horiz-adv-x="257" 
 />
    <glyph glyph-name=".null" horiz-adv-x="0" 
 />
    <glyph glyph-name="nonmarkingreturn" horiz-adv-x="333" 
 />
    <glyph glyph-name="space" unicode=" " horiz-adv-x="257" 
 />
    <glyph glyph-name="exclam" unicode="!" horiz-adv-x="341" 
d="M223 197h-106l-17 470h136zM169 141q32 0 53 -21t21 -52q0 -32 -21 -53t-53 -21q-31 0 -52 21t-21 52q0 32 21 53t52 21z" />
    <glyph glyph-name="quotedbl" unicode="&#x22;" horiz-adv-x="361" 
d="M215 460v222h106v-222h-106zM40 460v222h106v-222h-106z" />
    <glyph glyph-name="numbersign" unicode="#" 
d="M498 462h-90l-15 -105h90l-9 -63h-90l-25 -179h-67l25 179h-89l-23 -179h-69l24 179h-91l10 63h90l15 105h-89l9 62h89l22 162h68l-22 -162h88l21 162h70l-23 -162h90zM252 462l-15 -105h88l15 105h-88z" />
    <glyph glyph-name="dollar" unicode="$" 
d="M449 553q-30 4 -50 6t-48 2q-113 0 -113 -47q0 -18 16.5 -29.5t63.5 -26.5q31 -10 53.5 -18.5t39 -16.5t29 -16.5t24.5 -19.5q22 -20 34 -48.5t12 -59.5q0 -35 -14.5 -68t-40.5 -55q-14 -12 -23.5 -19t-24 -13t-40 -12.5t-70.5 -17.5l-5 -1l-10 -96l-60 2l8 92h-7l-37 -1
q-10 0 -20 0.5t-24 2.5t-33.5 4.5t-48.5 7.5l26 113q32 -5 71 -8.5t72 -3.5q60 0 91.5 14t31.5 41q0 20 -18.5 34t-69.5 32q-33 12 -55.5 20.5t-38.5 17t-27.5 16.5t-22.5 19q-21 19 -32 46.5t-11 59.5q0 83 72 128q29 19 62 27.5t85 12.5l9 89h61l-9 -89h7l18 -1
q20 -2 41.5 -5t52.5 -9l-23 -107z" />
    <glyph glyph-name="percent" unicode="%" horiz-adv-x="723" 
d="M542 344q34 0 63.5 -13.5t51 -36.5t33.5 -55.5t12 -69.5q0 -39 -12.5 -72t-34 -57t-51.5 -37.5t-66 -13.5q-35 0 -64 13t-50 36t-33 55t-12 71t12 72t34 57t52 37.5t65 13.5zM185 684q34 0 63.5 -13t50.5 -36.5t33 -55.5t12 -70q0 -39 -12.5 -72.5t-34 -57.5t-51.5 -37.5
t-66 -13.5q-35 0 -64 13t-50 36.5t-33 55.5t-12 71t12 72t34 57t52 37.5t66 13.5zM159 -14l-54 37l457 662l55 -39zM541 268q-32 0 -51 -26.5t-19 -72.5q0 -48 19 -76t52 -28t51 25.5t18 73.5t-19 76t-51 28zM183 609q-32 0 -51 -26.5t-19 -71.5q0 -50 19 -78t53 -28
q32 0 50.5 26t18.5 73q0 48 -19.5 76.5t-51.5 28.5z" />
    <glyph glyph-name="ampersand" unicode="&#x26;" horiz-adv-x="711" 
d="M639 -10l-11 6q-21 11 -37.5 19.5t-27.5 15.5l-31 15.5t-18 10t-12.5 8.5t-14.5 10q-54 -45 -108 -64.5t-122 -19.5q-50 0 -91 14t-70.5 38.5t-46 59t-16.5 76.5q0 30 9.5 59.5t27.5 53.5q9 12 19 23t23 21.5t30.5 22.5t41.5 27q-22 35 -31.5 66t-9.5 65q0 36 14 66.5
t39 52t59.5 34t75.5 12.5q72 0 115.5 -37.5t43.5 -100.5q0 -27 -8 -50t-25.5 -45t-46.5 -44.5t-71 -47.5q17 -23 32 -40.5t31 -33t34.5 -31.5t43.5 -35q9 13 14 21t9 17t7.5 21t9.5 33h107q-7 -30 -12.5 -50t-12 -35.5t-15.5 -30t-23 -33.5l8 -5q24 -16 39.5 -26t28.5 -17.5
t26 -13.5t31 -15zM286 438q2 2 4 2.5t4 1.5q42 22 60.5 44.5t18.5 49.5q0 23 -14.5 37.5t-37.5 14.5q-29 0 -45.5 -20t-16.5 -55q0 -20 6 -37t21 -38zM400 138q0 1 -1 1l-1 1q-31 27 -54.5 48t-42 40t-33.5 36.5t-28 36.5q-42 -26 -59.5 -51t-17.5 -58q0 -44 33 -72t84 -28
q69 0 121 45z" />
    <glyph glyph-name="quotesingle" unicode="'" horiz-adv-x="187" 
d="M40 460v222h106v-222h-106z" />
    <glyph glyph-name="parenleft" unicode="(" horiz-adv-x="355" 
d="M228 -151q-27 32 -46 57.5t-33.5 48.5t-26 46.5t-22.5 50.5q-23 56 -35 114t-12 111q0 104 44 207q10 25 21.5 47t26.5 45t35 49t47 59l81 -57q-19 -30 -33 -53.5t-24.5 -43.5t-18 -39.5t-14.5 -40.5q-14 -44 -22 -91.5t-8 -93.5t7.5 -94t21.5 -91q7 -21 15 -40.5
t18.5 -39.5t24 -43t33.5 -53z" />
    <glyph glyph-name="parenright" unicode=")" horiz-adv-x="355" 
d="M127 684q174 -200 174 -417q0 -54 -12 -110t-34.5 -110t-55 -104.5t-72.5 -93.5l-80 56q64 95 92 180t28 180q0 94 -28.5 180t-91.5 182z" />
    <glyph glyph-name="asterisk" unicode="*" horiz-adv-x="419" 
d="M315 444l-90 49l22 -100l-73 -13l-1 102l-76 -71l-49 58l87 54l-98 31l25 69l89 -49l-22 100l71 15l4 -102l75 71l50 -58l-85 -55l96 -32z" />
    <glyph glyph-name="plus" unicode="+" 
d="M339 217v-202h-101v202h-202v101h202v202h101v-202h201v-101h-201z" />
    <glyph glyph-name="comma" unicode="," horiz-adv-x="297" 
d="M174 -113h-82v240h125z" />
    <glyph glyph-name="hyphen" unicode="-" horiz-adv-x="314" 
d="M27 219v98h259v-98h-259z" />
    <glyph glyph-name="period" unicode="." horiz-adv-x="331" 
d="M166 142q31 0 52.5 -21.5t21.5 -53.5q0 -31 -21 -52t-53 -21t-53 21t-21 52q0 32 21 53.5t53 21.5z" />
    <glyph glyph-name="slash" unicode="/" horiz-adv-x="450" 
d="M91 -63l-64 28l333 768l64 -28z" />
    <glyph glyph-name="zero" unicode="0" 
d="M290 683q56 0 102 -24t79 -68t51 -106t18 -138q0 -81 -18.5 -147.5t-52.5 -113.5t-81.5 -72.5t-105.5 -25.5q-56 0 -101.5 24.5t-77.5 69t-50 107t-18 138.5q0 79 18.5 144.5t52.5 112.5t80.5 73t103.5 26zM286 578q-56 0 -85.5 -60.5t-29.5 -172.5q0 -121 31.5 -187
t88.5 -66q26 0 47 16t36 46t23 72t8 94q0 59 -8.5 106.5t-24 81.5t-37.5 52t-49 18z" />
    <glyph glyph-name="one" unicode="1" 
d="M269 0v546h-1l-160 -80l-45 84l233 133l103 -37v-646h-130z" />
    <glyph glyph-name="two" unicode="2" 
d="M68 0l-22 87q5 6 16.5 16t32.5 24q20 15 46 37t53.5 49t54.5 56t51 57q66 78 66 146q0 48 -30 75t-81 27q-23 0 -50.5 -4.5t-50.5 -12.5q-63 -21 -65 -22l-35 93q57 26 117.5 41t113.5 15q49 0 89.5 -13.5t69 -39t44 -61t15.5 -78.5q0 -42 -17 -87.5t-49 -90.5
q-18 -25 -36.5 -47t-42 -45.5t-54.5 -50.5t-74 -63h289v-108h-451z" />
    <glyph glyph-name="three" unicode="3" 
d="M67 632q60 24 118 37t105 13q85 0 133 -38.5t48 -106.5q0 -54 -33.5 -94.5t-96.5 -63.5q78 -13 119 -53.5t41 -103.5q0 -53 -29 -95.5t-83 -72t-130.5 -45.5t-172.5 -16h-22v96q154 8 225 41t71 97q0 92 -191 92h-36v90q30 1 52.5 3.5t39.5 5.5t32 8t30 13q27 14 42 34
t15 43q0 28 -23 44t-63 16q-15 0 -30.5 -1.5t-33.5 -5.5t-41 -10.5t-53 -16.5z" />
    <glyph glyph-name="four" unicode="4" 
d="M457 140v-140h-122v140h-296l-24 91l338 456l104 -35v-411h88v-101h-88zM335 498l-188 -257h188v257z" />
    <glyph glyph-name="five" unicode="5" 
d="M219 457q137 -12 207.5 -66t70.5 -147q0 -140 -154 -203q-60 -24 -130.5 -36.5t-155.5 -14.5l-4 95q158 12 231.5 49t73.5 106q0 58 -56 87.5t-180 34.5l-24 80l44 225h347v-103h-249z" />
    <glyph glyph-name="six" unicode="6" 
d="M514 581q-142 -20 -224 -78t-113 -160q35 38 71.5 54.5t84.5 16.5q43 0 79.5 -15t63 -42t41 -64.5t14.5 -82.5q0 -49 -17 -90t-47 -71t-72 -46.5t-91 -16.5q-56 0 -102.5 21.5t-80.5 59.5t-52.5 91.5t-18.5 116.5q0 91 38.5 166t114.5 132q31 23 62.5 40t67 29.5
t77.5 20.5t95 14zM180 241q2 -14 3.5 -24t3.5 -17q10 -49 42.5 -79t76.5 -30t71 30.5t27 78.5t-28 78t-73 30q-71 0 -123 -67z" />
    <glyph glyph-name="seven" unicode="7" 
d="M209 -19l-123 52l296 530h-322v104h459l13 -91z" />
    <glyph glyph-name="eight" unicode="8" 
d="M396 359q45 -25 67.5 -41.5t38.5 -36.5q17 -20 26 -45.5t9 -51.5q0 -42 -20.5 -78t-57 -62.5t-85.5 -41.5t-106 -15q-51 0 -93.5 12.5t-72.5 35.5t-46.5 55t-16.5 71q0 28 7.5 51.5t24 46t44 45t67.5 47.5q-31 22 -52 40.5t-34 37.5t-18.5 39t-5.5 44q0 38 17.5 69
t49 53.5t75.5 34.5t98 12q92 0 144 -40t52 -111q0 -49 -26 -88t-86 -83zM295 416q14 9 18.5 11.5t9.5 6.5q31 20 47 43.5t16 47.5q0 30 -23.5 46.5t-65.5 16.5q-45 0 -72.5 -19.5t-27.5 -51.5q0 -28 22 -51t76 -50zM276 289q-59 -35 -83 -64t-24 -62q0 -35 29.5 -56
t78.5 -21q25 0 47.5 7t39 19t26 28t9.5 34q0 28 -18.5 48.5t-65.5 46.5l-30 16h-1z" />
    <glyph glyph-name="nine" unicode="9" 
d="M62 86q55 7 98 19.5t86 35.5q33 18 56.5 36t41 39t30.5 47t25 61q-34 -37 -71 -53.5t-86 -16.5q-43 0 -79 15.5t-62.5 42.5t-41 64.5t-14.5 82.5q0 48 17 89t47 70.5t71.5 46.5t90.5 17q55 0 102 -21.5t81 -60t53 -91t19 -114.5q0 -118 -62.5 -208.5t-181.5 -144.5
q-24 -11 -47 -19t-48 -14t-53.5 -10.5t-63.5 -7.5zM396 427q-2 20 -3 26t-3 14q-11 48 -44 78.5t-75 30.5q-45 0 -72 -30t-27 -78q0 -49 28 -79t73 -30q70 0 123 68z" />
    <glyph glyph-name="colon" unicode=":" horiz-adv-x="331" 
d="M166 482q31 0 52.5 -21t21.5 -53t-21 -53t-53 -21t-53 21t-21 53t21 53t53 21zM166 142q31 0 52.5 -21.5t21.5 -53.5q0 -31 -21 -52t-53 -21t-53 21t-21 52q0 32 21 53.5t53 21.5z" />
    <glyph glyph-name="semicolon" unicode=";" horiz-adv-x="327" 
d="M166 482q31 0 52.5 -21t21.5 -53t-21 -53t-53 -21t-53 21t-21 53t21 53t53 21zM190 -113h-82v240h126z" />
    <glyph glyph-name="less" unicode="&#x3c;" 
d="M44 220v94l488 194v-105l-365 -136l365 -140v-105z" />
    <glyph glyph-name="equal" unicode="=" horiz-adv-x="575" 
d="M44 301v101h487v-101h-487zM44 132v101h487v-101h-487z" />
    <glyph glyph-name="greater" unicode="&#x3e;" 
d="M44 22v105l365 140l-365 136v105l488 -194v-94z" />
    <glyph glyph-name="question" unicode="?" horiz-adv-x="503" 
d="M36 627q51 26 112.5 41t115.5 15q89 0 141 -43t52 -118q0 -72 -48 -129.5t-142 -98.5v-97h-102l-14 157q85 26 130.5 65t45.5 87q0 33 -24 52t-66 19q-38 0 -74.5 -9t-84.5 -29zM220 141q31 0 52 -21t21 -52q0 -32 -20.5 -53t-52.5 -21t-53 21t-21 52q0 32 21 53t53 21z
" />
    <glyph glyph-name="at" unicode="@" horiz-adv-x="819" 
d="M720 98q-73 -59 -145 -85t-158 -26q-81 0 -148.5 24.5t-115.5 68.5t-75 105.5t-27 135.5q0 77 30.5 143.5t84 115t126.5 76.5t157 28q70 0 128.5 -20t101 -55t66 -83.5t23.5 -106.5q0 -57 -21.5 -102.5t-61 -78t-95 -50t-124.5 -17.5h-22l9 44q-29 -25 -52 -35t-50 -10
q-52 0 -82 34t-30 94q0 44 14 84.5t37.5 72t53.5 50t63 18.5q28 0 50 -11.5t45 -37.5l7 38h92l-50 -270q69 14 107 59t38 114q0 45 -17.5 82.5t-50 64t-77.5 41t-100 14.5q-68 0 -125.5 -22.5t-99.5 -63t-65.5 -95.5t-23.5 -119q0 -58 21 -106t58.5 -82.5t90 -53.5
t116.5 -19q33 0 63.5 5t61 16t62.5 28.5t68 42.5zM486 398q-14 28 -28.5 40t-34.5 12q-16 0 -31 -12.5t-27 -32.5t-19 -47t-7 -55q0 -58 40 -58q20 0 40 11.5t48 39.5z" />
    <glyph glyph-name="A" unicode="A" horiz-adv-x="706" 
d="M557 0l-77 196h-266l-76 -196h-133l276 667h141l279 -667h-144zM346 538l-95 -247h192z" />
    <glyph glyph-name="B" unicode="B" horiz-adv-x="612" 
d="M290 667q72 0 116.5 -10.5t76.5 -35.5q26 -20 40 -50t14 -65q0 -56 -35 -97q-8 -10 -17 -17.5t-20 -13.5t-25 -11.5t-33 -11.5q24 -5 42 -10.5t32 -12t25 -14.5t22 -18q42 -42 42 -107q0 -44 -18.5 -80t-52 -61t-81.5 -38.5t-107 -13.5h-237v667h216zM266 396
q37 0 59.5 5t40.5 18q17 11 26.5 30t9.5 41q0 42 -29.5 61t-95.5 19h-71v-174h60zM267 100q49 0 75.5 6.5t48.5 23.5q17 14 26.5 35t9.5 44q0 26 -12.5 47t-34.5 32q-10 5 -19.5 8t-21.5 5t-27.5 2.5t-37.5 0.5h-68v-204h61z" />
    <glyph glyph-name="C" unicode="C" horiz-adv-x="661" 
d="M647 55q-32 -19 -61.5 -32t-59 -21.5t-60.5 -12t-66 -3.5q-79 0 -144.5 25t-113 70t-73.5 108t-26 138q0 77 29 142t81 112.5t123.5 74t156.5 26.5q25 0 47 -2t45 -6.5t48.5 -11.5t57.5 -18l-33 -97q-23 7 -43 12t-38 8t-36 4.5t-37 1.5q-59 0 -107 -17t-82.5 -48.5
t-53 -76t-18.5 -98.5q0 -52 17 -95t47.5 -74t73 -48t93.5 -17q25 0 47 2.5t43.5 8.5t45 15.5t50.5 23.5z" />
    <glyph glyph-name="D" unicode="D" horiz-adv-x="734" 
d="M270 667q39 0 66 -0.5t47.5 -2.5t37.5 -5t37 -8q75 -20 123.5 -57t74.5 -97q17 -35 26.5 -78t9.5 -78t-11 -80t-28 -80q-61 -123 -219 -165q-22 -6 -38 -9t-35.5 -4.5t-48 -2t-74.5 -0.5h-164v667h196zM275 106q129 0 202 61t73 170q0 60 -22.5 109.5t-64.5 76.5
q-17 12 -34 20t-37.5 12.5t-46.5 6.5t-61 2h-76v-458h67z" />
    <glyph glyph-name="E" unicode="E" horiz-adv-x="559" 
d="M74 0v667h421v-102h-286v-170h270v-99h-270v-188h305v-108h-440z" />
    <glyph glyph-name="F" unicode="F" horiz-adv-x="518" 
d="M209 566v-174h262v-100h-262v-292h-135v667h412v-101h-277z" />
    <glyph glyph-name="G" unicode="G" horiz-adv-x="699" 
d="M647 34q-37 -14 -65.5 -23.5t-54 -15t-51 -7.5t-56.5 -2q-85 0 -154.5 24.5t-119 69t-76.5 107t-27 139.5q0 78 29.5 143.5t83 112t128 72.5t164.5 26q25 0 46.5 -1.5t43.5 -6t47 -12t58 -18.5l-33 -97q-27 9 -46.5 14.5t-37 8.5t-33.5 4.5t-35 1.5q-63 0 -113.5 -17
t-86.5 -49t-55 -77.5t-19 -102.5q0 -54 17.5 -97.5t50 -74.5t77.5 -48t101 -17q12 0 20 0.5t17 2t20 4t28 7.5v215h132v-286z" />
    <glyph glyph-name="H" unicode="H" horiz-adv-x="719" 
d="M511 0v301h-303v-301h-134v667h134v-267h303v267h135v-667h-135z" />
    <glyph glyph-name="I" unicode="I" horiz-adv-x="284" 
d="M74 0v667h136v-667h-136z" />
    <glyph glyph-name="J" unicode="J" horiz-adv-x="351" 
d="M281 199q0 -71 -27.5 -113.5t-89.5 -67.5q-23 -10 -54 -17t-81 -14l-22 100q45 10 72.5 20.5t42.5 25.5t20 38.5t5 59.5v436h134v-468z" />
    <glyph glyph-name="K" unicode="K" horiz-adv-x="660" 
d="M476 0l-267 334v-334h-135v667h135v-289l256 289h165l-283 -310l304 -357h-175z" />
    <glyph glyph-name="L" unicode="L" horiz-adv-x="513" 
d="M74 0v667h135v-559h289v-108h-424z" />
    <glyph glyph-name="M" unicode="M" horiz-adv-x="860" 
d="M703 0l-59 456l-161 -456h-114l-165 456l-54 -456h-125l93 667h141l174 -478l166 478h139l97 -667h-132z" />
    <glyph glyph-name="N" unicode="N" horiz-adv-x="709" 
d="M506 0l-308 441v-441h-124v667h127l311 -447v447h124v-667h-130z" />
    <glyph glyph-name="O" unicode="O" horiz-adv-x="757" 
d="M386 682q70 0 130 -25.5t104 -70.5t68.5 -106.5t24.5 -133.5q0 -78 -26 -144t-71.5 -113.5t-109 -74.5t-138.5 -27q-71 0 -130.5 25.5t-102.5 70.5t-67.5 107.5t-24.5 136.5q0 77 25.5 142t71.5 112.5t109 74t137 26.5zM375 568q-42 0 -77 -17t-60.5 -47t-39.5 -71.5
t-14 -91.5q0 -52 14.5 -96t40.5 -75.5t61.5 -49t78.5 -17.5t78.5 16.5t60.5 46.5t39 72.5t14 93.5q0 53 -14 96.5t-40 74.5t-62 48t-80 17z" />
    <glyph glyph-name="P" unicode="P" horiz-adv-x="566" 
d="M285 667q78 0 124.5 -11.5t77.5 -38.5q26 -23 40.5 -59.5t14.5 -79.5q0 -93 -66.5 -145t-184.5 -52h-82v-281h-135v667h211zM270 376q64 0 99 25.5t35 72.5q0 26 -10.5 46.5t-29.5 31.5q-16 9 -33.5 12.5t-52.5 3.5h-69v-192h61z" />
    <glyph glyph-name="Q" unicode="Q" horiz-adv-x="754" 
d="M694 -125l-28 -3.5t-23.5 -2.5t-22.5 -1h-24q-118 0 -219 35t-175.5 96.5t-116.5 145.5t-42 182q0 76 26 141.5t72 113.5t108.5 75t135.5 27q70 0 130 -26t103.5 -72t68 -109t24.5 -137q0 -69 -23 -130t-62 -107.5t-90.5 -73.5t-108.5 -27h-11q-8 1 -10 1h-6
q33 -10 57 -16t45 -9.5t42.5 -4.5t50.5 -1h24.5t20 0.5t19.5 1.5t23 2zM376 568q-42 0 -77.5 -17t-60.5 -48t-39 -74t-14 -95q0 -56 14 -102t39.5 -79t61 -51.5t77.5 -18.5t77.5 17.5t61 48.5t40 74.5t14.5 94.5q0 55 -14.5 101t-40 79t-61 51.5t-78.5 18.5z" />
    <glyph glyph-name="R" unicode="R" horiz-adv-x="615" 
d="M448 0l-121 238q-25 49 -78 49h-41v-287h-134v667h211q37 0 65.5 -2t51 -6t40 -11.5t33.5 -17.5q31 -20 49 -55.5t18 -76.5q0 -65 -41 -110.5t-113 -59.5q28 -8 43 -19.5t31 -37.5l144 -271h-158zM273 381q62 0 96.5 26t34.5 73t-30.5 69t-95.5 22h-70v-190h65z" />
    <glyph glyph-name="S" unicode="S" horiz-adv-x="551" 
d="M464 562q-41 7 -65.5 9.5t-50.5 2.5q-74 0 -115.5 -20.5t-41.5 -56.5q0 -12 5.5 -22.5t18.5 -20.5t34.5 -20.5t53.5 -22.5q33 -12 58 -23t44 -21.5t34 -21t27 -22.5q23 -22 35.5 -53t12.5 -67q0 -49 -21 -88.5t-59 -67.5t-92.5 -43.5t-120.5 -15.5q-47 0 -88 5t-96 18
l21 104q24 -4 43 -7t35.5 -4.5t32 -2.5t32.5 -1q83 0 127 23.5t44 68.5q0 15 -5.5 26.5t-18.5 22.5t-34.5 21.5t-54.5 23.5q-34 13 -57 22.5t-39 18t-27.5 15.5t-21.5 16q-61 52 -61 130q0 44 20 80t56.5 61t88.5 38.5t116 13.5q19 0 35 -1t33 -3t36 -6t45 -10z" />
    <glyph glyph-name="T" unicode="T" horiz-adv-x="569" 
d="M354 565v-565h-135v565h-210v102h551v-102h-206z" />
    <glyph glyph-name="U" unicode="U" horiz-adv-x="714" 
d="M643 287q0 -80 -16.5 -132.5t-53.5 -88.5q-36 -35 -95 -56.5t-123 -21.5q-35 0 -75 7t-72 18q-51 18 -80 49.5t-45 83.5q-4 13 -6.5 26t-4 28.5t-2 35.5t-0.5 49v382h135v-382v-34.5t1 -22.5t2 -16t3 -16q8 -33 23.5 -52.5t42.5 -30.5q17 -6 37.5 -10t37.5 -4
q22 0 43 4.5t40 12t33.5 18t23.5 23.5q8 12 13.5 24t8.5 27t4.5 35t1.5 47v377h123v-380z" />
    <glyph glyph-name="V" unicode="V" horiz-adv-x="670" 
d="M404 0h-142l-257 667h143l191 -530l194 530h133z" />
    <glyph glyph-name="W" unicode="W" horiz-adv-x="979" 
d="M780 0h-140l-151 472l-153 -472h-135l-196 667h135l138 -493l158 493h119l160 -493l133 493h126z" />
    <glyph glyph-name="X" unicode="X" horiz-adv-x="638" 
d="M469 0l-152 259l-165 -259h-147l235 350l-213 317h162l132 -222l138 222h148l-210 -314l236 -353h-164z" />
    <glyph glyph-name="Y" unicode="Y" horiz-adv-x="620" 
d="M378 292v-292h-134v292l-239 375h160l149 -267l154 267h148z" />
    <glyph glyph-name="Z" unicode="Z" horiz-adv-x="570" 
d="M31 0v100l324 466h-319v101h491v-90l-323 -468h335v-109h-508z" />
    <glyph glyph-name="bracketleft" unicode="[" horiz-adv-x="378" 
d="M69 -138v805h253v-94h-124v-616h124v-95h-253z" />
    <glyph glyph-name="backslash" unicode="\" horiz-adv-x="450" 
d="M360 -63l-333 768l63 28l334 -768z" />
    <glyph glyph-name="bracketright" unicode="]" horiz-adv-x="378" 
d="M56 -138v95h124v616h-124v94h253v-805h-253z" />
    <glyph glyph-name="asciicircum" unicode="^" 
d="M453 223l-165 332l-165 -332h-105l225 444h93l223 -444h-106z" />
    <glyph glyph-name="underscore" unicode="_" 
d="M38 -168v96h500v-96h-500z" />
    <glyph glyph-name="grave" unicode="`" horiz-adv-x="234" 
d="M199 531l-199 93l45 78l189 -113z" />
    <glyph glyph-name="a" unicode="a" horiz-adv-x="499" 
d="M490 9q-30 -12 -47 -16t-37 -4q-44 0 -67 16.5t-32 54.5q-41 -36 -77.5 -52.5t-75.5 -16.5q-25 0 -46.5 9t-37 25.5t-24.5 38.5t-9 48q0 71 65 117q18 13 35.5 22.5t39.5 18.5t51 17t70 18v14q0 38 -12.5 53.5t-41.5 15.5t-61.5 -12.5t-88.5 -44.5l-43 75q58 40 116 61.5
t108 21.5q44 0 77 -14t48 -39q6 -11 10 -20.5t6.5 -23t3 -33t0.5 -49.5v-179q0 -27 8.5 -38.5t28.5 -11.5q9 0 24 3zM298 230q-77 -23 -109 -46t-32 -55q0 -19 11.5 -30.5t30.5 -11.5q23 0 46.5 12.5t52.5 40.5v90z" />
    <glyph glyph-name="b" unicode="b" horiz-adv-x="579" 
d="M190 410q25 23 45.5 38.5t39 24.5t37.5 13t41 4q42 0 76 -17t59 -48t38.5 -73.5t13.5 -94.5q0 -59 -15.5 -108.5t-43.5 -85t-67 -55t-86 -19.5q-22 0 -40 3.5t-34.5 12.5t-32.5 23t-34 35v-63h-120v715h123v-305zM190 161q31 -38 56 -54t57 -16q24 0 44 11t34.5 30.5
t22.5 46.5t8 59q0 63 -29 102.5t-75 39.5q-32 0 -60 -16.5t-58 -53.5v-149z" />
    <glyph glyph-name="c" unicode="c" horiz-adv-x="480" 
d="M465 67q-54 -42 -101.5 -59.5t-102.5 -17.5q-50 0 -91 17.5t-70 49t-45 76.5t-16 100q0 58 18 105.5t51 81t80 51.5t104 18q22 0 39 -1.5t33.5 -6t35 -11.5t43.5 -19l-35 -84q-19 7 -33 12t-25.5 8t-22 4t-22.5 1q-63 0 -99 -40.5t-36 -110.5q0 -67 32.5 -107t86.5 -40
q14 0 27.5 2t28 7.5t32 14t40.5 22.5z" />
    <glyph glyph-name="d" unicode="d" horiz-adv-x="583" 
d="M397 0v77q-43 -47 -84 -67.5t-92 -20.5q-41 0 -74.5 17t-57.5 47.5t-37 74t-13 96.5q0 58 15.5 107t43.5 84.5t66.5 55t85.5 19.5q21 0 38.5 -3.5t34 -12t33 -22.5t36.5 -35v298h124v-715h-119zM392 306q-29 42 -57 61t-63 19q-47 0 -75.5 -40t-28.5 -105t28.5 -104.5
t75.5 -39.5q34 0 62.5 16.5t57.5 54.5v138z" />
    <glyph glyph-name="e" unicode="e" horiz-adv-x="522" 
d="M491 74q-114 -86 -233 -86q-49 0 -89.5 17.5t-69 49t-44.5 76t-16 98.5q0 57 18 105t50.5 82.5t77.5 54t98 19.5q98 0 150 -62.5t52 -180.5v-25h-313q4 -41 11.5 -63t21.5 -38q28 -34 81 -34q18 0 35 3t35.5 9.5t39.5 17.5t47 27zM361 302q-5 57 -24.5 82t-59.5 25
q-80 0 -103 -111z" />
    <glyph glyph-name="f" unicode="f" horiz-adv-x="356" 
d="M374 625q-20 4 -30.5 5t-22.5 1q-57 0 -79.5 -27t-22.5 -96v-33h125v-83h-125v-392h-124v392h-86v83h86v41q0 40 5.5 70.5t17 53.5t30 39t44.5 27q22 10 51.5 15t61.5 5q25 0 43.5 -3t45.5 -11z" />
    <glyph glyph-name="g" unicode="g" horiz-adv-x="546" 
d="M437 390q16 -23 22 -40t6 -43q0 -39 -15.5 -72t-42.5 -56.5t-64.5 -37t-82.5 -13.5q-14 0 -23 1t-25 5q-6 -9 -12 -17.5t-15 -21.5q13 -5 22.5 -7.5t17 -5t15 -4t16.5 -2.5q33 -5 63 -9t57 -8q53 -7 82.5 -15.5t51.5 -22.5q42 -28 42 -83q0 -39 -21 -71.5t-58.5 -56
t-89.5 -36.5t-114 -13q-59 0 -106 10t-80 28.5t-50.5 45t-17.5 59.5q0 85 110 114q-35 9 -50.5 17t-15.5 19q0 13 22 39q3 5 6.5 9t6.5 8l20 27l20 25q-38 31 -54 63t-16 75q0 42 16 76.5t44.5 59.5t68 39t87.5 14q22 0 38.5 -3t42.5 -11h161v-85h-85zM263 409
q-38 0 -59.5 -26t-21.5 -71q0 -47 23 -74.5t62 -27.5q38 0 60 26.5t22 71.5q0 46 -23.5 73.5t-62.5 27.5zM216 -12q-44 -14 -62.5 -30.5t-18.5 -42.5q0 -32 38 -51t104 -19t106.5 20.5t40.5 54.5q0 23 -23 34t-86 18q-16 1 -26.5 2.5t-20.5 3t-22 4t-30 6.5z" />
    <glyph glyph-name="h" unicode="h" horiz-adv-x="571" 
d="M383 0v298q0 42 -13.5 60t-43.5 18q-33 0 -65 -17.5t-70 -57.5v-301h-124v715h124v-309q51 45 92.5 64t86.5 19q35 0 64.5 -13t47.5 -37q14 -18 20 -43t6 -64v-332h-125z" />
    <glyph glyph-name="i" unicode="i" horiz-adv-x="257" 
d="M129 691q29 0 49.5 -21t20.5 -50t-20.5 -49.5t-49.5 -20.5t-50 20.5t-21 49.5t21 50t50 21zM67 0v475h123v-475h-123z" />
    <glyph glyph-name="j" unicode="j" horiz-adv-x="264" 
d="M136 691q29 0 49.5 -20.5t20.5 -49.5q0 -30 -20.5 -50.5t-49.5 -20.5t-50 20.5t-21 49.5t21 50t50 21zM197 -11q0 -75 -24 -121t-78 -75q-23 -12 -45.5 -19t-61.5 -14l-26 89q28 8 47 18t34 24q18 16 24.5 42t6.5 80v462h123v-486z" />
    <glyph glyph-name="k" unicode="k" horiz-adv-x="530" 
d="M368 0l-177 240v-240h-124v715h124v-434l166 194h155l-193 -214l204 -261h-155z" />
    <glyph glyph-name="l" unicode="l" horiz-adv-x="259" 
d="M67 0v715h125v-715h-125z" />
    <glyph glyph-name="m" unicode="m" horiz-adv-x="825" 
d="M641 0v264q0 22 -0.5 36t-1 23t-2 15t-4.5 13q-5 12 -15 18.5t-24 6.5q-26 0 -59 -20.5t-61 -54.5v-301h-120v294q0 46 -10.5 64t-36.5 18q-27 0 -59 -20t-61 -55v-301h-120v475h117v-68q47 45 86 64t83 19q45 0 72 -21t41 -66q51 47 89 67t79 20q37 0 65.5 -15t42.5 -41
q10 -22 14.5 -50.5t4.5 -81.5v-302h-120z" />
    <glyph glyph-name="n" unicode="n" horiz-adv-x="562" 
d="M375 0v262q0 34 -2.5 56.5t-9 35.5t-18 18t-28.5 5q-55 0 -127 -75v-302h-123v475h119v-72q49 46 91 66.5t87 20.5q38 0 67.5 -15t45.5 -43q6 -11 10.5 -22.5t6.5 -26t3 -34t1 -46.5v-303h-123z" />
    <glyph glyph-name="o" unicode="o" horiz-adv-x="558" 
d="M285 491q51 0 93.5 -18.5t74 -51.5t49 -78t17.5 -98q0 -56 -18 -103t-50.5 -81t-77.5 -53t-98 -19q-51 0 -94.5 18.5t-75 51t-49 77.5t-17.5 98q0 55 18.5 102.5t51.5 81.5t78 53.5t98 19.5zM277 392q-49 0 -78.5 -40t-29.5 -106q0 -71 31 -113.5t82 -42.5q48 0 77 39.5
t29 105.5q0 72 -30 114.5t-81 42.5z" />
    <glyph glyph-name="p" unicode="p" horiz-adv-x="581" 
d="M183 403q25 24 47 41t42 27t40 14.5t42 4.5q41 0 75 -17t59 -48t38.5 -74t13.5 -94q0 -59 -15.5 -108.5t-43.5 -85t-67 -55t-85 -19.5q-44 0 -75 16t-64 56v-291h-123v705h116v-72zM190 161q31 -38 56 -54t57 -16q24 0 44 11t34.5 30.5t22.5 46.5t8 59q0 63 -29 102.5
t-75 39.5q-32 0 -60 -16.5t-58 -53.5v-149z" />
    <glyph glyph-name="q" unicode="q" horiz-adv-x="585" 
d="M394 -230v302q-3 -4 -5.5 -7t-8.5 -8l-5 -5l-2 -2q-25 -27 -66.5 -44t-83.5 -17q-41 0 -74.5 17t-57.5 48t-37 74t-13 96q0 58 15.5 107t43 84.5t66 55t85.5 19.5q46 0 78.5 -17t69.5 -60v62h119v-705h-124zM394 306q-29 42 -57 61t-63 19q-47 0 -75.5 -40t-28.5 -105
t28.5 -104.5t75.5 -39.5q34 0 62.5 16.5t57.5 54.5v138z" />
    <glyph glyph-name="r" unicode="r" horiz-adv-x="381" 
d="M352 368q-11 4 -17.5 5t-12.5 1q-64 0 -131 -135v-239h-124v475h120v-96q32 56 66 80.5t78 24.5q15 0 23 -1.5t22 -7.5z" />
    <glyph glyph-name="s" unicode="s" horiz-adv-x="440" 
d="M367 389q-23 4 -36.5 6.5t-23.5 3.5t-18 1.5t-19 0.5q-43 0 -67.5 -11.5t-24.5 -31.5t33 -39q5 -2 28.5 -12.5t68.5 -28.5q99 -40 99 -132q0 -75 -64 -115.5t-184 -40.5q-19 0 -33.5 0.5t-29 2.5t-29.5 5.5t-34 8.5l20 89q33 -7 53.5 -9t46.5 -2q59 0 90 13t31 39
q0 10 -3 18t-13.5 15.5t-30 16t-51.5 21.5q-20 8 -34 15t-25 13t-19 13t-16 15q-32 34 -32 80q0 67 58 106t157 39q25 0 44 -1.5t42 -6.5l16 -3l19 -4z" />
    <glyph glyph-name="t" unicode="t" horiz-adv-x="359" 
d="M334 5q-35 -8 -57 -11.5t-43 -3.5q-44 0 -78.5 11.5t-48.5 31.5q-14 16 -18.5 39t-4.5 68v253h-85v82h85v146h123v-146h127v-82h-127v-221q0 -32 2.5 -45.5t9.5 -22.5q7 -8 24 -13t38 -5q8 0 18 1t35 5v-87z" />
    <glyph glyph-name="u" unicode="u" horiz-adv-x="562" 
d="M373 0v74q-82 -83 -169 -83q-41 0 -72.5 16t-46.5 43q-6 12 -10.5 24t-6.5 27.5t-3 36t-1 50.5v287h124v-293q0 -77 58 -77q59 0 127 75v295h123v-475h-123z" />
    <glyph glyph-name="v" unicode="v" horiz-adv-x="522" 
d="M327 0h-134l-186 475h137l124 -341l127 341h121z" />
    <glyph glyph-name="w" unicode="w" horiz-adv-x="768" 
d="M611 0h-128l-98 328l-98 -328h-130l-150 475h127l96 -328l97 328h126l97 -328l95 328h116z" />
    <glyph glyph-name="x" unicode="x" horiz-adv-x="518" 
d="M359 0l-107 165l-106 -165h-139l174 251l-157 224h149l92 -143l89 143h134l-154 -224l177 -251h-152z" />
    <glyph glyph-name="y" unicode="y" horiz-adv-x="522" 
d="M295 -75q-20 -49 -38.5 -81.5t-41 -51.5t-51 -26.5t-66.5 -7.5q-21 0 -39 3t-48 11l21 89q16 -3 27 -4t22 -1q34 0 55 18t42 67l20 45l-191 489h136l124 -344l127 344h121z" />
    <glyph glyph-name="z" unicode="z" horiz-adv-x="474" 
d="M37 0v92l224 284h-216v99h388v-84l-225 -287h230v-104h-401z" />
    <glyph glyph-name="braceleft" unicode="{" horiz-adv-x="387" 
d="M221 -138q-49 0 -79.5 33.5t-30.5 88.5v146q0 112 -72 120v89q72 7 72 124v83q0 54 31 87.5t80 33.5h109v-94h-55q-20 0 -29 -19t-9 -63v-75q0 -50 -16 -78.5t-51 -42.5q37 -18 52 -46t15 -79v-132q0 -44 9 -63t29 -19h55v-94h-110z" />
    <glyph glyph-name="bar" unicode="|" horiz-adv-x="275" 
d="M72 -167v834h130v-834h-130z" />
    <glyph glyph-name="braceright" unicode="}" horiz-adv-x="387" 
d="M348 250q-72 -8 -72 -120v-146q0 -55 -30.5 -88.5t-79.5 -33.5h-110v94h55q21 0 29.5 18.5t8.5 63.5v132q0 50 16 79t51 46q-67 25 -67 121v75q0 45 -8.5 63.5t-29.5 18.5h-55v94h109q49 0 80 -33.5t31 -87.5v-83q0 -117 72 -124v-89z" />
    <glyph glyph-name="asciitilde" unicode="~" 
d="M543 321q-33 -63 -69 -94.5t-84 -31.5q-27 0 -54 7.5t-53 16.5q-24 8 -38.5 12t-24.5 6t-16 2h-13q-14 0 -33.5 -13t-45.5 -53l-79 47q37 62 72.5 88t82.5 26q32 0 59 -8t53 -17q22 -7 36.5 -10.5t24 -5t14.5 -1.5h9q10 0 18.5 2.5t18 10.5t20.5 21.5t26 36.5l76 -42v0z
" />
    <glyph glyph-name="exclamdown" unicode="&#xa1;" horiz-adv-x="341" 
d="M170 512q32 0 53 -21t21 -52q0 -32 -21 -53.5t-53 -21.5t-53 21t-21 53t21 53t53 21zM100 -161l17 469h106l13 -469h-136z" />
    <glyph glyph-name="cent" unicode="&#xa2;" 
d="M501 207q-38 -29 -82.5 -47t-88.5 -23l-22 -2l-6 -1l-10 -91h-58l10 95l-6 1l-8 2q-80 20 -124 81t-44 151q0 118 76 188q16 15 32 25.5t34.5 18.5t40.5 13t50 9l9 89h58l-10 -89q31 -2 61.5 -10.5t66.5 -24.5l-37 -93q-32 12 -54.5 16.5t-45.5 4.5q-57 0 -92 -36.5
t-35 -96.5q0 -29 8.5 -53.5t24 -42.5t36 -28.5t44.5 -10.5q26 0 54 8.5t66 28.5z" />
    <glyph glyph-name="sterling" unicode="&#xa3;" 
d="M517 561q-12 3 -16 4.5t-12 3.5q-19 5 -33 7t-34 2q-27 0 -44 -4t-32 -15q-29 -20 -44 -51t-22 -85l-5 -22h232v-98h-247l-5 -41l-3 -22q-4 -26 -9 -46t-11.5 -36t-16 -28.5t-21.5 -23.5h351v-106h-510l-24 94q24 1 42 8.5t30.5 22t20.5 37.5t13 57l12 84h-105v98h119
l11 60q42 222 258 222q19 0 35 -1.5t32 -4.5t34 -8t41 -13z" />
    <glyph glyph-name="currency" unicode="&#xa4;" horiz-adv-x="620" 
d="M131 201q-50 67 -50 142q0 38 11.5 69t39.5 71l-93 92l36 36l92 -93q41 29 72.5 40.5t70.5 11.5t70.5 -11.5t71.5 -40.5l93 92l35 -35l-92 -92q27 -35 39 -69t12 -73q0 -38 -10.5 -69t-38.5 -71l91 -92l-35 -36l-92 92q-66 -51 -140 -51q-38 0 -71.5 12t-74.5 39l-91 -91
l-35 35zM313 515q-36 0 -68 -13t-55.5 -36.5t-37 -54.5t-13.5 -67t13.5 -67.5t36.5 -55t54 -37t67 -13.5q35 0 66 13.5t54.5 37t37 54.5t13.5 67q0 35 -13.5 66.5t-36.5 55t-53.5 37t-64.5 13.5z" />
    <glyph glyph-name="yen" unicode="&#xa5;" 
d="M418 408h120v-84h-174l-11 -41v-12h185v-84h-185v-187h-129v187h-184v84h184v12l-12 41h-172v84h120l-161 259h151l142 -257l142 257h143z" />
    <glyph glyph-name="brokenbar" unicode="&#xa6;" horiz-adv-x="275" 
d="M72 334v333h130v-333h-130zM72 -167v333h130v-333h-130z" />
    <glyph glyph-name="section" unicode="&#xa7;" 
d="M476 573q-31 5 -48 8t-29 4.5t-22 1.5h-26q-125 0 -125 -53q0 -31 50 -53l127 -57q113 -50 113 -147q0 -41 -19 -72t-61 -60q33 -27 45 -48.5t12 -53.5q0 -75 -63.5 -118t-173.5 -43q-50 0 -89 5t-86 17l22 88q20 -5 36 -8t30 -5t27.5 -2.5t30.5 -0.5q129 0 129 56
q0 16 -11.5 28t-37.5 23q-5 2 -8.5 4t-7.5 4l-37 19q-7 3 -16.5 7t-26.5 11q-151 60 -151 165q0 82 84 132q-29 21 -41.5 44.5t-12.5 56.5q0 72 64.5 113.5t176.5 41.5q22 0 40.5 -1t37 -3.5t39 -6.5t47.5 -11zM351 191q49 27 49 66q0 12 -4 22t-14.5 19.5t-27.5 19
t-44 21.5l-80 36q-26 -12 -37.5 -26.5t-11.5 -34.5q0 -23 14.5 -39.5t49.5 -33.5z" />
    <glyph glyph-name="dieresis" unicode="&#xa8;" horiz-adv-x="331" 
d="M271 674q26 0 43 -17.5t17 -43.5t-17 -43t-43 -17t-43.5 17t-17.5 43t17.5 43.5t43.5 17.5zM60 674q26 0 43.5 -17t17.5 -43t-17.5 -43.5t-43.5 -17.5t-43 17t-17 43t17 43.5t43 17.5z" />
    <glyph glyph-name="copyright" unicode="&#xa9;" horiz-adv-x="734" 
d="M367 687q73 0 137.5 -27.5t112.5 -75t75.5 -111.5t27.5 -137q0 -75 -27.5 -139.5t-75 -112.5t-112 -75.5t-138.5 -27.5t-138.5 27.5t-112.5 75t-75.5 112t-27.5 138.5q0 73 27.5 137.5t75.5 112.5t112.5 75.5t138.5 27.5zM367 643q-64 0 -120.5 -24.5t-98.5 -66.5
t-66.5 -98t-24.5 -120t24.5 -120.5t66.5 -98.5t98.5 -66.5t120.5 -24.5t120 24t98 66t66.5 98t24.5 120q0 65 -24 121.5t-66 98.5t-98.5 66.5t-120.5 24.5zM527 174q-37 -23 -74.5 -33.5t-82.5 -10.5q-49 0 -90 15t-71 41.5t-46.5 63.5t-16.5 81q0 46 18 84.5t50 66.5
t77 43.5t98 15.5q31 0 59.5 -5.5t61.5 -16.5l8 -3l-23 -63l-8 3q-10 2 -14.5 3.5t-5.5 1.5l-1 1q-3 1 -11.5 2.5t-18.5 3t-20.5 2.5t-17.5 1q-69 0 -109 -36t-40 -99q0 -60 36 -96.5t94 -36.5q19 0 42 4.5t34 9.5q7 3 12 6l7 3q8 4 13 6l8 4z" />
    <glyph glyph-name="ordfeminine" unicode="&#xaa;" horiz-adv-x="313" 
d="M285 377q-17 -8 -37 -8q-47 0 -59 42q-24 -22 -44 -31.5t-43 -9.5q-30 0 -50.5 21.5t-20.5 53.5q0 44 36 72t116 47v7q0 21 -6.5 29.5t-23.5 8.5q-16 0 -33.5 -6.5t-42.5 -21.5l-11 -7l-28 49q32 25 69 38.5t70 13.5q58 0 75 -47q3 -10 4.5 -23.5t1.5 -39.5v-107
q0 -28 17 -28h2q2 0 5 0.5t8 1.5h1h2l6 -49zM38 274v53h255v-53h-255zM183 514l-1 -1q-43 -13 -60 -25.5t-17 -32.5q0 -21 21 -21q24 0 57 30v50z" />
    <glyph glyph-name="guillemotleft" unicode="&#xab;" horiz-adv-x="455" 
d="M338 58l-133 189l133 183l67 -39l-83 -144l88 -149zM161 57l-132 190l132 184l69 -41l-86 -143l86 -150z" />
    <glyph glyph-name="logicalnot" unicode="&#xac;" 
d="M432 147v166h-390v102h492v-268h-102z" />
    <glyph glyph-name="registered" unicode="&#xae;" horiz-adv-x="734" 
d="M367 687q73 0 137.5 -27.5t112.5 -75t75.5 -111.5t27.5 -137q0 -75 -27.5 -139.5t-75 -112.5t-112 -75.5t-138.5 -27.5t-138.5 27.5t-112.5 75t-75.5 112t-27.5 138.5q0 73 27.5 137.5t75.5 112.5t112.5 75.5t138.5 27.5zM367 643q-64 0 -120.5 -24.5t-98.5 -66.5
t-66.5 -98t-24.5 -120t24.5 -120.5t66.5 -98.5t98.5 -66.5t120.5 -24.5t120 24t98 66t66.5 98t24.5 120q0 65 -24 121.5t-66 98.5t-98.5 66.5t-120.5 24.5zM443 139l-72 138l-4 8q-10 21 -36 21h-14v-167h-100v393h136q38 0 63.5 -4t44.5 -12q26 -11 41 -34t15 -51
q0 -16 -6.5 -32t-18 -29.5t-26 -23.5t-30.5 -13l-5 -1l3 -1q7 -2 17 -11t15 -17l91 -164h-114zM346 366q69 0 69 55q0 26 -15.5 37.5t-50.5 11.5h-32v-104h29z" />
    <glyph glyph-name="macron" unicode="&#xaf;" horiz-adv-x="434" 
d="M67 567v79h301v-79h-301z" />
    <glyph glyph-name="degree" unicode="&#xb0;" 
d="M288 678q28 0 53.5 -10.5t44 -29t29.5 -43t11 -52.5q0 -29 -10.5 -54t-29.5 -44t-44 -29.5t-54 -10.5t-54 10.5t-44 29t-29.5 43.5t-10.5 54q0 28 10.5 53t29.5 43.5t44 29t54 10.5zM287 621q-32 0 -54.5 -22.5t-22.5 -56.5t22.5 -57t55.5 -23q15 0 29.5 6.5t25.5 17.5
t17.5 25.5t6.5 29.5q0 33 -23.5 56.5t-56.5 23.5z" />
    <glyph glyph-name="plusminus" unicode="&#xb1;" 
d="M339 331v-187h-101v187h-202v101h202v187h101v-187h201v-101h-201zM37 0v94h501v-94h-501z" />
    <glyph glyph-name="uni00B2" unicode="&#xb2;" horiz-adv-x="326" 
d="M52 354l-16 55q78 62 116 103t38 65q0 34 -42 34q-15 0 -35 -5t-49 -16l-25 63q26 14 59.5 22t64.5 8q53 0 84 -26.5t31 -71.5q0 -43 -29 -82t-90 -78h127v-71h-234z" />
    <glyph glyph-name="uni00B3" unicode="&#xb3;" horiz-adv-x="299" 
d="M34 656q38 14 65 20.5t51 6.5q45 0 71.5 -19.5t26.5 -53.5q0 -29 -17.5 -48.5t-49.5 -23.5q37 -1 59 -21.5t22 -53.5q0 -51 -57 -81t-152 -30h-17v58q142 4 142 55q0 37 -78 37h-30v55q45 0 73 11t28 28q0 23 -35 23q-7 0 -13 -0.5t-14.5 -2.5t-20.5 -5.5t-31 -9.5z" />
    <glyph glyph-name="acute" unicode="&#xb4;" horiz-adv-x="233" 
d="M34 533l-34 56l189 113l44 -78z" />
    <glyph glyph-name="mu" unicode="&#xb5;" horiz-adv-x="562" 
d="M379 0v80q-87 -90 -178 -90h-2h-3h-4h-2h-1q-4 0 -9 1v-105h-116v589h124v-279q0 -25 1.5 -38t6.5 -23q15 -30 49 -30q30 0 63.5 19.5t64.5 55.5v295h123v-475h-117z" />
    <glyph glyph-name="paragraph" unicode="&#xb6;" 
d="M424 -117v713h-48v-713h-78v406q-106 1 -165 51.5t-59 142.5q0 57 25 98t73 64q25 12 62.5 17t106.5 5h161v-784h-78z" />
    <glyph glyph-name="periodcentered" unicode="&#xb7;" horiz-adv-x="331" 
d="M166 407q31 0 52.5 -21.5t21.5 -52.5q0 -32 -21 -53t-53 -21t-53 21t-21 53t21 53t53 21z" />
    <glyph glyph-name="cedilla" unicode="&#xb8;" horiz-adv-x="661" 
d="M362 -43q30 -1 47 -15.5t17 -40.5q0 -79 -145 -81l8 49q69 1 69 26q0 19 -38 19h-10t-17 -1l16 95l62 1z" />
    <glyph glyph-name="uni00B9" unicode="&#xb9;" horiz-adv-x="241" 
d="M118 352v239l-67 -34l-32 57l122 68l60 -21v-309h-83z" />
    <glyph glyph-name="ordmasculine" unicode="&#xba;" horiz-adv-x="348" 
d="M177 676q29 0 54.5 -11.5t44 -31t29 -46.5t10.5 -58q0 -35 -10.5 -64.5t-29.5 -50.5t-45.5 -33t-57.5 -12q-30 0 -55.5 11.5t-44 31.5t-29 47.5t-10.5 60.5q0 34 11 62.5t30 49.5t45.5 32.5t57.5 11.5zM40 274v53h268v-53h-268zM173 611q-28 0 -44.5 -23.5t-16.5 -62.5
q0 -41 17 -65.5t46 -24.5q28 0 44 23t16 64t-16.5 65t-45.5 24z" />
    <glyph glyph-name="guillemotright" unicode="&#xbb;" horiz-adv-x="455" 
d="M294 57l-70 41l86 147l-86 146l70 40l132 -186zM116 57l-71 41l88 147l-84 146l67 38l133 -184z" />
    <glyph glyph-name="onequarter" unicode="&#xbc;" horiz-adv-x="655" 
d="M146 -16l-64 39l439 664l64 -42zM141 352v239l-67 -34l-32 57l122 68l60 -21v-309h-83zM552 64v-64h-76v64h-143l-15 52l169 215l65 -18v-186h43v-63h-43zM476 216l-67 -89h67v89z" />
    <glyph glyph-name="onehalf" unicode="&#xbd;" horiz-adv-x="714" 
d="M420 0l-16 55q83 67 118.5 105.5t35.5 62.5q0 34 -41 34q-30 0 -85 -21l-25 63q28 14 61 22t63 8q53 0 84 -26.5t31 -71.5q0 -42 -28.5 -81t-90.5 -79h127v-71h-234zM146 -16l-64 39l439 664l64 -42zM141 352v239l-67 -34l-32 57l122 68l60 -21v-309h-83z" />
    <glyph glyph-name="threequarters" unicode="&#xbe;" horiz-adv-x="684" 
d="M175 -16l-64 39l439 664l64 -42zM60 656q38 14 64.5 20.5t51.5 6.5q45 0 71.5 -19.5t26.5 -53.5q0 -30 -17.5 -48.5t-49.5 -23.5q37 -1 59 -21.5t22 -53.5q0 -51 -57 -81t-152 -30h-17v58q142 4 142 55q0 37 -78 37h-30v55q45 0 73 11t28 28q0 23 -34 23q-15 0 -30 -3.5
t-50 -14.5zM581 64v-64h-76v64h-143l-15 52l169 215l65 -18v-186h43v-63h-43zM505 216l-67 -89h67v89z" />
    <glyph glyph-name="questiondown" unicode="&#xbf;" horiz-adv-x="503" 
d="M273 527q32 0 53 -21t21 -52q0 -32 -21.5 -53.5t-53.5 -21.5q-31 0 -52 21.5t-21 52.5q0 32 21 53t53 21zM457 -105q-23 -13 -51 -23.5t-58.5 -18t-61 -11.5t-57.5 -4q-88 0 -140.5 44t-52.5 118q0 71 48 128t142 99v96h102l14 -157q-84 -25 -130 -64.5t-46 -86.5
q0 -33 24.5 -51.5t67.5 -18.5q38 0 75.5 8.5t81.5 28.5z" />
    <glyph glyph-name="Agrave" unicode="&#xc0;" horiz-adv-x="706" 
d="M557 0l-77 196h-266l-76 -196h-133l276 667h141l279 -667h-144zM346 538l-95 -247h192zM425 723l-224 78l40 91l213 -103z" />
    <glyph glyph-name="Aacute" unicode="&#xc1;" horiz-adv-x="706" 
d="M557 0l-77 196h-266l-76 -196h-133l276 667h141l279 -667h-144zM346 538l-95 -247h192zM286 723l-28 65l213 104l40 -89v-1z" />
    <glyph glyph-name="Acircumflex" unicode="&#xc2;" horiz-adv-x="706" 
d="M557 0l-77 196h-266l-76 -196h-133l276 667h141l279 -667h-144zM346 538l-95 -247h192zM503 724l-146 66l-150 -66l-37 64l187 104l183 -104z" />
    <glyph glyph-name="Atilde" unicode="&#xc3;" horiz-adv-x="706" 
d="M557 0l-77 196h-266l-76 -196h-133l276 667h141l279 -667h-144zM346 538l-95 -247h192zM540 816q-38 -38 -66.5 -54t-56.5 -16q-8 0 -14.5 1t-15.5 3.5t-22.5 7t-34.5 12.5q-28 10 -45 10q-27 0 -71 -37l-48 55q35 36 62.5 52t55.5 16q26 0 74 -20q36 -15 58 -15
q14 0 32 9.5t45 31.5z" />
    <glyph glyph-name="Adieresis" unicode="&#xc4;" horiz-adv-x="706" 
d="M557 0l-77 196h-266l-76 -196h-133l276 667h141l279 -667h-144zM346 538l-95 -247h192zM476 870q27 0 45.5 -18.5t18.5 -45.5t-18 -45.5t-46 -18.5q-27 0 -45.5 18.5t-18.5 45.5t18.5 45.5t45.5 18.5zM224 870q26 0 44.5 -19t18.5 -45q0 -27 -18.5 -45.5t-45.5 -18.5
q-26 0 -45 19t-19 45q0 27 19 45.5t46 18.5z" />
    <glyph glyph-name="Aring" unicode="&#xc5;" horiz-adv-x="706" 
d="M557 0l-77 196h-266l-76 -196h-133l276 667h141l279 -667h-144zM346 538l-95 -247h192zM346 905q42 0 70 -28t28 -69q0 -42 -28 -70.5t-70 -28.5t-70 28t-28 70t28 70t70 28zM346 855q-20 0 -34 -14t-14 -34t14 -34.5t34 -14.5t34 14.5t14 34.5t-14 34t-34 14z" />
    <glyph glyph-name="AE" unicode="&#xc6;" horiz-adv-x="958" 
d="M496 0v195h-224l-116 -195h-151l412 667h476v-102h-261v-170h246v-99h-246v-188h281v-108h-417zM496 574l-168 -282h168v282z" />
    <glyph glyph-name="Ccedilla" unicode="&#xc7;" horiz-adv-x="661" 
d="M348 -11q-71 9 -127 37.5t-96 72t-61 101.5t-21 126q0 78 29 143t81 112.5t123.5 74t156.5 26.5q25 0 47 -2t45 -6.5t48.5 -11.5t57.5 -18l-33 -97q-23 7 -43 12t-38 8t-36 4.5t-37 1.5q-59 0 -107 -17t-82.5 -48.5t-53 -76t-18.5 -98.5q0 -52 17 -95t47.5 -74t73 -48
t93.5 -17q25 0 47 2.5t43.5 8.5t45 15.5t50.5 23.5l47 -94q-54 -34 -107.5 -49.5t-122.5 -19.5l-7 -36h4l9 -1q26 -2 43 -19t17 -43q0 -89 -164 -92l9 55q78 1 78 30q0 22 -43 22h-11t-19 -2z" />
    <glyph glyph-name="Egrave" unicode="&#xc8;" horiz-adv-x="559" 
d="M74 0v667h421v-102h-286v-170h270v-99h-270v-188h305v-108h-440zM395 723l-224 78l40 91l213 -103z" />
    <glyph glyph-name="Eacute" unicode="&#xc9;" horiz-adv-x="559" 
d="M74 0v667h421v-102h-286v-170h270v-99h-270v-188h305v-108h-440zM230 722l-28 65l213 104l40 -89v-1z" />
    <glyph glyph-name="Ecircumflex" unicode="&#xca;" horiz-adv-x="559" 
d="M74 0v667h421v-102h-286v-170h270v-99h-270v-188h305v-108h-440zM443 724l-146 66l-151 -66l-36 64l187 104l182 -104z" />
    <glyph glyph-name="Edieresis" unicode="&#xcb;" horiz-adv-x="559" 
d="M74 0v667h421v-102h-286v-170h270v-99h-270v-188h305v-108h-440zM421 870q27 0 45.5 -18.5t18.5 -45.5t-18 -45.5t-46 -18.5q-27 0 -45.5 18.5t-18.5 45.5t18.5 45.5t45.5 18.5zM169 870q26 0 44.5 -19t18.5 -45q0 -27 -18.5 -45.5t-45.5 -18.5q-26 0 -45 19t-19 45
q0 27 19 45.5t46 18.5z" />
    <glyph glyph-name="Igrave" unicode="&#xcc;" horiz-adv-x="284" 
d="M74 0v667h136v-667h-136zM221 723l-224 78l40 91l213 -103z" />
    <glyph glyph-name="Iacute" unicode="&#xcd;" horiz-adv-x="284" 
d="M75 0v667h136v-667h-136zM89 722l-28 65l213 104l40 -89v-1z" />
    <glyph glyph-name="Icircumflex" unicode="&#xce;" horiz-adv-x="284" 
d="M75 0v667h136v-667h-136zM291 724l-146 66l-151 -66l-36 64l187 104l182 -104z" />
    <glyph glyph-name="Idieresis" unicode="&#xcf;" horiz-adv-x="284" 
d="M74 0v667h136v-667h-136zM236 870q26 0 44.5 -19t18.5 -45q0 -27 -18 -45.5t-46 -18.5q-27 0 -45.5 18.5t-18.5 45.5t18.5 45.5t46.5 18.5zM46 869q26 0 44.5 -18.5t18.5 -44.5q0 -27 -19 -45.5t-45 -18.5t-44.5 18.5t-18.5 45.5q0 26 18.5 44.5t45.5 18.5z" />
    <glyph glyph-name="Eth" unicode="&#xd0;" horiz-adv-x="734" 
d="M270 667q61 0 107.5 -4t82.5 -12.5t64.5 -22t53.5 -33.5q54 -45 84 -110.5t30 -143.5q0 -61 -19 -115t-54.5 -97t-85 -72.5t-109.5 -42.5q-21 -5 -39 -7.5t-38.5 -4t-46 -2t-62.5 -0.5h-164v298h-101v96h101v273h196zM275 106q132 0 203.5 61t71.5 173q0 69 -31.5 123
t-86.5 78q-27 13 -60.5 18t-87.5 5h-76v-170h156v-96h-156v-192h67z" />
    <glyph glyph-name="Ntilde" unicode="&#xd1;" horiz-adv-x="709" 
d="M506 0l-308 441v-441h-124v667h127l311 -447v447h124v-667h-130zM547 816q-38 -38 -66.5 -54t-56.5 -16q-8 0 -14.5 1t-15.5 3.5t-22.5 7t-34.5 12.5q-28 10 -45 10q-27 0 -71 -37l-48 55q35 36 62.5 52t55.5 16q26 0 74 -20q36 -15 58 -15q14 0 32 9.5t45 31.5z" />
    <glyph glyph-name="Ograve" unicode="&#xd2;" horiz-adv-x="757" 
d="M386 682q70 0 130 -25.5t104 -70.5t68.5 -106.5t24.5 -133.5q0 -78 -26 -144t-71.5 -113.5t-109 -74.5t-138.5 -27q-71 0 -130.5 25.5t-102.5 70.5t-67.5 107.5t-24.5 136.5q0 77 25.5 142t71.5 112.5t109 74t137 26.5zM375 568q-42 0 -77 -17t-60.5 -47t-39.5 -71.5
t-14 -91.5q0 -52 14.5 -96t40.5 -75.5t61.5 -49t78.5 -17.5t78.5 16.5t60.5 46.5t39 72.5t14 93.5q0 53 -14 96.5t-40 74.5t-62 48t-80 17zM462 723l-224 78l40 91l213 -103z" />
    <glyph glyph-name="Oacute" unicode="&#xd3;" horiz-adv-x="757" 
d="M386 682q70 0 130 -25.5t104 -70.5t68.5 -106.5t24.5 -133.5q0 -78 -26 -144t-71.5 -113.5t-109 -74.5t-138.5 -27q-71 0 -130.5 25.5t-102.5 70.5t-67.5 107.5t-24.5 136.5q0 77 25.5 142t71.5 112.5t109 74t137 26.5zM375 568q-42 0 -77 -17t-60.5 -47t-39.5 -71.5
t-14 -91.5q0 -52 14.5 -96t40.5 -75.5t61.5 -49t78.5 -17.5t78.5 16.5t60.5 46.5t39 72.5t14 93.5q0 53 -14 96.5t-40 74.5t-62 48t-80 17zM324 722l-27 65l212 104l40 -89v-1z" />
    <glyph glyph-name="Ocircumflex" unicode="&#xd4;" horiz-adv-x="757" 
d="M386 682q70 0 130 -25.5t104 -70.5t68.5 -106.5t24.5 -133.5q0 -78 -26 -144t-71.5 -113.5t-109 -74.5t-138.5 -27q-71 0 -130.5 25.5t-102.5 70.5t-67.5 107.5t-24.5 136.5q0 77 25.5 142t71.5 112.5t109 74t137 26.5zM375 568q-42 0 -77 -17t-60.5 -47t-39.5 -71.5
t-14 -91.5q0 -52 14.5 -96t40.5 -75.5t61.5 -49t78.5 -17.5t78.5 16.5t60.5 46.5t39 72.5t14 93.5q0 53 -14 96.5t-40 74.5t-62 48t-80 17zM533 724l-146 66l-150 -66l-37 64l187 104l183 -104z" />
    <glyph glyph-name="Otilde" unicode="&#xd5;" horiz-adv-x="757" 
d="M386 682q70 0 130 -25.5t104 -70.5t68.5 -106.5t24.5 -133.5q0 -78 -26 -144t-71.5 -113.5t-109 -74.5t-138.5 -27q-71 0 -130.5 25.5t-102.5 70.5t-67.5 107.5t-24.5 136.5q0 77 25.5 142t71.5 112.5t109 74t137 26.5zM375 568q-42 0 -77 -17t-60.5 -47t-39.5 -71.5
t-14 -91.5q0 -52 14.5 -96t40.5 -75.5t61.5 -49t78.5 -17.5t78.5 16.5t60.5 46.5t39 72.5t14 93.5q0 53 -14 96.5t-40 74.5t-62 48t-80 17zM565 816q-38 -38 -67 -54t-56 -16q-8 0 -14.5 1t-15.5 3.5t-22.5 7t-34.5 12.5q-28 10 -45 10q-27 0 -71 -37l-48 55q35 36 62.5 52
t55.5 16q26 0 74 -20q36 -15 58 -15q14 0 32 9.5t45 31.5z" />
    <glyph glyph-name="Odieresis" unicode="&#xd6;" horiz-adv-x="757" 
d="M386 682q70 0 130 -25.5t104 -70.5t68.5 -106.5t24.5 -133.5q0 -78 -26 -144t-71.5 -113.5t-109 -74.5t-138.5 -27q-71 0 -130.5 25.5t-102.5 70.5t-67.5 107.5t-24.5 136.5q0 77 25.5 142t71.5 112.5t109 74t137 26.5zM375 568q-42 0 -77 -17t-60.5 -47t-39.5 -71.5
t-14 -91.5q0 -52 14.5 -96t40.5 -75.5t61.5 -49t78.5 -17.5t78.5 16.5t60.5 46.5t39 72.5t14 93.5q0 53 -14 96.5t-40 74.5t-62 48t-80 17zM518 870q27 0 45.5 -18.5t18.5 -45.5t-18 -45.5t-46 -18.5q-27 0 -45.5 18.5t-18.5 45.5t18.5 45.5t45.5 18.5zM266 870
q26 0 44.5 -19t18.5 -45q0 -27 -18.5 -45.5t-45.5 -18.5q-26 0 -45 19t-19 45q0 27 19 45.5t46 18.5z" />
    <glyph glyph-name="multiply" unicode="&#xd7;" 
d="M431 53l-143 143l-143 -143l-72 72l143 142l-143 144l72 71l143 -143l143 143l71 -72l-143 -143l143 -143z" />
    <glyph glyph-name="Oslash" unicode="&#xd8;" horiz-adv-x="759" 
d="M639 566q41 -54 57.5 -105t16.5 -118q0 -77 -26 -142t-72 -112.5t-109.5 -74.5t-137.5 -27q-63 0 -111.5 17t-98.5 56l-69 -71l-48 45l71 74q-37 51 -53 102.5t-16 117.5q0 77 26 142t71.5 112t108.5 73.5t138 26.5q60 0 108 -16t97 -53l69 73l49 -46zM499 518
q-29 26 -58.5 38t-66.5 12q-42 0 -77 -17t-60 -47.5t-39 -73t-14 -93.5q0 -20 1 -34.5t4 -28t8.5 -28.5t14.5 -34zM251 156q29 -29 58.5 -41t68.5 -12q42 0 77 16.5t61 45.5t40.5 69.5t14.5 87.5q0 40 -7 72t-24 70z" />
    <glyph glyph-name="Ugrave" unicode="&#xd9;" horiz-adv-x="714" 
d="M643 287q0 -80 -16.5 -132.5t-53.5 -88.5q-36 -35 -95 -56.5t-123 -21.5q-35 0 -75 7t-72 18q-51 18 -80 49.5t-45 83.5q-4 13 -6.5 26t-4 28.5t-2 35.5t-0.5 49v382h135v-382v-34.5t1 -22.5t2 -16t3 -16q8 -33 23.5 -52.5t42.5 -30.5q17 -6 37.5 -10t37.5 -4
q22 0 43 4.5t40 12t33.5 18t23.5 23.5q8 12 13.5 24t8.5 27t4.5 35t1.5 47v377h123v-380zM437 723l-224 78l40 91l213 -103z" />
    <glyph glyph-name="Uacute" unicode="&#xda;" horiz-adv-x="714" 
d="M643 287q0 -80 -16.5 -132.5t-53.5 -88.5q-36 -35 -95 -56.5t-123 -21.5q-35 0 -75 7t-72 18q-51 18 -80 49.5t-45 83.5q-4 13 -6.5 26t-4 28.5t-2 35.5t-0.5 49v382h135v-382v-34.5t1 -22.5t2 -16t3 -16q8 -33 23.5 -52.5t42.5 -30.5q17 -6 37.5 -10t37.5 -4
q22 0 43 4.5t40 12t33.5 18t23.5 23.5q8 12 13.5 24t8.5 27t4.5 35t1.5 47v377h123v-380zM324 722l-28 65l213 104l40 -89v-1z" />
    <glyph glyph-name="Ucircumflex" unicode="&#xdb;" horiz-adv-x="714" 
d="M643 287q0 -80 -16.5 -132.5t-53.5 -88.5q-36 -35 -95 -56.5t-123 -21.5q-35 0 -75 7t-72 18q-51 18 -80 49.5t-45 83.5q-4 13 -6.5 26t-4 28.5t-2 35.5t-0.5 49v382h135v-382v-34.5t1 -22.5t2 -16t3 -16q8 -33 23.5 -52.5t42.5 -30.5q17 -6 37.5 -10t37.5 -4
q22 0 43 4.5t40 12t33.5 18t23.5 23.5q8 12 13.5 24t8.5 27t4.5 35t1.5 47v377h123v-380zM514 724l-146 66l-151 -66l-36 64l187 104l182 -104z" />
    <glyph glyph-name="Udieresis" unicode="&#xdc;" horiz-adv-x="714" 
d="M643 287q0 -80 -16.5 -132.5t-53.5 -88.5q-36 -35 -95 -56.5t-123 -21.5q-35 0 -75 7t-72 18q-51 18 -80 49.5t-45 83.5q-4 13 -6.5 26t-4 28.5t-2 35.5t-0.5 49v382h135v-382v-34.5t1 -22.5t2 -16t3 -16q8 -33 23.5 -52.5t42.5 -30.5q17 -6 37.5 -10t37.5 -4
q22 0 43 4.5t40 12t33.5 18t23.5 23.5q8 12 13.5 24t8.5 27t4.5 35t1.5 47v377h123v-380zM494 870q27 0 45.5 -18.5t18.5 -45.5t-18 -45.5t-46 -18.5q-27 0 -45.5 18.5t-18.5 45.5t18.5 45.5t45.5 18.5zM242 870q26 0 44.5 -19t18.5 -45q0 -27 -18.5 -45.5t-45.5 -18.5
q-26 0 -45 19t-19 45q0 27 19 45.5t46 18.5z" />
    <glyph glyph-name="Yacute" unicode="&#xdd;" horiz-adv-x="620" 
d="M378 292v-292h-134v292l-239 375h160l149 -267l154 267h148zM281 722l-28 65l213 104l40 -89v-1z" />
    <glyph glyph-name="Thorn" unicode="&#xde;" horiz-adv-x="566" 
d="M285 541q50 0 88 -4.5t61 -13.5q51 -20 79.5 -63.5t28.5 -102.5q0 -97 -65.5 -149.5t-185.5 -52.5h-82v-155h-135v667h135v-126h76zM270 250q65 0 99.5 26t34.5 74q0 21 -8.5 39.5t-22.5 30.5t-35.5 17t-59.5 5h-69v-192h61z" />
    <glyph glyph-name="germandbls" unicode="&#xdf;" horiz-adv-x="586" 
d="M64 441q0 26 0.5 44.5t2 32.5t4 25.5t6.5 24.5q15 51 43 84t73 52q26 11 58.5 17.5t60.5 6.5q40 0 73.5 -11.5t57.5 -32.5t37.5 -50t13.5 -63q0 -32 -13.5 -61.5t-43.5 -64.5l-7 -8l-26 -31q-9 -11 -12 -16.5t-3 -12.5q0 -11 8.5 -22t28.5 -27q35 -28 59 -50.5
t38.5 -43.5t21 -41.5t6.5 -43.5q0 -72 -59.5 -114.5t-161.5 -42.5q-27 0 -46.5 2.5t-52.5 10.5l23 90q19 -5 32 -7t31 -2q51 0 78.5 16.5t27.5 46.5q0 20 -13.5 38.5t-49.5 48.5q-33 28 -52.5 45t-29.5 29t-13 21.5t-3 21.5q0 17 9 32.5t38 47.5q36 40 51 68t15 55
q0 30 -22 49.5t-55 19.5q-32 0 -56 -15t-37 -42q-10 -22 -14 -50.5t-4 -76.5v-441h-123v441z" />
    <glyph glyph-name="agrave" unicode="&#xe0;" horiz-adv-x="499" 
d="M490 9q-30 -12 -47 -16t-37 -4q-44 0 -67 16.5t-32 54.5q-41 -36 -77.5 -52.5t-75.5 -16.5q-25 0 -46.5 9t-37 25.5t-24.5 38.5t-9 48q0 71 65 117q18 13 35.5 22.5t39.5 18.5t51 17t70 18v14q0 38 -12.5 53.5t-41.5 15.5t-61.5 -12.5t-88.5 -44.5l-43 75q58 40 116 61.5
t108 21.5q44 0 77 -14t48 -39q6 -11 10 -20.5t6.5 -23t3 -33t0.5 -49.5v-179q0 -27 8.5 -38.5t28.5 -11.5q9 0 24 3zM298 230q-77 -23 -109 -46t-32 -55q0 -19 11.5 -30.5t30.5 -11.5q23 0 46.5 12.5t52.5 40.5v90zM339 531l-199 93l45 78l189 -113z" />
    <glyph glyph-name="aacute" unicode="&#xe1;" horiz-adv-x="499" 
d="M490 9q-30 -12 -47 -16t-37 -4q-44 0 -67 16.5t-32 54.5q-41 -36 -77.5 -52.5t-75.5 -16.5q-25 0 -46.5 9t-37 25.5t-24.5 38.5t-9 48q0 71 65 117q18 13 35.5 22.5t39.5 18.5t51 17t70 18v14q0 38 -12.5 53.5t-41.5 15.5t-61.5 -12.5t-88.5 -44.5l-43 75q58 40 116 61.5
t108 21.5q44 0 77 -14t48 -39q6 -11 10 -20.5t6.5 -23t3 -33t0.5 -49.5v-179q0 -27 8.5 -38.5t28.5 -11.5q9 0 24 3zM298 230q-77 -23 -109 -46t-32 -55q0 -19 11.5 -30.5t30.5 -11.5q23 0 46.5 12.5t52.5 40.5v90zM212 533l-34 56l189 113l44 -78z" />
    <glyph glyph-name="acircumflex" unicode="&#xe2;" horiz-adv-x="499" 
d="M490 9q-30 -12 -47 -16t-37 -4q-44 0 -67 16.5t-32 54.5q-41 -36 -77.5 -52.5t-75.5 -16.5q-25 0 -46.5 9t-37 25.5t-24.5 38.5t-9 48q0 71 65 117q18 13 35.5 22.5t39.5 18.5t51 17t70 18v14q0 38 -12.5 53.5t-41.5 15.5t-61.5 -12.5t-88.5 -44.5l-43 75q58 40 116 61.5
t108 21.5q44 0 77 -14t48 -39q6 -11 10 -20.5t6.5 -23t3 -33t0.5 -49.5v-179q0 -27 8.5 -38.5t28.5 -11.5q9 0 24 3zM298 230q-77 -23 -109 -46t-32 -55q0 -19 11.5 -30.5t30.5 -11.5q23 0 46.5 12.5t52.5 40.5v90zM394 528l-131 73l-130 -73l-38 58l168 115l170 -116z" />
    <glyph glyph-name="atilde" unicode="&#xe3;" horiz-adv-x="499" 
d="M490 9q-30 -12 -47 -16t-37 -4q-44 0 -67 16.5t-32 54.5q-41 -36 -77.5 -52.5t-75.5 -16.5q-25 0 -46.5 9t-37 25.5t-24.5 38.5t-9 48q0 71 65 117q18 13 35.5 22.5t39.5 18.5t51 17t70 18v14q0 38 -12.5 53.5t-41.5 15.5t-61.5 -12.5t-88.5 -44.5l-43 75q58 40 116 61.5
t108 21.5q44 0 77 -14t48 -39q6 -11 10 -20.5t6.5 -23t3 -33t0.5 -49.5v-179q0 -27 8.5 -38.5t28.5 -11.5q9 0 24 3zM298 230q-77 -23 -109 -46t-32 -55q0 -19 11.5 -30.5t30.5 -11.5q23 0 46.5 12.5t52.5 40.5v90zM443 631q-40 -41 -67.5 -57.5t-55.5 -16.5q-23 0 -48 13
l-22 11q-8 5 -22.5 8.5t-22.5 3.5q-14 0 -28.5 -8.5t-38.5 -30.5l-46 51q36 38 62 53.5t55 15.5q26 0 73 -23q14 -7 21.5 -9t16.5 -2q17 0 35 9t42 31z" />
    <glyph glyph-name="adieresis" unicode="&#xe4;" horiz-adv-x="499" 
d="M490 9q-30 -12 -47 -16t-37 -4q-44 0 -67 16.5t-32 54.5q-41 -36 -77.5 -52.5t-75.5 -16.5q-25 0 -46.5 9t-37 25.5t-24.5 38.5t-9 48q0 71 65 117q18 13 35.5 22.5t39.5 18.5t51 17t70 18v14q0 38 -12.5 53.5t-41.5 15.5t-61.5 -12.5t-88.5 -44.5l-43 75q58 40 116 61.5
t108 21.5q44 0 77 -14t48 -39q6 -11 10 -20.5t6.5 -23t3 -33t0.5 -49.5v-179q0 -27 8.5 -38.5t28.5 -11.5q9 0 24 3zM298 230q-77 -23 -109 -46t-32 -55q0 -19 11.5 -30.5t30.5 -11.5q23 0 46.5 12.5t52.5 40.5v90zM369 674q26 0 43 -17.5t17 -43.5t-17 -43t-43 -17
t-43.5 17t-17.5 43t17.5 43.5t43.5 17.5zM158 674q26 0 43.5 -17t17.5 -43t-17.5 -43.5t-43.5 -17.5t-43 17t-17 43t17 43.5t43 17.5z" />
    <glyph glyph-name="aring" unicode="&#xe5;" horiz-adv-x="499" 
d="M490 9q-30 -12 -47 -16t-37 -4q-44 0 -67 16.5t-32 54.5q-41 -36 -77.5 -52.5t-75.5 -16.5q-25 0 -46.5 9t-37 25.5t-24.5 38.5t-9 48q0 71 65 117q18 13 35.5 22.5t39.5 18.5t51 17t70 18v14q0 38 -12.5 53.5t-41.5 15.5t-61.5 -12.5t-88.5 -44.5l-43 75q58 40 116 61.5
t108 21.5q44 0 77 -14t48 -39q6 -11 10 -20.5t6.5 -23t3 -33t0.5 -49.5v-179q0 -27 8.5 -38.5t28.5 -11.5q9 0 24 3zM298 230q-77 -23 -109 -46t-32 -55q0 -19 11.5 -30.5t30.5 -11.5q23 0 46.5 12.5t52.5 40.5v90zM270 705q38 0 64 -25.5t26 -63.5q0 -19 -7 -35t-19 -28
t-28.5 -19t-35.5 -7q-38 0 -63.5 25.5t-25.5 63.5t25.5 63.5t63.5 25.5zM270 658q-17 0 -29.5 -12.5t-12.5 -29.5t12.5 -29.5t29.5 -12.5q18 0 30 12.5t12 29.5t-12.5 29.5t-29.5 12.5z" />
    <glyph glyph-name="ae" unicode="&#xe6;" horiz-adv-x="754" 
d="M723 72q-57 -44 -108.5 -63.5t-110.5 -19.5q-29 0 -52 5t-43 15.5t-37.5 28t-35.5 43.5q-28 -25 -51.5 -42.5t-45 -28t-42.5 -15.5t-43 -5q-26 0 -47 9t-37 25t-24.5 38t-8.5 48q0 78 87 131q34 20 73.5 32.5t99.5 20.5l1 8v7q0 41 -13 59t-43 18q-29 0 -62.5 -13
t-84.5 -43l-44 74q66 45 121 65.5t110 20.5q38 0 63 -13.5t43 -45.5q32 32 65.5 46t75.5 14t77 -16t60 -44.5t38.5 -69t13.5 -89.5v-54h-296q4 -38 10.5 -58.5t21.5 -38.5q14 -17 33.5 -26t40.5 -9q17 0 38 4t40 11q8 3 14 5t12.5 6t15 10t22.5 15l8 6zM601 300
q-4 59 -22.5 84.5t-56.5 25.5q-42 0 -67 -29.5t-31 -85.5zM300 220q-78 -18 -110 -39.5t-32 -54.5q0 -20 11.5 -31t31.5 -11q23 0 48 13.5t60 45.5q-5 23 -7 38.5t-2 35.5v3z" />
    <glyph glyph-name="ccedilla" unicode="&#xe7;" horiz-adv-x="480" 
d="M226 -8q-43 6 -77.5 25.5t-59 51t-37.5 73t-13 91.5q0 58 18 105.5t51 81t80 51.5t104 18q22 0 39 -1.5t33.5 -6t35 -11.5t43.5 -19l-35 -84q-19 7 -33 12t-25.5 8t-22 4t-22.5 1q-63 0 -99 -40.5t-36 -110.5q0 -67 32.5 -107t86.5 -40q14 0 27 2t28 7.5t32.5 14
t40.5 22.5l48 -73q-45 -35 -87 -53t-90 -23l-7 -34q29 0 47 -15t18 -41q0 -79 -145 -81l7 48q70 3 70 27q0 19 -38 19h-9.5t-17.5 -1z" />
    <glyph glyph-name="egrave" unicode="&#xe8;" horiz-adv-x="522" 
d="M491 74q-114 -86 -233 -86q-49 0 -89.5 17.5t-69 49t-44.5 76t-16 98.5q0 57 18 105t50.5 82.5t77.5 54t98 19.5q98 0 150 -62.5t52 -180.5v-25h-313q4 -41 11.5 -63t21.5 -38q28 -34 81 -34q18 0 35 3t35.5 9.5t39.5 17.5t47 27zM361 302q-5 57 -24.5 82t-59.5 25
q-80 0 -103 -111zM361 531l-199 93l45 78l189 -113z" />
    <glyph glyph-name="eacute" unicode="&#xe9;" horiz-adv-x="522" 
d="M491 74q-114 -86 -233 -86q-49 0 -89.5 17.5t-69 49t-44.5 76t-16 98.5q0 57 18 105t50.5 82.5t77.5 54t98 19.5q98 0 150 -62.5t52 -180.5v-25h-313q4 -41 11.5 -63t21.5 -38q28 -34 81 -34q18 0 35 3t35.5 9.5t39.5 17.5t47 27zM361 302q-5 57 -24.5 82t-59.5 25
q-80 0 -103 -111zM235 533l-35 56l189 113l44 -78z" />
    <glyph glyph-name="ecircumflex" unicode="&#xea;" horiz-adv-x="522" 
d="M491 74q-114 -86 -233 -86q-49 0 -89.5 17.5t-69 49t-44.5 76t-16 98.5q0 57 18 105t50.5 82.5t77.5 54t98 19.5q98 0 150 -62.5t52 -180.5v-25h-313q4 -41 11.5 -63t21.5 -38q28 -34 81 -34q18 0 35 3t35.5 9.5t39.5 17.5t47 27zM361 302q-5 57 -24.5 82t-59.5 25
q-80 0 -103 -111zM420 528l-132 73l-130 -73l-38 58l168 115l170 -116z" />
    <glyph glyph-name="edieresis" unicode="&#xeb;" horiz-adv-x="522" 
d="M491 74q-114 -86 -233 -86q-49 0 -89.5 17.5t-69 49t-44.5 76t-16 98.5q0 57 18 105t50.5 82.5t77.5 54t98 19.5q98 0 150 -62.5t52 -180.5v-25h-313q4 -41 11.5 -63t21.5 -38q28 -34 81 -34q18 0 35 3t35.5 9.5t39.5 17.5t47 27zM361 302q-5 57 -24.5 82t-59.5 25
q-80 0 -103 -111zM381 674q26 0 43 -17.5t17 -43.5t-17 -43t-43 -17t-43.5 17t-17.5 43t17.5 43.5t43.5 17.5zM170 674q26 0 43.5 -17t17.5 -43t-17.5 -43.5t-43.5 -17.5t-43 17t-17 43t17 43.5t43 17.5z" />
    <glyph glyph-name="igrave" unicode="&#xec;" horiz-adv-x="257" 
d="M66 0v475h123v-475h-123zM210 531l-199 93l45 78l189 -113z" />
    <glyph glyph-name="iacute" unicode="&#xed;" horiz-adv-x="257" 
d="M66 0v475h123v-475h-123zM87 533l-34 56l189 113l44 -78z" />
    <glyph glyph-name="icircumflex" unicode="&#xee;" horiz-adv-x="257" 
d="M66 0v475h123v-475h-123zM259 528l-132 73l-130 -73l-38 58l168 115l170 -116z" />
    <glyph glyph-name="idieresis" unicode="&#xef;" horiz-adv-x="257" 
d="M67 0v475h123v-475h-123zM213 674q26 0 43 -17.5t17 -43.5t-17 -43t-43 -17t-43.5 17t-17.5 43t17.5 43.5t43.5 17.5zM48 673q26 0 43 -17t17 -43t-17 -43t-43 -17t-43 17t-17 43t17 43t43 17z" />
    <glyph glyph-name="eth" unicode="&#xf0;" horiz-adv-x="562" 
d="M438 574q36 -43 55 -102t19 -128q0 -83 -17 -148.5t-49 -111t-78 -70t-103 -24.5q-51 0 -93 18t-71.5 51t-45.5 79.5t-16 103.5q0 56 16 102t46 78.5t72 50t93 17.5q50 0 105 -20q-15 40 -45 71l-117 -36l-25 73l62 19q-28 13 -65 21.5t-88 16.5l16 85q51 -6 90 -12.5
t70 -16t57 -22.5t52 -30l99 33l31 -77zM386 347q-60 42 -117 42q-50 0 -78 -39t-28 -107q0 -69 26.5 -107.5t74.5 -38.5q58 0 90 63t32 178v9z" />
    <glyph glyph-name="ntilde" unicode="&#xf1;" horiz-adv-x="562" 
d="M375 0v262q0 34 -2.5 56.5t-9 35.5t-18 18t-28.5 5q-55 0 -127 -75v-302h-123v475h119v-72q49 46 91 66.5t87 20.5q38 0 67.5 -15t45.5 -43q6 -11 10.5 -22.5t6.5 -26t3 -34t1 -46.5v-303h-123zM458 631q-39 -41 -66.5 -57.5t-56.5 -16.5q-22 0 -48 13l-22 11
q-8 5 -22 8.5t-22 3.5q-14 0 -28.5 -8.5t-38.5 -30.5l-47 51q37 38 62.5 53.5t54.5 15.5q27 0 74 -23q14 -7 21.5 -9t16.5 -2q17 0 34.5 9t41.5 31z" />
    <glyph glyph-name="ograve" unicode="&#xf2;" horiz-adv-x="558" 
d="M285 491q51 0 93.5 -18.5t74 -51.5t49 -78t17.5 -98q0 -56 -18 -103t-50.5 -81t-77.5 -53t-98 -19q-51 0 -94.5 18.5t-75 51t-49 77.5t-17.5 98q0 55 18.5 102.5t51.5 81.5t78 53.5t98 19.5zM277 392q-49 0 -78.5 -40t-29.5 -106q0 -71 31 -113.5t82 -42.5q48 0 77 39.5
t29 105.5q0 72 -30 114.5t-81 42.5zM365 531l-199 93l44 78l189 -113z" />
    <glyph glyph-name="oacute" unicode="&#xf3;" horiz-adv-x="558" 
d="M285 491q51 0 93.5 -18.5t74 -51.5t49 -78t17.5 -98q0 -56 -18 -103t-50.5 -81t-77.5 -53t-98 -19q-51 0 -94.5 18.5t-75 51t-49 77.5t-17.5 98q0 55 18.5 102.5t51.5 81.5t78 53.5t98 19.5zM277 392q-49 0 -78.5 -40t-29.5 -106q0 -71 31 -113.5t82 -42.5q48 0 77 39.5
t29 105.5q0 72 -30 114.5t-81 42.5zM236 533l-34 56l189 113l44 -78z" />
    <glyph glyph-name="ocircumflex" unicode="&#xf4;" horiz-adv-x="558" 
d="M285 491q51 0 93.5 -18.5t74 -51.5t49 -78t17.5 -98q0 -56 -18 -103t-50.5 -81t-77.5 -53t-98 -19q-51 0 -94.5 18.5t-75 51t-49 77.5t-17.5 98q0 55 18.5 102.5t51.5 81.5t78 53.5t98 19.5zM277 392q-49 0 -78.5 -40t-29.5 -106q0 -71 31 -113.5t82 -42.5q48 0 77 39.5
t29 105.5q0 72 -30 114.5t-81 42.5zM420 528l-132 73l-130 -73l-38 58l168 115l170 -116z" />
    <glyph glyph-name="otilde" unicode="&#xf5;" horiz-adv-x="558" 
d="M285 491q51 0 93.5 -18.5t74 -51.5t49 -78t17.5 -98q0 -56 -18 -103t-50.5 -81t-77.5 -53t-98 -19q-51 0 -94.5 18.5t-75 51t-49 77.5t-17.5 98q0 55 18.5 102.5t51.5 81.5t78 53.5t98 19.5zM277 392q-49 0 -78.5 -40t-29.5 -106q0 -71 31 -113.5t82 -42.5q48 0 77 39.5
t29 105.5q0 72 -30 114.5t-81 42.5zM465 631q-39 -41 -66.5 -57.5t-56.5 -16.5q-23 0 -48 13l-22 11q-8 5 -22 8.5t-22 3.5q-14 0 -29 -8.5t-38 -30.5l-47 51q36 38 62 53.5t55 15.5q26 0 73 -23q14 -7 21.5 -9t17.5 -2q17 0 34.5 9t41.5 31z" />
    <glyph glyph-name="odieresis" unicode="&#xf6;" horiz-adv-x="558" 
d="M285 491q51 0 93.5 -18.5t74 -51.5t49 -78t17.5 -98q0 -56 -18 -103t-50.5 -81t-77.5 -53t-98 -19q-51 0 -94.5 18.5t-75 51t-49 77.5t-17.5 98q0 55 18.5 102.5t51.5 81.5t78 53.5t98 19.5zM277 392q-49 0 -78.5 -40t-29.5 -106q0 -71 31 -113.5t82 -42.5q48 0 77 39.5
t29 105.5q0 72 -30 114.5t-81 42.5zM384 674q26 0 43 -17.5t17 -43.5t-17 -43t-43 -17t-43.5 17t-17.5 43t17.5 43.5t43.5 17.5zM173 674q26 0 43.5 -17t17.5 -43t-17.5 -43.5t-43.5 -17.5t-43 17t-17 43t17 43.5t43 17.5z" />
    <glyph glyph-name="divide" unicode="&#xf7;" 
d="M368 459q0 -33 -23.5 -56.5t-56.5 -23.5t-56.5 23.5t-23.5 56.5t23.5 56.5t56.5 23.5t56.5 -23.5t23.5 -56.5zM36 219v98h504v-98h-504zM368 75q0 -33 -23.5 -56.5t-56.5 -23.5t-56.5 23.5t-23.5 56.5q0 32 23.5 55.5t56.5 23.5t56.5 -23t23.5 -56z" />
    <glyph glyph-name="oslash" unicode="&#xf8;" horiz-adv-x="568" 
d="M479 395q24 -36 34.5 -71t10.5 -80q0 -55 -18.5 -101.5t-50.5 -80.5t-76 -53.5t-96 -19.5q-43 0 -78 11.5t-73 37.5l-48 -48l-45 43l49 51q-23 34 -33 69.5t-10 81.5q0 55 18.5 102t51.5 81t78 53.5t98 19.5q40 0 71.5 -11t73.5 -40l48 50l44 -43zM355 358q-19 18 -36 26
t-38 8q-48 0 -77.5 -41t-29.5 -107q0 -18 2 -30t9 -33zM214 122q20 -18 35 -25t37 -7q50 0 78.5 39.5t28.5 108.5q0 22 -2 33.5t-7 28.5z" />
    <glyph glyph-name="ugrave" unicode="&#xf9;" horiz-adv-x="562" 
d="M373 0v74q-82 -83 -169 -83q-41 0 -72.5 16t-46.5 43q-6 12 -10.5 24t-6.5 27.5t-3 36t-1 50.5v287h124v-293q0 -77 58 -77q59 0 127 75v295h123v-475h-123zM362 531l-199 93l45 78l189 -113z" />
    <glyph glyph-name="uacute" unicode="&#xfa;" horiz-adv-x="562" 
d="M373 0v74q-82 -83 -169 -83q-41 0 -72.5 16t-46.5 43q-6 12 -10.5 24t-6.5 27.5t-3 36t-1 50.5v287h124v-293q0 -77 58 -77q59 0 127 75v295h123v-475h-123zM255 533l-34 56l189 113l44 -78z" />
    <glyph glyph-name="ucircumflex" unicode="&#xfb;" horiz-adv-x="562" 
d="M373 0v74q-82 -83 -169 -83q-41 0 -72.5 16t-46.5 43q-6 12 -10.5 24t-6.5 27.5t-3 36t-1 50.5v287h124v-293q0 -77 58 -77q59 0 127 75v295h123v-475h-123zM425 528l-132 73l-130 -73l-38 58l168 115l170 -116z" />
    <glyph glyph-name="udieresis" unicode="&#xfc;" horiz-adv-x="562" 
d="M373 0v74q-82 -83 -169 -83q-41 0 -72.5 16t-46.5 43q-6 12 -10.5 24t-6.5 27.5t-3 36t-1 50.5v287h124v-293q0 -77 58 -77q59 0 127 75v295h123v-475h-123zM396 674q26 0 43 -17.5t17 -43.5t-17 -43t-43 -17t-43.5 17t-17.5 43t17.5 43.5t43.5 17.5zM185 674
q26 0 43.5 -17t17.5 -43t-17.5 -43.5t-43.5 -17.5t-43 17t-17 43t17 43.5t43 17.5z" />
    <glyph glyph-name="yacute" unicode="&#xfd;" horiz-adv-x="522" 
d="M295 -75q-20 -49 -38.5 -81.5t-41 -51.5t-51 -26.5t-66.5 -7.5q-21 0 -39 3t-48 11l21 89q16 -3 27 -4t22 -1q34 0 55 18t42 67l20 45l-191 489h136l124 -344l127 344h121zM246 533l-34 56l189 113l44 -78z" />
    <glyph glyph-name="thorn" unicode="&#xfe;" horiz-adv-x="581" 
d="M183 403l6.5 6.5t10.5 9.5l4 4q70 67 151 67q41 0 75 -17t58.5 -48t38 -74t13.5 -95q0 -59 -15.5 -108t-43.5 -84.5t-67 -55t-85 -19.5q-44 0 -76.5 17t-62.5 55v-291h-123v945h116v-312zM190 161q28 -37 54.5 -53.5t58.5 -16.5q24 0 44 11t34.5 30.5t22.5 46.5t8 60
q0 63 -29 102t-75 39q-64 0 -118 -70v-149z" />
    <glyph glyph-name="ydieresis" unicode="&#xff;" horiz-adv-x="522" 
d="M295 -75q-20 -49 -38.5 -81.5t-41 -51.5t-51 -26.5t-66.5 -7.5q-21 0 -39 3t-48 11l21 89q16 -3 27 -4t22 -1q34 0 55 18t42 67l20 45l-191 489h136l124 -344l127 344h121zM377 674q26 0 43 -17.5t17 -43.5t-17 -43t-43 -17t-43.5 17t-17.5 43t17.5 43.5t43.5 17.5z
M166 674q26 0 43.5 -17t17.5 -43t-17.5 -43.5t-43.5 -17.5t-43 17t-17 43t17 43.5t43 17.5z" />
    <glyph glyph-name="Amacron" unicode="&#x100;" horiz-adv-x="706" 
d="M557 0l-77 196h-266l-76 -196h-133l276 667h141l279 -667h-144zM346 538l-95 -247h192zM196 738v84h314v-84h-314z" />
    <glyph glyph-name="amacron" unicode="&#x101;" horiz-adv-x="499" 
d="M490 9q-30 -12 -47 -16t-37 -4q-44 0 -67 16.5t-32 54.5q-41 -36 -77.5 -52.5t-75.5 -16.5q-25 0 -46.5 9t-37 25.5t-24.5 38.5t-9 48q0 71 65 117q18 13 35.5 22.5t39.5 18.5t51 17t70 18v14q0 38 -12.5 53.5t-41.5 15.5t-61.5 -12.5t-88.5 -44.5l-43 75q58 40 116 61.5
t108 21.5q44 0 77 -14t48 -39q6 -11 10 -20.5t6.5 -23t3 -33t0.5 -49.5v-179q0 -27 8.5 -38.5t28.5 -11.5q9 0 24 3zM298 230q-77 -23 -109 -46t-32 -55q0 -19 11.5 -30.5t30.5 -11.5q23 0 46.5 12.5t52.5 40.5v90zM113 567v79h301v-79h-301z" />
    <glyph glyph-name="Abreve" unicode="&#x102;" horiz-adv-x="706" 
d="M557 0l-77 196h-266l-76 -196h-133l276 667h141l279 -667h-144zM346 538l-95 -247h192zM265 870q8 -32 29 -45.5t59 -13.5t59 13.5t29 45.5h70q-5 -62 -46 -95.5t-112 -33.5t-112 33.5t-46 95.5h70z" />
    <glyph glyph-name="abreve" unicode="&#x103;" horiz-adv-x="499" 
d="M490 9q-30 -12 -47 -16t-37 -4q-44 0 -67 16.5t-32 54.5q-41 -36 -77.5 -52.5t-75.5 -16.5q-25 0 -46.5 9t-37 25.5t-24.5 38.5t-9 48q0 71 65 117q18 13 35.5 22.5t39.5 18.5t51 17t70 18v14q0 38 -12.5 53.5t-41.5 15.5t-61.5 -12.5t-88.5 -44.5l-43 75q58 40 116 61.5
t108 21.5q44 0 77 -14t48 -39q6 -11 10 -20.5t6.5 -23t3 -33t0.5 -49.5v-179q0 -27 8.5 -38.5t28.5 -11.5q9 0 24 3zM298 230q-77 -23 -109 -46t-32 -55q0 -19 11.5 -30.5t30.5 -11.5q23 0 46.5 12.5t52.5 40.5v90zM415 680q-5 -62 -41 -95.5t-97 -33.5q-30 0 -55.5 9.5
t-44.5 26t-29.5 39t-10.5 48.5v6h69q5 -31 21.5 -44.5t49.5 -13.5t49.5 13.5t20.5 44.5h68z" />
    <glyph glyph-name="Aogonek" unicode="&#x104;" horiz-adv-x="706" 
d="M557 0l-77 196h-266l-76 -196h-133l276 667h141l279 -667h-29q-54 -41 -54 -69q0 -11 7.5 -17.5t20.5 -6.5q17 0 46 14l27 -44q-32 -17 -52.5 -24t-40.5 -7q-35 0 -57 19t-22 51q0 24 10.5 42t39.5 42h-40zM346 538l-95 -247h192z" />
    <glyph glyph-name="aogonek" unicode="&#x105;" horiz-adv-x="499" 
d="M500 -123q-32 -17 -52.5 -24t-40.5 -7q-35 0 -57 19t-22 51q0 23 8.5 38.5t33.5 38.5q-28 7 -42.5 22.5t-20.5 44.5q-41 -36 -77.5 -52.5t-75.5 -16.5q-25 0 -46.5 9t-37 25.5t-24.5 38.5t-9 48q0 71 65 117q18 13 35.5 22.5t39.5 18.5t51 17t70 18v14q0 38 -12.5 53.5
t-41.5 15.5t-61.5 -12.5t-88.5 -44.5l-43 75q58 40 116 61.5t108 21.5q44 0 77 -14t48 -39q6 -11 10 -20.5t6.5 -23t3 -33t0.5 -49.5v-179q0 -27 8.5 -38.5t28.5 -11.5q9 0 24 3l9 -75q-20 -8 -29.5 -11t-16.5 -5q-45 -38 -45 -62q0 -11 7.5 -17.5t20.5 -6.5q17 0 46 14z
M298 230q-77 -23 -109 -46t-32 -55q0 -19 11.5 -30.5t30.5 -11.5q23 0 46.5 12.5t52.5 40.5v90z" />
    <glyph glyph-name="Cacute" unicode="&#x106;" horiz-adv-x="661" 
d="M647 55q-32 -19 -61.5 -32t-59 -21.5t-60.5 -12t-66 -3.5q-79 0 -144.5 25t-113 70t-73.5 108t-26 138q0 77 29 142t81 112.5t123.5 74t156.5 26.5q25 0 47 -2t45 -6.5t48.5 -11.5t57.5 -18l-33 -97q-23 7 -43 12t-38 8t-36 4.5t-37 1.5q-59 0 -107 -17t-82.5 -48.5
t-53 -76t-18.5 -98.5q0 -52 17 -95t47.5 -74t73 -48t93.5 -17q25 0 47 2.5t43.5 8.5t45 15.5t50.5 23.5zM333 722l-28 65l213 104l40 -89v-1z" />
    <glyph glyph-name="cacute" unicode="&#x107;" horiz-adv-x="480" 
d="M465 67q-54 -42 -101.5 -59.5t-102.5 -17.5q-50 0 -91 17.5t-70 49t-45 76.5t-16 100q0 58 18 105.5t51 81t80 51.5t104 18q22 0 39 -1.5t33.5 -6t35 -11.5t43.5 -19l-35 -84q-19 7 -33 12t-25.5 8t-22 4t-22.5 1q-63 0 -99 -40.5t-36 -110.5q0 -67 32.5 -107t86.5 -40
q14 0 27.5 2t28 7.5t32 14t40.5 22.5zM215 533l-35 56l189 113l44 -78z" />
    <glyph glyph-name="Ccircumflex" unicode="&#x108;" horiz-adv-x="661" 
d="M647 55q-32 -19 -61.5 -32t-59 -21.5t-60.5 -12t-66 -3.5q-79 0 -144.5 25t-113 70t-73.5 108t-26 138q0 77 29 142t81 112.5t123.5 74t156.5 26.5q25 0 47 -2t45 -6.5t48.5 -11.5t57.5 -18l-33 -97q-23 7 -43 12t-38 8t-36 4.5t-37 1.5q-59 0 -107 -17t-82.5 -48.5
t-53 -76t-18.5 -98.5q0 -52 17 -95t47.5 -74t73 -48t93.5 -17q25 0 47 2.5t43.5 8.5t45 15.5t50.5 23.5zM567 724l-146 66l-151 -66l-36 64l187 104l182 -104z" />
    <glyph glyph-name="ccircumflex" unicode="&#x109;" horiz-adv-x="480" 
d="M465 67q-54 -42 -101.5 -59.5t-102.5 -17.5q-50 0 -91 17.5t-70 49t-45 76.5t-16 100q0 58 18 105.5t51 81t80 51.5t104 18q22 0 39 -1.5t33.5 -6t35 -11.5t43.5 -19l-35 -84q-19 7 -33 12t-25.5 8t-22 4t-22.5 1q-63 0 -99 -40.5t-36 -110.5q0 -67 32.5 -107t86.5 -40
q14 0 27.5 2t28 7.5t32 14t40.5 22.5zM423 528l-132 73l-130 -73l-38 58l168 115l170 -116z" />
    <glyph glyph-name="Cdotaccent" unicode="&#x10a;" horiz-adv-x="661" 
d="M647 55q-32 -19 -61.5 -32t-59 -21.5t-60.5 -12t-66 -3.5q-79 0 -144.5 25t-113 70t-73.5 108t-26 138q0 77 29 142t81 112.5t123.5 74t156.5 26.5q25 0 47 -2t45 -6.5t48.5 -11.5t57.5 -18l-33 -97q-23 7 -43 12t-38 8t-36 4.5t-37 1.5q-59 0 -107 -17t-82.5 -48.5
t-53 -76t-18.5 -98.5q0 -52 17 -95t47.5 -74t73 -48t93.5 -17q25 0 47 2.5t43.5 8.5t45 15.5t50.5 23.5zM422 870q26 0 44.5 -19t18.5 -45q0 -27 -18.5 -45.5t-45.5 -18.5q-26 0 -45 19t-19 45q0 27 19 45.5t46 18.5z" />
    <glyph glyph-name="cdotaccent" unicode="&#x10b;" horiz-adv-x="480" 
d="M465 67q-54 -42 -101.5 -59.5t-102.5 -17.5q-50 0 -91 17.5t-70 49t-45 76.5t-16 100q0 58 18 105.5t51 81t80 51.5t104 18q22 0 39 -1.5t33.5 -6t35 -11.5t43.5 -19l-35 -84q-19 7 -33 12t-25.5 8t-22 4t-22.5 1q-63 0 -99 -40.5t-36 -110.5q0 -67 32.5 -107t86.5 -40
q14 0 27.5 2t28 7.5t32 14t40.5 22.5zM292 667q26 0 43.5 -17.5t17.5 -42.5q0 -26 -17.5 -43.5t-43.5 -17.5t-43 17t-17 43t17.5 43.5t42.5 17.5z" />
    <glyph glyph-name="Ccaron" unicode="&#x10c;" horiz-adv-x="661" 
d="M647 55q-32 -19 -61.5 -32t-59 -21.5t-60.5 -12t-66 -3.5q-79 0 -144.5 25t-113 70t-73.5 108t-26 138q0 77 29 142t81 112.5t123.5 74t156.5 26.5q25 0 47 -2t45 -6.5t48.5 -11.5t57.5 -18l-33 -97q-23 7 -43 12t-38 8t-36 4.5t-37 1.5q-59 0 -107 -17t-82.5 -48.5
t-53 -76t-18.5 -98.5q0 -52 17 -95t47.5 -74t73 -48t93.5 -17q25 0 47 2.5t43.5 8.5t45 15.5t50.5 23.5zM416 728l-181 106l32 60l149 -69l152 69l33 -60z" />
    <glyph glyph-name="ccaron" unicode="&#x10d;" horiz-adv-x="480" 
d="M465 67q-54 -42 -101.5 -59.5t-102.5 -17.5q-50 0 -91 17.5t-70 49t-45 76.5t-16 100q0 58 18 105.5t51 81t80 51.5t104 18q22 0 39 -1.5t33.5 -6t35 -11.5t43.5 -19l-35 -84q-19 7 -33 12t-25.5 8t-22 4t-22.5 1q-63 0 -99 -40.5t-36 -110.5q0 -67 32.5 -107t86.5 -40
q14 0 27.5 2t28 7.5t32 14t40.5 22.5zM284 533l-170 116l39 57l131 -72l130 72l38 -57z" />
    <glyph glyph-name="Dcaron" unicode="&#x10e;" horiz-adv-x="734" 
d="M270 667q39 0 66 -0.5t47.5 -2.5t37.5 -5t37 -8q75 -20 123.5 -57t74.5 -97q17 -35 26.5 -78t9.5 -78t-11 -80t-28 -80q-61 -123 -219 -165q-22 -6 -38 -9t-35.5 -4.5t-48 -2t-74.5 -0.5h-164v667h196zM275 106q129 0 202 61t73 170q0 60 -22.5 109.5t-64.5 76.5
q-17 12 -34 20t-37.5 12.5t-46.5 6.5t-61 2h-76v-458h67zM315 728l-180 106l31 60l149 -69l153 69l32 -60z" />
    <glyph glyph-name="dcaron" unicode="&#x10f;" horiz-adv-x="630" 
d="M397 0v77q-43 -47 -84 -67.5t-92 -20.5q-41 0 -74.5 17t-57.5 47.5t-37 74t-13 96.5q0 58 15.5 107t43.5 84.5t66.5 55t85.5 19.5q21 0 38.5 -3.5t34 -12t33 -22.5t36.5 -35v298h124v-715h-119zM392 306q-29 42 -57 61t-63 19q-47 0 -75.5 -40t-28.5 -105t28.5 -104.5
t75.5 -39.5q34 0 62.5 16.5t57.5 54.5v138zM622 538h-66v177h101z" />
    <glyph glyph-name="Dcroat" unicode="&#x110;" horiz-adv-x="732" 
d="M268 667q61 0 107.5 -4t82.5 -12.5t64.5 -22t53.5 -33.5q54 -45 84 -110.5t30 -143.5q0 -61 -19 -115t-54.5 -97t-85 -72.5t-109.5 -42.5q-21 -5 -39 -7.5t-38.5 -4t-46 -2t-62.5 -0.5h-164v298h-101v96h101v273h196zM273 106q132 0 203.5 61t71.5 173q0 69 -31.5 123
t-86.5 78q-27 13 -60.5 18t-87.5 5h-76v-170h156v-96h-156v-192h67z" />
    <glyph glyph-name="dcroat" unicode="&#x111;" horiz-adv-x="583" 
d="M516 0h-119v77q-43 -47 -84 -67.5t-92 -20.5q-41 0 -74.5 17t-57.5 47.5t-37 74t-13 96.5q0 59 15.5 108t43.5 84t66.5 54.5t85.5 19.5q21 0 38.5 -3.5t34 -12t33 -22.5t36.5 -35v150h-151v79h151v69h124v-69h26v-79h-26v-567zM392 306q-29 42 -57 61t-63 19
q-47 0 -75.5 -40t-28.5 -105t28.5 -104.5t75.5 -39.5q34 0 62.5 16.5t57.5 54.5v138z" />
    <glyph glyph-name="Emacron" unicode="&#x112;" horiz-adv-x="559" 
d="M74 0v667h421v-102h-286v-170h270v-99h-270v-188h305v-108h-440zM137 738v84h314v-84h-314z" />
    <glyph glyph-name="emacron" unicode="&#x113;" horiz-adv-x="522" 
d="M491 74q-114 -86 -233 -86q-49 0 -89.5 17.5t-69 49t-44.5 76t-16 98.5q0 57 18 105t50.5 82.5t77.5 54t98 19.5q98 0 150 -62.5t52 -180.5v-25h-313q4 -41 11.5 -63t21.5 -38q28 -34 81 -34q18 0 35 3t35.5 9.5t39.5 17.5t47 27zM361 302q-5 57 -24.5 82t-59.5 25
q-80 0 -103 -111zM129 567v79h300v-79h-300z" />
    <glyph glyph-name="Ebreve" unicode="&#x114;" horiz-adv-x="559" 
d="M74 0v667h421v-102h-286v-170h270v-99h-270v-188h305v-108h-440zM191 870q8 -32 29 -45.5t59 -13.5t59 13.5t29 45.5h70q-5 -62 -46 -95.5t-112 -33.5t-112 33.5t-46 95.5h70z" />
    <glyph glyph-name="ebreve" unicode="&#x115;" horiz-adv-x="522" 
d="M491 74q-114 -86 -233 -86q-49 0 -89.5 17.5t-69 49t-44.5 76t-16 98.5q0 57 18 105t50.5 82.5t77.5 54t98 19.5q98 0 150 -62.5t52 -180.5v-25h-313q4 -41 11.5 -63t21.5 -38q28 -34 81 -34q18 0 35 3t35.5 9.5t39.5 17.5t47 27zM361 302q-5 57 -24.5 82t-59.5 25
q-80 0 -103 -111zM413 680q-5 -62 -41 -95.5t-97 -33.5q-30 0 -55.5 9.5t-44.5 26t-29.5 39t-10.5 48.5v6h69q5 -31 21.5 -44.5t49.5 -13.5t49.5 13.5t20.5 44.5h68z" />
    <glyph glyph-name="Edotaccent" unicode="&#x116;" horiz-adv-x="559" 
d="M74 0v667h421v-102h-286v-170h270v-99h-270v-188h305v-108h-440zM295 870q26 0 44.5 -19t18.5 -45q0 -27 -18.5 -45.5t-45.5 -18.5q-26 0 -45 19t-19 45q0 27 19 45.5t46 18.5z" />
    <glyph glyph-name="edotaccent" unicode="&#x117;" horiz-adv-x="522" 
d="M491 74q-114 -86 -233 -86q-49 0 -89.5 17.5t-69 49t-44.5 76t-16 98.5q0 57 18 105t50.5 82.5t77.5 54t98 19.5q98 0 150 -62.5t52 -180.5v-25h-313q4 -41 11.5 -63t21.5 -38q28 -34 81 -34q18 0 35 3t35.5 9.5t39.5 17.5t47 27zM361 302q-5 57 -24.5 82t-59.5 25
q-80 0 -103 -111zM281 667q26 0 43.5 -17.5t17.5 -42.5q0 -26 -17.5 -43.5t-43.5 -17.5t-43 17t-17 43t17.5 43.5t42.5 17.5z" />
    <glyph glyph-name="Eogonek" unicode="&#x118;" horiz-adv-x="559" 
d="M74 0v667h421v-102h-286v-170h270v-99h-270v-188h305v-108h-47l-7 -6q-22 -16 -34.5 -33t-12.5 -30q0 -11 7.5 -17.5t20.5 -6.5q11 0 20.5 3t26.5 11l26 -44q-32 -17 -52 -24t-40 -7q-36 0 -58 19t-22 51q0 12 2.5 22t8 19.5t15.5 19.5t25 23h-319z" />
    <glyph glyph-name="eogonek" unicode="&#x119;" horiz-adv-x="522" 
d="M429 -123q-32 -17 -52.5 -24t-40.5 -7q-35 0 -57 19t-22 51q0 22 8 38t31 36q-10 -1 -18.5 -1.5t-17.5 -0.5q-50 0 -90.5 17.5t-69.5 49t-45 76t-16 98.5q0 57 18 105t50.5 82.5t77.5 54t98 19.5q98 0 150 -62.5t52 -180.5v-25h-313q4 -41 11.5 -63t21.5 -38
q28 -34 81 -34q18 0 35 3t35.5 9.5t39.5 17.5t47 27l48 -70q-9 -7 -18.5 -13.5t-20.5 -14.5q-20 -12 -37 -23q-87 -56 -87 -92q0 -11 7.5 -17.5t20.5 -6.5q17 0 46 14zM361 302q-5 57 -24.5 82t-59.5 25q-80 0 -103 -111z" />
    <glyph glyph-name="Ecaron" unicode="&#x11a;" horiz-adv-x="559" 
d="M74 0v667h421v-102h-286v-170h270v-99h-270v-188h305v-108h-440zM295 728l-180 106l32 60l148 -69l153 69l33 -60z" />
    <glyph glyph-name="ecaron" unicode="&#x11b;" horiz-adv-x="522" 
d="M491 74q-114 -86 -233 -86q-49 0 -89.5 17.5t-69 49t-44.5 76t-16 98.5q0 57 18 105t50.5 82.5t77.5 54t98 19.5q98 0 150 -62.5t52 -180.5v-25h-313q4 -41 11.5 -63t21.5 -38q28 -34 81 -34q18 0 35 3t35.5 9.5t39.5 17.5t47 27zM361 302q-5 57 -24.5 82t-59.5 25
q-80 0 -103 -111zM286 533l-171 116l39 57l132 -72l129 72l39 -57z" />
    <glyph glyph-name="Gcircumflex" unicode="&#x11c;" horiz-adv-x="699" 
d="M647 34q-37 -14 -65.5 -23.5t-54 -15t-51 -7.5t-56.5 -2q-85 0 -154.5 24.5t-119 69t-76.5 107t-27 139.5q0 78 29.5 143.5t83 112t128 72.5t164.5 26q25 0 46.5 -1.5t43.5 -6t47 -12t58 -18.5l-33 -97q-27 9 -46.5 14.5t-37 8.5t-33.5 4.5t-35 1.5q-63 0 -113.5 -17
t-86.5 -49t-55 -77.5t-19 -102.5q0 -54 17.5 -97.5t50 -74.5t77.5 -48t101 -17q12 0 20 0.5t17 2t20 4t28 7.5v215h132v-286zM587 724l-146 66l-151 -66l-36 64l187 104l182 -104z" />
    <glyph glyph-name="gcircumflex" unicode="&#x11d;" horiz-adv-x="546" 
d="M437 390q16 -23 22 -40t6 -43q0 -39 -15.5 -72t-42.5 -56.5t-64.5 -37t-82.5 -13.5q-14 0 -23 1t-25 5q-6 -9 -12 -17.5t-15 -21.5q13 -5 22.5 -7.5t17 -5t15 -4t16.5 -2.5q33 -5 63 -9t57 -8q53 -7 82.5 -15.5t51.5 -22.5q42 -28 42 -83q0 -39 -21 -71.5t-58.5 -56
t-89.5 -36.5t-114 -13q-59 0 -106 10t-80 28.5t-50.5 45t-17.5 59.5q0 85 110 114q-35 9 -50.5 17t-15.5 19q0 13 22 39q3 5 6.5 9t6.5 8l20 27l20 25q-38 31 -54 63t-16 75q0 42 16 76.5t44.5 59.5t68 39t87.5 14q22 0 38.5 -3t42.5 -11h161v-85h-85zM263 409
q-38 0 -59.5 -26t-21.5 -71q0 -47 23 -74.5t62 -27.5q38 0 60 26.5t22 71.5q0 46 -23.5 73.5t-62.5 27.5zM216 -12q-44 -14 -62.5 -30.5t-18.5 -42.5q0 -32 38 -51t104 -19t106.5 20.5t40.5 54.5q0 23 -23 34t-86 18q-16 1 -26.5 2.5t-20.5 3t-22 4t-30 6.5zM404 528
l-132 73l-130 -73l-38 58l168 115l170 -116z" />
    <glyph glyph-name="Gbreve" unicode="&#x11e;" horiz-adv-x="699" 
d="M647 34q-37 -14 -65.5 -23.5t-54 -15t-51 -7.5t-56.5 -2q-85 0 -154.5 24.5t-119 69t-76.5 107t-27 139.5q0 78 29.5 143.5t83 112t128 72.5t164.5 26q25 0 46.5 -1.5t43.5 -6t47 -12t58 -18.5l-33 -97q-27 9 -46.5 14.5t-37 8.5t-33.5 4.5t-35 1.5q-63 0 -113.5 -17
t-86.5 -49t-55 -77.5t-19 -102.5q0 -54 17.5 -97.5t50 -74.5t77.5 -48t101 -17q12 0 20 0.5t17 2t20 4t28 7.5v215h132v-286zM337 870q8 -32 29 -45.5t59 -13.5t59 13.5t29 45.5h70q-5 -62 -46 -95.5t-112 -33.5t-112 33.5t-46 95.5h70z" />
    <glyph glyph-name="gbreve" unicode="&#x11f;" horiz-adv-x="546" 
d="M437 390q16 -23 22 -40t6 -43q0 -39 -15.5 -72t-42.5 -56.5t-64.5 -37t-82.5 -13.5q-14 0 -23 1t-25 5q-6 -9 -12 -17.5t-15 -21.5q13 -5 22.5 -7.5t17 -5t15 -4t16.5 -2.5q33 -5 63 -9t57 -8q53 -7 82.5 -15.5t51.5 -22.5q42 -28 42 -83q0 -39 -21 -71.5t-58.5 -56
t-89.5 -36.5t-114 -13q-59 0 -106 10t-80 28.5t-50.5 45t-17.5 59.5q0 85 110 114q-35 9 -50.5 17t-15.5 19q0 13 22 39q3 5 6.5 9t6.5 8l20 27l20 25q-38 31 -54 63t-16 75q0 42 16 76.5t44.5 59.5t68 39t87.5 14q22 0 38.5 -3t42.5 -11h161v-85h-85zM263 409
q-38 0 -59.5 -26t-21.5 -71q0 -47 23 -74.5t62 -27.5q38 0 60 26.5t22 71.5q0 46 -23.5 73.5t-62.5 27.5zM216 -12q-44 -14 -62.5 -30.5t-18.5 -42.5q0 -32 38 -51t104 -19t106.5 20.5t40.5 54.5q0 23 -23 34t-86 18q-16 1 -26.5 2.5t-20.5 3t-22 4t-30 6.5zM412 680
q-5 -62 -40.5 -95.5t-97.5 -33.5q-30 0 -55.5 9.5t-44 26t-29.5 39t-11 48.5v6h69q5 -31 21.5 -44.5t49.5 -13.5t49.5 13.5t20.5 44.5h68z" />
    <glyph glyph-name="Gdotaccent" unicode="&#x120;" horiz-adv-x="699" 
d="M647 34q-37 -14 -65.5 -23.5t-54 -15t-51 -7.5t-56.5 -2q-85 0 -154.5 24.5t-119 69t-76.5 107t-27 139.5q0 78 29.5 143.5t83 112t128 72.5t164.5 26q25 0 46.5 -1.5t43.5 -6t47 -12t58 -18.5l-33 -97q-27 9 -46.5 14.5t-37 8.5t-33.5 4.5t-35 1.5q-63 0 -113.5 -17
t-86.5 -49t-55 -77.5t-19 -102.5q0 -54 17.5 -97.5t50 -74.5t77.5 -48t101 -17q12 0 20 0.5t17 2t20 4t28 7.5v215h132v-286zM433 870q26 0 44.5 -19t18.5 -45q0 -27 -18.5 -45.5t-45.5 -18.5q-26 0 -45 19t-19 45q0 27 19 45.5t46 18.5z" />
    <glyph glyph-name="gdotaccent" unicode="&#x121;" horiz-adv-x="546" 
d="M437 390q16 -23 22 -40t6 -43q0 -39 -15.5 -72t-42.5 -56.5t-64.5 -37t-82.5 -13.5q-14 0 -23 1t-25 5q-6 -9 -12 -17.5t-15 -21.5q13 -5 22.5 -7.5t17 -5t15 -4t16.5 -2.5q33 -5 63 -9t57 -8q53 -7 82.5 -15.5t51.5 -22.5q42 -28 42 -83q0 -39 -21 -71.5t-58.5 -56
t-89.5 -36.5t-114 -13q-59 0 -106 10t-80 28.5t-50.5 45t-17.5 59.5q0 85 110 114q-35 9 -50.5 17t-15.5 19q0 13 22 39q3 5 6.5 9t6.5 8l20 27l20 25q-38 31 -54 63t-16 75q0 42 16 76.5t44.5 59.5t68 39t87.5 14q22 0 38.5 -3t42.5 -11h161v-85h-85zM263 409
q-38 0 -59.5 -26t-21.5 -71q0 -47 23 -74.5t62 -27.5q38 0 60 26.5t22 71.5q0 46 -23.5 73.5t-62.5 27.5zM216 -12q-44 -14 -62.5 -30.5t-18.5 -42.5q0 -32 38 -51t104 -19t106.5 20.5t40.5 54.5q0 23 -23 34t-86 18q-16 1 -26.5 2.5t-20.5 3t-22 4t-30 6.5zM272 667
q26 0 43.5 -17.5t17.5 -42.5q0 -26 -17.5 -43.5t-43.5 -17.5t-43 17t-17 43t17.5 43.5t42.5 17.5z" />
    <glyph glyph-name="uni0122" unicode="&#x122;" horiz-adv-x="699" 
d="M647 34q-37 -14 -65.5 -23.5t-54 -15t-51 -7.5t-56.5 -2q-85 0 -154.5 24.5t-119 69t-76.5 107t-27 139.5q0 78 29.5 143.5t83 112t128 72.5t164.5 26q25 0 46.5 -1.5t43.5 -6t47 -12t58 -18.5l-33 -97q-27 9 -46.5 14.5t-37 8.5t-33.5 4.5t-35 1.5q-63 0 -113.5 -17
t-86.5 -49t-55 -77.5t-19 -102.5q0 -54 17.5 -97.5t50 -74.5t77.5 -48t101 -17q12 0 20 0.5t17 2t20 4t28 7.5v215h132v-286zM422 -242h-75v201h115z" />
    <glyph glyph-name="uni0123" unicode="&#x123;" horiz-adv-x="546" 
d="M437 390q16 -23 22 -40t6 -43q0 -39 -15.5 -72t-42.5 -56.5t-64.5 -37t-82.5 -13.5q-14 0 -23 1t-25 5q-6 -9 -12 -17.5t-15 -21.5q13 -5 22.5 -7.5t17 -5t15 -4t16.5 -2.5q33 -5 63 -9t57 -8q53 -7 82.5 -15.5t51.5 -22.5q42 -28 42 -83q0 -39 -21 -71.5t-58.5 -56
t-89.5 -36.5t-114 -13q-59 0 -106 10t-80 28.5t-50.5 45t-17.5 59.5q0 85 110 114q-35 9 -50.5 17t-15.5 19q0 13 22 39q3 5 6.5 9t6.5 8l20 27l20 25q-38 31 -54 63t-16 75q0 42 16 76.5t44.5 59.5t68 39t87.5 14q22 0 38.5 -3t42.5 -11h161v-85h-85zM263 409
q-38 0 -59.5 -26t-21.5 -71q0 -47 23 -74.5t62 -27.5q38 0 60 26.5t22 71.5q0 46 -23.5 73.5t-62.5 27.5zM216 -12q-44 -14 -62.5 -30.5t-18.5 -42.5q0 -32 38 -51t104 -19t106.5 20.5t40.5 54.5q0 23 -23 34t-86 18q-16 1 -26.5 2.5t-20.5 3t-22 4t-30 6.5zM263 717h66
v-177h-101z" />
    <glyph glyph-name="Hcircumflex" unicode="&#x124;" horiz-adv-x="719" 
d="M511 0v301h-303v-301h-134v667h134v-267h303v267h135v-667h-135zM508 724l-146 66l-151 -66l-36 64l187 104l182 -104z" />
    <glyph glyph-name="hcircumflex" unicode="&#x125;" horiz-adv-x="571" 
d="M383 0v298q0 42 -13.5 60t-43.5 18q-33 0 -65 -17.5t-70 -57.5v-301h-124v715h124v-309q51 45 92.5 64t86.5 19q35 0 64.5 -13t47.5 -37q14 -18 20 -43t6 -64v-332h-125zM260 768l-132 73l-130 -73l-38 58l168 115l170 -116z" />
    <glyph glyph-name="Hbar" unicode="&#x126;" horiz-adv-x="719" 
d="M511 0v301h-303v-301h-134v493h-101v82h101v92h134v-92h303v92h135v-92h101v-82h-101v-493h-135zM511 400v93h-303v-93h303z" />
    <glyph glyph-name="hbar" unicode="&#x127;" horiz-adv-x="571" 
d="M191 406q52 45 93 64t86 19q73 0 112 -50q14 -18 20 -43t6 -64v-332h-125v298q0 42 -13.5 60t-43.5 18q-33 0 -65 -17.5t-70 -57.5v-301h-124v567h-51v79h51v69h124v-69h126v-79h-126v-161z" />
    <glyph glyph-name="Itilde" unicode="&#x128;" horiz-adv-x="284" 
d="M74 0v667h136v-667h-136zM329 816q-38 -38 -67 -54t-56 -16q-8 0 -14.5 1t-15.5 3.5t-22.5 7t-34.5 12.5q-28 10 -45 10q-27 0 -71 -37l-48 55q35 36 62.5 52t55.5 16q26 0 74 -20q36 -15 58 -15q14 0 32 9.5t45 31.5z" />
    <glyph glyph-name="itilde" unicode="&#x129;" horiz-adv-x="257" 
d="M67 0v475h123v-475h-123zM304 631q-39 -41 -66.5 -57.5t-56.5 -16.5q-22 0 -48 13l-22 11q-8 5 -22 8.5t-22 3.5q-14 0 -29 -8.5t-38 -30.5l-47 51q37 38 62.5 53.5t54.5 15.5q27 0 74 -23q13 -7 21 -9t17 -2q17 0 34.5 9t41.5 31z" />
    <glyph glyph-name="Imacron" unicode="&#x12a;" horiz-adv-x="284" 
d="M74 0v667h136v-667h-136zM2 738v84h270v-84h-270z" />
    <glyph glyph-name="imacron" unicode="&#x12b;" horiz-adv-x="257" 
d="M67 0v475h123v-475h-123zM6 567v79h242v-79h-242z" />
    <glyph glyph-name="Ibreve" unicode="&#x12c;" horiz-adv-x="284" 
d="M74 0v667h136v-667h-136zM54 870q8 -32 29 -45.5t59 -13.5t59 13.5t29 45.5h70q-5 -62 -46 -95.5t-112 -33.5t-112 33.5t-46 95.5h70z" />
    <glyph glyph-name="ibreve" unicode="&#x12d;" horiz-adv-x="257" 
d="M67 0v475h123v-475h-123zM268 680q-5 -62 -40.5 -95.5t-97.5 -33.5q-30 0 -55.5 9.5t-44 26t-29.5 39t-11 48.5v6h69q5 -31 21.5 -44.5t49.5 -13.5t49.5 13.5t20.5 44.5h68z" />
    <glyph glyph-name="Iogonek" unicode="&#x12e;" horiz-adv-x="284" 
d="M74 0v667h136v-667h-29q-54 -41 -54 -69q0 -11 7.5 -17.5t20.5 -6.5q10 0 20 3t27 11l26 -44q-32 -17 -52 -24t-40 -7q-36 0 -58 19t-22 51q0 25 10.5 42t39.5 42h-32z" />
    <glyph glyph-name="iogonek" unicode="&#x12f;" horiz-adv-x="257" 
d="M67 0v475h123v-475h-19q-54 -41 -54 -69q0 -11 7.5 -17.5t20.5 -6.5q10 0 20 3t27 11l26 -44q-32 -17 -52 -24t-40 -7q-36 0 -58 19t-22 51q0 25 10.5 42t39.5 42h-29zM129 691q29 0 49.5 -21t20.5 -50t-20.5 -49.5t-49.5 -20.5t-50 20.5t-21 49.5t21 50t50 21z" />
    <glyph glyph-name="Idotaccent" unicode="&#x130;" horiz-adv-x="284" 
d="M74 0v667h136v-667h-136zM142 859q26 0 43.5 -17.5t17.5 -42.5q0 -26 -17.5 -43.5t-43.5 -17.5t-43 17t-17 43t17.5 43.5t42.5 17.5z" />
    <glyph glyph-name="dotlessi" unicode="&#x131;" horiz-adv-x="257" 
d="M67 0v475h123v-475h-123z" />
    <glyph glyph-name="IJ" unicode="&#x132;" horiz-adv-x="639" 
d="M74 0v667h136v-667h-136zM569 199q0 -71 -27.5 -113.5t-89.5 -67.5q-23 -10 -54 -17t-81 -14l-22 100q45 10 72.5 20t42.5 25.5t20 39t5 59.5v436h134v-468z" />
    <glyph glyph-name="ij" unicode="&#x133;" horiz-adv-x="526" 
d="M129 691q29 0 49.5 -21t20.5 -50t-20.5 -49.5t-49.5 -20.5t-50 20.5t-21 49.5t21 50t50 21zM67 0v475h123v-475h-123zM397 691q29 0 49.5 -20.5t20.5 -49.5q0 -30 -20.5 -50.5t-49.5 -20.5t-50 20.5t-21 49.5t21 50t50 21zM458 -11q0 -75 -24 -121t-78 -75
q-23 -12 -45.5 -19t-61.5 -14l-26 89q28 8 47 18t34 24q18 16 24.5 42t6.5 80v462h123v-486z" />
    <glyph glyph-name="Jcircumflex" unicode="&#x134;" horiz-adv-x="351" 
d="M281 199q0 -71 -27.5 -113.5t-89.5 -67.5q-23 -10 -54 -17t-81 -14l-22 100q45 10 72.5 20.5t42.5 25.5t20 38.5t5 59.5v436h134v-468zM361 724l-146 66l-151 -66l-36 64l187 104l182 -104z" />
    <glyph glyph-name="jcircumflex" unicode="&#x135;" horiz-adv-x="264" 
d="M197 -11q0 -75 -24 -121t-78 -75q-23 -12 -45.5 -19t-61.5 -14l-26 89q28 8 47 18t34 24q18 16 24.5 42t6.5 80v462h123v-486zM263 528l-132 73l-130 -73l-38 58l168 115l170 -116z" />
    <glyph glyph-name="uni0136" unicode="&#x136;" horiz-adv-x="660" 
d="M476 0l-267 334v-334h-135v667h135v-289l256 289h165l-283 -310l304 -357h-175zM336 -242h-75v201h115z" />
    <glyph glyph-name="uni0137" unicode="&#x137;" horiz-adv-x="530" 
d="M368 0l-177 240v-240h-124v715h124v-434l166 194h155l-193 -214l204 -261h-155zM273 -218h-66v177h101z" />
    <glyph glyph-name="Lacute" unicode="&#x139;" horiz-adv-x="513" 
d="M74 0v667h135v-559h289v-108h-424zM132 722l-28 65l213 104l40 -89v-1z" />
    <glyph glyph-name="lacute" unicode="&#x13a;" horiz-adv-x="259" 
d="M67 0v715h125v-715h-125zM69 746l-28 65l213 104l40 -89v-1z" />
    <glyph glyph-name="uni013B" unicode="&#x13b;" horiz-adv-x="513" 
d="M74 0v667h135v-559h289v-108h-424zM287 -242h-75v201h115z" />
    <glyph glyph-name="uni013C" unicode="&#x13c;" horiz-adv-x="259" 
d="M67 0v715h125v-715h-125zM149 -218h-66v177h101z" />
    <glyph glyph-name="Lcaron" unicode="&#x13d;" horiz-adv-x="513" 
d="M74 0v667h135v-559h289v-108h-424zM339 466h-75v201h115z" />
    <glyph glyph-name="lcaron" unicode="&#x13e;" horiz-adv-x="308" 
d="M67 0v715h125v-715h-125zM299 538h-66v177h101z" />
    <glyph glyph-name="Ldot" unicode="&#x13f;" horiz-adv-x="513" 
d="M74 0v667h135v-559h289v-108h-424zM336 408q26 0 43.5 -17.5t17.5 -42.5q0 -26 -17.5 -43.5t-43.5 -17.5t-43 17t-17 43t17.5 43.5t42.5 17.5z" />
    <glyph glyph-name="ldot" unicode="&#x140;" horiz-adv-x="326" 
d="M67 0v715h125v-715h-125zM292 410q26 0 43.5 -17.5t17.5 -42.5q0 -26 -17.5 -43.5t-43.5 -17.5t-43 17t-17 43t17.5 43.5t42.5 17.5z" />
    <glyph glyph-name="Lslash" unicode="&#x141;" horiz-adv-x="558" 
d="M118 0v232l-55 -42l-60 77l115 88v312h136v-221l104 79l60 -77l-164 -125v-215h289v-108h-425z" />
    <glyph glyph-name="lslash" unicode="&#x142;" horiz-adv-x="423" 
d="M265 368v-368h-125v281l-80 -62l-55 76l135 102v318h125v-230l98 76l55 -76z" />
    <glyph glyph-name="Nacute" unicode="&#x143;" horiz-adv-x="709" 
d="M506 0l-308 441v-441h-124v667h127l311 -447v447h124v-667h-130zM305 722l-28 65l213 104l40 -89v-1z" />
    <glyph glyph-name="nacute" unicode="&#x144;" horiz-adv-x="562" 
d="M375 0v262q0 34 -2.5 56.5t-9 35.5t-18 18t-28.5 5q-55 0 -127 -75v-302h-123v475h119v-72q49 46 91 66.5t87 20.5q38 0 67.5 -15t45.5 -43q6 -11 10.5 -22.5t6.5 -26t3 -34t1 -46.5v-303h-123zM231 533l-34 56l189 113l44 -78z" />
    <glyph glyph-name="uni0145" unicode="&#x145;" horiz-adv-x="709" 
d="M506 0l-308 441v-441h-124v667h127l311 -447v447h124v-667h-130zM384 -242h-75v201h115z" />
    <glyph glyph-name="uni0146" unicode="&#x146;" horiz-adv-x="562" 
d="M375 0v262q0 34 -2.5 56.5t-9 35.5t-18 18t-28.5 5q-55 0 -127 -75v-302h-123v475h119v-72q49 46 91 66.5t87 20.5q38 0 67.5 -15t45.5 -43q6 -11 10.5 -22.5t6.5 -26t3 -34t1 -46.5v-303h-123zM302 -218h-66v177h101z" />
    <glyph glyph-name="Ncaron" unicode="&#x147;" horiz-adv-x="709" 
d="M506 0l-308 441v-441h-124v667h127l311 -447v447h124v-667h-130zM356 728l-180 106l32 60l148 -69l153 69l33 -60z" />
    <glyph glyph-name="ncaron" unicode="&#x148;" horiz-adv-x="562" 
d="M375 0v262q0 34 -2.5 56.5t-9 35.5t-18 18t-28.5 5q-55 0 -127 -75v-302h-123v475h119v-72q49 46 91 66.5t87 20.5q38 0 67.5 -15t45.5 -43q6 -11 10.5 -22.5t6.5 -26t3 -34t1 -46.5v-303h-123zM294 533l-171 116l40 57l131 -72l130 72l38 -57z" />
    <glyph glyph-name="Eng" unicode="&#x14a;" horiz-adv-x="712" 
d="M208 0h-134v667h134v-91q127 96 245 96q52 0 92.5 -16.5t62.5 -47.5q10 -14 16.5 -28.5t10.5 -33t5.5 -43t1.5 -57.5v-388q0 -72 -27.5 -114.5t-89.5 -67.5q-23 -9 -54 -16.5t-81 -14.5l-22 100q45 10 72.5 20.5t42.5 25.5t20 38.5t5 59.5v312q0 45 -5.5 72t-16.5 42
q-26 34 -79 34q-87 0 -199 -86v-463z" />
    <glyph glyph-name="eng" unicode="&#x14b;" horiz-adv-x="562" 
d="M498 -11q0 -75 -24 -121t-78 -75q-23 -12 -45.5 -19t-61.5 -14l-26 89q28 8 47 18t34 24q17 16 23.5 39t7.5 70v262q0 34 -2.5 56.5t-9 35.5t-18 18t-28.5 5q-55 0 -127 -75v-302h-123v475h119v-72q49 46 91 66.5t87 20.5q38 0 67.5 -15t45.5 -43q6 -11 10.5 -22.5
t6.5 -26t3 -34t1 -46.5v-314v0z" />
    <glyph glyph-name="Omacron" unicode="&#x14c;" horiz-adv-x="757" 
d="M386 682q70 0 130 -25.5t104 -70.5t68.5 -106.5t24.5 -133.5q0 -78 -26 -144t-71.5 -113.5t-109 -74.5t-138.5 -27q-71 0 -130.5 25.5t-102.5 70.5t-67.5 107.5t-24.5 136.5q0 77 25.5 142t71.5 112.5t109 74t137 26.5zM375 568q-42 0 -77 -17t-60.5 -47t-39.5 -71.5
t-14 -91.5q0 -52 14.5 -96t40.5 -75.5t61.5 -49t78.5 -17.5t78.5 16.5t60.5 46.5t39 72.5t14 93.5q0 53 -14 96.5t-40 74.5t-62 48t-80 17zM221 738v84h314v-84h-314z" />
    <glyph glyph-name="omacron" unicode="&#x14d;" horiz-adv-x="558" 
d="M285 491q51 0 93.5 -18.5t74 -51.5t49 -78t17.5 -98q0 -56 -18 -103t-50.5 -81t-77.5 -53t-98 -19q-51 0 -94.5 18.5t-75 51t-49 77.5t-17.5 98q0 55 18.5 102.5t51.5 81.5t78 53.5t98 19.5zM277 392q-49 0 -78.5 -40t-29.5 -106q0 -71 31 -113.5t82 -42.5q48 0 77 39.5
t29 105.5q0 72 -30 114.5t-81 42.5zM129 567v79h300v-79h-300z" />
    <glyph glyph-name="Obreve" unicode="&#x14e;" horiz-adv-x="757" 
d="M386 682q70 0 130 -25.5t104 -70.5t68.5 -106.5t24.5 -133.5q0 -78 -26 -144t-71.5 -113.5t-109 -74.5t-138.5 -27q-71 0 -130.5 25.5t-102.5 70.5t-67.5 107.5t-24.5 136.5q0 77 25.5 142t71.5 112.5t109 74t137 26.5zM375 568q-42 0 -77 -17t-60.5 -47t-39.5 -71.5
t-14 -91.5q0 -52 14.5 -96t40.5 -75.5t61.5 -49t78.5 -17.5t78.5 16.5t60.5 46.5t39 72.5t14 93.5q0 53 -14 96.5t-40 74.5t-62 48t-80 17zM290 870q8 -32 29 -45.5t59 -13.5t59 13.5t29 45.5h70q-5 -62 -46 -95.5t-112 -33.5t-112 33.5t-46 95.5h70z" />
    <glyph glyph-name="obreve" unicode="&#x14f;" horiz-adv-x="558" 
d="M285 491q51 0 93.5 -18.5t74 -51.5t49 -78t17.5 -98q0 -56 -18 -103t-50.5 -81t-77.5 -53t-98 -19q-51 0 -94.5 18.5t-75 51t-49 77.5t-17.5 98q0 55 18.5 102.5t51.5 81.5t78 53.5t98 19.5zM277 392q-49 0 -78.5 -40t-29.5 -106q0 -71 31 -113.5t82 -42.5q48 0 77 39.5
t29 105.5q0 72 -30 114.5t-81 42.5zM418 680q-5 -62 -40.5 -95.5t-97.5 -33.5q-30 0 -55.5 9.5t-44 26t-29.5 39t-11 48.5v6h69q5 -31 21.5 -44.5t49.5 -13.5t49.5 13.5t20.5 44.5h68z" />
    <glyph glyph-name="Ohungarumlaut" unicode="&#x150;" horiz-adv-x="757" 
d="M386 682q70 0 130 -25.5t104 -70.5t68.5 -106.5t24.5 -133.5q0 -78 -26 -144t-71.5 -113.5t-109 -74.5t-138.5 -27q-71 0 -130.5 25.5t-102.5 70.5t-67.5 107.5t-24.5 136.5q0 77 25.5 142t71.5 112.5t109 74t137 26.5zM375 568q-42 0 -77 -17t-60.5 -47t-39.5 -71.5
t-14 -91.5q0 -52 14.5 -96t40.5 -75.5t61.5 -49t78.5 -17.5t78.5 16.5t60.5 46.5t39 72.5t14 93.5q0 53 -14 96.5t-40 74.5t-62 48t-80 17zM292 722l-37 45l153 124l52 -62zM458 722l-36 45l152 124l53 -62z" />
    <glyph glyph-name="ohungarumlaut" unicode="&#x151;" horiz-adv-x="558" 
d="M285 491q51 0 93.5 -18.5t74 -51.5t49 -78t17.5 -98q0 -56 -18 -103t-50.5 -81t-77.5 -53t-98 -19q-51 0 -94.5 18.5t-75 51t-49 77.5t-17.5 98q0 55 18.5 102.5t51.5 81.5t78 53.5t98 19.5zM277 392q-49 0 -78.5 -40t-29.5 -106q0 -71 31 -113.5t82 -42.5q48 0 77 39.5
t29 105.5q0 72 -30 114.5t-81 42.5zM374 532l-39 43l151 111l55 -61zM210 532l-39 43l151 111l55 -61z" />
    <glyph glyph-name="OE" unicode="&#x152;" horiz-adv-x="944" 
d="M451 0q-108 0 -179 18t-120 59q-25 21 -45 48.5t-34.5 59t-22 65.5t-7.5 69q0 42 11 87.5t30 83.5q61 120 231 162q24 6 39 9t35 4.5t51.5 1.5h87.5h352v-103h-271v-169h255v-100h-255v-188h290v-107h-448zM473 564q-41 -1 -71.5 -4t-55 -10t-44 -17.5t-38.5 -25.5
q-37 -31 -58 -77.5t-21 -97.5q0 -60 25 -109.5t70 -77.5q29 -18 72 -28.5t91 -10.5h15t15 1v457z" />
    <glyph glyph-name="oe" unicode="&#x153;" horiz-adv-x="845" 
d="M814 72q-58 -42 -109 -61.5t-105 -19.5q-106 0 -164 80q-36 -44 -74.5 -62.5t-92.5 -18.5q-51 0 -93 18t-72.5 50.5t-47.5 77t-17 98.5t18 101t49.5 81.5t74.5 54t93 19.5q55 0 94.5 -19.5t74.5 -64.5q72 85 175 85q50 0 89.5 -20.5t65.5 -61.5q21 -32 29.5 -68t8.5 -92
v-29h-304q2 -38 9 -59t22 -38q32 -35 83 -35q36 0 68 11t69 37l11 8zM692 301q-5 55 -24 79.5t-58 24.5q-38 0 -63.5 -28t-36.5 -82zM275 392q-23 0 -42.5 -11t-34 -30.5t-23 -46.5t-8.5 -58q0 -33 8.5 -61.5t24 -49.5t36.5 -33t46 -12q48 0 77 39.5t29 105.5q0 34 -8.5 63
t-23.5 50t-35.5 32.5t-45.5 11.5z" />
    <glyph glyph-name="Racute" unicode="&#x154;" horiz-adv-x="615" 
d="M448 0l-121 238q-25 49 -78 49h-41v-287h-134v667h211q37 0 65.5 -2t51 -6t40 -11.5t33.5 -17.5q31 -20 49 -55.5t18 -76.5q0 -65 -41 -110.5t-113 -59.5q28 -8 43 -19.5t31 -37.5l144 -271h-158zM273 381q62 0 96.5 26t34.5 73t-30.5 69t-95.5 22h-70v-190h65zM222 722
l-27 65l212 104l40 -89v-1z" />
    <glyph glyph-name="racute" unicode="&#x155;" horiz-adv-x="381" 
d="M352 368q-11 4 -17.5 5t-12.5 1q-64 0 -131 -135v-239h-124v475h120v-96q32 56 66 80.5t78 24.5q15 0 23 -1.5t22 -7.5zM195 533l-35 56l189 113l44 -78z" />
    <glyph glyph-name="uni0156" unicode="&#x156;" horiz-adv-x="615" 
d="M448 0l-121 238q-25 49 -78 49h-41v-287h-134v667h211q37 0 65.5 -2t51 -6t40 -11.5t33.5 -17.5q31 -20 49 -55.5t18 -76.5q0 -65 -41 -110.5t-113 -59.5q28 -8 43 -19.5t31 -37.5l144 -271h-158zM273 381q62 0 96.5 26t34.5 73t-30.5 69t-95.5 22h-70v-190h65zM306 -242
h-75v201h115z" />
    <glyph glyph-name="uni0157" unicode="&#x157;" horiz-adv-x="381" 
d="M352 368q-11 4 -17.5 5t-12.5 1q-64 0 -131 -135v-239h-124v475h120v-96q32 56 66 80.5t78 24.5q15 0 23 -1.5t22 -7.5zM148 -218h-66v177h101z" />
    <glyph glyph-name="Rcaron" unicode="&#x158;" horiz-adv-x="615" 
d="M448 0l-121 238q-25 49 -78 49h-41v-287h-134v667h211q37 0 65.5 -2t51 -6t40 -11.5t33.5 -17.5q31 -20 49 -55.5t18 -76.5q0 -65 -41 -110.5t-113 -59.5q28 -8 43 -19.5t31 -37.5l144 -271h-158zM273 381q62 0 96.5 26t34.5 73t-30.5 69t-95.5 22h-70v-190h65zM286 728
l-181 106l32 60l149 -69l152 69l33 -60z" />
    <glyph glyph-name="rcaron" unicode="&#x159;" horiz-adv-x="381" 
d="M352 368q-11 4 -17.5 5t-12.5 1q-64 0 -131 -135v-239h-124v475h120v-96q32 56 66 80.5t78 24.5q15 0 23 -1.5t22 -7.5zM223 533l-171 116l39 57l132 -72l130 72l38 -57z" />
    <glyph glyph-name="Sacute" unicode="&#x15a;" horiz-adv-x="551" 
d="M464 562q-41 7 -65.5 9.5t-50.5 2.5q-74 0 -115.5 -20.5t-41.5 -56.5q0 -12 5.5 -22.5t18.5 -20.5t34.5 -20.5t53.5 -22.5q33 -12 58 -23t44 -21.5t34 -21t27 -22.5q23 -22 35.5 -53t12.5 -67q0 -49 -21 -88.5t-59 -67.5t-92.5 -43.5t-120.5 -15.5q-47 0 -88 5t-96 18
l21 104q24 -4 43 -7t35.5 -4.5t32 -2.5t32.5 -1q83 0 127 23.5t44 68.5q0 15 -5.5 26.5t-18.5 22.5t-34.5 21.5t-54.5 23.5q-34 13 -57 22.5t-39 18t-27.5 15.5t-21.5 16q-61 52 -61 130q0 44 20 80t56.5 61t88.5 38.5t116 13.5q19 0 35 -1t33 -3t36 -6t45 -10zM250 722
l-28 65l213 104l40 -89v-1z" />
    <glyph glyph-name="sacute" unicode="&#x15b;" horiz-adv-x="440" 
d="M367 389q-23 4 -36.5 6.5t-23.5 3.5t-18 1.5t-19 0.5q-43 0 -67.5 -11.5t-24.5 -31.5t33 -39q5 -2 28.5 -12.5t68.5 -28.5q99 -40 99 -132q0 -75 -64 -115.5t-184 -40.5q-19 0 -33.5 0.5t-29 2.5t-29.5 5.5t-34 8.5l20 89q33 -7 53.5 -9t46.5 -2q59 0 90 13t31 39
q0 10 -3 18t-13.5 15.5t-30 16t-51.5 21.5q-20 8 -34 15t-25 13t-19 13t-16 15q-32 34 -32 80q0 67 58 106t157 39q25 0 44 -1.5t42 -6.5l16 -3l19 -4zM186 533l-34 56l189 113l44 -78z" />
    <glyph glyph-name="Scircumflex" unicode="&#x15c;" horiz-adv-x="551" 
d="M464 562q-41 7 -65.5 9.5t-50.5 2.5q-74 0 -115.5 -20.5t-41.5 -56.5q0 -12 5.5 -22.5t18.5 -20.5t34.5 -20.5t53.5 -22.5q33 -12 58 -23t44 -21.5t34 -21t27 -22.5q23 -22 35.5 -53t12.5 -67q0 -49 -21 -88.5t-59 -67.5t-92.5 -43.5t-120.5 -15.5q-47 0 -88 5t-96 18
l21 104q24 -4 43 -7t35.5 -4.5t32 -2.5t32.5 -1q83 0 127 23.5t44 68.5q0 15 -5.5 26.5t-18.5 22.5t-34.5 21.5t-54.5 23.5q-34 13 -57 22.5t-39 18t-27.5 15.5t-21.5 16q-61 52 -61 130q0 44 20 80t56.5 61t88.5 38.5t116 13.5q19 0 35 -1t33 -3t36 -6t45 -10zM440 724
l-146 66l-151 -66l-36 64l187 104l182 -104z" />
    <glyph glyph-name="scircumflex" unicode="&#x15d;" horiz-adv-x="440" 
d="M367 389q-23 4 -36.5 6.5t-23.5 3.5t-18 1.5t-19 0.5q-43 0 -67.5 -11.5t-24.5 -31.5t33 -39q5 -2 28.5 -12.5t68.5 -28.5q99 -40 99 -132q0 -75 -64 -115.5t-184 -40.5q-19 0 -33.5 0.5t-29 2.5t-29.5 5.5t-34 8.5l20 89q33 -7 53.5 -9t46.5 -2q59 0 90 13t31 39
q0 10 -3 18t-13.5 15.5t-30 16t-51.5 21.5q-20 8 -34 15t-25 13t-19 13t-16 15q-32 34 -32 80q0 67 58 106t157 39q25 0 44 -1.5t42 -6.5l16 -3l19 -4zM371 528l-132 73l-130 -73l-38 58l168 115l170 -116z" />
    <glyph glyph-name="Scedilla" unicode="&#x15e;" horiz-adv-x="551" 
d="M282 -50h4l9 -1q26 -2 43 -19t17 -43q0 -89 -164 -92l9 55q78 1 78 30q0 22 -43 22h-10.5t-19.5 -2l15 88q-25 0 -47 1.5t-44 4t-44.5 7t-47.5 10.5l21 104q24 -4 43 -7t35.5 -4.5t32 -2.5t32.5 -1q83 0 127 23.5t44 68.5q0 15 -5.5 26.5t-18.5 22.5t-34.5 21.5
t-54.5 23.5q-34 13 -57 22.5t-39 18t-27.5 15.5t-21.5 16q-61 52 -61 130q0 44 20 80t56.5 61t88.5 38.5t116 13.5q19 0 35 -1t33 -3t36 -6t45 -10l-19 -99q-41 7 -65.5 9.5t-50.5 2.5q-74 0 -115.5 -20.5t-41.5 -56.5q0 -12 5.5 -22.5t18.5 -20.5t34.5 -20.5t53.5 -22.5
q33 -12 58 -23t44 -21.5t34 -21t27 -22.5q23 -22 35.5 -53.5t12.5 -66.5q0 -41 -15.5 -76.5t-44.5 -63t-70.5 -46t-93.5 -25.5z" />
    <glyph glyph-name="scedilla" unicode="&#x15f;" horiz-adv-x="440" 
d="M225 -43q30 -1 47 -15.5t17 -40.5q0 -78 -145 -81l8 49q69 1 69 26q0 19 -38 19h-9.5t-16.5 -1l13 77h-12q-18 0 -33 0.5t-29 2.5t-29 5.5t-34 8.5l20 89q33 -7 53.5 -9t46.5 -2q59 0 90 13t31 39q0 10 -3 18t-13.5 15.5t-30 16t-51.5 21.5q-20 8 -34 15t-25 13t-19 13
t-16 15q-32 34 -32 80q0 67 58 106t157 39q25 0 44 -1.5t42 -6.5l16 -3l19 -4l-19 -85q-23 4 -36.5 6.5t-23.5 3.5t-18 1.5t-19 0.5q-43 0 -67.5 -11.5t-24.5 -31.5t33 -39q5 -2 28.5 -12.5t68.5 -28.5q99 -40 99 -132q0 -127 -175 -151z" />
    <glyph glyph-name="Scaron" unicode="&#x160;" horiz-adv-x="551" 
d="M464 562q-41 7 -65.5 9.5t-50.5 2.5q-74 0 -115.5 -20.5t-41.5 -56.5q0 -12 5.5 -22.5t18.5 -20.5t34.5 -20.5t53.5 -22.5q33 -12 58 -23t44 -21.5t34 -21t27 -22.5q23 -22 35.5 -53t12.5 -67q0 -49 -21 -88.5t-59 -67.5t-92.5 -43.5t-120.5 -15.5q-47 0 -88 5t-96 18
l21 104q24 -4 43 -7t35.5 -4.5t32 -2.5t32.5 -1q83 0 127 23.5t44 68.5q0 15 -5.5 26.5t-18.5 22.5t-34.5 21.5t-54.5 23.5q-34 13 -57 22.5t-39 18t-27.5 15.5t-21.5 16q-61 52 -61 130q0 44 20 80t56.5 61t88.5 38.5t116 13.5q19 0 35 -1t33 -3t36 -6t45 -10zM305 728
l-181 106l32 60l149 -69l152 69l33 -60z" />
    <glyph glyph-name="scaron" unicode="&#x161;" horiz-adv-x="440" 
d="M367 389q-23 4 -36.5 6.5t-23.5 3.5t-18 1.5t-19 0.5q-43 0 -67.5 -11.5t-24.5 -31.5t33 -39q5 -2 28.5 -12.5t68.5 -28.5q99 -40 99 -132q0 -75 -64 -115.5t-184 -40.5q-19 0 -33.5 0.5t-29 2.5t-29.5 5.5t-34 8.5l20 89q33 -7 53.5 -9t46.5 -2q59 0 90 13t31 39
q0 10 -3 18t-13.5 15.5t-30 16t-51.5 21.5q-20 8 -34 15t-25 13t-19 13t-16 15q-32 34 -32 80q0 67 58 106t157 39q25 0 44 -1.5t42 -6.5l16 -3l19 -4zM251 533l-171 116l39 57l132 -72l130 72l38 -57z" />
    <glyph glyph-name="uni0162" unicode="&#x162;" horiz-adv-x="569" 
d="M354 565v-565h-135v565h-210v102h551v-102h-206zM313 -242h-75v201h115z" />
    <glyph glyph-name="uni0163" unicode="&#x163;" horiz-adv-x="359" 
d="M334 5q-35 -8 -57 -11.5t-43 -3.5q-44 0 -78.5 11.5t-48.5 31.5q-14 16 -18.5 39t-4.5 68v253h-85v82h85v146h123v-146h127v-82h-127v-221q0 -32 2.5 -45.5t9.5 -22.5q7 -8 24 -13t38 -5q8 0 18 1t35 5v-87zM186 -218h-66v177h101z" />
    <glyph glyph-name="Tcaron" unicode="&#x164;" horiz-adv-x="569" 
d="M354 565v-565h-135v565h-210v102h551v-102h-206zM293 728l-181 106l32 60l149 -69l152 69l33 -60z" />
    <glyph glyph-name="tcaron" unicode="&#x165;" horiz-adv-x="359" 
d="M334 5q-35 -8 -57 -11.5t-43 -3.5q-44 0 -78.5 11.5t-48.5 31.5q-14 16 -18.5 39t-4.5 68v253h-85v82h85v146h123v-146h127v-82h-127v-221q0 -32 2.5 -45.5t9.5 -22.5q7 -8 24 -13t38 -5q8 0 18 1t35 5v-87zM314 538h-66v177h101z" />
    <glyph glyph-name="Tbar" unicode="&#x166;" horiz-adv-x="569" 
d="M219 565h-210v102h551v-102h-206v-104h88v-84h-88v-377h-135v377h-92v84h92v104z" />
    <glyph glyph-name="tbar" unicode="&#x167;" horiz-adv-x="359" 
d="M207 172q0 -32 2.5 -45.5t9.5 -22.5q7 -8 24 -13t38 -5q8 0 17.5 1t35.5 5v-87q-35 -8 -57 -11.5t-43 -3.5q-44 0 -78.5 11.5t-48.5 31.5q-14 16 -18.5 39t-4.5 68v128h-85v82h85v43h-85v82h85v146h123v-146h127v-82h-127v-43h127v-82h-127v-96z" />
    <glyph glyph-name="Utilde" unicode="&#x168;" horiz-adv-x="714" 
d="M643 287q0 -80 -16.5 -132.5t-53.5 -88.5q-36 -35 -95 -56.5t-123 -21.5q-35 0 -75 7t-72 18q-51 18 -80 49.5t-45 83.5q-4 13 -6.5 26t-4 28.5t-2 35.5t-0.5 49v382h135v-382v-34.5t1 -22.5t2 -16t3 -16q8 -33 23.5 -52.5t42.5 -30.5q17 -6 37.5 -10t37.5 -4
q22 0 43 4.5t40 12t33.5 18t23.5 23.5q8 12 13.5 24t8.5 27t4.5 35t1.5 47v377h123v-380zM541 816q-38 -38 -67 -54t-56 -16q-8 0 -14.5 1t-15.5 3.5t-22.5 7t-34.5 12.5q-28 10 -45 10q-27 0 -71 -37l-48 55q35 36 62.5 52t55.5 16q26 0 74 -20q36 -15 58 -15q14 0 32 9.5
t45 31.5z" />
    <glyph glyph-name="utilde" unicode="&#x169;" horiz-adv-x="562" 
d="M373 0v74q-82 -83 -169 -83q-41 0 -72.5 16t-46.5 43q-6 12 -10.5 24t-6.5 27.5t-3 36t-1 50.5v287h124v-293q0 -77 58 -77q59 0 127 75v295h123v-475h-123zM466 631q-39 -41 -66.5 -57.5t-56.5 -16.5q-22 0 -48 13l-22 11q-8 5 -22 8.5t-22 3.5q-14 0 -29 -8.5
t-38 -30.5l-47 51q36 38 62 53.5t55 15.5q27 0 73 -23q14 -7 21.5 -9t17.5 -2q17 0 34.5 9t41.5 31z" />
    <glyph glyph-name="Umacron" unicode="&#x16a;" horiz-adv-x="714" 
d="M643 287q0 -80 -16.5 -132.5t-53.5 -88.5q-36 -35 -95 -56.5t-123 -21.5q-35 0 -75 7t-72 18q-51 18 -80 49.5t-45 83.5q-4 13 -6.5 26t-4 28.5t-2 35.5t-0.5 49v382h135v-382v-34.5t1 -22.5t2 -16t3 -16q8 -33 23.5 -52.5t42.5 -30.5q17 -6 37.5 -10t37.5 -4
q22 0 43 4.5t40 12t33.5 18t23.5 23.5q8 12 13.5 24t8.5 27t4.5 35t1.5 47v377h123v-380zM208 738v84h315v-84h-315z" />
    <glyph glyph-name="umacron" unicode="&#x16b;" horiz-adv-x="562" 
d="M373 0v74q-82 -83 -169 -83q-41 0 -72.5 16t-46.5 43q-6 12 -10.5 24t-6.5 27.5t-3 36t-1 50.5v287h124v-293q0 -77 58 -77q59 0 127 75v295h123v-475h-123zM140 567v79h301v-79h-301z" />
    <glyph glyph-name="Ubreve" unicode="&#x16c;" horiz-adv-x="714" 
d="M643 287q0 -80 -16.5 -132.5t-53.5 -88.5q-36 -35 -95 -56.5t-123 -21.5q-35 0 -75 7t-72 18q-51 18 -80 49.5t-45 83.5q-4 13 -6.5 26t-4 28.5t-2 35.5t-0.5 49v382h135v-382v-34.5t1 -22.5t2 -16t3 -16q8 -33 23.5 -52.5t42.5 -30.5q17 -6 37.5 -10t37.5 -4
q22 0 43 4.5t40 12t33.5 18t23.5 23.5q8 12 13.5 24t8.5 27t4.5 35t1.5 47v377h123v-380zM269 870q8 -32 29 -45.5t59 -13.5t59 13.5t29 45.5h70q-5 -62 -46 -95.5t-112 -33.5t-112 33.5t-46 95.5h70z" />
    <glyph glyph-name="ubreve" unicode="&#x16d;" horiz-adv-x="562" 
d="M373 0v74q-82 -83 -169 -83q-41 0 -72.5 16t-46.5 43q-6 12 -10.5 24t-6.5 27.5t-3 36t-1 50.5v287h124v-293q0 -77 58 -77q59 0 127 75v295h123v-475h-123zM420 680q-5 -62 -40.5 -95.5t-97.5 -33.5q-30 0 -55.5 9.5t-44 26t-29.5 39t-11 48.5v6h69q5 -31 21.5 -44.5
t49.5 -13.5t49.5 13.5t20.5 44.5h68z" />
    <glyph glyph-name="Uring" unicode="&#x16e;" horiz-adv-x="714" 
d="M643 287q0 -80 -16.5 -132.5t-53.5 -88.5q-36 -35 -95 -56.5t-123 -21.5q-35 0 -75 7t-72 18q-51 18 -80 49.5t-45 83.5q-4 13 -6.5 26t-4 28.5t-2 35.5t-0.5 49v382h135v-382v-34.5t1 -22.5t2 -16t3 -16q8 -33 23.5 -52.5t42.5 -30.5q17 -6 37.5 -10t37.5 -4
q22 0 43 4.5t40 12t33.5 18t23.5 23.5q8 12 13.5 24t8.5 27t4.5 35t1.5 47v377h123v-380zM353 905q42 0 70 -28t28 -69q0 -42 -28 -70.5t-70 -28.5t-70 28t-28 70t28 70t70 28zM353 855q-20 0 -34 -14t-14 -34t14 -34.5t34 -14.5t34 14.5t14 34.5t-14 34t-34 14z" />
    <glyph glyph-name="uring" unicode="&#x16f;" horiz-adv-x="562" 
d="M373 0v74q-82 -83 -169 -83q-41 0 -72.5 16t-46.5 43q-6 12 -10.5 24t-6.5 27.5t-3 36t-1 50.5v287h124v-293q0 -77 58 -77q59 0 127 75v295h123v-475h-123zM293 705q38 0 64 -25.5t26 -63.5q0 -19 -7 -35t-19 -28t-28.5 -19t-35.5 -7q-38 0 -63.5 25.5t-25.5 63.5
t25.5 63.5t63.5 25.5zM293 658q-17 0 -29.5 -12.5t-12.5 -29.5t12.5 -29.5t29.5 -12.5q18 0 30 12.5t12 29.5t-12.5 29.5t-29.5 12.5z" />
    <glyph glyph-name="Uhungarumlaut" unicode="&#x170;" horiz-adv-x="714" 
d="M643 287q0 -80 -16.5 -132.5t-53.5 -88.5q-36 -35 -95 -56.5t-123 -21.5q-35 0 -75 7t-72 18q-51 18 -80 49.5t-45 83.5q-4 13 -6.5 26t-4 28.5t-2 35.5t-0.5 49v382h135v-382v-34.5t1 -22.5t2 -16t3 -16q8 -33 23.5 -52.5t42.5 -30.5q17 -6 37.5 -10t37.5 -4
q22 0 43 4.5t40 12t33.5 18t23.5 23.5q8 12 13.5 24t8.5 27t4.5 35t1.5 47v377h123v-380zM281 722l-37 45l153 124l52 -62zM447 722l-36 45l152 124l53 -62z" />
    <glyph glyph-name="uhungarumlaut" unicode="&#x171;" horiz-adv-x="562" 
d="M373 0v74q-82 -83 -169 -83q-41 0 -72.5 16t-46.5 43q-6 12 -10.5 24t-6.5 27.5t-3 36t-1 50.5v287h124v-293q0 -77 58 -77q59 0 127 75v295h123v-475h-123zM339 532l-39 43l151 111l55 -61zM175 532l-39 43l151 111l55 -61z" />
    <glyph glyph-name="Uogonek" unicode="&#x172;" horiz-adv-x="714" 
d="M542 -123q-32 -17 -52 -24t-40 -7q-36 0 -58 19t-22 51q0 23 9.5 40t32.5 36q-16 -2 -29 -3t-27 -1q-35 0 -75.5 7t-72.5 18q-51 18 -80 49.5t-45 83.5q-4 13 -6.5 26t-4 28.5t-2 35.5t-0.5 49v382h135v-382v-34.5t1 -22.5t2 -16t3 -16q8 -33 23.5 -52.5t42.5 -30.5
q17 -6 37.5 -10t37.5 -4q22 0 43 4.5t40 12t33.5 18t23.5 23.5q8 12 13.5 24t8.5 27t4.5 35t1.5 47v377h123v-380q0 -62 -9.5 -106t-30.5 -77q-6 -9 -11.5 -17t-14 -16t-20 -18t-27.5 -23q-27 -22 -44.5 -37t-27 -26t-13.5 -19.5t-4 -16.5q0 -11 8 -17.5t20 -6.5
q11 0 20.5 3t26.5 11z" />
    <glyph glyph-name="uogonek" unicode="&#x173;" horiz-adv-x="562" 
d="M373 0v74q-82 -83 -169 -83q-41 0 -72.5 16t-46.5 43q-6 12 -10.5 24t-6.5 27.5t-3 36t-1 50.5v287h124v-293q0 -77 58 -77q59 0 127 75v295h123v-475h-20q-54 -41 -54 -69q0 -11 7.5 -17.5t20.5 -6.5q10 0 20 3t27 11l26 -44q-32 -17 -52.5 -24t-40.5 -7q-35 0 -57 19
t-22 51q0 25 10.5 42t39.5 42h-28z" />
    <glyph glyph-name="Wcircumflex" unicode="&#x174;" horiz-adv-x="979" 
d="M780 0h-140l-151 472l-153 -472h-135l-196 667h135l138 -493l158 493h119l160 -493l133 493h126zM636 724l-146 66l-151 -66l-36 64l187 104l182 -104z" />
    <glyph glyph-name="wcircumflex" unicode="&#x175;" horiz-adv-x="768" 
d="M611 0h-128l-98 328l-98 -328h-130l-150 475h127l96 -328l97 328h126l97 -328l95 328h116zM517 528l-132 73l-130 -73l-38 58l168 115l170 -116z" />
    <glyph glyph-name="Ycircumflex" unicode="&#x176;" horiz-adv-x="620" 
d="M378 292v-292h-134v292l-239 375h160l149 -267l154 267h148zM458 724l-146 66l-151 -66l-36 64l187 104l182 -104z" />
    <glyph glyph-name="ycircumflex" unicode="&#x177;" horiz-adv-x="522" 
d="M295 -75q-20 -49 -38.5 -81.5t-41 -51.5t-51 -26.5t-66.5 -7.5q-21 0 -39 3t-48 11l21 89q16 -3 27 -4t22 -1q34 0 55 18t42 67l20 45l-191 489h136l124 -344l127 344h121zM398 528l-132 73l-130 -73l-38 58l168 115l170 -116z" />
    <glyph glyph-name="Ydieresis" unicode="&#x178;" horiz-adv-x="620" 
d="M378 292v-292h-134v292l-239 375h160l149 -267l154 267h148zM451 870q27 0 45.5 -18.5t18.5 -45.5t-18 -45.5t-46 -18.5q-27 0 -45.5 18.5t-18.5 45.5t18.5 45.5t45.5 18.5zM199 870q26 0 44.5 -19t18.5 -45q0 -27 -18.5 -45.5t-45.5 -18.5q-26 0 -45 19t-19 45
q0 27 19 45.5t46 18.5z" />
    <glyph glyph-name="Zacute" unicode="&#x179;" horiz-adv-x="570" 
d="M31 0v100l324 466h-319v101h491v-90l-323 -468h335v-109h-508zM240 722l-28 65l213 104l40 -89v-1z" />
    <glyph glyph-name="zacute" unicode="&#x17a;" horiz-adv-x="474" 
d="M37 0v92l224 284h-216v99h388v-84l-225 -287h230v-104h-401zM200 533l-34 56l189 113l44 -78z" />
    <glyph glyph-name="Zdotaccent" unicode="&#x17b;" horiz-adv-x="570" 
d="M31 0v100l324 466h-319v101h491v-90l-323 -468h335v-109h-508zM295 870q26 0 44.5 -19t18.5 -45q0 -27 -18.5 -45.5t-45.5 -18.5q-26 0 -45 19t-19 45q0 27 19 45.5t46 18.5z" />
    <glyph glyph-name="zdotaccent" unicode="&#x17c;" horiz-adv-x="474" 
d="M37 0v92l224 284h-216v99h388v-84l-225 -287h230v-104h-401zM243 667q26 0 43.5 -17.5t17.5 -42.5q0 -26 -17.5 -43.5t-43.5 -17.5t-43 17t-17 43t17.5 43.5t42.5 17.5z" />
    <glyph glyph-name="Zcaron" unicode="&#x17d;" horiz-adv-x="570" 
d="M31 0v100l324 466h-319v101h491v-90l-323 -468h335v-109h-508zM294 728l-181 106l32 60l149 -69l152 69l33 -60z" />
    <glyph glyph-name="zcaron" unicode="&#x17e;" horiz-adv-x="474" 
d="M37 0v92l224 284h-216v99h388v-84l-225 -287h230v-104h-401zM256 533l-171 116l39 57l132 -72l130 72l38 -57z" />
    <glyph glyph-name="florin" unicode="&#x192;" horiz-adv-x="535" 
d="M486 594q-15 4 -24 5t-22 1q-48 0 -74 -22.5t-36 -72.5l-6 -30h120l-15 -93h-120l-62 -366q-13 -85 -64.5 -144.5t-131.5 -82.5l-47 93q29 17 49 33t33.5 33.5t21 38.5t12.5 50l59 345h-86l15 93h88l9 50q4 24 8.5 40.5t9 29t10.5 22t14 18.5q29 34 70 49t105 15
q24 0 38.5 -2t38.5 -8q5 -2 7 -2.5l6 -1.5z" />
    <glyph glyph-name="Aringacute" unicode="&#x1fa;" horiz-adv-x="706" 
d="M346 905q42 0 70 -28t28 -69q0 -42 -28 -70.5t-70 -28.5t-70 28t-28 70t28 70t70 28zM346 855q-20 0 -34 -14t-14 -34t14 -34.5t34 -14.5t34 14.5t14 34.5t-14 34t-34 14zM557 0l-77 196h-266l-76 -196h-133l276 667h141l279 -667h-144zM346 538l-95 -247h192zM248 905
l-34 56l189 113l44 -78z" />
    <glyph glyph-name="aringacute" unicode="&#x1fb;" horiz-adv-x="499" 
d="M490 9q-30 -12 -47 -16t-37 -4q-44 0 -67 16.5t-32 54.5q-41 -36 -77.5 -52.5t-75.5 -16.5q-25 0 -46.5 9t-37 25.5t-24.5 38.5t-9 48q0 71 65 117q18 13 35.5 22.5t39.5 18.5t51 17t70 18v14q0 38 -12.5 53.5t-41.5 15.5t-61.5 -12.5t-88.5 -44.5l-43 75q58 40 116 61.5
t108 21.5q44 0 77 -14t48 -39q6 -11 10 -20.5t6.5 -23t3 -33t0.5 -49.5v-179q0 -27 8.5 -38.5t28.5 -11.5q9 0 24 3zM298 230q-77 -23 -109 -46t-32 -55q0 -19 11.5 -30.5t30.5 -11.5q23 0 46.5 12.5t52.5 40.5v90zM270 705q38 0 64 -25.5t26 -63.5q0 -19 -7 -35t-19 -28
t-28.5 -19t-35.5 -7q-38 0 -63.5 25.5t-25.5 63.5t25.5 63.5t63.5 25.5zM270 658q-17 0 -29.5 -12.5t-12.5 -29.5t12.5 -29.5t29.5 -12.5q18 0 30 12.5t12 29.5t-12.5 29.5t-29.5 12.5zM182 723l-34 56l189 113l44 -78z" />
    <glyph glyph-name="AEacute" unicode="&#x1fc;" horiz-adv-x="958" 
d="M496 0v195h-224l-116 -195h-151l412 667h476v-102h-261v-170h246v-99h-246v-188h281v-108h-417zM496 574l-168 -282h168v282zM496 725l-34 56l189 113l44 -78z" />
    <glyph glyph-name="aeacute" unicode="&#x1fd;" horiz-adv-x="754" 
d="M723 72q-57 -44 -108.5 -63.5t-110.5 -19.5q-29 0 -52 5t-43 15.5t-37.5 28t-35.5 43.5q-28 -25 -51.5 -42.5t-45 -28t-42.5 -15.5t-43 -5q-26 0 -47 9t-37 25t-24.5 38t-8.5 48q0 78 87 131q34 20 73.5 32.5t99.5 20.5l1 8v7q0 41 -13 59t-43 18q-29 0 -62.5 -13
t-84.5 -43l-44 74q66 45 121 65.5t110 20.5q38 0 63 -13.5t43 -45.5q32 32 65.5 46t75.5 14t77 -16t60 -44.5t38.5 -69t13.5 -89.5v-54h-296q4 -38 10.5 -58.5t21.5 -38.5q14 -17 33.5 -26t40.5 -9q17 0 38 4t40 11q8 3 14 5t12.5 6t15 10t22.5 15l8 6zM601 300
q-4 59 -22.5 84.5t-56.5 25.5q-42 0 -67 -29.5t-31 -85.5zM300 220q-78 -18 -110 -39.5t-32 -54.5q0 -20 11.5 -31t31.5 -11q23 0 48 13.5t60 45.5q-5 23 -7 38.5t-2 35.5v3zM306 533l-34 56l189 113l44 -78z" />
    <glyph glyph-name="Oslashacute" unicode="&#x1fe;" horiz-adv-x="759" 
d="M324 722l-28 65l213 104l40 -89v-1zM639 566q41 -54 57.5 -105t16.5 -118q0 -77 -26 -142t-72 -112.5t-109.5 -74.5t-137.5 -27q-63 0 -111.5 17t-98.5 56l-69 -71l-48 45l71 74q-37 51 -53 102.5t-16 117.5q0 77 26 142t71.5 112t108.5 73.5t138 26.5q60 0 108 -16
t97 -53l69 73l49 -46zM499 518q-29 26 -58.5 38t-66.5 12q-42 0 -77 -17t-60 -47.5t-39 -73t-14 -93.5q0 -20 1 -34.5t4 -28t8.5 -28.5t14.5 -34zM251 156q29 -29 58.5 -41t68.5 -12q42 0 77 16.5t61 45.5t40.5 69.5t14.5 87.5q0 40 -7 72t-24 70z" />
    <glyph glyph-name="oslashacute" unicode="&#x1ff;" horiz-adv-x="568" 
d="M479 395q24 -36 34.5 -71t10.5 -80q0 -55 -18.5 -101.5t-50.5 -80.5t-76 -53.5t-96 -19.5q-43 0 -78 11.5t-73 37.5l-48 -48l-45 43l49 51q-23 34 -33 69.5t-10 81.5q0 55 18.5 102t51.5 81t78 53.5t98 19.5q40 0 71.5 -11t73.5 -40l48 50l44 -43zM355 358q-19 18 -36 26
t-38 8q-48 0 -77.5 -41t-29.5 -107q0 -18 2 -30t9 -33zM214 122q20 -18 35 -25t37 -7q50 0 78.5 39.5t28.5 108.5q0 22 -2 33.5t-7 28.5zM241 533l-34 56l189 113l44 -78z" />
    <glyph glyph-name="uni0218" unicode="&#x218;" horiz-adv-x="551" 
d="M464 562q-41 7 -65.5 9.5t-50.5 2.5q-74 0 -115.5 -20.5t-41.5 -56.5q0 -12 5.5 -22.5t18.5 -20.5t34.5 -20.5t53.5 -22.5q33 -12 58 -23t44 -21.5t34 -21t27 -22.5q23 -22 35.5 -53t12.5 -67q0 -49 -21 -88.5t-59 -67.5t-92.5 -43.5t-120.5 -15.5q-47 0 -88 5t-96 18
l21 104q24 -4 43 -7t35.5 -4.5t32 -2.5t32.5 -1q83 0 127 23.5t44 68.5q0 15 -5.5 26.5t-18.5 22.5t-34.5 21.5t-54.5 23.5q-34 13 -57 22.5t-39 18t-27.5 15.5t-21.5 16q-61 52 -61 130q0 44 20 80t56.5 61t88.5 38.5t116 13.5q19 0 35 -1t33 -3t36 -6t45 -10zM287 -242
h-75v201h115z" />
    <glyph glyph-name="uni0219" unicode="&#x219;" horiz-adv-x="440" 
d="M367 389q-23 4 -36.5 6.5t-23.5 3.5t-18 1.5t-19 0.5q-43 0 -67.5 -11.5t-24.5 -31.5t33 -39q5 -2 28.5 -12.5t68.5 -28.5q99 -40 99 -132q0 -75 -64 -115.5t-184 -40.5q-19 0 -33.5 0.5t-29 2.5t-29.5 5.5t-34 8.5l20 89q33 -7 53.5 -9t46.5 -2q59 0 90 13t31 39
q0 10 -3 18t-13.5 15.5t-30 16t-51.5 21.5q-20 8 -34 15t-25 13t-19 13t-16 15q-32 34 -32 80q0 67 58 106t157 39q25 0 44 -1.5t42 -6.5l16 -3l19 -4zM219 -218h-66v177h101z" />
    <glyph glyph-name="uni021A" unicode="&#x21a;" horiz-adv-x="569" 
d="M354 565v-565h-135v565h-210v102h551v-102h-206zM313 -242h-75v201h115z" />
    <glyph glyph-name="uni021B" unicode="&#x21b;" horiz-adv-x="359" 
d="M334 5q-35 -8 -57 -11.5t-43 -3.5q-44 0 -78.5 11.5t-48.5 31.5q-14 16 -18.5 39t-4.5 68v253h-85v82h85v146h123v-146h127v-82h-127v-221q0 -32 2.5 -45.5t9.5 -22.5q7 -8 24 -13t38 -5q8 0 18 1t35 5v-87zM186 -218h-66v177h101z" />
    <glyph glyph-name="circumflex" unicode="&#x2c6;" horiz-adv-x="338" 
d="M300 528l-132 73l-130 -73l-38 58l168 115l170 -116z" />
    <glyph glyph-name="caron" unicode="&#x2c7;" horiz-adv-x="339" 
d="M171 533l-171 116l39 57l132 -72l130 72l38 -57z" />
    <glyph glyph-name="breve" unicode="&#x2d8;" horiz-adv-x="278" 
d="M278 680q-5 -62 -40.5 -95.5t-97.5 -33.5q-30 0 -55.5 9.5t-44 26t-29.5 39t-11 48.5v6h69q5 -31 21.5 -44.5t49.5 -13.5t49.5 13.5t20.5 44.5h68z" />
    <glyph glyph-name="dotaccent" unicode="&#x2d9;" horiz-adv-x="500" 
d="M179 667q26 0 43.5 -17.5t17.5 -42.5q0 -26 -17.5 -43.5t-43.5 -17.5t-43 17t-17 43t17.5 43.5t42.5 17.5z" />
    <glyph glyph-name="ring" unicode="&#x2da;" horiz-adv-x="179" 
d="M89 705q38 0 64 -25.5t26 -63.5q0 -19 -7 -35t-19 -28t-28.5 -19t-35.5 -7q-38 0 -63.5 25.5t-25.5 63.5t25.5 63.5t63.5 25.5zM89 658q-17 0 -29.5 -12.5t-12.5 -29.5t12.5 -29.5t29.5 -12.5q18 0 30 12.5t12 29.5t-12.5 29.5t-29.5 12.5z" />
    <glyph glyph-name="ogonek" unicode="&#x2db;" horiz-adv-x="500" 
d="M427 -123q-32 -17 -52 -24t-40 -7q-36 0 -58 19t-22 51q0 13 2.5 23.5t9 20.5t19 22t33.5 29l75 -1q-36 -26 -52 -44.5t-16 -34.5q0 -11 7.5 -17.5t20.5 -6.5q11 0 20.5 3t26.5 11z" />
    <glyph glyph-name="tilde" unicode="&#x2dc;" horiz-adv-x="351" 
d="M351 631q-39 -41 -66.5 -57.5t-56.5 -16.5q-22 0 -48 13l-22 11q-8 5 -22 8.5t-22 3.5q-14 0 -29 -8.5t-38 -30.5l-47 51q37 38 62.5 53.5t54.5 15.5q27 0 74 -23q13 -7 21 -9t17 -2q17 0 34.5 9t41.5 31z" />
    <glyph glyph-name="hungarumlaut" unicode="&#x2dd;" horiz-adv-x="405" 
d="M208 532l-39 43l151 111l55 -61zM44 532l-39 43l151 111l55 -61z" />
    <glyph glyph-name="uni03A9" unicode="&#x3a9;" horiz-adv-x="719" 
d="M404 0v104q16 3 41.5 16.5t49.5 40.5t41 69t17 103q0 51 -14 94t-39.5 74.5t-61 49.5t-78.5 18t-78.5 -17.5t-61 -49t-40 -75t-14.5 -94.5q0 -60 17 -102t41 -69t49 -41t42 -17v-104h-291v101h135q-18 11 -39 32t-38.5 51.5t-29.5 72t-12 93.5q0 72 23.5 132t65.5 103
t101 67t130 24t129.5 -24t100.5 -67t65.5 -103t23.5 -132q0 -53 -11.5 -94t-29.5 -72t-38.5 -51.5t-38.5 -31.5h134v-101h-291z" />
    <glyph glyph-name="pi" unicode="&#x3c0;" 
d="M558 19q-27 -13 -46 -17.5t-35 -4.5q-43 0 -73 24q-31 24 -38.5 58.5t-7.5 87.5v215h-162v-382h-108v382h-70v93h521v-93h-74v-210q0 -14 1.5 -28t6 -25t11.5 -18t18 -7q8 0 17.5 3t19.5 7l19 -85v0z" />
    <glyph glyph-name="uni0401" unicode="&#x401;" horiz-adv-x="559" 
d="M74 0v667h421v-102h-286v-170h270v-99h-270v-188h305v-108h-440zM421 870q27 0 45.5 -18.5t18.5 -45.5t-18 -45.5t-46 -18.5q-27 0 -45.5 18.5t-18.5 45.5t18.5 45.5t45.5 18.5zM169 870q26 0 44.5 -19t18.5 -45q0 -27 -18.5 -45.5t-45.5 -18.5q-26 0 -45 19t-19 45
q0 27 19 45.5t46 18.5z" />
    <glyph glyph-name="uni0402" unicode="&#x402;" horiz-adv-x="683" 
d="M313 0h-135v565h-169v102h551v-102h-247v-208q52 46 93 65t86 19q73 0 112 -50q14 -18 20 -43t6 -64v-205q0 -75 -24.5 -121t-78.5 -75q-23 -12 -45.5 -19t-62.5 -14l-26 90q28 8 47 17.5t34 23.5q9 9 15 19t9.5 24t5 33.5t1.5 46.5v146q0 42 -13.5 60t-43.5 18
q-63 0 -135 -76v-252z" />
    <glyph glyph-name="uni0403" unicode="&#x403;" horiz-adv-x="513" 
d="M498 559h-289v-559h-135v667h424v-108zM230 722l-27 65l212 104l40 -89v-1z" />
    <glyph glyph-name="uni0404" unicode="&#x404;" horiz-adv-x="674" 
d="M187 285q16 -86 77 -136t150 -50q24 0 46 2.5t44 8.5t45.5 15.5t50.5 23.5l47 -94q-32 -19 -61.5 -32t-59 -21.5t-60.5 -12t-66 -3.5q-79 0 -144.5 25t-113 70t-73.5 107.5t-26 137.5q0 78 29 143t80.5 112.5t123 74t156.5 26.5q25 0 47.5 -2t45.5 -6.5t48.5 -11.5
t57.5 -18l-33 -97q-47 14 -81 20t-73 6q-103 0 -171.5 -50.5t-84.5 -138.5h294v-99h-295z" />
    <glyph glyph-name="uni0405" unicode="&#x405;" horiz-adv-x="551" 
d="M464 562q-41 7 -65.5 9.5t-50.5 2.5q-74 0 -115.5 -20.5t-41.5 -56.5q0 -12 5.5 -22.5t18.5 -20.5t34.5 -20.5t53.5 -22.5q33 -12 58 -23t44 -21.5t34 -21t27 -22.5q23 -22 35.5 -53t12.5 -67q0 -49 -21 -88.5t-59 -67.5t-92.5 -43.5t-120.5 -15.5q-47 0 -88 5t-96 18
l21 104q24 -4 43 -7t35.5 -4.5t32 -2.5t32.5 -1q83 0 127 23.5t44 68.5q0 15 -5.5 26.5t-18.5 22.5t-34.5 21.5t-54.5 23.5q-34 13 -57 22.5t-39 18t-27.5 15.5t-21.5 16q-61 52 -61 130q0 44 20 80t56.5 61t88.5 38.5t116 13.5q19 0 35 -1t33 -3t36 -6t45 -10z" />
    <glyph glyph-name="uni0406" unicode="&#x406;" horiz-adv-x="284" 
d="M74 0v667h136v-667h-136z" />
    <glyph glyph-name="uni0407" unicode="&#x407;" horiz-adv-x="284" 
d="M74 0v667h136v-667h-136zM236 870q26 0 44.5 -19t18.5 -45q0 -27 -18 -45.5t-46 -18.5q-27 0 -45.5 18.5t-18.5 45.5t18.5 45.5t46.5 18.5zM46 869q26 0 44.5 -18.5t18.5 -44.5q0 -27 -19 -45.5t-45 -18.5t-44.5 18.5t-18.5 45.5q0 26 18.5 44.5t45.5 18.5z" />
    <glyph glyph-name="uni0408" unicode="&#x408;" horiz-adv-x="351" 
d="M281 199q0 -71 -27.5 -113.5t-89.5 -67.5q-23 -10 -54 -17t-81 -14l-22 100q45 10 72.5 20.5t42.5 25.5t20 38.5t5 59.5v436h134v-468z" />
    <glyph glyph-name="uni0409" unicode="&#x409;" horiz-adv-x="951" 
d="M228 568v-356q0 -53 -9.5 -90.5t-33 -63.5t-61.5 -42.5t-95 -28.5l-22 100q28 11 45.5 22t26.5 28t12 42t3 65v423h501v-281h82q32 0 56 -1.5t43.5 -5.5t35 -10.5t31.5 -15.5q41 -25 63 -66t22 -92q0 -58 -27.5 -104t-75.5 -68q-17 -8 -30 -12.5t-29 -6.5t-38.5 -3
t-56.5 -1h-211v568h-232zM595 99h69q41 0 61.5 5.5t35.5 19.5q14 12 21.5 31.5t7.5 39.5q0 26 -11 47t-31 33q-15 9 -35.5 12.5t-56.5 3.5h-61v-192z" />
    <glyph glyph-name="uni040A" unicode="&#x40a;" horiz-adv-x="1003" 
d="M511 667h135v-281h82q32 0 56 -1.5t43.5 -5.5t35 -10.5t31.5 -15.5q41 -24 63 -65.5t22 -92.5q0 -58 -27.5 -104t-75.5 -68q-17 -8 -30 -12.5t-29 -6.5t-38.5 -3t-56.5 -1h-211v301h-303v-301h-134v667h134v-267h303v267zM646 99h69q41 0 61.5 5.5t35.5 19.5
q14 12 21.5 31.5t7.5 39.5q0 26 -11 47t-31 33q-15 9 -35.5 12.5t-56.5 3.5h-61v-192z" />
    <glyph glyph-name="uni040B" unicode="&#x40b;" horiz-adv-x="683" 
d="M313 0h-135v565h-169v102h551v-102h-247v-208q52 46 93 65t86 19q73 0 112 -50q14 -18 20 -43t6 -64v-284h-125v250q0 42 -13.5 60t-43.5 18q-63 0 -135 -76v-252z" />
    <glyph glyph-name="uni040C" unicode="&#x40c;" horiz-adv-x="660" 
d="M476 0l-267 334v-334h-135v667h135v-289l256 289h165l-283 -310l304 -357h-175zM287 722l-28 65l213 104l40 -89v-1z" />
    <glyph glyph-name="uni040E" unicode="&#x40e;" horiz-adv-x="606" 
d="M245 0h-133l126 233l-231 434h152l152 -319l145 319h143zM226 870q8 -32 28.5 -45.5t59.5 -13.5q38 0 58.5 13.5t28.5 45.5h70q-5 -62 -45.5 -95.5t-111.5 -33.5q-72 0 -112.5 33.5t-45.5 95.5h70z" />
    <glyph glyph-name="uni040F" unicode="&#x40f;" horiz-adv-x="720" 
d="M74 0v667h134v-568h303v568h135v-667h-219v-114h-135v114h-218z" />
    <glyph glyph-name="uni0410" unicode="&#x410;" horiz-adv-x="706" 
d="M557 0l-77 196h-266l-76 -196h-133l276 667h141l279 -667h-144zM346 538l-95 -247h192z" />
    <glyph glyph-name="uni0411" unicode="&#x411;" horiz-adv-x="566" 
d="M460 559h-251v-173h82q32 0 56 -1.5t43.5 -5.5t35 -10.5t31.5 -15.5q41 -25 63 -66t22 -92q0 -58 -27.5 -104t-75.5 -68q-17 -8 -30 -12.5t-29 -6.5t-38.5 -3t-56.5 -1h-211v667h386v-108zM209 99h69q40 0 61 5.5t36 19.5q14 12 21.5 31t7.5 40q0 26 -11 47t-31 33
q-15 9 -35.5 12.5t-56.5 3.5h-61v-192z" />
    <glyph glyph-name="uni0412" unicode="&#x412;" horiz-adv-x="612" 
d="M290 667q72 0 116.5 -10.5t76.5 -35.5q26 -20 40 -50t14 -65q0 -56 -35 -97q-8 -10 -17 -17.5t-20 -13.5t-25 -11.5t-33 -11.5q24 -5 42 -10.5t32 -12t25 -14.5t22 -18q42 -42 42 -107q0 -44 -18.5 -80t-52 -61t-81.5 -38.5t-107 -13.5h-237v667h216zM266 396
q37 0 59.5 5t40.5 18q17 11 26.5 30t9.5 41q0 42 -29.5 61t-95.5 19h-71v-174h60zM267 100q49 0 75.5 6.5t48.5 23.5q17 14 26.5 35t9.5 44q0 26 -12.5 47t-34.5 32q-10 5 -19.5 8t-21.5 5t-27.5 2.5t-37.5 0.5h-68v-204h61z" />
    <glyph glyph-name="uni0413" unicode="&#x413;" horiz-adv-x="513" 
d="M498 559h-289v-559h-135v667h424v-108z" />
    <glyph glyph-name="uni0414" unicode="&#x414;" horiz-adv-x="687" 
d="M681 99v-213h-135v114h-404v-114h-135v213h46q18 9 29.5 19.5t18 26.5t9 40t2.5 59v423h501v-568h68zM478 568h-232v-356q0 -33 -5 -62.5t-13 -50.5h250v469z" />
    <glyph glyph-name="uni0415" unicode="&#x415;" horiz-adv-x="559" 
d="M74 0v667h421v-102h-286v-170h270v-99h-270v-188h305v-108h-440z" />
    <glyph glyph-name="uni0416" unicode="&#x416;" horiz-adv-x="994" 
d="M431 667h131v-289l236 289h165l-263 -310l284 -357h-175l-247 334v-334h-131v334l-247 -334h-175l304 357l-283 310h165l236 -289v289z" />
    <glyph glyph-name="uni0417" unicode="&#x417;" horiz-adv-x="545" 
d="M14 613q63 37 122 53.5t130 16.5q103 0 163.5 -48t60.5 -131q0 -56 -25.5 -95.5t-73.5 -60.5q54 -17 84 -58t30 -96q0 -40 -17.5 -80t-46.5 -66q-36 -32 -85 -47t-120 -15q-28 0 -51.5 1.5t-46.5 6t-49 12t-59 18.5l33 97q46 -14 77 -19.5t63 -5.5q38 0 59 2.5t38 10.5
q29 14 47 41.5t18 59.5q0 90 -136 90h-20v95q25 1 40.5 2t26 2.5t17 4t13.5 5.5q44 22 44 74q0 40 -28 63t-76 23q-24 0 -46 -2.5t-44 -8.5t-45 -15.5t-50 -23.5z" />
    <glyph glyph-name="uni0418" unicode="&#x418;" horiz-adv-x="709" 
d="M636 0h-124v473l-311 -473h-127v667h124v-468l308 468h130v-667z" />
    <glyph glyph-name="uni0419" unicode="&#x419;" horiz-adv-x="709" 
d="M636 0h-124v473l-311 -473h-127v667h124v-468l308 468h130v-667zM267 870q8 -32 28.5 -45.5t58.5 -13.5q39 0 59.5 13.5t28.5 45.5h70q-5 -62 -46 -95.5t-112 -33.5t-112 33.5t-46 95.5h71z" />
    <glyph glyph-name="uni041A" unicode="&#x41a;" horiz-adv-x="660" 
d="M476 0l-267 334v-334h-135v667h135v-289l256 289h165l-283 -310l304 -357h-175z" />
    <glyph glyph-name="uni041B" unicode="&#x41b;" horiz-adv-x="668" 
d="M595 667v-667h-135v568h-232v-355q0 -53 -9.5 -90.5t-33 -64t-61.5 -43t-95 -28.5l-22 100q28 11 45.5 22t26.5 28t12 42t3 65v423h501z" />
    <glyph glyph-name="uni041C" unicode="&#x41c;" horiz-adv-x="860" 
d="M703 0l-59 456l-161 -456h-114l-165 456l-54 -456h-125l93 667h141l174 -478l166 478h139l97 -667h-132z" />
    <glyph glyph-name="uni041D" unicode="&#x41d;" horiz-adv-x="719" 
d="M511 0v301h-303v-301h-134v667h134v-267h303v267h135v-667h-135z" />
    <glyph glyph-name="uni041E" unicode="&#x41e;" horiz-adv-x="757" 
d="M386 682q70 0 130 -25.5t104 -70.5t68.5 -106.5t24.5 -133.5q0 -78 -26 -144t-71.5 -113.5t-109 -74.5t-138.5 -27q-71 0 -130.5 25.5t-102.5 70.5t-67.5 107.5t-24.5 136.5q0 77 25.5 142t71.5 112.5t109 74t137 26.5zM375 568q-42 0 -77 -17t-60.5 -47t-39.5 -71.5
t-14 -91.5q0 -52 14.5 -96t40.5 -75.5t61.5 -49t78.5 -17.5t78.5 16.5t60.5 46.5t39 72.5t14 93.5q0 53 -14 96.5t-40 74.5t-62 48t-80 17z" />
    <glyph glyph-name="uni041F" unicode="&#x41f;" horiz-adv-x="719" 
d="M646 667v-667h-135v568h-303v-568h-134v667h572z" />
    <glyph glyph-name="uni0420" unicode="&#x420;" horiz-adv-x="566" 
d="M285 667q78 0 124.5 -11.5t77.5 -38.5q26 -23 40.5 -59.5t14.5 -79.5q0 -93 -66.5 -145t-184.5 -52h-82v-281h-135v667h211zM270 376q64 0 99 25.5t35 72.5q0 26 -10.5 46.5t-29.5 31.5q-16 9 -33.5 12.5t-52.5 3.5h-69v-192h61z" />
    <glyph glyph-name="uni0421" unicode="&#x421;" horiz-adv-x="661" 
d="M647 55q-32 -19 -61.5 -32t-59 -21.5t-60.5 -12t-66 -3.5q-79 0 -144.5 25t-113 70t-73.5 108t-26 138q0 77 29 142t81 112.5t123.5 74t156.5 26.5q25 0 47 -2t45 -6.5t48.5 -11.5t57.5 -18l-33 -97q-23 7 -43 12t-38 8t-36 4.5t-37 1.5q-59 0 -107 -17t-82.5 -48.5
t-53 -76t-18.5 -98.5q0 -52 17 -95t47.5 -74t73 -48t93.5 -17q25 0 47 2.5t43.5 8.5t45 15.5t50.5 23.5z" />
    <glyph glyph-name="uni0422" unicode="&#x422;" horiz-adv-x="569" 
d="M354 565v-565h-135v565h-210v102h551v-102h-206z" />
    <glyph glyph-name="uni0423" unicode="&#x423;" horiz-adv-x="606" 
d="M245 0h-133l126 233l-231 434h152l152 -319l145 319h143z" />
    <glyph glyph-name="uni0424" unicode="&#x424;" horiz-adv-x="823" 
d="M476 655q66 -4 122 -29t96.5 -66t63 -96.5t22.5 -119.5q0 -66 -23 -123.5t-63.5 -101t-96 -71t-121.5 -32.5v-69h-129v68q-67 4 -123 29t-96 66t-62.5 97t-22.5 121t22.5 122t63 100.5t96.5 70.5t122 32v67h129v-65zM476 126q22 2 39.5 8t36.5 17q93 57 93 183t-96 185
q-36 22 -73 25v-418zM347 546q-37 -3 -68 -20.5t-53.5 -45t-35.5 -63.5t-13 -77q0 -42 12.5 -79t35 -65t53.5 -46.5t69 -23.5v420z" />
    <glyph glyph-name="uni0425" unicode="&#x425;" horiz-adv-x="638" 
d="M469 0l-152 259l-165 -259h-147l235 350l-213 317h162l132 -222l138 222h148l-210 -314l236 -353h-164z" />
    <glyph glyph-name="uni0426" unicode="&#x426;" horiz-adv-x="720" 
d="M74 0v667h134v-568h303v568h135v-568h67v-213h-135v114h-504z" />
    <glyph glyph-name="uni0427" unicode="&#x427;" horiz-adv-x="654" 
d="M445 667h136v-667h-136v183q-14 -2 -30.5 -3l-33 -2t-31 -1.5t-23.5 -0.5q-79 0 -143 23.5t-96 65.5q-14 18 -23 37t-14.5 43t-8 55.5t-2.5 74.5v192h135v-192v-35.5t1 -22.5t2.5 -16t3.5 -16q25 -98 162 -98q7 0 19 0.5t26 1t28.5 1.5t27.5 2v375z" />
    <glyph glyph-name="uni0428" unicode="&#x428;" horiz-adv-x="985" 
d="M559 667v-568h216v568h135v-667h-836v667h134v-568h217v568h134z" />
    <glyph glyph-name="uni0429" unicode="&#x429;" horiz-adv-x="984" 
d="M74 0v667h134v-568h217v568h134v-568h216v568h135v-568h68v-213h-135v114h-769z" />
    <glyph glyph-name="uni042A" unicode="&#x42a;" horiz-adv-x="656" 
d="M0 559v108h299v-281h82q32 0 56 -1.5t43.5 -5.5t35 -10.5t31.5 -15.5q41 -25 63 -66t22 -92q0 -58 -27.5 -104t-75.5 -68q-17 -8 -30 -12.5t-29 -6.5t-38.5 -3t-56.5 -1h-211v559h-164zM299 99h69q41 0 61.5 5.5t35.5 19.5q14 12 21.5 31.5t7.5 39.5q0 26 -11 47t-31 33
q-15 9 -35.5 12.5t-56.5 3.5h-61v-192z" />
    <glyph glyph-name="uni042B" unicode="&#x42b;" horiz-adv-x="820" 
d="M74 667h135v-281h82q32 0 56 -1.5t43.5 -5.5t35 -10.5t31.5 -15.5q41 -25 63 -66t22 -92q0 -58 -27.5 -104t-75.5 -68q-17 -8 -30 -12.5t-29 -6.5t-38.5 -3t-56.5 -1h-211v667zM209 99h69q41 0 61.5 5.5t35.5 19.5q14 12 21.5 31.5t7.5 39.5q0 26 -11 47t-31 33
q-15 9 -35.5 12.5t-56.5 3.5h-61v-192zM610 0v667h136v-667h-136z" />
    <glyph glyph-name="uni042C" unicode="&#x42c;" horiz-adv-x="566" 
d="M74 667h135v-281h82q32 0 56 -1.5t43.5 -5.5t35 -10.5t31.5 -15.5q41 -25 63 -66t22 -92q0 -58 -27.5 -104t-75.5 -68q-17 -8 -30 -12.5t-29 -6.5t-38.5 -3t-56.5 -1h-211v667zM209 99h69q41 0 61.5 5.5t35.5 19.5q14 12 21.5 31.5t7.5 39.5q0 26 -11 47t-31 33
q-15 9 -35.5 12.5t-56.5 3.5h-61v-192z" />
    <glyph glyph-name="uni042D" unicode="&#x42d;" horiz-adv-x="674" 
d="M487 384q-18 88 -78 136.5t-149 48.5q-25 0 -47 -2.5t-43.5 -8.5t-45 -15.5t-50.5 -23.5l-47 94q63 38 120 53.5t127 15.5q79 0 144.5 -25t112.5 -70t73.5 -108t26.5 -138q0 -77 -29 -142.5t-81 -112.5t-123 -73.5t-156 -26.5q-26 0 -48 2t-45 6.5t-48.5 11.5t-57.5 18
l33 97q46 -14 80.5 -20t73.5 -6q104 0 171.5 49.5t85.5 140.5h-295v99h295z" />
    <glyph glyph-name="uni042E" unicode="&#x42e;" horiz-adv-x="1065" 
d="M358 400q12 64 41.5 116t74 89t100.5 57t120 20q71 0 131 -25t103.5 -70t68 -107t24.5 -135q0 -78 -26 -143.5t-72 -113t-109 -74.5t-137 -27q-67 0 -124.5 23t-100.5 64.5t-69.5 99.5t-30.5 127h-144v-301h-134v667h134v-267h150zM683 568q-42 0 -76.5 -17t-60 -47
t-39.5 -71.5t-14 -91.5q0 -52 14.5 -95.5t40 -75t61.5 -49.5t78 -18q43 0 78.5 16.5t60.5 46.5t39 72.5t14 93.5q0 53 -14 96.5t-40 74.5t-62 48t-80 17z" />
    <glyph glyph-name="uni042F" unicode="&#x42f;" horiz-adv-x="615" 
d="M153 271q8 13 15 22t15.5 15.5t19 11t24.5 8.5q-72 14 -113 59.5t-41 110.5q0 41 18 76.5t49 55.5q16 10 33.5 17.5t40 11.5t50.5 6t66 2h211v-667h-134v287h-41q-54 0 -78 -49l-121 -238h-158zM407 571h-70q-65 0 -95.5 -22t-30.5 -69t34.5 -73t96.5 -26h65v190z" />
    <glyph glyph-name="uni0430" unicode="&#x430;" horiz-adv-x="499" 
d="M490 9q-30 -12 -47 -16t-37 -4q-44 0 -67 16.5t-32 54.5q-41 -36 -77.5 -52.5t-75.5 -16.5q-25 0 -46.5 9t-37 25.5t-24.5 38.5t-9 48q0 71 65 117q18 13 35.5 22.5t39.5 18.5t51 17t70 18v14q0 38 -12.5 53.5t-41.5 15.5t-61.5 -12.5t-88.5 -44.5l-43 75q58 40 116 61.5
t108 21.5q44 0 77 -14t48 -39q6 -11 10 -20.5t6.5 -23t3 -33t0.5 -49.5v-179q0 -27 8.5 -38.5t28.5 -11.5q9 0 24 3zM298 230q-77 -23 -109 -46t-32 -55q0 -19 11.5 -30.5t30.5 -11.5q23 0 46.5 12.5t52.5 40.5v90z" />
    <glyph glyph-name="uni0431" unicode="&#x431;" horiz-adv-x="558" 
d="M469 684q-11 -23 -24.5 -40.5t-32 -32t-44.5 -28.5t-62 -29q-50 -20 -78.5 -41t-47.5 -52q46 30 107 30q50 0 92.5 -18.5t73.5 -51.5t48.5 -78.5t17.5 -98.5q0 -55 -18.5 -102t-50.5 -81t-77 -53t-97 -19q-56 0 -102.5 21t-80.5 63q-30 37 -42 77.5t-12 105.5
q0 95 16 166t48 114q18 24 39.5 42.5t50.5 32.5q5 3 9 4.5t11 4.5t20 8.5t36 15.5q22 10 38.5 19t29.5 19.5t24 24t24 32.5zM277 392q-49 0 -78.5 -40t-29.5 -106q0 -71 31 -113.5t82 -42.5q48 0 77 39.5t29 105.5q0 72 -30 114.5t-81 42.5z" />
    <glyph glyph-name="uni0432" unicode="&#x432;" horiz-adv-x="486" 
d="M264 475q165 0 165 -117q0 -80 -79 -104q102 -27 102 -117q0 -30 -13 -57t-36 -46t-49.5 -26.5t-68.5 -7.5h-218v475h197zM190 282h37q39 0 60.5 16t21.5 46q0 23 -17.5 39.5t-40.5 16.5h-28h-33v-118zM190 77h46q45 0 69 18t24 52q0 65 -100 65h-39v-135z" />
    <glyph glyph-name="uni0433" unicode="&#x433;" horiz-adv-x="361" 
d="M190 393v-393h-123v475h294v-82h-171z" />
    <glyph glyph-name="uni0434" unicode="&#x434;" horiz-adv-x="552" 
d="M42 82q18 12 29.5 24t17.5 29t8 41.5t2 61.5l-1 237h387v-393h54v-170h-123v88h-286v-88h-123v170h35zM362 82v311h-141v-179q0 -45 -7 -75.5t-24 -56.5h172z" />
    <glyph glyph-name="uni0435" unicode="&#x435;" horiz-adv-x="522" 
d="M491 74q-114 -86 -233 -86q-49 0 -89.5 17.5t-69 49t-44.5 76t-16 98.5q0 57 18 105t50.5 82.5t77.5 54t98 19.5q98 0 150 -62.5t52 -180.5v-25h-313q4 -41 11.5 -63t21.5 -38q28 -34 81 -34q18 0 35 3t35.5 9.5t39.5 17.5t47 27zM361 302q-5 57 -24.5 82t-59.5 25
q-80 0 -103 -111z" />
    <glyph glyph-name="uni0436" unicode="&#x436;" horiz-adv-x="757" 
d="M319 475h119v-194l146 194h155l-185 -212l196 -263h-155l-157 240v-240h-119v240l-157 -240h-155l196 263l-185 212h155l146 -194v194z" />
    <glyph glyph-name="uni0437" unicode="&#x437;" horiz-adv-x="446" 
d="M63 140q23 -14 40.5 -22.5t32.5 -14t28.5 -7.5t29.5 -2q38 0 60 15t22 42q0 60 -102 60h-12v77h9q84 0 84 55q0 23 -19.5 36.5t-54.5 13.5q-26 0 -49 -5.5t-61 -20.5l-34 84q25 12 43.5 19t35 11.5t33.5 6t39 1.5q51 0 82.5 -7.5t59.5 -25.5q27 -18 41.5 -44t14.5 -56
q0 -73 -84 -100q103 -28 103 -119q0 -33 -13.5 -60t-37.5 -46.5t-57 -30.5t-73 -11q-58 0 -107 18t-102 60z" />
    <glyph glyph-name="uni0438" unicode="&#x438;" horiz-adv-x="565" 
d="M375 475h123v-475h-123v316l-185 -316h-123v475h123v-314z" />
    <glyph glyph-name="uni0439" unicode="&#x439;" horiz-adv-x="565" 
d="M375 475h123v-475h-123v316l-185 -316h-123v475h123v-314zM421 680q-4 -62 -40 -95.5t-97 -33.5q-30 0 -55.5 9.5t-44.5 26t-29.5 39t-10.5 48.5v6h69q5 -31 21.5 -44.5t49.5 -13.5t49.5 13.5t20.5 44.5h67z" />
    <glyph glyph-name="uni043A" unicode="&#x43a;" horiz-adv-x="530" 
d="M368 0l-177 240v-240h-124v475h124v-194l166 194h155l-193 -214l204 -261h-155z" />
    <glyph glyph-name="uni043B" unicode="&#x43b;" horiz-adv-x="532" 
d="M202 393v-179q0 -75 -19 -120.5t-63 -74.5q-18 -13 -36.5 -20t-50.5 -14l-26 89q22 11 36.5 23.5t22.5 31t11 44.5t2 65v237h386v-475h-123v393h-140z" />
    <glyph glyph-name="uni043C" unicode="&#x43c;" horiz-adv-x="684" 
d="M284 1l-93 331l-22 -331h-129l49 469h156l97 -350l97 350h156l49 -469h-129l-22 331l-93 -331h-116z" />
    <glyph glyph-name="uni043D" unicode="&#x43d;" horiz-adv-x="565" 
d="M190 200v-200h-123v475h123v-193h185v193h123v-475h-123v200h-185z" />
    <glyph glyph-name="uni043E" unicode="&#x43e;" horiz-adv-x="558" 
d="M285 491q51 0 93.5 -18.5t74 -51.5t49 -78t17.5 -98q0 -56 -18 -103t-50.5 -81t-77.5 -53t-98 -19q-51 0 -94.5 18.5t-75 51t-49 77.5t-17.5 98q0 55 18.5 102.5t51.5 81.5t78 53.5t98 19.5zM277 392q-49 0 -78.5 -40t-29.5 -106q0 -71 31 -113.5t82 -42.5q48 0 77 39.5
t29 105.5q0 72 -30 114.5t-81 42.5z" />
    <glyph glyph-name="uni043F" unicode="&#x43f;" horiz-adv-x="565" 
d="M190 393v-393h-123v475h431v-475h-123v393h-185z" />
    <glyph glyph-name="uni0440" unicode="&#x440;" horiz-adv-x="581" 
d="M183 403q25 24 47 41t42 27t40 14.5t42 4.5q41 0 75 -17t59 -48t38.5 -74t13.5 -94q0 -59 -15.5 -108.5t-43.5 -85t-67 -55t-85 -19.5q-44 0 -75 16t-64 56v-291h-123v705h116v-72zM190 161q31 -38 56 -54t57 -16q24 0 44 11t34.5 30.5t22.5 46.5t8 59q0 63 -29 102.5
t-75 39.5q-32 0 -60 -16.5t-58 -53.5v-149z" />
    <glyph glyph-name="uni0441" unicode="&#x441;" horiz-adv-x="480" 
d="M465 67q-54 -42 -101.5 -59.5t-102.5 -17.5q-50 0 -91 17.5t-70 49t-45 76.5t-16 100q0 58 18 105.5t51 81t80 51.5t104 18q22 0 39 -1.5t33.5 -6t35 -11.5t43.5 -19l-35 -84q-19 7 -33 12t-25.5 8t-22 4t-22.5 1q-63 0 -99 -40.5t-36 -110.5q0 -67 32.5 -107t86.5 -40
q14 0 27.5 2t28 7.5t32 14t40.5 22.5z" />
    <glyph glyph-name="uni0442" unicode="&#x442;" horiz-adv-x="390" 
d="M256 393v-393h-123v393h-133v82h390v-82h-134z" />
    <glyph glyph-name="uni0443" unicode="&#x443;" horiz-adv-x="522" 
d="M295 -75q-20 -49 -38.5 -81.5t-41 -51.5t-51 -26.5t-66.5 -7.5q-21 0 -39 3t-48 11l21 89q16 -3 27 -4t22 -1q34 0 55 18t42 67l20 45l-191 489h136l124 -344l127 344h121z" />
    <glyph glyph-name="uni0444" unicode="&#x444;" horiz-adv-x="706" 
d="M412 -230h-118v224q-13 -3 -23.5 -4t-23.5 -1q-45 0 -83.5 18.5t-66 51t-43 77.5t-15.5 98q0 55 16 102.5t45 81.5t68.5 53.5t86.5 19.5q22 0 39 -3v227h118v-229q12 3 22.5 4t23.5 1q46 0 84 -18.5t66 -51.5t43.5 -78.5t15.5 -99.5q0 -56 -16 -102.5t-45.5 -80
t-69.5 -52.5t-88 -19q-10 0 -17.5 0.5t-18.5 2.5v-222zM412 94q19 -11 41 -11q41 0 65.5 41.5t24.5 110.5q0 75 -25.5 119.5t-69.5 44.5q-15 0 -33 -7l-3 -2v-296zM294 388q-22 11 -41 11q-41 0 -66 -42.5t-25 -111.5q0 -73 26 -117.5t70 -44.5q10 0 17.5 2t18.5 7v296z" />
    <glyph glyph-name="uni0445" unicode="&#x445;" horiz-adv-x="518" 
d="M359 0l-107 165l-106 -165h-139l174 251l-157 224h149l92 -143l89 143h134l-154 -224l177 -251h-152z" />
    <glyph glyph-name="uni0446" unicode="&#x446;" horiz-adv-x="566" 
d="M553 82v-170h-123v88h-363v475h123v-393h185v393h123v-393h55z" />
    <glyph glyph-name="uni0447" unicode="&#x447;" horiz-adv-x="501" 
d="M311 155q-8 -1 -29.5 -1.5t-35.5 -0.5q-159 0 -202 113q-11 31 -11 82v127h123v-107q0 -22 0.5 -36t2 -24t4 -17t6.5 -15q21 -40 97 -40q8 0 22.5 1t22.5 2v236h123v-475h-123v155z" />
    <glyph glyph-name="uni0448" unicode="&#x448;" horiz-adv-x="759" 
d="M569 475h62h61v-475h-625v475h123v-393h128v393h123v-393h128v393z" />
    <glyph glyph-name="uni0449" unicode="&#x449;" horiz-adv-x="760" 
d="M747 82v-170h-123v88h-557v475h123v-393h128v393h123v-393h128v393h123v-393h55z" />
    <glyph glyph-name="uni044A" unicode="&#x44a;" horiz-adv-x="477" 
d="M0 393v82h224v-182h54q92 0 140.5 -37.5t48.5 -106.5q0 -73 -56 -114q-26 -20 -56.5 -27.5t-77.5 -7.5h-176v393h-101zM224 77h27q93 0 93 68q0 18 -9 34.5t-24 25.5q-11 7 -26.5 9.5t-40.5 2.5h-20v-140z" />
    <glyph glyph-name="uni044B" unicode="&#x44b;" horiz-adv-x="686" 
d="M67 475h123v-182h54q92 0 140.5 -37.5t48.5 -106.5q0 -73 -56 -114q-26 -20 -56.5 -27.5t-77.5 -7.5h-176v475zM190 77h27q93 0 93 68q0 18 -9 34.5t-24 25.5q-11 7 -26.5 9.5t-40.5 2.5h-20v-140zM496 0v475h123v-475h-123z" />
    <glyph glyph-name="uni044C" unicode="&#x44c;" horiz-adv-x="443" 
d="M67 475h123v-182h54q92 0 140.5 -37.5t48.5 -106.5q0 -73 -56 -114q-26 -20 -56.5 -27.5t-77.5 -7.5h-176v475zM190 77h27q93 0 93 68q0 18 -9 34.5t-24 25.5q-11 7 -26.5 9.5t-40.5 2.5h-20v-140z" />
    <glyph glyph-name="uni044D" unicode="&#x44d;" horiz-adv-x="480" 
d="M306 280q-11 51 -41 78t-75 27q-14 0 -27 -2t-27.5 -7.5t-32 -14.5t-40.5 -22l-48 73q53 41 101 59t103 18q50 0 91 -17.5t70 -49t45 -76t16 -99.5q0 -59 -18 -106t-51 -81t-80 -52t-105 -18q-21 0 -38 1.5t-34 6t-35.5 11.5t-42.5 19l34 84q19 -8 33 -12.5t25.5 -7.5
t22.5 -4t23 -1q107 0 131 111h-162v82h162z" />
    <glyph glyph-name="uni044E" unicode="&#x44e;" horiz-adv-x="798" 
d="M283 282q9 48 30 86.5t52.5 66t72 42t87.5 14.5q51 0 94 -18.5t74 -51.5t48.5 -78t17.5 -99q0 -55 -18.5 -102t-50.5 -81t-77 -53t-97 -19q-47 0 -87.5 15.5t-71.5 43t-51 66.5t-25 86h-91v-200h-123v475h123v-193h93zM517 392q-49 0 -78.5 -40t-29.5 -106
q0 -71 31 -113.5t82 -42.5q48 0 77 39.5t29 105.5q0 72 -30 114.5t-81 42.5z" />
    <glyph glyph-name="uni044F" unicode="&#x44f;" horiz-adv-x="476" 
d="M283 182h-7q-32 -1 -50 -17t-34 -59l-41 -106h-124l63 137q7 14 13 24t12 16.5t13.5 11.5t18.5 10q-50 14 -77 47t-27 82q0 71 56 112q26 20 56 27.5t78 7.5h176v-475h-123v182h-3zM286 398h-27q-93 0 -93 -68q0 -18 9 -34.5t24 -25.5q11 -7 26.5 -10t40.5 -3h20v141z
" />
    <glyph glyph-name="uni0451" unicode="&#x451;" horiz-adv-x="522" 
d="M491 74q-114 -86 -233 -86q-49 0 -89.5 17.5t-69 49t-44.5 76t-16 98.5q0 57 18 105t50.5 82.5t77.5 54t98 19.5q98 0 150 -62.5t52 -180.5v-25h-313q4 -41 11.5 -63t21.5 -38q28 -34 81 -34q18 0 35 3t35.5 9.5t39.5 17.5t47 27zM361 302q-5 57 -24.5 82t-59.5 25
q-80 0 -103 -111zM381 674q26 0 43 -17.5t17 -43.5t-17 -43t-43 -17t-43.5 17t-17.5 43t17.5 43.5t43.5 17.5zM170 674q26 0 43.5 -17t17.5 -43t-17.5 -43.5t-43.5 -17.5t-43 17t-17 43t17 43.5t43 17.5z" />
    <glyph glyph-name="uni0452" unicode="&#x452;" horiz-adv-x="571" 
d="M191 406q52 45 93 64t86 19q73 0 112 -50q14 -18 20 -43t6 -64v-562h-125v528q0 42 -13.5 60t-43.5 18q-33 0 -65 -17.5t-70 -57.5v-301h-124v567h-51v79h51v69h124v-69h126v-79h-126v-161z" />
    <glyph glyph-name="uni0453" unicode="&#x453;" horiz-adv-x="361" 
d="M190 393v-393h-123v475h294v-82h-171zM157 533l-34 56l189 113l44 -78z" />
    <glyph glyph-name="uni0454" unicode="&#x454;" horiz-adv-x="480" 
d="M174 198q11 -50 41 -77t75 -27q14 0 27 2t27.5 7.5t32 14t40.5 22.5l48 -73q-53 -41 -101 -59t-103 -18q-50 0 -91 17.5t-70 49t-45 76.5t-16 100q0 58 18 105.5t51 81t80 51.5t105 18q21 0 38 -1.5t34 -6t35.5 -11.5t42.5 -19l-34 -84q-19 7 -33 12t-25.5 8t-22.5 4
t-23 1q-54 0 -87 -28.5t-44 -83.5h162v-82h-162z" />
    <glyph glyph-name="uni0455" unicode="&#x455;" horiz-adv-x="440" 
d="M367 389q-23 4 -36.5 6.5t-23.5 3.5t-18 1.5t-19 0.5q-43 0 -67.5 -11.5t-24.5 -31.5t33 -39q5 -2 28.5 -12.5t68.5 -28.5q99 -40 99 -132q0 -75 -64 -115.5t-184 -40.5q-19 0 -33.5 0.5t-29 2.5t-29.5 5.5t-34 8.5l20 89q33 -7 53.5 -9t46.5 -2q59 0 90 13t31 39
q0 10 -3 18t-13.5 15.5t-30 16t-51.5 21.5q-20 8 -34 15t-25 13t-19 13t-16 15q-32 34 -32 80q0 67 58 106t157 39q25 0 44 -1.5t42 -6.5l16 -3l19 -4z" />
    <glyph glyph-name="uni0456" unicode="&#x456;" horiz-adv-x="257" 
d="M129 691q29 0 49.5 -21t20.5 -50t-20.5 -49.5t-49.5 -20.5t-50 20.5t-21 49.5t21 50t50 21zM67 0v475h123v-475h-123z" />
    <glyph glyph-name="uni0457" unicode="&#x457;" horiz-adv-x="257" 
d="M67 0v475h123v-475h-123zM213 674q26 0 43 -17.5t17 -43.5t-17 -43t-43 -17t-43.5 17t-17.5 43t17.5 43.5t43.5 17.5zM48 673q26 0 43 -17t17 -43t-17 -43t-43 -17t-43 17t-17 43t17 43t43 17z" />
    <glyph glyph-name="uni0458" unicode="&#x458;" horiz-adv-x="264" 
d="M136 691q29 0 49.5 -20.5t20.5 -49.5q0 -30 -20.5 -50.5t-49.5 -20.5t-50 20.5t-21 49.5t21 50t50 21zM197 -11q0 -75 -24 -121t-78 -75q-23 -12 -45.5 -19t-61.5 -14l-26 89q28 8 47 18t34 24q18 16 24.5 42t6.5 80v462h123v-486z" />
    <glyph glyph-name="uni0459" unicode="&#x459;" horiz-adv-x="718" 
d="M202 393v-179q0 -75 -19 -120.5t-63 -74.5q-18 -13 -36.5 -20t-50.5 -14l-26 89q22 11 36.5 23.5t22.5 31t11 44.5t2 65v237h386v-182h54q92 0 140.5 -37.5t48.5 -106.5q0 -73 -56 -114q-26 -20 -56.5 -27.5t-77.5 -7.5h-176v393h-140zM465 77h27q93 0 93 68
q0 18 -9 34.5t-24 25.5q-11 7 -26.5 9.5t-40.5 2.5h-20v-140z" />
    <glyph glyph-name="uni045A" unicode="&#x45a;" horiz-adv-x="751" 
d="M190 200v-200h-123v475h123v-193h185v193h123v-182h54q92 0 140.5 -37t48.5 -107q0 -73 -56 -114q-26 -20 -56.5 -27.5t-77.5 -7.5h-176v200h-185zM498 77h27q93 0 93 68q0 19 -9 35t-24 25q-11 7 -26.5 10t-40.5 3h-20v-141z" />
    <glyph glyph-name="uni045B" unicode="&#x45b;" horiz-adv-x="571" 
d="M191 406q52 45 93 64t86 19q73 0 112 -50q14 -18 20 -43t6 -64v-332h-125v298q0 42 -13.5 60t-43.5 18q-33 0 -65 -17.5t-70 -57.5v-301h-124v567h-51v79h51v69h124v-69h126v-79h-126v-161z" />
    <glyph glyph-name="uni045C" unicode="&#x45c;" horiz-adv-x="530" 
d="M368 0l-177 240v-240h-124v475h124v-194l166 194h155l-193 -214l204 -261h-155zM228 533l-35 56l189 113l44 -78z" />
    <glyph glyph-name="uni045E" unicode="&#x45e;" horiz-adv-x="522" 
d="M295 -75q-20 -49 -38.5 -81.5t-41 -51.5t-51 -26.5t-66.5 -7.5q-21 0 -39 3t-48 11l21 89q16 -3 27 -4t22 -1q34 0 55 18t42 67l20 45l-191 489h136l124 -344l127 344h121zM400 680q-5 -62 -40.5 -95.5t-97.5 -33.5q-30 0 -55.5 9.5t-44 26t-29.5 39t-11 48.5v6h69
q5 -31 22 -44.5t49 -13.5q33 0 49.5 13.5t20.5 44.5h68z" />
    <glyph glyph-name="uni045F" unicode="&#x45f;" horiz-adv-x="566" 
d="M344 -88h-123v88h-154v475h123v-393h185v393h123v-475h-154v-88z" />
    <glyph glyph-name="uni0462" unicode="&#x462;" horiz-adv-x="566" 
d="M-27 565h101v102h135v-102h155v-96h-155v-83h82q32 0 56 -1.5t43.5 -5.5t35 -10.5t31.5 -15.5q41 -25 63 -66t22 -92q0 -58 -27.5 -104t-75.5 -68q-17 -8 -30 -12.5t-29 -6.5t-38.5 -3t-56.5 -1h-211v469h-101v96zM209 99h69q41 0 61.5 5.5t35.5 19.5q14 12 21.5 31.5
t7.5 39.5q0 26 -11 47t-31 33q-15 9 -35.5 12.5t-56.5 3.5h-61v-192z" />
    <glyph glyph-name="uni0463" unicode="&#x463;" horiz-adv-x="460" 
d="M-1 475h85v146h123v-146h127v-82h-127v-100h54q92 0 140.5 -37.5t48.5 -106.5q0 -73 -56 -114q-26 -20 -56.5 -27.5t-77.5 -7.5h-176v393h-85v82zM207 77h27q93 0 93 68q0 18 -9 34.5t-24 25.5q-11 7 -26.5 9.5t-40.5 2.5h-20v-140z" />
    <glyph glyph-name="uni0472" unicode="&#x472;" horiz-adv-x="757" 
d="M386 682q70 0 130 -25.5t104 -70.5t68.5 -106.5t24.5 -133.5q0 -78 -26 -144t-71.5 -113.5t-109 -74.5t-138.5 -27q-71 0 -130.5 25.5t-102.5 70.5t-67.5 107.5t-24.5 136.5q0 77 25.5 142t71.5 112.5t109 74t137 26.5zM379 103q39 0 71.5 13.5t57.5 39t40.5 61
t20.5 79.5h-382q6 -43 22.5 -78.5t41.5 -61t57.5 -39.5t70.5 -14zM375 568q-36 0 -67 -12.5t-55.5 -35.5t-41 -54.5t-23.5 -70.5h377q-15 79 -65.5 126t-124.5 47z" />
    <glyph glyph-name="uni0473" unicode="&#x473;" horiz-adv-x="558" 
d="M285 491q51 0 93.5 -18.5t74 -51.5t49 -78t17.5 -98q0 -56 -18 -103t-50.5 -81t-77.5 -53t-98 -19q-51 0 -94.5 18.5t-75 51t-49 77.5t-17.5 98q0 55 18.5 102.5t51.5 81.5t78 53.5t98 19.5zM282 90q42 0 68.5 29.5t34.5 80.5h-212q9 -51 38 -80.5t71 -29.5zM277 392
q-42 0 -69.5 -29.5t-35.5 -80.5h212q-9 51 -37 80.5t-70 29.5z" />
    <glyph glyph-name="uni0474" unicode="&#x474;" horiz-adv-x="550" 
d="M354 364q9 24 20.5 45.5t28 37.5t39.5 25.5t57 9.5q24 0 44 -6.5t31 -14.5l-35 -78q-15 7 -28 7q-17 0 -27 -11t-21 -37l-136 -342h-134l-186 475h137l124 -341z" />
    <glyph glyph-name="uni0475" unicode="&#x475;" horiz-adv-x="700" 
d="M476 511q16 42 33 74t38 54t48.5 33.5t65.5 11.5q32 0 55.5 -8.5t33.5 -14.5l-36 -82q-9 4 -17 6t-19 2q-13 0 -23 -4t-19 -16t-19.5 -33.5t-24.5 -55.5l-188 -478h-142l-257 667h143l191 -530z" />
    <glyph glyph-name="uni0490" unicode="&#x490;" horiz-adv-x="513" 
d="M498 559h-289v-559h-135v667h289v64h135v-172z" />
    <glyph glyph-name="uni0491" unicode="&#x491;" horiz-adv-x="361" 
d="M238 524h123v-131h-171v-393h-123v475h171v49z" />
    <glyph glyph-name="uni04D9" unicode="&#x4d9;" horiz-adv-x="522" 
d="M39 404q114 86 233 86q49 0 89.5 -17.5t69 -49t44.5 -76t16 -98.5q0 -57 -18 -105t-50.5 -82.5t-77.5 -54t-98 -19.5q-98 0 -150 62.5t-52 180.5v25h313q-5 41 -12 62.5t-21 38.5q-28 34 -81 34q-35 0 -70 -13t-87 -44zM169 176q5 -57 24.5 -82t59.5 -25q80 0 103 111z
" />
    <glyph glyph-name="Wgrave" unicode="&#x1e80;" horiz-adv-x="979" 
d="M780 0h-140l-151 472l-153 -472h-135l-196 667h135l138 -493l158 493h119l160 -493l133 493h126zM587 724l-224 78l40 91l213 -103z" />
    <glyph glyph-name="wgrave" unicode="&#x1e81;" horiz-adv-x="768" 
d="M611 0h-128l-98 328l-98 -328h-130l-150 475h127l96 -328l97 328h126l97 -328l95 328h116zM467 531l-199 93l45 78l189 -113z" />
    <glyph glyph-name="Wacute" unicode="&#x1e82;" horiz-adv-x="979" 
d="M391 724l-28 65l213 104l40 -89v-1zM780 0h-140l-151 472l-153 -472h-135l-196 667h135l138 -493l158 493h119l160 -493l133 493h126z" />
    <glyph glyph-name="wacute" unicode="&#x1e83;" horiz-adv-x="768" 
d="M611 0h-128l-98 328l-98 -328h-130l-150 475h127l96 -328l97 328h126l97 -328l95 328h116zM303 533l-34 56l189 113l44 -78z" />
    <glyph glyph-name="Wdieresis" unicode="&#x1e84;" horiz-adv-x="979" 
d="M780 0h-140l-151 472l-153 -472h-135l-196 667h135l138 -493l158 493h119l160 -493l133 493h126zM616 870q27 0 45.5 -18.5t18.5 -45.5t-18 -45.5t-46 -18.5q-27 0 -45.5 18.5t-18.5 45.5t18.5 45.5t45.5 18.5zM364 870q26 0 44.5 -19t18.5 -45q0 -27 -18.5 -45.5
t-45.5 -18.5q-26 0 -45 19t-19 45q0 27 19 45.5t46 18.5z" />
    <glyph glyph-name="wdieresis" unicode="&#x1e85;" horiz-adv-x="768" 
d="M611 0h-128l-98 328l-98 -328h-130l-150 475h127l96 -328l97 328h126l97 -328l95 328h116zM491 674q26 0 43 -17.5t17 -43.5t-17 -43t-43 -17t-43.5 17t-17.5 43t17.5 43.5t43.5 17.5zM280 674q26 0 43.5 -17t17.5 -43t-17.5 -43.5t-43.5 -17.5t-43 17t-17 43t17 43.5
t43 17.5z" />
    <glyph glyph-name="Ygrave" unicode="&#x1ef2;" horiz-adv-x="620" 
d="M378 292v-292h-134v292l-239 375h160l149 -267l154 267h148zM411 724l-224 78l40 91l213 -103z" />
    <glyph glyph-name="ygrave" unicode="&#x1ef3;" horiz-adv-x="522" 
d="M295 -75q-20 -49 -38.5 -81.5t-41 -51.5t-51 -26.5t-66.5 -7.5q-21 0 -39 3t-48 11l21 89q16 -3 27 -4t22 -1q34 0 55 18t42 67l20 45l-191 489h136l124 -344l127 344h121zM348 531l-199 93l45 78l189 -113z" />
    <glyph glyph-name="figuredash" unicode="&#x2012;" horiz-adv-x="539" 
d="M27 227v82h485v-82h-485z" />
    <glyph glyph-name="endash" unicode="&#x2013;" horiz-adv-x="539" 
d="M27 227v82h485v-82h-485z" />
    <glyph glyph-name="emdash" unicode="&#x2014;" horiz-adv-x="1024" 
d="M27 227v82h969v-82h-969z" />
    <glyph glyph-name="quoteleft" unicode="&#x2018;" horiz-adv-x="263" 
d="M59 441l44 241h82v-241h-126z" />
    <glyph glyph-name="quoteright" unicode="&#x2019;" horiz-adv-x="265" 
d="M164 441h-82v241h125z" />
    <glyph glyph-name="quotesinglbase" unicode="&#x201a;" horiz-adv-x="297" 
d="M174 -113h-82v240h125z" />
    <glyph glyph-name="quotedblleft" unicode="&#x201c;" horiz-adv-x="439" 
d="M235 460l43 222h82v-222h-125zM60 460l44 222h81v-222h-125z" />
    <glyph glyph-name="quotedblright" unicode="&#x201d;" horiz-adv-x="439" 
d="M163 460h-81v222h124zM338 460h-81v222h124z" />
    <glyph glyph-name="quotedblbase" unicode="&#x201e;" horiz-adv-x="439" 
d="M163 -94h-81v221h124zM338 -94h-81v221h124z" />
    <glyph glyph-name="dagger" unicode="&#x2020;" 
d="M352 306l-6 -420h-113l-8 420h-187v95h186l-6 266h138l-4 -266h185v-95h-185z" />
    <glyph glyph-name="daggerdbl" unicode="&#x2021;" 
d="M349 168l-4 -282h-112l-6 282h-189v92h188l-2 127h-186v93h184l-3 187h138l-3 -187h184v-93h-187l-1 -127h188v-92h-189z" />
    <glyph glyph-name="bullet" unicode="&#x2022;" 
d="M286 477q29 0 54.5 -10.5t44.5 -29.5t30 -44t11 -54t-11 -54.5t-29.5 -44t-44 -29.5t-53.5 -11q-29 0 -54.5 11t-44 29.5t-29.5 44t-11 54.5q0 28 11 53t29.5 44t43.5 30t53 11z" />
    <glyph glyph-name="ellipsis" unicode="&#x2026;" horiz-adv-x="894" 
d="M729 142q31 0 52.5 -21.5t21.5 -52.5q0 -32 -21 -53t-53 -21t-53 21t-21 52q0 32 21.5 53.5t52.5 21.5zM446 141q32 0 53 -21t21 -53t-21 -52.5t-53 -20.5q-31 0 -52 21t-21 52q0 32 21 53t52 21zM166 142q31 0 52.5 -21.5t21.5 -53.5q0 -31 -21 -52t-53 -21t-53 21
t-21 52q0 32 21 53.5t53 21.5z" />
    <glyph glyph-name="perthousand" unicode="&#x2030;" horiz-adv-x="1079" 
d="M542 344q34 0 63.5 -13.5t51 -36.5t33.5 -55.5t12 -69.5q0 -39 -12.5 -72t-34 -57t-51.5 -37.5t-66 -13.5q-35 0 -64 13t-50 36t-33 55t-12 71t12 72t34 57t52 37.5t65 13.5zM185 684q34 0 63.5 -13t50.5 -36.5t33 -55.5t12 -70q0 -39 -12.5 -72.5t-34 -57.5t-51.5 -37.5
t-66 -13.5q-35 0 -64 13t-50 36.5t-33 55.5t-12 71t12 72t34 57t52 37.5t66 13.5zM159 -14l-54 37l457 662l55 -39zM898 344q35 0 64 -13t50 -36.5t33 -56t12 -71.5t-12 -71.5t-34 -56.5t-51.5 -37t-65.5 -13q-35 0 -64 13t-50 36t-33 55t-12 71t12 72t34 57t52 37.5
t65 13.5zM541 268q-32 0 -51 -26.5t-19 -72.5q0 -48 19 -76t52 -28t51 25.5t18 73.5t-19 76t-51 28zM183 609q-32 0 -51 -26.5t-19 -71.5q0 -50 19 -78t53 -28q32 0 50.5 26t18.5 73q0 48 -19.5 76.5t-51.5 28.5zM897 268q-32 0 -51.5 -27t-19.5 -72q0 -48 19.5 -76
t52.5 -28q32 0 50.5 26t18.5 73q0 48 -19 76t-51 28z" />
    <glyph glyph-name="guilsinglleft" unicode="&#x2039;" horiz-adv-x="276" 
d="M161 57l-132 190l132 184l69 -41l-86 -143l86 -150z" />
    <glyph glyph-name="guilsinglright" unicode="&#x203a;" horiz-adv-x="276" 
d="M115 57l-70 41l86 147l-86 146l70 40l132 -186z" />
    <glyph glyph-name="fraction" unicode="&#x2044;" horiz-adv-x="512" 
d="M54 -14l-54 37l457 662l55 -39z" />
    <glyph glyph-name="uni2070" unicode="&#x2070;" horiz-adv-x="309" 
d="M156 680q54 0 87 -44.5t33 -117.5q0 -78 -33.5 -125t-90.5 -47q-54 0 -86.5 45t-32.5 118q0 77 34 124t89 47zM154 621q-25 0 -38 -26.5t-13 -77.5q0 -54 14 -83t40 -29q23 0 36.5 27.5t13.5 74.5q0 52 -14.5 83t-38.5 31z" />
    <glyph glyph-name="uni2074" unicode="&#x2074;" horiz-adv-x="315" 
d="M242 411v-59h-82v59h-134l-20 52l186 219l50 -17v-197h42v-57h-42zM160 555l-67 -87h67v87z" />
    <glyph glyph-name="uni2075" unicode="&#x2075;" horiz-adv-x="295" 
d="M122 571q63 -5 97 -31t34 -71q0 -57 -55.5 -88.5t-155.5 -33.5l-6 58q72 5 106 20.5t34 44.5q0 23 -23 34t-77 13l-20 47l21 108h172v-58h-119z" />
    <glyph glyph-name="uni2076" unicode="&#x2076;" horiz-adv-x="298" 
d="M256 619q-127 -15 -153 -92q27 24 65 24q42 0 69 -27.5t27 -70.5q0 -48 -30.5 -78t-78.5 -30q-27 0 -49 10.5t-38.5 29t-25.5 44t-9 55.5q0 89 74 143q29 23 61.5 34t83.5 16zM103 471q7 -69 53 -69q17 0 27.5 13t10.5 33t-11.5 32.5t-30.5 12.5q-30 0 -49 -22z" />
    <glyph glyph-name="uni2077" unicode="&#x2077;" horiz-adv-x="321" 
d="M133 343l-71 25l128 241h-139v64h221l6 -44z" />
    <glyph glyph-name="uni2078" unicode="&#x2078;" horiz-adv-x="306" 
d="M204 524q38 -20 53 -38.5t15 -44.5q0 -20 -10 -37.5t-27 -30.5t-41 -20t-51 -7q-50 0 -80 22.5t-30 60.5q0 27 15 47t54 45q-31 21 -42 37.5t-11 39.5q0 36 31.5 58.5t83.5 22.5q44 0 69 -19t25 -53q0 -23 -12.5 -42.5t-41.5 -40.5zM156 552q20 13 27.5 23t7.5 22
q0 26 -34 26q-17 0 -27.5 -8t-10.5 -21q0 -12 8.5 -21.5t28.5 -20.5zM150 491q-24 -16 -33.5 -28.5t-9.5 -26.5q0 -15 12 -24t32 -9t34 11t14 27q0 12 -7.5 21.5t-26.5 19.5z" />
    <glyph glyph-name="uni2079" unicode="&#x2079;" horiz-adv-x="298" 
d="M41 403q127 16 153 92q-27 -24 -65 -24q-42 0 -69 27.5t-27 70.5q0 48 30.5 78t78.5 30q27 0 49 -10.5t38.5 -29t25.5 -44t9 -55.5q0 -87 -74 -143q-29 -23 -61.5 -34t-83.5 -16zM194 551q-8 69 -53 69q-17 0 -27.5 -13t-10.5 -33t11.5 -32.5t30.5 -12.5q30 0 49 22z" />
    <glyph glyph-name="uni207D" unicode="&#x207d;" horiz-adv-x="202" 
d="M132 176q-55 66 -80 127.5t-25 129.5q0 32 5.5 61t18 58.5t32.5 60t48 64.5l49 -34q-20 -31 -33.5 -58t-22 -53t-12.5 -52t-4 -54q0 -29 4 -55t12.5 -52t22 -52.5t33.5 -57.5z" />
    <glyph glyph-name="uni207E" unicode="&#x207e;" horiz-adv-x="202" 
d="M71 677q104 -121 104 -250q0 -32 -7.5 -66t-21 -66.5t-32.5 -63t-43 -55.5l-48 34q38 58 55 108t17 108q0 57 -17 107.5t-55 109.5z" />
    <glyph glyph-name="uni2080" unicode="&#x2080;" horiz-adv-x="309" 
d="M156 328q54 0 87 -44.5t33 -117.5q0 -78 -33.5 -125t-90.5 -47q-54 0 -86.5 45t-32.5 118q0 77 34 124t89 47zM154 269q-25 0 -38 -26.5t-13 -77.5q0 -54 14 -83t40 -29q23 0 36.5 27.5t13.5 74.5q0 52 -14.5 83t-38.5 31z" />
    <glyph glyph-name="uni2081" unicode="&#x2081;" horiz-adv-x="241" 
d="M118 0v239l-67 -34l-32 57l122 68l60 -21v-309h-83z" />
    <glyph glyph-name="uni2082" unicode="&#x2082;" horiz-adv-x="326" 
d="M52 0l-16 55q74 57 114 101t40 67q0 34 -42 34q-29 0 -84 -21l-25 63q28 14 61 22t63 8q53 0 84 -26.5t31 -71.5q0 -43 -29 -82t-90 -78h127v-71h-234z" />
    <glyph glyph-name="uni2083" unicode="&#x2083;" horiz-adv-x="299" 
d="M34 304q38 14 65 20.5t51 6.5q45 0 71.5 -19.5t26.5 -53.5q0 -29 -17.5 -48.5t-49.5 -23.5q37 -1 59 -21.5t22 -53.5q0 -51 -57 -81t-152 -30h-17v58q142 4 142 55q0 37 -78 37h-30v55q45 0 73 11t28 28q0 23 -35 23q-8 0 -13.5 -0.5t-13.5 -2.5t-20 -5.5t-32 -9.5z" />
    <glyph glyph-name="uni2084" unicode="&#x2084;" horiz-adv-x="315" 
d="M242 59v-59h-82v59h-134l-20 52l186 219l50 -17v-197h42v-57h-42zM160 203l-67 -87h67v87z" />
    <glyph glyph-name="uni2085" unicode="&#x2085;" horiz-adv-x="295" 
d="M122 219q63 -5 97 -31t34 -71q0 -57 -55.5 -88.5t-155.5 -33.5l-6 58q72 5 106 20.5t34 44.5q0 23 -23 34t-77 13l-20 47l21 108h172v-58h-119z" />
    <glyph glyph-name="uni2086" unicode="&#x2086;" horiz-adv-x="298" 
d="M256 267q-127 -15 -153 -92q27 24 65 24q42 0 69 -27.5t27 -70.5q0 -48 -30.5 -78t-78.5 -30q-27 0 -49 10.5t-38.5 29t-25.5 44t-9 55.5q0 87 74 143q29 23 61.5 34t83.5 16zM103 119q7 -69 53 -69q17 0 27.5 13t10.5 33t-11.5 32.5t-30.5 12.5q-30 0 -49 -22z" />
    <glyph glyph-name="uni2087" unicode="&#x2087;" horiz-adv-x="321" 
d="M133 -9l-71 25l128 241h-139v64h221l6 -44z" />
    <glyph glyph-name="uni2088" unicode="&#x2088;" horiz-adv-x="306" 
d="M204 172q38 -20 53 -38.5t15 -44.5q0 -20 -10 -37.5t-27 -30.5t-41 -20t-51 -7q-50 0 -80 22.5t-30 60.5q0 27 15.5 47.5t53.5 44.5q-31 21 -42 37.5t-11 39.5q0 36 31.5 58.5t83.5 22.5q44 0 69 -19.5t25 -52.5q0 -24 -12.5 -43t-41.5 -40zM156 200q20 13 27.5 22.5
t7.5 22.5q0 26 -34 26q-17 0 -27.5 -8t-10.5 -22q0 -11 8.5 -20.5t28.5 -20.5zM150 139q-24 -16 -33.5 -28.5t-9.5 -26.5q0 -15 12 -24t32 -9t34 11t14 27q0 12 -7.5 21.5t-26.5 19.5z" />
    <glyph glyph-name="uni2089" unicode="&#x2089;" horiz-adv-x="298" 
d="M41 51q127 16 153 92q-27 -24 -65 -24q-42 0 -69 27.5t-27 70.5q0 48 30.5 78t78.5 30q27 0 49 -10.5t38.5 -29t25.5 -44t9 -55.5q0 -87 -74 -143q-29 -23 -61.5 -34t-83.5 -16zM194 199q-8 69 -53 69q-17 0 -27.5 -13t-10.5 -33t11.5 -32.5t30.5 -12.5q30 0 49 22z" />
    <glyph glyph-name="uni208D" unicode="&#x208d;" horiz-adv-x="202" 
d="M132 -90q-55 66 -80 127.5t-25 129.5q0 32 5.5 61t18 58.5t32.5 60t48 64.5l49 -34q-20 -31 -33.5 -58t-22 -53t-12.5 -52t-4 -54q0 -29 4 -55t12.5 -52t22 -52.5t33.5 -57.5z" />
    <glyph glyph-name="uni208E" unicode="&#x208e;" horiz-adv-x="202" 
d="M22 -57q20 31 33.5 57.5t22 52.5t12.5 52t4 55q0 28 -4 54t-12.5 52t-22 53t-33.5 58l49 34q28 -34 48 -64.5t32.5 -60t18 -58.5t5.5 -61q0 -68 -25 -129.5t-80 -127.5z" />
    <glyph glyph-name="franc" unicode="&#x20a3;" horiz-adv-x="675" 
d="M209 566v-174h179v-100h-179v-292h-135v667h412v-101h-277zM680 297q-11 3 -16 4t-10 1q-58 0 -117 -120v-182h-111v392h107v-85q30 51 59.5 72t71.5 21q11 0 18.5 -1.5t18.5 -6.5z" />
    <glyph glyph-name="lira" unicode="&#x20a4;" horiz-adv-x="594" 
d="M163 461q11 71 49 125t92 77q49 20 117 20q19 0 35 -1.5t32 -4.5t34 -8t41 -13l-37 -95l-10.5 3l-17.5 5q-20 5 -33.5 7t-33.5 2q-27 0 -43.5 -4t-32.5 -15q-51 -35 -64 -122l-2 -15h232v-98h-247l-9 -56h246v-98h-266q-8 -21 -16.5 -34.5t-25.5 -29.5h351v-106h-510
l-24 94q40 2 61.5 19.5t33.5 56.5h-87v98h105l9 56h-104v98h119z" />
    <glyph glyph-name="peseta" unicode="&#x20a7;" horiz-adv-x="1105" 
d="M285 667q78 0 124.5 -11.5t77.5 -38.5q26 -23 40.5 -59.5t14.5 -79.5q0 -93 -66.5 -145t-184.5 -52h-82v-281h-135v667h211zM270 376q64 0 99 25.5t35 72.5q0 26 -10.5 46.5t-29.5 31.5q-16 9 -33.5 12.5t-52.5 3.5h-69v-192h61zM787 2q-28 -7 -44.5 -9.5t-32.5 -2.5
q-35 0 -62 9t-38 24q-11 14 -14.5 31.5t-3.5 52.5v197h-66v64h66v114h96v-114h99v-64h-99v-172q0 -41 11 -54t47 -13h5.5t6.5 0.5t10.5 1t18.5 2.5v-67zM1073 301q-17 3 -27.5 5t-18 2.5t-14 1t-15.5 0.5q-34 0 -53 -9t-19 -24q0 -17 26 -31q2 -2 4.5 -3t9.5 -4t21.5 -9
t40.5 -16q77 -32 77 -103q0 -58 -50 -89.5t-144 -31.5q-15 0 -26.5 0.5t-22.5 2t-22.5 4t-26.5 6.5l16 70q26 -5 41.5 -7t36.5 -2q94 0 94 41q0 8 -2.5 13.5t-10.5 11.5t-23 13t-40 17q-54 22 -76.5 46t-22.5 60q0 53 45 83t123 30q11 0 20 -0.5t19.5 -1.5t23 -3.5
t31.5 -5.5z" />
    <glyph glyph-name="Euro" unicode="&#x20ac;" 
d="M573 65q-48 -41 -98.5 -59.5t-115.5 -18.5q-104 0 -174 62q-17 15 -30 31t-23.5 36t-18.5 45.5t-16 59.5h-95v85h87q-2 8 -2 13.5v16.5v20.5t2 12.5q1 3 1 5h-88v88h101q9 32 18.5 55.5t20 41.5t23.5 33t30 29q34 28 76 42.5t89 14.5q58 0 106.5 -17.5t103.5 -58.5
l-59 -74q-41 27 -73.5 39t-66.5 12q-47 0 -79.5 -28.5t-53.5 -88.5h234v-88h-250q-2 -8 -2 -16.5v-27.5v-10l1 -3v-2v-1v-5v-2v-1h251v-85h-242q8 -39 18 -60t29 -40q37 -37 94 -37q36 0 67.5 11.5t75.5 40.5z" />
    <glyph glyph-name="uni2113" unicode="&#x2113;" horiz-adv-x="500" 
d="M249 269q-11 -56 -17.5 -90.5t-10 -56.5t-4.5 -35t-1 -26q0 -25 18 -25q25 0 51 54q5 11 9 14.5t10 3.5q13 0 13 -15q0 -11 -7 -27t-19 -33q-19 -24 -37 -35.5t-39 -11.5q-32 0 -49.5 23t-17.5 65q0 10 0.5 20t1.5 23.5t3 33t5 50.5q-23 -21 -33.5 -29.5t-15.5 -8.5
t-9.5 5t-4.5 11q0 5 4.5 11t15.5 16l9.5 9.5t14 14.5t15 15.5t11.5 12.5q41 215 89 317.5t108 102.5q29 0 46 -22t17 -59q0 -41 -17.5 -92.5t-46.5 -99.5q-18 -29 -44 -61t-68 -75zM260 333q61 69 93 134.5t32 125.5q0 20 -6 32t-17 12t-22.5 -12t-18.5 -32
q-14 -40 -30 -106.5t-31 -153.5z" />
    <glyph glyph-name="uni2116" unicode="&#x2116;" horiz-adv-x="1019" 
d="M506 0l-308 441v-441h-124v667h127l311 -447v447h124v-667h-130zM721 46v84h278v-84h-278zM863 464q30 0 55 -10.5t43 -29.5t28 -45t10 -57q0 -33 -10.5 -60t-29.5 -47t-44.5 -31t-56.5 -11q-30 0 -55 10.5t-43 29.5t-28.5 45t-10.5 57q0 32 10.5 59.5t29.5 47.5t45 31
t57 11zM859 392q-23 0 -37.5 -19.5t-14.5 -51.5q0 -34 15 -54.5t40 -20.5q23 0 37 19t14 51q0 35 -14.5 55.5t-39.5 20.5z" />
    <glyph glyph-name="trademark" unicode="&#x2122;" horiz-adv-x="802" 
d="M705 288l-32 243l-88 -243h-70l-90 243l-29 -243h-78l53 379h87l96 -259l92 259h85l56 -379h-82zM209 604v-316h-84v316h-120v63h321v-63h-117z" />
    <glyph glyph-name="Omega" unicode="&#x2126;" horiz-adv-x="719" 
d="M404 0v104q16 3 41.5 16.5t49.5 40.5t41 69t17 103q0 51 -14 94t-39.5 74.5t-61 49.5t-78.5 18t-78.5 -17.5t-61 -49t-40 -75t-14.5 -94.5q0 -60 17 -102t41 -69t49 -41t42 -17v-104h-291v101h135q-18 11 -39 32t-38.5 51.5t-29.5 72t-12 93.5q0 72 23.5 132t65.5 103
t101 67t130 24t129.5 -24t100.5 -67t65.5 -103t23.5 -132q0 -53 -11.5 -94t-29.5 -72t-38.5 -51.5t-38.5 -31.5h134v-101h-291z" />
    <glyph glyph-name="estimated" unicode="&#x212e;" horiz-adv-x="798" 
d="M170 311q-6 0 -6 -4v-181q0 -10 9 -21q43 -45 101 -71.5t126 -26.5q72 0 133 29.5t105 80.5h54q-51 -59 -127 -94.5t-166 -35.5q-77 0 -144 26t-117.5 71.5t-79.5 106t-29 129.5t29 129.5t79.5 105.5t117.5 71t144 26q76 0 143.5 -26t118 -71t79.5 -105.5t29 -129.5v-9
h-599zM634 516q0 12 -10 22q-43 44 -100.5 69t-123.5 25q-67 0 -125 -26t-101 -71q-10 -10 -10 -23v-177q0 -5 6 -5h459q5 0 5 5v181z" />
    <glyph glyph-name="onethird" unicode="&#x2153;" horiz-adv-x="714" 
d="M146 -16l-64 39l439 664l64 -42zM141 352v239l-67 -34l-32 57l122 68l60 -21v-309h-83zM435 304q38 14 65 20.5t51 6.5q45 0 71.5 -19.5t26.5 -53.5q0 -29 -17.5 -48.5t-49.5 -23.5q37 -1 59 -21.5t22 -53.5q0 -51 -57 -81t-152 -30h-17v58q142 4 142 55q0 37 -78 37h-30
v55q45 0 73 11t28 28q0 23 -35 23q-8 0 -13.5 -0.5t-13.5 -2.5t-20 -5.5t-32 -9.5z" />
    <glyph glyph-name="twothirds" unicode="&#x2154;" horiz-adv-x="714" 
d="M166 -16l-64 39l439 664l64 -42zM434 304q38 14 65 20.5t51 6.5q45 0 71.5 -19.5t26.5 -53.5q0 -29 -17.5 -48.5t-49.5 -23.5q37 -1 59 -21.5t22 -53.5q0 -51 -57 -81t-152 -30h-17v58q142 4 142 55q0 37 -78 37h-30v55q45 0 73 11t28 28q0 23 -35 23q-8 0 -13.5 -0.5
t-13.5 -2.5t-20 -5.5t-32 -9.5zM52 354l-16 55q78 62 116 103t38 65q0 34 -42 34q-15 0 -35 -5t-49 -16l-25 63q26 14 59.5 22t64.5 8q53 0 84 -26.5t31 -71.5q0 -43 -29 -82t-90 -78h127v-71h-234z" />
    <glyph glyph-name="oneeighth" unicode="&#x215b;" horiz-adv-x="655" 
d="M146 -16l-64 39l439 664l64 -42zM141 352v239l-67 -34l-32 57l122 68l60 -21v-309h-83zM554 172q38 -20 52.5 -38.5t14.5 -44.5q0 -20 -10 -37.5t-27 -30.5t-41 -20t-51 -7q-50 0 -80 22.5t-30 60.5q0 27 15.5 47.5t53.5 44.5q-30 21 -41.5 37.5t-11.5 39.5
q0 36 31.5 58.5t83.5 22.5q44 0 69 -19.5t25 -52.5q0 -24 -12 -43t-41 -40zM505 200q20 14 27.5 23t7.5 22q0 26 -34 26q-17 0 -27.5 -8t-10.5 -22q0 -11 8.5 -20.5t28.5 -20.5zM499 139q-24 -16 -33.5 -28t-9.5 -27t12 -24t32 -9t34 11t14 27q0 23 -34 41z" />
    <glyph glyph-name="threeeighths" unicode="&#x215c;" horiz-adv-x="635" 
d="M126 -16l-64 39l439 664l64 -42zM533 172q38 -20 53 -38.5t15 -44.5q0 -20 -10 -37.5t-27 -30.5t-41 -20t-51 -7q-50 0 -80 22.5t-30 60.5q0 27 15 47t53 45q-30 21 -41.5 37.5t-11.5 39.5q0 36 32 58.5t84 22.5q44 0 69 -19.5t25 -52.5q0 -24 -12.5 -43t-41.5 -40z
M485 200q20 13 27.5 22.5t7.5 22.5q0 26 -34 26q-17 0 -28 -8t-11 -22q0 -11 8.5 -20.5t29.5 -20.5zM478 139q-23 -16 -32.5 -28.5t-9.5 -26.5q0 -15 12 -24t32 -9t34 11t14 27q0 12 -7.5 21t-26.5 20zM39 656q38 14 65 20.5t51 6.5q45 0 71.5 -19.5t26.5 -53.5
q0 -29 -17.5 -48.5t-49.5 -23.5q37 -1 59 -21.5t22 -53.5q0 -51 -57 -81t-152 -30h-17v58q142 4 142 55q0 37 -78 37h-30v55q45 0 73 11t28 28q0 23 -35 23q-7 0 -13 -0.5t-14.5 -2.5t-20.5 -5.5t-31 -9.5z" />
    <glyph glyph-name="fiveeighths" unicode="&#x215d;" horiz-adv-x="617" 
d="M108 -16l-64 39l439 664l64 -42zM516 172q38 -20 53 -38.5t15 -44.5q0 -41 -37 -68t-93 -27q-50 0 -80 22.5t-30 60.5q0 27 15.5 47.5t53.5 44.5q-31 21 -42 37.5t-11 39.5q0 36 32 58.5t84 22.5q44 0 69 -19.5t25 -52.5q0 -24 -12.5 -43t-41.5 -40zM475 205q28 18 28 40
q0 26 -34 26q-17 0 -28 -8t-11 -22q0 -11 8.5 -20.5t28.5 -20.5q2 1 2.5 1.5t2.5 1.5zM461 139q-24 -16 -33.5 -28t-9.5 -27t12 -24t32 -9t34.5 11t14.5 27q0 12 -7.5 21t-26.5 20zM123 571q63 -5 97 -31t34 -71q0 -57 -55.5 -88.5t-155.5 -33.5l-6 58q72 5 106 20.5
t34 44.5q0 23 -23 34t-77 13l-20 47l21 108h172v-58h-119z" />
    <glyph glyph-name="seveneighths" unicode="&#x215e;" horiz-adv-x="598" 
d="M89 -16l-64 39l439 664l64 -42zM497 172q38 -20 52.5 -38.5t14.5 -44.5q0 -20 -10 -37.5t-27 -30.5t-41 -20t-51 -7q-50 0 -80 22.5t-30 60.5q0 27 15.5 47.5t53.5 44.5q-30 21 -41.5 37.5t-11.5 39.5q0 36 31.5 58.5t83.5 22.5q44 0 69 -19.5t25 -52.5q0 -23 -12 -42.5
t-41 -40.5zM448 200q19 11 27 22t8 23q0 26 -34 26q-17 0 -27.5 -8t-10.5 -22q0 -11 8.5 -20.5t28.5 -20.5zM442 139q-24 -16 -33.5 -28t-9.5 -27t12 -24t32 -9t34 11t14 27q0 12 -7.5 21.5t-26.5 19.5zM148 343l-71 25l128 241h-139v64h221l6 -44z" />
    <glyph glyph-name="partialdiff" unicode="&#x2202;" horiz-adv-x="522" 
d="M25 645q32 16 57.5 27.5t47.5 18.5t42 10t41 3q63 0 114 -26.5t88 -75t57 -116.5t20 -150q0 -81 -17 -145.5t-49 -109.5t-77.5 -69t-102.5 -24q-50 0 -91 18t-70 51t-45 80t-16 104q0 56 16 102t45.5 78.5t70.5 50.5t92 18q26 0 49 -5.5t52 -19.5q-14 61 -49 96t-83 35
q-32 0 -63.5 -10.5t-76.5 -34.5zM363 341q0 2 -11.5 10t-25.5 15q-40 20 -74 20q-48 0 -74 -39t-26 -109q0 -66 26 -106.5t68 -40.5q27 0 48.5 17t37 48t23.5 75.5t8 99.5v10z" />
    <glyph glyph-name="Delta" unicode="&#x2206;" 
d="M26 0l229 667h70l226 -667h-525zM289 518l-144 -429h286z" />
    <glyph glyph-name="product" unicode="&#x220f;" horiz-adv-x="704" 
d="M617 569v-569h-124v569h-282v-569h-124v569h-75v98h680v-98h-75z" />
    <glyph glyph-name="summation" unicode="&#x2211;" 
d="M49 0v84l205 256l-205 248v79h477v-98h-319l194 -226l-192 -239h317v-104h-477z" />
    <glyph glyph-name="minus" unicode="&#x2212;" 
d="M36 217v101h504v-101h-504z" />
    <glyph glyph-name="radical" unicode="&#x221a;" horiz-adv-x="698" 
d="M407 0h-96l-153 370l-113 -38l-33 92l208 68l140 -329l223 569l103 -35z" />
    <glyph glyph-name="infinity" unicode="&#x221e;" horiz-adv-x="669" 
d="M657 271q0 -29 -11 -54.5t-29.5 -44.5t-44 -30.5t-53.5 -11.5q-29 0 -54 8.5t-47.5 22.5t-43.5 30.5t-41 33.5q-30 -29 -55 -47.5t-47 -29.5t-41.5 -15.5t-38.5 -4.5q-28 0 -53 11.5t-44 30.5t-30.5 44.5t-11.5 52.5q0 28 10.5 53.5t29.5 45t43.5 30.5t53.5 11
q44 0 87 -20.5t97 -74.5q45 44 88.5 70t102.5 26q28 0 52 -11t42 -29.5t28.5 -43.5t10.5 -53zM591 274q0 29 -22.5 49.5t-58.5 20.5q-20 0 -37 -7t-32 -17.5t-29 -23.5t-27 -25q14 -12 30 -25t33 -23.5t34.5 -17t35.5 -6.5q14 0 27.5 6t23.5 16.5t16 24t6 28.5zM282 270
q-33 32 -63.5 52.5t-67.5 20.5q-32 0 -52.5 -20.5t-20.5 -49.5q0 -31 21.5 -53t50.5 -22q19 0 37 7t34.5 17.5t31.5 23.5t29 24z" />
    <glyph glyph-name="integral" unicode="&#x222b;" 
d="M484 615q-28 13 -50.5 20t-44.5 7q-21 0 -34 -8.5t-20 -22t-9.5 -30t-2.5 -33.5v-523v-46t-2.5 -48t-8.5 -46.5t-19 -41.5q-23 -35 -59 -52.5t-81 -17.5q-16 0 -37 4t-44 11l15 91q14 -2 23 -3.5t15.5 -2.5t12 -1h11.5q28 0 42 13.5t19.5 34t5.5 43.5v43v549
q0 36 9.5 69.5t30.5 60t53.5 42t79.5 15.5q60 0 137 -40z" />
    <glyph glyph-name="approxequal" unicode="&#x2248;" 
d="M543 413q-33 -63 -69 -94.5t-84 -31.5q-27 0 -54 7.5t-53 16.5q-24 8 -38.5 12t-24.5 6t-16 2h-13q-14 0 -33.5 -13t-45.5 -53l-79 47q37 62 72.5 88t82.5 26q32 0 59 -8t53 -17q22 -7 36.5 -10.5t24 -5t14.5 -1.5h9q10 0 18.5 2.5t18 10.5t20.5 21.5t26 36.5zM543 232
q-33 -63 -69 -94.5t-84 -31.5q-27 0 -54 7.5t-53 16.5q-24 8 -38.5 12t-24.5 6t-16 2h-13q-14 0 -33.5 -13t-45.5 -53l-79 47q37 62 72.5 88t82.5 26q32 0 59 -8t53 -17q22 -7 36.5 -10.5t24 -5t14.5 -1.5h9q10 0 18.5 2.5t18 10.5t20.5 21.5t26 36.5z" />
    <glyph glyph-name="notequal" unicode="&#x2260;" horiz-adv-x="550" 
d="M246 132l-88 -164l-75 40l67 124h-119v101h174l38 68h-212v101h267l82 152l75 -38l-60 -114h123v-101h-179l-37 -68h216v-101h-272z" />
    <glyph glyph-name="lessequal" unicode="&#x2264;" 
d="M30 351v96l517 208v-102l-396 -154l396 -154v-106zM30 0v101h517v-101h-517z" />
    <glyph glyph-name="greaterequal" unicode="&#x2265;" 
d="M29 139v104l395 156l-395 152v104l517 -208v-96zM29 0v101h517v-101h-517z" />
    <glyph glyph-name="lozenge" unicode="&#x25ca;" 
d="M324 0h-78l-199 377l204 363h81l197 -366zM291 641l-147 -265l143 -274l144 272z" />
    <glyph glyph-name="uniF62C" unicode="&#xf62c;" horiz-adv-x="202" 
d="M132 176q-55 66 -80 127.5t-25 129.5q0 32 5.5 61t18 58.5t32.5 60t48 64.5l49 -34q-20 -31 -33.5 -58t-22 -53t-12.5 -52t-4 -54q0 -29 4 -55t12.5 -52t22 -52.5t33.5 -57.5z" />
    <glyph glyph-name="uniF62D" unicode="&#xf62d;" horiz-adv-x="202" 
d="M71 677q104 -121 104 -250q0 -32 -7.5 -66t-21 -66.5t-32.5 -63t-43 -55.5l-48 34q38 58 55 108t17 108q0 57 -17 107.5t-55 109.5z" />
    <glyph glyph-name="uniF631" unicode="&#xf631;" horiz-adv-x="202" 
d="M132 -90q-55 66 -80 127.5t-25 129.5q0 32 5.5 61t18 58.5t32.5 60t48 64.5l49 -34q-20 -31 -33.5 -58t-22 -53t-12.5 -52t-4 -54q0 -29 4 -55t12.5 -52t22 -52.5t33.5 -57.5z" />
    <glyph glyph-name="uniF632" unicode="&#xf632;" horiz-adv-x="202" 
d="M22 -57q20 31 33.5 57.5t22 52.5t12.5 52t4 55q0 28 -4 54t-12.5 52t-22 53t-33.5 58l49 34q28 -34 48 -64.5t32.5 -60t18 -58.5t5.5 -61q0 -68 -25 -129.5t-80 -127.5z" />
    <glyph glyph-name="uniF639" unicode="&#xf639;" horiz-adv-x="575" 
d="M290 683q56 0 102 -24t79 -68t51 -106t18 -138q0 -81 -18.5 -147.5t-52.5 -113.5t-81.5 -72.5t-105.5 -25.5q-56 0 -101.5 24.5t-77.5 69t-50 107t-18 138.5q0 79 18.5 144.5t52.5 112.5t80.5 73t103.5 26zM286 578q-56 0 -85.5 -60.5t-29.5 -172.5q0 -121 31.5 -187
t88.5 -66q26 0 47 16t36 46t23 72t8 94q0 59 -8.5 106.5t-24 81.5t-37.5 52t-49 18z" />
    <glyph glyph-name="uniF63A" unicode="&#xf63a;" horiz-adv-x="545" 
d="M56 0l-22 87q5 6 16.5 16t32.5 24q20 15 46 37t53.5 49t54.5 56t51 57q66 78 66 146q0 48 -30 75t-81 27q-23 0 -50.5 -4.5t-50.5 -12.5q-63 -21 -65 -22l-35 93q57 26 117.5 41t113.5 15q49 0 89.5 -13.5t69 -39t44 -61t15.5 -78.5q0 -42 -17 -87.5t-49 -90.5
q-18 -25 -36.5 -47t-42 -45.5t-54.5 -50.5t-74 -63h289v-108h-451z" />
    <glyph glyph-name="uniF63B" unicode="&#xf63b;" horiz-adv-x="489" 
d="M24 632q60 24 118 37t105 13q85 0 133 -38.5t48 -106.5q0 -54 -33.5 -94.5t-96.5 -63.5q78 -13 119 -53.5t41 -103.5q0 -53 -29 -95.5t-83 -72t-130.5 -45.5t-172.5 -16h-22v96q154 8 225 41t71 97q0 92 -191 92h-36v90q30 1 52.5 3.5t39.5 5.5t32 8t30 13q27 14 42 34
t15 43q0 28 -23 44t-63 16q-15 0 -30.5 -1.5t-33.5 -5.5t-41 -10.5t-53 -16.5z" />
    <glyph glyph-name="uniF63C" unicode="&#xf63c;" horiz-adv-x="593" 
d="M466 140v-140h-122v140h-296l-24 91l338 456l104 -35v-411h88v-101h-88zM344 498l-188 -257h188v257z" />
    <glyph glyph-name="uniF63D" unicode="&#xf63d;" horiz-adv-x="492" 
d="M184 457q137 -12 207.5 -66t70.5 -147q0 -140 -154 -203q-60 -24 -130.5 -36.5t-155.5 -14.5l-4 95q158 12 231.5 49t73.5 106q0 58 -56 87.5t-180 34.5l-24 80l44 225h347v-103h-249z" />
    <glyph glyph-name="uniF63E" unicode="&#xf63e;" horiz-adv-x="543" 
d="M496 581q-142 -20 -224 -78t-113 -160q35 38 71.5 54.5t84.5 16.5q43 0 79.5 -15t63 -42t41 -64.5t14.5 -82.5q0 -49 -17 -90t-47 -71t-72 -46.5t-91 -16.5q-56 0 -102.5 21.5t-80.5 59.5t-52.5 91.5t-18.5 116.5q0 91 38.5 166t114.5 132q31 23 62.5 40t67 29.5
t77.5 20.5t95 14zM162 241q2 -14 3.5 -24t3.5 -17q10 -49 42.5 -79t76.5 -30t71 30.5t27 78.5t-28 78t-73 30q-71 0 -123 -67z" />
    <glyph glyph-name="uniF63F" unicode="&#xf63f;" horiz-adv-x="498" 
d="M164 -19l-123 52l296 530h-322v104h459l13 -91z" />
    <glyph glyph-name="uniF640" unicode="&#xf640;" horiz-adv-x="561" 
d="M389 359q45 -25 67.5 -41.5t38.5 -36.5q17 -20 26 -45.5t9 -51.5q0 -42 -20.5 -78t-57 -62.5t-85.5 -41.5t-106 -15q-51 0 -93.5 12.5t-72.5 35.5t-46.5 55t-16.5 71q0 28 7.5 51.5t24 46t44 45t67.5 47.5q-31 22 -52 40.5t-34 37.5t-18.5 39t-5.5 44q0 38 17.5 69
t49 53.5t75.5 34.5t98 12q92 0 144 -40t52 -111q0 -49 -26 -88t-86 -83zM288 416q14 9 18.5 11.5t9.5 6.5q31 20 47 43.5t16 47.5q0 30 -23.5 46.5t-65.5 16.5q-45 0 -72.5 -19.5t-27.5 -51.5q0 -28 22 -51t76 -50zM269 289q-59 -35 -83 -64t-24 -62q0 -35 29.5 -56
t78.5 -21q25 0 47.5 7t39 19t26 28t9.5 34q0 28 -18.5 48.5t-65.5 46.5l-30 16h-1z" />
    <glyph glyph-name="uniF641" unicode="&#xf641;" horiz-adv-x="544" 
d="M47 86q55 7 98 19.5t86 35.5q33 18 56.5 36t41 39t30.5 47t25 61q-34 -37 -71 -53.5t-86 -16.5q-43 0 -79 15.5t-62.5 42.5t-41 64.5t-14.5 82.5q0 48 17 89t47 70.5t71.5 46.5t90.5 17q55 0 102 -21.5t81 -60t53 -91t19 -114.5q0 -118 -62.5 -208.5t-181.5 -144.5
q-24 -11 -47 -19t-48 -14t-53.5 -10.5t-63.5 -7.5zM381 427q-2 20 -3 26t-3 14q-11 48 -44 78.5t-75 30.5q-45 0 -72 -30t-27 -78q0 -49 28 -79t73 -30q70 0 123 68z" />
    <glyph glyph-name="uniF643" unicode="&#xf643;" horiz-adv-x="627" 
d="M320 533q58 0 107.5 -20t85.5 -56t56 -85t20 -107q0 -60 -21 -111t-58.5 -88.5t-89 -58.5t-111.5 -21q-59 0 -109 20t-86 56t-56 85.5t-20 108.5q0 60 21 111t58.5 87.5t89.5 57.5t113 21zM311 433q-63 0 -101.5 -45t-38.5 -119q0 -40 10.5 -73t30 -57t46.5 -37t60 -13
q63 0 101 45.5t38 119.5q0 40 -10.5 73t-29.5 56.5t-46 36.5t-60 13z" />
    <glyph glyph-name="uniF644" unicode="&#xf644;" horiz-adv-x="627" 
d="M281 0v405l-153 -76l-44 83l218 124l107 -37v-499h-128z" />
    <glyph glyph-name="uniF645" unicode="&#xf645;" horiz-adv-x="627" 
d="M106 0l-13 92q39 19 68.5 34t53 28.5t42 26t35.5 26.5q41 33 60 66t19 68q0 38 -24 59t-67 21q-32 0 -66 -10t-84 -34l-36 91q64 34 118.5 49.5t107.5 15.5q43 0 78 -12t60 -34.5t39 -53.5t14 -69q0 -44 -19.5 -86.5t-55.5 -78.5q-23 -24 -52 -44.5t-76 -45.5h214v-109
h-416z" />
    <glyph glyph-name="uniF646" unicode="&#xf646;" horiz-adv-x="627" 
d="M103 484q114 49 203 49q81 0 127.5 -37.5t46.5 -103.5q0 -108 -123 -156q44 -8 70.5 -22t46.5 -38q33 -39 33 -96q0 -49 -24 -86.5t-78 -72.5t-109.5 -50.5t-127.5 -15.5q-11 0 -24.5 0.5t-28.5 1.5l-15 1v94q73 3 118 11.5t80 25.5q72 34 72 96q0 45 -39 69t-113 24
h-12.5t-24.5 -1h-14h-5v89q16 0 26 0.5t17.5 1t14 1.5t14.5 2q57 9 88.5 35t31.5 63q0 29 -18.5 45t-53.5 16q-28 0 -58 -5.5t-56 -16.5l-23 -9l-12 -4z" />
    <glyph glyph-name="uniF647" unicode="&#xf647;" horiz-adv-x="627" 
d="M471 8v-143h-122v143h-277l-22 93l310 441l111 -36v-398h84v-100h-84zM349 367l-173 -259h173v259z" />
    <glyph glyph-name="uniF648" unicode="&#xf648;" horiz-adv-x="627" 
d="M269 309q57 -7 93.5 -19.5t67.5 -35.5q77 -57 77 -151q0 -71 -40.5 -124t-120.5 -85q-26 -10 -51 -17.5t-54 -12.5t-64 -8t-80 -5l-4 95q78 7 124.5 17t81.5 29q72 39 72 105q0 59 -53.5 90t-155.5 31h-6l-22 78l40 220h325v-100h-227l-19 -105z" />
    <glyph glyph-name="uniF649" unicode="&#xf649;" horiz-adv-x="627" 
d="M532 569q-134 -17 -219 -76.5t-111 -156.5q33 36 70 53t84 17q42 0 77.5 -15t61 -42t40 -64t14.5 -80q0 -47 -17 -87.5t-46.5 -70t-70 -46t-88.5 -16.5q-54 0 -100 21t-79.5 59t-52.5 89.5t-19 113.5q0 88 37.5 162t109.5 128q31 24 61.5 41t65.5 29t77 20.5t96 14.5z
M205 236q2 -16 2 -20t2 -10q9 -51 42 -84t76 -33t70 29.5t27 77.5q0 47 -27.5 76.5t-72.5 29.5q-71 0 -119 -66z" />
    <glyph glyph-name="uniF64A" unicode="&#xf64a;" horiz-adv-x="627" 
d="M251 -160l-115 55l270 521h-298v100h427l12 -88z" />
    <glyph glyph-name="uniF64B" unicode="&#xf64b;" horiz-adv-x="627" 
d="M416 352q28 -17 41.5 -26t27.5 -22q61 -52 61 -124q0 -41 -19.5 -76t-53.5 -61.5t-79.5 -41.5t-97.5 -15q-47 0 -86.5 12.5t-67.5 35t-43.5 54.5t-15.5 70q0 54 30.5 97t101.5 89q-54 38 -77.5 74t-23.5 83q0 37 16.5 68t45.5 53t70 34t91 12q83 0 132.5 -40t49.5 -107
q0 -33 -11 -61.5t-37 -57.5q-14 -15 -27.5 -28t-22.5 -18zM320 409q42 26 60.5 51t18.5 55q0 29 -21 45t-56 16q-38 0 -62 -19t-24 -51q0 -27 18 -48t61 -45zM302 280l-2 -2l-5 -2.5t-15 -9.5q-32 -19 -50.5 -48t-18.5 -58q0 -35 25.5 -55.5t67.5 -20.5q46 0 77 24.5
t31 62.5q0 30 -24 55.5t-80 53.5l-4 2z" />
    <glyph glyph-name="uniF64C" unicode="&#xf64c;" horiz-adv-x="627" 
d="M91 -51q135 18 219.5 77.5t110.5 154.5q-33 -35 -69.5 -51.5t-84.5 -16.5q-42 0 -77.5 15t-61 41.5t-40 63.5t-14.5 81q0 47 16.5 87t46 69.5t70 46t88.5 16.5q55 0 101 -21t79.5 -58.5t52 -89.5t18.5 -113q0 -88 -37 -162.5t-109 -128.5q-31 -24 -61.5 -41t-65.5 -29
t-77 -20.5t-96 -14.5zM418 282q-1 4 -1 5v6q-7 61 -40 98.5t-81 37.5q-43 0 -70 -29.5t-27 -76.5q0 -48 27.5 -77t71.5 -29q35 0 65.5 16.5t54.5 48.5z" />
    <glyph glyph-name="uniF64E" unicode="&#xf64e;" horiz-adv-x="627" 
d="M593 65q-89 -79 -210 -79q-51 0 -95.5 15t-78.5 44q-37 31 -58 71t-34 105h-95v85h87l-1 4q-1 6 -1 11v16q0 12 0.5 19t1.5 14l1 2v2h-88v88h101q9 31 19 55t22 44t26.5 36t32.5 30q66 51 158 51q56 0 106 -18t103 -58l-59 -74q-42 27 -74.5 39t-64.5 12q-48 0 -80 -28
t-54 -89h234v-88h-250q-2 -7 -2 -15.5v-22.5v-14t1 -16h251v-85h-242q10 -45 23.5 -70t38.5 -43q34 -24 79 -24q18 0 34 3t33 9t35.5 16t40.5 24z" />
    <glyph glyph-name="uniF64F" unicode="&#xf64f;" horiz-adv-x="627" 
d="M523 594q-17 4 -26 5t-21 1q-48 0 -73.5 -22.5t-35.5 -72.5l-6 -30h120l-15 -93h-120l-62 -366q-11 -82 -64 -143.5t-132 -84.5l-47 93q29 16 48.5 31.5t33 33.5t21.5 40t13 51l59 345h-86l15 93h88l9 50q4 22 7 36.5t6.5 24.5t8 17.5t10.5 16.5q16 22 33.5 37t38.5 24.5
t47.5 13.5t59.5 4q16 0 27.5 -0.5t22 -2t21.5 -4.5t25 -7z" />
    <glyph glyph-name="uniF651" unicode="&#xf651;" horiz-adv-x="627" 
d="M531 549q-35 10 -53 13.5t-41 3.5q-42 0 -70 -15.5t-45 -49.5q-2 -5 -6 -18t-8 -27t-7 -26.5t-3 -15.5l-4 -22h227v-96h-241l-6 -39l-2 -22q-5 -48 -18 -78.5t-39 -53.5h343v-103h-499l-23 92q24 1 41.5 8t29.5 21t19.5 37t12.5 56l12 82h-103v96h117l11 59
q41 217 249 217q20 0 36 -1t31.5 -4t33.5 -8t42 -13z" />
    <glyph glyph-name="uniF652" unicode="&#xf652;" horiz-adv-x="627" 
d="M433 408h120v-84h-174l-11 -41v-12h185v-84h-185v-187h-129v187h-184v84h184v12l-12 41h-172v84h120l-161 259h151l142 -257l142 257h143z" />
    <glyph glyph-name="uniF653" unicode="&#xf653;" horiz-adv-x="627" 
d="M476 437q-19 4 -33 6t-25.5 3.5t-22.5 2t-24 0.5q-52 0 -79.5 -13t-27.5 -38q0 -18 16.5 -32t56.5 -29q36 -14 58.5 -23t37 -16.5t24 -15.5t20.5 -18q42 -42 42 -102q0 -44 -21.5 -79t-63.5 -58q-21 -11 -42.5 -18t-57.5 -14l-12 -103h-60l10 98h-19q-40 0 -73.5 4.5
t-72.5 15.5l21 94q37 -8 59 -10t51 -2q68 0 103.5 16t35.5 47q0 20 -18 35t-64 33q-35 14 -58.5 24t-34.5 18q-77 47 -77 119q0 91 94 134q23 11 47 16.5t64 9.5l10 98h59l-10 -98q17 -1 29.5 -2t24 -2.5t24 -4t29.5 -6.5z" />
    <glyph glyph-name="uniF654" unicode="&#xf654;" horiz-adv-x="627" 
d="M567 73q-52 -41 -99.5 -61t-107.5 -24l-11 -98h-60l11 101q-29 5 -44 9.5t-31 13.5q-62 34 -95.5 97.5t-33.5 147.5q0 124 72 201q18 19 37 33t41.5 24t49.5 16t61 10l10 97h60l-11 -99q20 -3 34 -5.5t27.5 -7t28.5 -11t36 -16.5l-37 -89q-21 9 -36.5 14.5t-28 8.5t-24 4
t-25.5 1q-71 0 -112 -46t-41 -126q0 -76 37 -122t99 -46q30 0 60.5 11t81.5 40z" />
    <glyph glyph-name="uniF655" unicode="&#xf655;" horiz-adv-x="309" 
d="M156 680q54 0 87 -44.5t33 -117.5q0 -78 -33.5 -125t-90.5 -47q-54 0 -86.5 45t-32.5 118q0 77 34 124t89 47zM154 621q-25 0 -38 -26.5t-13 -77.5q0 -54 14 -83t40 -29q23 0 36.5 27.5t13.5 74.5q0 52 -14.5 83t-38.5 31z" />
    <glyph glyph-name="uniF656" unicode="&#xf656;" horiz-adv-x="241" 
d="M118 352v239l-67 -34l-32 57l122 68l60 -21v-309h-83z" />
    <glyph glyph-name="uniF657" unicode="&#xf657;" horiz-adv-x="326" 
d="M52 354l-16 55q78 62 116 103t38 65q0 34 -42 34q-15 0 -35 -5t-49 -16l-25 63q26 14 59.5 22t64.5 8q53 0 84 -26.5t31 -71.5q0 -43 -29 -82t-90 -78h127v-71h-234z" />
    <glyph glyph-name="uniF658" unicode="&#xf658;" horiz-adv-x="299" 
d="M34 656q38 14 65 20.5t51 6.5q45 0 71.5 -19.5t26.5 -53.5q0 -29 -17.5 -48.5t-49.5 -23.5q37 -1 59 -21.5t22 -53.5q0 -51 -57 -81t-152 -30h-17v58q142 4 142 55q0 37 -78 37h-30v55q45 0 73 11t28 28q0 23 -35 23q-7 0 -13 -0.5t-14.5 -2.5t-20.5 -5.5t-31 -9.5z" />
    <glyph glyph-name="uniF659" unicode="&#xf659;" horiz-adv-x="315" 
d="M242 411v-59h-82v59h-134l-20 52l186 219l50 -17v-197h42v-57h-42zM160 555l-67 -87h67v87z" />
    <glyph glyph-name="uniF65A" unicode="&#xf65a;" horiz-adv-x="295" 
d="M122 571q63 -5 97 -31t34 -71q0 -57 -55.5 -88.5t-155.5 -33.5l-6 58q72 5 106 20.5t34 44.5q0 23 -23 34t-77 13l-20 47l21 108h172v-58h-119z" />
    <glyph glyph-name="uniF65B" unicode="&#xf65b;" horiz-adv-x="298" 
d="M256 619q-127 -15 -153 -92q27 24 65 24q42 0 69 -27.5t27 -70.5q0 -48 -30.5 -78t-78.5 -30q-27 0 -49 10.5t-38.5 29t-25.5 44t-9 55.5q0 89 74 143q29 23 61.5 34t83.5 16zM103 471q7 -69 53 -69q17 0 27.5 13t10.5 33t-11.5 32.5t-30.5 12.5q-30 0 -49 -22z" />
    <glyph glyph-name="uniF65C" unicode="&#xf65c;" horiz-adv-x="321" 
d="M133 343l-71 25l128 241h-139v64h221l6 -44z" />
    <glyph glyph-name="uniF65D" unicode="&#xf65d;" horiz-adv-x="306" 
d="M204 524q38 -20 53 -38.5t15 -44.5q0 -20 -10 -37.5t-27 -30.5t-41 -20t-51 -7q-50 0 -80 22.5t-30 60.5q0 27 15 47t54 45q-31 21 -42 37.5t-11 39.5q0 36 31.5 58.5t83.5 22.5q44 0 69 -19t25 -53q0 -23 -12.5 -42.5t-41.5 -40.5zM156 552q20 13 27.5 23t7.5 22
q0 26 -34 26q-17 0 -27.5 -8t-10.5 -21q0 -12 8.5 -21.5t28.5 -20.5zM150 491q-24 -16 -33.5 -28.5t-9.5 -26.5q0 -15 12 -24t32 -9t34 11t14 27q0 12 -7.5 21.5t-26.5 19.5z" />
    <glyph glyph-name="uniF65E" unicode="&#xf65e;" horiz-adv-x="298" 
d="M41 403q127 16 153 92q-27 -24 -65 -24q-42 0 -69 27.5t-27 70.5q0 48 30.5 78t78.5 30q27 0 49 -10.5t38.5 -29t25.5 -44t9 -55.5q0 -87 -74 -143q-29 -23 -61.5 -34t-83.5 -16zM194 551q-8 69 -53 69q-17 0 -27.5 -13t-10.5 -33t11.5 -32.5t30.5 -12.5q30 0 49 22z" />
    <glyph glyph-name="uniF661" unicode="&#xf661;" horiz-adv-x="309" 
d="M156 328q54 0 87 -44.5t33 -117.5q0 -78 -33.5 -125t-90.5 -47q-54 0 -86.5 45t-32.5 118q0 77 34 124t89 47zM154 269q-25 0 -38 -26.5t-13 -77.5q0 -54 14 -83t40 -29q23 0 36.5 27.5t13.5 74.5q0 52 -14.5 83t-38.5 31z" />
    <glyph glyph-name="uniF662" unicode="&#xf662;" horiz-adv-x="241" 
d="M118 0v239l-67 -34l-32 57l122 68l60 -21v-309h-83z" />
    <glyph glyph-name="uniF663" unicode="&#xf663;" horiz-adv-x="326" 
d="M52 0l-16 55q74 57 114 101t40 67q0 34 -42 34q-29 0 -84 -21l-25 63q28 14 61 22t63 8q53 0 84 -26.5t31 -71.5q0 -43 -29 -82t-90 -78h127v-71h-234z" />
    <glyph glyph-name="uniF664" unicode="&#xf664;" horiz-adv-x="299" 
d="M34 304q38 14 65 20.5t51 6.5q45 0 71.5 -19.5t26.5 -53.5q0 -29 -17.5 -48.5t-49.5 -23.5q37 -1 59 -21.5t22 -53.5q0 -51 -57 -81t-152 -30h-17v58q142 4 142 55q0 37 -78 37h-30v55q45 0 73 11t28 28q0 23 -35 23q-8 0 -13.5 -0.5t-13.5 -2.5t-20 -5.5t-32 -9.5z" />
    <glyph glyph-name="uniF665" unicode="&#xf665;" horiz-adv-x="315" 
d="M242 59v-59h-82v59h-134l-20 52l186 219l50 -17v-197h42v-57h-42zM160 203l-67 -87h67v87z" />
    <glyph glyph-name="uniF666" unicode="&#xf666;" horiz-adv-x="295" 
d="M122 219q63 -5 97 -31t34 -71q0 -57 -55.5 -88.5t-155.5 -33.5l-6 58q72 5 106 20.5t34 44.5q0 23 -23 34t-77 13l-20 47l21 108h172v-58h-119z" />
    <glyph glyph-name="uniF667" unicode="&#xf667;" horiz-adv-x="298" 
d="M256 267q-127 -15 -153 -92q27 24 65 24q42 0 69 -27.5t27 -70.5q0 -48 -30.5 -78t-78.5 -30q-27 0 -49 10.5t-38.5 29t-25.5 44t-9 55.5q0 87 74 143q29 23 61.5 34t83.5 16zM103 119q7 -69 53 -69q17 0 27.5 13t10.5 33t-11.5 32.5t-30.5 12.5q-30 0 -49 -22z" />
    <glyph glyph-name="uniF668" unicode="&#xf668;" horiz-adv-x="321" 
d="M133 -9l-71 25l128 241h-139v64h221l6 -44z" />
    <glyph glyph-name="uniF669" unicode="&#xf669;" horiz-adv-x="306" 
d="M204 172q38 -20 53 -38.5t15 -44.5q0 -20 -10 -37.5t-27 -30.5t-41 -20t-51 -7q-50 0 -80 22.5t-30 60.5q0 27 15.5 47.5t53.5 44.5q-31 21 -42 37.5t-11 39.5q0 36 31.5 58.5t83.5 22.5q44 0 69 -19.5t25 -52.5q0 -24 -12.5 -43t-41.5 -40zM156 200q20 13 27.5 22.5
t7.5 22.5q0 26 -34 26q-17 0 -27.5 -8t-10.5 -22q0 -11 8.5 -20.5t28.5 -20.5zM150 139q-24 -16 -33.5 -28.5t-9.5 -26.5q0 -15 12 -24t32 -9t34 11t14 27q0 12 -7.5 21.5t-26.5 19.5z" />
    <glyph glyph-name="uniF66A" unicode="&#xf66a;" horiz-adv-x="298" 
d="M41 51q127 16 153 92q-27 -24 -65 -24q-42 0 -69 27.5t-27 70.5q0 48 30.5 78t78.5 30q27 0 49 -10.5t38.5 -29t25.5 -44t9 -55.5q0 -87 -74 -143q-29 -23 -61.5 -34t-83.5 -16zM194 199q-8 69 -53 69q-17 0 -27.5 -13t-10.5 -33t11.5 -32.5t30.5 -12.5q30 0 49 22z" />
    <glyph glyph-name="uniF66D" unicode="&#xf66d;" horiz-adv-x="646" 
d="M491 0l-66 149h-214l-65 -149h-136l245 527h133l248 -527h-145zM317 396l-67 -154h135zM229 730q8 -32 29 -45.5t59 -13.5t59 13.5t29 45.5h70q-5 -62 -46 -95.5t-112 -33.5t-112 33.5t-46 95.5h70z" />
    <glyph glyph-name="uniF66E" unicode="&#xf66e;" horiz-adv-x="646" 
d="M491 0l-66 149h-214l-65 -149h-136l245 527h133l248 -527h-145zM317 396l-67 -154h135zM168 631v84h314v-84h-314z" />
    <glyph glyph-name="uniF66F" unicode="&#xf66f;" horiz-adv-x="646" 
d="M317 396l-67 -154h135zM491 0l-66 149h-214l-65 -149h-136l245 527h133l248 -527h-29q-54 -41 -54 -69q0 -11 7.5 -17.5t20.5 -6.5q17 0 46 14l27 -44q-32 -17 -52.5 -24t-40.5 -7q-35 0 -57 19t-22 51q0 24 10.5 42t39.5 42h-41z" />
    <glyph glyph-name="uniF670" unicode="&#xf670;" horiz-adv-x="839" 
d="M416 584l-28 65l213 104l40 -89zM416 0v125h-187l-77 -125h-142l344 527h419v-98h-222v-108h209v-96h-209v-122h238v-103h-373zM416 431l-129 -213h129v213z" />
    <glyph glyph-name="uniF671" unicode="&#xf671;" horiz-adv-x="588" 
d="M278 584l-28 65l213 104l40 -89zM544 36q-85 -47 -190 -47q-67 0 -123 19.5t-96.5 55t-63 84.5t-22.5 108q0 62 24.5 114t68.5 89.5t104.5 58.5t133.5 21q48 0 86 -7t76 -22l13 -5l-38 -96l-10 3q-28 8 -62 13.5t-60 5.5q-44 0 -80.5 -12t-62.5 -34t-40.5 -53t-14.5 -68
q0 -36 13 -65.5t36 -51.5t55 -34t70 -12q36 0 69.5 8t76.5 28l11 5l50 -93z" />
    <glyph glyph-name="uniF672" unicode="&#xf672;" horiz-adv-x="588" 
d="M544 36q-85 -47 -190 -47q-67 0 -123 19.5t-96.5 55t-63 84.5t-22.5 108q0 62 24.5 114t68.5 89.5t104.5 58.5t133.5 21q48 0 86 -7t76 -22l13 -5l-38 -96l-10 3q-28 8 -62 13.5t-60 5.5q-44 0 -80.5 -12t-62.5 -34t-40.5 -53t-14.5 -68q0 -36 13 -65.5t36 -51.5t55 -34
t70 -12q36 0 69.5 8t76.5 28l11 5l50 -93zM508 585l-146 66l-151 -66l-36 64l187 104l182 -104z" />
    <glyph glyph-name="uniF673" unicode="&#xf673;" horiz-adv-x="588" 
d="M544 36q-85 -47 -190 -47q-67 0 -123 19.5t-96.5 55t-63 84.5t-22.5 108q0 62 24.5 114t68.5 89.5t104.5 58.5t133.5 21q48 0 86 -7t76 -22l13 -5l-38 -96l-10 3q-28 8 -62 13.5t-60 5.5q-44 0 -80.5 -12t-62.5 -34t-40.5 -53t-14.5 -68q0 -36 13 -65.5t36 -51.5t55 -34
t70 -12q36 0 69.5 8t76.5 28l11 5l50 -93zM365 585l-181 106l32 60l149 -69l152 69l33 -60z" />
    <glyph glyph-name="uniF674" unicode="&#xf674;" horiz-adv-x="588" 
d="M544 36q-85 -47 -190 -47q-67 0 -123 19.5t-96.5 55t-63 84.5t-22.5 108q0 62 24.5 114t68.5 89.5t104.5 58.5t133.5 21q48 0 86 -7t76 -22l13 -5l-38 -96l-10 3q-28 8 -62 13.5t-60 5.5q-44 0 -80.5 -12t-62.5 -34t-40.5 -53t-14.5 -68q0 -36 13 -65.5t36 -51.5t55 -34
t70 -12q36 0 69.5 8t76.5 28l11 5l50 -93zM366 731q26 0 44.5 -19t18.5 -45q0 -27 -18.5 -45.5t-45.5 -18.5q-26 0 -45 19t-19 45q0 27 19 45.5t46 18.5z" />
    <glyph glyph-name="uniF675" unicode="&#xf675;" horiz-adv-x="649" 
d="M247 527q70 0 112 -4.5t75 -15.5q38 -12 69 -35t52.5 -54t33.5 -68.5t12 -79.5q0 -66 -29 -120t-83 -92q-24 -17 -49.5 -28t-56.5 -17.5t-70 -9.5t-91 -3h-147v527h172zM251 106q101 0 156 43t55 121q0 67 -47 110q-27 25 -61.5 34.5t-95.5 9.5h-48v-318h41zM322 585
l-181 106l32 60l149 -69l152 69l33 -60z" />
    <glyph glyph-name="uniF676" unicode="&#xf676;" horiz-adv-x="663" 
d="M0 318h89v209h172q70 0 112 -4.5t75 -15.5q38 -12 69 -35t52.5 -54t33.5 -68.5t12 -79.5q0 -66 -29 -120t-83 -92q-24 -17 -49.5 -28t-56.5 -17.5t-70 -9.5t-91 -3h-147v228h-89v90zM265 106q101 0 156 43t55 121q0 67 -47 110q-27 25 -61.5 34.5t-95.5 9.5h-48v-106h115
v-90h-115v-122h41z" />
    <glyph glyph-name="uniF677" unicode="&#xf677;" horiz-adv-x="518" 
d="M75 0v527h377v-98h-242v-108h229v-96h-229v-122h258v-103h-393zM171 730q8 -32 29 -45.5t59 -13.5t59 13.5t29 45.5h70q-5 -62 -46 -95.5t-112 -33.5t-112 33.5t-46 95.5h70z" />
    <glyph glyph-name="uniF678" unicode="&#xf678;" horiz-adv-x="518" 
d="M75 0v527h377v-98h-242v-108h229v-96h-229v-122h258v-103h-393zM262 585l-181 106l32 60l149 -69l152 69l33 -60z" />
    <glyph glyph-name="uniF679" unicode="&#xf679;" horiz-adv-x="518" 
d="M75 0v527h377v-98h-242v-108h229v-96h-229v-122h258v-103h-393zM260 731q26 0 44.5 -19t18.5 -45q0 -27 -18.5 -45.5t-45.5 -18.5q-26 0 -45 19t-19 45q0 27 19 45.5t46 18.5z" />
    <glyph glyph-name="uniF67A" unicode="&#xf67a;" horiz-adv-x="518" 
d="M75 0v527h377v-98h-242v-108h229v-96h-229v-122h258v-103h-393zM102 631v84h314v-84h-314z" />
    <glyph glyph-name="uniF67C" unicode="&#xf67c;" horiz-adv-x="518" 
d="M75 527h377v-98h-242v-108h229v-96h-229v-122h258v-103h-47l-7 -6q-22 -16 -34.5 -33t-12.5 -30q0 -11 7.5 -17.5t20.5 -6.5q11 0 20.5 3t26.5 11l26 -44q-32 -17 -52 -24t-40 -7q-36 0 -58 19t-22 51q0 12 2.5 22t8 19.5t15.5 19.5t25 23h-272v527z" />
    <glyph glyph-name="uniF67D" unicode="&#xf67d;" horiz-adv-x="621" 
d="M526 407l-9 3q-33 11 -62 16t-60 5q-47 0 -85.5 -12t-65.5 -34.5t-41.5 -54t-14.5 -70.5q0 -37 13.5 -67.5t38 -52t59 -33.5t76.5 -12q12 0 26.5 1.5t20.5 3.5l9 3v164h132v-238q-8 -3 -27 -9.5t-45 -13.5t-58.5 -12t-67.5 -5q-70 0 -128 19.5t-100 54.5t-65 84.5
t-23 108.5q0 61 24.5 113t69 89t105.5 58t134 21q46 0 90 -8t92 -25zM281 730q8 -32 29 -45.5t59 -13.5t59 13.5t29 45.5h70q-5 -62 -46 -95.5t-112 -33.5t-112 33.5t-46 95.5h70z" />
    <glyph glyph-name="uniF67E" unicode="&#xf67e;" horiz-adv-x="621" 
d="M526 407l-9 3q-33 11 -62 16t-60 5q-47 0 -85.5 -12t-65.5 -34.5t-41.5 -54t-14.5 -70.5q0 -37 13.5 -67.5t38 -52t59 -33.5t76.5 -12q12 0 26.5 1.5t20.5 3.5l9 3v164h132v-238q-8 -3 -27 -9.5t-45 -13.5t-58.5 -12t-67.5 -5q-70 0 -128 19.5t-100 54.5t-65 84.5
t-23 108.5q0 61 24.5 113t69 89t105.5 58t134 21q46 0 90 -8t92 -25zM525 585l-146 66l-151 -66l-36 64l187 104l182 -104z" />
    <glyph glyph-name="uniF67F" unicode="&#xf67f;" horiz-adv-x="621" 
d="M526 407l-9 3q-33 11 -62 16t-60 5q-47 0 -85.5 -12t-65.5 -34.5t-41.5 -54t-14.5 -70.5q0 -37 13.5 -67.5t38 -52t59 -33.5t76.5 -12q12 0 26.5 1.5t20.5 3.5l9 3v164h132v-238q-8 -3 -27 -9.5t-45 -13.5t-58.5 -12t-67.5 -5q-70 0 -128 19.5t-100 54.5t-65 84.5
t-23 108.5q0 61 24.5 113t69 89t105.5 58t134 21q46 0 90 -8t92 -25zM392 -242h-75v201h115z" />
    <glyph glyph-name="uniF680" unicode="&#xf680;" horiz-adv-x="621" 
d="M526 407l-9 3q-33 11 -62 16t-60 5q-47 0 -85.5 -12t-65.5 -34.5t-41.5 -54t-14.5 -70.5q0 -37 13.5 -67.5t38 -52t59 -33.5t76.5 -12q12 0 26.5 1.5t20.5 3.5l9 3v164h132v-238q-8 -3 -27 -9.5t-45 -13.5t-58.5 -12t-67.5 -5q-70 0 -128 19.5t-100 54.5t-65 84.5
t-23 108.5q0 61 24.5 113t69 89t105.5 58t134 21q46 0 90 -8t92 -25zM377 731q26 0 44.5 -19t18.5 -45q0 -27 -18.5 -45.5t-45.5 -18.5q-26 0 -45 19t-19 45q0 27 19 45.5t46 18.5z" />
    <glyph glyph-name="uniF681" unicode="&#xf681;" horiz-adv-x="654" 
d="M445 0v229h-235v-229h-135v382h-89v90h89v55h135v-55h235v55h134v-55h89v-90h-89v-382h-134zM445 325v57h-235v-57h235z" />
    <glyph glyph-name="uniF682" unicode="&#xf682;" horiz-adv-x="654" 
d="M445 0v229h-235v-229h-135v527h135v-202h235v202h134v-527h-134zM474 585l-146 66l-151 -66l-36 64l187 104l182 -104z" />
    <glyph glyph-name="uniF683" unicode="&#xf683;" horiz-adv-x="287" 
d="M75 0v527h137v-527h-137zM56 730q8 -32 29 -45.5t59 -13.5t59 13.5t29 45.5h70q-5 -62 -46 -95.5t-112 -33.5t-112 33.5t-46 95.5h70z" />
    <glyph glyph-name="uniF684" unicode="&#xf684;" horiz-adv-x="287" 
d="M75 0v527h137v-527h-137zM540 163q0 -80 -50.5 -121.5t-157.5 -49.5l-22 -2l-24 96l11 2l20 4l12 3q24 6 39.5 13t23.5 16.5t11 24.5t3 38v340h134v-351v-13z" />
    <glyph glyph-name="uniF685" unicode="&#xf685;" horiz-adv-x="287" 
d="M75 0v527h137v-527h-137zM-13 631v84h314v-84h-314z" />
    <glyph glyph-name="uniF686" unicode="&#xf686;" horiz-adv-x="287" 
d="M75 0v527h137v-527h-29q-54 -41 -54 -69q0 -11 7.5 -17.5t20.5 -6.5q10 0 20 3t27 11l26 -44q-32 -17 -52 -24t-40 -7q-36 0 -58 19t-22 51q0 25 10.5 42t39.5 42h-33z" />
    <glyph glyph-name="uniF687" unicode="&#xf687;" horiz-adv-x="287" 
d="M75 0v527h137v-527h-137zM331 676q-38 -38 -67 -54t-56 -16q-8 0 -14.5 1t-15.5 3.5t-22.5 7t-34.5 12.5q-28 10 -45 10q-27 0 -71 -37l-48 55q35 36 62.5 52t55.5 16q26 0 74 -20q36 -15 58 -15q14 0 32 9.5t45 31.5z" />
    <glyph glyph-name="uniF688" unicode="&#xf688;" horiz-adv-x="342" 
d="M269 163q0 -80 -50.5 -121.5t-157.5 -49.5l-22 -2l-24 96l11 2l20 4l12 3q24 6 39.5 13t23.5 16.5t11 24.5t3 38v340h134v-351v-13zM349 585l-146 66l-151 -66l-36 64l187 104l182 -104z" />
    <glyph glyph-name="uniF689" unicode="&#xf689;" horiz-adv-x="597" 
d="M421 0l-210 237v-237h-136v527h136v-204l201 204h170l-251 -245l267 -282h-177zM326 -242h-75v201h115z" />
    <glyph glyph-name="uniF68A" unicode="&#xf68a;" horiz-adv-x="471" 
d="M116 585l-28 65l213 104l40 -89v-1zM75 0v527h136v-424h243v-103h-379z" />
    <glyph glyph-name="uniF68B" unicode="&#xf68b;" horiz-adv-x="471" 
d="M361 326h-75v201h115zM75 0v527h136v-424h243v-103h-379z" />
    <glyph glyph-name="uniF68C" unicode="&#xf68c;" horiz-adv-x="471" 
d="M75 0v527h136v-424h243v-103h-379zM286 -242h-75v201h115z" />
    <glyph glyph-name="uniF68D" unicode="&#xf68d;" horiz-adv-x="471" 
d="M75 0v527h136v-424h243v-103h-379zM363 412q26 0 44.5 -19t18.5 -45q0 -27 -18.5 -45.5t-45.5 -18.5q-26 0 -45 19t-19 45q0 27 19 45.5t46 18.5z" />
    <glyph glyph-name="uniF68E" unicode="&#xf68e;" horiz-adv-x="646" 
d="M224 585l-28 65l213 104l40 -89v-1zM445 0l-244 315v-315h-126v527h124l247 -319v319h125v-527h-126z" />
    <glyph glyph-name="uniF68F" unicode="&#xf68f;" horiz-adv-x="646" 
d="M445 0l-244 315v-315h-126v527h124l247 -319v319h125v-527h-126zM321 585l-181 106l32 60l149 -69l152 69l33 -60z" />
    <glyph glyph-name="uniF690" unicode="&#xf690;" horiz-adv-x="646" 
d="M445 0l-244 315v-315h-126v527h124l247 -319v319h125v-527h-126zM340 -242h-75v201h115z" />
    <glyph glyph-name="uniF691" unicode="&#xf691;" horiz-adv-x="666" 
d="M339 539q60 0 111 -20t88 -55t58 -84t21 -106q0 -62 -22 -114t-61 -90t-92.5 -59.5t-116.5 -21.5q-60 0 -110.5 20t-87.5 56t-57.5 85.5t-20.5 108.5q0 61 21.5 112t60.5 88.5t92 58.5t116 21zM477 259q0 42 -14.5 75.5t-36.5 54.5q-40 38 -96 38q-31 0 -57 -12t-45 -33
t-29.5 -50t-10.5 -64q0 -36 10.5 -66t30 -52t46 -34t58.5 -12q31 0 57.5 11.5t45.5 31.5t30 48t11 61v3zM472 730q-5 -62 -40.5 -95.5t-97.5 -33.5q-30 0 -55.5 9.5t-44 26t-29.5 39t-11 48.5v6h69q5 -31 21.5 -44.5t49.5 -13.5t49.5 13.5t20.5 44.5h68z" />
    <glyph glyph-name="uniF692" unicode="&#xf692;" horiz-adv-x="666" 
d="M339 539q60 0 111 -20t88 -55t58 -84t21 -106q0 -62 -22 -114t-61 -90t-92.5 -59.5t-116.5 -21.5q-60 0 -110.5 20t-87.5 56t-57.5 85.5t-20.5 108.5q0 61 21.5 112t60.5 88.5t92 58.5t116 21zM477 259q0 42 -14.5 75.5t-36.5 54.5q-40 38 -96 38q-31 0 -57 -12t-45 -33
t-29.5 -50t-10.5 -64q0 -36 10.5 -66t30 -52t46 -34t58.5 -12q31 0 57.5 11.5t45.5 31.5t30 48t11 61v3zM184 585l-37 45l153 124l52 -62zM351 585l-37 45l153 124l52 -62z" />
    <glyph glyph-name="uniF693" unicode="&#xf693;" horiz-adv-x="666" 
d="M339 539q60 0 111 -20t88 -55t58 -84t21 -106q0 -62 -22 -114t-61 -90t-92.5 -59.5t-116.5 -21.5q-60 0 -110.5 20t-87.5 56t-57.5 85.5t-20.5 108.5q0 61 21.5 112t60.5 88.5t92 58.5t116 21zM477 259q0 42 -14.5 75.5t-36.5 54.5q-40 38 -96 38q-31 0 -57 -12t-45 -33
t-29.5 -50t-10.5 -64q0 -36 10.5 -66t30 -52t46 -34t58.5 -12q31 0 57.5 11.5t45.5 31.5t30 48t11 61v3zM176 631v84h314v-84h-314z" />
    <glyph glyph-name="uniF694" unicode="&#xf694;" horiz-adv-x="665" 
d="M261 584l-28 65l213 104l40 -89v-1zM106 88q-26 33 -41.5 76.5t-15.5 94.5q0 61 21.5 112t60.5 88.5t92 58.5t116 21q45 0 88 -12.5t78 -36.5l54 54l48 -46l-52 -53q30 -34 46 -80t16 -91q0 -62 -22 -114t-61 -90t-92.5 -59.5t-116.5 -21.5q-34 0 -61.5 6t-49.5 14.5
t-37 17.5t-23 15l-54 -55l-50 46zM188 268q0 -33 7.5 -54.5t9.5 -26.5l208 213q-12 9 -32.5 18t-50.5 9q-31 0 -57 -12t-45 -33t-29.5 -50t-10.5 -64zM477 259q0 38 -9 60t-11 27l-210 -214q11 -9 33 -18.5t53 -9.5t57.5 11.5t45.5 31.5t30 48t11 61v3z" />
    <glyph glyph-name="uniF695" unicode="&#xf695;" horiz-adv-x="569" 
d="M399 0l-106 186q-19 33 -58 33h-25v-219h-135v527h191q59 0 90.5 -4.5t57.5 -15.5q38 -17 59.5 -48t21.5 -70q0 -43 -26.5 -78.5t-69.5 -49.5l-9 -3q13 -9 20 -17t15 -20l132 -221h-158zM255 310q49 0 75.5 17t26.5 49q0 31 -23 45t-74 14h-50v-125h45zM186 585l-28 65
l213 104l40 -89v-1z" />
    <glyph glyph-name="uniF696" unicode="&#xf696;" horiz-adv-x="569" 
d="M399 0l-106 186q-19 33 -58 33h-25v-219h-135v527h191q59 0 90.5 -4.5t57.5 -15.5q38 -17 59.5 -48t21.5 -70q0 -43 -26.5 -78.5t-69.5 -49.5l-9 -3q13 -9 20 -17t15 -20l132 -221h-158zM255 310q49 0 75.5 17t26.5 49q0 31 -23 45t-74 14h-50v-125h45zM282 585l-181 106
l32 60l149 -69l152 69l33 -60z" />
    <glyph glyph-name="uniF697" unicode="&#xf697;" horiz-adv-x="569" 
d="M399 0l-106 186q-19 33 -58 33h-25v-219h-135v527h191q59 0 90.5 -4.5t57.5 -15.5q38 -17 59.5 -48t21.5 -70q0 -43 -26.5 -78.5t-69.5 -49.5l-9 -3q13 -9 20 -17t15 -20l132 -221h-158zM255 310q49 0 75.5 17t26.5 49q0 31 -23 45t-74 14h-50v-125h45zM312 -242h-75v201
h115z" />
    <glyph glyph-name="uniF698" unicode="&#xf698;" horiz-adv-x="510" 
d="M423 425q-35 6 -58.5 8.5t-50.5 2.5q-54 0 -87 -13t-33 -35q0 -15 19 -27t69 -28q45 -14 80 -31t57 -34t35 -45.5t13 -59.5q0 -38 -18.5 -70t-52 -55t-80.5 -35.5t-103 -12.5q-30 0 -68.5 4t-76.5 11l-16 3l-10 3l23 99l9 -1l19 -2l19 -2q40 -5 57.5 -6.5t32.5 -1.5
q57 0 90.5 16t33.5 44q0 10 -4.5 17.5t-17.5 15.5t-35.5 17t-59.5 21q-78 26 -115 63t-37 90q0 36 17.5 65t49.5 49.5t78 31.5t103 11q42 0 72 -3.5t56 -11.5l10 -3zM187 585l-28 65l213 104l40 -89v-1z" />
    <glyph glyph-name="uniF699" unicode="&#xf699;" horiz-adv-x="510" 
d="M268 -50l9 -1q26 -2 43 -19t17 -43q0 -89 -164 -92l9 55q78 1 78 30q0 22 -43 22h-10.5t-19.5 -2l15 90q-29 1 -64.5 5t-69.5 10l-16 3l-10 3l23 99l9 -1l38 -4q40 -5 57.5 -6.5t32.5 -1.5q57 0 90.5 16t33.5 44q0 10 -4.5 17.5t-17.5 15.5t-35.5 17t-59.5 21
q-78 26 -115 63t-37 90q0 36 17.5 65t49.5 49.5t78 31.5t103 11q42 0 72 -3.5t56 -11.5l10 -3l-20 -95q-35 6 -58.5 8.5t-50.5 2.5q-54 0 -87 -13t-33 -35q0 -15 19 -27t69 -28q45 -14 80 -31t57 -34t35 -45.5t13 -59.5q0 -33 -14 -61.5t-39.5 -50t-61.5 -36.5t-80 -21
l-8 -44h4z" />
    <glyph glyph-name="uniF69A" unicode="&#xf69a;" horiz-adv-x="510" 
d="M423 425q-35 6 -58.5 8.5t-50.5 2.5q-54 0 -87 -13t-33 -35q0 -15 19 -27t69 -28q45 -14 80 -31t57 -34t35 -45.5t13 -59.5q0 -38 -18.5 -70t-52 -55t-80.5 -35.5t-103 -12.5q-30 0 -68.5 4t-76.5 11l-16 3l-10 3l23 99l9 -1l19 -2l19 -2q40 -5 57.5 -6.5t32.5 -1.5
q57 0 90.5 16t33.5 44q0 10 -4.5 17.5t-17.5 15.5t-35.5 17t-59.5 21q-78 26 -115 63t-37 90q0 36 17.5 65t49.5 49.5t78 31.5t103 11q42 0 72 -3.5t56 -11.5l10 -3zM424 585l-146 66l-151 -66l-36 64l187 104l182 -104z" />
    <glyph glyph-name="uniF69B" unicode="&#xf69b;" horiz-adv-x="510" 
d="M423 425q-35 6 -58.5 8.5t-50.5 2.5q-54 0 -87 -13t-33 -35q0 -15 19 -27t69 -28q45 -14 80 -31t57 -34t35 -45.5t13 -59.5q0 -38 -18.5 -70t-52 -55t-80.5 -35.5t-103 -12.5q-30 0 -68.5 4t-76.5 11l-16 3l-10 3l23 99l9 -1l19 -2l19 -2q40 -5 57.5 -6.5t32.5 -1.5
q57 0 90.5 16t33.5 44q0 10 -4.5 17.5t-17.5 15.5t-35.5 17t-59.5 21q-78 26 -115 63t-37 90q0 36 17.5 65t49.5 49.5t78 31.5t103 11q42 0 72 -3.5t56 -11.5l10 -3zM273 -242h-75v201h115z" />
    <glyph glyph-name="uniF69C" unicode="&#xf69c;" horiz-adv-x="523" 
d="M330 207v-207h-134v207h-64v86h64v136h-177v98h485v-98h-174v-136h64v-86h-64z" />
    <glyph glyph-name="uniF69D" unicode="&#xf69d;" horiz-adv-x="523" 
d="M330 429v-429h-134v429h-177v98h485v-98h-174zM263 585l-181 106l32 60l149 -69l152 69l33 -60z" />
    <glyph glyph-name="uniF69E" unicode="&#xf69e;" horiz-adv-x="523" 
d="M330 429v-429h-134v429h-177v98h485v-98h-174zM279 -242h-75v201h115z" />
    <glyph glyph-name="uniF69F" unicode="&#xf69f;" horiz-adv-x="650" 
d="M577 229q0 -71 -19 -115q-26 -59 -89.5 -91.5t-152.5 -32.5q-75 0 -130 23t-84 65q-17 24 -23.5 58t-6.5 91v300h135v-300v-25q0 -106 114 -106q36 0 65 11.5t46 31.5q11 14 15.5 34t4.5 58v296h125v-298zM237 730q8 -32 29 -45.5t59 -13.5t59 13.5t29 45.5h70
q-5 -62 -46 -95.5t-112 -33.5t-112 33.5t-46 95.5h70z" />
    <glyph glyph-name="uniF6A0" unicode="&#xf6a0;" horiz-adv-x="650" 
d="M577 229q0 -71 -19 -115q-26 -59 -89.5 -91.5t-152.5 -32.5q-75 0 -130 23t-84 65q-17 24 -23.5 58t-6.5 91v300h135v-300v-25q0 -106 114 -106q36 0 65 11.5t46 31.5q11 14 15.5 34t4.5 58v296h125v-298zM176 585l-37 45l153 124l52 -62zM343 585l-37 45l153 124l52 -62
z" />
    <glyph glyph-name="uniF6A1" unicode="&#xf6a1;" horiz-adv-x="650" 
d="M577 229q0 -71 -19 -115q-26 -59 -89.5 -91.5t-152.5 -32.5q-75 0 -130 23t-84 65q-17 24 -23.5 58t-6.5 91v300h135v-300v-25q0 -106 114 -106q36 0 65 11.5t46 31.5q11 14 15.5 34t4.5 58v296h125v-298zM168 631v84h314v-84h-314z" />
    <glyph glyph-name="uniF6A2" unicode="&#xf6a2;" horiz-adv-x="650" 
d="M316 -10q-75 0 -130 23t-84 65q-17 24 -23.5 58t-6.5 91v300h135v-300v-25q0 -106 114 -106q36 0 65 11.5t46 31.5q11 14 15.5 34t4.5 58v296h125v-298q0 -38 -4 -65.5t-14 -49t-27.5 -41.5t-44.5 -43q-26 -23 -43 -38t-26.5 -26t-13 -19t-3.5 -16q0 -11 8 -17.5t20 -6.5
q11 0 20.5 3t26.5 11l26 -44q-32 -17 -52 -24t-40 -7q-36 0 -58 19t-22 51q0 23 10.5 42t34.5 36q-16 -2 -30.5 -3t-28.5 -1z" />
    <glyph glyph-name="uniF6A3" unicode="&#xf6a3;" horiz-adv-x="650" 
d="M577 229q0 -71 -19 -115q-26 -59 -89.5 -91.5t-152.5 -32.5q-75 0 -130 23t-84 65q-17 24 -23.5 58t-6.5 91v300h135v-300v-25q0 -106 114 -106q36 0 65 11.5t46 31.5q11 14 15.5 34t4.5 58v296h125v-298zM322 766q42 0 70 -28t28 -69q0 -42 -28 -70.5t-70 -28.5t-70 28
t-28 70t28 70t70 28zM322 716q-20 0 -34 -14t-14 -34t14 -34.5t34 -14.5t34 14.5t14 34.5t-14 34t-34 14z" />
    <glyph glyph-name="uniF6A4" unicode="&#xf6a4;" horiz-adv-x="650" 
d="M577 229q0 -71 -19 -115q-26 -59 -89.5 -91.5t-152.5 -32.5q-75 0 -130 23t-84 65q-17 24 -23.5 58t-6.5 91v300h135v-300v-25q0 -106 114 -106q36 0 65 11.5t46 31.5q11 14 15.5 34t4.5 58v296h125v-298zM508 677q-38 -38 -67 -54t-56 -16q-8 0 -14.5 1t-15.5 3.5
t-22.5 7t-34.5 12.5q-28 10 -45 10q-27 0 -71 -37l-48 55q35 36 62.5 52t55.5 16q26 0 74 -20q36 -15 58 -15q14 0 32 9.5t45 31.5z" />
    <glyph glyph-name="uniF6A5" unicode="&#xf6a5;" horiz-adv-x="851" 
d="M327 585l-28 65l213 104l40 -89v-1zM670 0h-131l-114 329l-115 -329h-127l-168 527h137l103 -341l118 341h115l120 -341l99 341h129z" />
    <glyph glyph-name="uniF6A6" unicode="&#xf6a6;" horiz-adv-x="851" 
d="M670 0h-131l-114 329l-115 -329h-127l-168 527h137l103 -341l118 341h115l120 -341l99 341h129zM574 585l-146 66l-151 -66l-36 64l187 104l182 -104z" />
    <glyph glyph-name="uniF6A7" unicode="&#xf6a7;" horiz-adv-x="851" 
d="M670 0h-131l-114 329l-115 -329h-127l-168 527h137l103 -341l118 341h115l120 -341l99 341h129zM552 731q27 0 45.5 -18.5t18.5 -45.5t-18 -45.5t-46 -18.5q-27 0 -45.5 18.5t-18.5 45.5t18.5 45.5t45.5 18.5zM300 731q26 0 44.5 -19t18.5 -45q0 -27 -18.5 -45.5
t-45.5 -18.5q-26 0 -45 19t-19 45q0 27 19 45.5t46 18.5z" />
    <glyph glyph-name="uniF6A9" unicode="&#xf6a9;" horiz-adv-x="571" 
d="M353 229v-229h-134v229l-212 298h161l121 -193l124 193h151zM435 585l-146 66l-151 -66l-36 64l187 104l182 -104z" />
    <glyph glyph-name="uniF6AA" unicode="&#xf6aa;" horiz-adv-x="571" 
d="M353 229v-229h-134v229l-212 298h161l121 -193l124 193h151zM387 585l-224 78l40 91l213 -103z" />
    <glyph glyph-name="uniF6AB" unicode="&#xf6ab;" horiz-adv-x="851" 
d="M524 584l-225 78l41 91l213 -104zM670 0h-131l-114 329l-115 -329h-127l-168 527h137l103 -341l118 341h115l120 -341l99 341h129z" />
    <glyph glyph-name="uniF6AC" unicode="&#xf6ac;" horiz-adv-x="525" 
d="M38 0v90l262 339h-258v98h435v-82l-261 -341h271v-104h-449zM263 731q26 0 44.5 -19t18.5 -45q0 -27 -18.5 -45.5t-45.5 -18.5q-26 0 -45 19t-19 45q0 27 19 45.5t46 18.5z" />
    <glyph glyph-name="uniF6AD" unicode="&#xf6ad;" horiz-adv-x="287" 
d="M75 0v527h137v-527h-137zM145 731q26 0 44.5 -19t18.5 -45q0 -27 -18.5 -45.5t-45.5 -18.5q-26 0 -45 19t-19 45q0 27 19 45.5t46 18.5z" />
    <glyph glyph-name="uniF6C3" unicode="&#xf6c3;" horiz-adv-x="297" 
d="M168 -218h-66v177h101z" />
    <glyph glyph-name="uniF6C5" unicode="&#xf6c5;" horiz-adv-x="558" 
d="M400 624q-20 4 -30 5t-24 1q-76 0 -76 -40q0 -9 3.5 -17t12.5 -18t25 -23t41 -31q31 -23 52.5 -40.5t37.5 -32t26.5 -27.5t18.5 -27q16 -26 24 -60t8 -70q0 -55 -18.5 -102t-50.5 -81t-77 -53t-97 -19q-51 0 -94.5 18.5t-75 51t-49.5 77.5t-18 98q0 47 13.5 88.5
t38.5 74.5t60 56t78 32q-85 49 -85 113q0 60 49.5 93.5t137.5 33.5q24 0 43 -3t46 -11zM277 392q-49 0 -78.5 -40t-29.5 -106q0 -71 31 -113.5t82 -42.5q48 0 77 39.5t29 105.5q0 72 -30 114.5t-81 42.5z" />
    <glyph glyph-name="uniF6C9" unicode="&#xf6c9;" horiz-adv-x="559" 
d="M195 722l-28 65l213 104l40 -89v-1z" />
    <glyph glyph-name="uniF6CA" unicode="&#xf6ca;" horiz-adv-x="551" 
d="M277 728l-181 106l32 60l149 -69l152 69l33 -60z" />
    <glyph glyph-name="uniF6CB" unicode="&#xf6cb;" horiz-adv-x="559" 
d="M420 870q27 0 45.5 -18.5t18.5 -45.5t-18 -45.5t-46 -18.5q-27 0 -45.5 18.5t-18.5 45.5t18.5 45.5t45.5 18.5zM168 870q26 0 44.5 -19t18.5 -45q0 -27 -18.5 -45.5t-45.5 -18.5q-26 0 -45 19t-19 45q0 27 19 45.5t46 18.5z" />
    <glyph glyph-name="uniF6CE" unicode="&#xf6ce;" horiz-adv-x="559" 
d="M391 723l-224 78l40 91l213 -103z" />
    <glyph glyph-name="uniF6CF" unicode="&#xf6cf;" horiz-adv-x="500" 
d="M133 722l-37 45l153 124l52 -62zM300 722l-37 45l153 124l52 -62z" />
    <glyph glyph-name="uniF6D0" unicode="&#xf6d0;" horiz-adv-x="448" 
d="M67 738v84h314v-84h-314z" />
    <glyph glyph-name="uniF6DC" unicode="&#xf6dc;" horiz-adv-x="418" 
d="M226 0v546h-1l-160 -80l-45 84l233 133l103 -37v-646h-130z" />
    <glyph glyph-name="uniF6F9" unicode="&#xf6f9;" horiz-adv-x="471" 
d="M75 0v168l-48 -36l-55 78l103 74v243h136v-156l77 56l55 -77l-132 -95v-152h243v-103h-379z" />
    <glyph glyph-name="uniF6FA" unicode="&#xf6fa;" horiz-adv-x="774" 
d="M401 0q-70 0 -112 4.5t-75 15.5q-38 12 -69 35t-52.5 54t-33.5 68.5t-12 79.5q0 66 29 120t83 92q24 16 49.5 27.5t56.5 18t70 9.5t91 3h333v-98h-222v-108h209v-96h-209v-122h238v-103h-364h-10zM397 421q-101 0 -156 -43t-55 -121q0 -67 47 -110q27 -25 61.5 -34.5
t95.5 -9.5h12v318h-5z" />
    <glyph glyph-name="uniF6FD" unicode="&#xf6fd;" horiz-adv-x="510" 
d="M423 425q-35 6 -58.5 8.5t-50.5 2.5q-54 0 -87 -13t-33 -35q0 -15 19 -27t69 -28q45 -14 80 -31t57 -34t35 -45.5t13 -59.5q0 -38 -18.5 -70t-52 -55t-80.5 -35.5t-103 -12.5q-30 0 -68.5 4t-76.5 11l-16 3l-10 3l23 99l9 -1l19 -2l19 -2q40 -5 57.5 -6.5t32.5 -1.5
q57 0 90.5 16t33.5 44q0 10 -4.5 17.5t-17.5 15.5t-35.5 17t-59.5 21q-78 26 -115 63t-37 90q0 36 17.5 65t49.5 49.5t78 31.5t103 11q42 0 72 -3.5t56 -11.5l10 -3zM254 585l-181 106l32 60l149 -69l152 69l33 -60z" />
    <glyph glyph-name="uniF6FF" unicode="&#xf6ff;" horiz-adv-x="525" 
d="M38 0v90l262 339h-258v98h435v-82l-261 -341h271v-104h-449zM263 585l-181 106l32 60l149 -69l152 69l33 -60z" />
    </font>
</defs>
</svg>
